<?xml version="1.0" encoding="utf-8" ?>
<svg baseProfile="full" height="200mm" version="1.1" viewBox="0,0,200,200" width="200mm" xmlns="http://www.w3.org/2000/svg" xmlns:ev="http://www.w3.org/2001/xml-events" xmlns:xlink="http://www.w3.org/1999/xlink"><defs /><rect fill="#1a1a1a" height="200" width="200" x="0" y="0" /><text alignment-baseline="middle" fill="#e1ed5e" style="dominant-baseline: central; font-size:9.0px; font-family:Arial;" text-anchor="middle" x="100.0" y="100.0">2015</text><line stroke="#e1ed5e" stroke-width="0.3" x1="100.0" x2="100.0" y1="15.0" y2="10.0" /><path d="M 100.0 14.0 a86.0,86.0 0 0,1 42.46469731375804,11.215312516191453" fill="none" id="id1" stroke="none" /><text fill="#e1ed5e" style="font-size:6.75px; font-family:Arial;" text-anchor="middle"><textPath startOffset="22.20632615414155" xlink:href="#id1">January</textPath></text><line stroke="#e1ed5e" stroke-width="0.3" x1="143.23703022742887" x2="145.7803849466894" y1="26.81831364943548" y2="22.513508569990506" /><path d="M 143.74570117128098 25.957352633546492 a86.0,86.0 0 0,1 28.547481713284135,27.462654790039103" fill="none" id="id2" stroke="none" /><text fill="#e1ed5e" style="font-size:6.75px; font-family:Arial;" text-anchor="middle"><textPath startOffset="19.985693538727396" xlink:href="#id2">February</textPath></text><line stroke="#e1ed5e" stroke-width="0.3" x1="172.23445277983987" x2="176.4835382374775" y1="55.19839476539836" y2="52.563006222186495" /><path d="M 173.08426987136738 54.67131705675599 a86.0,86.0 0 0,1 12.851231095245387,41.99856678651699" fill="none" id="id3" stroke="none" /><text fill="#e1ed5e" style="font-size:6.75px; font-family:Arial;" text-anchor="middle"><textPath startOffset="22.20632615414155" xlink:href="#id3">March</textPath></text><line stroke="#e1ed5e" stroke-width="0.3" x1="184.98032266829074" x2="189.97916517819016" y1="98.17113171792111" y2="98.06355123074" /><path d="M 185.9800911702706 98.14961562048488 a86.0,86.0 0 0,1 -9.607161424134198,41.387399972396054" fill="none" id="id4" stroke="none" /><text fill="#e1ed5e" style="font-size:6.75px; font-family:Arial;" text-anchor="middle"><textPath startOffset="21.466115282336823" xlink:href="#id4">April</textPath></text><line stroke="#e1ed5e" stroke-width="0.3" x1="174.80103733775053" x2="179.2010983576182" y1="140.37084112569926" y2="142.7455964860345" /><path d="M 175.68104954172406 140.8457921977663 a86.0,86.0 0 0,1 -30.038265399797805,32.042727171017184" fill="none" id="id5" stroke="none" /><text fill="#e1ed5e" style="font-size:6.75px; font-family:Arial;" text-anchor="middle"><textPath startOffset="22.206326154141568" xlink:href="#id5">May</textPath></text><line stroke="#e1ed5e" stroke-width="0.3" x1="143.8653032363475" x2="146.44561519142675" y1="172.8068346515853" y2="177.08958963109032" /><path d="M 144.38136562736335 173.6633856474863 a86.0,86.0 0 0,1 -40.68145358897372,12.25698825130547" fill="none" id="id6" stroke="none" /><text fill="#e1ed5e" style="font-size:6.75px; font-family:Arial;" text-anchor="middle"><textPath startOffset="21.466115282336833" xlink:href="#id6">June</textPath></text><line stroke="#e1ed5e" stroke-width="0.3" x1="102.19456741930631" x2="102.32365962044197" y1="184.97166512339345" y2="189.96999836594603" /><path d="M 102.22038585953345 185.97133177190398 a86.0,86.0 0 0,1 -42.740103519485714,-10.115201625700543" fill="none" id="id7" stroke="none" /><text fill="#e1ed5e" style="font-size:6.75px; font-family:Arial;" text-anchor="middle"><textPath startOffset="22.20632615414155" xlink:href="#id7">July</textPath></text><line stroke="#e1ed5e" stroke-width="0.3" x1="58.666819895761336" x2="56.23545636021788" y1="174.27360380694188" y2="178.64263932499728" /><path d="M 58.180547188652646 175.14741091055294 a86.0,86.0 0 0,1 -31.652253787137756,-30.449443065178592" fill="none" id="id8" stroke="none" /><text fill="#e1ed5e" style="font-size:6.75px; font-family:Arial;" text-anchor="middle"><textPath startOffset="22.20632615414155" xlink:href="#id8">August</textPath></text><path d="M 89.4739219176387 118.17145234162733 l -3.9033712207149454 6.73849496022262 a28.787401441793747,28.787401441793747 0 0,0 -0.42664591610905195,-0.25206992747952417 l 4.0187850078523795 -6.670306460449346" fill="#ff1702" stroke="none" /><path d="M 88.8546689885994 117.79835938074946 l -4.478353619375525 7.151635700204216 a29.43810075364174,29.43810075364174 0 0,0 -0.42715833394337216,-0.272632659019734 l 4.600793755365822 -7.073488612360678" fill="#ff2103" stroke="none" /><path d="M 88.54995079064634 117.60387380957326 l -4.658017787188468 7.161467678359623 a29.543052675358716,29.543052675358716 0 0,0 -0.4239080594068401,-0.2809431467748836 l 4.780600545335271 -7.0802265104934206" fill="#ff2303" stroke="none" /><path d="M 88.24862548938628 117.40417183066458 l -4.721870576873139 6.993245497182912 a29.43810075364174,29.43810075364174 0 0,0 -0.4175207447261856,-0.28717457538007946 l 4.841548206222214 -6.9109301324377315" fill="#ff2103" stroke="none" /><path d="M 87.95078237400918 117.19931262002967 l -4.733155335933657 6.756207816039871 a29.249188050202,29.249188050202 0 0,0 -0.40986841551349273,-0.29243023178749533 l 4.848751079296036 -6.6737333224081565" fill="#ff1e03" stroke="none" /><path d="M 87.65650970185807 116.9893568818739 l -4.972129216110241 6.843548759300646 a29.459091473829943,29.459091473829943 0 0,0 -0.4076787971480623,-0.30159102790660003 l 5.089192983676868 -6.756947782654279" fill="#ff2103" stroke="none" /><path d="M 87.07902340077011 116.55440617244103 l -5.204748713528653 6.668344576553034 a29.459091473829943,29.459091473829943 0 0,0 -0.3970559577629298,-0.31544526650880794 l 5.318762164008941 -6.577765396039096" fill="#ff2103" stroke="none" /><path d="M 86.79598089348748 116.32954008644616 l -5.318762164008941 6.577765396039096 a29.459091473829943,29.459091473829943 0 0,0 -0.3915672579181146,-0.32223319550340707 l 5.431199550471744 -6.485237081678508" fill="#ff2103" stroke="none" /><path d="M 86.51685102203217 116.09983520530335 l -5.458153393057021 6.5174218794940435 a29.50107207459433,29.50107207459433 0 0,0 -0.3865125431290198,-0.329394374465103 l 5.569531412763097 -6.4225031148059895" fill="#ff2203" stroke="none" /><line stroke="#e1ed5e" stroke-width="0.3" x1="26.63291911575756" x2="22.317208475507996" y1="142.92168965132927" y2="145.44649492493687" /><path d="M 25.769776987707644 143.4266507060508 a86.0,86.0 0 0,1 -11.730757126820373,-40.83630448921669" fill="none" id="id9" stroke="none" /><text fill="#e1ed5e" style="font-size:6.75px; font-family:Arial;" text-anchor="middle"><textPath startOffset="21.46611528233685" xlink:href="#id9">September</textPath></text><line stroke="#e1ed5e" stroke-width="0.3" x1="15.007084014347285" x2="10.007500721073583" y1="101.09737516637583" y2="101.16192664675087" /><path d="M 14.007167355692545 101.11028546245083 a86.0,86.0 0 0,1 10.666146001902534,-42.60595125391555" fill="none" id="id10" stroke="none" /><text fill="#e1ed5e" style="font-size:6.75px; font-family:Arial;" text-anchor="middle"><textPath startOffset="22.20632615414155" xlink:href="#id10">October</textPath></text><path d="M 79.12142395522702 97.74499172005258 l -6.323286550851068 -0.6829519167433424 a27.360061015804597,27.360061015804597 0 0,0 0.05460240471298282,-0.4678000584542135 l 6.310593793134497 0.7916957135224177" fill="#ff0000" stroke="none" /><path d="M 79.21141760316559 97.0276538004421 l -10.451827156278796 -1.494399576333402 a31.558121092243276,31.558121092243276 0 0,0 0.08151628968490707,-0.537090499505028 l 10.424554973154587 1.674089188230522" fill="#ff4206" stroke="none" /><path d="M 79.32604984820605 96.31383870115002 l -10.373529368279476 -1.8495982726608948 a31.53713079186108,31.53713079186108 0 0,0 0.0998890202181263,-0.5336111402037322 l 10.340154624151488 2.0278874903272" fill="#ff4106" stroke="none" /><path d="M 79.3925641242962 95.95851677861259 l -10.319556706573495 -2.0238478738126036 a31.516140491478886,31.516140491478886 0 0,0 0.10898687202538788,-0.5314586938955707 l 10.283190538633113 2.2011822238715766" fill="#ff4106" stroke="none" /><path d="M 79.54389044137918 95.25157060432595 l -13.556136346759772 -3.146754574043228 a34.916569153394214,34.916569153394214 0 0,0 0.1409418948396591,-0.5842951457280323 l 13.499961651659298 3.3796349514306576" fill="#ff740a" stroke="none" /><path d="M 79.71946130924805 94.55025226153421 l -16.237208277347353 -4.363231689147542 a37.813230606136905,37.813230606136905 0 0,0 0.17432480810947817,-0.6271390857776367 l 16.159696698671517 4.642082078344121" fill="#ff9f0e" stroke="none" /><line stroke="#e1ed5e" stroke-width="0.3" x1="26.266209847984243" x2="21.928928074336255" y1="57.711370442889674" y2="55.22380399835377" /><path d="M 25.398753493254645 57.213857153982495 a86.0,86.0 0 0,1 29.58750427330803,-30.492523968695096" fill="none" id="id11" stroke="none" /><text fill="#e1ed5e" style="font-size:6.75px; font-family:Arial;" text-anchor="middle"><textPath startOffset="21.46611528233685" xlink:href="#id11">November</textPath></text><path d="M 83.17141714833178 87.43820079747576 l -12.262370457477731 -9.153321868604685 a36.30192897861898,36.30192897861898 0 0,0 0.3781002516142673,-0.49753561071106084 l 12.102994265639355 9.363042255196772" fill="#ff890c" stroke="none" /><path d="M 84.5562425177563 85.77008943001954 l -15.513807339283439 -14.294454655334137 a42.09525188410436,42.09525188410436 0 0,0 0.49558675503025384,-0.5286573964790572 l 15.26545326228273 14.559381468691244" fill="#ffdb14" stroke="none" /><path d="M 86.37877921826538 84.01681056812374 l -13.6285442522174 -15.991782818467717 a42.01129068257558,42.01129068257558 0 0,0 0.5544339321569416,-0.4643224735151384 l 13.351252783101348 16.22400644937667" fill="#ffda14" stroke="none" /><path d="M 86.65592168130627 83.78471172551755 l -6.775660753062423 -8.23356171456878 a31.66307259415424,31.66307259415424 0 0,0 0.4238277189153458,-0.3427058734540166 l 6.632929635582577 8.34897368528693" fill="#ff4306" stroke="none" /><path d="M 87.51073957382395 83.11751280151077 l -12.508458788222358 -16.90843878332444 a42.03228098295777,42.03228098295777 0 0,0 0.5853589256095177,-0.4252881536028423 l 12.215554546259058 17.121246171743948" fill="#ffda14" stroke="none" /><path d="M 87.80319425747018 82.90503203632743 l -12.215554546259058 -17.121246171743948 a42.03228098295777,42.03228098295777 0 0,0 0.5925928348249379,-0.41514915090811105 l 11.91903057185046 17.328980165416002" fill="#ffda14" stroke="none" /><line stroke="#e1ed5e" stroke-width="0.3" x1="56.762969772571076" x2="54.21961505331055" y1="26.818313649435495" y2="22.513508569990535" /><path d="M 56.25429882871897 25.957352633546506 a86.0,86.0 0 0,1 42.265352541879196,-11.944610805530505" fill="none" id="id12" stroke="none" /><text fill="#e1ed5e" style="font-size:6.75px; font-family:Arial;" text-anchor="middle"><textPath startOffset="22.20632615414155" xlink:href="#id12">December</textPath></text><path d="M 90.91171255644093 81.06846463323043 l -19.536070680395287 -40.69499510336538 a66.14134118623784,66.14134118623784 0 0,0 1.0306137128573154,-0.4838869572076586 l 18.832678756238362 41.02524704321305" fill="#35ff63" stroke="none" /><path d="M 92.23578459929587 80.48803036053334 l -3.9090937363177165 -9.823802453232206 a31.572989571519,31.572989571519 0 0,0 0.5066966198519789,-0.19659041649826858 l 3.7394139514660614 9.889635573621026" fill="#ff4206" stroke="none" /><path d="M 93.25333710446033 80.11325718540243 l -14.19869268391613 -41.85265427967729 a65.19556023161697,65.19556023161697 0 0,0 1.0658455114782739,-0.3513925074975964 l 13.476164350195447 42.09086051143412" fill="#33ff57" stroke="none" /><path d="M 96.04723909329186 79.375362276772 l -3.1813499000496392 -16.59958462147283 a37.90169212806762,37.90169212806762 0 0,0 0.64181079234271,-0.11728681994928883 l 2.895143986604036 16.651886922772853" fill="#ffa00e" stroke="none" /><path d="M 96.75951476605007 79.25152402106235 l -3.2523570984893126 -20.8244902417524 a42.07693574799085,42.07693574799085 0 0,0 0.7165722586662954,-0.1056041239773154 l 2.893415859394368 20.877388849890682" fill="#ffdb14" stroke="none" /><path d="M 98.19473922651362 79.07773832637324 l -5.415782320459142 -62.766785020880285 a84.0,84.0 0 0,0 1.4416392425506632,-0.11189895124615123 l 4.334552888546145 62.8507092343149" fill="#4dd2ff" stroke="none" /><path d="M 99.27714615592234 79.0124445844662 l -0.7231802785990238 -20.997033213380153 a42.00948341771267,42.00948341771267 0 0,0 0.722909922684941,-0.018670630510933726 l 0.3616437207192037 21.006370636033445" fill="#ffda14" stroke="none" /></svg>