<?xml version="1.0" encoding="utf-8" ?>
<svg baseProfile="full" height="200mm" version="1.1" viewBox="0,0,200,200" width="200mm" xmlns="http://www.w3.org/2000/svg" xmlns:ev="http://www.w3.org/2001/xml-events" xmlns:xlink="http://www.w3.org/1999/xlink"><defs /><rect fill="#1a1a1a" height="200" width="200" x="0" y="0" /><text alignment-baseline="middle" fill="#e1ed5e" style="dominant-baseline: central; font-size:9.0px; font-family:Arial;" text-anchor="middle" x="100.0" y="100.0">2018</text><line stroke="#e1ed5e" stroke-width="0.3" x1="100.0" x2="100.0" y1="15.0" y2="10.0" /><path d="M 100.0 14.0 a86.0,86.0 0 0,1 42.46469731375804,11.215312516191453" fill="none" id="id25" stroke="none" /><text fill="#e1ed5e" style="font-size:6.75px; font-family:Arial;" text-anchor="middle"><textPath startOffset="22.20632615414155" xlink:href="#id25">January</textPath></text><line stroke="#e1ed5e" stroke-width="0.3" x1="143.23703022742887" x2="145.7803849466894" y1="26.81831364943548" y2="22.513508569990506" /><path d="M 143.74570117128098 25.957352633546492 a86.0,86.0 0 0,1 28.547481713284135,27.462654790039103" fill="none" id="id26" stroke="none" /><text fill="#e1ed5e" style="font-size:6.75px; font-family:Arial;" text-anchor="middle"><textPath startOffset="19.985693538727396" xlink:href="#id26">February</textPath></text><line stroke="#e1ed5e" stroke-width="0.3" x1="172.23445277983987" x2="176.4835382374775" y1="55.19839476539836" y2="52.563006222186495" /><path d="M 173.08426987136738 54.67131705675599 a86.0,86.0 0 0,1 12.851231095245387,41.99856678651699" fill="none" id="id27" stroke="none" /><text fill="#e1ed5e" style="font-size:6.75px; font-family:Arial;" text-anchor="middle"><textPath startOffset="22.20632615414155" xlink:href="#id27">March</textPath></text><path d="M 120.78858239683441 97.02765380044208 l 55.547307245827575 -7.94213979751466 a77.11221726884115,77.11221726884115 0 0,0 0.17656494894320468,1.3156139547690584 l -55.675788193828616 6.984807500680937" fill="#44ffe7" stroke="none" /><line stroke="#e1ed5e" stroke-width="0.3" x1="184.98032266829074" x2="189.97916517819016" y1="98.17113171792111" y2="98.06355123074" /><path d="M 185.9800911702706 98.14961562048488 a86.0,86.0 0 0,1 -9.607161424134198,41.387399972396054" fill="none" id="id28" stroke="none" /><text fill="#e1ed5e" style="font-size:6.75px; font-family:Arial;" text-anchor="middle"><textPath startOffset="21.466115282336823" xlink:href="#id28">April</textPath></text><path d="M 120.49622156327973 104.57218783832717 l 54.60327879299595 12.180608335996864 a76.94537759619286,76.94537759619286 0 0,0 -0.2994986485225106,1.2902323392270973 l -54.38551957854289 -13.118709332572527" fill="#44ffe6" stroke="none" /><path d="M 119.67450827220406 107.3425965602758 l 12.309097031875218 4.593798852601409 a34.13837347765245,34.13837347765245 0 0,0 -0.2102041417158939,0.5487766834620913 l -12.228198610565817 -4.804999102896644" fill="#ff870c" stroke="none" /><path d="M 118.81262510543309 109.33194174019688 l 23.68741654621109 11.750066242545719 a47.44159146757107,47.44159146757107 0 0,0 -0.3691889516708025,0.7284448266114136 l -23.48164892475402 -12.156065280859828" fill="#c9ff1d" stroke="none" /><line stroke="#e1ed5e" stroke-width="0.3" x1="174.80103733775053" x2="179.2010983576182" y1="140.37084112569926" y2="142.7455964860345" /><path d="M 175.68104954172406 140.8457921977663 a86.0,86.0 0 0,1 -30.038265399797805,32.042727171017184" fill="none" id="id29" stroke="none" /><text fill="#e1ed5e" style="font-size:6.75px; font-family:Arial;" text-anchor="middle"><textPath startOffset="22.206326154141568" xlink:href="#id29">May</textPath></text><line stroke="#e1ed5e" stroke-width="0.3" x1="143.8653032363475" x2="146.44561519142675" y1="172.8068346515853" y2="177.08958963109032" /><path d="M 144.38136562736335 173.6633856474863 a86.0,86.0 0 0,1 -40.68145358897372,12.25698825130547" fill="none" id="id30" stroke="none" /><text fill="#e1ed5e" style="font-size:6.75px; font-family:Arial;" text-anchor="middle"><textPath startOffset="21.466115282336833" xlink:href="#id30">June</textPath></text><line stroke="#e1ed5e" stroke-width="0.3" x1="102.19456741930631" x2="102.32365962044197" y1="184.97166512339345" y2="189.96999836594603" /><path d="M 102.22038585953345 185.97133177190398 a86.0,86.0 0 0,1 -42.740103519485714,-10.115201625700543" fill="none" id="id31" stroke="none" /><text fill="#e1ed5e" style="font-size:6.75px; font-family:Arial;" text-anchor="middle"><textPath startOffset="22.20632615414155" xlink:href="#id31">July</textPath></text><line stroke="#e1ed5e" stroke-width="0.3" x1="58.666819895761336" x2="56.23545636021788" y1="174.27360380694188" y2="178.64263932499728" /><path d="M 58.180547188652646 175.14741091055294 a86.0,86.0 0 0,1 -31.652253787137756,-30.449443065178592" fill="none" id="id32" stroke="none" /><text fill="#e1ed5e" style="font-size:6.75px; font-family:Arial;" text-anchor="middle"><textPath startOffset="22.20632615414155" xlink:href="#id32">August</textPath></text><path d="M 84.67929136418377 114.36230785411682 l -19.777809252817445 18.540590511910803 a48.109320083159375,48.109320083159375 0 0,0 -0.5611690839644335,-0.6090382084032578 l 20.094024744777606 -18.1974010487062" fill="#c1ff1e" stroke="none" /><path d="M 83.28015986056508 112.70617746262583 l -10.148574438311115 7.712369659666341 a33.74653713356234,33.74653713356234 0 0,0 -0.3474908782470855,-0.46552081755970887 l 10.279826583253286 -7.536535962597324" fill="#ff820b" stroke="none" /><path d="M 83.06392112726016 112.41649034213515 l -10.964004938543761 8.038133410542358 a34.59488848862282,34.59488848862282 0 0,0 -0.34795902520522,-0.4832846526536762 l 11.100743756124588 -7.848215152437544" fill="#ff8e0d" stroke="none" /><line stroke="#e1ed5e" stroke-width="0.3" x1="26.63291911575756" x2="22.317208475507996" y1="142.92168965132927" y2="145.44649492493687" /><path d="M 25.769776987707644 143.4266507060508 a86.0,86.0 0 0,1 -11.730757126820373,-40.83630448921669" fill="none" id="id33" stroke="none" /><text fill="#e1ed5e" style="font-size:6.75px; font-family:Arial;" text-anchor="middle"><textPath startOffset="21.46611528233685" xlink:href="#id33">September</textPath></text><path d="M 81.69416730710424 110.29060199501025 l -11.153189136524556 6.269751958543141 a33.7946636351545,33.7946636351545 0 0,0 -0.2806945986962815,-0.5095422298913775 l 11.259460144672355 -6.076839210253941" fill="#ff820c" stroke="none" /><path d="M 80.58989483394504 108.01547362559985 l -58.09051649400928 23.98869036884465 a83.84874996492026,83.84874996492026 0 0,0 -0.5394165199069845,-1.3387875651823007 l 58.49483562817365 -22.985203435819546" fill="#4dd3ff" stroke="none" /><path d="M 80.45479744820244 107.68017299344265 l -7.344642225923691 2.8860341928178084 a28.891321992475966,28.891321992475966 0 0,0 -0.17789586684442854,-0.46442997274737047 l 7.393232372361628 -2.7591806532372805" fill="#ff3c05" stroke="none" /><path d="M 79.76711848015287 105.62410040840567 l -6.214807917806936 1.7275198154259195 a27.450438912812444,27.450438912812444 0 0,0 -0.1226275466511206,-0.4563427196558965 l 6.243623540799832 -1.620286162594484" fill="#ff2603" stroke="none" /><path d="M 79.29508885075956 103.50808413554451 l -12.726634323531714 2.156305025771419 a33.90801582618578,33.90801582618578 0 0,0 -0.09254990382126463,-0.5763083394408062 l 12.76186598171427 -1.9369174566373988" fill="#ff840c" stroke="none" /><path d="M 79.23777060512086 103.15116336523772 l -13.020711433350165 1.976203425833685 a34.169825595308865,34.169825595308865 0 0,0 -0.08325388348482299,-0.5822774671867277 l 13.052799367851586 -1.7517804866665565" fill="#ff880c" stroke="none" /><path d="M 79.18660465613746 102.79330883721812 l -20.886250967790062 2.8030865911499334 a42.07350881858538,42.07350881858538 0 0,0 -0.09015449512027468,-0.7186200299075582 l 20.931406972157184 -2.4431488069549667" fill="#fff216" stroke="none" /><line stroke="#e1ed5e" stroke-width="0.3" x1="15.007084014347285" x2="10.007500721073583" y1="101.09737516637583" y2="101.16192664675087" /><path d="M 14.007167355692545 101.11028546245083 a86.0,86.0 0 0,1 10.666146001902534,-42.60595125391555" fill="none" id="id34" stroke="none" /><text fill="#e1ed5e" style="font-size:6.75px; font-family:Arial;" text-anchor="middle"><textPath startOffset="22.20632615414155" xlink:href="#id34">October</textPath></text><path d="M 79.00175016825051 100.2711162175752 l -3.9294671202698637 0.050734812247204115 a24.92979463464132,24.92979463464132 0 0,0 -0.001846826146916416,-0.42913735575008116 l 3.929758243706283 0.01691202170655241" fill="#ff0000" stroke="none" /><path d="M 79.00019446554 99.90962569577889 l -13.190200796242975 -0.056765059921207436 a34.190322942113156,34.190322942113156 0 0,0 0.007598380657802323,-0.588502955656053 l 13.187269408467456 0.2838042736377325" fill="#ff880c" stroke="none" /><path d="M 79.00486145842228 99.54816195383935 l -13.184887264696908 -0.28375300733221004 a34.18794024675335,34.18794024675335 0 0,0 0.017726130444704752,-0.5882439718667851 l 13.178049439796558 0.5106671266239896" fill="#ff880c" stroke="none" /><path d="M 79.08570108090925 98.10471618934814 l -13.111605401646203 -1.1881925158252356 a34.16533317706548,34.16533317706548 0 0,0 0.058118281100432996,-0.5852431593060095 l 13.089209994863541 1.4137112058356753" fill="#ff880c" stroke="none" /><line stroke="#e1ed5e" stroke-width="0.3" x1="26.266209847984243" x2="21.928928074336255" y1="57.711370442889674" y2="55.22380399835377" /><path d="M 25.398753493254645 57.213857153982495 a86.0,86.0 0 0,1 29.58750427330803,-30.492523968695096" fill="none" id="id35" stroke="none" /><text fill="#e1ed5e" style="font-size:6.75px; font-family:Arial;" text-anchor="middle"><textPath startOffset="21.46611528233685" xlink:href="#id35">November</textPath></text><path d="M 82.15384107792192 88.93136811851018 l -47.433822431265384 -29.419637106005023 a76.81650793349439,76.81650793349439 0 0,0 0.7066109278811519,-1.1176887949266112 l 46.920383907138266 30.23177354864585" fill="#44ffe4" stroke="none" /><path d="M 83.84228863543731 86.58626213691792 l -9.254175277995882 -7.682590592025417 a33.027549969987554,33.027549969987554 0 0,0 0.3669036605010355,-0.43429820666139163 l 9.120561004007723 7.840747748315925" fill="#ff780b" stroke="none" /><line stroke="#e1ed5e" stroke-width="0.3" x1="56.762969772571076" x2="54.21961505331055" y1="26.818313649435495" y2="22.513508569990535" /><path d="M 56.25429882871897 25.957352633546506 a86.0,86.0 0 0,1 42.265352541879196,-11.944610805530505" fill="none" id="id36" stroke="none" /><text fill="#e1ed5e" style="font-size:6.75px; font-family:Arial;" text-anchor="middle"><textPath startOffset="22.20632615414155" xlink:href="#id36">December</textPath></text><path d="M 89.3179101791058 81.91981866633112 l -32.046269462682616 -54.240544001006626 a84.0,84.0 0 0,0 1.2512130701387194,-0.7247833704398112 l 31.107859660078574 54.78413152883649" fill="#4dd2ff" stroke="none" /></svg>