<?xml version="1.0" encoding="utf-8" ?>
<svg baseProfile="full" height="200mm" version="1.1" viewBox="0,0,200,200" width="200mm" xmlns="http://www.w3.org/2000/svg" xmlns:ev="http://www.w3.org/2001/xml-events" xmlns:xlink="http://www.w3.org/1999/xlink"><defs /><rect fill="#1a1a1a" height="200" width="200" x="0" y="0" /><text alignment-baseline="middle" fill="#e1ed5e" style="dominant-baseline: central; font-size:9.0px; font-family:Arial;" text-anchor="middle" x="100.0" y="100.0">2021</text><line stroke="#e1ed5e" stroke-width="0.3" x1="100.0" x2="100.0" y1="15.0" y2="10.0" /><path d="M 100.0 14.0 a86.0,86.0 0 0,1 42.46469731375804,11.215312516191453" fill="none" id="id61" stroke="none" /><text fill="#e1ed5e" style="font-size:6.75px; font-family:Arial;" text-anchor="middle"><textPath startOffset="22.20632615414155" xlink:href="#id61">January</textPath></text><line stroke="#e1ed5e" stroke-width="0.3" x1="143.23703022742887" x2="145.7803849466894" y1="26.81831364943548" y2="22.513508569990506" /><path d="M 143.74570117128098 25.957352633546492 a86.0,86.0 0 0,1 28.547481713284135,27.462654790039103" fill="none" id="id62" stroke="none" /><text fill="#e1ed5e" style="font-size:6.75px; font-family:Arial;" text-anchor="middle"><textPath startOffset="19.985693538727396" xlink:href="#id62">February</textPath></text><line stroke="#e1ed5e" stroke-width="0.3" x1="172.23445277983987" x2="176.4835382374775" y1="55.19839476539836" y2="52.563006222186495" /><path d="M 173.08426987136738 54.67131705675599 a86.0,86.0 0 0,1 12.851231095245387,41.99856678651699" fill="none" id="id63" stroke="none" /><text fill="#e1ed5e" style="font-size:6.75px; font-family:Arial;" text-anchor="middle"><textPath startOffset="22.20632615414155" xlink:href="#id63">March</textPath></text><path d="M 120.53481517161879 95.60439243477599 l 24.641950388805206 -5.27476593510378 a46.20017608340204,46.20017608340204 0 0,0 0.15976615790608462,0.7790765257461706 l -24.729095842626286 4.849813753194197" fill="red" stroke="none" /><line stroke="#e1ed5e" stroke-width="0.3" x1="184.98032266829074" x2="189.97916517819016" y1="98.17113171792111" y2="98.06355123074" /><path d="M 185.9800911702706 98.14961562048488 a86.0,86.0 0 0,1 -9.607161424134198,41.387399972396054" fill="none" id="id64" stroke="none" /><text fill="#e1ed5e" style="font-size:6.75px; font-family:Arial;" text-anchor="middle"><textPath startOffset="21.466115282336823" xlink:href="#id64">April</textPath></text><line stroke="#e1ed5e" stroke-width="0.3" x1="174.80103733775053" x2="179.2010983576182" y1="140.37084112569926" y2="142.7455964860345" /><path d="M 175.68104954172406 140.8457921977663 a86.0,86.0 0 0,1 -30.038265399797805,32.042727171017184" fill="none" id="id65" stroke="none" /><text fill="#e1ed5e" style="font-size:6.75px; font-family:Arial;" text-anchor="middle"><textPath startOffset="22.206326154141568" xlink:href="#id65">May</textPath></text><path d="M 111.1453310114006 117.79835938074945 l 13.36611329469597 21.344802384017882 a46.18439146414747,46.18439146414747 0 0,0 -0.6774168194964836,0.41612473892998614 l -12.996717275267176 -21.571715589776247" fill="red" stroke="none" /><line stroke="#e1ed5e" stroke-width="0.3" x1="143.8653032363475" x2="146.44561519142675" y1="172.8068346515853" y2="177.08958963109032" /><path d="M 144.38136562736335 173.6633856474863 a86.0,86.0 0 0,1 -40.68145358897372,12.25698825130547" fill="none" id="id66" stroke="none" /><text fill="#e1ed5e" style="font-size:6.75px; font-family:Arial;" text-anchor="middle"><textPath startOffset="21.466115282336833" xlink:href="#id66">June</textPath></text><line stroke="#e1ed5e" stroke-width="0.3" x1="102.19456741930631" x2="102.32365962044197" y1="184.97166512339345" y2="189.96999836594603" /><path d="M 102.22038585953345 185.97133177190398 a86.0,86.0 0 0,1 -42.740103519485714,-10.115201625700543" fill="none" id="id67" stroke="none" /><text fill="#e1ed5e" style="font-size:6.75px; font-family:Arial;" text-anchor="middle"><textPath startOffset="22.20632615414155" xlink:href="#id67">July</textPath></text><path d="M 93.76903079525671 120.05430185196036 l -8.112622412878439 26.110380798382707 a48.34166468689297,48.34166468689297 0 0,0 -0.7925239664032523,-0.25374114696034283 l 8.560867724372631 -25.96686680476266" fill="red" stroke="none" /><path d="M 93.08242187328487 119.8279376855182 l -7.031996671730857 20.15589694222367 a42.347345472839834,42.347345472839834 0 0,0 -0.6861892058886998,-0.24604303578912376 l 7.377905438249283 -20.03186636539459" fill="red" stroke="none" /><path d="M 91.7346041902142 119.30500536409082 l -10.705004280750561 25.003057302813012 a48.19834537501572,48.19834537501572 0 0,0 -0.7598797937796802,-0.3331089707843419 l 11.133804749187986 -24.815083778734216" fill="red" stroke="none" /><path d="M 91.40352486487194 119.15986991738527 l -11.103608046858259 24.74778120651978 a48.12457900694551,48.12457900694551 0 0,0 -0.7528792568571895,-0.3456099404274645 l 11.527955299482867 -24.552984195758242" fill="red" stroke="none" /><line stroke="#e1ed5e" stroke-width="0.3" x1="58.666819895761336" x2="56.23545636021788" y1="174.27360380694188" y2="178.64263932499728" /><path d="M 58.180547188652646 175.14741091055294 a86.0,86.0 0 0,1 -31.652253787137756,-30.449443065178592" fill="none" id="id68" stroke="none" /><text fill="#e1ed5e" style="font-size:6.75px; font-family:Arial;" text-anchor="middle"><textPath startOffset="22.20632615414155" xlink:href="#id68">August</textPath></text><path d="M 88.24862548938628 117.40417183066458 l -14.112270011382 20.900735652411786 a46.21897927526308,46.21897927526308 0 0,0 -0.6555240369949726,-0.4508754100324355 l 14.469950932999863 -20.65471945301425" fill="red" stroke="none" /><path d="M 87.07902340077011 116.55440617244103 l -23.267516343788383 29.81043369445778 a58.815860083569746,58.815860083569746 0 0,0 -0.7927327860018398,-0.6297948691149619 l 23.77720662250758 -29.40550491133769" fill="red" stroke="none" /><path d="M 86.51685102203217 116.09983520530335 l -18.04396983308532 21.545778455525387 a49.1034769484467,49.1034769484467 0 0,0 -0.6433362727914462,-0.5482651285552517 l 18.412171582453823 -21.231988936747182" fill="red" stroke="none" /><path d="M 85.70375840098266 115.38237550388516 l -34.30822276098849 36.91473466821794 a71.395950081753,71.395950081753 0 0,0 -0.8930075074332636,-0.8443943369963799 l 34.93856610281257 -36.318705694475625" fill="red" stroke="none" /><path d="M 84.9287848128048 114.62390073753433 l -36.15938960945003 35.086177047468546 a71.3839386782565,71.3839386782565 0 0,0 -0.8480869065233922,-0.8892157308830053 l 36.75798306735238 -34.458554200003036" fill="red" stroke="none" /><path d="M 83.95833913139862 113.55231037782056 l -48.08040277647912 40.61926921749476 a83.94164092960858,83.94164092960858 0 0,0 -0.9229743174355748,-1.1117820230461612 l 48.77247309380823 -39.785625937334835" fill="red" stroke="none" /><path d="M 83.72743513129214 113.27417163493432 l -48.76365294970361 39.778430998636836 a83.93025839540506,83.93025839540506 0 0,0 -0.903577526657534,-1.1273518959013509 l 49.441148388416 -38.93315126915722" fill="red" stroke="none" /><path d="M 83.28015986056508 112.70617746262583 l -50.11871377950043 38.08752154148322 a83.9487471526196,83.9487471526196 0 0,0 -0.8644271784198594,-1.1580414681639788 l 50.76690222461538 -37.21916719380993" fill="red" stroke="none" /><path d="M 83.06392112726016 112.41649034213515 l -21.738898729987536 15.937622170855994 a47.955287393266914,47.955287393266914 0 0,0 -0.48233932189967865,-0.6699271315293905 l 22.010017844262823 -15.561061433875466" fill="red" stroke="none" /><line stroke="#e1ed5e" stroke-width="0.3" x1="26.63291911575756" x2="22.317208475507996" y1="142.92168965132927" y2="145.44649492493687" /><path d="M 25.769776987707644 143.4266507060508 a86.0,86.0 0 0,1 -11.730757126820373,-40.83630448921669" fill="none" id="id69" stroke="none" /><text fill="#e1ed5e" style="font-size:6.75px; font-family:Arial;" text-anchor="middle"><textPath startOffset="21.46611528233685" xlink:href="#id69">September</textPath></text><path d="M 81.02952815118164 109.00673069616217 l -24.04032068868842 11.413774840074906 a47.61223919392931,47.61223919392931 0 0,0 -0.34513292163855763,-0.7433856087433302 l 24.233228227166805 -10.998269164052749" fill="red" stroke="none" /><path d="M 80.87730276802145 108.67885076344099 l -57.31993172245166 26.01469484952537 a83.94711209245776,83.94711209245776 0 0,0 -0.5858665565815365,-1.3209744208374663 l 57.75923936376448 -25.024172092195208" fill="red" stroke="none" /><path d="M 80.58989483394504 108.01547362559985 l -58.21206399530059 24.038883852214433 a83.98025350419945,83.98025350419945 0 0,0 -0.5402625096390092,-1.340887242318073 l 58.61722911919699 -23.033297242053553" fill="red" stroke="none" /><path d="M 80.0844068197444 106.66101706037122 l -59.70640356701851 19.969546936096602 a83.95742554886314,83.95742554886314 0 0,0 -0.4466045246921115,-1.3745073932728962 l 60.04130034272687 -18.9388406428459" fill="red" stroke="none" /><path d="M 79.97269907076064 106.31721596034903 l -60.05497443055256 18.943153863392237 a83.9717637687438,83.9717637687438 0 0,0 -0.4229506891510866,-1.382227323908854 l 60.37215189220978 -17.906599566931337" fill="red" stroke="none" /><path d="M 79.29508885075956 103.50808413554451 l -62.07474135043845 10.51747644700666 a83.95943793060079,83.95943793060079 0 0,0 -0.22916227080924464,-1.4269936790816593 l 62.24658537560898 -9.447403538231786" fill="red" stroke="none" /><path d="M 79.18660465613746 102.79330883721812 l -62.376985317834944 8.371444516798306 a83.93623265368868,83.93623265368868 0 0,0 -0.17985732328197213,-1.4336398297561714 l 62.511844150363764 -7.296486932754726" fill="red" stroke="none" /><path d="M 79.1416061653843 102.43462659150553 l -62.52040156400006 7.297485768377384 a83.94484816300292,83.94484816300292 0 0,0 -0.1551688479300679,-1.436670818505083 l 62.63675271343118 -6.220218627987519" fill="red" stroke="none" /><path d="M 79.0235259727143 100.99374915477108 l -62.8825609892286 2.9790274452990464 a83.95308635074137,83.95308635074137 0 0,0 -0.05596019759377809,-1.4440840463469737 l 62.924523319673575 -1.896166151938076" fill="red" stroke="none" /><line stroke="#e1ed5e" stroke-width="0.3" x1="15.007084014347285" x2="10.007500721073583" y1="101.09737516637583" y2="101.16192664675087" /><path d="M 14.007167355692545 101.11028546245083 a86.0,86.0 0 0,1 10.666146001902534,-42.60595125391555" fill="none" id="id70" stroke="none" /><text fill="#e1ed5e" style="font-size:6.75px; font-family:Arial;" text-anchor="middle"><textPath startOffset="22.20632615414155" xlink:href="#id70">October</textPath></text><path d="M 79.08570108090925 98.10471618934814 l -62.690788358072 -5.681129293968278 a83.94767807482147,83.94767807482147 0 0,0 0.14280249300645595,-1.4380016163838325 l 62.58370873938331 6.759406441056541" fill="red" stroke="none" /><path d="M 79.21141760316559 97.0276538004421 l -31.20466243044262 -4.461634661425355 a52.52201042525539,52.52201042525539 0 0,0 0.13566712048998253,-0.8938768164256224 l 31.123239416513336 4.998110590243069" fill="red" stroke="none" /><path d="M 79.3925641242962 95.95851677861259 l -61.783244342169766 -12.116788662006693 a83.9601925737524,83.9601925737524 0 0,0 0.2903451571342163,-1.4158261001702113 l 61.56551988912056 13.178490418340306" fill="red" stroke="none" /><path d="M 79.81627453868168 94.20196356495316 l -60.551176383954946 -17.394109305140535 a84.0,84.0 0 0,0 0.4111764115531722,-1.3862824530138431 l 60.24279407529007 18.433821144900918" fill="red" stroke="none" /><path d="M 80.14247586403 93.16781622104843 l -59.569658590904986 -20.495548808385394 a83.99691854046425,83.99691854046425 0 0,0 0.48216998816773116,-1.3631594862590866 l 59.20803552192745 21.51790592107109" fill="red" stroke="none" /><path d="M 80.803312248108 91.48605970444005 l -46.06328963113084 -20.42957112212655 a71.39041603197451,71.39041603197451 0 0,0 0.5078839402952089,-1.1190549398730563 l 45.70480337387228 21.21944807084168" fill="red" stroke="none" /><path d="M 80.95270993114464 91.15688171328213 l -57.13725002217089 -26.527209839157695 a83.99490615872661,83.99490615872661 0 0,0 0.6201296170924553,-1.3061511263663783 l 56.67216221123668 27.506803381164605" fill="red" stroke="none" /><line stroke="#e1ed5e" stroke-width="0.3" x1="26.266209847984243" x2="21.928928074336255" y1="57.711370442889674" y2="55.22380399835377" /><path d="M 25.398753493254645 57.213857153982495 a86.0,86.0 0 0,1 29.58750427330803,-30.492523968695096" fill="none" id="id71" stroke="none" /><text fill="#e1ed5e" style="font-size:6.75px; font-family:Arial;" text-anchor="middle"><textPath startOffset="21.46611528233685" xlink:href="#id71">November</textPath></text><path d="M 81.78341655067845 89.55222093294921 l -54.60196308815294 -31.315929716421692 a83.94491104993222,83.94491104993222 0 0,0 0.7296824471244877,-1.2472638321761966 l 54.054820966558125 32.25117296095178" fill="red" stroke="none" /><path d="M 82.15384107792192 88.93136811851018 l -53.50865591409084 -33.18740000985089 a83.96490909344998,83.96490909344998 0 0,0 0.7723668247890932,-1.221698832522176 l 52.92946149305578 34.10354649008728" fill="red" stroke="none" /><path d="M 84.31358615837235 86.03803664274999 l -39.838607033184715 -35.45903972806909 a74.33346143633747,74.33346143633747 0 0,0 0.8589279586928222,-0.9484497049748843 l 39.22233543387585 36.13954222031352" fill="red" stroke="none" /><path d="M 84.80347519578584 85.50635884689758 l -6.103863689904462 -5.8215421689302245 a29.434898053300167,29.434898053300167 0 0,0 0.35284836829862687,-0.36364125977895373 l 6.002751057902716 5.925747624259302" fill="red" stroke="none" /><path d="M 85.05521093208273 85.24692304244772 l -44.820135463649734 -44.24518169765601 a83.98000195648224,83.98000195648224 0 0,0 1.0244128572918927,-1.0200137029253473 l 44.05188680619053 45.01013125123147" fill="red" stroke="none" /><path d="M 85.57189188830299 84.74124197986013 l -43.25744980575836 -45.747852320242856 a83.9608843299747,83.9608843299747 0 0,0 1.058675249532824,-0.9839232658439889 l 42.46356667243068 46.48568017216149" fill="red" stroke="none" /><path d="M 87.22198572758235 83.33499621200491 l -17.755493164965756 -23.156599651840164 a50.18022695194041,50.18022695194041 0 0,0 0.6899873113166523,-0.5196841379465832 l 17.354259699890715 23.4588003792926" fill="red" stroke="none" /><line stroke="#e1ed5e" stroke-width="0.3" x1="56.762969772571076" x2="54.21961505331055" y1="26.818313649435495" y2="22.513508569990535" /><path d="M 56.25429882871897 25.957352633546506 a86.0,86.0 0 0,1 42.265352541879196,-11.944610805530505" fill="none" id="id72" stroke="none" /><text fill="#e1ed5e" style="font-size:6.75px; font-family:Arial;" text-anchor="middle"><textPath startOffset="22.20632615414155" xlink:href="#id72">December</textPath></text><path d="M 93.25333710446033 80.11325718540243 l -8.11039664527863 -23.906540864174822 a46.24482580320584,46.24482580320584 0 0,0 0.7560306228880017,-0.2492514097593025 l 7.69768320014822 24.04260599819336" fill="red" stroke="none" /><path d="M 93.94186890950719 79.89281104454417 l -16.391474112585023 -54.40398405333928 a77.81966124907416,77.81966124907416 0 0,0 1.2859135098513492,-0.375393415595809 l 15.452570385010253 54.678075797853786" fill="red" stroke="none" /><path d="M 96.75951476605007 79.25152402106235 l -4.73581786129203 -30.32292883367606 a51.69051944603603,51.69051944603603 0 0,0 0.8802920557932676,-0.12973216625670447 l 4.213156825070113 30.399955484093734" fill="red" stroke="none" /></svg>