<?xml version="1.0" encoding="utf-8" ?>
<svg baseProfile="full" height="200mm" version="1.1" viewBox="0,0,200,200" width="200mm" xmlns="http://www.w3.org/2000/svg" xmlns:ev="http://www.w3.org/2001/xml-events" xmlns:xlink="http://www.w3.org/1999/xlink"><defs /><rect fill="#1a1a1a" height="200" width="200" x="0" y="0" /><text alignment-baseline="middle" fill="#e1ed5e" style="dominant-baseline: central; font-size:9.0px; font-family:Arial;" text-anchor="middle" x="100.0" y="100.0">2022</text><line stroke="#e1ed5e" stroke-width="0.3" x1="100.0" x2="100.0" y1="15.0" y2="10.0" /><path d="M 100.0 14.0 a86.0,86.0 0 0,1 42.46469731375804,11.215312516191453" fill="none" id="id73" stroke="none" /><text fill="#e1ed5e" style="font-size:6.75px; font-family:Arial;" text-anchor="middle"><textPath startOffset="22.20632615414155" xlink:href="#id73">January</textPath></text><line stroke="#e1ed5e" stroke-width="0.3" x1="143.23703022742887" x2="145.7803849466894" y1="26.81831364943548" y2="22.513508569990506" /><path d="M 143.74570117128098 25.957352633546492 a86.0,86.0 0 0,1 28.547481713284135,27.462654790039103" fill="none" id="id74" stroke="none" /><text fill="#e1ed5e" style="font-size:6.75px; font-family:Arial;" text-anchor="middle"><textPath startOffset="19.985693538727396" xlink:href="#id74">February</textPath></text><line stroke="#e1ed5e" stroke-width="0.3" x1="172.23445277983987" x2="176.4835382374775" y1="55.19839476539836" y2="52.563006222186495" /><path d="M 173.08426987136738 54.67131705675599 a86.0,86.0 0 0,1 12.851231095245387,41.99856678651699" fill="none" id="id75" stroke="none" /><text fill="#e1ed5e" style="font-size:6.75px; font-family:Arial;" text-anchor="middle"><textPath startOffset="22.20632615414155" xlink:href="#id75">March</textPath></text><line stroke="#e1ed5e" stroke-width="0.3" x1="184.98032266829074" x2="189.97916517819016" y1="98.17113171792111" y2="98.06355123074" /><path d="M 185.9800911702706 98.14961562048488 a86.0,86.0 0 0,1 -9.607161424134198,41.387399972396054" fill="none" id="id76" stroke="none" /><text fill="#e1ed5e" style="font-size:6.75px; font-family:Arial;" text-anchor="middle"><textPath startOffset="21.466115282336823" xlink:href="#id76">April</textPath></text><line stroke="#e1ed5e" stroke-width="0.3" x1="174.80103733775053" x2="179.2010983576182" y1="140.37084112569926" y2="142.7455964860345" /><path d="M 175.68104954172406 140.8457921977663 a86.0,86.0 0 0,1 -30.038265399797805,32.042727171017184" fill="none" id="id77" stroke="none" /><text fill="#e1ed5e" style="font-size:6.75px; font-family:Arial;" text-anchor="middle"><textPath startOffset="22.206326154141568" xlink:href="#id77">May</textPath></text><path d="M 117.55443506779139 111.5257021239791 l 8.96761613587326 5.887860927743756 a31.727769827174054,31.727769827174054 0 0,0 -0.30367539083359085,0.4539535060781243 l -8.86493763962895 -6.041351348027687" fill="#ff0c01" stroke="none" /><path d="M 115.32070863581623 114.36230785411682 l 7.915957117562538 7.420767262464377 a31.85035316709793,31.85035316709793 0 0,0 -0.3784025929265325,0.3967536058498392 l -7.787047973257041 -7.555927984896724" fill="#ff0e01" stroke="none" /><path d="M 115.07121518719521 114.62390073753431 l 7.77107371218791 7.54042784072594 a31.828094876821723,31.828094876821723 0 0,0 -0.3849068133614645,0.38990856978798544 l -7.6401262737709095 -7.67307690449459" fill="#ff0d01" stroke="none" /><path d="M 113.48314897796784 116.09983520530334 l 6.945654508028432 8.293603605133786 a31.817854561047852,31.817854561047852 0 0,0 -0.42291969779090477,0.3480341190554801 l -6.801864681692836 -8.411932843046445" fill="#ff0d01" stroke="none" /><path d="M 112.92097659922987 116.55440617244103 l 6.589093105151239 8.441972070223056 a31.709016779461024,31.709016779461024 0 0,0 -0.4331621886545298,0.33213029527700805 l -6.442802188003216 -8.554141707327435" fill="#ff0b01" stroke="none" /><path d="M 112.63410532772338 116.77436683061366 l 6.126521636377146 8.13421438705073 a31.18330550732425,31.18330550732425 0 0,0 -0.43153986916466586,0.3192428785468135 l -5.985596796793916 -8.238467214337312" fill="#ff0200" stroke="none" /><path d="M 111.7513745106137 117.40417183066458 l 6.0524343997627605 8.963854244638073 a31.815851565297464,31.815851565297464 0 0,0 -0.45652005036942106,0.3025565961073704 l -5.8972396506533755 -9.066708861836762" fill="#ff0d01" stroke="none" /><line stroke="#e1ed5e" stroke-width="0.3" x1="143.8653032363475" x2="146.44561519142675" y1="172.8068346515853" y2="177.08958963109032" /><path d="M 144.38136562736335 173.6633856474863 a86.0,86.0 0 0,1 -40.68145358897372,12.25698825130547" fill="none" id="id78" stroke="none" /><text fill="#e1ed5e" style="font-size:6.75px; font-family:Arial;" text-anchor="middle"><textPath startOffset="21.466115282336833" xlink:href="#id78">June</textPath></text><path d="M 108.92500713936063 119.00905698771935 l 4.543238029275859 9.676481963404392 a31.689963282385442,31.689963282385442 0 0,0 -0.4957698643437608,0.22758362874391244 l -4.376000169164679 -9.75325266248238" fill="#ff0b01" stroke="none" /><path d="M 108.59647513512805 119.15986991738527 l 4.357356823298422 9.711700273159147 a31.64442016651094,31.64442016651094 0 0,0 -0.49889587045595296,0.21870128840973982 l -4.189540278184714 -9.785266114863342" fill="#ff0a01" stroke="none" /><path d="M 106.91757812671514 119.82793768551818 l 3.5274925075865275 10.110894354260202 a31.70856610541719,31.70856610541719 0 0,0 -0.5168953287164314,0.17535895986793182 l -3.352927445932869 -10.170116301026257" fill="#ff0b01" stroke="none" /><path d="M 106.57524785965236 119.94407469862006 l 3.3643729712543813 10.204832925684304 a31.745120777861807,31.745120777861807 0 0,0 -0.5204365467299001,0.16662734741845278 l -3.1882150794335407 -10.261233119762464" fill="#ff0c01" stroke="none" /><path d="M 105.88484417918355 120.15858648285463 l 3.246571141643187 11.121158545379553 a32.58535245770361,32.58535245770361 0 0,0 -0.5397823093505271,0.1525478723622141 l -3.054657664188054 -11.175395211080286" fill="#ff1a02" stroke="none" /><path d="M 103.41894727170886 120.7198165907248 l 1.7529966707163895 10.623670567238792 a31.767328993244263,31.767328993244263 0 0,0 -0.5402928869207715,0.08438263725259655 l -1.5698679201871009 -10.652271511838494" fill="#ff0c01" stroke="none" /><path d="M 103.06178313531738 120.77559828337769 l 1.5969249788581514 10.835866024198122 a31.95290654951791,31.95290654951791 0 0,0 -0.544829631612449,0.07550842244257577 l -1.410166756058872 -10.8617490121333" fill="#ff1001" stroke="none" /><path d="M 101.98527174616119 120.90594882070398 l 1.0195769932242917 10.736678482595822 a31.784980393294575,31.784980393294575 0 0,0 -0.5451210142437489,0.04703533485855486 l -0.8346116612390011 -10.75263806973304" fill="#ff0d01" stroke="none" /><path d="M 100.90346689309514 120.98055641714683 l 0.5406009703063887 12.55398426147209 a33.56561857794455,33.56561857794455 0 0,0 -0.5774559464601221,0.01988875037705787 l -0.3244246721716143 -12.561429810275243" fill="#ff2b04" stroke="none" /><line stroke="#e1ed5e" stroke-width="0.3" x1="102.19456741930631" x2="102.32365962044197" y1="184.97166512339345" y2="189.96999836594603" /><path d="M 102.22038585953345 185.97133177190398 a86.0,86.0 0 0,1 -42.740103519485714,-10.115201625700543" fill="none" id="id79" stroke="none" /><text fill="#e1ed5e" style="font-size:6.75px; font-family:Arial;" text-anchor="middle"><textPath startOffset="22.20632615414155" xlink:href="#id79">July</textPath></text><path d="M 100.54218724476979 120.99299961872073 l 0.32641373059131823 12.638444352851188 a33.64265880199393,33.64265880199393 0 0,0 -0.5790387157251358,0.00996867660880412 l -0.10881532497351455 -12.642190506739153" fill="#ff2c04" stroke="none" /><path d="M 99.09653310690486 120.98055641714683 l -0.5399137378410899 12.538025160347274 a33.549644686835194,33.549644686835194 0 0,0 -0.5767534301159762,-0.02981156442456244 l 0.7556552363705551 -12.52687378916051" fill="#ff2a04" stroke="none" /><path d="M 96.93821686468263 120.77559828337769 l -1.8298960371941482 12.416681158951448 a33.550796409391666,33.550796409391666 0 0,0 -0.5706257726098495,-0.08912001016992921 l 2.043357673412515 -12.383342841434413" fill="#ff2a04" stroke="none" /><path d="M 96.58105272829116 120.7198165907248 l -2.0426973173585394 12.379340891349905 a33.546740342997126,33.546740342997126 0 0,0 -0.5689383846151668,-0.09891723085833766 l 2.255484673445756 -12.342345081970562" fill="#ff2a04" stroke="none" /><path d="M 96.22490169976321 120.6578951692458 l -2.3495849132445468 12.857275484986127 a34.070198244914714,34.070198244914714 0 0,0 -0.5760011311860629,-0.11039198768605243 l 2.570553659002305 -12.814926298951606" fill="#ff3304" stroke="none" /><path d="M 95.86986931433489 120.58985236759428 l -2.80044425472777 13.960994979808223 a35.23909648994866,35.23909648994866 0 0,0 -0.5937092014122648,-0.1244175356823823 l 3.040344917569422 -13.9107214633993" fill="#ff4606" stroke="none" /><path d="M 94.46302465271185 120.25689768951611 l -3.9704456440005576 14.52578459315264 a36.058647238667675,36.058647238667675 0 0,0 -0.5973180711734816,-0.16880805336257207 l 4.219894883278653 -14.455287746451546" fill="#ff5407" stroke="none" /><path d="M 93.76903079525671 120.05430185196036 l -4.465656987114069 14.372665029178389 a36.050434956091074,36.050434956091074 0 0,0 -0.5910188216937895,-0.1892255629471107 l 4.712397153898798 -14.293666619571573" fill="#ff5407" stroke="none" /><path d="M 93.42475214034765 119.94407469862007 l -4.718464850199382 14.312071186342349 a36.0698139399761,36.0698139399761 0 0,0 -0.5879899542369806,-0.1994781168632985 l 4.964124537373588 -14.228730082580928" fill="#ff5407" stroke="none" /><path d="M 92.06813273071674 119.44442032107085 l -5.685378425933399 13.93730934282094 a36.052312764607066,36.052312764607066 0 0,0 -0.5725940599104955,-0.23934436348134122 l 5.924443945341356 -13.837379936319627" fill="#ff5407" stroke="none" /><path d="M 91.7346041902142 119.30500536409082 l -5.9220295939085235 13.83174087577924 a36.0461785901215,36.0461785901215 0 0,0 -0.5682925947039964,-0.2491227729383446 l 6.159242863270263 -13.727753549546442" fill="#ff5307" stroke="none" /><path d="M 91.40352486487194 119.15986991738527 l -6.162768597727652 13.73561172542725 a36.054791471848176,36.054791471848176 0 0,0 -0.5640549002111445,-0.25892993954111687 l 6.398291493706217 -13.627494715552059" fill="#ff5407" stroke="none" /><line stroke="#e1ed5e" stroke-width="0.3" x1="58.666819895761336" x2="56.23545636021788" y1="174.27360380694188" y2="178.64263932499728" /><path d="M 58.180547188652646 175.14741091055294 a86.0,86.0 0 0,1 -31.652253787137756,-30.449443065178592" fill="none" id="id80" stroke="none" /><text fill="#e1ed5e" style="font-size:6.75px; font-family:Arial;" text-anchor="middle"><textPath startOffset="22.20632615414155" xlink:href="#id80">August</textPath></text><path d="M 87.65650970185807 116.9893568818739 l -7.376201735591693 10.152470710616502 a33.54914393789759,33.54914393789759 0 0,0 -0.464280259902093,-0.34346343690216896 l 7.549866965912351 -10.023997324974566" fill="#ff2a04" stroke="none" /><path d="M 87.36589467227662 116.77436683061367 l -9.055999260811035 12.023696943959546 a36.05258817652274,36.05258817652274 0 0,0 -0.49249770529998876,-0.377626239244516 l 9.261625694604511 -11.866031362887664" fill="#ff5407" stroke="none" /><path d="M 87.07902340077011 116.55440617244103 l -9.255140124144237 11.857722024438297 a36.042047411386314,36.042047411386314 0 0,0 -0.4857824508056493,-0.3859349586971406 l 9.457880067667245 -11.696653151736026" fill="#ff5307" stroke="none" /><path d="M 85.70375840098266 115.38237550388516 l -10.2466688467775 11.02514299114303 a36.051511566306914,36.051511566306914 0 0,0 -0.4509257240244675,-0.42637841742971877 l 10.434930405192784 -10.84712993696738" fill="#ff5407" stroke="none" /><path d="M 85.44109423537348 115.13401014063109 l -10.433888925679321 10.846047317038876 a36.050009319494116,36.050009319494116 0 0,0 -0.44350102974020794,-0.4340591021940234 l 10.619039907795322 -10.66483811192228" fill="#ff5407" stroke="none" /><path d="M 83.95833913139862 113.55231037782056 l -8.755456389834732 7.3967816341736325 a32.46169250756389,32.46169250756389 0 0,0 -0.3569302214391677,-0.42994544504825993 l 8.881482611167435 -7.244974932011612" fill="#ff1802" stroke="none" /><path d="M 83.50135304334701 112.99209946851258 l -11.811232036894069 9.30092642579586 a36.03370994157532,36.03370994157532 0 0,0 -0.3795433804484749,-0.4906109821922116 l 11.969582234560612 -9.096237449490395" fill="#ff5307" stroke="none" /><line stroke="#e1ed5e" stroke-width="0.3" x1="26.63291911575756" x2="22.317208475507996" y1="142.92168965132927" y2="145.44649492493687" /><path d="M 25.769776987707644 143.4266507060508 a86.0,86.0 0 0,1 -11.730757126820373,-40.83630448921669" fill="none" id="id81" stroke="none" /><text fill="#e1ed5e" style="font-size:6.75px; font-family:Arial;" text-anchor="middle"><textPath startOffset="21.46611528233685" xlink:href="#id81">September</textPath></text><path d="M 81.87401531095188 110.60418214915194 l -12.996067174872428 7.6030442433413965 a36.05669431781104,36.05669431781104 0 0,0 -0.3087964046858209,-0.5384125600961474 l 13.125015575710627 -7.378211837386942" fill="#ff5407" stroke="none" /><path d="M 81.51974371655577 109.97397251340807 l -14.963204690216875 8.075785855114066 a38.003405887615244,38.003405887615244 0 0,0 -0.30574190969639015,-0.5783484712985401 l 15.099999108138151 -7.8170223687294005" fill="#ff730a" stroke="none" /><path d="M 80.87730276802145 108.67885076344099 l -15.556839199539473 7.060483368312079 a38.08407654146221,38.08407654146221 0 0,0 -0.26578861652036245,-0.5992831641078898 l 15.676068900791115 -6.791651867711494" fill="#ff740a" stroke="none" /><path d="M 80.73074385275274 108.34839909993369 l -13.79443336785158 5.976433871253454 a36.03343452965964,36.03343452965964 0 0,0 -0.2416797094178009,-0.5712594420316355 l 13.895264058461688 -5.738099903555661" fill="#ff5307" stroke="none" /><path d="M 80.20201598880116 107.00284435728193 l -14.208391633003119 5.025721564223177 a36.07104077487321,36.07104077487321 0 0,0 -0.20201357774027442,-0.5871460173728887 l 14.292796041686621 -4.780402843760991" fill="#ff5407" stroke="none" /><path d="M 79.76711848015287 105.62410040840567 l -16.416269883335655 4.5632032226748995 a38.03868365026899,38.03868365026899 0 0,0 -0.16992771841230525,-0.6323642548750615 l 16.492385678089736 -4.279948034624299" fill="#ff730a" stroke="none" /><path d="M 79.50377843672027 104.57218783832718 l -14.702994613210912 3.279865654748311 a36.064380814003165,36.064380814003165 0 0,0 -0.12994504962378026,-0.6070600109077601 l 14.757273701559134 -3.026291824424387" fill="#ff5407" stroke="none" /><path d="M 79.4281124754447 104.21870165774334 l -13.791522061968772 2.8282439769410153 a35.078531343108004,35.078531343108004 0 0,0 -0.11621027507881948,-0.5925536889801934 l 13.838162270023258 -2.590426560892867" fill="#ff4406" stroke="none" /><path d="M 79.07016306316243 101.71520430193888 l -17.47878540928094 1.4323899425083162 a38.537379517222384,38.537379517222384 0 0,0 -0.048490008900170016,-0.6616076459513412 l 17.500851976845443 -1.1313091600602143" fill="#ff7b0b" stroke="none" /><path d="M 79.0235259727143 100.99374915477108 l -14.029596922351578 0.6646445949510157 a35.04533168854529,35.04533168854529 0 0,0 -0.023359995102945594,-0.6028176758020927 l 14.038959050305724 -0.4230496721349263" fill="#ff4306" stroke="none" /><line stroke="#e1ed5e" stroke-width="0.3" x1="15.007084014347285" x2="10.007500721073583" y1="101.09737516637583" y2="101.16192664675087" /><path d="M 14.007167355692545 101.11028546245083 a86.0,86.0 0 0,1 10.666146001902534,-42.60595125391555" fill="none" id="id82" stroke="none" /><text fill="#e1ed5e" style="font-size:6.75px; font-family:Arial;" text-anchor="middle"><textPath startOffset="22.20632615414155" xlink:href="#id82">October</textPath></text><path d="M 79.00175016825051 100.2711162175752 l -25.060395585597558 0.32356409303372324 a46.06248432675696,46.06248432675696 0 0,0 -0.003412358653302894,-0.792911975929257 l 25.062252241540364 0.10785736109920911" fill="#ffed16" stroke="none" /><path d="M 79.12142395522702 97.74499172005258 l -24.917595601588815 -2.6912460063114056 a46.06250936420384,46.06250936420384 0 0,0 0.09192683367726967,-0.7875729721755752 l 24.867578414907953 3.1197627168118425" fill="#ffed16" stroke="none" /><path d="M 79.21141760316559 97.0276538004421 l -12.408206779501912 -1.7741222350013273 a33.534396881685346,33.534396881685346 0 0,0 0.08662111418566054,-0.5707249148052478 l 12.37582977187695 1.987446262198667" fill="#ff2a04" stroke="none" /><path d="M 79.32604984820605 96.31383870115002 l -20.008270632982526 -3.5674707698672194 a41.32382201793078,41.32382201793078 0 0,0 0.13088686222858986,-0.699202851714554 l 19.943898046844076 3.911351699044346" fill="#ffa70f" stroke="none" /><path d="M 79.46518482838121 95.60439243477599 l -24.520358079139264 -5.248738329217186 a46.07582928594394,46.07582928594394 0 0,0 0.1726869708733184,-0.7741218299128731 l 24.426376721263907 5.670038328680019" fill="#ffed16" stroke="none" /><path d="M 79.54389044137918 95.25157060432595 l -26.024416408331 -6.040987584880363 a47.71635791785412,47.71635791785412 0 0,0 0.1926086686880568,-0.7984872792266673 l 25.91657493938213 6.488060095766427" fill="#f9ff18" stroke="none" /><path d="M 79.81627453868168 94.20196356495316 l -50.83175182174365 -14.602078773047204 a73.88750039245204,73.88750039245204 0 0,0 0.36167615797621466,-1.219392205846544 l 50.57286976665573 15.474900365640286" fill="#3effb8" stroke="none" /><path d="M 80.38941819471856 92.48833698450439 l -58.83174541584431 -22.534989046486853 a84.0,84.0 0 0,0 0.5288258004732356,-1.3458039804169464 l 58.435126065489385 23.544342031799562" fill="#4dd2ff" stroke="none" /><path d="M 80.803312248108 91.48605970444005 l -34.35174510624984 -15.235373448947156 a58.578704022007514,58.578704022007514 0 0,0 0.41673917410369127,-0.9182295292666349 l 34.084403615182794 15.824424987055862" fill="#6aff28" stroke="none" /><line stroke="#e1ed5e" stroke-width="0.3" x1="26.266209847984243" x2="21.928928074336255" y1="57.711370442889674" y2="55.22380399835377" /><path d="M 25.398753493254645 57.213857153982495 a86.0,86.0 0 0,1 29.58750427330803,-30.492523968695096" fill="none" id="id83" stroke="none" /><text fill="#e1ed5e" style="font-size:6.75px; font-family:Arial;" text-anchor="middle"><textPath startOffset="21.46611528233685" xlink:href="#id83">November</textPath></text><path d="M 82.15384107792192 88.93136811851018 l -22.083658072599263 -13.696834308692186 a46.986366116624424,46.986366116624424 0 0,0 0.43221282316264725,-0.6836568901093177 l 21.844617653190653 14.07493884651572" fill="#fffa17" stroke="none" /><path d="M 84.07557802195018 86.31012108654704 l -7.613478544957781 -6.54514176616967 a31.04011634861823,31.04011634861823 0 0,0 0.35180001173626363,-0.4021682281957011 l 7.4996866696436735 6.675225550568314" fill="#ff0000" stroke="none" /><path d="M 84.31358615837235 86.03803664274999 l -7.498078274082559 -6.673793970341311 a31.03796312818656,31.03796312818656 0 0,0 0.3586456731132944,-0.3960255099537086 l 7.38208896035322 6.801872267564576" fill="#ff0000" stroke="none" /><path d="M 85.31137513191541 84.99185889309783 l -12.278609765769213 -12.545701835006536 a38.55445505599446,38.55445505599446 0 0,0 0.4782895988322914,-0.46011421512830686 l 12.060836923324494 12.755199136897156" fill="#ff7c0b" stroke="none" /><path d="M 85.83668400450813 84.49514656593479 l -7.1187263422215885 -7.793006144076486 a31.554961368809145,31.554961368809145 0 0,0 0.4041875188115832,-0.362883545181644 l 6.9835278358140345 7.914388698027408" fill="#ff0901" stroke="none" /><path d="M 86.10567301691215 84.25364557470407 l -16.583681591840048 -18.794183290721424 a46.06471265952927,46.06471265952927 0 0,0 0.5990742233748535,-0.5195112631352446 l 16.25771356981842 19.07685954727635" fill="#ffed16" stroke="none" /><path d="M 86.37877921826538 84.01681056812374 l -16.253994603365403 -19.072495698671155 a46.05897908419378,46.05897908419378 0 0,0 0.607852328978204,-0.5090588446220943 l 15.923284737428087 19.34945570068706" fill="#ffed16" stroke="none" /><line stroke="#e1ed5e" stroke-width="0.3" x1="56.762969772571076" x2="54.21961505331055" y1="26.818313649435495" y2="22.513508569990535" /><path d="M 56.25429882871897 25.957352633546506 a86.0,86.0 0 0,1 42.265352541879196,-11.944610805530505" fill="none" id="id84" stroke="none" /><text fill="#e1ed5e" style="font-size:6.75px; font-family:Arial;" text-anchor="middle"><textPath startOffset="22.20632615414155" xlink:href="#id84">December</textPath></text></svg>