<?xml version="1.0" encoding="utf-8" ?>
<svg baseProfile="full" height="200mm" version="1.1" viewBox="0,0,200,200" width="200mm" xmlns="http://www.w3.org/2000/svg" xmlns:ev="http://www.w3.org/2001/xml-events" xmlns:xlink="http://www.w3.org/1999/xlink"><defs /><rect fill="#1a1a1a" height="200" width="200" x="0" y="0" /><text alignment-baseline="middle" fill="#e1ed5e" style="dominant-baseline: central; font-size:9.0px; font-family:Arial;" text-anchor="middle" x="100.0" y="100.0">2025</text><line stroke="#e1ed5e" stroke-width="0.3" x1="100.0" x2="100.0" y1="15.0" y2="10.0" /><path d="M 100.0 14.0 a86.0,86.0 0 0,1 42.46469731375804,11.215312516191453" fill="none" id="id121" stroke="none" /><text fill="#e1ed5e" style="font-size:6.75px; font-family:Arial;" text-anchor="middle"><textPath startOffset="22.20632615414155" xlink:href="#id121">January</textPath></text><path d="M 100.0 79.0 l 0.0 -9.362778550455879 a30.36277855045588,30.36277855045588 0 0,0 0.522645321069735,0.004498573283463875 l -0.16116484179720664 9.361391353780974" fill="#ff4c07" stroke="none" /><path d="M 101.44485096284872 79.0497635885617 l 0.7306772006975796 -10.594767549506107 a31.619933549683203,31.619933549683203 0 0,0 0.5426730601436514,0.042121873841455326 l -0.9129404502035721 10.580620413476186" fill="#ff5e08" stroke="none" /><path d="M 102.52436894288641 79.15227682838746 l 1.301846438747061 -10.751413434803005 a31.829944367176637,31.829944367176637 0 0,0 0.5433602975260701,0.07054376116384012 l -1.486721464780977 10.727411350475029" fill="#ff6109" stroke="none" /><path d="M 103.95276090670814 79.375362276772 l 2.037617399868898 -10.63183979064408 a31.8253361149745,31.8253361149745 0 0,0 0.5371413404355229,0.10774549972799216 l -2.220325149771546 10.595190334838879" fill="#ff6109" stroke="none" /><path d="M 109.41281617654863 81.2277094730956 l 3.238032038578936 -6.457714357056137 a28.224051923968474,28.224051923968474 0 0,0 0.43241870020415535,0.221501653478005 l -3.3487112263718473 6.4010201782656315" fill="#ff2c04" stroke="none" /><line stroke="#e1ed5e" stroke-width="0.3" x1="143.23703022742887" x2="145.7803849466894" y1="26.81831364943548" y2="22.513508569990506" /><path d="M 143.74570117128098 25.957352633546492 a86.0,86.0 0 0,1 28.547481713284135,27.462654790039103" fill="none" id="id122" stroke="none" /><text fill="#e1ed5e" style="font-size:6.75px; font-family:Arial;" text-anchor="middle"><textPath startOffset="19.985693538727396" xlink:href="#id122">February</textPath></text><path d="M 111.2981086023043 82.29822771554956 l 5.826007369741783 -9.12813457693841 a31.82890588780714,31.82890588780714 0 0,0 0.459295619867354,0.29873864730056765 l -5.982270015393417 9.026497005478314" fill="#ff6109" stroke="none" /><path d="M 111.90073688211348 82.69761687909136 l 6.140015170663218 -8.926917375232268 a31.83464997681966,31.83464997681966 0 0,0 0.4488213590662071,0.31442804430938687 l -6.292767669313076 8.819904488158945" fill="#ff6109" stroke="none" /><path d="M 113.06298171725822 83.55741782278167 l 6.769542218136367 -8.520930108690266 a31.882690465152216,31.882690465152216 0 0,0 0.42676742544640905,0.3450829116925795 l -6.9152130421472675 8.403141099733556" fill="#ff6209" stroke="none" /><path d="M 113.34407831869373 83.78471172551755 l 6.882239496742245 -8.36307272397881 a31.83079894915778,31.83079894915778 0 0,0 0.420079334348987,0.3518043616823596 l -7.025176368050349 8.243367204902631" fill="#ff6109" stroke="none" /><path d="M 114.42810811169701 84.74124197986012 l 7.445061348038154 -7.87368577192127 a31.836229330860764,31.836229330860764 0 0,0 0.39494624766128755,0.37993797733465673 l -7.57949083931186 7.744364707824311" fill="#ff6109" stroke="none" /><path d="M 114.94478906791727 85.2469230424477 l 7.706023781696312 -7.60717072495541 a31.828289290681504,31.828289290681504 0 0,0 0.38153894474572175,0.39320942078055415 l -7.835826990145143 7.4733971086247415" fill="#ff6109" stroke="none" /><path d="M 116.60985879189232 87.15038557335679 l 8.56294562307659 -6.624412103163387 a31.82621233194251,31.82621233194251 0 0,0 0.33148373183484997,0.43619373500837366 l -8.675705295135552 6.476033592273979" fill="#ff6109" stroke="none" /><path d="M 117.04232023915458 87.72973835380427 l 8.78618386948706 -6.325944674041567 a31.826569309225775,31.826569309225775 0 0,0 0.31627635094154627,0.4473504688303293 l -8.893772840232488 6.173767704879444" fill="#ff6109" stroke="none" /><path d="M 117.45458315368197 88.32363383020206 l 9.01322018080237 -6.029457035635972 a31.844007108638543,31.844007108638543 0 0,0 0.30085515019238307,0.4582230342284337 l -9.115671966352679 5.873415937429865" fill="#ff6109" stroke="none" /><line stroke="#e1ed5e" stroke-width="0.3" x1="172.23445277983987" x2="176.4835382374775" y1="55.19839476539836" y2="52.563006222186495" /><path d="M 173.08426987136738 54.67131705675599 a86.0,86.0 0 0,1 12.851231095245387,41.99856678651699" fill="none" id="id123" stroke="none" /><text fill="#e1ed5e" style="font-size:6.75px; font-family:Arial;" text-anchor="middle"><textPath startOffset="22.20632615414155" xlink:href="#id123">March</textPath></text><path d="M 117.84615892207809 88.93136811851018 l 19.403250766832418 -12.034378993263756 a43.83226703755216,43.83226703755216 0 0,0 0.39216145245978795,0.6446103159328131 l -19.60752801757843 11.698600904123861" fill="#f9ff18" stroke="none" /><path d="M 118.03404312379186 89.2402003453031 l 3.724750319241276 -2.22232845533851 a25.33733889661567,25.33733889661567 0 0,0 0.22024219477351725,0.3764653034243108 l -3.7624521884851205 2.1578837395603037" fill="#ff0000" stroke="none" /><path d="M 118.3937258080291 89.86733742301442 l 9.485536289989525 -5.22535453617889 a31.829576572399937,31.829576572399937 0 0,0 0.2602324048946079,0.48217112381695604 l -9.574076794102599 5.0613024290294755" fill="#ff6109" stroke="none" /><path d="M 118.73160827565052 90.50648371742162 l 9.659230299501731 -4.895471802316965 a31.8289599752743,31.8289599752743 0 0,0 0.24347636753021693,0.490833499811585 l -9.742066679985356 4.728478714006431" fill="#ff6109" stroke="none" /><path d="M 119.196687751892 91.48605970444005 l 30.916911842700852 -13.71198745085084 a54.821206923195795,54.821206923195795 0 0,0 0.3751579396428564,0.8659162491056619 l -31.148360492186388 13.177772057158576" fill="#76ff27" stroke="none" /><path d="M 120.08093135843002 93.85539295169968 l 33.10749038836748 -10.1306316505333 a55.62276155153763,55.62276155153763 0 0,0 0.27227104161238136,0.9179625991318064 l -33.27696732709156 9.559239664654964" fill="#6dff28" stroke="none" /><path d="M 120.37134235888165 94.90015583598534 l 6.30977485826064 -1.57961453498018 a27.50449389584299,27.50449389584299 0 0,0 0.11102280608542836,0.4602612071777592 l -6.336030464606888 1.4707680961430145" fill="#ff2103" stroke="none" /><path d="M 120.67395015179393 96.31383870115 l 45.292787753661905 -8.075695264268987 a67.00710245711636,67.00710245711636 0 0,0 0.19268734201471174,1.1372515999758577 l -45.42508695719684 7.294857875977291" fill="#37ff75" stroke="none" /><path d="M 120.94382443527127 98.46500227214037 l 62.831473305813795 -4.6049931835789 a84.0,84.0 0 0,0 0.09327763598233796,1.442963742987859 l -62.90143153280055 3.5227703763380056" fill="#4dd2ff" stroke="none" /><line stroke="#e1ed5e" stroke-width="0.3" x1="184.98032266829074" x2="189.97916517819016" y1="98.17113171792111" y2="98.06355123074" /><path d="M 185.9800911702706 98.14961562048488 a86.0,86.0 0 0,1 -9.607161424134198,41.387399972396054" fill="none" id="id124" stroke="none" /><text fill="#e1ed5e" style="font-size:6.75px; font-family:Arial;" text-anchor="middle"><textPath startOffset="21.466115282336823" xlink:href="#id124">April</textPath></text><path d="M 120.9764740272857 100.99374915477107 l 10.814494499234913 0.5123308499756303 a31.826623396692938,31.826623396692938 0 0,0 -0.03063486656073816,0.5470061217812973 l -10.804073281786645 -0.6984086880923508" fill="#ff6109" stroke="none" /><path d="M 120.89721153311464 102.0752229133903 l 8.617879569969055 0.855808973369395 a29.6602688919796,29.6602688919796 0 0,0 -0.054825875011742575,0.5076195111268367 l -8.60187139345626 -1.004024806381023" fill="#ff4106" stroke="none" /><path d="M 120.64145759157962 103.86396538481128 l 10.642041424935204 1.992130619033989 a31.826893834028745,31.826893834028745 0 0,0 -0.10543805415284772,0.5376263665565505 l -10.606173437806692 -2.175020712658484" fill="#ff6109" stroke="none" /><path d="M 120.41448212921028 104.9243191809786 l 7.76088932317069 1.8720580768913122 a28.98348323288518,28.98348323288518 0 0,0 -0.1211629476269586,0.4839857470031045 l -7.7275150612486705 -2.005371663291813" fill="#ff3705" stroke="none" /><path d="M 120.23288151984713 105.62410040840565 l 8.509118473255192 2.3652655027739344 a29.831736980373975,29.831736980373975 0 0,0 -0.14178223833897913,0.493562571740212 l -8.467143598030114 -2.5113855500187285" fill="#ff4406" stroke="none" /><path d="M 119.67450827220406 107.3425965602758 l 10.138052263912785 3.783557212764994 a31.821063205068768,31.821063205068768 0 0,0 -0.19593550008723676,0.5115257626830573 l -10.071422484232041 -3.957506542281195" fill="#ff6109" stroke="none" /><path d="M 119.41010516605496 108.01547362559984 l 8.00625594250898 3.3062125525838053 a29.662053778395922,29.662053778395922 0 0,0 -0.19894624621466817,0.4702501582803919 l -7.948158715102003 -3.4435372365303607" fill="#ff4106" stroke="none" /><path d="M 118.81262510543309 109.33194174019688 l 9.698565758264195 4.810942125958357 a31.82623396692938,31.82623396692938 0 0,0 -0.2476707376461441,0.48867786190481094 l -9.614316350831782 -4.977174199565862" fill="#ff6109" stroke="none" /><line stroke="#e1ed5e" stroke-width="0.3" x1="174.80103733775053" x2="179.2010983576182" y1="140.37084112569926" y2="142.7455964860345" /><path d="M 175.68104954172406 140.8457921977663 a86.0,86.0 0 0,1 -30.038265399797805,32.042727171017184" fill="none" id="id125" stroke="none" /><text fill="#e1ed5e" style="font-size:6.75px; font-family:Arial;" text-anchor="middle"><textPath startOffset="22.206326154141568" xlink:href="#id125">May</textPath></text><path d="M 117.94076556474637 110.91462005526583 l 9.248001181160067 5.626204678877019 a31.824957502704372,31.824957502704372 0 0,0 -0.28875141644426405,0.4655592237607165 l -9.14978512504784 -5.784560234003009" fill="#ff6109" stroke="none" /><path d="M 117.75023020441432 111.22182372390056 l 5.493601613288328 3.473094613630752 a27.49938803894298,27.49938803894298 0 0,0 -0.25639268753011185,0.3979271447815774 l -5.4330040623811655 -3.5671433583337824" fill="#ff2103" stroke="none" /><path d="M 116.498646956653 112.99209946851258 l 8.504328836557775 6.696857411870628 a31.824578890434246,31.824578890434246 0 0,0 -0.3426174877868759,0.42746799586117484 l -8.387793436716047 -6.842253241310053" fill="#ff6109" stroke="none" /><path d="M 115.32070863581623 114.36230785411682 l 7.89684551194349 7.402851200615545 a31.824157008190387,31.824157008190387 0 0,0 -0.37809136578241503,0.39642728543350175 l -7.768247594782111 -7.537685602631553" fill="#ff6109" stroke="none" /><path d="M 113.48314897796784 116.09983520530334 l 5.562616776928013 6.64215856141156 a29.663773759851644,29.663773759851644 0 0,0 -0.39428787411746447,0.3244720774168701 l -5.447458774265857 -6.736925757685609" fill="#ff4106" stroke="none" /><path d="M 112.92097659922987 116.55440617244103 l 6.659111790921909 8.531680286549156 a31.82281563900479,31.82281563900479 0 0,0 -0.43471674215611605,0.3333222606124624 l -6.511266320272299 -8.64504188898899" fill="#ff6109" stroke="none" /><path d="M 111.45004920935366 117.60387380957326 l 5.902753102500693 9.075185516286076 a31.825963529593572,31.825963529593572 0 0,0 -0.4618071549932317,0.2947471759659826 l -5.74566414546053 -9.175447121075868" fill="#ff6109" stroke="none" /><line stroke="#e1ed5e" stroke-width="0.3" x1="143.8653032363475" x2="146.44561519142675" y1="172.8068346515853" y2="177.08958963109032" /><path d="M 144.38136562736335 173.6633856474863 a86.0,86.0 0 0,1 -40.68145358897372,12.25698825130547" fill="none" id="id126" stroke="none" /><text fill="#e1ed5e" style="font-size:6.75px; font-family:Arial;" text-anchor="middle"><textPath startOffset="21.466115282336833" xlink:href="#id126">June</textPath></text><path d="M 110.21172684928248 118.3499491758327 l 5.263639417593072 9.458489951631348 a31.82445989800649,31.82445989800649 0 0,0 -0.48096940934420246,0.2622628708593488 l -5.1000471963802205 -9.547693474250467" fill="#ff6109" stroke="none" /><path d="M 108.2653958097858 119.30500536409082 l 4.261411231388359 9.953130929694833 a31.82702364394993,31.82702364394993 0 0,0 -0.5054867021193532,0.21129348248207502 l -4.089453069771545 -10.025009455196882" fill="#ff6109" stroke="none" /><path d="M 107.59598834532513 119.57807347666477 l 3.916169642711249 10.09362488809916 a31.8267099366404,31.8267099366404 0 0,0 -0.5124551621334755,0.19376669327372162 l -3.7418442598174986 -10.159539831479513" fill="#ff6109" stroke="none" /><path d="M 106.2309692047433 120.05430185196036 l 1.9288016046853134 6.207825511873686 a27.50056714572709,27.50056714572709 0 0,0 -0.45326830982012023,0.13656602353215996 l -1.8216583204249475 -6.240106904511572" fill="#ff2103" stroke="none" /><path d="M 105.88484417918355 120.15858648285463 l 6.400508462721674 21.924999108118854 a43.840142172770825,43.840142172770825 0 0,0 -0.7262199546557047,0.20523701320076093 l -6.022157339961363 -22.031924914658134" fill="#f9ff18" stroke="none" /><path d="M 103.7750983002368 120.6578951692458 l 6.06022579861845 33.162450165063426 a54.71163653222068,54.71163653222068 0 0,0 -0.92788598206656,0.16132487169129298 l -5.4884908450798395 -33.261853615275726" fill="#77ff27" stroke="none" /><path d="M 102.70371172650421 120.8252237178851 l 1.3936002363930455 10.734146104291623 a31.82423273064441,31.82423273064441 0 0,0 -0.5438497337837603,0.06585262890626355 l -1.208623079557905 -10.756544261923237" fill="#ff6109" stroke="none" /><path d="M 101.62511606390274 120.93702456842531 l 2.511776642589106 32.36022979798234 a53.457564518621545,53.457564518621545 0 0,0 -0.9180375468322801,0.06331324417645778 l -1.9543763349778958 -32.39867138667508" fill="#85ff25" stroke="none" /><line stroke="#e1ed5e" stroke-width="0.3" x1="102.19456741930631" x2="102.32365962044197" y1="184.97166512339345" y2="189.96999836594603" /><path d="M 102.22038585953345 185.97133177190398 a86.0,86.0 0 0,1 -42.740103519485714,-10.115201625700543" fill="none" id="id127" stroke="none" /><text fill="#e1ed5e" style="font-size:6.75px; font-family:Arial;" text-anchor="middle"><textPath startOffset="22.20632615414155" xlink:href="#id127">July</textPath></text><path d="M 99.81925306533755 120.99922214144158 l -0.09316618577000231 10.824069767538663 a31.824470715499924,31.824470715499924 0 0,0 -0.5477450744958096,-0.009429928195519825 l 0.2794709501584798 -10.820862362063984" fill="#ff6109" stroke="none" /><path d="M 99.09653310690486 120.98055641714683 l -1.6817133585779787 39.0532096602231 a60.08940194714882,60.08940194714882 0 0,0 -1.0329995745151646,-0.05339427866083423 l 2.353701001506632 -39.01847557480006" fill="#3dff2e" stroke="none" /><line stroke="#e1ed5e" stroke-width="0.3" x1="58.666819895761336" x2="56.23545636021788" y1="174.27360380694188" y2="178.64263932499728" /><path d="M 58.180547188652646 175.14741091055294 a86.0,86.0 0 0,1 -31.652253787137756,-30.449443065178592" fill="none" id="id128" stroke="none" /><text fill="#e1ed5e" style="font-size:6.75px; font-family:Arial;" text-anchor="middle"><textPath startOffset="22.20632615414155" xlink:href="#id128">August</textPath></text><line stroke="#e1ed5e" stroke-width="0.3" x1="26.63291911575756" x2="22.317208475507996" y1="142.92168965132927" y2="145.44649492493687" /><path d="M 25.769776987707644 143.4266507060508 a86.0,86.0 0 0,1 -11.730757126820373,-40.83630448921669" fill="none" id="id129" stroke="none" /><text fill="#e1ed5e" style="font-size:6.75px; font-family:Arial;" text-anchor="middle"><textPath startOffset="21.46611528233685" xlink:href="#id129">September</textPath></text><line stroke="#e1ed5e" stroke-width="0.3" x1="15.007084014347285" x2="10.007500721073583" y1="101.09737516637583" y2="101.16192664675087" /><path d="M 14.007167355692545 101.11028546245083 a86.0,86.0 0 0,1 10.666146001902534,-42.60595125391555" fill="none" id="id130" stroke="none" /><text fill="#e1ed5e" style="font-size:6.75px; font-family:Arial;" text-anchor="middle"><textPath startOffset="22.20632615414155" xlink:href="#id130">October</textPath></text><line stroke="#e1ed5e" stroke-width="0.3" x1="26.266209847984243" x2="21.928928074336255" y1="57.711370442889674" y2="55.22380399835377" /><path d="M 25.398753493254645 57.213857153982495 a86.0,86.0 0 0,1 29.58750427330803,-30.492523968695096" fill="none" id="id131" stroke="none" /><text fill="#e1ed5e" style="font-size:6.75px; font-family:Arial;" text-anchor="middle"><textPath startOffset="21.46611528233685" xlink:href="#id131">November</textPath></text><line stroke="#e1ed5e" stroke-width="0.3" x1="56.762969772571076" x2="54.21961505331055" y1="26.818313649435495" y2="22.513508569990535" /><path d="M 56.25429882871897 25.957352633546506 a86.0,86.0 0 0,1 42.265352541879196,-11.944610805530505" fill="none" id="id132" stroke="none" /><text fill="#e1ed5e" style="font-size:6.75px; font-family:Arial;" text-anchor="middle"><textPath startOffset="22.20632615414155" xlink:href="#id132">December</textPath></text></svg>