<?xml version="1.0" encoding="utf-8" ?>
<svg baseProfile="full" height="200mm" version="1.1" viewBox="0,0,200,200" width="200mm" xmlns="http://www.w3.org/2000/svg" xmlns:ev="http://www.w3.org/2001/xml-events" xmlns:xlink="http://www.w3.org/1999/xlink"><defs /><rect fill="#1a1a1a" height="200" width="200" x="0" y="0" /><text alignment-baseline="middle" fill="#e1ed5e" style="dominant-baseline: central; font-size:9.0px; font-family:Arial;" text-anchor="middle" x="100.0" y="100.0">2016</text><line stroke="#e1ed5e" stroke-width="0.3" x1="100.0" x2="100.0" y1="15.0" y2="10.0" /><path d="M 100.0 14.0 a86.0,86.0 0 0,1 42.35913384403234,11.155469271406648" fill="none" id="id1" stroke="none" /><text fill="#e1ed5e" style="font-size:6.75px; font-family:Arial;" text-anchor="middle"><textPath startOffset="22.145653131862478" xlink:href="#id1">January</textPath></text><line stroke="#e1ed5e" stroke-width="0.3" x1="143.13028292997686" x2="145.6673583964461" y1="26.7553504044142" y2="22.446841604673864" /><path d="M 143.63769802327073 25.89364864446614 a86.0,86.0 0 0,1 29.32050498858742,28.57503671076993" fill="none" id="id2" stroke="none" /><text fill="#e1ed5e" style="font-size:6.75px; font-family:Arial;" text-anchor="middle"><textPath startOffset="20.669276256404974" xlink:href="#id2">February</textPath></text><line stroke="#e1ed5e" stroke-width="0.3" x1="172.87174338648825" x2="177.1583165268699" y1="56.24261187166439" y2="53.66864786411523" /><path d="M 173.72905801456457 55.72781907015455 a86.0,86.0 0 0,1 12.242430191666344,42.057860355516425" fill="none" id="id3" stroke="none" /><text fill="#e1ed5e" style="font-size:6.75px; font-family:Arial;" text-anchor="middle"><textPath startOffset="22.145653131862474" xlink:href="#id3">March</textPath></text><line stroke="#e1ed5e" stroke-width="0.3" x1="184.99686870605535" x2="189.99668451229388" y1="99.2704041080226" y2="99.22748670261217" /><path d="M 185.99683186730306 99.26182062694052 a86.0,86.0 0 0,1 -10.086455211305974,41.156179273409016" fill="none" id="id4" stroke="none" /><text fill="#e1ed5e" style="font-size:6.75px; font-family:Arial;" text-anchor="middle"><textPath startOffset="21.40746469413373" xlink:href="#id4">April</textPath></text><path d="M 120.35273937422433 105.17358676015961 l 14.248881672470064 3.6220100013235452 a35.70202657342657,35.70202657342657 0 0,0 -0.15608674266807668,0.5926867855665118 l -14.184605448997258 -3.8660772912628603" fill="#ff730a" stroke="none" /><path d="M 120.26092885502905 105.52220625578681 l 14.197427924950961 3.86957211410306 a35.71531678321678,35.71531678321678 0 0,0 -0.16629988243319083,0.590139615193815 l -14.128909550443192 -4.112719653199884" fill="#ff740a" stroke="none" /><path d="M 120.16314734710363 105.8691983318838 l 14.13687610866076 4.115038602191154 a35.72361398601399,35.72361398601399 0 0,0 -0.17644689073329403,0.5873343130100541 l -14.064152897923835 -4.357110518791932" fill="#ff740a" stroke="none" /><path d="M 119.83427380445688 106.89939002012753 l 13.886446674632683 4.830426994532322 a35.702599300699305,35.702599300699305 0 0,0 -0.2063267323867666,0.5771325918536367 l -13.801479772201974 -5.068094542766881" fill="#ff730a" stroke="none" /><path d="M 119.71291397450082 107.23885506374661 l 13.798901929605302 5.067147923258543 a35.699853146853144,35.699853146853144 0 0,0 -0.21618694821953355,0.5734615647068543 l -13.709884297571328 -5.303277768159556" fill="#ff730a" stroke="none" /><path d="M 119.4528033332814 107.91128576633889 l 13.094022007606066 5.325224758514423 a35.135467132867134,35.135467132867134 0 0,0 -0.23201815387935334,0.5567591060672694 l -13.000678009190228 -5.54921637402297" fill="#ff6b09" stroke="none" /><path d="M 119.0197475246899 108.90220220490707 l 13.317587315219633 6.23330330792725 a35.70415594405594,35.70415594405594 0 0,0 -0.2645860591394764,0.5528831017773769 l -13.208621998120245 -6.46099891176973" fill="#ff730a" stroke="none" /><path d="M 118.8641267826498 109.22738970284198 l 13.211022886983494 6.462173306822821 a35.70682867132867,35.70682867132867 0 0,0 -0.2740585592465981,0.5483007030439286 l -13.098144414525164 -6.688005866030496" fill="#ff730a" stroke="none" /><line stroke="#e1ed5e" stroke-width="0.3" x1="174.33088141563837" x2="178.70328620479359" y1="141.23008692659167" y2="143.65538615756765" /><path d="M 175.20536237346943 141.71514677278685 a86.0,86.0 0 0,1 -30.301960400862466,31.631185727798858" fill="none" id="id5" stroke="none" /><text fill="#e1ed5e" style="font-size:6.75px; font-family:Arial;" text-anchor="middle"><textPath startOffset="22.145653131862474" xlink:href="#id5">May</textPath></text><path d="M 117.01052211995028 112.31430620078461 l 9.531673585598941 6.900196614267062 a32.76713706293707,32.76713706293707 0 0,0 -0.3337535448467683,0.4528007828088698 l -9.411818021168344 -7.062803706344809" fill="#ff4606" stroke="none" /><path d="M 116.57777611688842 112.89097897827486 l 11.606159023685732 9.025019456043294 a35.702173426573424,35.702173426573424 0 0,0 -0.3803702235514886,0.48058535174245204 l -11.449522369492682 -9.222924751700429" fill="#ff730a" stroke="none" /><path d="M 115.16444852881244 114.52719865689866 l 10.619334564934071 10.173082294140562 a35.705844755244755,35.705844755244755 0 0,0 -0.42781246745141943,0.4389732798264948 l -10.443135296331844 -10.353878266034794" fill="#ff730a" stroke="none" /><path d="M 114.91283532996324 114.78537596483092 l 10.439892015361483 10.350662705248038 a35.701277622377624,35.701277622377624 0 0,0 -0.43522931109580715,0.43150942480645693 l -10.260670784135712 -10.528352140283157" fill="#ff730a" stroke="none" /><path d="M 113.31354834802062 116.24036423190432 l 9.319912111603255 11.368777379643987 a35.70067552447553,35.70067552447553 0 0,0 -0.4772827214901712,0.38446517536134367 l -9.123378619757831 -11.527090848798734" fill="#ff730a" stroke="none" /><path d="M 111.27062007382361 117.71928675628689 l 7.889331591494039 12.403339644975773 a35.69980909090909,35.69980909090909 0 0,0 -0.5199182007313827,0.32446741024024933 l -7.675249261972941 -12.53694285205757" fill="#ff730a" stroke="none" /><line stroke="#e1ed5e" stroke-width="0.3" x1="143.1302829299769" x2="145.66735839644613" y1="173.24464959558577" y2="177.55315839532614" /><path d="M 143.63769802327073 174.10635135553383 a86.0,86.0 0 0,1 -40.68552437913181,11.842963189579606" fill="none" id="id6" stroke="none" /><text fill="#e1ed5e" style="font-size:6.75px; font-family:Arial;" text-anchor="middle"><textPath startOffset="21.407464694133747" xlink:href="#id6">June</textPath></text><path d="M 110.02825361518725 118.45085714620011 l 14.805468190695658 27.240393896244168 a52.00388601398601,52.00388601398601 0 0,0 -0.7880103882005508,0.4195711468551673 l -14.335668986708553 -27.490535510821903" fill="#aaff21" stroke="none" /><path d="M 106.72888874123015 119.89276391827305 l 4.712212552383856 13.930819105824304 a35.70621188811189,35.70621188811189 0 0,0 -0.5823126522100232,0.19141773498037637 l -4.472377162526099 -14.009657762206698" fill="#ff730a" stroke="none" /><path d="M 103.94208987418118 120.62667999033965 l 2.758396066625209 14.4330938078138 a35.694316783216784,35.694316783216784 0 0,0 -0.6028349701253597,0.10985661304627026 l -2.510226362948792 -14.478318594791434" fill="#ff730a" stroke="none" /><path d="M 101.08105385017728 120.97215588758144 l 0.7566779725687373 14.67935051968804 a35.698839860139856,35.698839860139856 0 0,0 -0.6122763092408886,0.026293779181615847 l -0.5045759027270191 -14.690176867295486" fill="#ff730a" stroke="none" /><line stroke="#e1ed5e" stroke-width="0.3" x1="101.45913802915013" x2="101.54496967792366" y1="184.9874750549273" y2="189.98673829345242" /><path d="M 101.47630435890484 185.9873277026323 a86.0,86.0 0 0,1 -42.54439059252881,-10.42667462771756" fill="none" id="id7" stroke="none" /><text fill="#e1ed5e" style="font-size:6.75px; font-family:Arial;" text-anchor="middle"><textPath startOffset="22.145653131862474" xlink:href="#id7">July</textPath></text><path d="M 92.25597844496254 119.51999308798841 l -4.288113843409928 10.808848088680751 a32.62837552447552,32.62837552447552 0 0,0 -0.5188619259524576,-0.2110166282542917 l 4.473030230552826 -10.733644203847168" fill="#ff4406" stroke="none" /><line stroke="#e1ed5e" stroke-width="0.3" x1="58.13341422392154" x2="55.67067388415222" y1="173.97424548756322" y2="178.32567169271397" /><path d="M 57.64086615596768 174.84453072859336 a86.0,86.0 0 0,1 -31.369924170532247,-30.572349798747897" fill="none" id="id8" stroke="none" /><text fill="#e1ed5e" style="font-size:6.75px; font-family:Arial;" text-anchor="middle"><textPath startOffset="22.145653131862474" xlink:href="#id8">August</textPath></text><path d="M 88.1277618465304 117.32195027204791 l -4.157309106238444 6.065638228689761 a28.353583216783214,28.353583216783214 0 0,0 -0.39911706579496464,-0.27861470891828105 l 4.260821263207174 -5.993378703966351" fill="#ff0000" stroke="none" /><path d="M 87.54013794807813 116.9041958592261 l -8.721328365789072 11.83215690780324 a35.699030769230774,35.699030769230774 0 0,0 -0.49017661052810857,-0.36783766683704844 l 8.923157965227947 -11.680700213702178" fill="#ff730a" stroke="none" /><path d="M 87.2517909369889 116.68781488649013 l -8.920430026785091 11.67712925471248 a35.694537062937066,35.694537062937066 0 0,0 -0.48372906090291207,-0.37615064356717115 l 9.119569032323232 -11.522277559524515" fill="#ff730a" stroke="none" /><path d="M 86.13680546590413 115.77377054828092 l -4.8579154228296275 5.527415995945786 a28.358781818181818,28.358781818181818 0 0,0 -0.36290459386814133,-0.3245115256176645 l 4.95208504352114 -5.443208940444738" fill="#ff0000" stroke="none" /><path d="M 85.86807049272751 115.53346607816431 l -9.890621223158037 10.871525306069085 a35.69743006993007,35.69743006993007 0 0,0 -0.4497370112907172,-0.41626986346696787 l 10.075788005762721 -10.70013769646974" fill="#ff730a" stroke="none" /><path d="M 85.34317274990678 115.03919595460226 l -10.264032629826637 10.531801690124494 a35.706094405594406,35.706094405594406 0 0,0 -0.4352880318302148,-0.4315676436572616 l 10.443312581786815 -10.354054036238573" fill="#ff730a" stroke="none" /><path d="M 85.08716467003676 114.78537596483092 l -12.52215139822752 12.415125106312255 a38.63347972027972,38.63347972027972 0 0,0 -0.46289016262356725,-0.474966085249404 l 12.733428362001895 -12.198336328995113" fill="#ff9f0e" stroke="none" /><path d="M 84.58840730492382 114.26474011684316 l -12.944423028683014 11.981164706334079 a38.63820839160839,38.63820839160839 0 0,0 -0.4463675329121317,-0.4906361107530531 l 13.148188262437024 -11.757191020023352" fill="#ff9f0e" stroke="none" /><path d="M 84.1078160697243 113.72728997021213 l -11.122883965723293 9.607682252634088 a35.697826573426575,35.697826573426575 0 0,0 -0.39659509574098556,-0.4671880255586965 l 11.28617362497139 -9.415327444625838" fill="#ff730a" stroke="none" /><path d="M 83.4222238831116 112.89097897827486 l -14.12899513456493 10.98679207510076 a38.89799160839161,38.89799160839161 0 0,0 -0.4053689784945584,-0.5306410053683961 l 14.315516090413784 -10.742630156491494" fill="#ffa30f" stroke="none" /><path d="M 83.20337586046588 112.60449989151573 l -14.113886125393332 10.591323271779773 a38.64590349650349,38.64590349650349 0 0,0 -0.3936324147266802,-0.5340379698709075 l 14.293620559703843 -10.347478992639987" fill="#ff9f0e" stroke="none" /><path d="M 82.576782715395 111.72311816256416 l -25.71495075848458 17.302166492097903 a51.993929370629374,51.993929370629374 0 0,0 -0.4919010995440904,-0.7448009599477617 l 26.008176296949397 -16.85818565381108" fill="#aaff21" stroke="none" /><path d="M 82.18462484594161 111.11811171558189 l -15.086508179411567 9.415096897273463 a38.783328671328675,38.783328671328675 0 0,0 -0.34763166195234585,-0.5678301942655174 l 15.245907805819318 -9.15472958688339" fill="#ffa10e" stroke="none" /><path d="M 81.99639281039703 110.81064883170644 l -15.117704496720203 9.077747183349633 a38.63378811188811,38.63378811188811 0 0,0 -0.3365302629971566,-0.5715019591120113 l 15.271308469847128 -8.816894055944061" fill="#ff9f0e" stroke="none" /><line stroke="#e1ed5e" stroke-width="0.3" x1="26.387840678322732" x2="22.057713659400548" y1="142.50000000000003" y2="145.00000000000006" /><path d="M 25.521815274538298 143.00000000000003 a86.0,86.0 0 0,1 -11.493303480769221,-40.785679425670985" fill="none" id="id9" stroke="none" /><text fill="#e1ed5e" style="font-size:6.75px; font-family:Arial;" text-anchor="middle"><textPath startOffset="21.40746469413373" xlink:href="#id9">September</textPath></text><path d="M 81.1358732173502 109.22738970284198 l -15.83940256587095 7.747845517552019 a38.6328041958042,38.6328041958042 0 0,0 -0.28628884076383215,-0.5982335683162997 l 15.970070664594694 -7.474799447170615" fill="#ff9f0e" stroke="none" /><path d="M 80.16572619554312 106.89939002012753 l -16.65363301302833 5.7929980468019595 a38.632422377622376,38.632422377622376 0 0,0 -0.21250514212329963,-0.6282336929983319 l 16.750623576723996 -5.506262679329466" fill="#ff9f0e" stroke="none" /><path d="M 79.56144815229197 104.8234425847677 l -16.201297025031764 3.8234619840628175 a37.64634755244755,37.64634755244755 0 0,0 -0.143036649367164,-0.6302458691447206 l 16.264544535956592 -3.5447817809790703" fill="#ff900d" stroke="none" /><path d="M 79.407916724674 104.11899336999214 l -16.58888148619499 3.3182408959610603 a37.91749720279721,37.91749720279721 0 0,0 -0.12219131538543958,-0.6393565952317601 l 16.643399093862584 -3.0329817356959854" fill="#ff940d" stroke="none" /><path d="M 79.01933749520258 100.90099992219065 l -16.53041456706654 0.709887127506126 a37.545650349650344,37.545650349650344 0 0,0 -0.022125674999229586,-0.6441648863735705 l 16.540164929062616 -0.42601597656843565" fill="#ff8f0d" stroke="none" /><line stroke="#e1ed5e" stroke-width="0.3" x1="15.003131293944662" x2="10.003315487706104" y1="100.72959589197737" y2="100.7725132973878" /><path d="M 14.003168132696942 100.73817937305945 a86.0,86.0 0 0,1 10.791469493833604,-42.45332614584628" fill="none" id="id10" stroke="none" /><text fill="#e1ed5e" style="font-size:6.75px; font-family:Arial;" text-anchor="middle"><textPath startOffset="22.145653131862435" xlink:href="#id10">October</textPath></text><path d="M 79.22317932658666 96.9465228501225 l -14.544239407236574 -2.137502334472841 a35.70046993006993,35.70046993006993 0 0,0 0.09431470484204421,-0.6055680618900862 l 14.505403210256263 2.386858578294377" fill="#ff730a" stroke="none" /><path d="M 79.34024301695615 96.23510406497455 l -16.69832804214897 -3.0429916198532982 a37.97333076923077,37.97333076923077 0 0,0 0.12237124226427677,-0.6402980486917205 l 16.643630507602534 3.329192233578333" fill="#ff950d" stroke="none" /><path d="M 79.407916724674 95.88100663000787 l -16.434700062678264 -3.287400293155106 a37.76026153846154,37.76026153846154 0 0,0 0.13259657741508432,-0.6345226234325422 l 16.375845774438815 3.569039367873057" fill="#ff920d" stroke="none" /><path d="M 79.64726062577567 94.8264132398404 l -27.978825421636927 -7.112108011834364 a49.86861188811189,49.86861188811189 0 0,0 0.21802205471405645,-0.8278652535268061 l 27.852613886118146 7.591353769733955" fill="#c5ff1e" stroke="none" /><path d="M 79.94057633289273 93.78553927170692 l -16.145647751257666 -5.001962945105567 a37.90270909090909,37.90270909090909 0 0,0 0.1978797278092265,-0.6198554289907134 l 16.057403307671184 5.2783874077876725" fill="#ff940d" stroke="none" /><path d="M 80.16572619554312 93.10060997987247 l -16.283120456288156 -5.6641145463770135 a38.24013356643357,38.24013356643357 0 0,0 0.22099124319615604,-0.618151838529941 l 16.183489043048056 5.942801341287876" fill="#ff990e" stroke="none" /><path d="M 80.41425534168474 92.42381321644754 l -41.397142118711805 -16.013303883417688 a65.38636363636363,65.38636363636363 0 0,0 0.41393094385545437,-1.0433763782213443 l 41.11615249989022 16.721581278852614" fill="#33ff55" stroke="none" /><path d="M 80.68587082218212 91.75594674310238 l -13.15908088121641 -5.616829140873946 a35.3076965034965,35.3076965034965 0 0,0 0.24272547995869206,-0.5554033992355666 l 13.06072151924074 5.8418946098853795" fill="#ff6d0a" stroke="none" /><path d="M 81.46374523516351 90.13048839642627 l -55.46617771939534 -29.532615490693686 a83.83846153846153,83.83846153846153 0 0,0 0.6872943349971771,-1.2645441648205569 l 54.95103803478281 30.480414488988863" fill="#4dd4ff" stroke="none" /><line stroke="#e1ed5e" stroke-width="0.3" x1="26.387840678322718" x2="22.05771365940052" y1="57.49999999999999" y2="54.99999999999999" /><path d="M 25.521815274538284 56.99999999999999 a86.0,86.0 0 0,1 29.574782752854787,-30.34633250058573" fill="none" id="id11" stroke="none" /><text fill="#e1ed5e" style="font-size:6.75px; font-family:Arial;" text-anchor="middle"><textPath startOffset="21.40746469413373" xlink:href="#id11">November</textPath></text><path d="M 81.81346652052679 89.5 l -7.642350185886462 -4.412312937062937 a29.82462587412587,29.82462587412587 0 0,0 0.2597956265676777,-0.4411897706608801 l 7.565480849189005 4.542853876017389" fill="#ff1802" stroke="none" /><path d="M 82.18462484594161 88.88188828441811 l -13.17304967973557 -8.220957274696877 a36.527825874125874,36.527825874125874 0 0,0 0.33654705095301995,-0.5291078630775085 l 13.02998493715666 8.445878812453058" fill="#ff800b" stroke="none" /><path d="M 82.78059297857968 87.97951657250589 l -25.572974863072684 -17.85192255174032 a52.18762867132867,52.18762867132867 0 0,0 0.5191051272840419,-0.7301863708411209 l 25.26275463725867 18.288286149290958" fill="#a8ff21" stroke="none" /><path d="M 83.2033758604659 87.39550010848427 l -12.89333535321752 -9.675399217774835 a37.11990839160839,37.11990839160839 0 0,0 0.3868389786806082,-0.5063846407909527 l 12.725344397182605 9.895304771806673" fill="#ff890c" stroke="none" /><path d="M 83.42222388311158 87.10902102172516 l -12.712453147502897 -9.885280458083706 a37.10357832167832,37.10357832167832 0 0,0 0.39530076256568886,-0.4994496000446659 l 12.540885954295646 10.102050002043056" fill="#ff880c" stroke="none" /><path d="M 84.10781606972428 86.27271002978789 l -33.58575246575586 -29.01057305829952 a65.38035734265735,65.38035734265735 0 0,0 0.7409429372374308,-0.8430570495572105 l 33.082798464559836 29.582842385668034" fill="#33ff55" stroke="none" /><path d="M 84.58840730492382 85.73525988315684 l -5.952258864289791 -5.509321942721521 a29.110611188811188,29.110611188811188 0 0,0 0.34259608246125256,-0.36382516727325537 l 5.856806948092267 5.610688569939287" fill="#ff0c01" stroke="none" /><line stroke="#e1ed5e" stroke-width="0.3" x1="56.869717070023135" x2="54.33264160355391" y1="26.7553504044142" y2="22.446841604673864" /><path d="M 56.362301976729285 25.89364864446614 a86.0,86.0 0 0,1 42.16139366436587,-11.88097634709845" fill="none" id="id12" stroke="none" /><text fill="#e1ed5e" style="font-size:6.75px; font-family:Arial;" text-anchor="middle"><textPath startOffset="22.145653131862474" xlink:href="#id12">December</textPath></text><path d="M 92.592206182469 80.34994680014964 l -22.223381452592992 -58.95015959955109 a84.0,84.0 0 0,0 1.353643393383492,-0.49707660396511244 l 21.208148907555373 59.32296705252492" fill="#4dd2ff" stroke="none" /></svg>