<?xml version="1.0" encoding="utf-8" ?>
<svg baseProfile="full" height="200mm" version="1.1" viewBox="0,0,200,200" width="200mm" xmlns="http://www.w3.org/2000/svg" xmlns:ev="http://www.w3.org/2001/xml-events" xmlns:xlink="http://www.w3.org/1999/xlink"><defs /><rect fill="#1a1a1a" height="200" width="200" x="0" y="0" /><text alignment-baseline="middle" fill="#e1ed5e" style="dominant-baseline: central; font-size:9.0px; font-family:Arial;" text-anchor="middle" x="100.0" y="100.0">2024</text><line stroke="#e1ed5e" stroke-width="0.3" x1="100.0" x2="100.0" y1="15.0" y2="10.0" /><path d="M 100.0 14.0 a86.0,86.0 0 0,1 42.35913384403234,11.155469271406648" fill="none" id="id97" stroke="none" /><text fill="#e1ed5e" style="font-size:6.75px; font-family:Arial;" text-anchor="middle"><textPath startOffset="22.145653131862478" xlink:href="#id97">January</textPath></text><path d="M 104.9986988182912 79.60360301121754 l 2.209392612308304 -9.015075815295527 a30.2818644501441,30.2818644501441 0 0,0 0.5038249119117357,0.12807032241597133 l -2.3638228174454343 8.975820261044287" fill="#ff3004" stroke="none" /><path d="M 107.06938296918511 80.22567764915836 l 3.9930581826186784 -11.169294408429726 a32.861604074995824,32.861604074995824 0 0,0 0.5295582530012195,0.19446112564815504 l -4.184205587274023 11.099102433772849" fill="#ff5808" stroke="none" /><path d="M 109.06512990194946 81.05736502329252 l 5.12435133453816 -10.707923424427218 a32.87091406182271,32.87091406182271 0 0,0 0.5069004103004133,0.2479503917814217 l -5.30741199410064 10.618379282548576" fill="#ff5808" stroke="none" /><line stroke="#e1ed5e" stroke-width="0.3" x1="143.13028292997686" x2="145.6673583964461" y1="26.7553504044142" y2="22.446841604673864" /><path d="M 143.63769802327073 25.89364864446614 a86.0,86.0 0 0,1 29.32050498858742,28.57503671076993" fill="none" id="id98" stroke="none" /><text fill="#e1ed5e" style="font-size:6.75px; font-family:Arial;" text-anchor="middle"><textPath startOffset="20.669276256404974" xlink:href="#id98">February</textPath></text><path d="M 114.39649973595853 84.71141617570332 l 6.09495545415435 -6.472631478153453 a29.890637785902022,29.890637785902022 0 0,0 0.37054073479544025,0.35496964196350644 l -6.205168674815103 6.367049705884366" fill="#ff2a04" stroke="none" /><line stroke="#e1ed5e" stroke-width="0.3" x1="172.87174338648825" x2="177.1583165268699" y1="56.24261187166439" y2="53.66864786411523" /><path d="M 173.72905801456457 55.72781907015455 a86.0,86.0 0 0,1 12.242430191666344,42.057860355516425" fill="none" id="id99" stroke="none" /><text fill="#e1ed5e" style="font-size:6.75px; font-family:Arial;" text-anchor="middle"><textPath startOffset="22.145653131862474" xlink:href="#id99">March</textPath></text><path d="M 118.36410011445183 89.81374322990088 l 7.775858353831552 -4.313137551331236 a29.89196989848456,29.89196989848456 0 0,0 0.2450496012943977,0.4508636658698875 l -7.848753304741291 4.179019051986745" fill="#ff2a04" stroke="none" /><path d="M 118.8641267826498 90.77261029715802 l 13.312594371997692 -6.51185700995529 a35.81990049330455,35.81990049330455 0 0,0 0.26544378545572234,0.5546754198902224 l -13.422417415413326 6.282369087999964" fill="#ff840c" stroke="none" /><path d="M 119.4528033332814 92.08871423366111 l 17.84122765794103 -7.255871968992511 a40.26024616594739,40.26024616594739 0 0,0 0.2548690700710026,0.6424365493781157 l -17.96315540297816 6.94853440240083" fill="#ffc312" stroke="none" /><path d="M 119.94978838288452 93.4421083053983 l 16.89128737612352 -5.5525016641301566 a38.78049110550543,38.78049110550543 0 0,0 0.20246238879283993,0.6342105492517286 l -16.984114480693613 5.261722081187041" fill="#ffae10" stroke="none" /><path d="M 120.16314734710363 94.1308016681162 l 29.99966641370987 -8.732465673207948 a52.24477462981014,52.24477462981014 0 0,0 0.2432653735488788,0.863262991143667 l -30.145150279333333 8.216194758161269" fill="#9fff22" stroke="none" /><path d="M 120.43855184770803 95.1765574152323 l 17.3022518393744 -4.083284322503142 a38.77754565657292,38.77754565657292 0 0,0 0.14733461708791468,0.6491835079506132 l -17.36979731801998 3.7856664806135027" fill="#ffae10" stroke="none" /><path d="M 120.592083275326 95.88100663000786 l 17.432441543806263 -3.4869765327605853 a38.777767675336676,38.777767675336676 0 0,0 0.12496358645767419,0.6538622889319413 l -17.489731422546097 3.1872116787953293" fill="#ffae10" stroke="none" /><path d="M 120.77682067341334 96.94652285012252 l 46.87305594298682 -6.88872506128849 a68.37655439565435,68.37655439565435 0 0,0 0.16070275707077752,1.1627650961752856 l -46.984403216612804 6.083071656913119" fill="#38ff7f" stroke="none" /><line stroke="#e1ed5e" stroke-width="0.3" x1="184.99686870605535" x2="189.99668451229388" y1="99.2704041080226" y2="99.22748670261217" /><path d="M 185.99683186730306 99.26182062694052 a86.0,86.0 0 0,1 -10.086455211305974,41.156179273409016" fill="none" id="id100" stroke="none" /><text fill="#e1ed5e" style="font-size:6.75px; font-family:Arial;" text-anchor="middle"><textPath startOffset="21.40746469413373" xlink:href="#id100">April</textPath></text><path d="M 120.93736805541906 101.62068470465957 l 12.085184860790632 0.935469740276042 a33.121336426089954,33.121336426089954 0 0,0 -0.04874573906379988,0.5664993774781656 l -12.06734549902909 -1.1427901651298649" fill="#ff5c08" stroke="none" /><path d="M 120.7213421655516 103.40968896794604 l 11.690785606196224 1.9237143226339097 a32.848001725402966,32.848001725402966 0 0,0 -0.09633096101306399,0.5556113841666515 l -11.656039827690925 -2.124118739721149" fill="#ff5808" stroke="none" /><path d="M 120.592083275326 104.11899336999214 l 14.532421637244846 2.9068913316539655 a35.820300127079314,35.820300127079314 0 0,0 -0.12578433001567318,0.6019235535650219 l -14.48037959640481 -3.1559313365043966" fill="#ff840c" stroke="none" /><path d="M 120.43855184770803 104.8234425847677 l 17.291231608768445 4.0806835780866715 a38.7662226996213,38.7662226996213 0 0,0 -0.1584107360702201,0.6463698609627463 l -17.218633346181928 -4.3769092636575175" fill="#ffae10" stroke="none" /><path d="M 119.83427380445688 106.89939002012753 l 16.82901853091968 5.854006234131842 a38.81811588533682,38.81811588533682 0 0,0 -0.22433142585995156,0.6274949239155385 l -16.726046935015784 -6.1420361144283016" fill="#ffaf10" stroke="none" /><path d="M 119.4528033332814 107.91128576633889 l 13.725780470478668 5.582155425496346 a35.81747308815413,35.81747308815413 0 0,0 -0.23652180149223484,0.5675662208428388 l -13.627932824449948 -5.816954155780462" fill="#ff840c" stroke="none" /><path d="M 119.31412917781788 108.2440532568976 l 16.35675656382236 6.981726744228808 a38.784487443253056,38.784487443253056 0 0,0 -0.26662694714972307,0.6100946336575693 l -16.23449573465567 -7.261483447662221" fill="#ffae10" stroke="none" /><path d="M 119.0197475246899 108.90220220490707 l 10.744971833718004 5.029189363613719 a32.86369105137514,32.86369105137514 0 0,0 -0.24353676131386667,0.5088981650429586 l -10.657055814444226 -5.212900030721781" fill="#ff5808" stroke="none" /><path d="M 118.8641267826498 109.22738970284198 l 15.972002019460119 7.812706554945833 a38.78041709925084,38.78041709925084 0 0,0 -0.29764909494011765,0.5954975771043406 l -15.835533011308268 -8.08573598821392" fill="#ffae10" stroke="none" /><line stroke="#e1ed5e" stroke-width="0.3" x1="174.33088141563837" x2="178.70328620479359" y1="141.23008692659167" y2="143.65538615756765" /><path d="M 175.20536237346943 141.71514677278685 a86.0,86.0 0 0,1 -30.301960400862466,31.631185727798858" fill="none" id="id101" stroke="none" /><text fill="#e1ed5e" style="font-size:6.75px; font-family:Arial;" text-anchor="middle"><textPath startOffset="22.145653131862474" xlink:href="#id101">May</textPath></text><path d="M 117.62189284568427 111.42229804090321 l 26.241337050917583 17.009317637564937 a52.27178691273394,52.27178691273394 0 0,0 -0.49452983778588716,0.7487812046915857 l -25.94548277421097 -17.457278720595585" fill="#9fff22" stroke="none" /><path d="M 117.21940702142032 112.02048342749411 l 9.43945304502542 6.589471330295422 a32.51192452207818,32.51192452207818 0 0,0 -0.3233928643045551,0.45489256324229976 l -9.324945082190904 -6.750541120247226" fill="#ff5307" stroke="none" /><path d="M 116.1254893667686 113.45245675266167 l 23.9940813392278 20.016716032258348 a52.247157631207806,52.247157631207806 0 0,0 -0.5804545674600728,0.6837740209357162 l -23.646932208260615 -20.425656835643622" fill="#9fff22" stroke="none" /><path d="M 115.41159269507618 114.26474011684316 l 10.874218042684719 10.065013877659943 a35.817325075644966,35.817325075644966 0 0,0 -0.42152585445798213,0.44764584990700623 l -10.699836354490477 -10.250201187511447" fill="#ff840c" stroke="none" /><path d="M 115.16444852881244 114.52719865689866 l 12.832383856859908 12.293133454605229 a38.770515062387275,38.770515062387275 0 0,0 -0.4645320626608608,0.4766508193311613 l -12.61946499304824 -12.511606966004127" fill="#ffae10" stroke="none" /><path d="M 114.39649973595853 115.28858382429668 l 32.477036721827005 34.48948754162948 a68.37386056798744,68.37386056798744 0 0,0 -0.8614137107913977,0.7973116705485324 l -31.880193239721642 -35.04191695831039" fill="#38ff7f" stroke="none" /><path d="M 113.31354834802062 116.24036423190432 l 5.6420470460069225 6.882380012111129 a29.899429728946807,29.899429728946807 0 0,0 -0.3997258030104322,0.3219908118002644 l -5.523070472641238 -6.978219117704797" fill="#ff2b04" stroke="none" /><path d="M 112.45986205192187 116.90419585922612 l 37.379586155765615 50.71258757767834 a84.0,84.0 0 0,0 -1.1680759585041285,0.8455969145076918 l -36.50352918688752 -51.346785263559106" fill="#4dd2ff" stroke="none" /><path d="M 110.96478420261333 117.91015095944535 l 7.84512778626885 12.814426654628202 a36.02516424102357,36.02516424102357 0 0,0 -0.5301999145970839,0.31836981483466054 l -7.6239951151143295 -12.947210469998785" fill="#ff870c" stroke="none" /><line stroke="#e1ed5e" stroke-width="0.3" x1="143.1302829299769" x2="145.66735839644613" y1="173.24464959558577" y2="177.55315839532614" /><path d="M 143.63769802327073 174.10635135553383 a86.0,86.0 0 0,1 -40.68552437913181,11.842963189579606" fill="none" id="id102" stroke="none" /><text fill="#e1ed5e" style="font-size:6.75px; font-family:Arial;" text-anchor="middle"><textPath startOffset="21.407464694133747" xlink:href="#id102">June</textPath></text><path d="M 110.34350942703117 118.27599006163325 l 7.294920448893879 12.889425447418612 a35.81057570522674,35.81057570522674 0 0,0 -0.5375948626928045,0.29819480810636634 l -7.07258139804498 -13.01275317095812" fill="#ff840c" stroke="none" /><path d="M 108.73861861582097 119.09545874513695 l 7.395945056159236 16.1614747032784 a38.773386505065204,38.773386505065204 0 0,0 -0.6076096107007364,0.27177605038420133 l -7.117422042602873 -16.28605450457245" fill="#ffae10" stroke="none" /><path d="M 108.07796709384702 119.3841803445677 l 5.719060117932792 13.723662332305759 a35.86763452751235,35.86763452751235 0 0,0 -0.5703731684816409,0.2319658021520375 l -5.48263248826071 -13.819815391037087" fill="#ff850c" stroke="none" /><path d="M 107.407793817531 119.65005319985036 l 5.23074777427412 13.875179921482106 a35.82839641133099,35.82839641133099 0 0,0 -0.577367524972893,0.21201735254357418 l -4.9917910976471 -13.962928123034402" fill="#ff840c" stroke="none" /><path d="M 106.72888874123015 119.89276391827305 l 2.3777447180278637 7.029379761300953 a28.420636749814456,28.420636749814456 0 0,0 -0.46349627944688815,0.15236043326009632 l -2.2567257009332415 -7.069161115963069" fill="#ff1302" stroke="none" /><path d="M 106.38641147887787 120.00534299687104 l 5.408828002591796 16.94307668098171 a38.78547912706451,38.78547912706451 0 0,0 -0.6360068117127029,0.19703653603949595 l -5.117180558007468 -17.033429804827854" fill="#ffaf10" stroke="none" /><path d="M 105.69591212413111 120.21278271476187 l 1.6807448962569624 5.964370700710091 a27.19666210647174,27.19666210647174 0 0,0 -0.4504526149107364,0.12277286326772656 l -1.578110880411531 -5.992344058121959" fill="#ff0000" stroke="none" /><path d="M 105.3480935250658 120.30758222061773 l 3.7728587358832812 14.326159149354606 a35.81463124797804,35.81463124797804 0 0,0 -0.5958782182441814,0.15146991291402212 l -3.5263752244137025 -14.388814294103897" fill="#ff840c" stroke="none" /><path d="M 103.58742460773223 120.69131181640829 l 2.5313055788001195 14.59989791023826 a35.81770990816881,35.81770990816881 0 0,0 -0.6067221525454535,0.09983589931649446 l -2.2803059232015936 -14.641199808050425" fill="#ff840c" stroke="none" /><path d="M 103.2317021107853 120.74984581791261 l 2.2805769781933036 14.642940175538936 a35.81947125702795,35.81947125702795 0 0,0 -0.6083764822756661,0.08941039229975886 l -2.028875390309952 -14.679931641137577" fill="#ff840c" stroke="none" /><path d="M 102.51750503828377 120.84855314841334 l 1.7775482501375266 14.720649453843967 a35.82758234253055,35.82758234253055 0 0,0 -0.6112255469414205,0.06848909742927468 l -1.5245868015953068 -14.748994311780212" fill="#ff840c" stroke="none" /><path d="M 100.72087961077811 120.9876233191556 l 0.5088032646716069 14.813251897855686 a35.82198746968387,35.82198746968387 0 0,0 -0.6147508260761291,0.015833800608416587 l -0.254439124524734 -14.819803415814148" fill="#ff840c" stroke="none" /><line stroke="#e1ed5e" stroke-width="0.3" x1="101.45913802915013" x2="101.54496967792366" y1="184.9874750549273" y2="189.98673829345242" /><path d="M 101.47630435890484 185.9873277026323 a86.0,86.0 0 0,1 -42.54439059252881,-10.42667462771756" fill="none" id="id103" stroke="none" /><text fill="#e1ed5e" style="font-size:6.75px; font-family:Arial;" text-anchor="middle"><textPath startOffset="22.145653131862474" xlink:href="#id103">July</textPath></text><path d="M 100.0 121.0 l 1.815177201696876e-15 14.822046674687535 a35.822046674687535,35.822046674687535 0 0,0 -0.6149330657062003,-0.005278460788148391 l 0.2544401408573464 -14.819862612093821" fill="#ff840c" stroke="none" /><path d="M 98.91894614982273 120.97215588758144 l -0.7627759200216939 14.797649071195838 a35.81729547314313,35.81729547314313 0 0,0 -0.6137645746357866,-0.0369225526981986 l 1.016684846789927 -14.782374540672947" fill="#ff840c" stroke="none" /><path d="M 98.19965949673042 120.92268563240118 l -0.8890475452603096 10.332080108156104 a31.37025963508573,31.37025963508573 0 0,0 -0.5361333276075095,-0.050772383540150505 l 1.0662804362528344 -10.31529596911077" fill="#ff4106" stroke="none" /><path d="M 97.84075906011543 120.88869738790638 l -3.214015968038351 31.092688970523653 a52.25836217815208,52.25836217815208 0 0,0 -0.891537857598788,-0.09989867651396159 l 3.7472897272379386 -31.03293453350272" fill="#9fff22" stroke="none" /><path d="M 94.30408787586889 120.21278271476187 l -3.2197462690361855 11.425743641124255 a32.870736446811705,32.870736446811705 0 0,0 -0.5418036336527081,-0.15771114142554243 l 3.4154099150705 -11.368788805396198" fill="#ff5808" stroke="none" /><path d="M 92.93061703081489 119.77432235084164 l -4.985333579472871 13.94486529541281 a35.80921399014237,35.80921399014237 0 0,0 -0.577058404047775,-0.21190383905809876 l 5.223981135174765 -13.857230607345993" fill="#ff840c" stroke="none" /><path d="M 91.59046798132341 119.24265499422711 l -4.923224937872818 11.265302127165267 a33.29411142804583,33.29411142804583 0 0,0 -0.5217450397524245,-0.23336991995227044 l 5.115883380480878 -11.179128456303141" fill="#ff5e08" stroke="none" /><path d="M 90.6110303473126 118.78422872680471 l -6.6247142173213085 13.253866154765992 a35.81728067189221,35.81728067189221 0 0,0 -0.547616848380421,-0.27961706470756864 l 6.851258287415312 -13.138191138385586" fill="#ff840c" stroke="none" /><line stroke="#e1ed5e" stroke-width="0.3" x1="58.13341422392154" x2="55.67067388415222" y1="173.97424548756322" y2="178.32567169271397" /><path d="M 57.64086615596768 174.84453072859336 a86.0,86.0 0 0,1 -31.369924170532247,-30.572349798747897" fill="none" id="id104" stroke="none" /><text fill="#e1ed5e" style="font-size:6.75px; font-family:Arial;" text-anchor="middle"><textPath startOffset="22.145653131862474" xlink:href="#id104">August</textPath></text><path d="M 89.65649057296885 118.27599006163327 l -6.568869438604565 11.606562881101532 a34.336504325136964,34.336504325136964 0 0,0 -0.5104816798881773,-0.29472673529981375 l 6.767143586353142 -11.492089248525547" fill="#ff6e0a" stroke="none" /><path d="M 87.2517909369889 116.68781488649013 l -6.293197194731362 8.237997142247245 a31.36672213611653,31.36672213611653 0 0,0 -0.42507891377756246,-0.330543934420256 l 6.433686053144153 -8.128752156206195" fill="#ff4106" stroke="none" /><path d="M 86.40962598614128 116.0094264158162 l -8.626598478457545 10.162111316349657 a34.329917768478836,34.329917768478836 0 0,0 -0.4459955250140259,-0.3852403121021726 l 8.799773483234434 -10.012526871782763" fill="#ff6e0a" stroke="none" /><path d="M 85.34317274990678 115.03919595460226 l -8.273819937733007 8.489668139867753 a32.85455867955926,32.85455867955926 0 0,0 -0.400525356311021,-0.3971020832375067 l 8.418337214173992 -8.346386046401586" fill="#ff5808" stroke="none" /><path d="M 84.58840730492382 114.26474011684316 l -5.447450046565602 5.04207843739406 a28.422753328695606,28.422753328695606 0 0,0 -0.3283535859974127,-0.36091811009315045 l 5.533201333404894 -4.947822751743235" fill="#ff1302" stroke="none" /><path d="M 84.1078160697243 113.72728997021213 l -8.973041626920464 7.750699643795541 a32.85701568721151,32.85701568721151 0 0,0 -0.3650343041313592,-0.43000949240103836 l 9.104770494558936 -7.595523368944948" fill="#ff5808" stroke="none" /><path d="M 82.18462484594161 111.11811171558189 l -10.05333830415372 6.274026643478079 a32.85044393180429,32.85044393180429 0 0,0 -0.294452663325101,-0.48096629656481393 l 10.159558931934225 -6.100523230788708" fill="#ff5808" stroke="none" /><line stroke="#e1ed5e" stroke-width="0.3" x1="26.387840678322732" x2="22.057713659400548" y1="142.50000000000003" y2="145.00000000000006" /><path d="M 25.521815274538298 143.00000000000003 a86.0,86.0 0 0,1 -11.493303480769221,-40.785679425670985" fill="none" id="id105" stroke="none" /><text fill="#e1ed5e" style="font-size:6.75px; font-family:Arial;" text-anchor="middle"><textPath startOffset="21.40746469413373" xlink:href="#id105">September</textPath></text><path d="M 81.4637452351635 109.86951160357371 l -10.463754545202683 5.5713599220018075 a32.85454387830834,32.85454387830834 0 0,0 -0.2607898743820227,-0.5000989705613913 l 10.557852488559654 -5.390914708335913" fill="#ff5808" stroke="none" /><path d="M 80.68587082218212 108.24405325689762 l -11.308207350618876 4.826801290405151 a33.29526592561737,33.29526592561737 0 0,0 -0.21986632776991044,-0.527599147121567 l 11.389399522925272 -4.631969633842303" fill="#ff5e08" stroke="none" /><path d="M 80.16572619554312 106.89939002012753 l -13.996803019287837 4.8688146597666515 a35.819441654526116,35.819441654526116 0 0,0 -0.19703179534456047,-0.5824894926805302 l 14.078320236204764 -4.62782349261196" fill="#ff840c" stroke="none" /><path d="M 79.2786578344484 103.40968896794605 l -14.613346912911526 2.4046206734889095 a35.80986524518272,35.80986524518272 0 0,0 -0.09460370907297382,-0.6074236763703009 l 14.652472114122766 -2.1534088151871584" fill="#ff840c" stroke="none" /><path d="M 79.17382384314188 102.69636545807758 l -14.68498928171006 1.9012658662451294 a35.807556250039646,35.807556250039646 0 0,0 -0.07369180367935897,-0.6102738474195354 l 14.715463171649079 -1.6488983419021948" fill="#ff840c" stroke="none" /><line stroke="#e1ed5e" stroke-width="0.3" x1="15.003131293944662" x2="10.003315487706104" y1="100.72959589197737" y2="100.7725132973878" /><path d="M 14.003168132696942 100.73817937305945 a86.0,86.0 0 0,1 10.791469493833604,-42.45332614584628" fill="none" id="id106" stroke="none" /><text fill="#e1ed5e" style="font-size:6.75px; font-family:Arial;" text-anchor="middle"><textPath startOffset="22.145653131862435" xlink:href="#id106">October</textPath></text><path d="M 79.00077361379809 100.18025310272382 l -14.96660676724811 0.12847031873595396 a35.96715813867927,35.96715813867927 0 0,0 0.0,-0.6174468429195376 l 14.96660676724811 0.12847031873594847" fill="#ff860c" stroke="none" /><path d="M 79.01933749520258 99.09900007780938 l -14.799688134401944 -0.6355622876299817 a35.813328737897336,35.813328737897336 0 0,0 0.03164945036403364,-0.6139908818435924 l 14.786597094581339 0.8895249628502861" fill="#ff840c" stroke="none" /><path d="M 79.13060592940154 97.66154086499901 l -14.72253829543191 -1.6496911242793646 a35.814675651730795,35.814675651730795 0 0,0 0.07370645537878376,-0.610395184509081 l 14.692049753793457 1.902179985711882" fill="#ff840c" stroke="none" /><path d="M 79.22317932658666 96.9465228501225 l -14.658666504691727 -2.154319177285236 a35.81612617432067,35.81612617432067 0 0,0 0.09462024940661198,-0.6075298771774927 l 14.619524763146847 2.4056372363941785" fill="#ff840c" stroke="none" /><path d="M 79.34024301695615 96.23510406497455 l -14.574647559398805 -2.655986292377225 a35.814675651730795,35.814675651730795 0 0,0 0.11541485200307132,-0.6038992753543656 l 14.526906415113574 2.905788132764905" fill="#ff840c" stroke="none" /><path d="M 79.56144815229197 95.17655741523228 l -14.41732833309814 -3.4024502302613975 a35.81337314165009,35.81337314165009 0 0,0 0.14634448252760793,-0.5971354288897551 l 14.356796324054235 3.6494414837592704" fill="#ff840c" stroke="none" /><path d="M 79.83685265289637 94.1308016681162 l -14.226199074248447 -4.141039215666883 a35.81664421810277,35.81664421810277 0 0,0 0.17690638778201617,-0.5888638292419344 l 14.1530163664628 4.38464064849954" fill="#ff840c" stroke="none" /><path d="M 80.05021161711548 93.44210830539832 l -29.708135539834505 -9.765654230494276 a52.27205333525045,52.27205333525045 0 0,0 0.2875325811699194,-0.8500389850373973 l 29.53611753709222 10.274194890005836" fill="#9fff22" stroke="none" /><path d="M 80.41425534168474 92.42381321644754 l -13.81609053929572 -5.344360624028486 a35.8137283716721,35.8137283716721 0 0,0 0.22672021448253052,-0.5714830451017319 l 13.72231164984706 5.580744686343801" fill="#ff840c" stroke="none" /><path d="M 81.29705330413844 90.45014215332179 l -27.83545647242555 -14.21298241030023 a52.254143821640696,52.254143821640696 0 0,0 0.4147782922709762,-0.7953920659974253 l 27.587370111179634 14.688720719402141" fill="#9fff22" stroke="none" /><line stroke="#e1ed5e" stroke-width="0.3" x1="26.387840678322718" x2="22.05771365940052" y1="57.49999999999999" y2="54.99999999999999" /><path d="M 25.521815274538284 56.99999999999999 a86.0,86.0 0 0,1 29.574782752854787,-30.34633250058573" fill="none" id="id107" stroke="none" /><text fill="#e1ed5e" style="font-size:6.75px; font-family:Arial;" text-anchor="middle"><textPath startOffset="21.40746469413373" xlink:href="#id107">November</textPath></text><path d="M 82.78059297857968 87.97951657250589 l -12.147724940778739 -8.480055448526326 a35.81480886298905,35.81480886298905 0 0,0 0.3562463247863496,-0.5011050697615187 l 12.000363517462416 8.687337744997365" fill="#ff840c" stroke="none" /><path d="M 83.64595745247003 86.82634096563983 l -34.586265443918116 -27.86024720834949 a65.41174542694208,65.41174542694208 0 0,0 0.7119077369752674,-0.868411684530976 l 34.10291088770422 28.449861174578963" fill="#34ff5a" stroke="none" /><path d="M 84.34580500576568 86.00192230759919 l -8.835766575172189 -7.900996955559406 a32.8531229582203,32.8531229582203 0 0,0 0.37953538877091075,-0.4171758770733999 l 8.698833485559412 8.051510408190463" fill="#ff5808" stroke="none" /><path d="M 86.13680546590413 84.22622945171909 l -7.825548232848706 -8.904037372906346 a32.8541590457845,32.8541590457845 0 0,0 0.42682327442024004,-0.36867977867032 l 7.671545478665617 9.037061284041377" fill="#ff5808" stroke="none" /><path d="M 86.96720088162412 83.53348406188908 l -28.02852949706698 -35.41313139972503 a66.1629089109874,66.1629089109874 0 0,0 0.8966336147652937,-0.6972277220814282 l 27.41648593766644 35.88906017342726" fill="#35ff64" stroke="none" /><path d="M 87.83215693770416 82.88440491214696 l -6.865385250644431 -9.657024130781114 a32.84869738419607,32.84869738419607 0 0,0 0.46239219977694523,-0.3227856666322587 l 6.69859795969372 9.7734546132185" fill="#ff5808" stroke="none" /><path d="M 89.03521579738668 82.08984904055464 l -23.962328615515474 -39.14066295453697 a66.8931878299886,66.8931878299886 0 0,0 0.9844996746523983,-0.5911637676555543 l 23.286896184305643 39.54624072272845" fill="#36ff6d" stroke="none" /><line stroke="#e1ed5e" stroke-width="0.3" x1="56.869717070023135" x2="54.33264160355391" y1="26.7553504044142" y2="22.446841604673864" /><path d="M 56.362301976729285 25.89364864446614 a86.0,86.0 0 0,1 42.16139366436587,-11.88097634709845" fill="none" id="id108" stroke="none" /><text fill="#e1ed5e" style="font-size:6.75px; font-family:Arial;" text-anchor="middle"><textPath startOffset="22.145653131862474" xlink:href="#id108">December</textPath></text><path d="M 90.61103034731259 81.2157712731953 l -5.301787078799194 -10.60712568396429 a32.85833299854313,32.85833299854313 0 0,0 0.5067063984720316,-0.24785549087410372 l 5.118920431065109 10.696574924935607" fill="#ff5808" stroke="none" /><path d="M 92.592206182469 80.34994680014964 l -4.184670271594892 -11.100335064141763 a32.86292138632745,32.86292138632745 0 0,0 0.5295794812128954,-0.19446892094152515 l 3.99350163872787 11.17053483409201" fill="#ff5808" stroke="none" /><path d="M 93.61358852112211 79.99465700312896 l -4.50435881638586 -14.109839837412409 a35.81137497277627,35.81137497277627 0 0,0 0.587237258172499,-0.1819276036872188 l 4.261480925341745 14.18508402890627" fill="#ff840c" stroke="none" /><path d="M 96.05791012581881 79.37332000966035 l -2.7807395984973153 -14.550004608046493 a35.81334353914825,35.81334353914825 0 0,0 0.6048451918447718,-0.11022294240755408 l 2.530559673101505 14.595595724385408" fill="#ff840c" stroke="none" /><path d="M 98.5590905019552 79.04949213459386 l -1.0164248572977503 -14.778594350516663 a35.81350635290834,35.81350635290834 0 0,0 0.6136996443349161,-0.036918646652534255 l 0.7625808608303504 14.793864974993891" fill="#ff840c" stroke="none" /></svg>