<?xml version="1.0" encoding="utf-8" ?>
<svg baseProfile="full" height="200mm" version="1.1" viewBox="0,0,200,200" width="200mm" xmlns="http://www.w3.org/2000/svg" xmlns:ev="http://www.w3.org/2001/xml-events" xmlns:xlink="http://www.w3.org/1999/xlink"><defs /><rect fill="#1a1a1a" height="200" width="200" x="0" y="0" /><text alignment-baseline="middle" fill="#e1ed5e" style="dominant-baseline: central; font-size:9.0px; font-family:Arial;" text-anchor="middle" x="100.0" y="100.0">2025</text><line stroke="#e1ed5e" stroke-width="0.3" x1="100.0" x2="100.0" y1="15.0" y2="10.0" /><path d="M 100.0 14.0 a86.0,86.0 0 0,1 42.46469731375804,11.215312516191453" fill="none" id="id121" stroke="none" /><text fill="#e1ed5e" style="font-size:6.75px; font-family:Arial;" text-anchor="middle"><textPath startOffset="22.20632615414155" xlink:href="#id121">January</textPath></text><path d="M 100.0 79.0 l 0.0 -5.195259582495687 a26.195259582495687,26.195259582495687 0 0,0 0.45090833278803966,0.0038811103771478404 l -0.08942785351551127 5.194489848727098" fill="#ff2904" stroke="none" /><path d="M 101.44485096284872 79.0497635885617 l 0.4054413663826741 -5.878871035906952 a26.892835256343073,26.892835256343073 0 0,0 0.4615448410594458,0.03582476263357214 l -0.5065763968044611 5.871021011084915" fill="#ff3304" stroke="none" /><path d="M 102.52436894288641 79.15227682838746 l 0.7223742556112508 -5.965791391041017 a27.009366978858008,27.009366978858008 0 0,0 0.46106953591653,0.05986005854624985 l -0.824958520035627 5.952473009330631" fill="#ff3505" stroke="none" /><path d="M 103.95276090670814 79.375362276772 l 1.1306420700950366 -5.899441843491339 a27.00680993168631,27.00680993168631 0 0,0 0.4558152672822132,0.0914322545294122 l -1.232023746844375 5.879105632884719" fill="#ff3505" stroke="none" /><path d="M 109.41281617654863 81.2277094730956 l 1.7967334041064311 -3.5832848351285995 a25.008513581752528,25.008513581752528 0 0,0 0.3831536650439544,0.19626618900460316 l -1.8581475567391412 3.5518261208114956" fill="#ff1802" stroke="none" /><line stroke="#e1ed5e" stroke-width="0.3" x1="143.23703022742887" x2="145.7803849466894" y1="26.81831364943548" y2="22.513508569990506" /><path d="M 143.74570117128098 25.957352633546492 a86.0,86.0 0 0,1 28.547481713284135,27.462654790039103" fill="none" id="id122" stroke="none" /><text fill="#e1ed5e" style="font-size:6.75px; font-family:Arial;" text-anchor="middle"><textPath startOffset="19.985693538727396" xlink:href="#id122">February</textPath></text><path d="M 111.2981086023043 82.29822771554956 l 3.232760494358563 -5.065059306442791 a27.008790742875654,27.008790742875654 0 0,0 0.3897406756563624,0.2534981767890939 l -3.3194681957992054 5.008662205494169" fill="#ff3505" stroke="none" /><path d="M 111.90073688211348 82.69761687909136 l 3.406998518671981 -4.953407023982698 a27.011978048153054,27.011978048153054 0 0,0 0.3808288361099101,0.26679493686260886 l -3.491758494365542 4.894027244356153" fill="#ff3505" stroke="none" /><path d="M 113.06298171725822 83.55741782278167 l 3.756313244872127 -4.728131030803207 a27.038634964795104,27.038634964795104 0 0,0 0.36192706647901063,0.29265318408565916 l -3.8371437099156287 4.662771749453419" fill="#ff3505" stroke="none" /><path d="M 113.34407831869373 83.78471172551755 l 3.818847204576842 -4.640538433566145 a27.00984117305182,27.00984117305182 0 0,0 0.35645590043060116,0.2985215654877187 l -3.8981606419665606 4.574115710684607" fill="#ff3505" stroke="none" /><path d="M 114.42810811169701 84.74124197986012 l 4.131148259271835 -4.368985257495191 a27.012854407042884,27.012854407042884 0 0,0 0.335109581471086,0.32237515186821125 l -4.205741084355339 4.297227018864678" fill="#ff3505" stroke="none" /><path d="M 114.94478906791727 85.2469230424477 l 4.275952237794635 -4.221100220572978 a27.00844860276113,27.00844860276113 0 0,0 0.3237615092977528,0.3336646947714631 l -4.347978010795496 4.146871330251401" fill="#ff3505" stroke="none" /><path d="M 116.60985879189232 87.15038557335679 l 4.75144478350522 -3.6757828108285526 a27.00729613079642,27.00729613079642 0 0,0 0.28129264063320875,0.3701481423205936 l -4.814013364362543 3.5934498926269254" fill="#ff3505" stroke="none" /><path d="M 117.04232023915458 87.72973835380427 l 4.875316199729954 -3.510167896105136 a27.007494211915354,27.007494211915354 0 0,0 0.26838681965459105,0.3796141230380902 l -4.935015639188428 3.425727272735253" fill="#ff3505" stroke="none" /><path d="M 117.45458315368197 88.32363383020206 l 5.001295102849255 -3.345651536328243 a27.017170174452396,27.017170174452396 0 0,0 0.25525226027232734,0.3887667042457461 l -5.058143998479507 3.259066768104823" fill="#ff3505" stroke="none" /><line stroke="#e1ed5e" stroke-width="0.3" x1="172.23445277983987" x2="176.4835382374775" y1="55.19839476539836" y2="52.563006222186495" /><path d="M 173.08426987136738 54.67131705675599 a86.0,86.0 0 0,1 12.851231095245387,41.99856678651699" fill="none" id="id123" stroke="none" /><text fill="#e1ed5e" style="font-size:6.75px; font-family:Arial;" text-anchor="middle"><textPath startOffset="22.20632615414155" xlink:href="#id123">March</textPath></text><path d="M 117.84615892207809 88.93136811851018 l 10.766560795464365 -6.677688941077659 a33.669268367045554,33.669268367045554 0 0,0 0.3012344575918689,0.4951502440134786 l -10.879911051342457 6.491370923857099" fill="#ff920d" stroke="none" /><path d="M 118.03404312379186 89.2402003453031 l 2.066805776101571 -1.2331353498142996 a23.40672160980211,23.40672160980211 0 0,0 0.20346050391598577,0.3477799538837729 l -2.087725954487884 1.1973759835766313" fill="#ff0000" stroke="none" /><path d="M 118.3937258080291 89.86733742301442 l 5.263375934837123 -2.8994676184773036 a27.009162895280923,27.009162895280923 0 0,0 0.22082164361947113,0.4091489686314385 l -5.312505677675059 2.8084376665134063" fill="#ff3505" stroke="none" /><path d="M 118.73160827565052 90.50648371742162 l 5.359756027827411 -2.7164208418222495 a27.008820755166404,27.008820755166404 0 0,0 0.2066046007739835,0.41650226797672346 l -5.405720641554802 2.6237589853465764" fill="#ff3505" stroke="none" /><path d="M 119.196687751892 91.48605970444005 l 17.155311497156504 -7.6085676719999835 a39.766859475785324,39.766859475785324 0 0,0 0.27213653081195116,0.6281286335820168 l -17.283738737811138 7.312139893831364" fill="#ffe215" stroke="none" /><path d="M 120.08093135843002 93.85539295169968 l 18.37082931798864 -5.621329274802146 a40.21162961974904,40.21162961974904 0 0,0 0.19683420916374297,0.6636271017732299 l -18.464869424264087 5.304272786282386" fill="#ffe815" stroke="none" /><path d="M 120.37134235888165 94.90015583598534 l 3.5011955178810523 -0.8765034338129972 a24.60924207056223,24.60924207056223 0 0,0 0.09933602562024735,0.41181195720305824 l -3.515764343762119 0.8161062449505329" fill="#ff1202" stroke="none" /><path d="M 120.67395015179393 96.31383870115 l 25.132260506545688 -4.481077169657684 a46.52862257877035,46.52862257877035 0 0,0 0.13379890016952675,0.7896886827220163 l -25.205671268235438 4.04780269861983" fill="#c9ff1d" stroke="none" /><path d="M 120.94382443527127 98.46500227214037 l 34.86420318661252 -2.5552387932053278 a55.95771601703555,55.95771601703555 0 0,0 0.062138136488572436,0.9612494684880153 l -34.90302191410551 1.954730260464277" fill="#5fff29" stroke="none" /><line stroke="#e1ed5e" stroke-width="0.3" x1="184.98032266829074" x2="189.97916517819016" y1="98.17113171792111" y2="98.06355123074" /><path d="M 185.9800911702706 98.14961562048488 a86.0,86.0 0 0,1 -9.607161424134198,41.387399972396054" fill="none" id="id124" stroke="none" /><text fill="#e1ed5e" style="font-size:6.75px; font-family:Arial;" text-anchor="middle"><textPath startOffset="21.466115282336823" xlink:href="#id124">April</textPath></text><path d="M 120.9764740272857 100.99374915477107 l 6.000794088445193 0.2842843866700719 a27.007524224206104,27.007524224206104 0 0,0 -0.025996219907840696,0.464179969727247 l -5.995011517649823 -0.3875360727327422" fill="#ff3505" stroke="none" /><path d="M 120.89721153311464 102.0752229133903 l 4.7819267726347725 0.4748750326329849 a25.805447945349048,25.805447945349048 0 0,0 -0.04770038561775521,0.4416463289032857 l -4.7730440855159655 -0.557117683421062" fill="#ff2303" stroke="none" /><path d="M 120.64145759157962 103.86396538481128 l 5.905102571022431 1.1054021658576414 a27.007674285659842,27.007674285659842 0 0,0 -0.08947265286784704,0.4562191293646607 l -5.885199985178921 -1.2068850222902472" fill="#ff3505" stroke="none" /><path d="M 120.41448212921028 104.9243191809786 l 4.306396269826098 1.0387757876089554 a25.429910153681984,25.429910153681984 0 0,0 -0.10630754238030611,0.4246457875010362 l -4.287877413150731 -1.1127494145073875" fill="#ff1e03" stroke="none" /><path d="M 120.23288151984713 105.62410040840565 l 4.72157693878359 1.3124488849343179 a25.900592909477215,25.900592909477215 0 0,0 -0.12309856578007197,0.42852225649508985 l -4.698285736117419 -1.3935286169339898" fill="#ff2503" stroke="none" /><path d="M 119.67450827220406 107.3425965602758 l 5.625446857265514 2.099436802826114 a27.004438960717245,27.004438960717245 0 0,0 -0.16627754447565318,0.434098199239572 l -5.588475033196354 -2.19595856889883" fill="#ff3505" stroke="none" /><path d="M 119.41010516605496 108.01547362559984 l 4.442546374570351 1.8345657064314733 a25.80643835094372,25.80643835094372 0 0,0 -0.17308626288817106,0.4091247966121356 l -4.41030913048987 -1.9107650287097724" fill="#ff2403" stroke="none" /><path d="M 118.81262510543309 109.33194174019688 l 5.381582659522931 2.669516644661039 a27.00730813571272,27.00730813571272 0 0,0 -0.21017001052525194,0.41468536960038693 l -5.3348339792114094 -2.76175622596412" fill="#ff3505" stroke="none" /><line stroke="#e1ed5e" stroke-width="0.3" x1="174.80103733775053" x2="179.2010983576182" y1="140.37084112569926" y2="142.7455964860345" /><path d="M 175.68104954172406 140.8457921977663 a86.0,86.0 0 0,1 -30.038265399797805,32.042727171017184" fill="none" id="id125" stroke="none" /><text fill="#e1ed5e" style="font-size:6.75px; font-family:Arial;" text-anchor="middle"><textPath startOffset="22.206326154141568" xlink:href="#id125">May</textPath></text><path d="M 117.94076556474637 110.91462005526583 l 5.131571412955601 3.12189310187142 a27.006599845651074,27.006599845651074 0 0,0 -0.24503391585401263,0.39507269285400226 l -5.077072857433626 -3.2097621260906957" fill="#ff3505" stroke="none" /><path d="M 117.75023020441432 111.22182372390056 l 3.048313731873995 1.9271659556126925 a24.606408910315654,24.606408910315654 0 0,0 -0.22941977116168666,0.35606457958786786 l -3.014689097335258 -1.9793521351220134" fill="#ff1202" stroke="none" /><path d="M 116.498646956653 112.99209946851258 l 4.71891924418846 3.715981581123064 a27.006389759615843,27.006389759615843 0 0,0 -0.29074576117687434,0.3627500412726189 l -4.654255570956733 -3.7966594559739333" fill="#ff3505" stroke="none" /><path d="M 115.32070863581623 114.36230785411682 l 4.381836235506703 4.107726507737919 a27.00615566374801,27.00615566374801 0 0,0 -0.3208504243116667,0.3364103871476904 l -4.310479259816072 -4.182544011468116" fill="#ff3505" stroke="none" /><path d="M 113.48314897796784 116.09983520530334 l 3.0866091682451926 3.685630043332489 a25.807392741789496,25.807392741789496 0 0,0 -0.3430292485053511,0.2822897182075654 l -3.02270979119515 -3.7382148803972326" fill="#ff2403" stroke="none" /><path d="M 112.92097659922987 116.55440617244103 l 3.695037125599064 4.734096136592473 a27.00541135893747,27.00541135893747 0 0,0 -0.36890841400450664,0.2828632407968793 l -3.612999983101064 -4.796998719216724" fill="#ff3505" stroke="none" /><path d="M 111.45004920935366 117.60387380957326 l 3.2753455027919793 5.035678699686392 a27.00715807425898,27.00715807425898 0 0,0 -0.3918844066772328,0.2501191697103781 l -3.188179294067816 -5.091312298220579" fill="#ff3505" stroke="none" /><line stroke="#e1ed5e" stroke-width="0.3" x1="143.8653032363475" x2="146.44561519142675" y1="172.8068346515853" y2="177.08958963109032" /><path d="M 144.38136562736335 173.6633856474863 a86.0,86.0 0 0,1 -40.68145358897372,12.25698825130547" fill="none" id="id126" stroke="none" /><text fill="#e1ed5e" style="font-size:6.75px; font-family:Arial;" text-anchor="middle"><textPath startOffset="21.466115282336833" xlink:href="#id126">June</textPath></text><path d="M 110.21172684928248 118.3499491758327 l 2.920711301211 5.2483683441129045 a27.0063237325762,27.0063237325762 0 0,0 -0.4081519565719054,0.22255698969163235 l -2.8299365327704455 -5.297865985564307" fill="#ff3505" stroke="none" /><path d="M 108.2653958097858 119.30500536409082 l 2.3645905342647624 5.522836897153096 a27.007746315157636,27.007746315157636 0 0,0 -0.4289454386074928,0.17929922812643712 l -2.2691736361598087 -5.562721168299507" fill="#ff3505" stroke="none" /><path d="M 107.59598834532513 119.57807347666477 l 2.1730213689592923 5.6007948003278205 a27.0075722438713,27.0075722438713 0 0,0 -0.4348602114581492,0.164426922464311 l -2.076290936740868 -5.637369972898762" fill="#ff3505" stroke="none" /><path d="M 106.2309692047433 120.05430185196036 l 1.070261884917328 3.4446254178950593 a24.607063178253952,24.607063178253952 0 0,0 -0.4055771605487445,0.12219707147315736 l -1.0108097499283377 -3.462537858473942" fill="#ff1202" stroke="none" /><path d="M 105.88484417918355 120.15858648285463 l 3.551542177848523 12.165839563418674 a33.673638156578406,33.673638156578406 0 0,0 -0.5578099605331955,0.1576426666597767 l -3.341601049210722 -12.22517102341697" fill="#ff920d" stroke="none" /><path d="M 103.7750983002368 120.6578951692458 l 3.3627246423367647 18.40132563967271 a39.70606057718875,39.70606057718875 0 0,0 -0.6733978244456602,0.11707884344145549 l -3.045477846419055 -18.45648306163517" fill="#ffe215" stroke="none" /><path d="M 102.70371172650421 120.8252237178851 l 0.7732870048428843 5.956210019034843 a27.006197680955058,27.006197680955058 0 0,0 -0.4615135121594371,0.05588285911259791 l -0.6706460696320669 -5.968638406872792" fill="#ff3505" stroke="none" /><path d="M 101.62511606390274 120.93702456842531 l 1.3937456280929044 17.956186087680607 a39.010195603913985,39.010195603913985 0 0,0 -0.6699299640033071,0.04620229263870837 l -1.084452903310667 -17.9775167248356" fill="#ffd914" stroke="none" /><line stroke="#e1ed5e" stroke-width="0.3" x1="102.19456741930631" x2="102.32365962044197" y1="184.97166512339345" y2="189.96999836594603" /><path d="M 102.22038585953345 185.97133177190398 a86.0,86.0 0 0,1 -42.740103519485714,-10.115201625700543" fill="none" id="id127" stroke="none" /><text fill="#e1ed5e" style="font-size:6.75px; font-family:Arial;" text-anchor="middle"><textPath startOffset="22.20632615414155" xlink:href="#id127">July</textPath></text><path d="M 99.81925306533755 120.99922214144158 l -0.051696461341874916 6.006107255272963 a27.00632973503435,27.00632973503435 0 0,0 -0.46481791401388944,-0.008002261922988443 l 0.15507406524843226 -6.0043275160708145" fill="#ff3505" stroke="none" /><path d="M 99.09653310690486 120.98055641714683 l -0.9331564763686357 21.67001607707664 a42.69009861181246,42.69009861181246 0 0,0 -0.7338873790223358,-0.03793359473509891 l 1.3060319238044604 -21.650742675579338" fill="#f7ff19" stroke="none" /><path d="M 96.93821686468263 120.77559828337769 l -9.185349405952088 62.32679485013308 a84.0,84.0 0 0,0 -1.4286565455659315,-0.22312677061157693 l 10.256841815126537 -62.1594497721744" fill="#4dd2ff" stroke="none" /><path d="M 94.81253420990036 120.34920634021253 l -0.8910587144516913 3.495413439878068 a24.60720123479139,24.60720123479139 0 0,0 -0.4095453336771673,-0.10816464492375395 l 0.9510944909403478 -3.479557445650732" fill="#ff1202" stroke="none" /><path d="M 92.40401165467489 119.57807347666478 l -1.738617711416878 4.481152913155701 a25.806612422230057,25.806612422230057 0 0,0 -0.41275701006587856,-0.1642445326390785 l 1.8154957975246144 -4.450561536110556" fill="#ff2403" stroke="none" /><path d="M 91.40352486487194 119.15986991738527 l -1.9680822937391622 4.386472378738508 a25.80775288927847,25.80775288927847 0 0,0 -0.4037463229263727,-0.18534013434887345 l 2.0432966124329544 -4.35194517405556" fill="#ff2403" stroke="none" /><path d="M 90.42595943632237 118.69057910512821 l -2.1913229914220214 4.277932127365755 a25.806516382899662,25.806516382899662 0 0,0 -0.3936219986448474,-0.20592442596643726 l 2.2646358925933643 -4.239578282454602" fill="#ff2403" stroke="none" /><line stroke="#e1ed5e" stroke-width="0.3" x1="58.666819895761336" x2="56.23545636021788" y1="174.27360380694188" y2="178.64263932499728" /><path d="M 58.180547188652646 175.14741091055294 a86.0,86.0 0 0,1 -31.652253787137756,-30.449443065178592" fill="none" id="id128" stroke="none" /><text fill="#e1ed5e" style="font-size:6.75px; font-family:Arial;" text-anchor="middle"><textPath startOffset="22.20632615414155" xlink:href="#id128">August</textPath></text><path d="M 89.1626897886671 117.98757091392108 l -1.8776951018493633 3.1165642710788104 a24.638504054041178,24.638504054041178 0 0,0 -0.36138913005699136,-0.2219947203390644 l 1.9310634318386635 -3.0837810839113677" fill="#ff1202" stroke="none" /><path d="M 87.07902340077011 116.55440617244103 l -3.6955209374270996 4.734715998214448 a27.006197680955058,27.006197680955058 0 0,0 -0.3639953287518185,-0.28917990333905147 l 3.7764737588962762 -4.6704021808702665" fill="#ff3505" stroke="none" /><path d="M 85.97065885151581 115.62618273729859 l -3.2110077778355817 3.576489713686029 a25.80643835094372,25.80643835094372 0 0,0 -0.3279880963106057,-0.29960934945703205 l 3.2720954236130417 -3.520687597642421" fill="#ff2403" stroke="none" /><path d="M 84.9287848128048 114.62390073753433 l -2.5917171393253184 2.514794839998127 a24.611258896500473,24.611258896500473 0 0,0 -0.292397516999677,-0.3065776275842931 l 2.634621207703953 -2.469810095831334" fill="#ff1202" stroke="none" /><line stroke="#e1ed5e" stroke-width="0.3" x1="26.63291911575756" x2="22.317208475507996" y1="142.92168965132927" y2="145.44649492493687" /><path d="M 25.769776987707644 143.4266507060508 a86.0,86.0 0 0,1 -11.730757126820373,-40.83630448921669" fill="none" id="id129" stroke="none" /><text fill="#e1ed5e" style="font-size:6.75px; font-family:Arial;" text-anchor="middle"><textPath startOffset="21.46611528233685" xlink:href="#id129">September</textPath></text><line stroke="#e1ed5e" stroke-width="0.3" x1="15.007084014347285" x2="10.007500721073583" y1="101.09737516637583" y2="101.16192664675087" /><path d="M 14.007167355692545 101.11028546245083 a86.0,86.0 0 0,1 10.666146001902534,-42.60595125391555" fill="none" id="id130" stroke="none" /><text fill="#e1ed5e" style="font-size:6.75px; font-family:Arial;" text-anchor="middle"><textPath startOffset="22.20632615414155" xlink:href="#id130">October</textPath></text><line stroke="#e1ed5e" stroke-width="0.3" x1="26.266209847984243" x2="21.928928074336255" y1="57.711370442889674" y2="55.22380399835377" /><path d="M 25.398753493254645 57.213857153982495 a86.0,86.0 0 0,1 29.58750427330803,-30.492523968695096" fill="none" id="id131" stroke="none" /><text fill="#e1ed5e" style="font-size:6.75px; font-family:Arial;" text-anchor="middle"><textPath startOffset="21.46611528233685" xlink:href="#id131">November</textPath></text><line stroke="#e1ed5e" stroke-width="0.3" x1="56.762969772571076" x2="54.21961505331055" y1="26.818313649435495" y2="22.513508569990535" /><path d="M 56.25429882871897 25.957352633546506 a86.0,86.0 0 0,1 42.265352541879196,-11.944610805530505" fill="none" id="id132" stroke="none" /><text fill="#e1ed5e" style="font-size:6.75px; font-family:Arial;" text-anchor="middle"><textPath startOffset="22.20632615414155" xlink:href="#id132">December</textPath></text></svg>