<?xml version="1.0" encoding="utf-8" ?>
<svg baseProfile="full" height="200mm" version="1.1" viewBox="0,0,200,200" width="200mm" xmlns="http://www.w3.org/2000/svg" xmlns:ev="http://www.w3.org/2001/xml-events" xmlns:xlink="http://www.w3.org/1999/xlink"><defs /><rect fill="#1a1a1a" height="200" width="200" x="0" y="0" /><text alignment-baseline="middle" fill="#e1ed5e" style="dominant-baseline: central; font-size:9.0px; font-family:Arial;" text-anchor="middle" x="100.0" y="100.0">2016</text><line stroke="#e1ed5e" stroke-width="0.3" x1="100.0" x2="100.0" y1="15.0" y2="10.0" /><path d="M 100.0 14.0 a86.0,86.0 0 0,1 42.35913384403234,11.155469271406648" fill="none" id="id13" stroke="none" /><text fill="#e1ed5e" style="font-size:6.75px; font-family:Arial;" text-anchor="middle"><textPath startOffset="22.145653131862478" xlink:href="#id13">January</textPath></text><path d="M 100.36049292484886 79.00309439819443 l 0.5226576149091299 -30.442185812420686 a51.44667219944357,51.44667219944357 0 0,0 0.8828902712403044,0.022740121559752954 l -1.0451612002201756 30.428727973510888" fill="#adff20" stroke="none" /><path d="M 101.44090949804482 79.04949213459386 l 0.9920327470826538 -14.423938421321436 a35.458012607317684,35.458012607317684 0 0,0 0.6068909102247924,0.04697719469776752 l -1.2394926520826797 14.404783459628616" fill="#ff770b" stroke="none" /><path d="M 102.51750503828377 79.15144685158666 l 1.732697006722917 -14.349216818007234 a35.45345156726545,35.45345156726545 0 0,0 0.6035902488484796,0.0781468420112024 l -1.978765077462188 14.317358379795634" fill="#ff770b" stroke="none" /><path d="M 104.64783097203109 79.52079915486377 l 2.560727628768207 -11.283038418309083 a32.569973290279265,32.569973290279265 0 0,0 0.5441788752909409,0.12842473284640438 l -2.7540386577990326 11.237417541816452" fill="#ff4c07" stroke="none" /><path d="M 104.9986988182912 79.60360301121754 l 3.4391129398732243 -14.032754394851144 a35.448034251046664,35.448034251046664 0 0,0 0.5897788348990773,0.1499194735191524 l -3.679497067997696 13.971649689496724" fill="#ff770b" stroke="none" /><path d="M 105.69591212413111 79.78721728523813 l 8.253239518488844 -29.287835458934293 a51.42849435018359,51.42849435018359 0 0,0 0.8476884951240606,0.2467497665861157 l -8.75478802599451 29.14184199804566" fill="#adff20" stroke="none" /><path d="M 106.38641147887787 79.99465700312896 l 4.396559392952433 -13.772159678878472 a35.45690550277909,35.45690550277909 0 0,0 0.5782468537178324,0.19008122625897433 l -4.632328984318008 13.694657531217475" fill="#ff770b" stroke="none" /><path d="M 108.4095320186766 80.7573450057729 l 5.8052026958106095 -13.283439839333655 a35.49655656715219,35.49655656715219 0 0,0 0.556259095763176,0.24880761820481148 l -6.0323751944294175 13.18182847021899" fill="#ff780b" stroke="none" /><line stroke="#e1ed5e" stroke-width="0.3" x1="143.13028292997686" x2="145.6673583964461" y1="26.7553504044142" y2="22.446841604673864" /><path d="M 143.63769802327073 25.89364864446614 a86.0,86.0 0 0,1 29.32050498858742,28.57503671076993" fill="none" id="id14" stroke="none" /><text fill="#e1ed5e" style="font-size:6.75px; font-family:Arial;" text-anchor="middle"><textPath startOffset="20.669276256404974" xlink:href="#id14">February</textPath></text><path d="M 111.5731344415666 82.4767994020092 l 7.984067178321687 -12.088895316991303 a35.487467642522205,35.487467642522205 0 0,0 0.5054492046626649,0.34008878237833534 l -8.190412671081353 11.950056860555849" fill="#ff780b" stroke="none" /><path d="M 111.8722381534696 82.67804972795209 l 3.827739362750442 -5.584786123629649 a27.77062956273901,27.77062956273901 0 0,0 0.3909111628543204,0.2728863513631716 l -3.923045616778523 5.518254956461351" fill="#ff0000" stroke="none" /><path d="M 112.45986205192187 83.09580414077388 l 8.583950329703677 -11.645777217637642 a35.46749218992939,35.46749218992939 0 0,0 0.48699739827604177,0.36545192669347026 l -8.782600716890485 11.496706263680156" fill="#ff770b" stroke="none" /><path d="M 114.39649973595853 84.71141617570332 l 10.039478629349423 -10.661578396981396 a35.64446602181671,35.64446602181671 0 0,0 0.4418683443865663,0.4232998784560001 l -10.221019459601303 10.487666388219816" fill="#ff7a0b" stroke="none" /><path d="M 116.57777611688842 87.10902102172516 l 11.471977931962282 -8.92067942753206 a35.5321987022,35.5321987022 0 0,0 0.3702929250585875,0.484725325464275 l -11.623422834375177 8.722433188826903" fill="#ff780b" stroke="none" /><path d="M 116.7966241395341 87.39550010848427 l 11.553855296118845 -8.670228411181073 a35.445221801886774,35.445221801886774 0 0,0 0.36103149327747286,0.48980855873680285 l -11.700988808980144 8.470613543175396" fill="#ff770b" stroke="none" /><path d="M 117.01052211995028 87.68569379921539 l 11.729811949442576 -8.491479274092987 a35.48080483369749,35.48080483369749 0 0,0 0.3529240200840284,0.49643183213408726 l -11.873851068056565 8.288870215249396" fill="#ff780b" stroke="none" /><path d="M 117.21940702142032 87.97951657250589 l 11.853108910259035 -8.274390578189564 a35.45550864822454,35.45550864822454 0 0,0 0.3441045975686268,0.5020588915431176 l -11.993403244642987 8.069696951576399" fill="#ff770b" stroke="none" /><path d="M 117.62189284568427 88.57770195909679 l 6.070592106557429 -3.934884460657435 a28.23432127036951,28.23432127036951 0 0,0 0.2601353168936823,0.4089759254845482 l -6.137245115077001 3.830094860494215" fill="#ff0701" stroke="none" /><path d="M 117.81537515405839 88.88188828441811 l 12.290157240120454 -7.6699670939345435 a35.48711014001495,35.48711014001495 0 0,0 0.31808623701192124,0.5195699630502169 l -12.420011441587778 7.457860014759772" fill="#ff780b" stroke="none" /><line stroke="#e1ed5e" stroke-width="0.3" x1="172.87174338648825" x2="177.1583165268699" y1="56.24261187166439" y2="53.66864786411523" /><path d="M 173.72905801456457 55.72781907015455 a86.0,86.0 0 0,1 12.242430191666344,42.057860355516425" fill="none" id="id15" stroke="none" /><text fill="#e1ed5e" style="font-size:6.75px; font-family:Arial;" text-anchor="middle"><textPath startOffset="22.145653131862474" xlink:href="#id15">March</textPath></text><path d="M 118.00360718960297 89.18935116829356 l 12.506534911129792 -7.509814872198549 a35.58803396273819,35.58803396273819 0 0,0 0.3099993817418818,0.5264467225358977 l -12.633608003001443 7.294016981369095" fill="#ff790b" stroke="none" /><path d="M 118.18653347947321 89.5 l 12.51811675587833 -7.227338078753521 a35.45467615750704,35.45467615750704 0 0,0 0.2997889304545417,0.5296983148926689 l -12.640339051354248 7.011382993761734" fill="#ff770b" stroke="none" /><path d="M 118.70294669586156 90.45014215332178 l 6.499106850150002 -3.3184902656562985 a28.29731234722225,28.29731234722225 0 0,0 0.21718872666666042,0.4345229422934926 l -6.5551154900284 3.2064354671990554" fill="#ff0801" stroke="none" /><path d="M 118.8641267826498 90.77261029715802 l 38.93187009380645 -19.043528563770035 a64.33989489096791,64.33989489096791 0 0,0 0.4767915326530331,0.9963109255708612 l -39.2530408844194 18.37240513613407" fill="#32ff4a" stroke="none" /><path d="M 120.05942366710727 93.78553927170692 l 13.796084388962594 -4.274062209474683 a35.44297587887749,35.44297587887749 0 0,0 0.17506075657999257,0.5827203232294013 l -13.867421465546213 4.036604282654558" fill="#ff770b" stroke="none" /><path d="M 120.16314734710363 94.1308016681162 l 13.866725264894802 -4.036401628791468 a35.442250783066406,35.442250783066406 0 0,0 0.16502841551614564,0.5856276276555367 l -13.933972172485529 3.797766077232919" fill="#ff770b" stroke="none" /><path d="M 120.26092885502905 94.47779374421319 l 13.933385251120509 -3.7976061092049593 a35.441642452187125,35.441642452187125 0 0,0 0.15494836165087678,0.5883641674229089 l -13.996523093576116 3.557861437409252" fill="#ff770b" stroke="none" /><path d="M 120.43855184770803 95.1765574152323 l 29.64208250674017 -6.99545076038456 a51.45635215644442,51.45635215644442 0 0,0 0.1955075240927626,0.8614422247118287 l -29.757800892390602 6.485574201733705" fill="#adff20" stroke="none" /><path d="M 120.592083275326 95.88100663000786 l 14.182117389663771 -2.836820671295117 a35.46305656406317,35.46305656406317 0 0,0 0.11428173927132133,0.5979703507339642 l -14.228725421217248 2.5929477555278386" fill="#ff770b" stroke="none" /><path d="M 120.65975698304385 96.23510406497455 l 14.212670132657877 -2.590021947122519 a35.4467368629155,35.4467368629155 0 0,0 0.10395208376225698,0.5995679949494305 l -14.255037033912368 2.345660919252496" fill="#ff770b" stroke="none" /><path d="M 120.77682067341334 96.94652285012252 l 14.307987130177581 -2.102781385539141 a35.46167989110177,35.46167989110177 0 0,0 0.08334420737093456,0.603037166665636 l -14.34197585410373 1.8568559106734195" fill="#ff770b" stroke="none" /><path d="M 120.9064616781168 98.02013634271609 l 43.059969262649794 -4.077823858454184 a64.252625357554,64.252625357554 0 0,0 0.0945626610457748,1.098961460918582 l -43.123625546393306 3.3380413501599397" fill="#32ff49" stroke="none" /><path d="M 120.99303781780057 99.45929381324524 l 14.435961118608652 -0.37181915053591225 a35.44074869591899,35.44074869591899 0 0,0 0.010444166547580116,0.6083203413242518 l -14.440216716754898 0.12395189324259397" fill="#ff770b" stroke="none" /><line stroke="#e1ed5e" stroke-width="0.3" x1="184.99686870605535" x2="189.99668451229388" y1="99.2704041080226" y2="99.22748670261217" /><path d="M 185.99683186730306 99.26182062694052 a86.0,86.0 0 0,1 -10.086455211305974,41.156179273409016" fill="none" id="id16" stroke="none" /><text fill="#e1ed5e" style="font-size:6.75px; font-family:Arial;" text-anchor="middle"><textPath startOffset="21.40746469413373" xlink:href="#id16">April</textPath></text><path d="M 120.99922638620191 99.81974689727618 l 14.460630366957657 -0.1241271198780563 a35.46116309816286,35.46116309816286 0 0,0 0.0,0.6087604452037646 l -14.460630366957657 -0.12412711987805454" fill="#ff770b" stroke="none" /><path d="M 120.9064616781168 101.97986365728391 l 8.648462297530468 0.8190183713484832 a29.687156681239973,29.687156681239973 0 0,0 -0.05240151772359468,0.5069371491509863 l -8.633128387325208 -0.967360042782401" fill="#ff1f03" stroke="none" /><path d="M 120.86939407059847 102.33845913500097 l 8.61795596495043 0.9656599412086624 a29.67188930602091,29.67188930602091 0 0,0 -0.06106462631144857,0.5057027047739798 l -8.600109252379317 -1.1134563229060508" fill="#ff1e03" stroke="none" /><path d="M 120.77682067341334 103.0534771498775 l 60.61672477314605 8.908571090092876 a82.26785422299835,82.26785422299835 0 0,0 -0.21733799034659407,1.3954658057796492 l -60.45486529066119 -9.947825077803975" fill="#4be3ff" stroke="none" /><path d="M 120.35273937422433 105.17358676015961 l 13.98701156023086 3.5554436428274476 a35.431828431746055,35.431828431746055 0 0,0 -0.15490545544553927,0.5882012455726038 l -13.92391662398059 -3.7950253927728546" fill="#ff770a" stroke="none" /><path d="M 120.26092885502905 105.52220625578681 l 13.936503444723291 3.7984559867373835 a35.444874390176096,35.444874390176096 0 0,0 -0.16504063171897765,0.5856709786497281 l -13.869244320929734 -4.03713488929012" fill="#ff770b" stroke="none" /><path d="M 120.16314734710363 105.8691983318838 l 13.877064467411795 4.039411219959012 a35.45301910455507,35.45301910455507 0 0,0 -0.17511036230981303,0.5828854445705974 l -13.805677785098352 -4.277034268120333" fill="#ff770b" stroke="none" /><path d="M 119.83427380445688 106.89939002012753 l 13.631237498721307 4.741651995322003 a35.43239063326956,35.43239063326956 0 0,0 -0.20476518581857964,0.5727646681833849 l -13.547832142858782 -4.974951619886309" fill="#ff770a" stroke="none" /><path d="M 119.71291397450082 107.23885506374661 l 13.545301676606845 4.974022397627988 a35.429694949041476,35.429694949041476 0 0,0 -0.21455095615869388,0.5691219013979277 l -13.45792003663371 -5.2058125792200745" fill="#ff770a" stroke="none" /><path d="M 119.4528033332814 107.91128576633889 l 12.853376243846276 5.227356221371225 a34.87568138618714,34.87568138618714 0 0,0 -0.23030265059257682,0.5526425226860491 l -12.761747748717212 -5.447231253498552" fill="#ff6f0a" stroke="none" /><path d="M 119.0197475246899 108.90220220490707 l 13.07283280288973 6.1187458377770385 a35.4339186681796,35.4339186681796 0 0,0 -0.26258346269191607,0.5486984454159021 l -12.965870082237902 -6.342256785258044" fill="#ff770a" stroke="none" /><path d="M 118.8641267826498 109.22738970284198 l 12.968226846863852 6.343409596935578 a35.436542275289284,35.436542275289284 0 0,0 -0.2719840456860592,0.544150286261309 l -12.85742288796606 -6.565091739360632" fill="#ff770a" stroke="none" /><line stroke="#e1ed5e" stroke-width="0.3" x1="174.33088141563837" x2="178.70328620479359" y1="141.23008692659167" y2="143.65538615756765" /><path d="M 175.20536237346943 141.71514677278685 a86.0,86.0 0 0,1 -30.301960400862466,31.631185727798858" fill="none" id="id17" stroke="none" /><text fill="#e1ed5e" style="font-size:6.75px; font-family:Arial;" text-anchor="middle"><textPath startOffset="22.145653131862474" xlink:href="#id17">May</textPath></text><path d="M 117.01052211995028 112.31430620078461 l 9.356497702391849 6.773382784004025 a32.550877178530904,32.550877178530904 0 0,0 -0.33155080425060096,0.4498123421415884 l -9.238844878557419 -6.93300143541449" fill="#ff4b07" stroke="none" /><path d="M 116.57777611688842 112.89097897827486 l 11.392857640737851 8.85915501052114 a35.431972585982855,35.431972585982855 0 0,0 -0.37749150933677533,0.47694819037233577 l -11.239099700759514 -9.053423144808159" fill="#ff770a" stroke="none" /><path d="M 115.16444852881244 114.52719865689866 l 10.424169330331988 9.986118414207981 a35.435576441902754,35.435576441902754 0 0,0 -0.42457422579105963,0.43565055860944574 l -10.251208303390122 -10.163591664885164" fill="#ff770a" stroke="none" /><path d="M 114.91283532996324 114.78537596483092 l 10.248024628385425 10.160435200614435 a35.4310932451384,35.4310932451384 0 0,0 -0.4319355309230502,0.42824379643182664 l -10.07209717733241 -10.334859007274924" fill="#ff770a" stroke="none" /><path d="M 113.31354834802062 116.24036423190432 l 9.148628042661864 11.15983866593553 a35.430502212767536,35.430502212767536 0 0,0 -0.47367077153147646,0.38155564415114135 l -8.955706500775136 -11.315242603880074" fill="#ff770a" stroke="none" /><path d="M 111.27062007382361 117.71928675628689 l 7.744339149501314 12.175387443558714 a35.42965170277044,35.42965170277044 0 0,0 -0.5159837331044648,0.3220120114490849 l -7.534191287607134 -12.306535251849347" fill="#ff770a" stroke="none" /><line stroke="#e1ed5e" stroke-width="0.3" x1="143.1302829299769" x2="145.66735839644613" y1="173.24464959558577" y2="177.55315839532614" /><path d="M 143.63769802327073 174.10635135553383 a86.0,86.0 0 0,1 -40.68552437913181,11.842963189579606" fill="none" id="id18" stroke="none" /><text fill="#e1ed5e" style="font-size:6.75px; font-family:Arial;" text-anchor="middle"><textPath startOffset="21.407464694133747" xlink:href="#id18">June</textPath></text><path d="M 110.02825361518725 118.45085714620011 l 14.533368968737609 26.739761975015437 a51.434087534571276,51.434087534571276 0 0,0 -0.7793762811101896,0.4149739711475658 l -14.072203871840864 -26.98530641388557" fill="#adff20" stroke="none" /><path d="M 106.72888874123015 119.89276391827305 l 4.625610132744713 13.674794440402694 a35.43593682749474,35.43593682749474 0 0,0 -0.577904887312773,0.18996881510931488 l -4.390182507784206 -13.752184176914028" fill="#ff770a" stroke="none" /><path d="M 103.94208987418118 120.62667999033965 l 2.7077014574501646 14.167838191107146 a35.42426033431427,35.42426033431427 0 0,0 -0.5982740347726804,0.10902545869226164 l -2.464092689126427 -14.212231823730772" fill="#ff770a" stroke="none" /><path d="M 101.08105385017728 120.97215588758144 l 0.7427715236164416 14.409569125151208 a35.42870028480758,35.42870028480758 0 0,0 -0.6076431037134163,0.0260948094008098 l -0.49530265930219564 -14.420196502977848" fill="#ff770a" stroke="none" /><line stroke="#e1ed5e" stroke-width="0.3" x1="101.45913802915013" x2="101.54496967792366" y1="184.9874750549273" y2="189.98673829345242" /><path d="M 101.47630435890484 185.9873277026323 a86.0,86.0 0 0,1 -42.54439059252881,-10.42667462771756" fill="none" id="id19" stroke="none" /><text fill="#e1ed5e" style="font-size:6.75px; font-family:Arial;" text-anchor="middle"><textPath startOffset="22.145653131862474" xlink:href="#id19">July</textPath></text><path d="M 92.25597844496254 119.51999308798841 l -4.209305633805814 10.610199919145586 a32.41466584018237,32.41466584018237 0 0,0 -0.5154634785395958,-0.20963450927717617 l 4.39082357353585 -10.536378153289117" fill="#ff4906" stroke="none" /><line stroke="#e1ed5e" stroke-width="0.3" x1="58.13341422392154" x2="55.67067388415222" y1="173.97424548756322" y2="178.32567169271397" /><path d="M 57.64086615596768 174.84453072859336 a86.0,86.0 0 0,1 -31.369924170532247,-30.572349798747897" fill="none" id="id20" stroke="none" /><text fill="#e1ed5e" style="font-size:6.75px; font-family:Arial;" text-anchor="middle"><textPath startOffset="22.145653131862474" xlink:href="#id20">August</textPath></text><path d="M 87.2517909369889 116.68781488649013 l -9.494826464635912 12.429032630232566 a36.64073469236456,36.64073469236456 0 0,0 -0.4965518435574257,-0.38612171691722846 l 9.706788252828565 -12.264209861694544" fill="#ff890c" stroke="none" /><path d="M 86.13680546590413 115.77377054828092 l -4.768635233249358 5.42583152914179 a28.223539974999536,28.223539974999536 0 0,0 -0.36117391705385804,-0.3229639437384496 l 4.8610741771265875 -5.343172055519958" fill="#ff0701" stroke="none" /><path d="M 85.86807049272751 115.53346607816431 l -10.214990098771692 11.22806352143197 a36.179441134617406,36.179441134617406 0 0,0 -0.4558096673675518,-0.4218906232721949 l 10.40622953745321 -11.051055152027397" fill="#ff820c" stroke="none" /><path d="M 85.34317274990678 115.03919595460226 l -11.439539710961133 11.73797551189017 a37.3903367237037,37.3903367237037 0 0,0 -0.45582039572997773,-0.45192451832178343 l 11.639352026821074 -11.539870983339727" fill="#ff940d" stroke="none" /><path d="M 85.08716467003676 114.78537596483092 l -12.816595195760753 12.707052305313395 a39.048110446857535,39.048110446857535 0 0,0 -0.4678580942166819,-0.4800636207148258 l 13.032840091128245 -12.485165992530833" fill="#ffac0f" stroke="none" /><path d="M 84.58840730492382 114.26474011684316 l -12.748018529700095 11.799375634224408 a38.3705855339164,38.3705855339164 0 0,0 -0.443275822408163,-0.48723777932122786 l 12.948692052950138 -11.578800279345504" fill="#ffa20f" stroke="none" /><path d="M 84.1078160697243 113.72728997021213 l -10.918464353049036 9.431109459927349 a35.42770562057369,35.42770562057369 0 0,0 -0.39359411065473715,-0.46365287267296545 l 11.078753027210885 -9.242289804804829" fill="#ff770a" stroke="none" /><path d="M 83.4222238831116 112.89097897827486 l -13.678511952445481 10.636493627961508 a38.3273392628776,38.3273392628776 0 0,0 -0.3994220195691358,-0.5228562452350719 l 13.859085949368911 -10.400116469485566" fill="#ffa10e" stroke="none" /><path d="M 83.20337586046588 112.60449989151573 l -13.893676014134392 10.426073498943518 a38.3705855339164,38.3705855339164 0 0,0 -0.39082813109955283,-0.5302334205524445 l 14.070606164817775 -10.186033769122194" fill="#ffa20f" stroke="none" /><path d="M 82.576782715395 111.72311816256416 l -25.26788639609062 17.001361637230676 a51.455087923787715,51.455087923787715 0 0,0 -0.4868032601734221,-0.7370821813956253 l 25.55601409518477 -16.56509957749599" fill="#adff20" stroke="none" /><path d="M 82.18462484594161 111.11811171558189 l -14.711898360507941 9.181312664255186 a38.34175468655721,38.34175468655721 0 0,0 -0.34367364433343767,-0.5613650699416028 l 14.867339969296784 -8.927410478189026" fill="#ffa20e" stroke="none" /><path d="M 81.99639281039703 110.81064883170644 l -14.978566951610722 8.994199085257769 a38.47149349967359,38.47149349967359 0 0,0 -0.3351165510315219,-0.5691011671274071 l 15.130757212772012 -8.735746749836803" fill="#ffa30f" stroke="none" /><line stroke="#e1ed5e" stroke-width="0.3" x1="26.387840678322732" x2="22.057713659400548" y1="142.50000000000003" y2="145.00000000000006" /><path d="M 25.521815274538298 143.00000000000003 a86.0,86.0 0 0,1 -11.493303480769221,-40.785679425670985" fill="none" id="id21" stroke="none" /><text fill="#e1ed5e" style="font-size:6.75px; font-family:Arial;" text-anchor="middle"><textPath startOffset="21.40746469413373" xlink:href="#id21">September</textPath></text><path d="M 81.1358732173502 109.22738970284198 l -15.65565072953962 7.657963286480422 a38.428247228634795,38.428247228634795 0 0,0 -0.2847729690009573,-0.5950659793477774 l 15.784802956500489 -7.388084805067541" fill="#ffa30f" stroke="none" /><path d="M 80.16572619554312 106.89939002012753 l -17.822313023397648 6.1995256202215 a39.869789596594664,39.869789596594664 0 0,0 -0.21931152082138325,-0.6483555422049795 l 17.9261099657914 -5.892668403542359" fill="#ffb711" stroke="none" /><path d="M 79.56144815229197 104.8234425847677 l -16.99035216027097 4.009676847493528 a38.45707807599399,38.45707807599399 0 0,0 -0.14611700603300556,-0.6438184889783666 l 17.056680027861642 -3.7174240245761347" fill="#ffa30f" stroke="none" /><path d="M 79.407916724674 104.11899336999214 l -17.04730416478282 3.4099382705545214 a38.385000957596006,38.385000957596006 0 0,0 -0.12369787312159425,-0.6472395419180244 l 17.10332833018657 -3.1167961636031825" fill="#ffa20f" stroke="none" /><path d="M 79.01933749520258 100.90099992219065 l -17.32578582474504 0.7440437915827319 a38.34175468655721,38.34175468655721 0 0,0 -0.022594819777914783,-0.6578235247231362 l 17.3360053315198 -0.4465140022954759" fill="#ffa20e" stroke="none" /><line stroke="#e1ed5e" stroke-width="0.3" x1="15.003131293944662" x2="10.003315487706104" y1="100.72959589197737" y2="100.7725132973878" /><path d="M 14.003168132696942 100.73817937305945 a86.0,86.0 0 0,1 10.791469493833604,-42.45332614584628" fill="none" id="id22" stroke="none" /><text fill="#e1ed5e" style="font-size:6.75px; font-family:Arial;" text-anchor="middle"><textPath startOffset="22.145653131862435" xlink:href="#id22">October</textPath></text><path d="M 79.22317932658666 96.9465228501225 l -15.560084759048909 -2.286796618633336 a36.727227234442154,36.727227234442154 0 0,0 0.09702722689836353,-0.6229843993236859 l 15.518536040012277 2.5535691998884715" fill="#ff8a0c" stroke="none" /><path d="M 79.34024301695615 96.23510406497455 l -17.202601380195944 -3.134887020274172 a38.48590892335319,38.48590892335319 0 0,0 0.12402305484449731,-0.6489410301009922 l 17.146252033069285 3.429730615408479" fill="#ffa40f" stroke="none" /><path d="M 79.407916724674 95.88100663000787 l -17.132116623314072 -3.426903137572198 a38.47149349967359,38.47149349967359 0 0,0 0.13509409517482965,-0.6464741500245301 l 17.070764817314878 3.720493738882137" fill="#ffa30f" stroke="none" /><path d="M 79.64726062577567 94.8264132398404 l -29.494942170948658 -7.497498960780975 a51.432944391473484,51.432944391473484 0 0,0 0.22486120611061222,-0.8538346253513382 l 29.361891484033322 8.002714090505098" fill="#adff20" stroke="none" /><path d="M 79.94057633289273 93.78553927170692 l -16.606338079118277 -5.1446859863008525 a38.385000957596006,38.385000957596006 0 0,0 0.2003976423750616,-0.6277427605059073 l 16.51557572096596 5.428997780498151" fill="#ffa20f" stroke="none" /><path d="M 80.16572619554312 93.10060997987247 l -16.474406996417997 -5.730653934658524 a38.4426626523144,38.4426626523144 0 0,0 0.22216166678775853,-0.6214257216238775 l 16.373605159586297 6.012614612663323" fill="#ffa30f" stroke="none" /><path d="M 80.41425534168474 92.42381321644754 l -40.636333340718075 -15.719006704055674 a64.57061807158699,64.57061807158699 0 0,0 0.40876683450917306,-1.0303594492228119 l 40.36050783124277 16.41426717049207" fill="#32ff4d" stroke="none" /><path d="M 80.68587082218212 91.75594674310238 l -13.286688674888062 -5.671297319963921 a35.446442788272435,35.446442788272435 0 0,0 0.24367930198334295,-0.5575859306898128 l 13.187375490887742 5.8985453204296014" fill="#ff770b" stroke="none" /><path d="M 81.46374523516351 90.13048839642627 l -54.449705207895626 -28.991401131361986 a82.68688464160168,82.68688464160168 0 0,0 0.6778538912795605,-1.247174811679478 l 53.94400596700071 29.921830776516085" fill="#4bdfff" stroke="none" /><line stroke="#e1ed5e" stroke-width="0.3" x1="26.387840678322718" x2="22.05771365940052" y1="57.49999999999999" y2="54.99999999999999" /><path d="M 25.521815274538284 56.99999999999999 a86.0,86.0 0 0,1 29.574782752854787,-30.34633250058573" fill="none" id="id23" stroke="none" /><text fill="#e1ed5e" style="font-size:6.75px; font-family:Arial;" text-anchor="middle"><textPath startOffset="21.40746469413373" xlink:href="#id23">November</textPath></text><path d="M 81.81346652052679 89.5 l -7.590346852611706 -4.382288798597998 a29.764577597195995,29.764577597195995 0 0,0 0.25927255949568334,-0.44030148841924915 l 7.5140005829862435 4.51194145531082" fill="#ff2003" stroke="none" /><path d="M 82.18462484594161 88.88188828441811 l -14.821962438017975 -9.250000788925416 a38.47149349967359,38.47149349967359 0 0,0 0.35445492232935316,-0.5572620112994795 l 14.660989824062732 9.503076474903567" fill="#ffa30f" stroke="none" /><path d="M 82.78059297857968 87.97951657250589 l -24.961223567408197 -17.424872636366608 a51.44156481483388,51.44156481483388 0 0,0 0.5116841046576485,-0.7197477731569739 l 24.658424364220576 17.8507976362331" fill="#adff20" stroke="none" /><path d="M 83.2033758604659 87.39550010848427 l -13.951326122076857 -10.46933521470678 a38.4426626523144,38.4426626523144 0 0,0 0.4006238431759261,-0.5244294709154187 l 13.769550301546625 10.707285598863082" fill="#ffa30f" stroke="none" /><path d="M 83.42222388311158 87.10902102172516 l -13.883348237923041 -10.795775562490048 a38.58681688911038,38.58681688911038 0 0,0 0.41110315584672086,-0.5194154077317897 l 13.695978651434757 11.032510914136521" fill="#ffa50f" stroke="none" /><path d="M 84.10781606972428 86.27271002978789 l -32.96850369002643 -28.477408267017793 a64.56472216330204,64.56472216330204 0 0,0 0.7316995015930158,-0.832539716587944 l 32.47479312447482 29.039160261417035" fill="#32ff4d" stroke="none" /><path d="M 84.58840730492382 85.73525988315684 l -6.411036704562868 -5.933959862522819 a29.735746749836796,29.735746749836796 0 0,0 0.3499531589865612,-0.37163812759151965 l 6.308227711840035 6.04313945005885" fill="#ff1f03" stroke="none" /><line stroke="#e1ed5e" stroke-width="0.3" x1="56.869717070023135" x2="54.33264160355391" y1="26.7553504044142" y2="22.446841604673864" /><path d="M 56.362301976729285 25.89364864446614 a86.0,86.0 0 0,1 42.16139366436587,-11.88097634709845" fill="none" id="id24" stroke="none" /><text fill="#e1ed5e" style="font-size:6.75px; font-family:Arial;" text-anchor="middle"><textPath startOffset="22.145653131862474" xlink:href="#id24">December</textPath></text><path d="M 92.592206182469 80.34994680014964 l -22.223381452592992 -58.95015959955109 a84.0,84.0 0 0,0 1.353643393383492,-0.49707660396511244 l 21.208148907555373 59.32296705252492" fill="#4dd2ff" stroke="none" /></svg>