<?xml version="1.0" encoding="utf-8" ?>
<svg baseProfile="full" height="200mm" version="1.1" viewBox="0,0,200,200" width="200mm" xmlns="http://www.w3.org/2000/svg" xmlns:ev="http://www.w3.org/2001/xml-events" xmlns:xlink="http://www.w3.org/1999/xlink"><defs /><rect fill="#1a1a1a" height="200" width="200" x="0" y="0" /><rect fill="#1a1a1a" height="200" width="180" x="10" y="0" /><text alignment-baseline="middle" fill="#e1ed5e" style="dominant-baseline: central; font-size:9.0px; font-family:Arial;" text-anchor="middle" x="100.0" y="100.0">2026</text><line stroke="#e1ed5e" stroke-width="0.3" x1="100.0" x2="100.0" y1="15.0" y2="10.0" /><path d="M 100.0 14.0 a86.0,86.0 0 0,1 42.46469731375804,11.215312516191453" fill="none" id="id133" stroke="none" /><text fill="#e1ed5e" style="font-size:6.75px; font-family:Arial;" text-anchor="middle"><textPath startOffset="22.20632615414155" xlink:href="#id133">January</textPath></text><path d="M 103.2404852339499 79.25152402106235 l 1.3702819827958521 -8.773767121831703 a29.88012737636741,29.88012737636741 0 0,0 0.5074937500952615,0.08374081713996429 l -1.521104939029989 8.748880041752114" fill="#ff4d07" stroke="none" /><path d="M 108.76106565485865 80.91482961587045 l 3.8427768919565395 -8.371133674875951 a30.211015863844622,30.211015863844622 0 0,0 0.4707477452106409,0.2210223784145198 l -3.986302848466778 8.303746313821428" fill="#ff5207" stroke="none" /><line stroke="#e1ed5e" stroke-width="0.3" x1="143.23703022742887" x2="145.7803849466894" y1="26.81831364943548" y2="22.513508569990506" /><path d="M 143.74570117128098 25.957352633546492 a86.0,86.0 0 0,1 28.547481713284135,27.462654790039103" fill="none" id="id134" stroke="none" /><text fill="#e1ed5e" style="font-size:6.75px; font-family:Arial;" text-anchor="middle"><textPath startOffset="19.985693538727396" xlink:href="#id134">February</textPath></text><path d="M 110.68208982089419 81.91981866633111 l 4.524245046542241 -7.657599983800692 a29.89424705936744,29.89424705936744 0 0,0 0.44078061387819045,0.2655653879336589 l -4.655387726638068 7.578587986408419" fill="#ff4d07" stroke="none" /><path d="M 112.48926042617603 83.11751280151076 l 8.8014188149526 -11.89740908601383 a35.799098489981276,35.799098489981276 0 0,0 0.4922441609983123,0.3707480967722475 l -9.004909129709295 11.744144399735736" fill="#ffa10e" stroke="none" /><path d="M 115.9244219780498 86.31012108654704 l 6.739065543873671 -5.793427944362466 a29.887002405262713,29.887002405262713 0 0,0 0.33201525980156144,0.39300134460126973 l -6.837791417162349 5.67656765013209" fill="#ff4d07" stroke="none" /><path d="M 117.45458315368197 88.32363383020206 l 9.845187066607055 -6.586007135645251 a32.844965106206814,32.844965106206814 0 0,0 0.31031198041061825,0.4726264354466342 l -9.957095682375598 6.415562636220943" fill="#ff770b" stroke="none" /><line stroke="#e1ed5e" stroke-width="0.3" x1="172.23445277983987" x2="176.4835382374775" y1="55.19839476539836" y2="52.563006222186495" /><path d="M 173.08426987136738 54.67131705675599 a86.0,86.0 0 0,1 12.851231095245387,41.99856678651699" fill="none" id="id135" stroke="none" /><text fill="#e1ed5e" style="font-size:6.75px; font-family:Arial;" text-anchor="middle"><textPath startOffset="22.20632615414155" xlink:href="#id135">March</textPath></text><path d="M 118.73160827565052 90.50648371742162 l 13.192883973458525 -6.686391097501551 a35.790537970131,35.790537970131 0 0,0 0.2737805502815428,0.5519248830519611 l -13.306024536693476 6.458306625950641" fill="#ffa00e" stroke="none" /><path d="M 119.04729006885535 91.15688171328212 l 28.501664679952565 -13.232517130891589 a52.42362803922862,52.42362803922862 0 0,0 0.3729508840683844,0.821747836531628 l -28.7252178809843 12.739947285517898" fill="#8dff24" stroke="none" /><path d="M 119.47837535516314 92.15188598940014 l 13.728892640432088 -5.531565785995394 a35.801375381271335,35.801375381271335 0 0,0 0.2253891785005032,0.5735908749108718 l -13.822075368814291 5.294425906188737" fill="#ffa10e" stroke="none" /><path d="M 119.85752413597 93.16781622104841 l 44.74652594288957 -15.395498785151682 a68.3209569514533,68.3209569514533 0 0,0 0.3730412293407635,1.115345794144995 l -45.0049044660021 14.622979888084375" fill="#39ff86" stroke="none" /><path d="M 120.37134235888165 94.90015583598534 l 8.617374805950224 -2.157308430590076 a29.883306153168462,29.883306153168462 0 0,0 0.12062496102631974,0.5000683385269875 l -8.653232567237362 2.008654860403682" fill="#ff4d07" stroke="none" /><path d="M 120.6074358757038 95.95851677861258 l 61.822307627111385 -12.124449664162288 a84.0,84.0 0 0,0 0.26605710436056285,1.4212876901497489 l -62.02185045538181 11.058483896549978" fill="#4dd2ff" stroke="none" /><path d="M 120.94382443527127 98.46500227214037 l 31.367437904959328 -2.2989567192801514 a52.45157170506114,52.45157170506114 0 0,0 0.05824474538340703,0.9010204313467989 l -31.40236324134715 1.7586772236803174" fill="#8dff24" stroke="none" /><line stroke="#e1ed5e" stroke-width="0.3" x1="184.98032266829074" x2="189.97916517819016" y1="98.17113171792111" y2="98.06355123074" /><path d="M 185.9800911702706 98.14961562048488 a86.0,86.0 0 0,1 -9.607161424134198,41.387399972396054" fill="none" id="id136" stroke="none" /><text fill="#e1ed5e" style="font-size:6.75px; font-family:Arial;" text-anchor="middle"><textPath startOffset="21.466115282336823" xlink:href="#id136">April</textPath></text><path d="M 120.99513854157772 99.54816195383933 l 8.892616724767464 -0.19137871170592732 a29.894675824610374,29.894675824610374 0 0,0 0.006643725680555124,0.5145638756015756 l -8.894593457565735 0.03827857804388899" fill="#ff4d07" stroke="none" /><path d="M 120.99824983174949 100.27111621757518 l 14.79653457334875 0.19104356405366857 a35.79776783922735,35.79776783922735 0 0,0 -0.013258704489055544,0.6160798985275171 l -14.791053806174688 -0.4457132783713005" fill="#ffa10e" stroke="none" /><path d="M 120.70491114924044 103.5080841355445 l 10.241423078294593 1.7352295582143848 a31.38738505536047,31.38738505536047 0 0,0 -0.09484005940154296,0.5319134192723427 l -10.210036576553861 -1.9112617282199458" fill="#ff6309" stroke="none" /><path d="M 120.13307415673323 105.97154293290107 l 14.598274573785535 4.329901270168634 a36.22687313735296,36.22687313735296 0 0,0 -0.18246825208327166,0.5963168053505407 l -14.521579549196131 -4.580545048071231" fill="#ffa60f" stroke="none" /><path d="M 119.26925614724726 108.34839909993367 l 11.205031978548599 4.854576542530754 a33.21145589385584,33.21145589385584 0 0,0 -0.2317826166808898,0.5226086117916379 l -11.119808277136437 -5.04673349081508" fill="#ff7d0b" stroke="none" /><line stroke="#e1ed5e" stroke-width="0.3" x1="174.80103733775053" x2="179.2010983576182" y1="140.37084112569926" y2="142.7455964860345" /><path d="M 175.68104954172406 140.8457921977663 a86.0,86.0 0 0,1 -30.038265399797805,32.042727171017184" fill="none" id="id137" stroke="none" /><text fill="#e1ed5e" style="font-size:6.75px; font-family:Arial;" text-anchor="middle"><textPath startOffset="22.206326154141568" xlink:href="#id137">May</textPath></text><path d="M 115.07121518719521 114.62390073753431 l 6.393806638219004 6.204038125057371 a29.90903206774444,29.90903206774444 0 0,0 -0.3616990042437295,0.3663991816792569 l -6.286067008919739 -6.313177800717293" fill="#ff4d07" stroke="none" /><path d="M 111.45004920935366 117.60387380957326 l 8.069010520992517 12.405697161863067 a35.79899499492264,35.79899499492264 0 0,0 -0.5194573925420849,0.3315422851962446 l -7.854271326403502 -12.54275387588312" fill="#ffa10e" stroke="none" /><path d="M 111.1453310114006 117.79835938074945 l 1.977986415183073 3.158713997068135 a24.726916201623393,24.726916201623393 0 0,0 -0.362685929125276,0.22279132024358947 l -1.9233212861254882 -3.1922937841401025" fill="#ff0000" stroke="none" /><line stroke="#e1ed5e" stroke-width="0.3" x1="143.8653032363475" x2="146.44561519142675" y1="172.8068346515853" y2="177.08958963109032" /><path d="M 144.38136562736335 173.6633856474863 a86.0,86.0 0 0,1 -40.68145358897372,12.25698825130547" fill="none" id="id138" stroke="none" /><text fill="#e1ed5e" style="font-size:6.75px; font-family:Arial;" text-anchor="middle"><textPath startOffset="21.466115282336833" xlink:href="#id138">June</textPath></text><path d="M 109.89434966115114 118.52300852407294 l 4.373183508914625 8.186946912844036 a30.28174734392018,30.28174734392018 0 0,0 -0.4618818648405601,0.24163476179952303 l -4.231610741547569 -8.261011093588275" fill="#ff5307" stroke="none" /><path d="M 108.59647513512805 119.15986991738527 l 4.845242225064795 10.799101875036255 a32.836256736272766,32.836256736272766 0 0,0 -0.517685987000475,0.22693832331223449 l -4.658635563406566 -10.880904751642944" fill="#ff770b" stroke="none" /><path d="M 107.93186726928326 119.44442032107085 l 5.220601933191943 12.79794213288089 a34.821794651253335,34.821794651253335 0 0,0 -0.5569479484644794,0.22162108278970855 l -4.999532908685596 -12.885910060076666" fill="#ff930d" stroke="none" /><path d="M 103.06178313531738 120.77559828337769 l 1.4628900334280852 9.926377644675496 a31.03359458990728,31.03359458990728 0 0,0 -0.5291544254926123,0.07333598170716984 l -1.2918070167486426 -9.950088191875269" fill="#ff5e08" stroke="none" /><path d="M 101.98527174616119 120.90594882070398 l 0.8416774359531232 8.863303189400582 a29.903177204427145,29.903177204427145 0 0,0 -0.5128475803693351,0.044250647184342906 l -0.6889855378422465 -8.876478088863589" fill="#ff4d07" stroke="none" /><line stroke="#e1ed5e" stroke-width="0.3" x1="102.19456741930631" x2="102.32365962044197" y1="184.97166512339345" y2="189.96999836594603" /><path d="M 102.22038585953345 185.97133177190398 a86.0,86.0 0 0,1 -42.740103519485714,-10.115201625700543" fill="none" id="id139" stroke="none" /><text fill="#e1ed5e" style="font-size:6.75px; font-family:Arial;" text-anchor="middle"><textPath startOffset="22.20632615414155" xlink:href="#id139">July</textPath></text><path d="M 100.54218724476979 120.99299961872073 l 0.22973330788652246 8.895065849284062 a29.898032021511952,29.898032021511952 0 0,0 -0.5145882840692487,0.008859103979155722 l -0.07658533392460577 -8.897702430542378" fill="#ff4d07" stroke="none" /><path d="M 99.09653310690486 120.98055641714683 l -0.4065715832103721 9.44151701002693 a30.450266869401204,30.450266869401204 0 0,0 -0.5234718885641558,-0.027057517329788002 l 0.5690315401880168 -9.43311968593494" fill="#ff5507" stroke="none" /><path d="M 96.58105272829116 120.7198165907248 l -0.9657369650213015 5.852647379414924 a26.93178971587673,26.93178971587673 0 0,0 -0.45675164797180784,-0.07941212867525876 l 1.0663375844651592 -5.835156672218659" fill="#ff2103" stroke="none" /><path d="M 96.22490169976321 120.6578951692458 l -2.128762813029857 11.648904355418026 a32.841815899422514,32.841815899422514 0 0,0 -0.5552337257413908,-0.10641186500573961 l 2.328964153342943 -11.610535292063817" fill="#ff770b" stroke="none" /><path d="M 95.51606077576429 120.51570834832081 l -1.2641556060355033 5.783987343124561 a26.920523539493455,26.920523539493455 0 0,0 -0.4518543864507894,-0.10284058724461614 l 1.3635301418791552 -5.761370022302258" fill="#ff2103" stroke="none" /><path d="M 94.81253420990036 120.34920634021253 l -2.2867128607054394 8.970235896711111 a30.257115519964103,30.257115519964103 0 0,0 -0.503578621294489,-0.13299969083874025 l 2.440781924811418 -8.929544856568791" fill="#ff5207" stroke="none" /><line stroke="#e1ed5e" stroke-width="0.3" x1="58.666819895761336" x2="56.23545636021788" y1="174.27360380694188" y2="178.64263932499728" /><path d="M 58.180547188652646 175.14741091055294 a86.0,86.0 0 0,1 -31.652253787137756,-30.449443065178592" fill="none" id="id140" stroke="none" /><text fill="#e1ed5e" style="font-size:6.75px; font-family:Arial;" text-anchor="middle"><textPath startOffset="22.20632615414155" xlink:href="#id140">August</textPath></text><line stroke="#e1ed5e" stroke-width="0.3" x1="26.63291911575756" x2="22.317208475507996" y1="142.92168965132927" y2="145.44649492493687" /><path d="M 25.769776987707644 143.4266507060508 a86.0,86.0 0 0,1 -11.730757126820373,-40.83630448921669" fill="none" id="id141" stroke="none" /><text fill="#e1ed5e" style="font-size:6.75px; font-family:Arial;" text-anchor="middle"><textPath startOffset="21.46611528233685" xlink:href="#id141">September</textPath></text><line stroke="#e1ed5e" stroke-width="0.3" x1="15.007084014347285" x2="10.007500721073583" y1="101.09737516637583" y2="101.16192664675087" /><path d="M 14.007167355692545 101.11028546245083 a86.0,86.0 0 0,1 10.666146001902534,-42.60595125391555" fill="none" id="id142" stroke="none" /><text fill="#e1ed5e" style="font-size:6.75px; font-family:Arial;" text-anchor="middle"><textPath startOffset="22.20632615414155" xlink:href="#id142">October</textPath></text><line stroke="#e1ed5e" stroke-width="0.3" x1="26.266209847984243" x2="21.928928074336255" y1="57.711370442889674" y2="55.22380399835377" /><path d="M 25.398753493254645 57.213857153982495 a86.0,86.0 0 0,1 29.58750427330803,-30.492523968695096" fill="none" id="id143" stroke="none" /><text fill="#e1ed5e" style="font-size:6.75px; font-family:Arial;" text-anchor="middle"><textPath startOffset="21.46611528233685" xlink:href="#id143">November</textPath></text><line stroke="#e1ed5e" stroke-width="0.3" x1="56.762969772571076" x2="54.21961505331055" y1="26.818313649435495" y2="22.513508569990535" /><path d="M 56.25429882871897 25.957352633546506 a86.0,86.0 0 0,1 42.265352541879196,-11.944610805530505" fill="none" id="id144" stroke="none" /><text fill="#e1ed5e" style="font-size:6.75px; font-family:Arial;" text-anchor="middle"><textPath startOffset="22.20632615414155" xlink:href="#id144">December</textPath></text></svg>