<?xml version="1.0" encoding="utf-8" ?>
<svg baseProfile="full" height="200mm" version="1.1" viewBox="0,0,200,200" width="200mm" xmlns="http://www.w3.org/2000/svg" xmlns:ev="http://www.w3.org/2001/xml-events" xmlns:xlink="http://www.w3.org/1999/xlink"><defs /><rect fill="#1a1a1a" height="200" width="200" x="0" y="0" /><text alignment-baseline="middle" fill="#e1ed5e" style="dominant-baseline: central; font-size:9.0px; font-family:Arial;" text-anchor="middle" x="100.0" y="100.0">2020</text><line stroke="#e1ed5e" stroke-width="0.3" x1="100.0" x2="100.0" y1="15.0" y2="10.0" /><path d="M 100.0 14.0 a86.0,86.0 0 0,1 42.35913384403234,11.155469271406648" fill="none" id="id49" stroke="none" /><text fill="#e1ed5e" style="font-size:6.75px; font-family:Arial;" text-anchor="middle"><textPath startOffset="22.145653131862478" xlink:href="#id49">January</textPath></text><line stroke="#e1ed5e" stroke-width="0.3" x1="143.13028292997686" x2="145.6673583964461" y1="26.7553504044142" y2="22.446841604673864" /><path d="M 143.63769802327073 25.89364864446614 a86.0,86.0 0 0,1 29.32050498858742,28.57503671076993" fill="none" id="id50" stroke="none" /><text fill="#e1ed5e" style="font-size:6.75px; font-family:Arial;" text-anchor="middle"><textPath startOffset="20.669276256404974" xlink:href="#id50">February</textPath></text><line stroke="#e1ed5e" stroke-width="0.3" x1="172.87174338648825" x2="177.1583165268699" y1="56.24261187166439" y2="53.66864786411523" /><path d="M 173.72905801456457 55.72781907015455 a86.0,86.0 0 0,1 12.242430191666344,42.057860355516425" fill="none" id="id51" stroke="none" /><text fill="#e1ed5e" style="font-size:6.75px; font-family:Arial;" text-anchor="middle"><textPath startOffset="22.145653131862474" xlink:href="#id51">March</textPath></text><line stroke="#e1ed5e" stroke-width="0.3" x1="184.99686870605535" x2="189.99668451229388" y1="99.2704041080226" y2="99.22748670261217" /><path d="M 185.99683186730306 99.26182062694052 a86.0,86.0 0 0,1 -10.086455211305974,41.156179273409016" fill="none" id="id52" stroke="none" /><text fill="#e1ed5e" style="font-size:6.75px; font-family:Arial;" text-anchor="middle"><textPath startOffset="21.40746469413373" xlink:href="#id52">April</textPath></text><path d="M 120.16314734710363 105.8691983318838 l 23.171614493796564 6.744919272416117 a45.1333307738599,45.1333307738599 0 0,0 -0.22292357896943704,0.7420400924245437 l -23.0524145948235 -7.141696968431384" fill="#edff1a" stroke="none" /><path d="M 119.4528033332814 107.91128576633889 l 27.633395513385224 11.23826138861088 a50.831243129275066,50.831243129275066 0 0,0 -0.3356657005767996,0.8054754865766263 l -27.43640396827194 -11.710969384628784" fill="#a7ff21" stroke="none" /><path d="M 119.16976305983485 108.57439118712176 l 27.229882040947192 12.17957988679878 a50.82966044363918,50.82966044363918 0 0,0 -0.36310660536611045,0.7934534630338632 l -27.016790970726024 -12.645222332047334" fill="#a7ff21" stroke="none" /><line stroke="#e1ed5e" stroke-width="0.3" x1="174.33088141563837" x2="178.70328620479359" y1="141.23008692659167" y2="143.65538615756765" /><path d="M 175.20536237346943 141.71514677278685 a86.0,86.0 0 0,1 -30.301960400862466,31.631185727798858" fill="none" id="id53" stroke="none" /><text fill="#e1ed5e" style="font-size:6.75px; font-family:Arial;" text-anchor="middle"><textPath startOffset="22.145653131862474" xlink:href="#id53">May</textPath></text><path d="M 118.00360718960297 110.81064883170644 l 23.955240633641075 14.384433710532962 a48.942181142286756,48.942181142286756 0 0,0 -0.4386898276383307,0.7165668646267527 l -23.704782841547342 -14.793537691284271" fill="#beff1f" stroke="none" /><path d="M 117.81537515405839 111.11811171558189 l 20.275620496954218 12.653486768507722 a44.900031672307676,44.900031672307676 0 0,0 -0.4136838940013687,0.650379792438596 l -20.05541891132696 -12.999680235624991" fill="#f0ff19" stroke="none" /><path d="M 116.57777611688842 112.89097897827486 l 23.563138309749252 18.322838870028942 a50.84875058124571,50.84875058124571 0 0,0 -0.5417415459504319,0.6844727460083256 l -23.245130333157256 -18.72463155995195" fill="#a7ff21" stroke="none" /><path d="M 116.35404254752997 113.17365903436017 l 23.262862656198294 18.73891546418852 a50.871520412177695,50.871520412177695 0 0,0 -0.5536594190652522,0.6753744674973184 l -22.937756417894413 -19.13549221338433" fill="#a7ff21" stroke="none" /><path d="M 115.89218393027572 113.72728997021213 l 22.566820142566915 19.492681758640156 a50.81989291547819,50.81989291547819 0 0,0 -0.5759320116520605,0.6553049068788733 l -22.22887706695627 -19.87719894333032" fill="#a7ff21" stroke="none" /><path d="M 115.41159269507618 114.26474011684316 l 21.87910710046862 20.250974896090703 a50.81270386522954,50.81270386522954 0 0,0 -0.5980030158275464,0.6350584796543215 l -21.528248250904813 -20.623574835689524" fill="#a7ff21" stroke="none" /><path d="M 115.16444852881244 114.52719865689866 l 21.557807851235985 20.651892264141573 a50.85363852934048,50.85363852934048 0 0,0 -0.6093069839756153,0.6252026425745483 l -21.200114066109563 -21.018917598783858" fill="#a7ff21" stroke="none" /><path d="M 114.65682725009322 115.03919595460226 l 20.851761591242475 21.395744332549885 a50.87597424355992,50.87597424355992 0 0,0 -0.6306864716193505,0.6041833731061705 l -20.481402633757813 -21.750539835961636" fill="#a6ff21" stroke="none" /><path d="M 114.13192950727249 115.5334660781643 l 8.665064800215063 9.524424111369214 a33.8762573228853,33.8762573228853 0 0,0 -0.43351119538047284,0.38764838407190405 l -8.500288578011212 -9.671768025324505" fill="#ff780b" stroke="none" /><path d="M 113.59037401385872 116.0094264158162 l 19.30387038871642 22.739910779016274 a50.82855937221882,50.82855937221882 0 0,0 -0.6700309424669584,0.5589636426821931 l -18.910665112087568 -23.067936605610335" fill="#a7ff21" stroke="none" /><path d="M 113.31354834802062 116.24036423190432 l 18.918670781979536 23.07770222117482 a50.841187040165536,50.841187040165536 0 0,0 -0.679696385511952,0.5475152949858159 l -18.51972362611233 -23.399065809954042" fill="#a7ff21" stroke="none" /><path d="M 113.03279911837588 116.46651593811092 l 18.523242465250284 23.40351174825344 a50.84685701337895,50.84685701337895 0 0,0 -0.6890718977410488,0.5358264754975552 l -18.118760622874007 -23.718039275371787" fill="#a7ff21" stroke="none" /><path d="M 112.45986205192187 116.90419585922612 l 17.70256040122277 24.016923059424453 a50.83610628083454,50.83610628083454 0 0,0 -0.7069099234595662,0.5117482692459379 l -17.287669467389232 -24.317272100043468" fill="#a7ff21" stroke="none" /><path d="M 111.27062007382361 117.71928675628689 l 33.81186022147083 53.157860268860695 a84.0,84.0 0 0,0 -1.2233434848411404,0.7634568126338093 l -32.89435260783998 -53.73045287833605" fill="#4dd2ff" stroke="none" /><line stroke="#e1ed5e" stroke-width="0.3" x1="143.1302829299769" x2="145.66735839644613" y1="173.24464959558577" y2="177.55315839532614" /><path d="M 143.63769802327073 174.10635135553383 a86.0,86.0 0 0,1 -40.68552437913181,11.842963189579606" fill="none" id="id54" stroke="none" /><text fill="#e1ed5e" style="font-size:6.75px; font-family:Arial;" text-anchor="middle"><textPath startOffset="21.407464694133747" xlink:href="#id54">June</textPath></text><path d="M 110.02825361518725 118.45085714620011 l 14.265958352188639 26.247756559650778 a50.87410738618095,50.87410738618095 0 0,0 -0.7708909503408893,0.41045601045106966 l -13.813278586061196 -26.48878303782442" fill="#a6ff21" stroke="none" /><path d="M 109.06512990194946 118.94263497670748 l 5.583037886282058 11.66640190321226 a33.93349316336988,33.93349316336988 0 0,0 -0.5276032616954452,0.2469449667238915 l -5.381945910715107 -11.760523101506683" fill="#ff790b" stroke="none" /><path d="M 108.73861861582097 119.09545874513695 l 12.416481323328714 27.132252509581825 a50.83836682354247,50.83836682354247 0 0,0 -0.7966773877303325,0.3563436622045029 l -11.948890532742753 -27.34139992269618" fill="#a7ff21" stroke="none" /><path d="M 106.38641147887787 120.00534299687104 l 7.268014590290719 22.766952186829062 a44.89891520471252,44.89891520471252 0 0,0 -0.7362553345069242,0.2280937846580414 l -6.876118622912172 -22.88836255929375" fill="#f0ff19" stroke="none" /><path d="M 105.69591212413111 120.21278271476187 l 3.262038033183265 11.575822192320185 a33.02666003336532,33.02666003336532 0 0,0 -0.5470136487910104,0.14909100243964024 l -3.0628429834575592 -11.630113688903968" fill="#ff6c09" stroke="none" /><path d="M 104.9986988182912 120.39639698878246 l 7.108267913304445 29.004158788655324 a50.86249654273476,50.86249654273476 0 0,0 -0.8498102198743899,0.20055289797709425 l -6.609325539690176 -29.121907830278644" fill="#a7ff21" stroke="none" /><path d="M 104.64783097203109 120.47920084513623 l 6.612002783979233 29.133704262600954 a50.874592965863854,50.874592965863854 0 0,0 -0.8533306515133806,0.18597944381094936 l -6.1109097158467165 -29.24291516454562" fill="#a6ff21" stroke="none" /><line stroke="#e1ed5e" stroke-width="0.3" x1="101.45913802915013" x2="101.54496967792366" y1="184.9874750549273" y2="189.98673829345242" /><path d="M 101.47630435890484 185.9873277026323 a86.0,86.0 0 0,1 -42.54439059252881,-10.42667462771756" fill="none" id="id55" stroke="none" /><text fill="#e1ed5e" style="font-size:6.75px; font-family:Arial;" text-anchor="middle"><textPath startOffset="22.145653131862474" xlink:href="#id55">July</textPath></text><path d="M 98.55909050195518 120.95050786540614 l -0.8885058525362117 12.918680095646272 a33.949198356023366,33.949198356023366 0 0,0 -0.5810664043657324,-0.04497821461868684 l 1.1101412516771803 -12.901524114032531" fill="#ff790b" stroke="none" /><path d="M 97.48249496171623 120.84855314841334 l -3.581895417353488 29.663232384893778 a50.878710318570796,50.878710318570796 0 0,0 -0.8662032063087031,-0.11214734704900149 l 4.090576445552985 -29.59737344164438" fill="#a6ff21" stroke="none" /><path d="M 95.70440661134978 120.55596938700252 l -2.650226907835863 12.682295146934926 a33.9562460943356,33.9562460943356 0 0,0 -0.5695555269026027,-0.12413197618641672 l 2.8675448513576023 -12.63493171261479" fill="#ff790b" stroke="none" /><path d="M 95.35216902796893 120.47920084513623 l -5.289351555683595 23.305858905200715 a44.89854177954663,44.89854177954663 0 0,0 -0.7501645073528185,-0.1770367811432111 l 5.6886482167763015 -23.211625980411277" fill="#f0ff19" stroke="none" /><path d="M 90.6110303473126 118.78422872680471 l -5.568504276648846 11.140738746431301 a33.454890593469386,33.454890593469386 0 0,0 -0.5114978414339694,-0.26117444240259685 l 5.758929339796397 -11.04350635235587" fill="#ff720a" stroke="none" /><line stroke="#e1ed5e" stroke-width="0.3" x1="58.13341422392154" x2="55.67067388415222" y1="173.97424548756322" y2="178.32567169271397" /><path d="M 57.64086615596768 174.84453072859336 a86.0,86.0 0 0,1 -31.369924170532247,-30.572349798747897" fill="none" id="id56" stroke="none" /><text fill="#e1ed5e" style="font-size:6.75px; font-family:Arial;" text-anchor="middle"><textPath startOffset="22.145653131862474" xlink:href="#id56">August</textPath></text><path d="M 89.65649057296885 118.27599006163327 l -12.725735973702346 22.485156109062306 a46.836536171114034,46.836536171114034 0 0,0 -0.6963199700928874,-0.40202052217524376 l 13.109848411655632 -22.26338868961089" fill="#d8ff1c" stroke="none" /><line stroke="#e1ed5e" stroke-width="0.3" x1="26.387840678322732" x2="22.057713659400548" y1="142.50000000000003" y2="145.00000000000006" /><path d="M 25.521815274538298 143.00000000000003 a86.0,86.0 0 0,1 -11.493303480769221,-40.785679425670985" fill="none" id="id57" stroke="none" /><text fill="#e1ed5e" style="font-size:6.75px; font-family:Arial;" text-anchor="middle"><textPath startOffset="21.40746469413373" xlink:href="#id57">September</textPath></text><path d="M 79.94057633289273 106.21446072829308 l -11.968411514481957 3.7078444810336206 a33.52960433834667,33.52960433834667 0 0,0 -0.1656101881331229,-0.5512624545005927 l 12.030298022618709 -3.5018444229423045" fill="#ff730a" stroke="none" /><line stroke="#e1ed5e" stroke-width="0.3" x1="15.003131293944662" x2="10.003315487706104" y1="100.72959589197737" y2="100.7725132973878" /><path d="M 14.003168132696942 100.73817937305945 a86.0,86.0 0 0,1 10.791469493833604,-42.45332614584628" fill="none" id="id58" stroke="none" /><text fill="#e1ed5e" style="font-size:6.75px; font-family:Arial;" text-anchor="middle"><textPath startOffset="22.145653131862435" xlink:href="#id58">October</textPath></text><path d="M 80.16572619554312 93.10060997987247 l -24.451241331752314 -8.505410991458323 a46.88832205449424,46.88832205449424 0 0,0 0.2709694662599165,-0.7579498234025852 l 24.301631695448457 8.92389577124183" fill="#d7ff1c" stroke="none" /><path d="M 80.83023694016515 91.42560881287825 l -12.344707760761342 -5.521630763044877 a34.52332118904246,34.52332118904246 0 0,0 0.24662069062644326,-0.5389107169671339 l 12.248102605279852 5.732730462226682" fill="#ff810b" stroke="none" /><path d="M 81.1358732173502 90.77261029715801 l -11.506083891285147 -5.628202208444177 a33.80884954289133,33.80884954289133 0 0,0 0.2594911096921102,-0.5191560455873586 l 11.407772868381294 5.824890110195306" fill="#ff770b" stroke="none" /><path d="M 81.29705330413844 90.45014215332179 l -26.653636730061056 -13.609536829049862 a50.92717567094036,50.92717567094036 0 0,0 0.40424520258292895,-0.7751934776806608 l 26.416083458503188 14.065076549835009" fill="#a6ff21" stroke="none" /><line stroke="#e1ed5e" stroke-width="0.3" x1="26.387840678322718" x2="22.05771365940052" y1="57.49999999999999" y2="54.99999999999999" /><path d="M 25.521815274538284 56.99999999999999 a86.0,86.0 0 0,1 29.574782752854787,-30.34633250058573" fill="none" id="id59" stroke="none" /><text fill="#e1ed5e" style="font-size:6.75px; font-family:Arial;" text-anchor="middle"><textPath startOffset="21.40746469413373" xlink:href="#id59">November</textPath></text><path d="M 82.18462484594161 88.88188828441811 l -25.353284450414975 -15.822324617869512 a50.885364122541546,50.885364122541546 0 0,0 0.46882941489935526,-0.7370777107177933 l 25.07793734388973 16.25521600326598" fill="#a6ff21" stroke="none" /><path d="M 82.576782715395 88.27688183743585 l -24.92792406529182 -16.77261980903246 a51.04533530289358,51.04533530289358 0 0,0 0.4954077724968246,-0.7228147455135171 l 24.636326555979682 17.19806928961601" fill="#a4ff21" stroke="none" /><path d="M 83.42222388311158 87.10902102172516 l -23.60072891865869 -18.35206955488168 a50.896368716605494,50.896368716605494 0 0,0 0.5422488685880622,-0.6851137315880486 l 23.282213619429065 18.75450323038441" fill="#a6ff21" stroke="none" /><path d="M 84.10781606972428 86.27271002978789 l -22.64416556157045 -19.559490889417095 a50.92209748384968,50.92209748384968 0 0,0 0.5770902762465818,-0.6566227993677418 l 22.305064221365274 19.945325966596137" fill="#a6ff21" stroke="none" /><path d="M 85.34317274990677 84.96080404539775 l -20.8784877766322 -21.423167753208126 a50.91426697114734,50.91426697114734 0 0,0 0.6311611692661536,-0.6046381227137139 l 20.507654121500746 21.778418006227408" fill="#a6ff21" stroke="none" /><line stroke="#e1ed5e" stroke-width="0.3" x1="56.869717070023135" x2="54.33264160355391" y1="26.7553504044142" y2="22.446841604673864" /><path d="M 56.362301976729285 25.89364864446614 a86.0,86.0 0 0,1 42.16139366436587,-11.88097634709845" fill="none" id="id60" stroke="none" /><text fill="#e1ed5e" style="font-size:6.75px; font-family:Arial;" text-anchor="middle"><textPath startOffset="22.145653131862474" xlink:href="#id60">December</textPath></text><path d="M 91.26138138417902 80.90454125486306 l -5.404080694584503 -11.808891598953773 a33.986685833938616,33.986685833938616 0 0,0 0.5325982280621907,-0.23822441303625 l 5.200569063666693 11.899919762899868" fill="#ff7a0b" stroke="none" /><path d="M 91.5904679813234 80.7573450057729 l -1.9530683220891856 -4.46900253410659 a25.87713640578151,25.87713640578151 0 0,0 0.40856908510416406,-0.17439384741141056 l 1.8760641618145903 4.501871031177404" fill="#ff0000" stroke="none" /><path d="M 92.592206182469 80.34994680014964 l -4.583389202689314 -12.157984399528395 a33.9932305929859,33.9932305929859 0 0,0 0.5477941906185353,-0.20115761453529046 l 4.374005860416651 12.234872863072408" fill="#ff7a0b" stroke="none" /></svg>