<?xml version="1.0" encoding="utf-8" ?>
<svg baseProfile="full" height="200mm" version="1.1" viewBox="0,0,200,200" width="200mm" xmlns="http://www.w3.org/2000/svg" xmlns:ev="http://www.w3.org/2001/xml-events" xmlns:xlink="http://www.w3.org/1999/xlink"><defs /><rect fill="#1a1a1a" height="200" width="200" x="0" y="0" /><text alignment-baseline="middle" fill="#e1ed5e" style="dominant-baseline: central; font-size:9.0px; font-family:Arial;" text-anchor="middle" x="100.0" y="100.0">2024</text><line stroke="#e1ed5e" stroke-width="0.3" x1="100.0" x2="100.0" y1="15.0" y2="10.0" /><path d="M 100.0 14.0 a86.0,86.0 0 0,1 42.35913384403234,11.155469271406648" fill="none" id="id109" stroke="none" /><text fill="#e1ed5e" style="font-size:6.75px; font-family:Arial;" text-anchor="middle"><textPath startOffset="22.145653131862478" xlink:href="#id109">January</textPath></text><path d="M 104.9986988182912 79.60360301121754 l 2.209392612308304 -9.015075815295527 a30.2818644501441,30.2818644501441 0 0,0 0.5038249119117357,0.12807032241597133 l -2.3638228174454343 8.975820261044287" fill="#ff2103" stroke="none" /><path d="M 107.06938296918511 80.22567764915836 l 3.9930581826186784 -11.169294408429726 a32.861604074995824,32.861604074995824 0 0,0 0.5295582530012195,0.19446112564815504 l -4.184205587274023 11.099102433772849" fill="#ff4906" stroke="none" /><path d="M 109.06512990194946 81.05736502329252 l 5.12435133453816 -10.707923424427218 a32.87091406182271,32.87091406182271 0 0,0 0.5069004103004133,0.2479503917814217 l -5.30741199410064 10.618379282548576" fill="#ff4906" stroke="none" /><line stroke="#e1ed5e" stroke-width="0.3" x1="143.13028292997686" x2="145.6673583964461" y1="26.7553504044142" y2="22.446841604673864" /><path d="M 143.63769802327073 25.89364864446614 a86.0,86.0 0 0,1 29.32050498858742,28.57503671076993" fill="none" id="id110" stroke="none" /><text fill="#e1ed5e" style="font-size:6.75px; font-family:Arial;" text-anchor="middle"><textPath startOffset="20.669276256404974" xlink:href="#id110">February</textPath></text><path d="M 114.39649973595853 84.71141617570332 l 6.09495545415435 -6.472631478153453 a29.890637785902022,29.890637785902022 0 0,0 0.37054073479544025,0.35496964196350644 l -6.205168674815103 6.367049705884366" fill="#ff1a02" stroke="none" /><line stroke="#e1ed5e" stroke-width="0.3" x1="172.87174338648825" x2="177.1583165268699" y1="56.24261187166439" y2="53.66864786411523" /><path d="M 173.72905801456457 55.72781907015455 a86.0,86.0 0 0,1 12.242430191666344,42.057860355516425" fill="none" id="id111" stroke="none" /><text fill="#e1ed5e" style="font-size:6.75px; font-family:Arial;" text-anchor="middle"><textPath startOffset="22.145653131862474" xlink:href="#id111">March</textPath></text><path d="M 118.36410011445183 89.81374322990088 l 7.775858353831552 -4.313137551331236 a29.89196989848456,29.89196989848456 0 0,0 0.2450496012943977,0.4508636658698875 l -7.848753304741291 4.179019051986745" fill="#ff1a02" stroke="none" /><path d="M 118.8641267826498 90.77261029715802 l 13.312594371997692 -6.51185700995529 a35.81990049330455,35.81990049330455 0 0,0 0.26544378545572234,0.5546754198902224 l -13.422417415413326 6.282369087999964" fill="#ff760a" stroke="none" /><path d="M 119.4528033332814 92.08871423366111 l 17.84122765794103 -7.255871968992511 a40.26024616594739,40.26024616594739 0 0,0 0.2548690700710026,0.6424365493781157 l -17.96315540297816 6.94853440240083" fill="#ffb811" stroke="none" /><path d="M 119.94978838288452 93.4421083053983 l 16.89128737612352 -5.5525016641301566 a38.78049110550543,38.78049110550543 0 0,0 0.20246238879283993,0.6342105492517286 l -16.984114480693613 5.261722081187041" fill="#ffa20f" stroke="none" /><path d="M 120.16314734710363 94.1308016681162 l 29.99966641370987 -8.732465673207948 a52.24477462981014,52.24477462981014 0 0,0 0.2432653735488788,0.863262991143667 l -30.145150279333333 8.216194758161269" fill="#a6ff21" stroke="none" /><path d="M 120.43855184770803 95.1765574152323 l 17.3022518393744 -4.083284322503142 a38.77754565657292,38.77754565657292 0 0,0 0.14733461708791468,0.6491835079506132 l -17.36979731801998 3.7856664806135027" fill="#ffa20f" stroke="none" /><path d="M 120.592083275326 95.88100663000786 l 17.432441543806263 -3.4869765327605853 a38.777767675336676,38.777767675336676 0 0,0 0.12496358645767419,0.6538622889319413 l -17.489731422546097 3.1872116787953293" fill="#ffa20f" stroke="none" /><path d="M 120.77682067341334 96.94652285012252 l 46.87305594298682 -6.88872506128849 a68.37655439565435,68.37655439565435 0 0,0 0.16070275707077752,1.1627650961752856 l -46.984403216612804 6.083071656913119" fill="#37ff7c" stroke="none" /><path d="M 120.99303781780057 99.45929381324524 l 62.9480559277201 -1.6213186285713548 a83.9689321743249,83.9689321743249 0 0,0 0.02474511811179917,1.4412790745247477 l -62.966612477430566 0.5404926380775407" fill="#4dd2ff" stroke="none" /><line stroke="#e1ed5e" stroke-width="0.3" x1="184.99686870605535" x2="189.99668451229388" y1="99.2704041080226" y2="99.22748670261217" /><path d="M 185.99683186730306 99.26182062694052 a86.0,86.0 0 0,1 -10.086455211305974,41.156179273409016" fill="none" id="id112" stroke="none" /><text fill="#e1ed5e" style="font-size:6.75px; font-family:Arial;" text-anchor="middle"><textPath startOffset="21.40746469413373" xlink:href="#id112">April</textPath></text><path d="M 120.93736805541906 101.62068470465957 l 12.085184860790632 0.935469740276042 a33.121336426089954,33.121336426089954 0 0,0 -0.04874573906379988,0.5664993774781656 l -12.06734549902909 -1.1427901651298649" fill="#ff4d07" stroke="none" /><path d="M 120.7213421655516 103.40968896794604 l 11.690785606196224 1.9237143226339097 a32.848001725402966,32.848001725402966 0 0,0 -0.09633096101306399,0.5556113841666515 l -11.656039827690925 -2.124118739721149" fill="#ff4906" stroke="none" /><path d="M 120.592083275326 104.11899336999214 l 14.532421637244846 2.9068913316539655 a35.820300127079314,35.820300127079314 0 0,0 -0.12578433001567318,0.6019235535650219 l -14.48037959640481 -3.1559313365043966" fill="#ff760a" stroke="none" /><path d="M 120.43855184770803 104.8234425847677 l 17.291231608768445 4.0806835780866715 a38.7662226996213,38.7662226996213 0 0,0 -0.1584107360702201,0.6463698609627463 l -17.218633346181928 -4.3769092636575175" fill="#ffa20f" stroke="none" /><path d="M 119.83427380445688 106.89939002012753 l 16.82901853091968 5.854006234131842 a38.81811588533682,38.81811588533682 0 0,0 -0.22433142585995156,0.6274949239155385 l -16.726046935015784 -6.1420361144283016" fill="#ffa30f" stroke="none" /><path d="M 119.4528033332814 107.91128576633889 l 13.725780470478668 5.582155425496346 a35.81747308815413,35.81747308815413 0 0,0 -0.23652180149223484,0.5675662208428388 l -13.627932824449948 -5.816954155780462" fill="#ff760a" stroke="none" /><path d="M 119.31412917781788 108.2440532568976 l 16.35675656382236 6.981726744228808 a38.784487443253056,38.784487443253056 0 0,0 -0.26662694714972307,0.6100946336575693 l -16.23449573465567 -7.261483447662221" fill="#ffa20f" stroke="none" /><path d="M 119.0197475246899 108.90220220490707 l 10.744971833718004 5.029189363613719 a32.86369105137514,32.86369105137514 0 0,0 -0.24353676131386667,0.5088981650429586 l -10.657055814444226 -5.212900030721781" fill="#ff4906" stroke="none" /><path d="M 118.8641267826498 109.22738970284198 l 15.972002019460119 7.812706554945833 a38.78041709925084,38.78041709925084 0 0,0 -0.29764909494011765,0.5954975771043406 l -15.835533011308268 -8.08573598821392" fill="#ffa20f" stroke="none" /><line stroke="#e1ed5e" stroke-width="0.3" x1="174.33088141563837" x2="178.70328620479359" y1="141.23008692659167" y2="143.65538615756765" /><path d="M 175.20536237346943 141.71514677278685 a86.0,86.0 0 0,1 -30.301960400862466,31.631185727798858" fill="none" id="id113" stroke="none" /><text fill="#e1ed5e" style="font-size:6.75px; font-family:Arial;" text-anchor="middle"><textPath startOffset="22.145653131862474" xlink:href="#id113">May</textPath></text><path d="M 117.62189284568427 111.42229804090321 l 26.241337050917583 17.009317637564937 a52.27178691273394,52.27178691273394 0 0,0 -0.49452983778588716,0.7487812046915857 l -25.94548277421097 -17.457278720595585" fill="#a6ff21" stroke="none" /><path d="M 117.21940702142032 112.02048342749411 l 9.43945304502542 6.589471330295422 a32.51192452207818,32.51192452207818 0 0,0 -0.3233928643045551,0.45489256324229976 l -9.324945082190904 -6.750541120247226" fill="#ff4406" stroke="none" /><path d="M 116.1254893667686 113.45245675266167 l 23.9940813392278 20.016716032258348 a52.247157631207806,52.247157631207806 0 0,0 -0.5804545674600728,0.6837740209357162 l -23.646932208260615 -20.425656835643622" fill="#a6ff21" stroke="none" /><path d="M 115.41159269507618 114.26474011684316 l 10.874218042684719 10.065013877659943 a35.817325075644966,35.817325075644966 0 0,0 -0.42152585445798213,0.44764584990700623 l -10.699836354490477 -10.250201187511447" fill="#ff760a" stroke="none" /><path d="M 115.16444852881244 114.52719865689866 l 12.832383856859908 12.293133454605229 a38.770515062387275,38.770515062387275 0 0,0 -0.4645320626608608,0.4766508193311613 l -12.61946499304824 -12.511606966004127" fill="#ffa20f" stroke="none" /><path d="M 114.39649973595853 115.28858382429668 l 32.477036721827005 34.48948754162948 a68.37386056798744,68.37386056798744 0 0,0 -0.8614137107913977,0.7973116705485324 l -31.880193239721642 -35.04191695831039" fill="#37ff7b" stroke="none" /><path d="M 113.31354834802062 116.24036423190432 l 5.6420470460069225 6.882380012111129 a29.899429728946807,29.899429728946807 0 0,0 -0.3997258030104322,0.3219908118002644 l -5.523070472641238 -6.978219117704797" fill="#ff1b02" stroke="none" /><path d="M 112.45986205192187 116.90419585922612 l 37.379586155765615 50.71258757767834 a84.0,84.0 0 0,0 -1.1680759585041285,0.8455969145076918 l -36.50352918688752 -51.346785263559106" fill="#4dd2ff" stroke="none" /><path d="M 110.96478420261333 117.91015095944535 l 7.804591418188884 12.748213543795906 a35.94752808203045,35.94752808203045 0 0,0 -0.5290573053755853,0.3176837108269801 l -7.584601356255862 -12.880311255158809" fill="#ff780b" stroke="none" /><line stroke="#e1ed5e" stroke-width="0.3" x1="143.1302829299769" x2="145.66735839644613" y1="173.24464959558577" y2="177.55315839532614" /><path d="M 143.63769802327073 174.10635135553383 a86.0,86.0 0 0,1 -40.68552437913181,11.842963189579606" fill="none" id="id114" stroke="none" /><text fill="#e1ed5e" style="font-size:6.75px; font-family:Arial;" text-anchor="middle"><textPath startOffset="21.407464694133747" xlink:href="#id114">June</textPath></text><path d="M 110.34350942703117 118.27599006163325 l 7.24402716721813 12.799501895197626 a35.70724917734659,35.70724917734659 0 0,0 -0.5360437061008109,0.29733440769261316 l -7.023239272961225 -12.921969218323383" fill="#ff750a" stroke="none" /><path d="M 108.73861861582097 119.09545874513695 l 7.339950697155215 16.039116923481735 a38.638825015340096,38.638825015340096 0 0,0 -0.6055009258073881,0.27083286245279564 l -7.0635363684922 -16.16275353684438" fill="#ffa00e" stroke="none" /><path d="M 108.07796709384702 119.3841803445677 l 5.6925705604456125 13.660097037521332 a35.79877057934716,35.79877057934716 0 0,0 -0.5692780823733277,0.2315204401652234 l -5.457238016881844 -13.755804734265848" fill="#ff760a" stroke="none" /><path d="M 107.407793817531 119.65005319985036 l 5.219537057811833 13.845442164152653 a35.796615688013496,35.796615688013496 0 0,0 -0.5768553848996111,0.2118292876147859 l -4.981092521258096 -13.93300230077616" fill="#ff760a" stroke="none" /><path d="M 106.72888874123015 119.89276391827305 l 2.323035829763505 6.867642654279756 a28.249897316048532,28.249897316048532 0 0,0 -0.46071178545394864,0.15144511477753875 l -2.2048013066618224 -6.906508690459314" fill="#ff0000" stroke="none" /><path d="M 106.38641147887787 120.00534299687104 l 5.370694643507932 16.8236244767793 a38.66008781092247,38.66008781092247 0 0,0 -0.6339506367474615,0.19639952777923647 l -5.081103373888846 -16.91334059236518" fill="#ffa10e" stroke="none" /><line stroke="#e1ed5e" stroke-width="0.3" x1="101.45913802915013" x2="101.54496967792366" y1="184.9874750549273" y2="189.98673829345242" /><path d="M 101.47630435890484 185.9873277026323 a86.0,86.0 0 0,1 -42.54439059252881,-10.42667462771756" fill="none" id="id115" stroke="none" /><text fill="#e1ed5e" style="font-size:6.75px; font-family:Arial;" text-anchor="middle"><textPath startOffset="22.145653131862474" xlink:href="#id115">July</textPath></text><line stroke="#e1ed5e" stroke-width="0.3" x1="58.13341422392154" x2="55.67067388415222" y1="173.97424548756322" y2="178.32567169271397" /><path d="M 57.64086615596768 174.84453072859336 a86.0,86.0 0 0,1 -31.369924170532247,-30.572349798747897" fill="none" id="id116" stroke="none" /><text fill="#e1ed5e" style="font-size:6.75px; font-family:Arial;" text-anchor="middle"><textPath startOffset="22.145653131862474" xlink:href="#id116">August</textPath></text><line stroke="#e1ed5e" stroke-width="0.3" x1="26.387840678322732" x2="22.057713659400548" y1="142.50000000000003" y2="145.00000000000006" /><path d="M 25.521815274538298 143.00000000000003 a86.0,86.0 0 0,1 -11.493303480769221,-40.785679425670985" fill="none" id="id117" stroke="none" /><text fill="#e1ed5e" style="font-size:6.75px; font-family:Arial;" text-anchor="middle"><textPath startOffset="21.40746469413373" xlink:href="#id117">September</textPath></text><line stroke="#e1ed5e" stroke-width="0.3" x1="15.003131293944662" x2="10.003315487706104" y1="100.72959589197737" y2="100.7725132973878" /><path d="M 14.003168132696942 100.73817937305945 a86.0,86.0 0 0,1 10.791469493833604,-42.45332614584628" fill="none" id="id118" stroke="none" /><text fill="#e1ed5e" style="font-size:6.75px; font-family:Arial;" text-anchor="middle"><textPath startOffset="22.145653131862435" xlink:href="#id118">October</textPath></text><line stroke="#e1ed5e" stroke-width="0.3" x1="26.387840678322718" x2="22.05771365940052" y1="57.49999999999999" y2="54.99999999999999" /><path d="M 25.521815274538284 56.99999999999999 a86.0,86.0 0 0,1 29.574782752854787,-30.34633250058573" fill="none" id="id119" stroke="none" /><text fill="#e1ed5e" style="font-size:6.75px; font-family:Arial;" text-anchor="middle"><textPath startOffset="21.40746469413373" xlink:href="#id119">November</textPath></text><line stroke="#e1ed5e" stroke-width="0.3" x1="56.869717070023135" x2="54.33264160355391" y1="26.7553504044142" y2="22.446841604673864" /><path d="M 56.362301976729285 25.89364864446614 a86.0,86.0 0 0,1 42.16139366436587,-11.88097634709845" fill="none" id="id120" stroke="none" /><text fill="#e1ed5e" style="font-size:6.75px; font-family:Arial;" text-anchor="middle"><textPath startOffset="22.145653131862474" xlink:href="#id120">December</textPath></text></svg>