<?xml version="1.0" encoding="utf-8" ?>
<svg baseProfile="full" height="200mm" version="1.1" viewBox="0,0,200,200" width="200mm" xmlns="http://www.w3.org/2000/svg" xmlns:ev="http://www.w3.org/2001/xml-events" xmlns:xlink="http://www.w3.org/1999/xlink"><defs /><rect fill="#1a1a1a" height="200" width="200" x="0" y="0" /><text alignment-baseline="middle" fill="#e1ed5e" style="dominant-baseline: central; font-size:9.0px; font-family:Arial;" text-anchor="middle" x="100.0" y="100.0">2021</text><line stroke="#e1ed5e" stroke-width="0.3" x1="100.0" x2="100.0" y1="15.0" y2="10.0" /><path d="M 100.0 14.0 a86.0,86.0 0 0,1 42.46469731375804,11.215312516191453" fill="none" id="id61" stroke="none" /><text fill="#e1ed5e" style="font-size:6.75px; font-family:Arial;" text-anchor="middle"><textPath startOffset="22.20632615414155" xlink:href="#id61">January</textPath></text><line stroke="#e1ed5e" stroke-width="0.3" x1="143.23703022742887" x2="145.7803849466894" y1="26.81831364943548" y2="22.513508569990506" /><path d="M 143.74570117128098 25.957352633546492 a86.0,86.0 0 0,1 28.547481713284135,27.462654790039103" fill="none" id="id62" stroke="none" /><text fill="#e1ed5e" style="font-size:6.75px; font-family:Arial;" text-anchor="middle"><textPath startOffset="19.985693538727396" xlink:href="#id62">February</textPath></text><line stroke="#e1ed5e" stroke-width="0.3" x1="172.23445277983987" x2="176.4835382374775" y1="55.19839476539836" y2="52.563006222186495" /><path d="M 173.08426987136738 54.67131705675599 a86.0,86.0 0 0,1 12.851231095245387,41.99856678651699" fill="none" id="id63" stroke="none" /><text fill="#e1ed5e" style="font-size:6.75px; font-family:Arial;" text-anchor="middle"><textPath startOffset="22.20632615414155" xlink:href="#id63">March</textPath></text><line stroke="#e1ed5e" stroke-width="0.3" x1="184.98032266829074" x2="189.97916517819016" y1="98.17113171792111" y2="98.06355123074" /><path d="M 185.9800911702706 98.14961562048488 a86.0,86.0 0 0,1 -9.607161424134198,41.387399972396054" fill="none" id="id64" stroke="none" /><text fill="#e1ed5e" style="font-size:6.75px; font-family:Arial;" text-anchor="middle"><textPath startOffset="21.466115282336823" xlink:href="#id64">April</textPath></text><line stroke="#e1ed5e" stroke-width="0.3" x1="174.80103733775053" x2="179.2010983576182" y1="140.37084112569926" y2="142.7455964860345" /><path d="M 175.68104954172406 140.8457921977663 a86.0,86.0 0 0,1 -30.038265399797805,32.042727171017184" fill="none" id="id65" stroke="none" /><text fill="#e1ed5e" style="font-size:6.75px; font-family:Arial;" text-anchor="middle"><textPath startOffset="22.206326154141568" xlink:href="#id65">May</textPath></text><path d="M 111.1453310114006 117.79835938074945 l 13.366640659805332 21.345644551355193 a46.18538512393965,46.18538512393965 0 0,0 -0.6774313941576352,0.416133691877259 l -12.997230065715389 -21.57256671006083" fill="#fffc17" stroke="none" /><line stroke="#e1ed5e" stroke-width="0.3" x1="143.8653032363475" x2="146.44561519142675" y1="172.8068346515853" y2="177.08958963109032" /><path d="M 144.38136562736335 173.6633856474863 a86.0,86.0 0 0,1 -40.68145358897372,12.25698825130547" fill="none" id="id66" stroke="none" /><text fill="#e1ed5e" style="font-size:6.75px; font-family:Arial;" text-anchor="middle"><textPath startOffset="21.466115282336833" xlink:href="#id66">June</textPath></text><line stroke="#e1ed5e" stroke-width="0.3" x1="102.19456741930631" x2="102.32365962044197" y1="184.97166512339345" y2="189.96999836594603" /><path d="M 102.22038585953345 185.97133177190398 a86.0,86.0 0 0,1 -42.740103519485714,-10.115201625700543" fill="none" id="id67" stroke="none" /><text fill="#e1ed5e" style="font-size:6.75px; font-family:Arial;" text-anchor="middle"><textPath startOffset="22.20632615414155" xlink:href="#id67">July</textPath></text><path d="M 93.76903079525671 120.05430185196036 l -8.112072419265402 26.108610650341518 a48.339811064206955,48.339811064206955 0 0,0 -0.7924935777020594,-0.2537314174578644 l 8.560287342058404 -25.965106386223948" fill="#e4ff1a" stroke="none" /><path d="M 93.08242187328487 119.8279376855182 l -6.990930299839571 20.038187904766453 a42.222678458760655,42.222678458760655 0 0,0 -0.6841691227303263,-0.24531870583964727 l 7.334818983199623 -19.91488165788685" fill="#ffc412" stroke="none" /><path d="M 91.7346041902142 119.30500536409082 l -10.686487442398613 24.959808597979404 a48.151299399923936,48.151299399923936 0 0,0 -0.7591380818895156,-0.3327838260885969 l 11.114546198945872 -24.772160218596355" fill="#e7ff1a" stroke="none" /><path d="M 91.40352486487194 119.15986991738527 l -11.082994453230794 24.701837518412297 a48.074222848244155,48.074222848244155 0 0,0 -0.7520914659170176,-0.34524830424553715 l 11.50655391491523 -24.507402143832685" fill="#e8ff1a" stroke="none" /><line stroke="#e1ed5e" stroke-width="0.3" x1="58.666819895761336" x2="56.23545636021788" y1="174.27360380694188" y2="178.64263932499728" /><path d="M 58.180547188652646 175.14741091055294 a86.0,86.0 0 0,1 -31.652253787137756,-30.449443065178592" fill="none" id="id68" stroke="none" /><text fill="#e1ed5e" style="font-size:6.75px; font-family:Arial;" text-anchor="middle"><textPath startOffset="22.20632615414155" xlink:href="#id68">August</textPath></text><path d="M 88.24862548938628 117.40417183066458 l -14.083011000573622 20.857402095878093 a46.16669269155996,46.16669269155996 0 0,0 -0.654782456091041,-0.45036534392461564 l 14.439950341287553 -20.611895962588378" fill="#fffc17" stroke="none" /><path d="M 87.07902340077011 116.55440617244103 l -23.215395467173003 29.743656221800947 a58.731149891540746,58.731149891540746 0 0,0 -0.7915910438521121,-0.6288878000994649 l 23.723944003742474 -29.339634507696353" fill="#61ff29" stroke="none" /><path d="M 86.51685102203217 116.09983520530335 l -18.003536725340535 21.49749846005897 a49.04050239672826,49.04050239672826 0 0,0 -0.6425112026355021,-0.5475619858688413 l 18.370913404553093 -21.184412083967178" fill="#dbff1b" stroke="none" /><path d="M 85.70375840098266 115.38237550388516 l -34.24388504975042 36.845509003103786 a71.30144328941589,71.30144328941589 0 0,0 -0.8918254337307099,-0.8432766125292949 l 34.873046317871946 -36.25059775382856" fill="#3bff9b" stroke="none" /><path d="M 84.9287848128048 114.62390073753433 l -36.09584142378646 35.02451497525661 a71.29539161139033,71.29539161139033 0 0,0 -0.8470349106625484,-0.8881127174287347 l 36.693382885827965 -34.397995141245374" fill="#3bff9b" stroke="none" /><path d="M 83.95833913139862 113.55231037782056 l -47.95746019934319 40.515404912068846 a83.78069786136881,83.78069786136881 0 0,0 -0.9212046794238619,-1.1096503800615676 l 48.647760878660584 -39.683893274893514" fill="#4dd4ff" stroke="none" /><path d="M 83.72743513129214 113.27417163493432 l -48.611080003819666 39.653971241564015 a83.73336061749396,83.73336061749396 0 0,0 -0.9014577618603006,-1.1247071633880645 l 49.28645567773482 -38.81133624459769" fill="#4dd5ff" stroke="none" /><path d="M 83.06392112726016 112.41649034213515 l -21.672641146729436 15.889046190028365 a47.873130876467755,47.873130876467755 0 0,0 -0.48151298301701123,-0.6687794190950066 l 21.942933922122055 -15.51363316548222" fill="#ebff1a" stroke="none" /><line stroke="#e1ed5e" stroke-width="0.3" x1="26.63291911575756" x2="22.317208475507996" y1="142.92168965132927" y2="145.44649492493687" /><path d="M 25.769776987707644 143.4266507060508 a86.0,86.0 0 0,1 -11.730757126820373,-40.83630448921669" fill="none" id="id69" stroke="none" /><text fill="#e1ed5e" style="font-size:6.75px; font-family:Arial;" text-anchor="middle"><textPath startOffset="21.46611528233685" xlink:href="#id69">September</textPath></text><path d="M 81.02952815118164 109.00673069616217 l -23.96336617683505 11.377238660603908 a47.52705181631427,47.52705181631427 0 0,0 -0.34451541301008815,-0.7420555500937533 l 24.155656206684963 -10.963063043231328" fill="#f0ff19" stroke="none" /><path d="M 80.87730276802145 108.67885076344099 l -57.16597596365602 25.94482191065327 a83.77804227477002,83.77804227477002 0 0,0 -0.5846866190060604,-1.3183139730991906 l 57.60410366739336 -24.956959601061385" fill="#4dd4ff" stroke="none" /><path d="M 80.58989483394504 108.01547362559985 l -58.09179069126407 23.98921655324202 a83.85012853253346,83.85012853253346 0 0,0 -0.539425388520347,-1.3388095763533567 l 58.49611869404181 -22.985707609045857" fill="#4dd4ff" stroke="none" /><path d="M 80.0844068197444 106.66101706037122 l -59.545250194449366 19.915647192598946 a83.78749735273453,83.78749735273453 0 0,0 -0.4457006058217116,-1.3717254170465247 l 59.879243051287325 -18.887722875574617" fill="#4dd4ff" stroke="none" /><path d="M 79.97269907076064 106.31721596034903 l -59.90103861410504 18.894597854773426 a83.81035149672473,83.81035149672473 0 0,0 -0.4221376845335354,-1.3795703777785644 l 60.2174030711447 -17.860700504442814" fill="#4dd4ff" stroke="none" /><path d="M 79.29508885075956 103.50808413554451 l -62.11473344772131 10.524252406633527 a84.0,84.0 0 0,0 -0.22927298255483697,-1.4276830812271453 l 62.286688184637434 -9.45349009571317" fill="#4dd2ff" stroke="none" /><path d="M 79.18660465613746 102.79330883721812 l -62.13774224004478 8.339336357971082 a83.694844617254,83.694844617254 0 0,0 -0.1793400805521899,-1.4295168962801457 l 62.272083829843815 -7.268501707403528" fill="#4dd5ff" stroke="none" /><path d="M 79.1416061653843 102.43462659150553 l -62.36679819070629 7.27955692591084 a83.79020198723573,83.79020198723573 0 0,0 -0.15488299037649905,-1.4340241325823602 l 62.482863482583845 -6.204936471443697" fill="#4dd4ff" stroke="none" /><path d="M 79.0235259727143 100.99374915477108 l -62.76220385788406 2.973325591050867 a83.83259423395627,83.83259423395627 0 0,0 -0.055879881753624024,-1.4420114513880107 l 62.80408587248888 -1.8925368926488593" fill="#4dd4ff" stroke="none" /><line stroke="#e1ed5e" stroke-width="0.3" x1="15.007084014347285" x2="10.007500721073583" y1="101.09737516637583" y2="101.16192664675087" /><path d="M 14.007167355692545 101.11028546245083 a86.0,86.0 0 0,1 10.666146001902534,-42.60595125391555" fill="none" id="id70" stroke="none" /><text fill="#e1ed5e" style="font-size:6.75px; font-family:Arial;" text-anchor="middle"><textPath startOffset="22.20632615414155" xlink:href="#id70">October</textPath></text><path d="M 79.08570108090925 98.10471618934814 l -62.61992575798135 -5.674707623356603 a83.87652509916302,83.87652509916302 0 0,0 0.14268145544422822,-1.4367827846501404 l 62.51296717685489 6.7517659387111735" fill="#4dd3ff" stroke="none" /><path d="M 79.21141760316559 97.0276538004421 l -31.25187349899059 -4.468384887943782 a52.56970162519302,52.56970162519302 0 0,0 0.1357903093724313,-0.8946884772441365 l 31.170327296178858 5.005672477580011" fill="#adff20" stroke="none" /><path d="M 79.3925641242962 95.95851677861259 l -61.57382035359548 -12.075716908049332 a83.74677913471095,83.74677913471095 0 0,0 0.28960714598162624,-1.4122272956908557 l 61.35683391169886 13.13381985990359" fill="#4dd5ff" stroke="none" /><path d="M 79.81627453868168 94.20196356495316 l -60.443245571658174 -17.3631047820479 a83.88770422672583,83.88770422672583 0 0,0 0.41062672854022625,-1.3844291951562526 l 60.13541294600624 18.40096336395069" fill="#4dd3ff" stroke="none" /><path d="M 80.14247586403 93.16781622104843 l -59.45517427847655 -20.456159312647546 a83.87584752755573,83.87584752755573 0 0,0 0.48147500066252363,-1.361194662993841 l 59.09424619700422 21.476551602067996" fill="#4dd3ff" stroke="none" /><path d="M 80.803312248108 91.48605970444005 l -46.00277451687585 -20.402732009233482 a71.32421620543258,71.32421620543258 0 0,0 0.5074129831188854,-1.118017248162767 l 45.64475921679361 21.19157126623832" fill="#3bff9c" stroke="none" /><path d="M 80.95270993114464 91.15688171328213 l -57.033528839839924 -26.479055026537356 a83.88055158014475,83.88055158014475 0 0,0 0.6192853437397984,-1.3043728713691338 l 56.56928530225837 27.45687031354702" fill="#4dd3ff" stroke="none" /><line stroke="#e1ed5e" stroke-width="0.3" x1="26.266209847984243" x2="21.928928074336255" y1="57.711370442889674" y2="55.22380399835377" /><path d="M 25.398753493254645 57.213857153982495 a86.0,86.0 0 0,1 29.58750427330803,-30.492523968695096" fill="none" id="id71" stroke="none" /><text fill="#e1ed5e" style="font-size:6.75px; font-family:Arial;" text-anchor="middle"><textPath startOffset="21.46611528233685" xlink:href="#id71">November</textPath></text><path d="M 81.78341655067845 89.55222093294921 l -54.48777462903427 -31.25043907180121 a83.81327507943516,83.81327507943516 0 0,0 0.7285382150813473,-1.2453079687062034 l 53.9417767394826 32.18372645286131" fill="#4dd4ff" stroke="none" /><path d="M 82.15384107792192 88.93136811851018 l -53.4249210614175 -33.13546557040435 a83.86637629914853,83.86637629914853 0 0,0 0.7714604525641499,-1.220265169328076 l 52.84663301260739 34.05017838744664" fill="#4dd3ff" stroke="none" /><path d="M 84.31358615837235 86.03803664274999 l -39.71594435363817 -35.349861693215374 a74.16924823270251,74.16924823270251 0 0,0 0.8570304644948777,-0.9463544444888118 l 39.101570248527246 36.02826892497374" fill="#3fffbe" stroke="none" /><path d="M 84.80347519578584 85.50635884689758 l -6.306469319251659 -6.014776696244156 a29.714877737544242,29.714877737544242 0 0,0 0.3562046012491674,-0.36710015285569103 l 6.202000454299373 6.12244104464997" fill="#ff0000" stroke="none" /><path d="M 85.05521093208273 85.24692304244772 l -44.74186785692234 -44.167918109653186 a83.87002250251967,83.87002250251967 0 0,0 1.0230712954432089,-1.0186779021695889 l 43.97496076131182 44.93153186247289" fill="#4dd3ff" stroke="none" /><path d="M 85.57189188830299 84.74124197986013 l -43.16802979838894 -45.65328425601391 a83.83073419939484,83.83073419939484 0 0,0 1.0570341672232708,-0.9823980586888703 l 42.37578774737082 46.38958690077743" fill="#4dd4ff" stroke="none" /><path d="M 87.22198572758235 83.33499621200491 l -17.73172079524906 -23.125595880602127 a50.141158302195024,50.141158302195024 0 0,0 0.6894501102270596,-0.5192795292232486 l 17.33102453126361 23.427391999331228" fill="#ccff1d" stroke="none" /><line stroke="#e1ed5e" stroke-width="0.3" x1="56.762969772571076" x2="54.21961505331055" y1="26.818313649435495" y2="22.513508569990535" /><path d="M 56.25429882871897 25.957352633546506 a86.0,86.0 0 0,1 42.265352541879196,-11.944610805530505" fill="none" id="id72" stroke="none" /><text fill="#e1ed5e" style="font-size:6.75px; font-family:Arial;" text-anchor="middle"><textPath startOffset="22.20632615414155" xlink:href="#id72">December</textPath></text><path d="M 93.25333710446033 80.11325718540243 l -8.10516789543025 -23.8911283846888 a46.22855053519318,46.22855053519318 0 0,0 0.7557645476936514,-0.24916368895106267 l 7.69272052549419 24.027105797899097" fill="#fffd17" stroke="none" /><path d="M 93.94186890950719 79.89281104454417 l -16.434434585518325 -54.54657164908168 a77.96858010179017,77.96858010179017 0 0,0 1.288374285977914,-0.37611178362607767 l 15.49307008181699 54.821381761626455" fill="#44ffeb" stroke="none" /><path d="M 96.75951476605007 79.25152402106235 l -4.747641784990739 -30.398636136480345 a51.7671445128845,51.7671445128845 0 0,0 0.881596984401922,-0.12992447881263064 l 4.223675820160168 30.475855099453945" fill="#b7ff1f" stroke="none" /></svg>