<?xml version="1.0" encoding="utf-8" ?>
<svg baseProfile="full" height="200mm" version="1.1" viewBox="0,0,200,200" width="200mm" xmlns="http://www.w3.org/2000/svg" xmlns:ev="http://www.w3.org/2001/xml-events" xmlns:xlink="http://www.w3.org/1999/xlink"><defs /><rect fill="#1a1a1a" height="200" width="200" x="0" y="0" /><text alignment-baseline="middle" fill="#e1ed5e" style="dominant-baseline: central; font-size:9.0px; font-family:Arial;" text-anchor="middle" x="100.0" y="100.0">2025</text><line stroke="#e1ed5e" stroke-width="0.3" x1="100.0" x2="100.0" y1="15.0" y2="10.0" /><path d="M 100.0 14.0 a86.0,86.0 0 0,1 42.46469731375804,11.215312516191453" fill="none" id="id121" stroke="none" /><text fill="#e1ed5e" style="font-size:6.75px; font-family:Arial;" text-anchor="middle"><textPath startOffset="22.20632615414155" xlink:href="#id121">January</textPath></text><path d="M 100.0 79.0 l 0.0 -17.456829564985064 a38.456829564985064,38.456829564985064 0 0,0 0.661971103926321,0.0056977942832299846 l -0.30049062465379256 17.454243147310393" fill="#ff930d" stroke="none" /><path d="M 101.44485096284872 79.0497635885617 l 1.3626437543664367 -19.75823772319124 a40.80516992927481,40.80516992927481 0 0,0 0.7003135032022584,0.05435780619650545 l -1.7025474469310362 19.73185465480627" fill="#ffb510" stroke="none" /><path d="M 102.52436894288641 79.15227682838746 l 2.4398334091732132 -20.14957902355388 a41.29675643769123,41.29675643769123 0 0,0 0.704965663967195,0.0915247758329706 l -2.7863138016482543 20.104595924556772" fill="#ffbd11" stroke="none" /><path d="M 103.95276090670814 79.375362276772 l 3.8073246315756064 -19.86578320173811 a41.22733455175601,41.22733455175601 0 0,0 0.695826295870425,0.1395762089576796 l -4.1487173369131565 19.797303036703223" fill="#ffbc11" stroke="none" /><path d="M 109.41281617654863 81.2277094730956 l 6.054897131613628 -12.075481549119996 a34.508480074292606,34.508480074292606 0 0,0 0.5287019787217165,0.27082168839752657 l -6.2618595979241 11.969467335409968" fill="#ff5608" stroke="none" /><line stroke="#e1ed5e" stroke-width="0.3" x1="143.23703022742887" x2="145.7803849466894" y1="26.81831364943548" y2="22.513508569990506" /><path d="M 143.74570117128098 25.957352633546492 a86.0,86.0 0 0,1 28.547481713284135,27.462654790039103" fill="none" id="id122" stroke="none" /><text fill="#e1ed5e" style="font-size:6.75px; font-family:Arial;" text-anchor="middle"><textPath startOffset="19.985693538727396" xlink:href="#id122">February</textPath></text><path d="M 111.2981086023043 82.29822771554956 l 10.864243463349275 -17.021996389007484 a41.19356697313061,41.19356697313061 0 0,0 0.5944290056391531,0.386633160386218 l -11.155639494772707 16.832464304461737" fill="#ffbb11" stroke="none" /><path d="M 111.90073688211348 82.69761687909136 l 11.478717910628696 -16.68881322172903 a41.255306752096985,41.255306752096985 0 0,0 0.5816386502962031,0.4074750446099174 l -11.764287700508548 16.488753334355177" fill="#ffbc11" stroke="none" /><path d="M 113.06298171725822 83.55741782278167 l 12.655188969696791 -15.929286981053892 a41.344433921431886,41.344433921431886 0 0,0 0.5534180887423558,0.447492273447979 l -12.927510457003638 15.709088610341784" fill="#ffbd11" stroke="none" /><path d="M 113.34407831869373 83.78471172551755 l 12.856162278055121 -15.62238863287771 a41.23215102544349,41.23215102544349 0 0,0 0.5441514234126221,0.45571116815088947 l -13.123171238426862 15.398776307333002" fill="#ffbc11" stroke="none" /><path d="M 114.42810811169701 84.74124197986012 l 13.887097700527777 -14.686600750004429 a41.21256352207791,41.21256352207791 0 0,0 0.511264922437567,0.49183645031027234 l -14.137845866577761 14.445381212931855" fill="#ffbb11" stroke="none" /><path d="M 114.94478906791727 85.2469230424477 l 14.368761572864871 -14.18443875693577 a41.190582259734356,41.190582259734356 0 0,0 0.4937686454119944,0.5088719925863511 l -14.610794481979976 13.935002568799304" fill="#ffbb11" stroke="none" /><path d="M 116.60985879189232 87.15038557335679 l 16.01718122785367 -12.39111093948917 a41.250672206142596,41.250672206142596 0 0,0 0.4296435473053254,0.5653605460032833 l -16.228100715383107 12.113565617604854" fill="#ffbc11" stroke="none" /><path d="M 117.04232023915458 87.72973835380427 l 16.431888977646846 -11.830758621337145 a41.247810373718316,41.247810373718316 0 0,0 0.40989988027226176,0.5797743115076668 l -16.633101477722988 11.546157809497684" fill="#ffbc11" stroke="none" /><path d="M 117.45458315368197 88.32363383020206 l 16.851828606994413 -11.273149276236673 a41.27481250231012,41.27481250231012 0 0,0 0.38995531787757687,0.5939287024241228 l -17.043380560229917 10.981402509834876" fill="#ffbc11" stroke="none" /><line stroke="#e1ed5e" stroke-width="0.3" x1="172.23445277983987" x2="176.4835382374775" y1="55.19839476539836" y2="52.563006222186495" /><path d="M 173.08426987136738 54.67131705675599 a86.0,86.0 0 0,1 12.851231095245387,41.99856678651699" fill="none" id="id123" stroke="none" /><text fill="#e1ed5e" style="font-size:6.75px; font-family:Arial;" text-anchor="middle"><textPath startOffset="22.20632615414155" xlink:href="#id123">March</textPath></text><path d="M 117.84615892207809 88.93136811851018 l 36.236219884502255 -22.47460534390292 a63.64002247750564,63.64002247750564 0 0,0 0.569378800963472,0.9359090407085455 l -36.617714483751946 21.847528529987294" fill="#30ff3a" stroke="none" /><path d="M 118.03404312379186 89.2402003453031 l 6.984886345353317 -4.167450258987032 a29.133651020214373,29.133651020214373 0 0,0 0.25324124481418153,0.4328713767430393 l -7.055587264637826 4.046599469890098" fill="#ff0000" stroke="none" /><path d="M 118.3937258080291 89.86733742301442 l 17.689649640723847 -9.744803895919068 a41.19616070894369,41.19616070894369 0 0,0 0.33681176842953037,0.6240610540574841 l -17.85476950837184 9.438861858529124" fill="#ffbb11" stroke="none" /><path d="M 118.73160827565052 90.50648371742162 l 18.09418740047689 -9.17045990811948 a41.28538766230518,41.28538766230518 0 0,0 0.3158135304422014,0.6366608061686329 l -18.2493609438725 8.857639513451897" fill="#ffbc11" stroke="none" /><path d="M 119.196687751892 91.48605970444005 l 57.59006325567602 -25.541820886679833 a84.0,84.0 0 0,0 0.574837160629277,1.3268034216535889 l -58.02119112614798 24.54671832043964" fill="#4dd2ff" stroke="none" /><line stroke="#e1ed5e" stroke-width="0.3" x1="184.98032266829074" x2="189.97916517819016" y1="98.17113171792111" y2="98.06355123074" /><path d="M 185.9800911702706 98.14961562048488 a86.0,86.0 0 0,1 -9.607161424134198,41.387399972396054" fill="none" id="id124" stroke="none" /><text fill="#e1ed5e" style="font-size:6.75px; font-family:Arial;" text-anchor="middle"><textPath startOffset="21.466115282336823" xlink:href="#id124">April</textPath></text><line stroke="#e1ed5e" stroke-width="0.3" x1="174.80103733775053" x2="179.2010983576182" y1="140.37084112569926" y2="142.7455964860345" /><path d="M 175.68104954172406 140.8457921977663 a86.0,86.0 0 0,1 -30.038265399797805,32.042727171017184" fill="none" id="id125" stroke="none" /><text fill="#e1ed5e" style="font-size:6.75px; font-family:Arial;" text-anchor="middle"><textPath startOffset="22.206326154141568" xlink:href="#id125">May</textPath></text><line stroke="#e1ed5e" stroke-width="0.3" x1="143.8653032363475" x2="146.44561519142675" y1="172.8068346515853" y2="177.08958963109032" /><path d="M 144.38136562736335 173.6633856474863 a86.0,86.0 0 0,1 -40.68145358897372,12.25698825130547" fill="none" id="id126" stroke="none" /><text fill="#e1ed5e" style="font-size:6.75px; font-family:Arial;" text-anchor="middle"><textPath startOffset="21.466115282336833" xlink:href="#id126">June</textPath></text><line stroke="#e1ed5e" stroke-width="0.3" x1="102.19456741930631" x2="102.32365962044197" y1="184.97166512339345" y2="189.96999836594603" /><path d="M 102.22038585953345 185.97133177190398 a86.0,86.0 0 0,1 -42.740103519485714,-10.115201625700543" fill="none" id="id127" stroke="none" /><text fill="#e1ed5e" style="font-size:6.75px; font-family:Arial;" text-anchor="middle"><textPath startOffset="22.20632615414155" xlink:href="#id127">July</textPath></text><line stroke="#e1ed5e" stroke-width="0.3" x1="58.666819895761336" x2="56.23545636021788" y1="174.27360380694188" y2="178.64263932499728" /><path d="M 58.180547188652646 175.14741091055294 a86.0,86.0 0 0,1 -31.652253787137756,-30.449443065178592" fill="none" id="id128" stroke="none" /><text fill="#e1ed5e" style="font-size:6.75px; font-family:Arial;" text-anchor="middle"><textPath startOffset="22.20632615414155" xlink:href="#id128">August</textPath></text><line stroke="#e1ed5e" stroke-width="0.3" x1="26.63291911575756" x2="22.317208475507996" y1="142.92168965132927" y2="145.44649492493687" /><path d="M 25.769776987707644 143.4266507060508 a86.0,86.0 0 0,1 -11.730757126820373,-40.83630448921669" fill="none" id="id129" stroke="none" /><text fill="#e1ed5e" style="font-size:6.75px; font-family:Arial;" text-anchor="middle"><textPath startOffset="21.46611528233685" xlink:href="#id129">September</textPath></text><line stroke="#e1ed5e" stroke-width="0.3" x1="15.007084014347285" x2="10.007500721073583" y1="101.09737516637583" y2="101.16192664675087" /><path d="M 14.007167355692545 101.11028546245083 a86.0,86.0 0 0,1 10.666146001902534,-42.60595125391555" fill="none" id="id130" stroke="none" /><text fill="#e1ed5e" style="font-size:6.75px; font-family:Arial;" text-anchor="middle"><textPath startOffset="22.20632615414155" xlink:href="#id130">October</textPath></text><line stroke="#e1ed5e" stroke-width="0.3" x1="26.266209847984243" x2="21.928928074336255" y1="57.711370442889674" y2="55.22380399835377" /><path d="M 25.398753493254645 57.213857153982495 a86.0,86.0 0 0,1 29.58750427330803,-30.492523968695096" fill="none" id="id131" stroke="none" /><text fill="#e1ed5e" style="font-size:6.75px; font-family:Arial;" text-anchor="middle"><textPath startOffset="21.46611528233685" xlink:href="#id131">November</textPath></text><line stroke="#e1ed5e" stroke-width="0.3" x1="56.762969772571076" x2="54.21961505331055" y1="26.818313649435495" y2="22.513508569990535" /><path d="M 56.25429882871897 25.957352633546506 a86.0,86.0 0 0,1 42.265352541879196,-11.944610805530505" fill="none" id="id132" stroke="none" /><text fill="#e1ed5e" style="font-size:6.75px; font-family:Arial;" text-anchor="middle"><textPath startOffset="22.20632615414155" xlink:href="#id132">December</textPath></text></svg>