<?xml version="1.0" encoding="utf-8" ?>
<svg baseProfile="full" height="200mm" version="1.1" viewBox="0,0,200,200" width="200mm" xmlns="http://www.w3.org/2000/svg" xmlns:ev="http://www.w3.org/2001/xml-events" xmlns:xlink="http://www.w3.org/1999/xlink"><defs /><rect fill="#1a1a1a" height="200" width="200" x="0" y="0" /><text alignment-baseline="middle" fill="#e1ed5e" style="dominant-baseline: central; font-size:9.0px; font-family:Arial;" text-anchor="middle" x="100.0" y="100.0">2025</text><line stroke="#e1ed5e" stroke-width="0.3" x1="100.0" x2="100.0" y1="15.0" y2="10.0" /><path d="M 100.0 14.0 a86.0,86.0 0 0,1 42.46469731375804,11.215312516191453" fill="none" id="id121" stroke="none" /><text fill="#e1ed5e" style="font-size:6.75px; font-family:Arial;" text-anchor="middle"><textPath startOffset="22.20632615414155" xlink:href="#id121">January</textPath></text><path d="M 100.0 79.0 l 0.0 -17.016467857636314 a38.016467857636314,38.016467857636314 0 0,0 0.6543910010203354,0.005632549944394273 l -0.2929105217478071 17.01394668430048" fill="#ff8f0d" stroke="none" /><path d="M 101.44485096284872 79.0497635885617 l 1.3282700367364895 -19.25982125726899 a40.30556956301581,40.30556956301581 0 0,0 0.6917391758975958,0.05369227337476056 l -1.6595994019964264 19.234103721705765" fill="#ffb110" stroke="none" /><path d="M 102.52436894288641 79.15227682838746 l 2.378286769119793 -19.641290677829954 a40.7847554305627,40.7847554305627 0 0,0 0.6962254344412555,0.09039004319423666 l -2.7160269320688943 19.597442311471582" fill="#ffb811" stroke="none" /><path d="M 103.95276090670814 79.375362276772 l 3.7112819928507315 -19.364653819912416 a40.717084764120344,40.717084764120344 0 0,0 0.6872144070942181,0.1378487450856158 l -4.0440628094120745 19.297901118749593" fill="#ffb710" stroke="none" /><path d="M 109.41281617654863 81.2277094730956 l 5.902157779443598 -11.770868408902665 a34.16771846422718,34.16771846422718 0 0,0 0.5234811942326251,0.26814739980584423 l -6.103899461264979 11.66752848378432" fill="#ff5407" stroke="none" /><line stroke="#e1ed5e" stroke-width="0.3" x1="143.23703022742887" x2="145.7803849466894" y1="26.81831364943548" y2="22.513508569990506" /><path d="M 143.74570117128098 25.957352633546492 a86.0,86.0 0 0,1 28.547481713284135,27.462654790039103" fill="none" id="id122" stroke="none" /><text fill="#e1ed5e" style="font-size:6.75px; font-family:Arial;" text-anchor="middle"><textPath startOffset="19.985693538727396" xlink:href="#id122">February</textPath></text><path d="M 111.2981086023043 82.29822771554956 l 10.590184718445837 -16.592603676863302 a40.68416899816351,40.68416899816351 0 0,0 0.5870783207146891,0.3818520704387431 l -10.874230064944806 16.40785268226503" fill="#ffb610" stroke="none" /><path d="M 111.90073688211348 82.69761687909136 l 11.189158583805797 -16.267825306564532 a40.744351344586036,40.744351344586036 0 0,0 0.5744349367140441,0.40242838288660787 l -11.467524660103491 16.07281208091399" fill="#ffb711" stroke="none" /><path d="M 113.06298171725822 83.55741782278167 l 12.335952272060993 -15.527458688825206 a40.831230213774944,40.831230213774944 0 0,0 0.5465485735963335,0.4419376032759854 l -12.601404244221818 15.312814988285092" fill="#ffb811" stroke="none" /><path d="M 113.34407831869373 83.78471172551755 l 12.531855876961961 -15.228302083219308 a40.72177973862216,40.72177973862216 0 0,0 0.5374159207700027,0.45007037839038194 l -12.792129334691081 15.010330547435107" fill="#ffb710" stroke="none" /><path d="M 114.42810811169701 84.74124197986012 l 13.536785174948129 -14.316120156300645 a40.702686344819405,40.702686344819405 0 0,0 0.5049396106101651,0.4857515053438497 l -13.781208029170713 14.080985564194494" fill="#ffb610" stroke="none" /><path d="M 114.94478906791727 85.2469230424477 l 14.006298712403337 -13.82662557868736 a40.681259576416416,40.681259576416416 0 0,0 0.4876631825216253,0.5025797763924861 l -14.242226158628071 13.583481606744758" fill="#ffb610" stroke="none" /><path d="M 116.60985879189232 87.15038557335679 l 15.613135736880915 -12.078535809569468 a40.739833708552865,40.739833708552865 0 0,0 0.42432294396805675,0.5583592556855508 l -15.818734621073085 11.807991778002885" fill="#ffb711" stroke="none" /><path d="M 117.04232023915458 87.72973835380427 l 16.01738217054164 -11.5323188017623 a40.73704406801245,40.73704406801245 0 0,0 0.40482414302320435,0.5725950411282477 l -16.21351893336873 11.254897260302258" fill="#ffb711" stroke="none" /><path d="M 117.45458315368197 88.32363383020206 l 16.426728505644427 -10.988775573440247 a40.76336504752134,40.76336504752134 0 0,0 0.3851232752172093,0.5865691699449912 l -16.613448416219562 10.704388339517582" fill="#ffb711" stroke="none" /><line stroke="#e1ed5e" stroke-width="0.3" x1="172.23445277983987" x2="176.4835382374775" y1="55.19839476539836" y2="52.563006222186495" /><path d="M 173.08426987136738 54.67131705675599 a86.0,86.0 0 0,1 12.851231095245387,41.99856678651699" fill="none" id="id123" stroke="none" /><text fill="#e1ed5e" style="font-size:6.75px; font-family:Arial;" text-anchor="middle"><textPath startOffset="22.20632615414155" xlink:href="#id123">March</textPath></text><path d="M 117.84615892207809 88.93136811851018 l 35.322133876112105 -21.907666453631467 a62.56439571322499,62.56439571322499 0 0,0 0.5597553116325747,0.9200905545746952 l -35.694004986030905 21.29640812584969" fill="#32ff2f" stroke="none" /><path d="M 118.03404312379186 89.2402003453031 l 6.808687313036109 -4.062323179381492 a28.928473531546853,28.928473531546853 0 0,0 0.25145776073928966,0.4298228243341921 l -6.8776047482457265 3.9445209426934045" fill="#ff0000" stroke="none" /><path d="M 118.3937258080291 89.86733742301442 l 17.24341487116321 -9.498983859387744 a40.68669730503218,40.68669730503218 0 0,0 0.3326464950868543,0.6163434351488923 l -17.40436946546853 9.200759440906394" fill="#ffb610" stroke="none" /><path d="M 118.73160827565052 90.50648371742162 l 17.637747860461875 -8.939128132364914 a40.77367344112027,40.77367344112027 0 0,0 0.31189916063921563,0.6287696755038966 l -17.7890070340545 8.634198868362068" fill="#ffb711" stroke="none" /><path d="M 119.196687751892 91.48605970444005 l 56.13731042405875 -24.897509168301433 a82.41077742898871,82.41077742898871 0 0,0 0.5639616345539427,1.3017012080227925 l -56.55756276845537 23.927508815692036" fill="#4be2ff" stroke="none" /><path d="M 120.08093135843002 93.85539295169968 l 60.24279407529006 -18.433821144900946 a84.0,84.0 0 0,0 0.41117641155319085,1.3862824530138804 l -60.551176383954946 17.394109305140535" fill="#4dd2ff" stroke="none" /><line stroke="#e1ed5e" stroke-width="0.3" x1="184.98032266829074" x2="189.97916517819016" y1="98.17113171792111" y2="98.06355123074" /><path d="M 185.9800911702706 98.14961562048488 a86.0,86.0 0 0,1 -9.607161424134198,41.387399972396054" fill="none" id="id124" stroke="none" /><text fill="#e1ed5e" style="font-size:6.75px; font-family:Arial;" text-anchor="middle"><textPath startOffset="21.466115282336823" xlink:href="#id124">April</textPath></text><line stroke="#e1ed5e" stroke-width="0.3" x1="174.80103733775053" x2="179.2010983576182" y1="140.37084112569926" y2="142.7455964860345" /><path d="M 175.68104954172406 140.8457921977663 a86.0,86.0 0 0,1 -30.038265399797805,32.042727171017184" fill="none" id="id125" stroke="none" /><text fill="#e1ed5e" style="font-size:6.75px; font-family:Arial;" text-anchor="middle"><textPath startOffset="22.206326154141568" xlink:href="#id125">May</textPath></text><line stroke="#e1ed5e" stroke-width="0.3" x1="143.8653032363475" x2="146.44561519142675" y1="172.8068346515853" y2="177.08958963109032" /><path d="M 144.38136562736335 173.6633856474863 a86.0,86.0 0 0,1 -40.68145358897372,12.25698825130547" fill="none" id="id126" stroke="none" /><text fill="#e1ed5e" style="font-size:6.75px; font-family:Arial;" text-anchor="middle"><textPath startOffset="21.466115282336833" xlink:href="#id126">June</textPath></text><line stroke="#e1ed5e" stroke-width="0.3" x1="102.19456741930631" x2="102.32365962044197" y1="184.97166512339345" y2="189.96999836594603" /><path d="M 102.22038585953345 185.97133177190398 a86.0,86.0 0 0,1 -42.740103519485714,-10.115201625700543" fill="none" id="id127" stroke="none" /><text fill="#e1ed5e" style="font-size:6.75px; font-family:Arial;" text-anchor="middle"><textPath startOffset="22.20632615414155" xlink:href="#id127">July</textPath></text><line stroke="#e1ed5e" stroke-width="0.3" x1="58.666819895761336" x2="56.23545636021788" y1="174.27360380694188" y2="178.64263932499728" /><path d="M 58.180547188652646 175.14741091055294 a86.0,86.0 0 0,1 -31.652253787137756,-30.449443065178592" fill="none" id="id128" stroke="none" /><text fill="#e1ed5e" style="font-size:6.75px; font-family:Arial;" text-anchor="middle"><textPath startOffset="22.20632615414155" xlink:href="#id128">August</textPath></text><line stroke="#e1ed5e" stroke-width="0.3" x1="26.63291911575756" x2="22.317208475507996" y1="142.92168965132927" y2="145.44649492493687" /><path d="M 25.769776987707644 143.4266507060508 a86.0,86.0 0 0,1 -11.730757126820373,-40.83630448921669" fill="none" id="id129" stroke="none" /><text fill="#e1ed5e" style="font-size:6.75px; font-family:Arial;" text-anchor="middle"><textPath startOffset="21.46611528233685" xlink:href="#id129">September</textPath></text><line stroke="#e1ed5e" stroke-width="0.3" x1="15.007084014347285" x2="10.007500721073583" y1="101.09737516637583" y2="101.16192664675087" /><path d="M 14.007167355692545 101.11028546245083 a86.0,86.0 0 0,1 10.666146001902534,-42.60595125391555" fill="none" id="id130" stroke="none" /><text fill="#e1ed5e" style="font-size:6.75px; font-family:Arial;" text-anchor="middle"><textPath startOffset="22.20632615414155" xlink:href="#id130">October</textPath></text><line stroke="#e1ed5e" stroke-width="0.3" x1="26.266209847984243" x2="21.928928074336255" y1="57.711370442889674" y2="55.22380399835377" /><path d="M 25.398753493254645 57.213857153982495 a86.0,86.0 0 0,1 29.58750427330803,-30.492523968695096" fill="none" id="id131" stroke="none" /><text fill="#e1ed5e" style="font-size:6.75px; font-family:Arial;" text-anchor="middle"><textPath startOffset="21.46611528233685" xlink:href="#id131">November</textPath></text><line stroke="#e1ed5e" stroke-width="0.3" x1="56.762969772571076" x2="54.21961505331055" y1="26.818313649435495" y2="22.513508569990535" /><path d="M 56.25429882871897 25.957352633546506 a86.0,86.0 0 0,1 42.265352541879196,-11.944610805530505" fill="none" id="id132" stroke="none" /><text fill="#e1ed5e" style="font-size:6.75px; font-family:Arial;" text-anchor="middle"><textPath startOffset="22.20632615414155" xlink:href="#id132">December</textPath></text></svg>