<?xml version="1.0" encoding="utf-8" ?>
<svg baseProfile="full" height="200mm" version="1.1" viewBox="0,0,200,200" width="200mm" xmlns="http://www.w3.org/2000/svg" xmlns:ev="http://www.w3.org/2001/xml-events" xmlns:xlink="http://www.w3.org/1999/xlink"><defs /><rect fill="#1a1a1a" height="200" width="200" x="0" y="0" /><text alignment-baseline="middle" fill="#e1ed5e" style="dominant-baseline: central; font-size:9.0px; font-family:Arial;" text-anchor="middle" x="100.0" y="100.0">2023</text><line stroke="#e1ed5e" stroke-width="0.3" x1="100.0" x2="100.0" y1="15.0" y2="10.0" /><path d="M 100.0 14.0 a86.0,86.0 0 0,1 42.46469731375804,11.215312516191453" fill="none" id="id97" stroke="none" /><text fill="#e1ed5e" style="font-size:6.75px; font-family:Arial;" text-anchor="middle"><textPath startOffset="22.20632615414155" xlink:href="#id97">January</textPath></text><line stroke="#e1ed5e" stroke-width="0.3" x1="143.23703022742887" x2="145.7803849466894" y1="26.81831364943548" y2="22.513508569990506" /><path d="M 143.74570117128098 25.957352633546492 a86.0,86.0 0 0,1 28.547481713284135,27.462654790039103" fill="none" id="id98" stroke="none" /><text fill="#e1ed5e" style="font-size:6.75px; font-family:Arial;" text-anchor="middle"><textPath startOffset="19.985693538727396" xlink:href="#id98">February</textPath></text><line stroke="#e1ed5e" stroke-width="0.3" x1="172.23445277983987" x2="176.4835382374775" y1="55.19839476539836" y2="52.563006222186495" /><path d="M 173.08426987136738 54.67131705675599 a86.0,86.0 0 0,1 12.851231095245387,41.99856678651699" fill="none" id="id99" stroke="none" /><text fill="#e1ed5e" style="font-size:6.75px; font-family:Arial;" text-anchor="middle"><textPath startOffset="22.20632615414155" xlink:href="#id99">March</textPath></text><path d="M 118.73160827565052 90.50648371742162 l 4.7521951860608755 -2.4084980698376683 a26.32768449129938,26.32768449129938 0 0,0 0.20139423312614715,0.4059984847396289 l -4.79294943214043 2.3263399965990894" fill="#ff2503" stroke="none" /><path d="M 119.196687751892 91.48605970444005 l 4.712204961670361 -2.0899142718070545 a26.154863457386003,26.154863457386003 0 0,0 0.1789855648391691,0.41312336104931147 l -4.747481236352211 2.0084917661711406" fill="#ff2303" stroke="none" /><path d="M 119.85752413597 93.16781622104841 l 4.3325153438297175 -1.4906461073137363 a25.581780769719295,25.581780769719295 0 0,0 0.13967981967587167,0.41762488204783255 l -4.35753245727736 1.4158481223435897" fill="#ff1a02" stroke="none" /><path d="M 120.53481517161879 95.60439243477599 l 4.478576454786291 -0.9586677251081824 a25.58003175409628,25.58003175409628 0 0,0 0.08845904364281945,0.4313577123923064 l -4.494414794344107 0.8814343565524642" fill="#ff1a02" stroke="none" /><path d="M 120.87857604477298 97.74499172005257 l 5.691860263788332 -0.6147541860911426 a26.72496253016639,26.72496253016639 0 0,0 0.045461546552965804,0.4577915696718079 l -5.701598936023526 0.5166870857148999" fill="#ff2b04" stroke="none" /><path d="M 120.91429891909075 98.10471618934814 l 6.838487337645929 -0.6197135457673552 a27.866509589737078,27.866509589737078 0 0,0 0.03917967046599937,0.478091218151358 l -6.848141491931423 0.5019084104082284" fill="#ff3c05" stroke="none" /><path d="M 120.96714384426684 98.82574320788733 l 6.858642618580495 -0.3841156305961891 a27.869390321351453,27.869390321351453 0 0,0 0.02270212900622093,0.4792060623918322 l -6.864238355820213 0.26599846158135704" fill="#ff3c05" stroke="none" /><line stroke="#e1ed5e" stroke-width="0.3" x1="184.98032266829074" x2="189.97916517819016" y1="98.17113171792111" y2="98.06355123074" /><path d="M 185.9800911702706 98.14961562048488 a86.0,86.0 0 0,1 -9.607161424134198,41.387399972396054" fill="none" id="id100" stroke="none" /><text fill="#e1ed5e" style="font-size:6.75px; font-family:Arial;" text-anchor="middle"><textPath startOffset="21.466115282336823" xlink:href="#id100">April</textPath></text><path d="M 120.99513854157772 99.54816195383933 l 11.442702894032326 -0.24625931894651146 a32.44535247046869,32.44535247046869 0 0,0 0.007210582335375597,0.5584675482153726 l -11.445246483485418 0.04925551267067619" fill="#ff7d0b" stroke="none" /><path d="M 120.9764740272857 100.99374915477107 l 9.147152500791725 0.43334142117496854 a30.157411406071382,30.157411406071382 0 0,0 -0.029028158681083265,0.5183172732647559 l -9.138337991223112 -0.5907304107751477" fill="#ff5d08" stroke="none" /><path d="M 120.95626037817324 101.35467743843564 l 9.136387280553011 0.5906043108085499 a30.155456623904485,30.155456623904485 0 0,0 -0.03794337805008809,0.517707247339237 l -9.124867343838586 -0.7477846946445572" fill="#ff5d08" stroke="none" /><path d="M 120.8583938346157 102.4346265915055 l 9.106834320895393 1.0629649232766742 a30.168659977137054,30.168659977137054 0 0,0 -0.06464496033410404,0.5152839386066432 l -9.087187851314441 -1.2195666161707124" fill="#ff5d08" stroke="none" /><path d="M 120.81339534386255 102.79330883721812 l 9.0805711924546 1.2186786124903568 a30.161983995935476,30.161983995935476 0 0,0 -0.07348888258924387,0.5139810736666637 l -9.058248258848755 -1.3748051581374297" fill="#ff5d08" stroke="none" /><path d="M 120.49622156327973 104.57218783832717 l 16.743457896864978 3.73504132609206 a38.15499682459037,38.15499682459037 0 0,0 -0.14851275463636052,0.6397890600335356 l -16.67668457629806 -4.0226990434741605" fill="#ffca12" stroke="none" /><path d="M 120.32669344350535 105.2749913415812 l 11.07689532710215 2.8745711694065275 a32.44380922138956,32.44380922138956 0 0,0 -0.14493410256471148,0.53935371245285 l -11.025773148195661 -3.064815815034926" fill="#ff7d0b" stroke="none" /><line stroke="#e1ed5e" stroke-width="0.3" x1="174.80103733775053" x2="179.2010983576182" y1="140.37084112569926" y2="142.7455964860345" /><path d="M 175.68104954172406 140.8457921977663 a86.0,86.0 0 0,1 -30.038265399797805,32.042727171017184" fill="none" id="id101" stroke="none" /><text fill="#e1ed5e" style="font-size:6.75px; font-family:Arial;" text-anchor="middle"><textPath startOffset="22.206326154141568" xlink:href="#id101">May</textPath></text><path d="M 117.94076556474637 110.91462005526583 l 9.78186622404301 5.95099205112302 a32.44985647148482,32.44985647148482 0 0,0 -0.29442119502463077,0.4747007121290694 l -9.677980389350417 -6.118489094617363" fill="#ff7d0b" stroke="none" /><path d="M 117.75023020441432 111.22182372390056 l 3.8732096738763 2.4486711273827275 a25.582329480502985,25.582329480502985 0 0,0 -0.23851884265563786,0.3701865406103569 l -3.830485967843612 -2.5149792679145375" fill="#ff1a02" stroke="none" /><path d="M 117.35343817320211 111.8261652097733 l 12.287739990292131 8.37395112885106 a35.86982217706084,35.86982217706084 0 0,0 -0.35210345732546716,0.5072312913940972 l -12.141775625804527 -8.584223682432176" fill="#ffac0f" stroke="none" /><path d="M 116.93607887273984 112.41649034213515 l 9.228962945941559 6.766107441236095 a32.4435120030484,32.4435120030484 0 0,0 -0.33407352092865533,0.44754607479847935 l -9.111128158317811 -6.923966395543888" fill="#ff7d0b" stroke="none" /><path d="M 116.498646956653 112.99209946851258 l 9.000436872292017 7.087524898987718 a32.456040899276005,32.456040899276005 0 0,0 -0.34941569014006546,0.435949798568176 l -8.877103270097098 -7.241402531134145" fill="#ff7d0b" stroke="none" /><path d="M 116.0416608686014 113.55231037782055 l 18.43474740150673 15.57403691353076 a45.13276895719548,45.13276895719548 0 0,0 -0.5064702413606927,0.5891393118770936 l -18.163934650575257 -15.889053324569382" fill="#dcff1b" stroke="none" /><path d="M 115.32070863581623 114.36230785411682 l 6.71551102934539 6.295416164739099 a30.20490918328464,30.20490918328464 0 0,0 -0.3588536646391843,0.37625663269613996 l -6.6061508133272415 -6.410079914017746" fill="#ff5d08" stroke="none" /><path d="M 114.81725581225074 114.88116024355365 l 6.077465066546436 6.103676191856149 a29.613387526990984,29.613387526990984 0 0,0 -0.36431524180534197,0.3565591423006505 l -5.9714998723653 -6.207385437079371" fill="#ff5507" stroke="none" /><path d="M 114.29624159901734 115.38237550388516 l 20.248356014735087 21.78669221541525 a50.743165248317034,50.743165248317034 0 0,0 -0.6449225555358661,0.5891214635158106 l -19.87033390973236 -22.132006445517643" fill="#9bff22" stroke="none" /><path d="M 113.75828350139079 115.86535959552629 l 4.503415648856195 5.193112110969463 a27.873802870570305,27.873802870570305 0 0,0 -0.3651926413704616,0.31122509166106416 l -4.413357530908685 -5.2698615928534736" fill="#ff3c05" stroke="none" /><path d="M 113.48314897796784 116.09983520530334 l 7.349995745490771 8.776415691575128 a32.44761590245142,32.44761590245142 0 0,0 -0.4312904217086905,0.35492265496383485 l -7.197835195237389 -8.901633465396142" fill="#ff7d0b" stroke="none" /><path d="M 112.04921762599082 117.19931262002967 l 20.99568573747429 29.969693790888265 a57.59236758541852,57.59236758541852 0 0,0 -0.816832865885006,0.5618250934354371 l -20.4766959869664 -30.3266596736888" fill="#50ff2b" stroke="none" /><path d="M 111.1453310114006 117.79835938074945 l 6.075490599786706 9.702158239962403 a32.44742156738219,32.44742156738219 0 0,0 -0.4759276548247012,0.29235363724906355 l -5.907583745029696 -9.805300344039845" fill="#ff7d0b" stroke="none" /><line stroke="#e1ed5e" stroke-width="0.3" x1="143.8653032363475" x2="146.44561519142675" y1="172.8068346515853" y2="177.08958963109032" /><path d="M 144.38136562736335 173.6633856474863 a86.0,86.0 0 0,1 -40.68145358897372,12.25698825130547" fill="none" id="id102" stroke="none" /><text fill="#e1ed5e" style="font-size:6.75px; font-family:Arial;" text-anchor="middle"><textPath startOffset="21.466115282336833" xlink:href="#id102">June</textPath></text><path d="M 110.8373102113329 117.98757091392108 l 5.908940596483275 9.807552421470957 a32.450050806554046,32.450050806554046 0 0,0 -0.48092849513147534,0.2841410319737868 l -5.7392442303234175 -9.907812025738494" fill="#ff7d0b" stroke="none" /><path d="M 109.89434966115114 118.52300852407294 l 11.374503867378591 21.29397477428969 a45.14151403531055,45.14151403531055 0 0,0 -0.6885351247256121,0.360209035076772 l -11.006277840126483 -21.48661322831118" fill="#dcff1b" stroke="none" /><path d="M 108.92500713936063 119.00905698771935 l 2.923797747184549 6.227293393602607 a27.87951860790042,27.87951860790042 0 0,0 -0.4361578154901452,0.2002186609015786 l -2.8161719359269846 -6.2766991248382595" fill="#ff3c05" stroke="none" /><path d="M 107.59598834532513 119.57807347666477 l 17.546476712577526 45.224688969783614 a69.50929124857106,69.50929124857106 0 0,0 -1.119198157380433,0.4231849771417932 l -16.765408334436817 -45.520022197032034" fill="#3aff97" stroke="none" /><path d="M 106.2309692047433 120.05430185196036 l 2.7199060767691465 8.75398604618153 a30.166796646767434,30.166796646767434 0 0,0 -0.49721348859134684,0.14980634540813226 l -2.568817613737554 -8.799507760695388" fill="#ff5d08" stroke="none" /><path d="M 105.18746579009965 120.34920634021253 l 2.2630212439172457 8.877299264824991 a30.16120665565858,30.16120665565858 0 0,0 -0.5041901202214354,0.12391766466574893 l -2.109877838952599 -8.91493818780477" fill="#ff5d08" stroke="none" /><path d="M 104.83641907484287 120.43548508189849 l 2.1099331263546985 8.91517179553465 a30.161446716626443,30.161446716626443 0 0,0 -0.50625248727484,0.11522141788716185 l -1.9561604896869966 -8.950169946999496" fill="#ff5d08" stroke="none" /><path d="M 104.48393922423573 120.51570834832081 l 1.9607053690226253 8.970964479276851 a30.182732122443795,30.182732122443795 0 0,0 -0.5085194448719241,0.10656519391486273 l -1.8059944627213231 -9.003385653918254" fill="#ff5d08" stroke="none" /><path d="M 102.70371172650421 120.8252237178851 l 1.4733401447383878 11.34833933142331 a32.44358059189636,32.44358059189636 0 0,0 -0.5544338748787653,0.06713422099415821 l -1.2777788468082423 -11.372019081142819" fill="#ff7d0b" stroke="none" /><path d="M 102.34483914955558 120.86867818915974 l 1.277916700936176 11.373245959938938 a32.44481519115966,32.44481519115966 0 0,0 -0.5555284738998275,0.05758279773860592 l -1.081955630430746 -11.393558126133302" fill="#ff7d0b" stroke="none" /><line stroke="#e1ed5e" stroke-width="0.3" x1="102.19456741930631" x2="102.32365962044197" y1="184.97166512339345" y2="189.96999836594603" /><path d="M 102.22038585953345 185.97133177190398 a86.0,86.0 0 0,1 -42.740103519485714,-10.115201625700543" fill="none" id="id103" stroke="none" /><text fill="#e1ed5e" style="font-size:6.75px; font-family:Arial;" text-anchor="middle"><textPath startOffset="22.20632615414155" xlink:href="#id103">July</textPath></text><path d="M 99.45781275523022 120.99299961872073 l -0.2954970166374249 11.441377157879483 a32.44519242982345,32.44519242982345 0 0,0 -0.5581803671854834,-0.019224860452784247 l 0.4923977354975512 -11.434595499000604" fill="#ff7d0b" stroke="none" /><path d="M 98.01472825383883 120.90594882070398 l -5.114602670822704 53.859438578729694 a75.10174012447607,75.10174012447607 0 0,0 -1.2859113184266373,-0.13328996592907416 l 6.040946585854935 -53.76341924434486" fill="#42ffd4" stroke="none" /><path d="M 96.22490169976321 120.6578951692458 l -2.0570254516843085 11.256346924449488 a32.44275752572082,32.44275752572082 0 0,0 -0.5484871235347026,-0.10511886263577927 l 2.2504801897907063 -11.21927086346524" fill="#ff7d0b" stroke="none" /><path d="M 94.81253420990036 120.34920634021253 l -2.8263466510775035 11.087092140734882 a32.441671535628096,32.441671535628096 0 0,0 -0.5399368691844042,-0.1426022345614396 l 3.0167739630733967 -11.03679855686986" fill="#ff7d0b" stroke="none" /><path d="M 94.46302465271185 120.25689768951611 l -3.0177957380236236 11.040536697159503 a32.445546805537916,32.445546805537916 0 0,0 -0.5374664032118833,-0.15189337415447218 l 3.207393309340121 -10.986954529666509" fill="#ff7d0b" stroke="none" /><path d="M 92.06813273071674 119.44442032107085 l -4.319995632375793 10.59016849492687 a32.43739616410517,32.43739616410517 0 0,0 -0.5151808285865053,-0.21534562813156233 l 4.501647920459761 -10.514237823775334" fill="#ff7d0b" stroke="none" /><path d="M 91.7346041902142 119.30500536409082 l -3.603201750578753 8.415789240300999 a30.15470214657691,30.15470214657691 0 0,0 -0.475409449646923,-0.20840553172934193 l 3.7475318748834194 -8.352519155277205" fill="#ff5d08" stroke="none" /><line stroke="#e1ed5e" stroke-width="0.3" x1="58.666819895761336" x2="56.23545636021788" y1="174.27360380694188" y2="178.64263932499728" /><path d="M 58.180547188652646 175.14741091055294 a86.0,86.0 0 0,1 -31.652253787137756,-30.449443065178592" fill="none" id="id104" stroke="none" /><text fill="#e1ed5e" style="font-size:6.75px; font-family:Arial;" text-anchor="middle"><textPath startOffset="22.20632615414155" xlink:href="#id104">August</textPath></text><path d="M 85.97065885151581 115.62618273729859 l -4.588129906109306 5.110358040090495 a27.867801346373682,27.867801346373682 0 0,0 -0.3541870826054919,-0.323541502265441 l 4.675416538181652 -5.030623771238478" fill="#ff3c05" stroke="none" /><path d="M 85.70375840098266 115.38237550388516 l -6.24290833834812 6.717203233569254 a30.170317540962785,30.170317540962785 0 0,0 -0.377364823002909,-0.3568219940738971 l 6.357608995741846 -6.608746602749426" fill="#ff5d08" stroke="none" /><path d="M 82.6465618267979 111.8261652097733 l -6.345584702934785 4.324441779232138 a28.679013082687668,28.679013082687668 0 0,0 -0.2744948842621551,-0.410332608016951 l 6.41908269260767 -4.214572257009365" fill="#ff4806" stroke="none" /><line stroke="#e1ed5e" stroke-width="0.3" x1="26.63291911575756" x2="22.317208475507996" y1="142.92168965132927" y2="145.44649492493687" /><path d="M 25.769776987707644 143.4266507060508 a86.0,86.0 0 0,1 -11.730757126820373,-40.83630448921669" fill="none" id="id105" stroke="none" /><text fill="#e1ed5e" style="font-size:6.75px; font-family:Arial;" text-anchor="middle"><textPath startOffset="21.46611528233685" xlink:href="#id105">September</textPath></text><path d="M 81.87401531095188 110.60418214915194 l -7.90768981692901 4.626208431499713 a30.161515305474406,30.161515305474406 0 0,0 -0.258308967652814,-0.4503834580303666 l 7.986150780734201 -4.4894051276110405" fill="#ff5d08" stroke="none" /><path d="M 80.32549172779594 107.34259656027581 l -10.720345426998948 4.000871095134763 a32.44258605360091,32.44258605360091 0 0,0 -0.1907558232319035,-0.5248780991680729 l 10.787625511236078 -3.815745198960573" fill="#ff7d0b" stroke="none" /><path d="M 79.97269907076064 106.31721596034903 l -3.27694989850314 1.0336490310516548 a24.436106947796265,24.436106947796265 0 0,0 -0.1230802809168468,-0.4022334794136511 l 3.2942569519261173 -0.9770885790859559" fill="#ff0901" stroke="none" /><path d="M 79.67330655649465 105.27499134158121 l -11.07795756290112 2.874846830800149 a32.44490664295694,32.44490664295694 0 0,0 -0.13563312914308162,-0.5417869291921725 l 11.125802006339262 -2.6837320622105847" fill="#ff7d0b" stroke="none" /><path d="M 79.18660465613746 102.79330883721812 l -10.207408590096382 1.3699083762525157 a31.29892417121809,31.29892417121809 0 0,0 -0.06706687380486472,-0.5345889719105054 l 10.229476973148095 -1.1940016500546018" fill="#ff6d0a" stroke="none" /><path d="M 79.1416061653843 102.43462659150553 l -11.36680085232182 1.3267519941772314 a32.4439692620348,32.4439692620348 0 0,0 -0.05997143890108605,-0.5552610421634466 l 11.387954592723958 -1.1308946301290028" fill="#ff7d0b" stroke="none" /><path d="M 79.07016306316243 101.71520430193888 l -11.409869597403931 0.9350410840317739 a32.44811888733646,32.44811888733646 0 0,0 -0.04082814123200987,-0.5570675490015065 l 11.424274297300276 -0.7385003985335068" fill="#ff7d0b" stroke="none" /><line stroke="#e1ed5e" stroke-width="0.3" x1="15.007084014347285" x2="10.007500721073583" y1="101.09737516637583" y2="101.16192664675087" /><path d="M 14.007167355692545 101.11028546245083 a86.0,86.0 0 0,1 10.666146001902534,-42.60595125391555" fill="none" id="id106" stroke="none" /><text fill="#e1ed5e" style="font-size:6.75px; font-family:Arial;" text-anchor="middle"><textPath startOffset="22.20632615414155" xlink:href="#id106">October</textPath></text><path d="M 79.21141760316559 97.0276538004421 l -9.0605001878605 -1.2954680018769216 a30.15264448113807,30.15264448113807 0 0,0 0.07788586953912806,-0.5131705667278301 l 9.03685842488207 1.4512376809968437" fill="#ff5d08" stroke="none" /><path d="M 79.54389044137918 95.25157060432595 l -23.52661573669033 -5.461178892530331 a45.15214530674457,45.15214530674457 0 0,0 0.18225813904140628,-0.7555776515738523 l 23.42912479738811 5.8653417757635795" fill="#dcff1b" stroke="none" /><path d="M 80.2630227832202 92.82701384747504 l -45.648382557923014 -16.58993737373156 a69.56954655150514,69.56954655150514 0 0,0 0.4187272125777461,-1.1219807516359503 l 45.356050756843636 17.37324126239685" fill="#3bff97" stroke="none" /><path d="M 81.10775173730289 90.83032412892265 l -56.676744788091334 -27.50902761323202 a84.0,84.0 0 0,0 0.6425599481863489,-1.295361646004154 l 56.19482482695157 28.480548847735136" fill="#4dd2ff" stroke="none" /><line stroke="#e1ed5e" stroke-width="0.3" x1="26.266209847984243" x2="21.928928074336255" y1="57.711370442889674" y2="55.22380399835377" /><path d="M 25.398753493254645 57.213857153982495 a86.0,86.0 0 0,1 29.58750427330803,-30.492523968695096" fill="none" id="id107" stroke="none" /><text fill="#e1ed5e" style="font-size:6.75px; font-family:Arial;" text-anchor="middle"><textPath startOffset="21.46611528233685" xlink:href="#id107">November</textPath></text><path d="M 81.78341655067845 89.55222093294921 l -9.92824456957478 -5.694158077179246 a32.44523815572209,32.44523815572209 0 0,0 0.28202687308730207,-0.48207534646030176 l 9.828758022017153 5.86421283599344" fill="#ff7d0b" stroke="none" /><path d="M 82.54541684631803 88.32363383020206 l -2.337370464592785 -1.5636004124967577 a23.81214276641687,23.81214276641687 0 0,0 0.23083665177359777,-0.33872430273100557 l 2.310109347150447 1.6036027384981792" fill="#ff0000" stroke="none" /><path d="M 83.6137871275137 86.86637796730984 l -8.937388556410385 -7.163356424856093 a32.453846056141245,32.453846056141245 0 0,0 0.35313108389280456,-0.4328969541632129 l 8.812758980441187 7.316137548627388" fill="#ff7d0b" stroke="none" /><path d="M 84.07557802195018 86.31012108654704 l -8.681877201264763 -7.463620832869813 a32.44904483678395,32.44904483678395 0 0,0 0.3677684138229498,-0.42042287219819624 l 8.55211692386397 7.611959261270952" fill="#ff7d0b" stroke="none" /><path d="M 85.83668400450813 84.49514656593479 l -7.717440825879109 -8.448430362594001 a32.442677505398194,32.442677505398194 0 0,0 0.41555827532949785,-0.3730923226539184 l 7.57087156295364 8.580021694017198" fill="#ff7d0b" stroke="none" /><path d="M 86.37877921826538 84.01681056812374 l -7.4236604825477155 -8.710949897354494 a32.445146703924806,32.445146703924806 0 0,0 0.4281870414880344,-0.3585943332461386 l 7.272615904100571 8.837445387994444" fill="#ff7d0b" stroke="none" /><path d="M 86.93701828274178 83.55741782278169 l -7.118207437625958 -8.959800547911746 a32.44320335323257,32.44320335323257 0 0,0 0.440250322000659,-0.3436223594564077 l 6.962924560465873 9.081001296591376" fill="#ff7d0b" stroke="none" /><path d="M 87.80319425747018 82.90503203632743 l -3.9929041332195325 -5.596429891589444 a27.874831703289722,27.874831703289722 0 0,0 0.392993793175726,-0.2753172666984036 l 3.8959792004601463 5.66433200105179" fill="#ff3c05" stroke="none" /><line stroke="#e1ed5e" stroke-width="0.3" x1="56.762969772571076" x2="54.21961505331055" y1="26.818313649435495" y2="22.513508569990535" /><path d="M 56.25429882871897 25.957352633546506 a86.0,86.0 0 0,1 42.265352541879196,-11.944610805530505" fill="none" id="id108" stroke="none" /><text fill="#e1ed5e" style="font-size:6.75px; font-family:Arial;" text-anchor="middle"><textPath startOffset="22.20632615414155" xlink:href="#id108">December</textPath></text><path d="M 89.63071344664047 81.73862282372117 l -5.652468171512712 -9.954576211751245 a32.447444430331515,32.447444430331515 0 0,0 0.48806505079595947,-0.2716076723511347 l 5.480279031644708 10.050399281662564" fill="#ff7d0b" stroke="none" /><path d="M 90.26544431104013 81.39251694778311 l -4.2496367042795065 -8.12312810975442 a30.16758541851899,30.16758541851899 0 0,0 0.4621954391989819,-0.23675445572597167 l 4.10918077749176 8.195075090792896" fill="#ff5d08" stroke="none" /><path d="M 90.91171255644093 81.06846463323043 l -4.952551844188764 -10.31651023103009 a32.44369490664296,32.44369490664296 0 0,0 0.5055373275905473,-0.2373565538192566 l 4.774236305298609 10.400231767489354" fill="#ff7d0b" stroke="none" /><path d="M 91.56875222667455 80.76684994638697 l -4.595272520317148 -10.482619927280917 a32.445603962911214,32.445603962911214 0 0,0 0.5134381516751685,-0.2198274213035954 l 4.414150610851671 10.560166876547298" fill="#ff7d0b" stroke="none" /><path d="M 99.63851952072746 79.00311137660856 l -0.19704637999084795 -11.445599780758585 a32.44729582116093,32.44729582116093 0 0,0 0.5585268592633809,-0.004807417010902384 l 2.8037788372555208e-15 11.447295821160928" fill="#ff7d0b" stroke="none" /></svg>