<?xml version="1.0" encoding="utf-8" ?>
<svg baseProfile="full" height="200mm" version="1.1" viewBox="0,0,200,200" width="200mm" xmlns="http://www.w3.org/2000/svg" xmlns:ev="http://www.w3.org/2001/xml-events" xmlns:xlink="http://www.w3.org/1999/xlink"><defs /><rect fill="#1a1a1a" height="200" width="200" x="0" y="0" /><text alignment-baseline="middle" fill="#e1ed5e" style="dominant-baseline: central; font-size:9.0px; font-family:Arial;" text-anchor="middle" x="100.0" y="100.0">2017</text><line stroke="#e1ed5e" stroke-width="0.3" x1="100.0" x2="100.0" y1="15.0" y2="10.0" /><path d="M 100.0 14.0 a86.0,86.0 0 0,1 42.46469731375804,11.215312516191453" fill="none" id="id13" stroke="none" /><text fill="#e1ed5e" style="font-size:6.75px; font-family:Arial;" text-anchor="middle"><textPath startOffset="22.20632615414155" xlink:href="#id13">January</textPath></text><line stroke="#e1ed5e" stroke-width="0.3" x1="143.23703022742887" x2="145.7803849466894" y1="26.81831364943548" y2="22.513508569990506" /><path d="M 143.74570117128098 25.957352633546492 a86.0,86.0 0 0,1 28.547481713284135,27.462654790039103" fill="none" id="id14" stroke="none" /><text fill="#e1ed5e" style="font-size:6.75px; font-family:Arial;" text-anchor="middle"><textPath startOffset="19.985693538727396" xlink:href="#id14">February</textPath></text><path d="M 117.2510076193507 88.02491185347247 l 50.34231869814574 -34.94599951568318 a82.2827213336337,82.2827213336337 0 0,0 0.7976547124631044,1.1704598651177789 l -50.93639787627758 34.074261627294995" fill="#4be2ff" stroke="none" /><line stroke="#e1ed5e" stroke-width="0.3" x1="172.23445277983987" x2="176.4835382374775" y1="55.19839476539836" y2="52.563006222186495" /><path d="M 173.08426987136738 54.67131705675599 a86.0,86.0 0 0,1 12.851231095245387,41.99856678651699" fill="none" id="id15" stroke="none" /><text fill="#e1ed5e" style="font-size:6.75px; font-family:Arial;" text-anchor="middle"><textPath startOffset="22.20632615414155" xlink:href="#id15">March</textPath></text><path d="M 118.56541770881063 90.18545643968196 l 11.377004241076595 -6.014413759027819 a33.86893151610723,33.86893151610723 0 0,0 0.2680331869963362,0.5177548040269865 l -11.478846861233048 5.817686232740487" fill="#ff860c" stroke="none" /><path d="M 119.196687751892 91.48605970444005 l 11.993951256797402 -5.319448137513452 a34.12064766839379,34.12064766839379 0 0,0 0.23349781219680293,0.5389451437554932 l -12.083739778836884 5.1122038491713555" fill="#ff8a0c" stroke="none" /><path d="M 119.7369772167798 92.82701384747503 l 11.83907838974922 -4.302662176461902 a33.596693174138316,33.596693174138316 0 0,0 0.19285608843430832,0.5452301322839569 l -11.911387558993338 4.09823441775133" fill="#ff820c" stroke="none" /><path d="M 120.45610955862082 95.25157060432595 l 4.8013839346214 -1.1145341468639718 a25.929043928812796,25.929043928812796 0 0,0 0.09717910937468127,0.4356348924182441 l -4.819857430998119 1.0317210848957639" fill="#ff1302" stroke="none" /><path d="M 120.6074358757038 95.95851677861258 l 11.56173249478217 -2.267460550146496 a32.7819792746114,32.7819792746114 0 0,0 0.1038318866787035,0.5546740904970164 l -11.599050105370734 2.068108382186917" fill="#ff770a" stroke="none" /><path d="M 120.87857604477298 97.74499172005257 l 12.004866095175647 -1.2965957250259206 a33.07468303671998,33.07468303671998 0 0,0 0.05626298786766053,0.5665606096430058 l -12.025406208725537 1.0897595846784798" fill="#ff7b0b" stroke="none" /><path d="M 120.98425023603335 99.18683210126433 l 14.624694058057417 -0.5667265498207558 a35.63567064654202,35.63567064654202 0 0,0 0.0184767652513119,0.6131538867203007 l -14.632282517764374 0.314902515675456" fill="#ff9f0e" stroke="none" /><line stroke="#e1ed5e" stroke-width="0.3" x1="184.98032266829074" x2="189.97916517819016" y1="98.17113171792111" y2="98.06355123074" /><path d="M 185.9800911702706 98.14961562048488 a86.0,86.0 0 0,1 -9.607161424134198,41.387399972396054" fill="none" id="id16" stroke="none" /><text fill="#e1ed5e" style="font-size:6.75px; font-family:Arial;" text-anchor="middle"><textPath startOffset="21.466115282336823" xlink:href="#id16">April</textPath></text><path d="M 120.99980553446 99.90962569577887 l 30.245552986118 -0.1301641009207577 a51.24583307051138,51.24583307051138 0 0,0 -0.003796346733784318,0.882137282692668 l -30.24331234209471 -0.39048265997559506" fill="#9aff22" stroke="none" /><path d="M 120.8583938346157 102.4346265915055 l 62.575181503847105 7.303879774516526 a84.0,84.0 0 0,0 -0.1799939630126075,1.4347289828504204 l -62.44018603158764 -8.379926511654341" fill="#4dd2ff" stroke="none" /><path d="M 120.02730092923936 106.31721596034902 l 11.455584549838386 3.6134375675012746 a33.011966884433434,33.011966884433434 0 0,0 -0.17560440524696463,0.5404547870840386 l -11.391687893575174 -3.8100912545631087" fill="#ff7a0b" stroke="none" /><line stroke="#e1ed5e" stroke-width="0.3" x1="174.80103733775053" x2="179.2010983576182" y1="140.37084112569926" y2="142.7455964860345" /><path d="M 175.68104954172406 140.8457921977663 a86.0,86.0 0 0,1 -30.038265399797805,32.042727171017184" fill="none" id="id17" stroke="none" /><text fill="#e1ed5e" style="font-size:6.75px; font-family:Arial;" text-anchor="middle"><textPath startOffset="22.206326154141568" xlink:href="#id17">May</textPath></text><path d="M 118.30583269289576 110.29060199501025 l 5.335236794083308 2.999196994647108 a27.12045212885785,27.12045212885785 0 0,0 -0.23226472280095395,0.40497312185521095 l -5.282820075129974 -3.0905899623606343" fill="#ff2503" stroke="none" /><path d="M 116.93607887273984 112.41649034213515 l 9.58858672829261 7.029761457842688 a32.88942982653751,32.88942982653751 0 0,0 -0.3386651735624347,0.45369734385857624 l -9.466160288035082 -7.193771681210579" fill="#ff780b" stroke="none" /><path d="M 111.7513745106137 117.40417183066458 l 7.580200434716588 11.226525948733128 a34.54600765938274,34.54600765938274 0 0,0 -0.4956945792997624,0.32851933776062875 l -7.385831156676861 -11.355343307585075" fill="#ff900d" stroke="none" /><line stroke="#e1ed5e" stroke-width="0.3" x1="143.8653032363475" x2="146.44561519142675" y1="172.8068346515853" y2="177.08958963109032" /><path d="M 144.38136562736335 173.6633856474863 a86.0,86.0 0 0,1 -40.68145358897372,12.25698825130547" fill="none" id="id18" stroke="none" /><text fill="#e1ed5e" style="font-size:6.75px; font-family:Arial;" text-anchor="middle"><textPath startOffset="21.466115282336833" xlink:href="#id18">June</textPath></text><path d="M 109.57404056367764 118.69057910512821 l 6.154861451346318 12.01560867351324 a34.50026560036044,34.50026560036044 0 0,0 -0.5308869529839695,0.26619773925852075 l -5.947120590679588 -12.119774253681063" fill="#ff8f0d" stroke="none" /><path d="M 106.91757812671514 119.82793768551818 l 4.661057596651548 13.360045652119576 a35.14978013066006,35.14978013066006 0 0,0 -0.572992077110791,0.1943900226458363 l -4.430395786603531 -13.438298661663534" fill="#ff980e" stroke="none" /><path d="M 106.2309692047433 120.05430185196036 l 1.099453744148783 3.5385790770147163 a24.705447398062628,24.705447398062628 0 0,0 -0.40719874343426615,0.12268564109451778 l -1.038380026274271 -3.5569800872149595" fill="#ff0000" stroke="none" /><line stroke="#e1ed5e" stroke-width="0.3" x1="102.19456741930631" x2="102.32365962044197" y1="184.97166512339345" y2="189.96999836594603" /><path d="M 102.22038585953345 185.97133177190398 a86.0,86.0 0 0,1 -42.740103519485714,-10.115201625700543" fill="none" id="id19" stroke="none" /><text fill="#e1ed5e" style="font-size:6.75px; font-family:Arial;" text-anchor="middle"><textPath startOffset="22.20632615414155" xlink:href="#id19">July</textPath></text><path d="M 99.09653310690486 120.98055641714683 l -0.2400160853841637 5.573719478722403 a26.57888488398288,26.57888488398288 0 0,0 -0.4569187891134372,-0.023617482284776746 l 0.3359229429110898 -5.568762189675424" fill="#ff1c02" stroke="none" /><path d="M 97.2962882734958 120.8252237178851 l -1.7377764513895262 13.385148652164643 a34.49748389276864,34.49748389276864 0 0,0 -0.588217269428251,-0.08152155369478607 l 1.9679223120046083 -13.353252532977251" fill="#ff8f0d" stroke="none" /><path d="M 94.11515582081647 120.15858648285463 l -3.6634885072109076 12.549312718047387 a34.07311736877675,34.07311736877675 0 0,0 -0.5615980295318265,-0.1692048794390559 l 3.87896151118298 -12.484392469502605" fill="#ff890c" stroke="none" /><path d="M 93.08242187328487 119.8279376855182 l -4.766415475000482 13.662034210588267 a35.469619734174366,35.469619734174366 0 0,0 -0.5747437041638749,-0.20608264391163109 l 5.000878739794083 -13.577964025636678" fill="#ff9c0e" stroke="none" /><path d="M 92.7421414339146 119.70592522655815 l -4.910316557294218 13.332077228526108 a35.207585717503946,35.207585717503946 0 0,0 -0.5668920564868106,-0.21435006873826604 l 5.139078834541312 -13.245578909681209" fill="#ff990e" stroke="none" /><path d="M 92.40401165467489 119.57807347666478 l -5.0778557502838115 13.08778113701887 a35.03832732597432,35.03832732597432 0 0,0 -0.5604112228353054,-0.22299919113569597 l 5.302388049160975 -12.998435101477108" fill="#ff960d" stroke="none" /><path d="M 91.40352486487194 119.15986991738527 l -5.969871443530695 13.305681512898058 a35.58357039873845,35.58357039873845 0 0,0 -0.556682938135651,-0.25554583332416453 l 6.198022377433765 -13.20094860923982" fill="#ff9e0e" stroke="none" /><path d="M 90.10565033884886 118.52300852407294 l -6.309209294867525 11.811340972499538 a34.39081392205452,34.39081392205452 0 0,0 -0.5197552295300225,-0.28341199251437743 l 6.511587336266189 -11.700988328225396" fill="#ff8d0d" stroke="none" /><line stroke="#e1ed5e" stroke-width="0.3" x1="58.666819895761336" x2="56.23545636021788" y1="174.27360380694188" y2="178.64263932499728" /><path d="M 58.180547188652646 175.14741091055294 a86.0,86.0 0 0,1 -31.652253787137756,-30.449443065178592" fill="none" id="id20" stroke="none" /><text fill="#e1ed5e" style="font-size:6.75px; font-family:Arial;" text-anchor="middle"><textPath startOffset="22.20632615414155" xlink:href="#id20">August</textPath></text><path d="M 89.7882731507175 118.34994917583269 l -6.907325683410741 12.412109832375382 a35.204633701284074,35.204633701284074 0 0,0 -0.5269819054326605,-0.2992340792875607 l 7.119956355764608 -12.291372587293187" fill="#ff990e" stroke="none" /><path d="M 87.07902340077011 116.55440617244103 l -8.598017771047981 11.015814274307862 a34.9740500112638,34.9740500112638 0 0,0 -0.47138775261983884,-0.3744989398772241 l 8.78636301638518 -10.866181420425507" fill="#ff950d" stroke="none" /><path d="M 86.51685102203217 116.09983520530335 l -8.841279552296077 10.55711421928075 a34.77028993016445,34.77028993016445 0 0,0 -0.45554795948635074,-0.38822785397619425 l 9.021692988359485 -10.403361975081605" fill="#ff930d" stroke="none" /><path d="M 86.24171649860922 115.8653595955263 l -9.197104129328443 10.605637268235201 a35.0380292858752,35.0380292858752 0 0,0 -0.4522536084294954,-0.3990612268136269 l 9.378300090664526 -10.445752899649284" fill="#ff960d" stroke="none" /><path d="M 85.18274418774928 114.88116024355367 l -9.894348577057302 9.937021304513832 a35.022928587519715,35.022928587519715 0 0,0 -0.42354290727672395,-0.4290467289417038 l 10.06393210938956 -9.765234081591464" fill="#ff960d" stroke="none" /><path d="M 84.67929136418377 114.36230785411682 l -16.97598022376463 15.914032431184413 a44.268870466321246,44.268870466321246 0 0,0 -0.5163723254617704,-0.5604201745158733 l 17.24739895722213 -15.619461001867196" fill="#eeff19" stroke="none" /><path d="M 84.43433777217949 114.09645910891817 l -10.527914019615817 9.534211092829326 a35.20345573327326,35.20345573327326 0 0,0 -0.4028970974899379,-0.45265916011275464 l 10.690469966754094 -9.351577762975706" fill="#ff990e" stroke="none" /><path d="M 83.95833913139862 113.55231037782056 l -10.444487242086746 8.823708093654995 a34.67278824059473,34.67278824059473 0 0,0 -0.3812421666475083,-0.4592307492190373 l 10.594825408627791 -8.642616087322196" fill="#ff910d" stroke="none" /><path d="M 83.72743513129214 113.27417163493432 l -10.592966839042653 8.6410999789602 a34.67038972741609,34.67038972741609 0 0,0 -0.37325495711647283,-0.4656929495761099 l 10.740139708213988 -8.45747919580583" fill="#ff910d" stroke="none" /><path d="M 83.06392112726016 112.41649034213515 l -24.16362588368826 17.715282839093504 a50.96184343320567,50.96184343320567 0 0,0 -0.5125795786134993,-0.7119282032172923 l 24.464985254677366 -17.296721030425072" fill="#9eff22" stroke="none" /><path d="M 82.6465618267979 111.8261652097733 l -11.379148629374452 7.754756740100002 a34.77030412255012,34.77030412255012 0 0,0 -0.33279634059795493,-0.4974853747934989 l 11.510948075383137 -7.557734451100683" fill="#ff930d" stroke="none" /><path d="M 82.05923443525364 110.91462005526583 l -12.133551128333446 7.381686138697048 a35.20254742059022,35.20254742059022 0 0,0 -0.31048500030634224,-0.5203907195772813 l 12.258817004338018 -7.171733325233656" fill="#ff990e" stroke="none" /><line stroke="#e1ed5e" stroke-width="0.3" x1="26.63291911575756" x2="22.317208475507996" y1="142.92168965132927" y2="145.44649492493687" /><path d="M 25.769776987707644 143.4266507060508 a86.0,86.0 0 0,1 -11.730757126820373,-40.83630448921669" fill="none" id="id21" stroke="none" /><text fill="#e1ed5e" style="font-size:6.75px; font-family:Arial;" text-anchor="middle"><textPath startOffset="21.46611528233685" xlink:href="#id21">September</textPath></text><path d="M 81.69416730710424 110.29060199501025 l -25.07890006425722 14.098073732207993 a49.76989592250507,49.76989592250507 0 0,0 -0.4133830451441743,-0.7504103021589098 l 25.317859518852913 -13.66429291165126" fill="#acff21" stroke="none" /><path d="M 81.18737489456691 109.33194174019688 l -12.749696185443774 6.324445490247421 a35.23212435233161,35.23212435233161 0 0,0 -0.2648226710267047,-0.5456131401991752 l 12.856672113085198 -6.104043394082962" fill="#ff990e" stroke="none" /><path d="M 80.73074385275274 108.34839909993369 l -13.030592464387807 5.645500042659325 a35.20098625816625,35.20098625816625 0 0,0 -0.23609639883456265,-0.558062145096144 l 13.125839844414676 -5.4203633718970226" fill="#ff990e" stroke="none" /><path d="M 80.45479744820244 107.68017299344265 l -39.63740659118579 15.57528702119965 a63.58771615228655,63.58771615228655 0 0,0 -0.3915359736226129,-1.022176876757833 l 39.89963684440191 -14.890686577608658" fill="#32ff4e" stroke="none" /><path d="M 80.0844068197444 106.66101706037122 l -7.786288065779454 2.6042205810139047 a29.210252534354588,29.210252534354588 0 0,0 -0.15538150275522142,-0.4782150930112983 l 7.829961819550924 -2.469806588024803" fill="#ff4306" stroke="none" /><path d="M 79.67330655649465 105.27499134158121 l -59.080878463930276 15.332111108795257 a82.03788848839828,82.03788848839828 0 0,0 -0.3429523051621444,-1.3699239813096409 l 59.336042083387476 -14.312859288088225" fill="#4ae5ff" stroke="none" /><line stroke="#e1ed5e" stroke-width="0.3" x1="15.007084014347285" x2="10.007500721073583" y1="101.09737516637583" y2="101.16192664675087" /><path d="M 14.007167355692545 101.11028546245083 a86.0,86.0 0 0,1 10.666146001902534,-42.60595125391555" fill="none" id="id22" stroke="none" /><text fill="#e1ed5e" style="font-size:6.75px; font-family:Arial;" text-anchor="middle"><textPath startOffset="22.20632615414155" xlink:href="#id22">October</textPath></text><path d="M 79.08570108090925 98.10471618934814 l -14.387416904176714 -1.303808386839793 a35.44637260644289,35.44637260644289 0 0,0 0.06029744350670723,-0.60718702734789 l 14.362842334987779 1.5512709448921131" fill="#ff9c0e" stroke="none" /><path d="M 80.52162464483688 92.15188598940014 l -7.936487953114445 -3.1977236891722685 a29.55647578283397,29.55647578283397 0 0,0 0.19419774619544383,-0.4702652460393192 l 7.880268520032801 3.333863505664899" fill="#ff4806" stroke="none" /><path d="M 81.26839172434947 90.50648371742162 l -7.717426829349109 -3.911330847083315 a29.652004730795223,29.652004730795223 0 0,0 0.234661117816659,-0.4532905884881354 l 7.648956278372336 4.0435941578317856" fill="#ff4a06" stroke="none" /><path d="M 81.6062741919709 89.86733742301443 l -6.718591156470805 -3.701110796787093 a28.67057287677405,28.67057287677405 0 0,0 0.2418463288042389,-0.4302176330041907 l 6.653887186374136 3.816211939726068" fill="#ff3b05" stroke="none" /><line stroke="#e1ed5e" stroke-width="0.3" x1="26.266209847984243" x2="21.928928074336255" y1="57.711370442889674" y2="55.22380399835377" /><path d="M 25.398753493254645 57.213857153982495 a86.0,86.0 0 0,1 29.58750427330803,-30.492523968695096" fill="none" id="id23" stroke="none" /><text fill="#e1ed5e" style="font-size:6.75px; font-family:Arial;" text-anchor="middle"><textPath startOffset="21.46611528233685" xlink:href="#id23">November</textPath></text><path d="M 81.96595687620814 89.24020034530311 l -11.6618303805338 -6.957893892138921 a34.57978553728317,34.57978553728317 0 0,0 0.30938073338601285,-0.5085405795000458 l 11.54033384886157 7.157602244846042" fill="#ff900d" stroke="none" /><path d="M 82.54541684631803 88.32363383020206 l -16.501222393801562 -11.038608783885675 a40.85299031313359,40.85299031313359 0 0,0 0.39603187295361636,-0.5811279057930391 l 16.308766055179206 11.32101471294913" fill="#ffe415" stroke="none" /><path d="M 83.39014120810768 87.1503855733568 l -10.54386651849609 -8.156879659615226 a34.3307091687317,34.3307091687317 0 0,0 0.36561538170961855,-0.4642944059478879 l 10.4018970561925 8.337166459516162" fill="#ff8d0c" stroke="none" /><path d="M 84.07557802195018 86.31012108654704 l -22.676513217543828 -19.494504764781958 a50.90417977021852,50.90417977021852 0 0,0 0.5769337601527689,-0.6595350209393 l 22.33758759381322 19.881955341924204" fill="#9eff22" stroke="none" /><path d="M 84.5562425177563 85.77008943001954 l -9.631362450927455 -8.874357584372927 a34.09646384320793,34.09646384320793 0 0,0 0.40141714606161033,-0.4282038234174146 l 9.47717798289539 9.038830824668391" fill="#ff890c" stroke="none" /><path d="M 85.83668400450813 84.49514656593479 l -20.247115895086395 -22.164905768943445 a51.02047217841856,51.02047217841856 0 0,0 0.6535212582695251,-0.5867378382927388 l 19.8625836492209 22.510142616005464" fill="#9dff22" stroke="none" /><path d="M 86.65592168130627 83.78471172551755 l -8.786403709488741 -10.676950902315212 a34.827442667267405,34.827442667267405 0 0,0 0.4661845604980274,-0.3769554936263246 l 8.601315750426213 10.82661249320567" fill="#ff930d" stroke="none" /><path d="M 87.22198572758235 83.33499621200491 l -8.084381058693994 -10.54359762749274 a34.28625861680559,34.28625861680559 0 0,0 0.4714423356589123,-0.3550805931936747 l 7.901692569276691 10.68119481019227" fill="#ff8c0c" stroke="none" /><path d="M 88.70189139769569 82.29822771554957 l -7.361261152956473 -11.533556035160572 a34.682510024780356,34.682510024780356 0 0,0 0.506002705678591,-0.31685884787515767 l 7.16163929490564 11.65855922435866" fill="#ff910d" stroke="none" /><line stroke="#e1ed5e" stroke-width="0.3" x1="56.762969772571076" x2="54.21961505331055" y1="26.818313649435495" y2="22.513508569990535" /><path d="M 56.25429882871897 25.957352633546506 a86.0,86.0 0 0,1 42.265352541879196,-11.944610805530505" fill="none" id="id24" stroke="none" /><text fill="#e1ed5e" style="font-size:6.75px; font-family:Arial;" text-anchor="middle"><textPath startOffset="22.20632615414155" xlink:href="#id24">December</textPath></text><path d="M 92.23578459929587 80.48803036053334 l -22.34715051978165 -56.15981782667016 a81.4427024104528,81.4427024104528 0 0,0 1.307026752392573,-0.507106074049394 l 21.377140602389403 56.5361666046101" fill="#4aebff" stroke="none" /></svg>