<?xml version="1.0" encoding="utf-8" ?>
<svg baseProfile="full" height="200mm" version="1.1" viewBox="0,0,200,200" width="200mm" xmlns="http://www.w3.org/2000/svg" xmlns:ev="http://www.w3.org/2001/xml-events" xmlns:xlink="http://www.w3.org/1999/xlink"><defs /><rect fill="#1a1a1a" height="200" width="200" x="0" y="0" /><text alignment-baseline="middle" fill="#e1ed5e" style="dominant-baseline: central; font-size:9.0px; font-family:Arial;" text-anchor="middle" x="100.0" y="100.0">2024</text><line stroke="#e1ed5e" stroke-width="0.3" x1="100.0" x2="100.0" y1="15.0" y2="10.0" /><path d="M 100.0 14.0 a86.0,86.0 0 0,1 42.35913384403234,11.155469271406648" fill="none" id="id109" stroke="none" /><text fill="#e1ed5e" style="font-size:6.75px; font-family:Arial;" text-anchor="middle"><textPath startOffset="22.145653131862478" xlink:href="#id109">January</textPath></text><path d="M 104.9986988182912 79.60360301121754 l 2.2104826899411436 -9.019523704027415 a30.286443967958988,30.286443967958988 0 0,0 0.5039011052109786,0.1280896904546873 l -2.364989088377517 8.980248781737462" fill="#ff0701" stroke="none" /><path d="M 107.06938296918511 80.22567764915836 l 3.9950282912300907 -11.174805152849437 a32.86745639351075,32.86745639351075 0 0,0 0.529652561957097,0.19449575720306841 l -4.186270004841313 11.104578546637647" fill="#ff3104" stroke="none" /><path d="M 109.06512990194946 81.05736502329252 l 5.126879604408111 -10.713206536063469 a32.876770973730565,32.876770973730565 0 0,0 0.5069907293905245,0.2479945713743424 l -5.310030583060702 10.623618214591904" fill="#ff3104" stroke="none" /><line stroke="#e1ed5e" stroke-width="0.3" x1="143.13028292997686" x2="145.6673583964461" y1="26.7553504044142" y2="22.446841604673864" /><path d="M 143.63769802327073 25.89364864446614 a86.0,86.0 0 0,1 29.32050498858742,28.57503671076993" fill="none" id="id110" stroke="none" /><text fill="#e1ed5e" style="font-size:6.75px; font-family:Arial;" text-anchor="middle"><textPath startOffset="20.669276256404974" xlink:href="#id110">February</textPath></text><path d="M 114.39649973595853 84.71141617570332 l 6.097962603982187 -6.4758249670610555 a29.895024278976226,29.895024278976226 0 0,0 0.3705951121686677,0.3550217342569924 l -6.208230202016167 6.370191102498483" fill="#ff0000" stroke="none" /><line stroke="#e1ed5e" stroke-width="0.3" x1="172.87174338648825" x2="177.1583165268699" y1="56.24261187166439" y2="53.66864786411523" /><path d="M 173.72905801456457 55.72781907015455 a86.0,86.0 0 0,1 12.242430191666344,42.057860355516425" fill="none" id="id111" stroke="none" /><text fill="#e1ed5e" style="font-size:6.75px; font-family:Arial;" text-anchor="middle"><textPath startOffset="22.145653131862474" xlink:href="#id111">March</textPath></text><path d="M 118.36410011445183 89.81374322990088 l 7.779694833242421 -4.315265581788963 a29.896357048801,29.896357048801 0 0,0 0.24508556645291732,0.45092983771072337 l -7.85262574931068 4.181080910603637" fill="#ff0000" stroke="none" /><path d="M 118.8641267826498 90.77261029715802 l 13.319162585034675 -6.51506985208903 a35.827212386156305,35.827212386156305 0 0,0 0.2654979703219751,0.5547886454207762 l -13.429039813316562 6.285468704603151" fill="#ff6008" stroke="none" /><path d="M 119.4528033332814 92.08871423366111 l 17.850030223453373 -7.259451895754322 a40.269748851631924,40.269748851631924 0 0,0 0.25492922719606365,0.6425881846308121 l -17.97201812561556 6.951962693909945" fill="#ffa50f" stroke="none" /><path d="M 119.94978838288452 93.4421083053983 l 16.89962125687246 -5.555241176264239 a38.789263704611194,38.789263704611194 0 0,0 0.2025081881450462,0.6343540150702015 l -16.992494160794763 5.2643181275026505" fill="#ff8e0d" stroke="none" /><path d="M 120.16314734710363 94.1308016681162 l 30.014467751040346 -8.736774126787846 a52.26019028286217,52.26019028286217 0 0,0 0.24333715287273988,0.8635177106416153 l -30.160023395987665 8.220248492243218" fill="#b2ff20" stroke="none" /><path d="M 120.43855184770803 95.1765574152323 l 17.310788483166355 -4.0852989471939685 a38.78631680244308,38.78631680244308 0 0,0 0.14736794290563526,0.6493303476525162 l -17.378367287629658 3.7875342656024262" fill="#ff8e0d" stroke="none" /><path d="M 120.592083275326 95.88100663000786 l 17.44104242103688 -3.4886969490883235 a38.78653893074721,38.78653893074721 0 0,0 0.12499185233267282,0.6540101879339559 l -17.49836056565171 3.1887841961210532" fill="#ff8e0d" stroke="none" /><path d="M 120.77682067341334 96.94652285012252 l 46.896182330565765 -6.8921238438617 a68.39992920101037,68.39992920101037 0 0,0 0.16075769396690961,1.1631625921889133 l -47.00758454108789 6.0860729434727014" fill="#37ff76" stroke="none" /><path d="M 120.99303781780057 99.45929381324524 l 62.97911345340172 -1.6221185602642854 a84.0,84.0 0 0,0 0.024754273605335886,1.4418123361237345 l -62.99767915860572 0.5407593081714844" fill="#4dd2ff" stroke="none" /><line stroke="#e1ed5e" stroke-width="0.3" x1="184.99686870605535" x2="189.99668451229388" y1="99.2704041080226" y2="99.22748670261217" /><path d="M 185.99683186730306 99.26182062694052 a86.0,86.0 0 0,1 -10.086455211305974,41.156179273409016" fill="none" id="id112" stroke="none" /><text fill="#e1ed5e" style="font-size:6.75px; font-family:Arial;" text-anchor="middle"><textPath startOffset="21.40746469413373" xlink:href="#id112">April</textPath></text><path d="M 120.93736805541906 101.62068470465957 l 12.091147490353206 0.9359312855144902 a33.12731689223463,33.12731689223463 0 0,0 -0.048754540708709916,0.5666016659336919 l -12.073299326946756 -1.1433539988238395" fill="#ff3505" stroke="none" /><path d="M 120.7213421655516 103.40968896794604 l 11.696553645714703 1.924663451341679 a32.85384733274444,32.85384733274444 0 0,0 -0.09634810400330175,0.5557102603787705 l -11.661790724219166 -2.1251667446410374" fill="#ff3104" stroke="none" /><path d="M 120.592083275326 104.11899336999214 l 14.539591692801967 2.9083255435745072 a35.827612217103734,35.827612217103734 0 0,0 -0.12581000669458076,0.6020464257686571 l -14.487523975283022 -3.1574884206285736" fill="#ff6008" stroke="none" /><path d="M 120.43855184770803 104.8234425847677 l 17.299762815361586 4.082696919613382 a38.774988258932495,38.774988258932495 0 0,0 -0.15844655484764686,0.6465160137978352 l -17.227128733997645 -4.379068758019317" fill="#ff8e0d" stroke="none" /><path d="M 119.83427380445688 106.89939002012753 l 16.837321689254235 5.856894503614948 a38.826907047884276,38.826907047884276 0 0,0 -0.22438223033575513,0.6276370330763783 l -16.73429928887454 -6.145066493072247" fill="#ff8f0d" stroke="none" /><path d="M 119.4528033332814 107.91128576633889 l 13.73255254267661 5.584909568303955 a35.824783783364495,35.824783783364495 0 0,0 -0.2365700778962419,0.567682066638048 l -13.634656620243883 -5.819824144383281" fill="#ff6008" stroke="none" /><path d="M 119.31412917781788 108.2440532568976 l 16.364826715943224 6.985171412288296 a38.79326201408552,38.79326201408552 0 0,0 -0.26668726861296355,0.6102326609703027 l -16.242505565313294 -7.265066143034443" fill="#ff8e0d" stroke="none" /><path d="M 119.0197475246899 108.90220220490707 l 10.750273224424289 5.03167068214717 a32.86954439956956,32.86954439956956 0 0,0 -0.24358013761812547,0.5089888048360007 l -10.662313828846251 -5.215471989048274" fill="#ff3104" stroke="none" /><path d="M 118.8641267826498 109.22738970284198 l 15.979882340076792 7.81656121464735 a38.78918966184315,38.78918966184315 0 0,0 -0.29771642648297403,0.5956322852936659 l -15.843346000382084 -8.089725356104761" fill="#ff8e0d" stroke="none" /><line stroke="#e1ed5e" stroke-width="0.3" x1="174.33088141563837" x2="178.70328620479359" y1="141.23008692659167" y2="143.65538615756765" /><path d="M 175.20536237346943 141.71514677278685 a86.0,86.0 0 0,1 -30.301960400862466,31.631185727798858" fill="none" id="id113" stroke="none" /><text fill="#e1ed5e" style="font-size:6.75px; font-family:Arial;" text-anchor="middle"><textPath startOffset="22.145653131862474" xlink:href="#id113">May</textPath></text><path d="M 117.62189284568427 111.42229804090321 l 26.25428409093919 17.017709752485246 a52.28721589319788,52.28721589319788 0 0,0 -0.49467580737400885,0.7490022212525509 l -25.958283844644455 -17.465891852076858" fill="#b2ff20" stroke="none" /><path d="M 117.21940702142032 112.02048342749411 l 9.444110314436612 6.592722466046205 a32.51760431450735,32.51760431450735 0 0,0 -0.3234493606322664,0.45497203240245465 l -9.329545855274386 -6.753871725158164" fill="#ff2b04" stroke="none" /><path d="M 116.1254893667686 113.45245675266167 l 24.00591962059197 20.026591947615405 a52.26257445999316,52.26257445999316 0 0,0 -0.5806258450776492,0.6839757855385497 l -23.658599212007207 -20.43573451560351" fill="#b2ff20" stroke="none" /><path d="M 115.41159269507618 114.26474011684316 l 10.87958320132466 10.069979788399904 a35.824635697828406,35.824635697828406 0 0,0 -0.4216118914877152,0.4477372182510616 l -10.705115476100685 -10.255258466595462" fill="#ff6008" stroke="none" /><path d="M 115.16444852881244 114.52719865689866 l 12.838715142001556 12.299198682551465 a38.779282739478994,38.779282739478994 0 0,0 -0.4646371132932191,0.47675861053441654 l -12.62569122755753 -12.517779985153618" fill="#ff8e0d" stroke="none" /><path d="M 114.39649973595853 115.28858382429668 l 32.493060352536254 34.50650408216092 a68.3972340442536,68.3972340442536 0 0,0 -0.8617081834562037,0.7975842300508551 l -31.895922397766082 -35.05920605834416" fill="#37ff76" stroke="none" /><path d="M 113.31354834802062 116.24036423190432 l 5.64483073834572 6.88577566414242 a29.90382055981974,29.90382055981974 0 0,0 -0.3997845040763882,0.32203809722376814 l -5.52579546391408 -6.9816620551595925" fill="#ff0000" stroke="none" /><line stroke="#e1ed5e" stroke-width="0.3" x1="143.1302829299769" x2="145.66735839644613" y1="173.24464959558577" y2="177.55315839532614" /><path d="M 143.63769802327073 174.10635135553383 a86.0,86.0 0 0,1 -40.68552437913181,11.842963189579606" fill="none" id="id114" stroke="none" /><text fill="#e1ed5e" style="font-size:6.75px; font-family:Arial;" text-anchor="middle"><textPath startOffset="21.407464694133747" xlink:href="#id114">June</textPath></text><line stroke="#e1ed5e" stroke-width="0.3" x1="101.45913802915013" x2="101.54496967792366" y1="184.9874750549273" y2="189.98673829345242" /><path d="M 101.47630435890484 185.9873277026323 a86.0,86.0 0 0,1 -42.54439059252881,-10.42667462771756" fill="none" id="id115" stroke="none" /><text fill="#e1ed5e" style="font-size:6.75px; font-family:Arial;" text-anchor="middle"><textPath startOffset="22.145653131862474" xlink:href="#id115">July</textPath></text><line stroke="#e1ed5e" stroke-width="0.3" x1="58.13341422392154" x2="55.67067388415222" y1="173.97424548756322" y2="178.32567169271397" /><path d="M 57.64086615596768 174.84453072859336 a86.0,86.0 0 0,1 -31.369924170532247,-30.572349798747897" fill="none" id="id116" stroke="none" /><text fill="#e1ed5e" style="font-size:6.75px; font-family:Arial;" text-anchor="middle"><textPath startOffset="22.145653131862474" xlink:href="#id116">August</textPath></text><line stroke="#e1ed5e" stroke-width="0.3" x1="26.387840678322732" x2="22.057713659400548" y1="142.50000000000003" y2="145.00000000000006" /><path d="M 25.521815274538298 143.00000000000003 a86.0,86.0 0 0,1 -11.493303480769221,-40.785679425670985" fill="none" id="id117" stroke="none" /><text fill="#e1ed5e" style="font-size:6.75px; font-family:Arial;" text-anchor="middle"><textPath startOffset="21.40746469413373" xlink:href="#id117">September</textPath></text><line stroke="#e1ed5e" stroke-width="0.3" x1="15.003131293944662" x2="10.003315487706104" y1="100.72959589197737" y2="100.7725132973878" /><path d="M 14.003168132696942 100.73817937305945 a86.0,86.0 0 0,1 10.791469493833604,-42.45332614584628" fill="none" id="id118" stroke="none" /><text fill="#e1ed5e" style="font-size:6.75px; font-family:Arial;" text-anchor="middle"><textPath startOffset="22.145653131862435" xlink:href="#id118">October</textPath></text><line stroke="#e1ed5e" stroke-width="0.3" x1="26.387840678322718" x2="22.05771365940052" y1="57.49999999999999" y2="54.99999999999999" /><path d="M 25.521815274538284 56.99999999999999 a86.0,86.0 0 0,1 29.574782752854787,-30.34633250058573" fill="none" id="id119" stroke="none" /><text fill="#e1ed5e" style="font-size:6.75px; font-family:Arial;" text-anchor="middle"><textPath startOffset="21.40746469413373" xlink:href="#id119">November</textPath></text><line stroke="#e1ed5e" stroke-width="0.3" x1="56.869717070023135" x2="54.33264160355391" y1="26.7553504044142" y2="22.446841604673864" /><path d="M 56.362301976729285 25.89364864446614 a86.0,86.0 0 0,1 42.16139366436587,-11.88097634709845" fill="none" id="id120" stroke="none" /><text fill="#e1ed5e" style="font-size:6.75px; font-family:Arial;" text-anchor="middle"><textPath startOffset="22.145653131862474" xlink:href="#id120">December</textPath></text></svg>