<?xml version="1.0" encoding="utf-8" ?>
<svg baseProfile="full" height="200mm" version="1.1" viewBox="0,0,200,200" width="200mm" xmlns="http://www.w3.org/2000/svg" xmlns:ev="http://www.w3.org/2001/xml-events" xmlns:xlink="http://www.w3.org/1999/xlink"><defs /><rect fill="#1a1a1a" height="200" width="200" x="0" y="0" /><text alignment-baseline="middle" fill="#e1ed5e" style="dominant-baseline: central; font-size:9.0px; font-family:Arial;" text-anchor="middle" x="100.0" y="100.0">2018</text><line stroke="#e1ed5e" stroke-width="0.3" x1="100.0" x2="100.0" y1="15.0" y2="10.0" /><path d="M 100.0 14.0 a86.0,86.0 0 0,1 42.46469731375804,11.215312516191453" fill="none" id="id37" stroke="none" /><text fill="#e1ed5e" style="font-size:6.75px; font-family:Arial;" text-anchor="middle"><textPath startOffset="22.20632615414155" xlink:href="#id37">January</textPath></text><path d="M 100.36148047927253 79.00311137660856 l 0.1450721405197263 -8.426633667687458 a29.42788234940182,29.42788234940182 0 0,0 0.5064025173187092,0.013078882989388241 l -0.29010129303330334 8.42288799255571" fill="#ff4d07" stroke="none" /><path d="M 105.36241919743992 79.69619591428918 l 1.9423638565522128 -7.354399899476277 a28.606574474272705,28.606574474272705 0 0,0 0.4750082333932384,0.12983769372634202 l -2.068669979169162 7.319875664923642" fill="#ff4206" stroke="none" /><path d="M 106.40334571778207 80.00007090966166 l 3.956860409046732 -12.358684208091221 a33.97666442703998,33.97666442703998 0 0,0 0.5554653590813246,0.18312819564715938 l -4.169008590370474 12.288742288184825" fill="#ff8e0d" stroke="none" /><path d="M 110.36928655335952 81.73862282372117 l 6.313973059497087 -11.119554168650412 a33.78713184047172,33.78713184047172 0 0,0 0.5032726304916334,0.2915279915813219 l -6.504442422454049 11.00922201967904" fill="#ff8b0c" stroke="none" /><line stroke="#e1ed5e" stroke-width="0.3" x1="143.23703022742887" x2="145.7803849466894" y1="26.81831364943548" y2="22.513508569990506" /><path d="M 143.74570117128098 25.957352633546492 a86.0,86.0 0 0,1 28.547481713284135,27.462654790039103" fill="none" id="id38" stroke="none" /><text fill="#e1ed5e" style="font-size:6.75px; font-family:Arial;" text-anchor="middle"><textPath startOffset="19.985693538727396" xlink:href="#id38">February</textPath></text><path d="M 112.19680574252982 82.90503203632743 l 7.434108374842934 -10.419600606023117 a33.799767346242945,33.799767346242945 0 0,0 0.47070953650290587,0.3419904966070509 l -7.612363227699628 10.290090874599391" fill="#ff8b0c" stroke="none" /><path d="M 112.77801427241765 83.33499621200491 l 7.71916665600777 -10.067287359368066 a33.686047794301984,33.686047794301984 0 0,0 0.4571155698437879,0.35678595291010035 l -7.891314781010989 9.932923017234742" fill="#ff8a0c" stroke="none" /><line stroke="#e1ed5e" stroke-width="0.3" x1="172.23445277983987" x2="176.4835382374775" y1="55.19839476539836" y2="52.563006222186495" /><path d="M 173.08426987136738 54.67131705675599 a86.0,86.0 0 0,1 12.851231095245387,41.99856678651699" fill="none" id="id39" stroke="none" /><text fill="#e1ed5e" style="font-size:6.75px; font-family:Arial;" text-anchor="middle"><textPath startOffset="22.20632615414155" xlink:href="#id39">March</textPath></text><path d="M 118.56541770881063 90.18545643968196 l 6.814090475661301 -3.602245252235186 a28.707658520442443,28.707658520442443 0 0,0 0.227187716293245,0.43885435548082163 l -6.875087625114662 3.4844181744940195" fill="#ff4306" stroke="none" /><path d="M 119.61058180528143 92.48833698450437 l 11.858503222640321 -4.542296651935808 a33.698683300073206,33.698683300073206 0 0,0 0.2028266163174363,0.5434744926814661 l -11.934934427459384 4.337499022225008" fill="#ff8a0c" stroke="none" /><path d="M 119.85752413597 93.16781622104841 l 12.509648775274876 -4.304072293080942 a34.22937454246433,34.22937454246433 0 0,0 0.18689679607326856,0.5587976315858564 l -12.581882865119914 4.088101558572772" fill="#ff910d" stroke="none" /><path d="M 120.28053869075195 94.5502522615342 l 22.741752765255516 -6.111120497884777 a44.548526760196154,44.548526760196154 0 0,0 0.19262712569522816,0.7422708928535868 l -22.843576222821046 5.718753179482339" fill="#e6ff1a" stroke="none" /><path d="M 120.78858239683441 97.02765380044208 l 53.21854161710393 -7.609173482925943 a74.75976834906086,74.75976834906086 0 0,0 0.17117851293962813,1.2754787500458646 l -53.341636129101396 6.691976390815414" fill="#41ffd0" stroke="none" /><line stroke="#e1ed5e" stroke-width="0.3" x1="184.98032266829074" x2="189.97916517819016" y1="98.17113171792111" y2="98.06355123074" /><path d="M 185.9800911702706 98.14961562048488 a86.0,86.0 0 0,1 -9.607161424134198,41.387399972396054" fill="none" id="id40" stroke="none" /><text fill="#e1ed5e" style="font-size:6.75px; font-family:Arial;" text-anchor="middle"><textPath startOffset="21.466115282336823" xlink:href="#id40">April</textPath></text><path d="M 120.49622156327973 104.57218783832717 l 52.1340805611373 11.629792758049113 a74.4154887233125,74.4154887233125 0 0,0 -0.289651425440233,1.247810759914417 l -51.92616856976651 -12.525472175312096" fill="#41ffcc" stroke="none" /><path d="M 119.67450827220406 107.3425965602758 l 11.837969658061589 4.417972438718273 a33.63550577121712,33.63550577121712 0 0,0 -0.2071077764278091,0.5406930507624134 l -11.760167602040273 -4.6210890563138305" fill="#ff890c" stroke="none" /><path d="M 119.12269723197855 108.67885076344098 l 5.787492879602807 2.626658069582014 a27.35565940292221,27.35565940292221 0 0,0 -0.19829646353375732,0.42711294117015997 l -5.741421799229219 -2.7258910780310046" fill="#ff2f04" stroke="none" /><path d="M 118.81262510543309 109.33194174019688 l 23.880501319667573 11.84584531892218 a47.65712652553675,47.65712652553675 0 0,0 -0.3708662386174904,0.7317542728814826 l -23.673056411263815 -12.255153803506358" fill="#c1ff1e" stroke="none" /><line stroke="#e1ed5e" stroke-width="0.3" x1="174.80103733775053" x2="179.2010983576182" y1="140.37084112569926" y2="142.7455964860345" /><path d="M 175.68104954172406 140.8457921977663 a86.0,86.0 0 0,1 -30.038265399797805,32.042727171017184" fill="none" id="id41" stroke="none" /><text fill="#e1ed5e" style="font-size:6.75px; font-family:Arial;" text-anchor="middle"><textPath startOffset="22.206326154141568" xlink:href="#id41">May</textPath></text><path d="M 117.14729908036423 112.12312394758627 l 10.410227602816422 7.36002089658814 a33.74922532315807,33.74922532315807 0 0,0 -0.3394532561866672,0.47147088342248883 l -10.281994554254151 -7.53812538546176" fill="#ff8a0c" stroke="none" /><path d="M 116.71984013943494 112.70617746262583 l 8.239281323441995 6.261409785446112 a31.348478594851535,31.348478594851535 0 0,0 -0.33019379789364117,0.4268199943494149 l -8.130280708330286 -6.402307773908779" fill="#ff6909" stroke="none" /><line stroke="#e1ed5e" stroke-width="0.3" x1="143.8653032363475" x2="146.44561519142675" y1="172.8068346515853" y2="177.08958963109032" /><path d="M 144.38136562736335 173.6633856474863 a86.0,86.0 0 0,1 -40.68145358897372,12.25698825130547" fill="none" id="id42" stroke="none" /><text fill="#e1ed5e" style="font-size:6.75px; font-family:Arial;" text-anchor="middle"><textPath startOffset="21.466115282336833" xlink:href="#id42">June</textPath></text><line stroke="#e1ed5e" stroke-width="0.3" x1="102.19456741930631" x2="102.32365962044197" y1="184.97166512339345" y2="189.96999836594603" /><path d="M 102.22038585953345 185.97133177190398 a86.0,86.0 0 0,1 -42.740103519485714,-10.115201625700543" fill="none" id="id43" stroke="none" /><text fill="#e1ed5e" style="font-size:6.75px; font-family:Arial;" text-anchor="middle"><textPath startOffset="22.20632615414155" xlink:href="#id43">July</textPath></text><path d="M 96.93821686468263 120.77559828337769 l -0.9223852359769197 6.2588054993609825 a27.326408207061846,27.326408207061846 0 0,0 -0.4647625232360178,-0.07258634780542145 l 1.0299836228214547 -6.242000844208456" fill="#ff2f04" stroke="none" /><path d="M 95.51606077576429 120.51570834832081 l -2.1605600283204436 9.885374710362457 a31.11872782518878,31.11872782518878 0 0,0 -0.5223202159479385,-0.11887838062112249 l 2.330400393661245 -9.846719596163648" fill="#ff6609" stroke="none" /><line stroke="#e1ed5e" stroke-width="0.3" x1="58.666819895761336" x2="56.23545636021788" y1="174.27360380694188" y2="178.64263932499728" /><path d="M 58.180547188652646 175.14741091055294 a86.0,86.0 0 0,1 -31.652253787137756,-30.449443065178592" fill="none" id="id44" stroke="none" /><text fill="#e1ed5e" style="font-size:6.75px; font-family:Arial;" text-anchor="middle"><textPath startOffset="22.20632615414155" xlink:href="#id44">August</textPath></text><path d="M 88.54995079064634 117.60387380957326 l -3.4472089808190507 5.299910138726093 a27.322364845215052,27.322364845215052 0 0,0 -0.39204380086290963,-0.25982525371687804 l 3.537927480421922 -5.239786863917897" fill="#ff2f04" stroke="none" /><path d="M 86.24171649860922 115.8653595955263 l -4.9713514571590425 5.732712117438117 a28.58803818730633,28.58803818730633 0 0,0 -0.3690003031460892,-0.3255998645968457 l 5.069294113211719 -5.646289111068983" fill="#ff4106" stroke="none" /><path d="M 84.67929136418377 114.36230785411682 l -19.50317190741177 18.28313335397409 a47.73287638263521,47.73287638263521 0 0,0 -0.5567780726963014,-0.6042726329069584 l 19.8149963881038 -17.944709466265788" fill="#c0ff1e" stroke="none" /><path d="M 83.28015986056508 112.70617746262583 l -10.148016590357571 7.711945725284446 a33.745836480510235,33.745836480510235 0 0,0 -0.3474836635647772,-0.4655111523137504 l 10.279261520617432 -7.5361216934613875" fill="#ff8a0c" stroke="none" /><path d="M 83.06392112726016 112.41649034213515 l -10.89936259991811 7.99074162763502 a34.51473480480149,34.51473480480149 0 0,0 -0.34715283102719136,-0.4821649194521299 l 11.035295223320908 -7.8019431027317525" fill="#ff950d" stroke="none" /><line stroke="#e1ed5e" stroke-width="0.3" x1="26.63291911575756" x2="22.317208475507996" y1="142.92168965132927" y2="145.44649492493687" /><path d="M 25.769776987707644 143.4266507060508 a86.0,86.0 0 0,1 -11.730757126820373,-40.83630448921669" fill="none" id="id45" stroke="none" /><text fill="#e1ed5e" style="font-size:6.75px; font-family:Arial;" text-anchor="middle"><textPath startOffset="21.46611528233685" xlink:href="#id45">September</textPath></text><path d="M 81.69416730710424 110.29060199501025 l -11.041163566978708 6.206776918357831 a33.66615066336405,33.66615066336405 0 0,0 -0.27962718469762693,-0.5076045634324649 l 11.146367161127852 -6.015801836527544" fill="#ff890c" stroke="none" /><path d="M 80.58989483394504 108.01547362559985 l -58.23031549816486 24.046420876799544 a84.0,84.0 0 0,0 -0.5403895429704488,-1.3412025286287785 l 58.6356076553927 -23.04051898032796" fill="#4dd2ff" stroke="none" /><path d="M 80.45479744820244 107.68017299344265 l -7.169821381935892 2.8173393649628546 a28.70348880353794,28.70348880353794 0 0,0 -0.17673929990100568,-0.4614105414163204 l 7.217254961430407 -2.6935052567133764" fill="#ff4306" stroke="none" /><path d="M 79.76711848015287 105.62410040840567 l -6.090767106945169 1.6930403976355113 a27.32169516340918,27.32169516340918 0 0,0 -0.12205241813728764,-0.4542024525028653 l 6.119007601424231 -1.587947011957107" fill="#ff2f04" stroke="none" /><path d="M 79.67330655649465 105.27499134158121 l -12.237342531759063 3.17571945867161 a33.642695374000944,33.642695374000944 0 0,0 -0.14064038145025035,-0.5617884131093467 l 12.290194227504372 -2.9646032061648713" fill="#ff890c" stroke="none" /><path d="M 79.4281124754447 104.21870165774334 l -12.383657806656716 2.5395315648848467 a33.641368645894964,33.641368645894964 0 0,0 -0.11144915578501076,-0.5682768442751306 l 12.425536895417393 -2.3259909935417613" fill="#ff890c" stroke="none" /><path d="M 79.29508885075956 103.50808413554451 l -12.463248169242892 2.1116788603789343 a33.64087586116989,33.64087586116989 0 0,0 -0.09182076124342191,-0.5717679679125586 l 12.497750684847604 -1.8968316627731623" fill="#ff890c" stroke="none" /><path d="M 79.23777060512086 103.15116336523772 l -12.498750080159382 1.896983344841305 a33.641886701631584,33.641886701631584 0 0,0 -0.08196757422290656,-0.5732810232048194 l 12.52955170539889 -1.6815568496560849" fill="#ff890c" stroke="none" /><path d="M 79.18660465613746 102.79330883721812 l -20.04058280193882 2.689591780620479 a41.22025872702294,41.22025872702294 0 0,0 -0.08832616338906998,-0.7040464270982205 l 20.083910474574736 -2.34422759923485" fill="#ffee16" stroke="none" /><path d="M 79.10278846688536 102.07522291339032 l -11.39017583094802 1.1311152128824182 a32.44620142600708,32.44620142600708 0 0,0 -0.050408115276134036,-0.5562493516316477 l 11.40795854250123 -0.9348844727022043" fill="#ff780b" stroke="none" /><line stroke="#e1ed5e" stroke-width="0.3" x1="15.007084014347285" x2="10.007500721073583" y1="101.09737516637583" y2="101.16192664675087" /><path d="M 14.007167355692545 101.11028546245083 a86.0,86.0 0 0,1 10.666146001902534,-42.60595125391555" fill="none" id="id46" stroke="none" /><text fill="#e1ed5e" style="font-size:6.75px; font-family:Arial;" text-anchor="middle"><textPath startOffset="22.20632615414155" xlink:href="#id46">October</textPath></text><path d="M 79.00175016825051 100.2711162175752 l -16.4385853468791 0.21224469264073517 a37.43995547488443,37.43995547488443 0 0,0 -0.002773592391103057,-0.6444851924117682 l 16.439803236559708 0.07074997797470842" fill="#ffbd11" stroke="none" /><path d="M 79.00019446554 99.90962569577889 l -12.64860537974651 -0.05443426172143856 a33.64872251025381,33.64872251025381 0 0,0 0.007478016593015193,-0.5791806261924367 l 12.645794356035779 0.27215114597434725" fill="#ff890c" stroke="none" /><path d="M 79.00486145842228 99.54816195383935 l -12.648270341848404 -0.2722044318619199 a33.65119906938497,33.65119906938497 0 0,0 0.017447835114351242,-0.5790087047006208 l 12.641710812278408 0.4898832839875351" fill="#ff890c" stroke="none" /><path d="M 79.08570108090925 98.10471618934814 l -12.595731375471846 -1.1414432705396778 a33.64734524012475,33.64734524012475 0 0,0 0.05723713738760179,-0.5763701623670804 l 12.574217112402016 1.3580889636111884" fill="#ff890c" stroke="none" /><path d="M 79.16333360222342 97.38593545837743 l -6.275046325424651 -0.7872361050077518 a27.324234900069193,27.324234900069193 0 0,0 0.06256469222280457,-0.46617962770530885 l 6.2605656341440135 0.8951340747777201" fill="#ff2f04" stroke="none" /><path d="M 79.21141760316559 97.0276538004421 l -12.514539395371253 -1.7893256452500421 a33.64181088859696,33.64181088859696 0 0,0 0.08689857022551886,-0.5725530034439017 l 12.481884931706432 2.004477761086036" fill="#ff890c" stroke="none" /><path d="M 79.26566170972629 96.67025291283419 l -12.485951996728723 -2.0051308949223654 a33.645930063478374,33.645930063478374 0 0,0 0.09675309923591541,-0.5710422685693062 l 12.449587035972584 2.2197589518074996" fill="#ff890c" stroke="none" /><path d="M 80.52162464483688 92.15188598940014 l -5.86685876347439 -2.363840701305157 a27.325169927496265,27.325169927496265 0 0,0 0.1795371834354228,-0.43476353045052146 l 5.825299893152768 2.46447880220899" fill="#ff2f04" stroke="none" /><line stroke="#e1ed5e" stroke-width="0.3" x1="26.266209847984243" x2="21.928928074336255" y1="57.711370442889674" y2="55.22380399835377" /><path d="M 25.398753493254645 57.213857153982495 a86.0,86.0 0 0,1 29.58750427330803,-30.492523968695096" fill="none" id="id47" stroke="none" /><text fill="#e1ed5e" style="font-size:6.75px; font-family:Arial;" text-anchor="middle"><textPath startOffset="21.46611528233685" xlink:href="#id47">November</textPath></text><path d="M 82.15384107792192 88.93136811851018 l -45.50669052270086 -28.224381937869953 a74.54880594470461,74.54880594470461 0 0,0 0.6857510495872313,-1.0846934769762366 l 45.014111876867666 29.003523062560404" fill="#41ffcd" stroke="none" /><path d="M 83.84228863543731 86.58626213691792 l -8.82435714665294 -7.325766063319024 a32.46892006538373,32.46892006538373 0 0,0 0.3606978306089987,-0.42695246148873034 l 8.696948702556815 7.476577474436869" fill="#ff790b" stroke="none" /><path d="M 85.57189188830299 84.74124197986013 l -4.352193039954245 -4.602755949670229 a27.33458337929582,27.33458337929582 0 0,0 0.34466581802808066,-0.32032931481927934 l 4.272319338131308 4.676989850564156" fill="#ff2f04" stroke="none" /><path d="M 87.80319425747018 82.90503203632743 l -7.097570031453453 -9.947910532389344 a33.22032832258647,33.22032832258647 0 0,0 0.4683573690059443,-0.3281142677363202 l 6.925281522863848 10.068609642889607" fill="#ff830c" stroke="none" /><line stroke="#e1ed5e" stroke-width="0.3" x1="56.762969772571076" x2="54.21961505331055" y1="26.818313649435495" y2="22.513508569990535" /><path d="M 56.25429882871897 25.957352633546506 a86.0,86.0 0 0,1 42.265352541879196,-11.944610805530505" fill="none" id="id48" stroke="none" /><text fill="#e1ed5e" style="font-size:6.75px; font-family:Arial;" text-anchor="middle"><textPath startOffset="22.20632615414155" xlink:href="#id48">December</textPath></text><path d="M 89.3179101791058 81.91981866633112 l -29.9806205176403 -50.74428923023927 a79.93912534221161,79.93912534221161 0 0,0 1.1907247433765773,-0.6897446273278411 l 29.102699041798402 51.252838014957156" fill="#48f9ff" stroke="none" /><path d="M 89.63071344664047 81.73862282372117 l -1.5750180840500245 -2.773768392289148 a24.189744983403365,24.189744983403365 0 0,0 0.3638551300832121,-0.20248498595371808 l 1.5270388648947668 2.8004687758030506" fill="#ff0000" stroke="none" /><path d="M 99.27714615592234 79.0124445844662 l -0.43548683909363756 -12.644055562678046 a33.65155286354657,33.65155286354657 0 0,0 0.5790845185341538,-0.014956044647992987 l 0.21777568536460484 12.6496783994684" fill="#ff890c" stroke="none" /></svg>