<?xml version="1.0" encoding="utf-8" ?>
<svg baseProfile="full" height="200mm" version="1.1" viewBox="0,0,200,200" width="200mm" xmlns="http://www.w3.org/2000/svg" xmlns:ev="http://www.w3.org/2001/xml-events" xmlns:xlink="http://www.w3.org/1999/xlink"><defs /><rect fill="#1a1a1a" height="200" width="200" x="0" y="0" /><text alignment-baseline="middle" fill="#e1ed5e" style="dominant-baseline: central; font-size:9.0px; font-family:Arial;" text-anchor="middle" x="100.0" y="100.0">2022</text><line stroke="#e1ed5e" stroke-width="0.3" x1="100.0" x2="100.0" y1="15.0" y2="10.0" /><path d="M 100.0 14.0 a86.0,86.0 0 0,1 42.46469731375804,11.215312516191453" fill="none" id="id73" stroke="none" /><text fill="#e1ed5e" style="font-size:6.75px; font-family:Arial;" text-anchor="middle"><textPath startOffset="22.20632615414155" xlink:href="#id73">January</textPath></text><line stroke="#e1ed5e" stroke-width="0.3" x1="143.23703022742887" x2="145.7803849466894" y1="26.81831364943548" y2="22.513508569990506" /><path d="M 143.74570117128098 25.957352633546492 a86.0,86.0 0 0,1 28.547481713284135,27.462654790039103" fill="none" id="id74" stroke="none" /><text fill="#e1ed5e" style="font-size:6.75px; font-family:Arial;" text-anchor="middle"><textPath startOffset="19.985693538727396" xlink:href="#id74">February</textPath></text><line stroke="#e1ed5e" stroke-width="0.3" x1="172.23445277983987" x2="176.4835382374775" y1="55.19839476539836" y2="52.563006222186495" /><path d="M 173.08426987136738 54.67131705675599 a86.0,86.0 0 0,1 12.851231095245387,41.99856678651699" fill="none" id="id75" stroke="none" /><text fill="#e1ed5e" style="font-size:6.75px; font-family:Arial;" text-anchor="middle"><textPath startOffset="22.20632615414155" xlink:href="#id75">March</textPath></text><line stroke="#e1ed5e" stroke-width="0.3" x1="184.98032266829074" x2="189.97916517819016" y1="98.17113171792111" y2="98.06355123074" /><path d="M 185.9800911702706 98.14961562048488 a86.0,86.0 0 0,1 -9.607161424134198,41.387399972396054" fill="none" id="id76" stroke="none" /><text fill="#e1ed5e" style="font-size:6.75px; font-family:Arial;" text-anchor="middle"><textPath startOffset="21.466115282336823" xlink:href="#id76">April</textPath></text><line stroke="#e1ed5e" stroke-width="0.3" x1="174.80103733775053" x2="179.2010983576182" y1="140.37084112569926" y2="142.7455964860345" /><path d="M 175.68104954172406 140.8457921977663 a86.0,86.0 0 0,1 -30.038265399797805,32.042727171017184" fill="none" id="id77" stroke="none" /><text fill="#e1ed5e" style="font-size:6.75px; font-family:Arial;" text-anchor="middle"><textPath startOffset="22.206326154141568" xlink:href="#id77">May</textPath></text><path d="M 117.55443506779139 111.5257021239791 l 7.52077916114539 4.937912272131986 a29.996949305069492,29.996949305069492 0 0,0 -0.2871092217843332,0.42918933107681695 l -7.4346668339503355 -5.06663851741461" fill="#ff0a01" stroke="none" /><path d="M 115.32070863581623 114.36230785411682 l 6.638795018458655 6.223499193280007 a30.099755024497547,30.099755024497547 0 0,0 -0.3576043658909635,0.37494674795326105 l -6.5306841011887276 -6.336853057815775" fill="#ff0b01" stroke="none" /><path d="M 115.07121518719521 114.62390073753431 l 6.517287130584372 6.32385370999489 a30.081087891210878,30.081087891210878 0 0,0 -0.3637797275476863,0.36850694340081525 l -6.407466777981151 -6.43510114737637" fill="#ff0b01" stroke="none" /><path d="M 113.48314897796784 116.09983520530334 l 5.825041225341095 6.955511946455151 a30.072499750024996,30.072499750024996 0 0,0 -0.39972061855068025,0.3289428562260488 l -5.7044504782457235 -7.054749921538378" fill="#ff0b01" stroke="none" /><path d="M 112.92097659922987 116.55440617244103 l 5.526007510271576 7.0799426138150965 a29.981221877812217,29.981221877812217 0 0,0 -0.40955958292412736,0.3140328236696755 l -5.403319198853955 -7.174014779312143" fill="#ff0901" stroke="none" /><path d="M 112.63410532772338 116.77436683061366 l 5.138067414466186 6.821838616586022 a29.54032896710329,29.54032896710329 0 0,0 -0.4088030274580983,0.30242270661341053 l -5.019879416589524 -6.909271271939201" fill="#ff0200" stroke="none" /><path d="M 111.7513745106137 117.40417183066458 l 5.075933427373744 7.51762421419188 a30.070819918008198,30.070819918008198 0 0,0 -0.4314808986157194,0.2859620116682302 l -4.945777830018061 -7.603884246951428" fill="#ff0b01" stroke="none" /><line stroke="#e1ed5e" stroke-width="0.3" x1="143.8653032363475" x2="146.44561519142675" y1="172.8068346515853" y2="177.08958963109032" /><path d="M 144.38136562736335 173.6633856474863 a86.0,86.0 0 0,1 -40.68145358897372,12.25698825130547" fill="none" id="id78" stroke="none" /><text fill="#e1ed5e" style="font-size:6.75px; font-family:Arial;" text-anchor="middle"><textPath startOffset="21.466115282336833" xlink:href="#id78">June</textPath></text><path d="M 108.92500713936063 119.00905698771935 l 3.8102311001042644 8.115276434776188 a29.965242475752426,29.965242475752426 0 0,0 -0.4687876746606761,0.21519742885324086 l -3.669975429676169 -8.179660933963504" fill="#ff0901" stroke="none" /><path d="M 108.59647513512805 119.15986991738527 l 3.654340004947842 8.14481261541563 a29.92704729527047,29.92704729527047 0 0,0 -0.471820315619221,0.20683216084652692 l -3.513599014670867 -8.206509329556612" fill="#ff0801" stroke="none" /><path d="M 106.91757812671514 119.82793768551818 l 2.9583661633359846 8.479600643907109 a29.98084391560844,29.98084391560844 0 0,0 -0.48873096687607387,0.16580407917296883 l -2.8119654635226836 -8.5292677099782" fill="#ff0901" stroke="none" /><path d="M 106.57524785965236 119.94407469862006 l 2.821564365507578 8.558383147494435 a30.01150084991501,30.01150084991501 0 0,0 -0.4920151973528971,0.157527728864568 l -2.6738278230637404 -8.605683723018709" fill="#ff0a01" stroke="none" /><path d="M 105.88484417918355 120.15858648285463 l 2.7227687065653354 9.32686860907207 a30.716169383061693,30.716169383061693 0 0,0 -0.5088189506469878,0.14379731790796346 l -2.561818587813742 -9.372354720318553" fill="#ff1502" stroke="none" /><path d="M 103.41894727170886 120.7198165907248 l 1.4701678384672767 8.90964544048056 a30.03012598740126,30.03012598740126 0 0,0 -0.5107468578103618,0.07976815515032899 l -1.316585117048398 -8.933631902977995" fill="#ff0a01" stroke="none" /><path d="M 103.06178313531738 120.77559828337769 l 1.339276784480627 9.087605240120675 a30.185762423757623,30.185762423757623 0 0,0 -0.5146980227225966,0.07133245601028772 l -1.1826501705712 -9.109312261623566" fill="#ff0d01" stroke="none" /><path d="M 101.98527174616119 120.90594882070398 l 0.8550782379221255 9.004420636249899 a30.044929507049297,30.044929507049297 0 0,0 -0.5152786707151726,0.04446041188887646 l -0.6999552494654112 -9.01780530041744" fill="#ff0a01" stroke="none" /><path d="M 100.90346689309514 120.98055641714683 l 0.4533803020081376 10.528521938548876 a31.53827917208279,31.53827917208279 0 0,0 -0.5425780194322243,0.018687484049159722 l -0.27208193090126104 -10.53476622102413" fill="#ff2303" stroke="none" /><line stroke="#e1ed5e" stroke-width="0.3" x1="102.19456741930631" x2="102.32365962044197" y1="184.97166512339345" y2="189.96999836594603" /><path d="M 102.22038585953345 185.97133177190398 a86.0,86.0 0 0,1 -42.740103519485714,-10.115201625700543" fill="none" id="id79" stroke="none" /><text fill="#e1ed5e" style="font-size:6.75px; font-family:Arial;" text-anchor="middle"><textPath startOffset="22.20632615414155" xlink:href="#id79">July</textPath></text><path d="M 100.54218724476979 120.99299961872073 l 0.27375007423908393 10.599355221950841 a31.602889711028897,31.602889711028897 0 0,0 -0.5439313455924809,0.009364271393861368 l -0.09125903875393512 -10.602496970623863" fill="#ff2403" stroke="none" /><path d="M 99.09653310690486 120.98055641714683 l -0.4528039477657646 10.515137681980397 a31.524882511748828,31.524882511748828 0 0,0 -0.5419456537430604,-0.028012399974672156 l 0.633737669922314 -10.505785475243522" fill="#ff2303" stroke="none" /><path d="M 96.93821686468263 120.77559828337769 l -1.5346602458304401 10.413371345955259 a31.525848415158485,31.525848415158485 0 0,0 -0.5361858296766133,-0.0837411993769573 l 1.7136819391155704 -10.385411839231196" fill="#ff2303" stroke="none" /><path d="M 96.58105272829116 120.7198165907248 l -1.713128125038961 10.382055564570964 a31.522446755324466,31.522446755324466 0 0,0 -0.5346072301726834,-0.0929483195993137 l 1.8915843266836943 -10.351028666450643" fill="#ff2303" stroke="none" /><path d="M 96.22490169976321 120.6578951692458 l -1.97050241503791 10.782880095611151 a31.9614498550145,31.9614498550145 0 0,0 -0.5403499897034738,-0.10355936157048255 l 2.155820019313079 -10.747363535692202" fill="#ff2a04" stroke="none" /><path d="M 95.86986931433489 120.58985236759428 l -2.34862002050392 11.708525267152556 a32.941757824217575,32.941757824217575 0 0,0 -0.5550035806539755,-0.11630639652478099 l 2.5498150625872817 -11.666362889901235" fill="#ff3905" stroke="none" /><path d="M 94.46302465271185 120.25689768951611 l -3.3298531524344788 12.182191611709849 a33.62908209179082,33.62908209179082 0 0,0 -0.5570718811897771,-0.15743407806485132 l 3.5390562017288696 -12.123068740306476" fill="#ff4406" stroke="none" /><path d="M 93.76903079525671 120.05430185196036 l -3.7451669987477993 12.05377638870599 a33.62219478052195,33.62219478052195 0 0,0 -0.5512097140061192,-0.17647994379570506 l 3.952098057844859 -11.987523598250577" fill="#ff4406" stroke="none" /><path d="M 93.42475214034765 119.94407469862007 l -3.9571867908149327 12.002958768550279 a33.638447155284474,33.638447155284474 0 0,0 -0.5483551713450262,-0.18603184657143185 l 4.163211695097185 -11.933063935080725" fill="#ff4506" stroke="none" /><path d="M 92.06813273071674 119.44442032107085 l -4.768098337521188 11.688661075557668 a33.623769623037695,33.623769623037695 0 0,0 -0.5340231813602536,-0.22322173311914917 l 4.968592978378903 -11.604854299418546" fill="#ff4406" stroke="none" /><path d="M 91.7346041902142 119.30500536409082 l -4.9665681588874575 11.600125046029687 a33.618625137486255,33.618625137486255 0 0,0 -0.5300205585453895,-0.2323454369978774 l 5.16550939209059 -11.512915055737357" fill="#ff4406" stroke="none" /><path d="M 91.40352486487194 119.15986991738527 l -5.168466283847898 11.519505391955315 a33.62584841515849,33.62584841515849 0 0,0 -0.5260555892310933,-0.24148631961868447 l 5.365989868846411 -11.428832002002556" fill="#ff4406" stroke="none" /><line stroke="#e1ed5e" stroke-width="0.3" x1="58.666819895761336" x2="56.23545636021788" y1="174.27360380694188" y2="178.64263932499728" /><path d="M 58.180547188652646 175.14741091055294 a86.0,86.0 0 0,1 -31.652253787137756,-30.449443065178592" fill="none" id="id80" stroke="none" /><text fill="#e1ed5e" style="font-size:6.75px; font-family:Arial;" text-anchor="middle"><textPath startOffset="22.20632615414155" xlink:href="#id80">August</textPath></text><path d="M 87.65650970185807 116.9893568818739 l -6.1861238773954685 8.51446906264216 a31.524462553744623,31.524462553744623 0 0,0 -0.43626107702835026,-0.3227355152562315 l 6.331769924842383 -8.406723598646161" fill="#ff2303" stroke="none" /><path d="M 87.36589467227662 116.77436683061367 l -7.594902535089763 10.083791282537172 a33.624000599940004,33.624000599940004 0 0,0 -0.4593218954876454,-0.3521884429695151 l 7.767353159070895 -9.95156349774029" fill="#ff4406" stroke="none" /><path d="M 87.07902340077011 116.55440617244103 l -7.761913971841343 9.944594789612507 a33.615160483951605,33.615160483951605 0 0,0 -0.4530723479088595,-0.3599480746721712 l 7.931943812467561 -9.809512800935206" fill="#ff4406" stroke="none" /><path d="M 85.70375840098266 115.38237550388516 l -8.593469252739988 9.246344223493255 a33.62309769023098,33.62309769023098 0 0,0 -0.4205515666666938,-0.397657755788632 l 8.7513566537975 -9.09705183095869" fill="#ff4406" stroke="none" /><path d="M 85.44109423537348 115.13401014063109 l -8.750483206796318 9.096143881145231 a33.621837816218374,33.621837816218374 0 0,0 -0.41362873338253997,-0.4048227729230891 l 8.905761892554652 -8.944171005299573" fill="#ff4406" stroke="none" /><path d="M 83.95833913139862 113.55231037782056 l -7.342849310819 6.203383411038351 a30.61246075392461,30.61246075392461 0 0,0 -0.33659712577063433,-0.40545292146432926 l 7.44854243648317 -6.076069232460259" fill="#ff1402" stroke="none" /><path d="M 83.50135304334701 112.99209946851258 l -9.90560550592474 7.800313102458667 a33.60816818318168,33.60816818318168 0 0,0 -0.3539951279956382,-0.4575864219578318 l 10.038407451138447 -7.628648686387583" fill="#ff4406" stroke="none" /><line stroke="#e1ed5e" stroke-width="0.3" x1="26.63291911575756" x2="22.317208475507996" y1="142.92168965132927" y2="145.44649492493687" /><path d="M 25.769776987707644 143.4266507060508 a86.0,86.0 0 0,1 -11.730757126820373,-40.83630448921669" fill="none" id="id81" stroke="none" /><text fill="#e1ed5e" style="font-size:6.75px; font-family:Arial;" text-anchor="middle"><textPath startOffset="21.46611528233685" xlink:href="#id81">September</textPath></text><path d="M 81.87401531095188 110.60418214915194 l -10.899279106588152 6.376367569732083 a33.627444255574446,33.627444255574446 0 0,0 -0.2879918439934416,-0.5021380549073441 l 11.007422946733971 -6.187809668966432" fill="#ff4406" stroke="none" /><path d="M 81.51974371655577 109.97397251340807 l -12.549038263130054 6.772836955637611 a35.26007299270073,35.26007299270073 0 0,0 -0.2836714710440106,-0.5365995188302073 l 12.66376224239895 -6.555822421721277" fill="#ff5e08" stroke="none" /><path d="M 80.87730276802145 108.67885076344099 l -13.04689566239923 5.921343574419648 a35.32772822717728,35.32772822717728 0 0,0 -0.2465520727563451,-0.5559098362192704 l 13.146888819886854 -5.695885401707682" fill="#ff5f08" stroke="none" /><path d="M 80.73074385275274 108.34839909993369 l -11.568836738866965 5.012194839282056 a33.607937206279374,33.607937206279374 0 0,0 -0.2254116656978582,-0.5328065921801195 l 11.65339938575713 -4.812313721435778" fill="#ff4406" stroke="none" /><path d="M 80.20201598880116 107.00284435728193 l -11.916006895011519 4.214870645357746 a33.639476052394755,33.639476052394755 0 0,0 -0.18839575362034822,-0.5475662461182109 l 11.986793479575097 -4.009131696150239" fill="#ff4506" stroke="none" /><path d="M 79.76711848015287 105.62410040840567 l -13.767665628375681 3.8269751052209724 a35.28965903409659,35.28965903409659 0 0,0 -0.15764718091578395,-0.5866638063784225 l 13.83150088563324 -3.589420365667011" fill="#ff5f08" stroke="none" /><path d="M 79.50377843672027 104.57218783832718 l -12.330810531811588 2.750691476290037 a33.633890610938906,33.633890610938906 0 0,0 -0.12118765069112852,-0.5661483585826353 l 12.376332221227157 -2.538029298291238" fill="#ff4506" stroke="none" /><path d="M 79.4281124754447 104.21870165774334 l -11.566395143655551 2.3719345299944234 a32.807098290170984,32.807098290170984 0 0,0 -0.10868533461529019,-0.554184179674787 l 11.605510411246508 -2.172486623251682" fill="#ff3705" stroke="none" /><path d="M 79.07016306316243 101.71520430193888 l -14.65875468759137 1.2012878636895121 a35.70789521047895,35.70789521047895 0 0,0 -0.04492978449115007,-0.6130312125017295 l 14.677261030746855 -0.9487835146910221" fill="#ff6509" stroke="none" /><path d="M 79.0235259727143 100.99374915477108 l -11.766058958612685 0.5574107035290436 a32.77925507449255,32.77925507449255 0 0,0 -0.021849507512826036,-0.5638387028018389 l 11.77391059897671 -0.35479475371320796" fill="#ff3705" stroke="none" /><line stroke="#e1ed5e" stroke-width="0.3" x1="15.007084014347285" x2="10.007500721073583" y1="101.09737516637583" y2="101.16192664675087" /><path d="M 14.007167355692545 101.11028546245083 a86.0,86.0 0 0,1 10.666146001902534,-42.60595125391555" fill="none" id="id82" stroke="none" /><text fill="#e1ed5e" style="font-size:6.75px; font-family:Arial;" text-anchor="middle"><textPath startOffset="22.20632615414155" xlink:href="#id82">October</textPath></text><path d="M 79.00175016825051 100.2711162175752 l -21.017146366944555 0.2713601977730023 a42.018898110188985,42.018898110188985 0 0,0 -0.003112805413434177,-0.7233063525313721 l 21.01870346964749 0.09045563296204517" fill="#ffc412" stroke="none" /><path d="M 79.12142395522702 97.74499172005258 l -20.89738576081773 -2.2570398392517266 a42.01891910808919,42.01891910808919 0 0,0 0.08385705080908432,-0.7184360006943115 l 20.855438357005056 2.6164195782708997" fill="#ffc412" stroke="none" /><path d="M 79.21141760316559 97.0276538004421 l -10.406264224575168 -1.4878849999998747 a31.512094790520948,31.512094790520948 0 0,0 0.0813974013222775,-0.5363071737388914 l 10.379110929813587 1.6667912861308583" fill="#ff2203" stroke="none" /><path d="M 79.32604984820605 96.31383870115002 l -16.78013226114064 -2.991894324812107 a38.04477252274772,38.04477252274772 0 0,0 0.12050097635069297,-0.6437210340610385 l 16.726145560880084 3.280293436335718" fill="#ff890c" stroke="none" /><path d="M 79.46518482838121 95.60439243477599 l -20.56423861941495 -4.401905841037394 a42.03008999100091,42.03008999100091 0 0,0 0.15752399986196433,-0.7061492040288038 l 20.48542023255095 4.755233214616157" fill="#ffc412" stroke="none" /><path d="M 79.54389044137918 95.25157060432595 l -21.825631877995907 -5.066333443885978 a43.40593540645935,43.40593540645935 0 0,0 0.1752095045935958,-0.7263565112127666 l 21.735189573141497 5.4412751867581415" fill="#ffd814" stroke="none" /><path d="M 79.81627453868168 94.20196356495316 l -42.63054685137415 -12.246176473413772 a65.3546205379462,65.3546205379462 0 0,0 0.3199080756096663,-1.0785709961325352 l 42.41343287865277 12.978176856292846" fill="#33ff50" stroke="none" /><path d="M 80.38941819471856 92.48833698450439 l -49.33981988449667 -18.899189422201335 a73.83556744325568,73.83556744325568 0 0,0 0.46483515543541976,-1.1829547685890167 l 49.007191179179564 19.745693195686115" fill="#3fffbb" stroke="none" /><path d="M 80.803312248108 91.48605970444005 l -28.809427704044307 -12.77729526007991 a52.51574842515748,52.51574842515748 0 0,0 0.3736062446501925,-0.8231918367023103 l 28.585219142430763 13.271309105624292" fill="#abff21" stroke="none" /><path d="M 81.26839172434947 90.50648371742162 l -56.19482482695157 -28.480548847735136 a84.0,84.0 0 0,0 0.6647622673595439,-1.284109110958658 l 55.69625312643191 29.44363068095413" fill="#4dd2ff" stroke="none" /><line stroke="#e1ed5e" stroke-width="0.3" x1="26.266209847984243" x2="21.928928074336255" y1="57.711370442889674" y2="55.22380399835377" /><path d="M 25.398753493254645 57.213857153982495 a86.0,86.0 0 0,1 29.58750427330803,-30.492523968695096" fill="none" id="id83" stroke="none" /><text fill="#e1ed5e" style="font-size:6.75px; font-family:Arial;" text-anchor="middle"><textPath startOffset="21.46611528233685" xlink:href="#id83">November</textPath></text><path d="M 82.15384107792192 88.93136811851018 l -18.52067627759708 -11.486984331365147 a42.793720627937205,42.793720627937205 0 0,0 0.3936459942513029,-0.6226534286155672 l 18.320202687099815 11.804085407694929" fill="#ffcf13" stroke="none" /><path d="M 84.07557802195018 86.31012108654704 l -6.385118399045982 -5.489147289081383 a29.42024197580242,29.42024197580242 0 0,0 0.3334408078928398,-0.3811804844933822 l 6.289685727575299 5.598243329777708" fill="#ff0000" stroke="none" /><path d="M 84.31358615837235 86.03803664274999 l -6.288336830874588 -5.5970427209898626 a29.41843615638436,29.41843615638436 0 0,0 0.33993193411797806,-0.37536133195198595 l 6.191061256140565 5.704456840211405" fill="#ff0000" stroke="none" /><path d="M 85.31137513191541 84.99185889309783 l -10.297576418868523 -10.521575800420067 a35.722215778422154,35.722215778422154 0 0,0 0.4431540850272143,-0.4263138786856542 l 10.11493909022888 10.697272765868034" fill="#ff6509" stroke="none" /><path d="M 85.83668400450813 84.49514656593479 l -5.970189615309994 -6.53568097954062 a29.85202179782022,29.85202179782022 0 0,0 0.3823745648409141,-0.34329965973403237 l 5.856804062873108 6.637479648043931" fill="#ff0701" stroke="none" /><path d="M 86.10567301691215 84.25364557470407 l -13.908067098462581 -15.761926012663821 a42.02076692330767,42.02076692330767 0 0,0 0.5464824777320888,-0.4739042195615067 l 13.634690822083718 15.998995225645007" fill="#ffc412" stroke="none" /><path d="M 86.37877921826538 84.01681056812374 l -13.631571874419473 -15.995335441243553 a42.01595840415959,42.01595840415959 0 0,0 0.5544955332929693,-0.46437406269500775 l 13.354218804167392 16.227610661332374" fill="#ffc412" stroke="none" /><line stroke="#e1ed5e" stroke-width="0.3" x1="56.762969772571076" x2="54.21961505331055" y1="26.818313649435495" y2="22.513508569990535" /><path d="M 56.25429882871897 25.957352633546506 a86.0,86.0 0 0,1 42.265352541879196,-11.944610805530505" fill="none" id="id84" stroke="none" /><text fill="#e1ed5e" style="font-size:6.75px; font-family:Arial;" text-anchor="middle"><textPath startOffset="22.20632615414155" xlink:href="#id84">December</textPath></text></svg>