<?xml version="1.0" encoding="utf-8" ?>
<svg baseProfile="full" height="200mm" version="1.1" viewBox="0,0,200,200" width="200mm" xmlns="http://www.w3.org/2000/svg" xmlns:ev="http://www.w3.org/2001/xml-events" xmlns:xlink="http://www.w3.org/1999/xlink"><defs /><rect fill="#1a1a1a" height="200" width="200" x="0" y="0" /><text alignment-baseline="middle" fill="#e1ed5e" style="dominant-baseline: central; font-size:9.0px; font-family:Arial;" text-anchor="middle" x="100.0" y="100.0">2024</text><line stroke="#e1ed5e" stroke-width="0.3" x1="100.0" x2="100.0" y1="15.0" y2="10.0" /><path d="M 100.0 14.0 a86.0,86.0 0 0,1 42.35913384403234,11.155469271406648" fill="none" id="id109" stroke="none" /><text fill="#e1ed5e" style="font-size:6.75px; font-family:Arial;" text-anchor="middle"><textPath startOffset="22.145653131862478" xlink:href="#id109">January</textPath></text><path d="M 104.9986988182912 79.60360301121754 l 1.3776986018733826 -5.621480436444071 a26.78784033426349,26.78784033426349 0 0,0 0.44569188660547354,0.11329313471054654 l -1.4739957817042506 5.597002069898257" fill="#ff1e03" stroke="none" /><path d="M 107.06938296918511 80.22567764915836 l 2.489928971766276 -6.9647744835758285 a28.396474152696676,28.396474152696676 0 0,0 0.45760356704980015,0.16803836829054236 l -2.6091216904702006 6.921005266276564" fill="#ff3605" stroke="none" /><path d="M 109.06512990194946 81.05736502329252 l 3.195363119153981 -6.677079957911098 a28.402279529144216,28.402279529144216 0 0,0 0.43798986300510273,0.21424278994772375 l -3.3095132314211506 6.621243417866153" fill="#ff3605" stroke="none" /><line stroke="#e1ed5e" stroke-width="0.3" x1="143.13028292997686" x2="145.6673583964461" y1="26.7553504044142" y2="22.446841604673864" /><path d="M 143.63769802327073 25.89364864446614 a86.0,86.0 0 0,1 29.32050498858742,28.57503671076993" fill="none" id="id110" stroke="none" /><text fill="#e1ed5e" style="font-size:6.75px; font-family:Arial;" text-anchor="middle"><textPath startOffset="20.669276256404974" xlink:href="#id110">February</textPath></text><path d="M 114.39649973595853 84.71141617570332 l 3.800597304838481 -4.036102632106251 a26.543885310000608,26.543885310000608 0 0,0 0.32905255610612943,0.31522490527971697 l -3.8693223468099225 3.970265596520954" fill="#ff1a02" stroke="none" /><line stroke="#e1ed5e" stroke-width="0.3" x1="172.87174338648825" x2="177.1583165268699" y1="56.24261187166439" y2="53.66864786411523" /><path d="M 173.72905801456457 55.72781907015455 a86.0,86.0 0 0,1 12.242430191666344,42.057860355516425" fill="none" id="id111" stroke="none" /><text fill="#e1ed5e" style="font-size:6.75px; font-family:Arial;" text-anchor="middle"><textPath startOffset="22.145653131862474" xlink:href="#id111">March</textPath></text><path d="M 118.36410011445183 89.81374322990088 l 4.848748530595838 -2.6895190746330955 a26.54471596799787,26.54471596799787 0 0,0 0.21760934747765434,0.40037668950727817 l -4.894203227688834 2.605887551651214" fill="#ff1a02" stroke="none" /><path d="M 118.8641267826498 90.77261029715802 l 8.301260061898573 -4.060562277721104 a30.241162514885445,30.241162514885445 0 0,0 0.22410248336768415,0.46828799870753235 l -8.36974180322617 3.917461776948468" fill="#ff5107" stroke="none" /><path d="M 119.4528033332814 92.08871423366111 l 11.125154607251922 -4.524503527061822 a33.01000404669597,33.01000404669597 0 0,0 0.20897112749244556,0.5267437513249482 l -11.201184409710493 4.332858758523308" fill="#ff790b" stroke="none" /><path d="M 119.94978838288452 93.4421083053983 l 10.532805655403168 -3.4623424270345535 a32.087281454736164,32.087281454736164 0 0,0 0.1675189629631021,0.5247507655341179 l -10.590689334143526 3.2810226278090484" fill="#ff6c09" stroke="none" /><path d="M 120.16314734710363 94.1308016681162 l 18.70672430268297 -5.445254809789825 a40.483129473473426,40.483129473473426 0 0,0 0.18850006883124584,0.6689202449001744 l -18.7974428635888 5.123326640986637" fill="#ffde14" stroke="none" /><path d="M 120.43855184770803 95.1765574152323 l 10.789068468669688 -2.546190781495689 a32.085444777608885,32.085444777608885 0 0,0 0.12190809501640404,0.5371495601953646 l -10.831187425243758 2.360606887361298" fill="#ff6c09" stroke="none" /><path d="M 120.592083275326 95.88100663000786 l 10.870250134967874 -2.174354466103914 a32.08558322060843,32.08558322060843 0 0,0 0.10339763718228501,0.5410201294203604 l -10.905974064432314 1.987431771650239" fill="#ff6c09" stroke="none" /><path d="M 120.77682067341334 96.94652285012252 l 29.228369497767897 -4.295563781989754 a50.542333213596905,50.542333213596905 0 0,0 0.1187876804849816,0.8594884819725045 l -29.29780169480809 3.7931869918171643" fill="#a3ff21" stroke="none" /><path d="M 120.99303781780057 99.45929381324524 l 39.25216738715421 -1.0109965948697266 a60.265185071561945,60.265185071561945 0 0,0 0.01775977238259105,1.0344177056542612 l -39.26373859113547 0.337031973246399" fill="#39ff2e" stroke="none" /><line stroke="#e1ed5e" stroke-width="0.3" x1="184.99686870605535" x2="189.99668451229388" y1="99.2704041080226" y2="99.22748670261217" /><path d="M 185.99683186730306 99.26182062694052 a86.0,86.0 0 0,1 -10.086455211305974,41.156179273409016" fill="none" id="id112" stroke="none" /><text fill="#e1ed5e" style="font-size:6.75px; font-family:Arial;" text-anchor="middle"><textPath startOffset="21.40746469413373" xlink:href="#id112">April</textPath></text><path d="M 120.93736805541906 101.62068470465957 l 7.535891173591592 0.5833256371427197 a28.558434003096384,28.558434003096384 0 0,0 -0.042030368402922166,0.48845659113445583 l -7.52476718249093 -0.7126032756528328" fill="#ff3805" stroke="none" /><path d="M 120.7213421655516 103.40968896794604 l 7.289957834895879 1.1995597875778123 a28.38799221159129,28.38799221159129 0 0,0 -0.08325141339904191,0.480172029283491 l -7.268291604004603 -1.3245248497818913" fill="#ff3605" stroke="none" /><path d="M 120.592083275326 104.11899336999214 l 9.06190093147324 1.8126339796318105 a30.241411712284624,30.241411712284624 0 0,0 -0.10619385369365446,0.5081760325319044 l -9.029449366955221 -1.967926463449124" fill="#ff5107" stroke="none" /><path d="M 120.43855184770803 104.8234425847677 l 10.782196645068224 2.5445690498367504 a32.07838418463214,32.07838418463214 0 0,0 -0.13108216629732475,0.5348599703920286 l -10.736926952254603 -2.7292848448368785" fill="#ff6b09" stroke="none" /><path d="M 119.83427380445688 106.89939002012753 l 10.493977019650666 3.650349946492936 a32.1107429283922,32.1107429283922 0 0,0 -0.18556925245487282,0.5190702261346513 l -10.42976759715185 -3.8299551290085088" fill="#ff6c09" stroke="none" /><path d="M 119.4528033332814 107.91128576633889 l 8.558908207827708 3.480833457260189 a30.239648871423764,30.239648871423764 0 0,0 -0.19968846517894803,0.47917962239621814 l -8.497893898112276 -3.6272455890976847" fill="#ff5107" stroke="none" /><path d="M 119.31412917781788 108.2440532568976 l 10.19949126453257 4.35355632158863 a32.08977342872795,32.08977342872795 0 0,0 -0.2206036198505038,0.5047842540860994 l -10.123253762665101 -4.528002645450574" fill="#ff6c09" stroke="none" /><path d="M 119.0197475246899 108.90220220490707 l 6.70018202741074 3.1360235008517607 a28.397775516892388,28.397775516892388 0 0,0 -0.21044204277269704,0.43974293177405227 l -6.645360726678132 -3.2505789346909166" fill="#ff3605" stroke="none" /><path d="M 118.8641267826498 109.22738970284198 l 9.959572023887294 4.871725757401924 a32.08723530706965,32.08723530706965 0 0,0 -0.2462773034090025,0.4927195814432319 l -9.874474807266559 -5.041977195008902" fill="#ff6c09" stroke="none" /><line stroke="#e1ed5e" stroke-width="0.3" x1="174.33088141563837" x2="178.70328620479359" y1="141.23008692659167" y2="143.65538615756765" /><path d="M 175.20536237346943 141.71514677278685 a86.0,86.0 0 0,1 -30.301960400862466,31.631185727798858" fill="none" id="id113" stroke="none" /><text fill="#e1ed5e" style="font-size:6.75px; font-family:Arial;" text-anchor="middle"><textPath startOffset="22.145653131862474" xlink:href="#id113">May</textPath></text><path d="M 117.62189284568427 111.42229804090321 l 16.363163869080825 10.60640512580092 a40.49997337175126,40.49997337175126 0 0,0 -0.38315975872991953,0.5801527103311906 l -16.17867967143018 -10.885737714471171" fill="#ffdf14" stroke="none" /><path d="M 117.21940702142032 112.02048342749411 l 5.8861069735333444 4.108959805630929 a28.178426428415104,28.178426428415104 0 0,0 -0.28028799181334485,0.39426016191233965 l -5.814703883190039 -4.209397194252772" fill="#ff3304" stroke="none" /><path d="M 116.1254893667686 113.45245675266167 l 14.961855185961651 12.481711732948748 a40.484615428335196,40.484615428335196 0 0,0 -0.44977527970258807,0.5298341485457944 l -14.745385342751948 -12.736712663944099" fill="#ffde14" stroke="none" /><path d="M 115.41159269507618 114.26474011684316 l 6.780775363515384 6.2761844453715945 a30.239556576090735,30.239556576090735 0 0,0 -0.3558823808658639,0.3779347557565026 l -6.67203714891326 -6.391660661072595" fill="#ff5107" stroke="none" /><path d="M 115.16444852881244 114.52719865689866 l 8.001817875107232 7.665560515909427 a32.08106074928999,32.08106074928999 0 0,0 -0.3843818246478161,0.3944096142791937 l -7.869049249308609 -7.801792822256358" fill="#ff6c09" stroke="none" /><path d="M 114.39649973595853 115.28858382429668 l 20.251524258472507 21.506416967597723 a50.54065343853578,50.54065343853578 0 0,0 -0.6367405827702352,0.5893575774271876 l -19.879353904388303 -21.85089229115729" fill="#a3ff21" stroke="none" /><path d="M 113.31354834802062 116.24036423190432 l 3.5181797402981974 4.291607235139835 a26.549367652782546,26.549367652782546 0 0,0 -0.35493878647970845,0.2859135615896663 l -3.4439901834632365 -4.351369090522905" fill="#ff1a02" stroke="none" /><path d="M 112.45986205192187 116.90419585922612 l 23.308579606229713 31.622564778178745 a60.28455786196478,60.28455786196478 0 0,0 -0.8382969369953822,0.6068623347683075 l -22.762301658860363 -32.018027884320134" fill="#39ff2e" stroke="none" /><path d="M 110.96478420261333 117.91015095944535 l 4.866665446933888 7.94933226345926 a30.32074653701379,30.32074653701379 0 0,0 -0.44624521672930967,0.26795743097945923 l -4.729487473647143 -8.031703694974642" fill="#ff5207" stroke="none" /><line stroke="#e1ed5e" stroke-width="0.3" x1="143.1302829299769" x2="145.66735839644613" y1="173.24464959558577" y2="177.55315839532614" /><path d="M 143.63769802327073 174.10635135553383 a86.0,86.0 0 0,1 -40.68552437913181,11.842963189579606" fill="none" id="id114" stroke="none" /><text fill="#e1ed5e" style="font-size:6.75px; font-family:Arial;" text-anchor="middle"><textPath startOffset="21.407464694133747" xlink:href="#id114">June</textPath></text><path d="M 110.34350942703117 118.27599006163325 l 4.517117530225802 7.98131385406697 a30.17091716345724,30.17091716345724 0 0,0 -0.4529312849733779,0.25123334871818537 l -4.3794420570963295 -8.057680118218299" fill="#ff5007" stroke="none" /><path d="M 108.73861861582097 119.09545874513695 l 4.576932029624806 10.00142248944979 a31.99894352273333,31.99894352273333 0 0,0 -0.5014487350529185,0.2242916410187566 l -4.40456989171626 -10.078517881378398" fill="#ff6a09" stroke="none" /><path d="M 108.07796709384702 119.3841803445677 l 3.5496844057959205 8.517950356675565 a30.227986652544537,30.227986652544537 0 0,0 -0.4806905376101022,0.1954926569222209 l -3.4029394069953773 -8.577630270177076" fill="#ff5107" stroke="none" /><path d="M 107.407793817531 119.65005319985036 l 3.2547175485758477 8.633524981303838 a30.22664293900035,30.22664293900035 0 0,0 -0.48709637522070953,0.17886853596886118 l -3.106032021701011 -8.68812436628142" fill="#ff5107" stroke="none" /><path d="M 106.72888874123015 119.89276391827305 l 1.448562467773996 4.282417543291276 a25.52077794612082,25.52077794612082 0 0,0 -0.41620410305178757,0.13681455553704525 l -1.3748356270744744 -4.306653020230341" fill="#ff0b01" stroke="none" /><path d="M 106.38641147887787 120.00534299687104 l 3.3489740393941534 10.490613479460372 a32.01220224532639,32.01220224532639 0 0,0 -0.524938176456484,0.16262718892167716 l -3.1683952300660447 -10.546557256188693" fill="#ff6b09" stroke="none" /><path d="M 105.69591212413111 120.21278271476187 l 1.0347136076785342 3.6718335655861254 a24.814838657568632,24.814838657568632 0 0,0 -0.4110029722812901,0.11202068774430227 l -0.971529234462549 -3.6890547474745694" fill="#ff0000" stroke="none" /><path d="M 105.3480935250658 120.30758222061773 l 2.340826280341897 8.888498663949774 a30.19156549091482,30.19156549091482 0 0,0 -0.5023225319887807,0.12768842331456487 l -2.1878984551277187 -8.927372319099607" fill="#ff5007" stroke="none" /><path d="M 103.58742460773223 120.69131181640829 l 1.5694876800928863 9.05238786365517 a30.18743803309795,30.18743803309795 0 0,0 -0.511350039693536,0.08414245444005729 l -1.413860137346278 -9.077996316590898" fill="#ff5007" stroke="none" /><path d="M 102.51750503828377 120.84855314841334 l 1.1024404077346353 9.129788057656826 a30.19610813498511,30.19610813498511 0 0,0 -0.5151514979116767,0.05772379984420228 l -0.9455530082221593 -9.147367618008" fill="#ff5007" stroke="none" /><path d="M 100.72087961077811 120.9876233191556 l 0.31473315456883794 9.163112391277696 a30.168516000628003,30.168516000628003 0 0,0 -0.517730071470003,0.013334890126072193 l -0.1573897690280911 -9.167164998753814" fill="#ff5007" stroke="none" /><line stroke="#e1ed5e" stroke-width="0.3" x1="101.45913802915013" x2="101.54496967792366" y1="184.9874750549273" y2="189.98673829345242" /><path d="M 101.47630435890484 185.9873277026323 a86.0,86.0 0 0,1 -42.54439059252881,-10.42667462771756" fill="none" id="id115" stroke="none" /><text fill="#e1ed5e" style="font-size:6.75px; font-family:Arial;" text-anchor="middle"><textPath startOffset="22.145653131862474" xlink:href="#id115">July</textPath></text><path d="M 100.0 121.0 l 1.1621636595882407e-15 9.489786446160512 a30.48978644616051,30.48978644616051 0 0,0 -0.5233977282853949,-0.004492740006081196 l 0.16290480343654157 -9.488388104348866" fill="#ff5507" stroke="none" /><path d="M 98.91894614982273 120.97215588758144 l -0.47313305166282216 9.178654803747989 a30.190841032840346,30.190841032840346 0 0,0 -0.5173497456923374,-0.03112247600810163 l 0.6306271494876059 -9.169180349915194" fill="#ff5007" stroke="none" /><path d="M 98.19965949673042 120.92268563240118 l -0.551826233185893 6.41305729649059 a27.436755089305738,27.436755089305738 0 0,0 -0.46890778004048733,-0.044406054291415184 l 0.6618335766113955 -6.402639486693991" fill="#ff2803" stroke="none" /><path d="M 97.84075906011543 120.88869738790638 l -1.974159290549483 19.09820032312679 a40.199962512639004,40.199962512639004 0 0,0 -0.6858192059653467,-0.07684747251038923 l 2.301714398115629 -19.06149709010943" fill="#ffdb14" stroke="none" /><path d="M 96.05791012581884 120.62667999033965 l -11.826269622543512 61.88003997101897 a84.0,84.0 0 0,0 -1.4140140578761677,-0.2828424133485541 l 12.886780165950636 -61.667908161007546" fill="#4dd2ff" stroke="none" /><path d="M 94.30408787586889 120.21278271476187 l -1.7785008831340277 6.311272211609825 a27.557074219524047,27.557074219524047 0 0,0 -0.4542193013878665,-0.13221661877098198 l 1.886580196903501 -6.279811898536328" fill="#ff2904" stroke="none" /><path d="M 92.93061703081489 119.77432235084164 l -3.090932019155882 8.645886971712853 a30.18178753155817,30.18178753155817 0 0,0 -0.4863735391976066,-0.17860310056885467 l 3.238894710007607 -8.591553022135278" fill="#ff5007" stroke="none" /><path d="M 91.59046798132341 119.24265499422711 l -3.0464769363600452 6.970935422334205 a28.607559555213975,28.607559555213975 0 0,0 -0.448303067934768,-0.2005202601024017 l 3.1656934071504486 -6.917611411321948" fill="#ff3905" stroke="none" /><path d="M 90.6110303473126 118.78422872680471 l -4.108625508962746 8.220003277042249 a30.18962770995021,30.18962770995021 0 0,0 -0.4615746497269683,-0.23568330500017803 l 4.249127380403297 -8.148262020369236" fill="#ff5007" stroke="none" /><line stroke="#e1ed5e" stroke-width="0.3" x1="58.13341422392154" x2="55.67067388415222" y1="173.97424548756322" y2="178.32567169271397" /><path d="M 57.64086615596768 174.84453072859336 a86.0,86.0 0 0,1 -31.369924170532247,-30.572349798747897" fill="none" id="id116" stroke="none" /><text fill="#e1ed5e" style="font-size:6.75px; font-family:Arial;" text-anchor="middle"><textPath startOffset="22.145653131862474" xlink:href="#id116">August</textPath></text><path d="M 89.65649057296885 118.27599006163327 l -4.079693132133349 7.208426855833913 a29.282832473754592,29.282832473754592 0 0,0 -0.435348612413727,-0.2513486385683973 l 4.202834212407477 -7.137331319989344" fill="#ff4306" stroke="none" /><path d="M 87.2517909369889 116.68781488649013 l -3.925213434739505 5.138230387118015 a27.46596566796967,27.46596566796967 0 0,0 -0.37221622333782883,-0.2894375865971946 l 4.012839602712562 -5.070091748900028" fill="#ff2803" stroke="none" /><path d="M 86.40962598614128 116.0094264158162 l -5.349611066059234 6.301828384412089 a29.26627966770332,29.26627966770332 0 0,0 -0.38021150687373223,-0.3284176440296516 l 5.457002052695829 -6.209066607917715" fill="#ff4306" stroke="none" /><path d="M 85.34317274990678 115.03919595460226 l -5.127556833177044 5.261325023941931 a28.346657749277433,28.346657749277433 0 0,0 -0.3455701629107445,-0.3426165895225376 l 5.217118916217752 -5.172528424190734" fill="#ff3505" stroke="none" /><path d="M 84.58840730492382 114.26474011684316 l -3.2819676602507313 3.03774026939589 a25.472044014457044,25.472044014457044 0 0,0 -0.2942655448649577,-0.3234493815427024 l 3.333630905957569 -2.9809533122955134" fill="#ff0a01" stroke="none" /><path d="M 84.1078160697243 113.72728997021213 l -5.555552979322712 4.798754345320221 a28.341131532181613,28.341131532181613 0 0,0 -0.3148638125151418,-0.37090877942904116 l 5.637111355344966 -4.702678783441625" fill="#ff3505" stroke="none" /><path d="M 82.18462484594161 111.11811171558189 l -6.266924768517316 3.9110245553066725 a28.387182082937144,28.387182082937144 0 0,0 -0.2544465269926821,-0.4156192794436742 l 6.333139259965403 -3.8028681597384413" fill="#ff3605" stroke="none" /><line stroke="#e1ed5e" stroke-width="0.3" x1="26.387840678322732" x2="22.057713659400548" y1="142.50000000000003" y2="145.00000000000006" /><path d="M 25.521815274538298 143.00000000000003 a86.0,86.0 0 0,1 -11.493303480769221,-40.785679425670985" fill="none" id="id117" stroke="none" /><text fill="#e1ed5e" style="font-size:6.75px; font-family:Arial;" text-anchor="middle"><textPath startOffset="21.40746469413373" xlink:href="#id117">September</textPath></text><path d="M 81.4637452351635 109.86951160357371 l -6.4831894940340264 3.4519332384726447 a28.34490225247589,28.34490225247589 0 0,0 -0.2249936424372151,-0.4314549758971218 l 6.5414912054461904 -3.34013201947102" fill="#ff3505" stroke="none" /><path d="M 80.68587082218212 108.24405325689762 l -7.012950959245371 2.9934117486606797 a28.625089839064216,28.625089839064216 0 0,0 -0.18902667421425998,-0.4535952053696798 l 7.063303477996117 -2.872584033849719" fill="#ff3905" stroke="none" /><path d="M 80.16572619554312 106.89939002012753 l -8.631211544035216 3.0023834185018057 a30.138496534418632,30.138496534418632 0 0,0 -0.16578265341028747,-0.49010695716048785 l 8.68147961901787 -2.8537747868671564" fill="#ff5007" stroke="none" /><path d="M 79.2786578344484 103.40968896794605 l -9.040553644858838 1.4876196619273874 a30.16212979956753,30.16212979956753 0 0,0 -0.0796833312005668,-0.5116241472725496 l 9.064758468197672 -1.3322073327233879" fill="#ff5007" stroke="none" /><path d="M 79.17382384314188 102.69636545807758 l -9.085725983167602 1.1763291310922523 a30.161559194038052,30.161559194038052 0 0,0 -0.06207236492962169,-0.5140482261616858 l 9.104580434356885 -1.0201872280071673" fill="#ff5007" stroke="none" /><line stroke="#e1ed5e" stroke-width="0.3" x1="15.003131293944662" x2="10.003315487706104" y1="100.72959589197737" y2="100.7725132973878" /><path d="M 14.003168132696942 100.73817937305945 a86.0,86.0 0 0,1 10.791469493833604,-42.45332614584628" fill="none" id="id118" stroke="none" /><text fill="#e1ed5e" style="font-size:6.75px; font-family:Arial;" text-anchor="middle"><textPath startOffset="22.145653131862435" xlink:href="#id118">October</textPath></text><path d="M 79.00077361379809 100.18025310272382 l -9.278700494857125 0.07964648424105868 a30.27904232319876,30.27904232319876 0 0,0 0.0,-0.5197991739297491 l 9.278700494857125 0.07964648424105528" fill="#ff5207" stroke="none" /><path d="M 79.01933749520258 99.09900007780938 l -9.150917388557682 -0.3929797666388274 a30.15935162275119,30.15935162275119 0 0,0 0.02665283948279372,-0.5170579656028695 l 9.142822959618316 0.550009525618409" fill="#ff5007" stroke="none" /><path d="M 79.13060592940154 97.66154086499901 l -9.128453212242066 -1.0228622225630564 a30.18558137378572,30.18558137378572 0 0,0 0.06212180247685876,-0.5144576399723836 l 9.10954932350554 1.179413539458876" fill="#ff5007" stroke="none" /><path d="M 79.22317932658666 96.9465228501225 l -9.08844096535186 -1.3356878442534708 a30.18606668808649,30.18606668808649 0 0,0 0.07974656847951367,-0.5120301759667516 l 9.064172904734077 1.4915062021516723" fill="#ff5007" stroke="none" /><path d="M 79.34024301695615 96.23510406497455 l -9.027133609471484 -1.6450444532878294 a30.175800371441323,30.175800371441323 0 0,0 0.09724325211851574,-0.5088177861711489 l 8.997564065070808 1.799764804492293" fill="#ff5007" stroke="none" /><path d="M 79.56144815229197 95.17655741523228 l -8.941763249814391 -2.1102317797971715 a30.187393981984073,30.187393981984073 0 0,0 0.12335499741052702,-0.5033304844310326 l 8.904220725887566 2.263418088836322" fill="#ff5007" stroke="none" /><path d="M 79.83685265289637 94.1308016681162 l -8.807505980858052 -2.5637366290602532 a30.173053314247966,30.173053314247966 0 0,0 0.14903143459430845,-0.49607717591724365 l 8.762198226260114 2.7145514085682203" fill="#ff5007" stroke="none" /><path d="M 80.05021161711548 93.44210830539832 l -18.387479137551388 -6.044329614256037 a40.35544650788661,40.35544650788661 0 0,0 0.2219829709817856,-0.6562532099186105 l 18.28101074499724 6.3590844986488095" fill="#ffdd14" stroke="none" /><path d="M 80.41425534168474 92.42381321644754 l -8.562627030925473 -3.3122080817409554 a30.18092065358838,30.18092065358838 0 0,0 0.19106150392524238,-0.48159980050357315 l 8.5045068520341 3.458708899458111" fill="#ff5007" stroke="none" /><path d="M 81.29705330413844 90.45014215332179 l -17.171072545102376 -8.767671990265114 a40.27998455595979,40.27998455595979 0 0,0 0.31973087653773974,-0.6131261138574194 l 17.0180335995897 9.061144347227021" fill="#ffdc14" stroke="none" /><line stroke="#e1ed5e" stroke-width="0.3" x1="26.387840678322718" x2="22.05771365940052" y1="57.49999999999999" y2="54.99999999999999" /><path d="M 25.521815274538284 56.99999999999999 a86.0,86.0 0 0,1 29.574782752854787,-30.34633250058573" fill="none" id="id119" stroke="none" /><text fill="#e1ed5e" style="font-size:6.75px; font-family:Arial;" text-anchor="middle"><textPath startOffset="21.40746469413373" xlink:href="#id119">November</textPath></text><path d="M 81.99639281039701 89.18935116829357 l -43.43047214647938 -26.078750665140984 a71.65873219022276,71.65873219022276 0 0,0 0.642308048795785,-1.0491619263840444 l 42.9763961332282 26.82044970764957" fill="#3dffac" stroke="none" /><path d="M 82.78059297857968 87.97951657250589 l -7.519663883055534 -5.2493093969004425 a30.170637603706577,30.170637603706577 0 0,0 0.30010431729229337,-0.4221343053649095 l 7.428444467233268 5.377620928974872" fill="#ff5007" stroke="none" /><path d="M 83.64595745247003 86.82634096563983 l -21.409127938352658 -17.245677994487636 a48.49116528214669,48.49116528214669 0 0,0 0.5277528601933308,-0.6437726780211311 l 21.109928258920696 17.610652954207257" fill="#bbff1f" stroke="none" /><path d="M 84.34580500576568 86.00192230759919 l -5.478805993139668 -4.8991821030597515 a28.349782336192284,28.349782336192284 0 0,0 0.32751058930442417,-0.35999150905627253 l 5.393897702993377 4.992511187673681" fill="#ff3505" stroke="none" /><path d="M 85.34317274990677 84.96080404539775 l -27.322766209786 -28.03556513556799 a60.14749629063523,60.14749629063523 0 0,0 0.7456213424174826,-0.714288379398821 l 26.83747238150322 28.500465645272378" fill="#3aff2e" stroke="none" /><path d="M 86.13680546590413 84.22622945171909 l -4.852509256318662 -5.521264770852596 a28.350592544313436,28.350592544313436 0 0,0 0.36831540033195703,-0.3181420705318899 l 4.757014376223856 5.603750973849197" fill="#ff3505" stroke="none" /><line stroke="#e1ed5e" stroke-width="0.3" x1="56.869717070023135" x2="54.33264160355391" y1="26.7553504044142" y2="22.446841604673864" /><path d="M 56.362301976729285 25.89364864446614 a86.0,86.0 0 0,1 42.16139366436587,-11.88097634709845" fill="none" id="id120" stroke="none" /><text fill="#e1ed5e" style="font-size:6.75px; font-family:Arial;" text-anchor="middle"><textPath startOffset="22.145653131862474" xlink:href="#id120">December</textPath></text></svg>