<?xml version="1.0" encoding="utf-8" ?>
<svg baseProfile="full" height="200mm" version="1.1" viewBox="0,0,200,200" width="200mm" xmlns="http://www.w3.org/2000/svg" xmlns:ev="http://www.w3.org/2001/xml-events" xmlns:xlink="http://www.w3.org/1999/xlink"><defs /><rect fill="#1a1a1a" height="200" width="200" x="0" y="0" /><text alignment-baseline="middle" fill="#e1ed5e" style="dominant-baseline: central; font-size:9.0px; font-family:Arial;" text-anchor="middle" x="100.0" y="100.0">2024</text><line stroke="#e1ed5e" stroke-width="0.3" x1="100.0" x2="100.0" y1="15.0" y2="10.0" /><path d="M 100.0 14.0 a86.0,86.0 0 0,1 42.35913384403234,11.155469271406648" fill="none" id="id97" stroke="none" /><text fill="#e1ed5e" style="font-size:6.75px; font-family:Arial;" text-anchor="middle"><textPath startOffset="22.145653131862478" xlink:href="#id97">January</textPath></text><path d="M 104.9986988182912 79.60360301121754 l 2.2027926137173046 -8.988145568789207 a30.25413724043428,30.25413724043428 0 0,0 0.5033635909447719,0.12795305643015073 l -2.356761497887471 8.949007280523789" fill="#ff3004" stroke="none" /><path d="M 107.06938296918511 80.22567764915836 l 3.981129936714239 -11.135928981684192 a32.82617054917255,32.82617054917255 0 0,0 0.5289872487377082,0.1942514449733605 l -4.171706337106072 11.065946687702109" fill="#ff5808" stroke="none" /><path d="M 109.06512990194946 81.05736502329252 l 5.10904363802495 -10.675936226171892 a32.83545272478128,32.83545272478128 0 0,0 0.5063535631314452,0.24768290142821828 l -5.291557450418462 10.586659574646452" fill="#ff5808" stroke="none" /><line stroke="#e1ed5e" stroke-width="0.3" x1="143.13028292997686" x2="145.6673583964461" y1="26.7553504044142" y2="22.446841604673864" /><path d="M 143.63769802327073 25.89364864446614 a86.0,86.0 0 0,1 29.32050498858742,28.57503671076993" fill="none" id="id98" stroke="none" /><text fill="#e1ed5e" style="font-size:6.75px; font-family:Arial;" text-anchor="middle"><textPath startOffset="20.669276256404974" xlink:href="#id98">February</textPath></text><path d="M 114.39649973595853 84.71141617570332 l 6.076748324653902 -6.453296137572565 a29.8640792663645,29.8640792663645 0 0,0 0.3702115008254259,0.3546542432678064 l -6.18663231134464 6.348029763999178" fill="#ff2a04" stroke="none" /><line stroke="#e1ed5e" stroke-width="0.3" x1="172.87174338648825" x2="177.1583165268699" y1="56.24261187166439" y2="53.66864786411523" /><path d="M 173.72905801456457 55.72781907015455 a86.0,86.0 0 0,1 12.242430191666344,42.057860355516425" fill="none" id="id99" stroke="none" /><text fill="#e1ed5e" style="font-size:6.75px; font-family:Arial;" text-anchor="middle"><textPath startOffset="22.145653131862474" xlink:href="#id99">March</textPath></text><path d="M 118.36410011445183 89.81374322990088 l 7.7526299543641155 -4.300253149707465 a29.86540739959945,29.86540739959945 0 0,0 0.24483184616540205,0.4504630209588068 l -7.825307150144859 4.166535295274055" fill="#ff2a04" stroke="none" /><path d="M 118.8641267826498 90.77261029715802 l 13.272826381642215 -6.492404493073016 a35.77562980921261,35.77562980921261 0 0,0 0.26511571704100756,0.5539898830810928 l -13.382321356643136 6.26360210792682" fill="#ff830c" stroke="none" /><path d="M 119.4528033332814 92.08871423366111 l 17.787931527254194 -7.23419689661966 a40.2027110783177,40.2027110783177 0 0,0 0.25450484193836304,0.6415184565524376 l -17.90949504415868 6.927777422853658" fill="#ffc312" stroke="none" /><path d="M 119.94978838288452 93.4421083053983 l 16.840828950463212 -5.535914977383931 a38.727376409823975,38.727376409823975 0 0,0 0.20218509142343796,0.6333419191915824 l -16.933378757663906 5.246004024500961" fill="#ffae10" stroke="none" /><path d="M 120.16314734710363 94.1308016681162 l 29.910050039074633 -8.706379652634668 a52.15143881100453,52.15143881100453 0 0,0 0.24283077749619947,0.8617207630702589 l -30.055099308645413 8.191650965661397" fill="#a0ff22" stroke="none" /><path d="M 120.43855184770803 95.1765574152323 l 17.25056576188648 -4.071086548949886 a38.72443975967113,38.72443975967113 0 0,0 0.14713284214696223,0.6482944503308016 l -17.317909465591107 3.774357764680058" fill="#ffae10" stroke="none" /><path d="M 120.592083275326 95.88100663000786 l 17.380366557682994 -3.476560077090886 a38.72466111521029,38.72466111521029 0 0,0 0.1247924475134888,0.652966817659529 l -17.43748529747864 3.1776906943980427" fill="#ffae10" stroke="none" /><path d="M 120.77682067341334 96.94652285012252 l 46.733034607957386 -6.868146746938653 a68.2350289870349,68.2350289870349 0 0,0 0.16037013540591397,1.1603584115036298 l -46.84404925991851 6.064900027234937" fill="#38ff7d" stroke="none" /><path d="M 120.99303781780057 99.45929381324524 l 62.76001461803405 -1.6164753514622887 a83.78082850216086,83.78082850216086 0 0,0 0.024689685138383488,1.4380503817271728 l -62.7785157347711 0.5388780537660495" fill="#4dd4ff" stroke="none" /><line stroke="#e1ed5e" stroke-width="0.3" x1="184.99686870605535" x2="189.99668451229388" y1="99.2704041080226" y2="99.22748670261217" /><path d="M 185.99683186730306 99.26182062694052 a86.0,86.0 0 0,1 -10.086455211305974,41.156179273409016" fill="none" id="id100" stroke="none" /><text fill="#e1ed5e" style="font-size:6.75px; font-family:Arial;" text-anchor="middle"><textPath startOffset="21.40746469413373" xlink:href="#id100">April</textPath></text><path d="M 120.93736805541906 101.62068470465957 l 12.049083444225346 0.9326752623125734 a33.08512701591651,33.08512701591651 0 0,0 -0.04869244850700404,0.5658800604295351 l -12.031297373020601 -1.1393763701177657" fill="#ff5c08" stroke="none" /><path d="M 120.7213421655516 103.40968896794604 l 11.655862357110149 1.917967715286651 a32.81260883314009,32.81260883314009 0 0,0 -0.09622716683546936,0.555012726932515 l -11.621220372782446 -2.117773475139754" fill="#ff5708" stroke="none" /><path d="M 120.592083275326 104.11899336999214 l 14.489009723130843 2.898207733009602 a35.77602824918309,35.77602824918309 0 0,0 -0.1256288676527126,0.6011796098802468 l -14.437123144653766 -3.1465037941752576" fill="#ff830c" stroke="none" /><path d="M 120.43855184770803 104.8234425847677 l 17.23957845141707 4.068493573596003 a38.71315062717403,38.71315062717403 0 0,0 -0.1581938672221436,0.6454849620559182 l -17.16719705767863 -4.363834360260021" fill="#ffae10" stroke="none" /><path d="M 119.83427380445688 106.89939002012753 l 16.77874611759974 5.836518879153946 a38.76488879519342,38.76488879519342 0 0,0 -0.22402382440238686,0.6266345078928125 l -16.67608212315341 -6.12368834342768" fill="#ffae10" stroke="none" /><path d="M 119.4528033332814 107.91128576633889 l 13.684778191725284 5.565480155678852 a35.7732096553178,35.7732096553178 0 0,0 -0.2362295065319256,0.5668648193443407 l -13.587222840656873 -5.7995774844644705" fill="#ff830c" stroke="none" /><path d="M 119.31412917781788 108.2440532568976 l 16.307894913035106 6.960870611001083 a38.73136080952883,38.73136080952883 0 0,0 -0.2662617240129482,0.6092589316468914 l -16.185999307005194 -7.239791612423819" fill="#ffae10" stroke="none" /><path d="M 119.0197475246899 108.90220220490707 l 10.712873962761163 5.014165939289401 a32.82825129124065,32.82825129124065 0 0,0 -0.2432741345629213,0.5083493761417419 l -10.62522057023833 -5.197327817496247" fill="#ff5808" stroke="none" /><path d="M 118.8641267826498 109.22738970284198 l 15.924289725032857 7.789368080847895 a38.72730262464425,38.72730262464425 0 0,0 -0.29724142848169843,0.594681971102568 l -15.788228383339426 -8.06158190811421" fill="#ffae10" stroke="none" /><line stroke="#e1ed5e" stroke-width="0.3" x1="174.33088141563837" x2="178.70328620479359" y1="141.23008692659167" y2="143.65538615756765" /><path d="M 175.20536237346943 141.71514677278685 a86.0,86.0 0 0,1 -30.301960400862466,31.631185727798858" fill="none" id="id101" stroke="none" /><text fill="#e1ed5e" style="font-size:6.75px; font-family:Arial;" text-anchor="middle"><textPath startOffset="22.145653131862474" xlink:href="#id101">May</textPath></text><path d="M 117.62189284568427 111.42229804090321 l 26.162947729528 16.958506626513124 a52.178370401602194,52.178370401602194 0 0,0 -0.4936460483685935,0.7474430348704528 l -25.86797724223868 -17.405129539722637" fill="#a0ff22" stroke="none" /><path d="M 117.21940702142032 112.02048342749411 l 9.411255079462432 6.56978696036809 a32.47753557499736,32.47753557499736 0 0,0 -0.3230508008844296,0.4544114082041175 l -9.297089180048042 -6.7303755952817115" fill="#ff5207" stroke="none" /><path d="M 116.1254893667686 113.45245675266167 l 23.922405122810204 19.956921183269813 a52.1538146937915,52.1538146937915 0 0,0 -0.5794175477097186,0.682552414277348 l -23.57629301159337 -20.364640379996718" fill="#a0ff22" stroke="none" /><path d="M 115.41159269507618 114.26474011684316 l 10.841734081545301 10.034947208186678 a35.77306208495837,35.77306208495837 0 0,0 -0.42100493350895457,0.44709264991109693 l -10.667873314300087 -10.219581318042271" fill="#ff830c" stroke="none" /><path d="M 115.16444852881244 114.52719865689866 l 12.794050373303103 12.25641084449629 a38.71743016759777,38.71743016759777 0 0,0 -0.4638960216995008,0.4759981852726555 l -12.581767550452795 -12.474231721836682" fill="#ffae10" stroke="none" /><path d="M 114.39649973595853 115.28858382429668 l 32.38001983338002 34.386458968115214 a68.2323432064931,68.2323432064931 0 0,0 -0.859630792663131,0.7956614281464308 l -31.78495926940292 -34.93723814239403" fill="#38ff7d" stroke="none" /><path d="M 113.31354834802062 116.24036423190432 l 5.625192865203312 6.86182065198219 a29.872844945715187,29.872844945715187 0 0,0 -0.39937039075269176,0.32170451684374235 l -5.506571704095368 -6.957373462619336" fill="#ff2a04" stroke="none" /><path d="M 112.45986205192187 116.90419585922612 l 37.26792414758027 50.56109661826531 a83.81180352060714,83.81180352060714 0 0,0 -1.16545896108682,0.8437024101946464 l -36.39448417611948 -51.19339979983303" fill="#4dd4ff" stroke="none" /><path d="M 110.96478420261333 117.91015095944535 l 7.8216924619869035 12.776146813646635 a35.98028038368294,35.98028038368294 0 0,0 -0.5295393369750202,0.317973156952548 l -7.601220368454447 -12.908533971135107" fill="#ff860c" stroke="none" /><line stroke="#e1ed5e" stroke-width="0.3" x1="143.1302829299769" x2="145.66735839644613" y1="173.24464959558577" y2="177.55315839532614" /><path d="M 143.63769802327073 174.10635135553383 a86.0,86.0 0 0,1 -40.68552437913181,11.842963189579606" fill="none" id="id102" stroke="none" /><text fill="#e1ed5e" style="font-size:6.75px; font-family:Arial;" text-anchor="middle"><textPath startOffset="21.407464694133747" xlink:href="#id102">June</textPath></text><path d="M 110.34350942703117 118.27599006163325 l 7.273128729117168 12.850921566615423 a35.76633287656793,35.76633287656793 0 0,0 -0.5369306813181806,0.29782639789395887 l -7.051453859642893 -12.973880879942525" fill="#ff830c" stroke="none" /><path d="M 108.73861861582097 119.09545874513695 l 7.373851551058406 16.113196407390245 a38.720293032570886,38.720293032570886 0 0,0 -0.6067775940248443,0.27140389990789965 l -7.096160554177935 -16.237404058207993" fill="#ffae10" stroke="none" /><path d="M 108.07796709384702 119.3841803445677 l 5.701975880160872 13.682666380951535 a35.82322125013176,35.82322125013176 0 0,0 -0.5696669010604428,0.23167856934035352 l -5.466254517909988 -13.77853220687118" fill="#ff840c" stroke="none" /><path d="M 107.407793817531 119.65005319985036 l 5.215122245453322 13.833731349860436 a35.78410034784442,35.78410034784442 0 0,0 -0.5766537026670419,0.2117552271053965 l -4.976879391132153 -13.921217425974556" fill="#ff840c" stroke="none" /><path d="M 106.72888874123015 119.89276391827305 l 2.370641810332184 7.0083812768026625 a28.398469484557815,28.398469484557815 0 0,0 -0.46313476590789143,0.1522415965792568 l -2.2499843067765584 -7.048043794783939" fill="#ff1302" stroke="none" /><path d="M 106.38641147887787 120.00534299687104 l 5.3926705043738705 16.892463547942917 a38.73234953093707,38.73234953093707 0 0,0 -0.6351355891365966,0.196766629058385 l -5.10189428236565 -16.982546764807946" fill="#ffae10" stroke="none" /><path d="M 105.69591212413111 120.21278271476187 l 1.675724098285009 5.946553659953463 a27.178151154211026,27.178151154211026 0 0,0 -0.4501460218877513,0.12268929997595336 l -1.5733966754625626 -5.974443454073558" fill="#ff0000" stroke="none" /><path d="M 105.3480935250658 120.30758222061773 l 3.7615882798302693 14.283363391971589 a35.77037630441657,35.77037630441657 0 0,0 -0.5951419114332773,0.15128274660199567 l -3.5158410751715947 -14.345831370408854" fill="#ff830c" stroke="none" /><path d="M 103.58742460773223 120.69131181640829 l 2.523743947082697 14.556284427917598 a35.77344576789291,35.77344576789291 0 0,0 -0.6059723549023985,0.09971252039966125 l -2.273494089127226 -14.59746294681293" fill="#ff830c" stroke="none" /><path d="M 103.2317021107853 120.74984581791261 l 2.2737643344110756 14.599198115396131 a35.77520185517023,35.77520185517023 0 0,0 -0.6076245877884083,0.08929988970304067 l -2.022814641014982 -14.636079078398055" fill="#ff830c" stroke="none" /><path d="M 102.51750503828377 120.84855314841334 l 1.7722382767624978 14.676675256993336 a35.7832887108675,35.7832887108675 0 0,0 -0.6104698889408211,0.06840442437415577 l -1.5200324862208774 -14.704935441874463" fill="#ff840c" stroke="none" /><path d="M 100.72087961077811 120.9876233191556 l 0.5072833443047053 14.769001074751937 a35.7777105512807,35.7777105512807 0 0,0 -0.6139909778910586,0.015814229614536244 l -0.2536790523429029 -14.77553302171652" fill="#ff830c" stroke="none" /><line stroke="#e1ed5e" stroke-width="0.3" x1="101.45913802915013" x2="101.54496967792366" y1="184.9874750549273" y2="189.98673829345242" /><path d="M 101.47630435890484 185.9873277026323 a86.0,86.0 0 0,1 -42.54439059252881,-10.42667462771756" fill="none" id="id103" stroke="none" /><text fill="#e1ed5e" style="font-size:6.75px; font-family:Arial;" text-anchor="middle"><textPath startOffset="22.145653131862474" xlink:href="#id103">July</textPath></text><path d="M 100.0 121.0 l 1.8097548213979307e-15 14.777769579424472 a35.77776957942447,35.77776957942447 0 0,0 -0.6141729904883341,-0.005271936456546636 l 0.2536800656394801 -14.77559204116236" fill="#ff830c" stroke="none" /><path d="M 98.91894614982273 120.97215588758144 l -0.7604973209309998 14.753444857569011 a35.77303257088648,35.77303257088648 0 0,0 -0.6130060862849263,-0.03687692392250357 l 1.0136477593483724 -14.738215955821817" fill="#ff830c" stroke="none" /><path d="M 98.19965949673042 120.92268563240118 l -0.8863917417995025 10.301215646232931 a31.339281121534732,31.339281121534732 0 0,0 -0.5356038894151697,-0.050722245192881106 l 1.0630951945996876 -10.284481645534868" fill="#ff4106" stroke="none" /><path d="M 97.84075906011543 120.88869738790638 l -3.204414912643157 30.999807468950486 a52.16498577000105,52.16498577000105 0 0,0 -0.8899448378522172,-0.09972017532863713 l 3.7360956520961737 -30.940231533114876" fill="#a0ff22" stroke="none" /><path d="M 94.30408787586889 120.21278271476187 l -3.210128095823948 11.391612137509888 a32.83527564034995,32.83527564034995 0 0,0 -0.5412191382665361,-0.15754100333715482 l 3.405207246472091 -11.334827439870217" fill="#ff5808" stroke="none" /><path d="M 92.93061703081489 119.77432235084164 l -4.970441163151352 13.903208556457189 a35.7649752292611,35.7649752292611 0 0,0 -0.5763455051620796,-0.21164205271259295 l 5.20837581996755 -13.815835654735878" fill="#ff830c" stroke="none" /><path d="M 91.59046798132341 119.24265499422711 l -4.908518055324141 11.231649901774329 a33.257385896489936,33.257385896489936 0 0,0 -0.5211695216472794,-0.2331124980241338 l 5.100600979827056 -11.14573365284034" fill="#ff5e08" stroke="none" /><path d="M 90.6110303473126 118.78422872680471 l -6.60492456823109 13.214273600025178 a35.77301781385053,35.77301781385053 0 0,0 -0.5469401055801191,-0.2792715150117511 l 6.830791895524792 -13.098944133340591" fill="#ff830c" stroke="none" /><line stroke="#e1ed5e" stroke-width="0.3" x1="58.13341422392154" x2="55.67067388415222" y1="173.97424548756322" y2="178.32567169271397" /><path d="M 57.64086615596768 174.84453072859336 a86.0,86.0 0 0,1 -31.369924170532247,-30.572349798747897" fill="none" id="id104" stroke="none" /><text fill="#e1ed5e" style="font-size:6.75px; font-family:Arial;" text-anchor="middle"><textPath startOffset="22.145653131862474" xlink:href="#id104">August</textPath></text><path d="M 89.65649057296885 118.27599006163327 l -6.549246611589695 11.571891225989225 a34.29666490987667,34.29666490987667 0 0,0 -0.5098893862919724,-0.2943847744326056 l 6.746928465742067 -11.457759554280448" fill="#ff6e0a" stroke="none" /><path d="M 87.2517909369889 116.68781488649013 l -6.274397868442897 8.213388220669161 a31.335754189944133,31.335754189944133 0 0,0 -0.42465923903871794,-0.3302175928049505 l 6.4144670521168425 -8.104469576243417" fill="#ff4106" stroke="none" /><path d="M 86.40962598614128 116.0094264158162 l -8.600828709207045 10.131754592969733 a34.29009802888163,34.29009802888163 0 0,0 -0.44547820872485366,-0.3847934666126579 l 8.773486397694763 -9.982616993892352" fill="#ff6e0a" stroke="none" /><path d="M 85.34317274990678 115.03919595460226 l -8.249104004662978 8.464307415183042 a32.819146200063244,32.819146200063244 0 0,0 -0.40009364769772515,-0.39667406441924685 l 8.393189572490668 -8.321453340535134" fill="#ff5808" stroke="none" /><path d="M 84.58840730492382 114.26474011684316 l -5.431177174812713 5.027016510239455 a28.400579740697797,28.400579740697797 0 0,0 -0.328097425834134,-0.3606365452010513 l 5.516672301488727 -4.933042389480729" fill="#ff1302" stroke="none" /><path d="M 84.1078160697243 113.72728997021213 l -8.946236946862811 7.727546399576589 a32.82159586802993,32.82159586802993 0 0,0 -0.36464079763732793,-0.42954594274052754 l 9.077572308007252 -7.572833674386508" fill="#ff5808" stroke="none" /><path d="M 82.18462484594161 111.11811171558189 l -10.02330651248726 6.255284584336501 a32.815043744070834,32.815043744070834 0 0,0 -0.29413535621101866,-0.4804479992405158 l 10.129209833153682 -6.082299468971427" fill="#ff5708" stroke="none" /><line stroke="#e1ed5e" stroke-width="0.3" x1="26.387840678322732" x2="22.057713659400548" y1="142.50000000000003" y2="145.00000000000006" /><path d="M 25.521815274538298 143.00000000000003 a86.0,86.0 0 0,1 -11.493303480769221,-40.785679425670985" fill="none" id="id105" stroke="none" /><text fill="#e1ed5e" style="font-size:6.75px; font-family:Arial;" text-anchor="middle"><textPath startOffset="21.40746469413373" xlink:href="#id105">September</textPath></text><path d="M 81.4637452351635 109.86951160357371 l -10.432496739383033 5.554716901005759 a32.8191314430273,32.8191314430273 0 0,0 -0.2605087807049134,-0.49955993637194357 l 10.526313589062896 -5.374810721529313" fill="#ff5808" stroke="none" /><path d="M 80.68587082218212 108.24405325689762 l -11.274426956783461 4.812382448983195 a33.25853694529356,33.25853694529356 0 0,0 -0.21962378680193706,-0.52701713709237 l 11.355376588121883 -4.618132802449544" fill="#ff5e08" stroke="none" /><path d="M 80.16572619554312 106.89939002012753 l -13.954991129589661 4.854270314087535 a35.77517234109835,35.77517234109835 0 0,0 -0.19678828338847051,-0.5817695928515891 l 14.036264834550499 -4.613999046761784" fill="#ff830c" stroke="none" /><path d="M 79.2786578344484 103.40968896794605 l -14.569693255115396 2.3974374807107215 a35.76562453884263,35.76562453884263 0 0,0 -0.09448683248371204,-0.6066732448256323 l 14.608701579737376 -2.146976053953639" fill="#ff830c" stroke="none" /><path d="M 79.17382384314188 102.69636545807758 l -14.641121610555462 1.8955863179527939 a35.763322441235374,35.763322441235374 0 0,0 -0.0736007706825347,-0.6095199636164492 l 14.671504467497657 -1.6439726774129453" fill="#ff830c" stroke="none" /><line stroke="#e1ed5e" stroke-width="0.3" x1="15.003131293944662" x2="10.003315487706104" y1="100.72959589197737" y2="100.7725132973878" /><path d="M 14.003168132696942 100.73817937305945 a86.0,86.0 0 0,1 10.791469493833604,-42.45332614584628" fill="none" id="id106" stroke="none" /><text fill="#e1ed5e" style="font-size:6.75px; font-family:Arial;" text-anchor="middle"><textPath startOffset="22.145653131862435" xlink:href="#id106">October</textPath></text><path d="M 79.00077361379809 100.18025310272382 l -14.921897835469482 0.12808654632813515 a35.9224475598187,35.9224475598187 0 0,0 0.0,-0.6166792981038999 l 14.921897835469482 0.12808654632812966" fill="#ff860c" stroke="none" /><path d="M 79.01933749520258 99.09900007780938 l -14.755477829592314 -0.6336637069162225 a35.76907768525351,35.76907768525351 0 0,0 0.03161034421156016,-0.6132322329328995 l 14.742425895924184 0.886867733225834" fill="#ff830c" stroke="none" /><path d="M 79.13060592940154 97.66154086499901 l -14.67855845614736 -1.6447630915543647 a35.770420575524405,35.770420575524405 0 0,0 0.0736153786137333,-0.6096409382422953 l 14.64816099127396 1.8964977067200963" fill="#ff830c" stroke="none" /><path d="M 79.22317932658666 96.9465228501225 l -14.61487746613971 -2.1478836965764483 a35.7718667650469,35.7718667650469 0 0,0 0.09450332340730958,-0.606779128384919 l 14.575852650594134 2.3984510068928175" fill="#ff830c" stroke="none" /><path d="M 79.34024301695615 96.23510406497455 l -14.531109506080227 -2.6480522087337164 a35.770420575524405,35.770420575524405 0 0,0 0.11527223747487028,-0.6031530558796543 l 14.483510976323199 2.8971078296466852" fill="#ff830c" stroke="none" /><path d="M 79.56144815229197 95.17655741523228 l -14.374260230962586 -3.3922862754257688 a35.76912195636134,35.76912195636134 0 0,0 0.14616365854359778,-0.5963976053286578 l 14.313909045902689 3.638539705362544" fill="#ff830c" stroke="none" /><path d="M 79.83685265289637 94.1308016681162 l -14.183701922170421 -4.1286689140571005 a35.77238326130494,35.77238326130494 0 0,0 0.17668777305252895,-0.5881361319080588 l 14.110737829114262 4.371542649555883" fill="#ff830c" stroke="none" /><path d="M 80.05021161711548 93.44210830539832 l -29.619390039550023 -9.736481821841151 a52.17863602824919,52.17863602824919 0 0,0 0.28701872113010535,-0.8485198491366324 l 29.447885896847552 10.243503345451945" fill="#a0ff22" stroke="none" /><path d="M 80.41425534168474 92.42381321644754 l -13.774818482177173 -5.328395705710263 a35.76947612522399,35.76947612522399 0 0,0 0.2264400738978383,-0.570776907826933 l 13.681319733313202 5.564073630750779" fill="#ff830c" stroke="none" /><path d="M 81.29705330413844 90.45014215332179 l -27.75230512464137 -14.170524739644817 a52.16078001475704,52.16078001475704 0 0,0 0.4140371973539625,-0.793970918777024 l 27.504959858312468 14.644841901526327" fill="#a0ff22" stroke="none" /><line stroke="#e1ed5e" stroke-width="0.3" x1="26.387840678322718" x2="22.05771365940052" y1="57.49999999999999" y2="54.99999999999999" /><path d="M 25.521815274538284 56.99999999999999 a86.0,86.0 0 0,1 29.574782752854787,-30.34633250058573" fill="none" id="id107" stroke="none" /><text fill="#e1ed5e" style="font-size:6.75px; font-family:Arial;" text-anchor="middle"><textPath startOffset="21.40746469413373" xlink:href="#id107">November</textPath></text><path d="M 82.78059297857968 87.97951657250589 l -12.111436701628145 -8.454723439312534 a35.770553388847894,35.770553388847894 0 0,0 0.35580612000751705,-0.5004858666117359 l 11.964515483090656 8.66138653263379" fill="#ff830c" stroke="none" /><path d="M 83.64595745247003 86.82634096563983 l -34.48294777103096 -27.777021804545917 a65.27907663117952,65.27907663117952 0 0,0 0.7104638381533954,-0.8666503627429564 l 34.00103711363893 28.36487444898737" fill="#34ff58" stroke="none" /><path d="M 84.34580500576568 86.00192230759919 l -8.809371969423228 -7.87739473634147 a32.81771476757668,32.81771476757668 0 0,0 0.3791263359871407,-0.416726256408536 l 8.672847932594221 8.027458568307663" fill="#ff5708" stroke="none" /><path d="M 85.34317274990677 84.96080404539775 l -43.905573753139684 -45.05098654065865 a83.90700115948141,83.90700115948141 0 0,0 1.0401571919211976,-0.9964470605529172 l 43.12574407535319 45.798045731517135" fill="#4dd3ff" stroke="none" /><path d="M 86.13680546590413 84.22622945171909 l -7.802171397503611 -8.877438825510104 a32.81874776009276,32.81874776009276 0 0,0 0.4263632303543026,-0.3682824035631663 l 7.64862868738646 9.01006536153798" fill="#ff5808" stroke="none" /><path d="M 86.96720088162412 83.53348406188908 l -27.944801392719256 -35.30734367506305 a66.02799620533362,66.02799620533362 0 0,0 0.8948052902714168,-0.6958060058964676 l 27.334586157812595 35.781850732580324" fill="#35ff62" stroke="none" /><path d="M 87.83215693770416 82.88440491214696 l -6.844876658043684 -9.628176226926746 a32.81330241382945,32.81330241382945 0 0,0 0.4618939651584627,-0.32243786017370746 l 6.678587601711456 9.74425890290558" fill="#ff5708" stroke="none" /><path d="M 89.03521579738668 82.08984904055464 l -23.8907472522854 -39.02374017724893 a66.75609360177084,66.75609360177084 0 0,0 0.9824819920234864,-0.5899522072096234 l 23.21733250370448 39.42810638499448" fill="#36ff6b" stroke="none" /><line stroke="#e1ed5e" stroke-width="0.3" x1="56.869717070023135" x2="54.33264160355391" y1="26.7553504044142" y2="22.446841604673864" /><path d="M 56.362301976729285 25.89364864446614 a86.0,86.0 0 0,1 42.16139366436587,-11.88097634709845" fill="none" id="id108" stroke="none" /><text fill="#e1ed5e" style="font-size:6.75px; font-family:Arial;" text-anchor="middle"><textPath startOffset="22.145653131862474" xlink:href="#id108">December</textPath></text><path d="M 90.61103034731259 81.2157712731953 l -5.285949338121092 -10.575439593326202 a32.822909244228946,32.822909244228946 0 0,0 0.5061601308640645,-0.2475882840132281 l 5.103628957994974 10.664621627436643" fill="#ff5808" stroke="none" /><path d="M 91.5904679813234 80.7573450057729 l -25.22859605602979 -57.7279649826813 a84.0,84.0 0 0,0 1.3262596993182754,-0.5661014013623844 l 24.233901281541083 58.15254103370309" fill="#4dd2ff" stroke="none" /><path d="M 92.592206182469 80.34994680014964 l -4.1721696333007 -11.067175635901245 a32.82748392537156,32.82748392537156 0 0,0 0.5290084135354999,-0.19425921698027396 l 3.9815720681110727 11.137165701890241" fill="#ff5808" stroke="none" /><path d="M 93.61358852112211 79.99465700312896 l -4.4909031898594165 -14.067690278964822 a35.76712975650891,35.76712975650891 0 0,0 0.5865117222357235,-0.18170283079937902 l 4.248750834752077 14.142709697570842" fill="#ff830c" stroke="none" /><path d="M 96.05791012581881 79.37332000966035 l -2.772432846075959 -14.506540169278491 a35.76909244228945,35.76909244228945 0 0,0 0.6040978429372439,-0.11008675054110052 l 2.5230002695876763 14.551995093750953" fill="#ff830c" stroke="none" /><path d="M 98.5590905019552 79.04949213459386 l -1.0133885465086898 -14.734447058022342 a35.769254769684835,35.769254769684835 0 0,0 0.6129413499468181,-0.03687302954515736 l 0.7603028444293879 14.749672065392193" fill="#ff830c" stroke="none" /></svg>