<?xml version="1.0" encoding="utf-8" ?>
<svg baseProfile="full" height="200mm" version="1.1" viewBox="0,0,200,200" width="200mm" xmlns="http://www.w3.org/2000/svg" xmlns:ev="http://www.w3.org/2001/xml-events" xmlns:xlink="http://www.w3.org/1999/xlink"><defs /><rect fill="#1a1a1a" height="200" width="200" x="0" y="0" /><text alignment-baseline="middle" fill="#e1ed5e" style="dominant-baseline: central; font-size:9.0px; font-family:Arial;" text-anchor="middle" x="100.0" y="100.0">2019</text><line stroke="#e1ed5e" stroke-width="0.3" x1="100.0" x2="100.0" y1="15.0" y2="10.0" /><path d="M 100.0 14.0 a86.0,86.0 0 0,1 42.46469731375804,11.215312516191453" fill="none" id="id49" stroke="none" /><text fill="#e1ed5e" style="font-size:6.75px; font-family:Arial;" text-anchor="middle"><textPath startOffset="22.20632615414155" xlink:href="#id49">January</textPath></text><path d="M 106.74666289553966 80.11325718540242 l 8.806977031187497 -25.959810043137573 a48.41303671437461,48.41303671437461 0 0,0 0.7868686032648332,0.2745230051090631 l -9.252527638515604 25.804366184856303" fill="#b0ff20" stroke="none" /><path d="M 108.76106565485865 80.91482961587045 l 12.4222073489786 -27.06062859724887 a50.77564198299108,50.77564198299108 0 0,0 0.7911855424802653,0.3714722208343729 l -12.886171102758462 26.84279139377449" fill="#95ff23" stroke="none" /><line stroke="#e1ed5e" stroke-width="0.3" x1="143.23703022742887" x2="145.7803849466894" y1="26.81831364943548" y2="22.513508569990506" /><path d="M 143.74570117128098 25.957352633546492 a86.0,86.0 0 0,1 28.547481713284135,27.462654790039103" fill="none" id="id50" stroke="none" /><text fill="#e1ed5e" style="font-size:6.75px; font-family:Arial;" text-anchor="middle"><textPath startOffset="19.985693538727396" xlink:href="#id50">February</textPath></text><path d="M 115.19652480421416 85.50635884689758 l 45.58957441264248 -43.480923459307235 a84.0,84.0 0 0,0 0.9889307121181483,1.0549223324877808 l -46.331272446731084 42.689731709941405" fill="#4dd2ff" stroke="none" /><line stroke="#e1ed5e" stroke-width="0.3" x1="172.23445277983987" x2="176.4835382374775" y1="55.19839476539836" y2="52.563006222186495" /><path d="M 173.08426987136738 54.67131705675599 a86.0,86.0 0 0,1 12.851231095245387,41.99856678651699" fill="none" id="id51" stroke="none" /><text fill="#e1ed5e" style="font-size:6.75px; font-family:Arial;" text-anchor="middle"><textPath startOffset="22.20632615414155" xlink:href="#id51">March</textPath></text><path d="M 118.21658344932153 89.55222093294921 l 54.60541488938643 -31.317909432144557 a83.94889027172786,83.94889027172786 0 0,0 0.7081383063626951,1.2596990308236196 l -55.13641083704156 30.373326891386146" fill="#4dd2ff" stroke="none" /><path d="M 120.08093135843002 93.85539295169968 l 13.894718809482658 -4.251674666227889 a35.530655465671025,35.530655465671025 0 0,0 0.17392104064889738,0.5863752882873984 l -13.965845747243257 4.0118699911939615" fill="#ffb010" stroke="none" /><line stroke="#e1ed5e" stroke-width="0.3" x1="184.98032266829074" x2="189.97916517819016" y1="98.17113171792111" y2="98.06355123074" /><path d="M 185.9800911702706 98.14961562048488 a86.0,86.0 0 0,1 -9.607161424134198,41.387399972396054" fill="none" id="id52" stroke="none" /><text fill="#e1ed5e" style="font-size:6.75px; font-family:Arial;" text-anchor="middle"><textPath startOffset="21.466115282336823" xlink:href="#id52">April</textPath></text><path d="M 120.99980553446 99.90962569577887 l 7.331738784648167 -0.03155271082421909 a28.33180667911222,28.33180667911222 0 0,0 -0.0020988508782843578,0.4876990276126003 l -7.3311956364803805 -0.09465579499206593" fill="#ff4d07" stroke="none" /><path d="M 120.76222939487914 103.15116336523771 l 9.868884959993625 1.4978386063563813 a30.98190416925949,30.98190416925949 0 0,0 -0.08456325683469704,0.5265754810315906 l -9.84163994879764 -1.6674933170811768" fill="#ff720a" stroke="none" /><path d="M 119.67450827220406 107.3425965602758 l 9.072052749930593 3.3857223974634345 a30.683246214478324,30.683246214478324 0 0,0 -0.18892948838918697,0.4932352769078111 l -9.012428981947899 -3.5413812412043897" fill="#ff6e0a" stroke="none" /><path d="M 119.41010516605496 108.01547362559984 l 11.298645971489673 4.6658170068983775 a33.22412570006223,33.22412570006223 0 0,0 -0.22283740502843608,0.5267218003819155 l -11.216657585268928 -4.859613332946457" fill="#ff910d" stroke="none" /><line stroke="#e1ed5e" stroke-width="0.3" x1="174.80103733775053" x2="179.2010983576182" y1="140.37084112569926" y2="142.7455964860345" /><path d="M 175.68104954172406 140.8457921977663 a86.0,86.0 0 0,1 -30.038265399797805,32.042727171017184" fill="none" id="id53" stroke="none" /><text fill="#e1ed5e" style="font-size:6.75px; font-family:Arial;" text-anchor="middle"><textPath startOffset="22.206326154141568" xlink:href="#id53">May</textPath></text><line stroke="#e1ed5e" stroke-width="0.3" x1="143.8653032363475" x2="146.44561519142675" y1="172.8068346515853" y2="177.08958963109032" /><path d="M 144.38136562736335 173.6633856474863 a86.0,86.0 0 0,1 -40.68145358897372,12.25698825130547" fill="none" id="id54" stroke="none" /><text fill="#e1ed5e" style="font-size:6.75px; font-family:Arial;" text-anchor="middle"><textPath startOffset="21.466115282336833" xlink:href="#id54">June</textPath></text><path d="M 110.8373102113329 117.98757091392108 l 7.511110942294207 12.46680570014139 a35.5546567102261,35.5546567102261 0 0,0 -0.5269405477513661,0.3113257636896188 l -7.295402523514459 -12.594250036124757" fill="#ffb010" stroke="none" /><path d="M 108.59647513512805 119.15986991738527 l 5.9526860594833275 13.267378636701476 a35.54158888197469,35.54158888197469 0 0,0 -0.5603373937445552,0.24563544661953546 l -5.723427991081019 -13.367878636615467" fill="#ffb010" stroke="none" /><path d="M 106.2309692047433 120.05430185196036 l 4.030764563339444 12.972968825758219 a34.58473345778884,34.58473345778884 0 0,0 -0.5700305596216404,0.17174553158201775 l -3.806859029277558 -13.040429726445963" fill="#ffa30f" stroke="none" /><line stroke="#e1ed5e" stroke-width="0.3" x1="102.19456741930631" x2="102.32365962044197" y1="184.97166512339345" y2="189.96999836594603" /><path d="M 102.22038585953345 185.97133177190398 a86.0,86.0 0 0,1 -42.740103519485714,-10.115201625700543" fill="none" id="id55" stroke="none" /><text fill="#e1ed5e" style="font-size:6.75px; font-family:Arial;" text-anchor="middle"><textPath startOffset="22.20632615414155" xlink:href="#id55">July</textPath></text><path d="M 98.37488393609728 120.93702456842531 l -0.2807968639765535 3.6176190552786336 a24.62850031113877,24.62850031113877 0 0,0 -0.42238544440765885,-0.036445193448752765 l 0.3430266261257541 -3.6122496095512178" fill="#ff1802" stroke="none" /><path d="M 95.51606077576429 120.51570834832081 l -2.0477368855753917 9.36916639982431 a30.59033395561087,30.59033395561087 0 0,0 -0.5134512544141029,-0.11685983385088126 l 2.2087082893823573 -9.332529832395743" fill="#ff6d0a" stroke="none" /><path d="M 94.81253420990036 120.34920634021253 l -2.511417787615134 9.851700393705878 a31.166770379589295,31.166770379589295 0 0,0 -0.5187182911602974,-0.1369982152526184 l 2.6806265215869205 -9.807010829149679" fill="#ff750a" stroke="none" /><path d="M 94.11515582081647 120.15858648285463 l -0.5574387419955361 1.9095114071431118 a22.98921385604646,22.98921385604646 0 0,0 -0.3789115349296541,-0.11416293721558783 l 0.5902252513654361 -1.8996331008217984" fill="#ff0000" stroke="none" /><path d="M 93.42475214034765 119.94407469862007 l -3.6901947643502817 11.193117218329464 a32.78572910184609,32.78572910184609 0 0,0 -0.5344546380610828,-0.18131603096455656 l 3.88231913534859 -11.127938200466785" fill="#ff8b0c" stroke="none" /><path d="M 92.7421414339146 119.70592522655815 l -4.013074393485787 10.895961006484512 a32.61149139182742,32.61149139182742 0 0,0 -0.5250912564284066,-0.1985445829084573 l 4.200035870674476 -10.825268173469421" fill="#ff890c" stroke="none" /><path d="M 92.06813273071674 119.44442032107085 l -2.2068612246142454 5.409966630158964 a26.84277120929268,26.84277120929268 0 0,0 -0.4263252525942346,-0.17820399016039243 l 2.2996579367059424 -5.371177596978598" fill="#ff3805" stroke="none" /><path d="M 91.40352486487194 119.15986991738527 l -6.00617999311823 13.386606203082222 a35.672267164488694,35.672267164488694 0 0,0 -0.5580705441461687,-0.25618281518581626 l 6.235718533031818 -13.281236317562332" fill="#ffb210" stroke="none" /><path d="M 90.7491055286396 118.85261126421891 l -6.802410475206925 13.862789241164911 a36.44181705040448,36.44181705040448 0 0,0 -0.5607633703227599,-0.2811783951364403 l 7.040027753212446 -13.74364300511917" fill="#ffbc11" stroke="none" /><line stroke="#e1ed5e" stroke-width="0.3" x1="58.666819895761336" x2="56.23545636021788" y1="174.27360380694188" y2="178.64263932499728" /><path d="M 58.180547188652646 175.14741091055294 a86.0,86.0 0 0,1 -31.652253787137756,-30.449443065178592" fill="none" id="id56" stroke="none" /><text fill="#e1ed5e" style="font-size:6.75px; font-family:Arial;" text-anchor="middle"><textPath startOffset="22.20632615414155" xlink:href="#id56">August</textPath></text><path d="M 89.1626897886671 117.98757091392108 l -7.549325892220079 12.530234180858386 a35.628707736984026,35.628707736984026 0 0,0 -0.5225896696439887,-0.3210172578970654 l 7.763894761796376 -12.398428456132942" fill="#ffb110" stroke="none" /><path d="M 87.65650970185807 116.9893568818739 l -8.862255635477139 12.197848431264509 a36.0773698402821,36.0773698402821 0 0,0 -0.4992679001597133,-0.3693464567284116 l 9.070908506055417 -12.043492025796331" fill="#ffb711" stroke="none" /><path d="M 86.79598089348748 116.32954008644616 l -9.152339870205909 11.318788589270746 a35.55610869114292,35.55610869114292 0 0,0 -0.47260819278141886,-0.3889243676571499 l 9.345818191532016 -11.159569102756414" fill="#ffb010" stroke="none" /><path d="M 86.24171649860922 115.8653595955263 l -9.704902736720511 11.191205046916911 a35.813109313420455,35.813109313420455 0 0,0 -0.46225795931404373,-0.4078889032833089 l 9.896103048941143 -11.022493001861314" fill="#ffb310" stroke="none" /><path d="M 85.18274418774928 114.88116024355367 l -10.248012852792924 10.29221087715324 a35.52416511097283,35.52416511097283 0 0,0 -0.4296045127146044,-0.43518710324753224 l 10.423657990563061 -10.114283279925042" fill="#ffb010" stroke="none" /><path d="M 84.9287848128048 114.62390073753433 l -10.434078522394072 10.124394529829996 a35.53868492014105,35.53868492014105 0 0,0 -0.4222223361991728,-0.4426984314821771 l 10.606807409972204 -9.943288981765317" fill="#ffb010" stroke="none" /><path d="M 84.67929136418377 114.36230785411682 l -11.177772075304775 10.478536436191716 a36.32130263430824,36.32130263430824 0 0,0 -0.42366826412133307,-0.4598082252053085 l 11.356486747421837 -10.284576956185063" fill="#ffba11" stroke="none" /><path d="M 84.19399662182784 113.82643327865904 l -10.935135850237899 9.56560128509039 a35.528521053723296,35.528521053723296 0 0,0 -0.39869343381819916,-0.4637705358927273 l 11.098171793626877 -9.375953650036132" fill="#ffb010" stroke="none" /><path d="M 83.50135304334701 112.99209946851258 l -10.266737371906029 8.084691641887108 a34.06782825140012,34.06782825140012 0 0,0 -0.358836731495019,-0.46384484713550106 l 10.404380920619117 -7.906768800638354" fill="#ff9c0e" stroke="none" /><path d="M 83.28015986056508 112.70617746262583 l -7.696929796609121 5.849251852738908 a30.667288944202447,30.667288944202447 0 0,0 -0.3157836054852457,-0.4230437441667639 l 7.796474668789451 -5.715895229062836" fill="#ff6e0a" stroke="none" /><path d="M 82.85270091963577 112.12312394758628 l -8.65130618747271 6.116465148692326 a31.595104750051856,31.595104750051856 0 0,0 -0.310142201490145,-0.4467829727449773 l 8.755309296124988 -5.966640913760336" fill="#ff7b0b" stroke="none" /><path d="M 82.05923443525364 110.91462005526583 l -11.197627791811204 6.812298640592177 a34.107031736154326,34.107031736154326 0 0,0 -0.30082259765252944,-0.5041959769491289 l 11.313231265161965 -6.618540569756937" fill="#ff9d0e" stroke="none" /><line stroke="#e1ed5e" stroke-width="0.3" x1="26.63291911575756" x2="22.317208475507996" y1="142.92168965132927" y2="145.44649492493687" /><path d="M 25.769776987707644 143.4266507060508 a86.0,86.0 0 0,1 -11.730757126820373,-40.83630448921669" fill="none" id="id57" stroke="none" /><text fill="#e1ed5e" style="font-size:6.75px; font-family:Arial;" text-anchor="middle"><textPath startOffset="21.46611528233685" xlink:href="#id57">September</textPath></text><path d="M 79.67330655649465 105.27499134158121 l -5.292838796117066 1.373547493078534 a26.46816013275254,26.46816013275254 0 0,0 -0.11064785671820355,-0.4419831857584833 l 5.315697967130328 -1.282236467922659" fill="#ff3304" stroke="none" /><path d="M 79.29508885075956 103.50808413554451 l -9.30382476380513 1.5763699645235267 a30.43642397842771,30.43642397842771 0 0,0 -0.08307440123616283,-0.5173043757983029 l 9.329580919402582 -1.41598635903201" fill="#ff6b09" stroke="none" /><line stroke="#e1ed5e" stroke-width="0.3" x1="15.007084014347285" x2="10.007500721073583" y1="101.09737516637583" y2="101.16192664675087" /><path d="M 14.007167355692545 101.11028546245083 a86.0,86.0 0 0,1 10.666146001902534,-42.60595125391555" fill="none" id="id58" stroke="none" /><text fill="#e1ed5e" style="font-size:6.75px; font-family:Arial;" text-anchor="middle"><textPath startOffset="22.20632615414155" xlink:href="#id58">October</textPath></text><path d="M 79.08570108090925 98.10471618934814 l -27.482282441908318 -2.490483912150902 a48.5948973242066,48.5948973242066 0 0,0 0.08266425759988735,-0.8324177928772818 l 27.4353410586262 2.9631772357326143" fill="#aeff20" stroke="none" /><path d="M 79.3925641242962 95.95851677861259 l -60.943182415515665 -11.95203763708652 a83.10412777432069,83.10412777432069 0 0,0 0.28738477482578206,-1.4013902246759082 l 60.72841834477489 12.999303517925831" fill="#4cdaff" stroke="none" /><path d="M 79.62865764111835 94.90015583598534 l -7.151027114432837 -1.7902170241791044 a28.371707114706492,28.371707114706492 0 0,0 0.12267881319603086,-0.47273151108173966 l 7.119151969366499 1.9130449608097078" fill="#ff4e07" stroke="none" /><path d="M 80.95270993114464 91.15688171328213 l -55.95121373983363 -25.976566724093413 a82.68727857291019,82.68727857291019 0 0,0 0.6104754769644873,-1.2858170451441873 l 55.49578006902739 26.93582618487813" fill="#4bdeff" stroke="none" /><line stroke="#e1ed5e" stroke-width="0.3" x1="26.266209847984243" x2="21.928928074336255" y1="57.711370442889674" y2="55.22380399835377" /><path d="M 25.398753493254645 57.213857153982495 a86.0,86.0 0 0,1 29.58750427330803,-30.492523968695096" fill="none" id="id59" stroke="none" /><text fill="#e1ed5e" style="font-size:6.75px; font-family:Arial;" text-anchor="middle"><textPath startOffset="21.46611528233685" xlink:href="#id59">November</textPath></text><path d="M 82.15384107792192 88.93136811851018 l -52.98084445343154 -32.860038206878166 a83.34382078406969,83.34382078406969 0 0,0 0.766653628519259,-1.21266192805035 l 52.40736322866631 33.76714778264273" fill="#4cd8ff" stroke="none" /><path d="M 84.07557802195018 86.31012108654704 l -9.648253070142758 -8.29439313016627 a33.72343289773906,33.72343289773906 0 0,0 0.38221197227373893,-0.4369343563289858 l 9.504049234291175 8.459243042698198" fill="#ff980e" stroke="none" /><path d="M 86.10567301691215 84.25364557470407 l -8.283095873895565 -9.387181079574667 a33.51913918274217,33.51913918274217 0 0,0 0.4359183226108956,-0.378024073757685 l 8.120283752637896 9.528370146752032" fill="#ff950d" stroke="none" /><line stroke="#e1ed5e" stroke-width="0.3" x1="56.762969772571076" x2="54.21961505331055" y1="26.818313649435495" y2="22.513508569990535" /><path d="M 56.25429882871897 25.957352633546506 a86.0,86.0 0 0,1 42.265352541879196,-11.944610805530505" fill="none" id="id60" stroke="none" /><text fill="#e1ed5e" style="font-size:6.75px; font-family:Arial;" text-anchor="middle"><textPath startOffset="22.20632615414155" xlink:href="#id60">December</textPath></text><path d="M 90.58718382345135 81.22770947309562 l -5.723965862735619 -11.415494377661899 a33.77017216345156,33.77017216345156 0 0,0 0.5218757707164151,-0.25608217420895607 l 5.526618825008778 11.512331712005686" fill="#ff980e" stroke="none" /><path d="M 95.33964822691252 79.52364482259891 l -2.274147264106871 -9.992002615441432 a31.247529558182947,31.247529558182947 0 0,0 0.525490115033344,-0.11485178570200487 l 2.1018144249200064 10.029667899239305" fill="#ff760a" stroke="none" /></svg>