<?xml version="1.0" encoding="utf-8" ?>
<svg baseProfile="full" height="200mm" version="1.1" viewBox="0,0,200,200" width="200mm" xmlns="http://www.w3.org/2000/svg" xmlns:ev="http://www.w3.org/2001/xml-events" xmlns:xlink="http://www.w3.org/1999/xlink"><defs /><rect fill="#1a1a1a" height="200" width="200" x="0" y="0" /><text alignment-baseline="middle" fill="#e1ed5e" style="dominant-baseline: central; font-size:9.0px; font-family:Arial;" text-anchor="middle" x="100.0" y="100.0">2024</text><line stroke="#e1ed5e" stroke-width="0.3" x1="100.0" x2="100.0" y1="15.0" y2="10.0" /><path d="M 100.0 14.0 a86.0,86.0 0 0,1 42.35913384403234,11.155469271406648" fill="none" id="id109" stroke="none" /><text fill="#e1ed5e" style="font-size:6.75px; font-family:Arial;" text-anchor="middle"><textPath startOffset="22.145653131862478" xlink:href="#id109">January</textPath></text><path d="M 104.9986988182912 79.60360301121754 l 0.8246564319031913 -3.3648796568624335 a24.464458592023572,24.464458592023572 0 0,0 0.40703582553140744,0.10346691514886988 l -0.882297550659993 3.350227509878296" fill="#ff1101" stroke="none" /><path d="M 107.06938296918511 80.22567764915836 l 1.4904101221827832 -4.168942370142503 a25.427347153530462,25.427347153530462 0 0,0 0.40975667244815817,0.1504683258442725 l -1.561755946285066 4.142743195289508" fill="#ff1f03" stroke="none" /><path d="M 109.06512990194946 81.05736502329252 l 1.9126656185129454 -3.996735516850973 a25.430822108807746,25.430822108807746 0 0,0 0.39216719489414353,0.19182862677147205 l -1.980993062669156 3.96331313998228" fill="#ff1f03" stroke="none" /><line stroke="#e1ed5e" stroke-width="0.3" x1="143.13028292997686" x2="145.6673583964461" y1="26.7553504044142" y2="22.446841604673864" /><path d="M 143.63769802327073 25.89364864446614 a86.0,86.0 0 0,1 29.32050498858742,28.57503671076993" fill="none" id="id110" stroke="none" /><text fill="#e1ed5e" style="font-size:6.75px; font-family:Arial;" text-anchor="middle"><textPath startOffset="20.669276256404974" xlink:href="#id110">February</textPath></text><path d="M 114.39649973595853 84.71141617570332 l 2.2749438870353416 -2.415911572285763 a24.318433126381144,24.318433126381144 0 0,0 0.30146463064006906,0.2887962967473526 l -2.316081003540723 2.3765031452328302" fill="#ff0f01" stroke="none" /><line stroke="#e1ed5e" stroke-width="0.3" x1="172.87174338648825" x2="177.1583165268699" y1="56.24261187166439" y2="53.66864786411523" /><path d="M 173.72905801456457 55.72781907015455 a86.0,86.0 0 0,1 12.242430191666344,42.057860355516425" fill="none" id="id111" stroke="none" /><text fill="#e1ed5e" style="font-size:6.75px; font-family:Arial;" text-anchor="middle"><textPath startOffset="22.145653131862474" xlink:href="#id111">March</textPath></text><path d="M 118.36410011445183 89.81374322990088 l 2.9023413807634055 -1.6098798391800506 a24.318930337788068,24.318930337788068 0 0,0 0.19936271190622737,0.3668049352172478 l -2.929549442284974 1.5598200704881997" fill="#ff0f01" stroke="none" /><path d="M 118.8641267826498 90.77261029715802 l 4.968929701777322 -2.430552513381973 a26.53153214774282,26.53153214774282 0 0,0 0.19661222477581847,0.41084393121446466 l -5.009921184513052 2.3448960801024046" fill="#ff2f04" stroke="none" /><path d="M 119.4528033332814 92.08871423366111 l 6.65924338626199 -2.7082563121473764 a28.188892455014205,28.188892455014205 0 0,0 0.17845089115271456,0.4498128184548316 l -6.704752952380829 2.593542476478979" fill="#ff4706" stroke="none" /><path d="M 119.94978838288452 93.4421083053983 l 6.3046779011776986 -2.0724728529322847 a27.63657345048932,27.63657345048932 0 0,0 0.1442830278660526,0.45196452978859547 l -6.339325644821008 1.963939289452302" fill="#ff3f05" stroke="none" /><path d="M 120.16314734710363 94.1308016681162 l 11.19738417028969 -3.259395339545872 a32.662121172261394,32.662121172261394 0 0,0 0.15208340286983044,0.5396903445378253 l -11.251686065234102 3.0666970711050334" fill="#ff860c" stroke="none" /><path d="M 120.43855184770803 95.1765574152323 l 6.458070506011931 -1.5240870550045076 a27.635474060822897,27.635474060822897 0 0,0 0.10500050789326272,0.46265161167161734 l -6.48328187546286 1.4130011093938641" fill="#ff3f05" stroke="none" /><path d="M 120.592083275326 95.88100663000786 l 6.506663850865721 -1.3015149999221782 a27.635556929390717,27.635556929390717 0 0,0 0.08905717153616194,0.46598475345586016 l -6.528047314684039 1.1896276814330036" fill="#ff3f05" stroke="none" /><path d="M 120.77682067341334 96.94652285012252 l 17.495381694952584 -2.5712186226010334 a38.68331263811428,38.68331263811428 0 0,0 0.09091588554761842,0.6578220581248571 l -17.536942097055412 2.270508256276091" fill="#ffd614" stroke="none" /><path d="M 120.99303781780057 99.45929381324524 l 23.495380091074754 -0.6051576472951725 a44.50317215616121,44.50317215616121 0 0,0 0.013114805950702147,0.7638716977546611 l -23.50230632862412 0.201739033571445" fill="#e0ff1b" stroke="none" /><line stroke="#e1ed5e" stroke-width="0.3" x1="184.99686870605535" x2="189.99668451229388" y1="99.2704041080226" y2="99.22748670261217" /><path d="M 185.99683186730306 99.26182062694052 a86.0,86.0 0 0,1 -10.086455211305974,41.156179273409016" fill="none" id="id112" stroke="none" /><text fill="#e1ed5e" style="font-size:6.75px; font-family:Arial;" text-anchor="middle"><textPath startOffset="21.40746469413373" xlink:href="#id112">April</textPath></text><path d="M 120.93736805541906 101.62068470465957 l 4.510798746528695 0.3491643512664178 a25.52429232873829,25.52429232873829 0 0,0 -0.0375649242421498,0.4365613611958935 l -4.504140199588805 -0.42654675983796864" fill="#ff2103" stroke="none" /><path d="M 120.7213421655516 103.40968896794604 l 4.363589110619172 0.7180269276119826 a25.42227007260865,25.42227007260865 0 0,0 -0.07455405438968159,0.4300079737507153 l -4.350620238737256 -0.792827934283286" fill="#ff1f03" stroke="none" /><path d="M 120.592083275326 104.11899336999214 l 5.424230581527241 1.084998030742743 a26.531681311164895,26.531681311164895 0 0,0 -0.09316699597922506,0.4458378025927837 l -5.404805874723651 -1.1779522846209358" fill="#ff2f04" stroke="none" /><path d="M 120.43855184770803 104.8234425847677 l 6.453957201749202 1.5231163263984513 a27.631247763864046,27.631247763864046 0 0,0 -0.11290979600277345,0.460710498253689 l -6.426859879230133 -1.6336826492602399" fill="#ff3f05" stroke="none" /><path d="M 119.83427380445688 106.89939002012753 l 6.281436036685867 2.1850095209355005 a27.650616910449333,27.650616910449333 0 0,0 -0.1597940079253428,0.4469722797904816 l -6.243001858716581 -2.292516757106904" fill="#ff4006" stroke="none" /><path d="M 119.4528033332814 107.91128576633889 l 5.123151532604091 2.0835411279434894 a26.53062611806798,26.53062611806798 0 0,0 -0.17519581765911124,0.4204061845838654 l -5.086629870408494 -2.1711798219686327" fill="#ff2f04" stroke="none" /><path d="M 119.31412917781788 108.2440532568976 l 6.105164120802539 2.605931527671549 a27.638065084710092,27.638065084710092 0 0,0 -0.1900000078496209,0.4347572007373155 l -6.059530230935952 -2.710350798184709" fill="#ff3f05" stroke="none" /><path d="M 119.0197475246899 108.90220220490707 l 4.010563846339912 1.877146385327208 a25.42812611806798,25.42812611806798 0 0,0 -0.1884354216753658,0.3937575575955961 l -3.9777491667046343 -1.9457164449879074" fill="#ff1f03" stroke="none" /><path d="M 118.8641267826498 109.22738970284198 l 5.961554375778174 2.9160949824925266 a27.636545827633377,27.636545827633377 0 0,0 -0.21211718357266116,0.42437645881345293 l -5.910617278993781 -3.0180032974697255" fill="#ff3f05" stroke="none" /><line stroke="#e1ed5e" stroke-width="0.3" x1="174.33088141563837" x2="178.70328620479359" y1="141.23008692659167" y2="143.65538615756765" /><path d="M 175.20536237346943 141.71514677278685 a86.0,86.0 0 0,1 -30.301960400862466,31.631185727798858" fill="none" id="id113" stroke="none" /><text fill="#e1ed5e" style="font-size:6.75px; font-family:Arial;" text-anchor="middle"><textPath startOffset="22.145653131862474" xlink:href="#id113">May</textPath></text><path d="M 117.62189284568427 111.42229804090321 l 9.794586648033466 6.348732730416578 a32.67220351467957,32.67220351467957 0 0,0 -0.30910325547500805,0.4680217255341365 l -9.684158953637732 -6.515934334289775" fill="#ff860c" stroke="none" /><path d="M 117.21940702142032 112.02048342749411 l 3.523278580666373 2.4595220809091374 a25.29682915921288,25.29682915921288 0 0,0 -0.25162503173460005,0.35394211900075306 l -3.4805384504018124 -2.5196414266193945" fill="#ff1d03" stroke="none" /><path d="M 116.1254893667686 113.45245675266167 l 8.955797803329228 7.471245051523757 a32.663010628222665,32.663010628222665 0 0,0 -0.3628789500852022,0.4274704907542268 l -8.826224289736912 -7.623882324727541" fill="#ff860c" stroke="none" /><path d="M 115.41159269507618 114.26474011684316 l 4.058805031238302 3.7567693424734414 a26.530570872356098,26.530570872356098 0 0,0 -0.31223218184521495,0.3315797570475062 l -3.993717015656827 -3.825890559465445" fill="#ff2f04" stroke="none" /><path d="M 115.16444852881244 114.52719865689866 l 4.789690988037719 4.588415619346639 a27.632849889508577,27.632849889508577 0 0,0 -0.3310852263818485,0.3397226092842689 l -4.710218960505064 -4.669960920698645" fill="#ff3f05" stroke="none" /><path d="M 114.39649973595853 115.28858382429668 l 12.122063354701522 12.873211205560443 a38.682307166158054,38.682307166158054 0 0,0 -0.4873422310978,0.45107669350706614 l -11.899291352289756 -13.079405645199888" fill="#ffd614" stroke="none" /><path d="M 113.31354834802062 116.24036423190432 l 2.1058956926306376 2.5688503311594397 a24.321714721666844,24.321714721666844 0 0,0 -0.32515727008320383,0.26192368010357386 l -2.061487652192181 -2.6046223050564175" fill="#ff0f01" stroke="none" /><path d="M 112.45986205192187 116.90419585922612 l 13.95194134963014 18.928487988693686 a44.514768231084915,44.514768231084915 0 0,0 -0.6190075067751624,0.4481136984075051 l -13.624952832481009 -19.165202458474266" fill="#e0ff1b" stroke="none" /><path d="M 110.96478420261333 117.91015095944535 l 2.9281962164659743 4.78298845710824 a26.60814690097864,26.60814690097864 0 0,0 -0.3916050769428693,0.23514759697643303 l -2.8456583829656683 -4.832550054620596" fill="#ff3004" stroke="none" /><line stroke="#e1ed5e" stroke-width="0.3" x1="143.1302829299769" x2="145.66735839644613" y1="173.24464959558577" y2="177.55315839532614" /><path d="M 143.63769802327073 174.10635135553383 a86.0,86.0 0 0,1 -40.68552437913181,11.842963189579606" fill="none" id="id114" stroke="none" /><text fill="#e1ed5e" style="font-size:6.75px; font-family:Arial;" text-anchor="middle"><textPath startOffset="21.407464694133747" xlink:href="#id114">June</textPath></text><path d="M 110.34350942703117 118.27599006163325 l 2.7228311685705013 4.810981778220584 a26.52805166789435,26.52805166789435 0 0,0 -0.39824392691424315,0.22089919306683878 l -2.639843053500164 -4.8570138867205666" fill="#ff2f04" stroke="none" /><path d="M 108.73861861582097 119.09545874513695 l 2.760538632467027 6.032275109843387 a27.633921656319057,27.633921656319057 0 0,0 -0.433045392553916,0.19369569597434394 l -2.6565798370574845 -6.0787745567275815" fill="#ff3f05" stroke="none" /><path d="M 108.07796709384702 119.3841803445677 l 2.1346408440131874 5.1223609369181 a26.549348889824266,26.549348889824266 0 0,0 -0.422192220002635,0.1717019004171705 l -2.046394162820112 -5.158250093914562" fill="#ff3004" stroke="none" /><path d="M 107.407793817531 119.65005319985036 l 1.9523781204336388 5.178914920924679 a26.534703251604757,26.534703251604757 0 0,0 -0.42760149704674094,0.15702119261344905 l -1.8631874717327708 -5.21166696254685" fill="#ff2f04" stroke="none" /><path d="M 106.72888874123015 119.89276391827305 l 0.8874939040811359 2.623718030083665 a23.769754814269177,23.769754814269177 0 0,0 -0.3876476455035951,0.12742748073763532 l -0.8423235209298067 -2.6385664322233198" fill="#ff0701" stroke="none" /><path d="M 106.38641147887787 120.00534299687104 l 2.0188466171864774 6.324008274202929 a27.63843523097969,27.63843523097969 0 0,0 -0.4532168602170842,0.14040774181552235 l -1.9099891240977687 -6.357732603825096" fill="#ff3f05" stroke="none" /><path d="M 105.69591212413111 120.21278271476187 l 0.6273385189057357 2.2262030900233545 a23.312905924444912,23.312905924444912 0 0,0 -0.3861267751800798,0.10524056960483243 l -0.5890303427909607 -2.236644153772329" fill="#ff0000" stroke="none" /><path d="M 105.3480935250658 120.30758222061773 l 1.408220614966975 5.347243048233498 a26.529565400399875,26.529565400399875 0 0,0 -0.4413947487585885,0.1122008190736932 l -1.316220572982989 -5.370629099142461" fill="#ff2f04" stroke="none" /><path d="M 103.58742460773223 120.69131181640829 l 0.9448105398021759 5.449416119948473 a26.530714511206988,26.530714511206988 0 0,0 -0.4494081910339352,0.07394994681475815 l -0.8511248457151684 -5.464832065258902" fill="#ff2f04" stroke="none" /><path d="M 103.2317021107853 120.74984581791261 l 0.8512260170692626 5.465481657927619 a26.531371935178363,26.531371935178363 0 0,0 -0.45062258490775997,0.06622600194048585 l -0.7572783265538171 -5.479288733166987" fill="#ff2f04" stroke="none" /><path d="M 102.51750503828377 120.84855314841334 l 0.6634703987548335 5.494486668542663 a26.534399400189415,26.534399400189415 0 0,0 -0.45268203227015014,0.05072396592023298 l -0.5690524648838841 -5.505066394969867" fill="#ff2f04" stroke="none" /><path d="M 100.72087961077811 120.9876233191556 l 0.18991096577733638 5.529050557567544 a26.532311112280333,26.532311112280333 0 0,0 -0.45532817484755644,0.011727638623844062 l -0.0949694768590361 -5.531495913541433" fill="#ff2f04" stroke="none" /><line stroke="#e1ed5e" stroke-width="0.3" x1="101.45913802915013" x2="101.54496967792366" y1="184.9874750549273" y2="189.98673829345242" /><path d="M 101.47630435890484 185.9873277026323 a86.0,86.0 0 0,1 -42.54439059252881,-10.42667462771756" fill="none" id="id115" stroke="none" /><text fill="#e1ed5e" style="font-size:6.75px; font-family:Arial;" text-anchor="middle"><textPath startOffset="22.145653131862474" xlink:href="#id115">July</textPath></text><path d="M 100.0 121.0 l 6.775154158135132e-16 5.532333210565085 a26.532333210565085,26.532333210565085 0 0,0 -0.45546278105433063,-0.003909600189567525 l 0.0949698562054778 -5.531518008569952" fill="#ff2f04" stroke="none" /><path d="M 98.91894614982273 120.97215588758144 l -0.2847063328819475 5.523226798001573 a26.53055982321372,26.53055982321372 0 0,0 -0.4546272282605459,-0.027349245113155854 l 0.3794779132749398 -5.517525575063725" fill="#ff2f04" stroke="none" /><path d="M 98.19965949673042 120.92268563240118 l -0.3318372535430342 3.8564518902903737 a24.870702409765336,24.870702409765336 0 0,0 -0.4250526644660063,-0.040252929250520056 l 0.39798948139405577 -3.8501872055346698" fill="#ff1702" stroke="none" /><path d="M 97.84075906011543 120.88869738790638 l -1.1996323901496486 11.60535515592181 a32.667192728612015,32.667192728612015 0 0,0 -0.5573086833404338,-0.062447600402968616 l 1.3986769750908816 -11.58305179501187" fill="#ff860c" stroke="none" /><path d="M 96.05791012581884 120.62667999033965 l -7.314209056251962 38.27103247286844 a59.96369567504998,59.96369567504998 0 0,0 -1.0093989124610598,-0.20190805235749276 l 7.97010445424398 -38.139835023848086" fill="#36ff2f" stroke="none" /><path d="M 94.30408787586889 120.21278271476187 l -1.2017712266553382 4.264662120457607 a25.43075581395349,25.43075581395349 0 0,0 -0.4191715001222972,-0.12201471461470323 l 1.2748027391592422 -4.243403711540387" fill="#ff1f03" stroke="none" /><path d="M 92.93061703081489 119.77432235084164 l -1.8607772012055486 5.204925006910029 a26.52754340734505,26.52754340734505 0 0,0 -0.4274861175719917,-0.156978823672148 l 1.949852470431659 -5.172215334229161" fill="#ff2f04" stroke="none" /><path d="M 91.59046798132341 119.24265499422711 l -1.8375951327551876 4.204777278943481 a25.588780648216353,25.588780648216353 0 0,0 -0.4009964165997664,-0.17936059667656848 l 1.9095049522105891 -4.172612931357057" fill="#ff2203" stroke="none" /><path d="M 90.6110303473126 118.78422872680471 l -2.4726764986902183 4.947009377700684 a26.530554298642535,26.530554298642535 0 0,0 -0.40563041800684857,-0.20711778166545222 l 2.557234138410649 -4.903833644362395" fill="#ff2f04" stroke="none" /><line stroke="#e1ed5e" stroke-width="0.3" x1="58.13341422392154" x2="55.67067388415222" y1="173.97424548756322" y2="178.32567169271397" /><path d="M 57.64086615596768 174.84453072859336 a86.0,86.0 0 0,1 -31.369924170532247,-30.572349798747897" fill="none" id="id116" stroke="none" /><text fill="#e1ed5e" style="font-size:6.75px; font-family:Arial;" text-anchor="middle"><textPath startOffset="22.145653131862474" xlink:href="#id116">August</textPath></text><path d="M 89.65649057296885 118.27599006163327 l -2.451832418873702 4.332152954105011 a25.97785409870567,25.97785409870567 0 0,0 -0.3862134151637856,-0.222980419209458 l 2.525838301897887 -4.289425637619381" fill="#ff2703" stroke="none" /><path d="M 87.2517909369889 116.68781488649013 l -2.3489376740733627 3.0748348172743483 a24.869382037251395,24.869382037251395 0 0,0 -0.3370275624223349,-0.2620746710325938 l 2.4013751811309256 -3.0340590946209613" fill="#ff1702" stroke="none" /><path d="M 86.40962598614128 116.0094264158162 l -3.2198803784691905 3.7930109895626583 a25.975395664526992,25.975395664526992 0 0,0 -0.3374581408838923,-0.29148830475696186 l 3.284517999115945 -3.7371785523409744" fill="#ff2703" stroke="none" /><path d="M 85.34317274990678 115.03919595460226 l -3.0882056860558897 3.1687710899653325 a25.424717457644952,25.424717457644952 0 0,0 -0.30994919512237645,-0.3073000726208889 l 3.1421468013082285 -3.1152910071157844" fill="#ff1f03" stroke="none" /><path d="M 84.58840730492382 114.26474011684316 l -2.033262306276235 1.8819572358455885 a23.770544827949067,23.770544827949067 0 0,0 -0.27460899178579073,-0.3018433863874233 l 2.065268998903906 -1.8467762739004911" fill="#ff0701" stroke="none" /><path d="M 84.1078160697243 113.72728997021213 l -3.34919038388749 2.8929508849619774 a25.42563453646217,25.42563453646217 0 0,0 -0.28247327445895,-0.33275280704369675 l 3.398358221853552 -2.8350312954687262" fill="#ff1f03" stroke="none" /><path d="M 82.18462484594161 111.11811171558189 l -3.752411431283541 2.341782260270456 a25.423181626854678,25.423181626854678 0 0,0 -0.2278789156020387,-0.3722230828705674 l 3.792058311340984 -2.2770220612753316" fill="#ff1f03" stroke="none" /><line stroke="#e1ed5e" stroke-width="0.3" x1="26.387840678322732" x2="22.057713659400548" y1="142.50000000000003" y2="145.00000000000006" /><path d="M 25.521815274538298 143.00000000000003 a86.0,86.0 0 0,1 -11.493303480769221,-40.785679425670985" fill="none" id="id117" stroke="none" /><text fill="#e1ed5e" style="font-size:6.75px; font-family:Arial;" text-anchor="middle"><textPath startOffset="21.40746469413373" xlink:href="#id117">September</textPath></text><path d="M 81.4637452351635 109.86951160357371 l -3.905599412022262 2.0795117031401253 a25.424711933073766,25.424711933073766 0 0,0 -0.20181401561331985,-0.38700498511394316 l 3.9407214966105313 -2.012160474921679" fill="#ff1f03" stroke="none" /><path d="M 80.68587082218212 108.24405325689762 l -4.22079166601355 1.8016049784345831 a25.58921156476902,25.58921156476902 0 0,0 -0.16897915727245436,-0.40548846275163475 l 4.25109666782249 -1.728884006241667" fill="#ff2203" stroke="none" /><path d="M 80.16572619554312 106.89939002012753 l -5.224310777376242 1.8172864807066897 a26.53136088603599,26.53136088603599 0 0,0 -0.14594090323151573,-0.4314483484049054 l 5.254737102180125 -1.7273364578276227" fill="#ff2f04" stroke="none" /><path d="M 79.2786578344484 103.40968896794605 l -5.454435964088174 0.8975253622343977 a26.527786488477325,26.527786488477325 0 0,0 -0.07008200053596904,-0.449976716875944 l 5.4690394567624105 -0.8037604634270037" fill="#ff2f04" stroke="none" /><path d="M 79.17382384314188 102.69636545807758 l -5.48117649897426 0.7096480347686847 a26.52692465537199,26.52692465537199 0 0,0 -0.054592301978682374,-0.45210257456829583 l 5.492550887212603 -0.6154517832769895" fill="#ff2f04" stroke="none" /><line stroke="#e1ed5e" stroke-width="0.3" x1="15.003131293944662" x2="10.003315487706104" y1="100.72959589197737" y2="100.7725132973878" /><path d="M 14.003168132696942 100.73817937305945 a86.0,86.0 0 0,1 10.791469493833604,-42.45332614584628" fill="none" id="id118" stroke="none" /><text fill="#e1ed5e" style="font-size:6.75px; font-family:Arial;" text-anchor="middle"><textPath startOffset="22.145653131862435" xlink:href="#id118">October</textPath></text><path d="M 79.00077361379809 100.18025310272382 l -5.586290306946452 0.04795158364523119 a26.58649610649269,26.58649610649269 0 0,0 0.0,-0.4564093727380954 l 5.586290306946452 0.04795158364522913" fill="#ff3004" stroke="none" /><path d="M 79.01933749520258 99.09900007780938 l -5.523987878933319 -0.23722380777836738 a26.529079238135324,26.529079238135324 0 0,0 0.02344464494478531,-0.4548198486415697 l 5.519101644531964 0.3320154497966491" fill="#ff2f04" stroke="none" /><path d="M 79.13060592940154 97.66154086499901 l -5.495191679211958 -0.6157476895286852 a26.529581974113437,26.529581974113437 0 0,0 0.054597770729728226,-0.45214786367205834 l 5.483811822222561 0.7099892301241798" fill="#ff2f04" stroke="none" /><path d="M 79.22317932658666 96.9465228501225 l -5.4713515148348195 -0.8041002563435534 a26.530123382089865,26.530123382089865 0 0,0 0.07008817422028596,-0.45001635635796094 l 5.456741848476266 0.8979047946329644" fill="#ff2f04" stroke="none" /><path d="M 79.34024301695615 96.23510406497455 l -5.43999141919064 -0.991347652225222 a26.529581974113437,26.529581974113437 0 0,0 0.08549310363774522,-0.4473360441796183 l 5.422172023270736 1.084586261438155" fill="#ff2f04" stroke="none" /><path d="M 79.56144815229197 95.17655741523228 l -5.381271972448518 -1.2699655330539408 a26.52909581184889,26.52909581184889 0 0,0 0.10840606337623178,-0.44233373223486044 l 5.358678382555988 1.3621550898969188" fill="#ff2f04" stroke="none" /><path d="M 79.83685265289637 94.1308016681162 l -5.309932921273445 -1.5456440855911175 a26.530316742081446,26.530316742081446 0 0,0 0.13103914685514295,-0.43618670170800905 l 5.282617454414672 1.63656839088985" fill="#ff2f04" stroke="none" /><path d="M 80.05021161711548 93.44210830539832 l -11.088570187251833 -3.6450332675394748 a32.67230295696096,32.67230295696096 0 0,0 0.17972034773015802,-0.5313112738511936 l 11.02436441794931 3.83484621586483" fill="#ff860c" stroke="none" /><path d="M 80.41425534168474 92.42381321644754 l -5.15685979192419 -1.9947841494820036 a26.529228401557404,26.529228401557404 0 0,0 0.1679443226585324,-0.4233294024509721 l 5.121856794299527 2.0830145691465587" fill="#ff2f04" stroke="none" /><path d="M 81.29705330413844 90.45014215332179 l -10.38959218342126 -5.304999797630105 a32.66561822582342,32.66561822582342 0 0,0 0.25929023715190014,-0.4972232184380483 l 10.29699387729442 5.48256925917264" fill="#ff860c" stroke="none" /><line stroke="#e1ed5e" stroke-width="0.3" x1="26.387840678322718" x2="22.05771365940052" y1="57.49999999999999" y2="54.99999999999999" /><path d="M 25.521815274538284 56.99999999999999 a86.0,86.0 0 0,1 29.574782752854787,-30.34633250058573" fill="none" id="id119" stroke="none" /><text fill="#e1ed5e" style="font-size:6.75px; font-family:Arial;" text-anchor="middle"><textPath startOffset="21.40746469413373" xlink:href="#id119">November</textPath></text><path d="M 81.99639281039701 89.18935116829357 l -54.01082156880897 -32.43194649511929 a84.0,84.0 0 0,0 0.752928142178428,-1.2298515355018278 l 53.44612546217515 33.35433514674566" fill="#4dd2ff" stroke="none" /><path d="M 82.78059297857968 87.97951657250589 l -4.534141849482253 -3.165183150140405 a26.529631695254132,26.529631695254132 0 0,0 0.26388759536663253,-0.3711909504321228 l 4.479139155585648 3.242551327282048" fill="#ff2f04" stroke="none" /><path d="M 83.64595745247003 86.82634096563983 l -12.909333585595496 -10.398845332778876 a37.57669683257919,37.57669683257919 0 0,0 0.4089654087424607,-0.49887130182050227 l 12.728921357614405 10.618918916297872" fill="#ffc712" stroke="none" /><path d="M 84.34580500576568 86.00192230759919 l -3.297952431097477 -2.949049400071223 a25.424181574239714,25.424181574239714 0 0,0 0.2937126144821155,-0.3228416141928137 l 3.2468421157734957 3.0052285898216944" fill="#ff1f03" stroke="none" /><path d="M 85.34317274990677 84.96080404539775 l -16.436869075398672 -16.8656756804915 a44.55040723981901,44.55040723981901 0 0,0 0.5522712747824098,-0.5290633883598972 l 16.14492531475096 17.145351199156966" fill="#dfff1b" stroke="none" /><path d="M 86.13680546590413 84.22622945171909 l -2.9208881424859277 -3.32343452610811 a25.424568294222876,25.424568294222876 0 0,0 0.3303020928016605,-0.28530708086120493 l 2.8634065699214184 3.3730857394340257" fill="#ff1f03" stroke="none" /><path d="M 86.96720088162412 83.53348406188908 l -10.461656745740592 -13.217961542880795 a37.85706882037252,37.85706882037252 0 0,0 0.5130354910255794,-0.398939500888917 l 10.233211310079769 13.395602095390517" fill="#ffcb12" stroke="none" /><path d="M 87.83215693770416 82.88440491214696 l -2.5625070315240106 -3.6044870513859077 a25.42252972745449,25.42252972745449 0 0,0 0.35785831343887725,-0.24981289545754826 l 2.5002536269113675 3.647944762648583" fill="#ff1f03" stroke="none" /><path d="M 89.03521579738668 82.08984904055464 l -8.94394609001493 -14.609263774396009 a38.129645638219515,38.129645638219515 0 0,0 0.5611725938498264,-0.33696801880857324 l 8.691840739607668 14.760645793740505" fill="#ffce13" stroke="none" /><line stroke="#e1ed5e" stroke-width="0.3" x1="56.869717070023135" x2="54.33264160355391" y1="26.7553504044142" y2="22.446841604673864" /><path d="M 56.362301976729285 25.89364864446614 a86.0,86.0 0 0,1 42.16139366436587,-11.88097634709845" fill="none" id="id120" stroke="none" /><text fill="#e1ed5e" style="font-size:6.75px; font-family:Arial;" text-anchor="middle"><textPath startOffset="22.145653131862474" xlink:href="#id120">December</textPath></text><path d="M 90.61103034731259 81.2157712731953 l -1.9788935614051402 -3.959112731054102 a25.426126223297906,25.426126223297906 0 0,0 0.3920947799230652,-0.19179320498035737 l 1.910638532220022 3.9924996861316733" fill="#ff1f03" stroke="none" /><path d="M 91.5904679813234 80.7573450057729 l -9.444794701024199 -21.61153861112402 a44.58522308744607,44.58522308744607 0 0,0 0.7039474353094577,-0.3004733008316399 l 9.072412190544311 21.770486561615062" fill="#dfff1b" stroke="none" /><path d="M 92.592206182469 80.34994680014964 l -1.5619293898423026 -4.143203274931407 a25.4278388403662,25.4278388403662 0 0,0 0.40976459588430786,-0.15047123543977872 l 1.4905756423038676 4.169405359379908" fill="#ff1f03" stroke="none" /><path d="M 93.61358852112211 79.99465700312896 l -1.6812532316977387 -5.266501802452092 a26.528349994738505,26.528349994738505 0 0,0 0.43501361024516266,-0.13476832844277875 l 1.59059898858096 5.294586718701513" fill="#ff2f04" stroke="none" /><path d="M 96.05791012581881 79.37332000966035 l -1.037911859835945 -5.4307934304671575 a26.529084762706514,26.529084762706514 0 0,0 0.44804499600059,-0.08164872343540099 l 0.9445321302843163 5.44781032783392" fill="#ff2f04" stroke="none" /><path d="M 98.5590905019552 79.04949213459386 l -0.3793808721217485 -5.5161146179939715 a26.52914553298958,26.52914553298958 0 0,0 0.45460299300693285,-0.027347787180479838 l 0.28463352698233185 5.521814382999145" fill="#ff2f04" stroke="none" /></svg>