<?xml version="1.0" encoding="utf-8" ?>
<svg baseProfile="full" height="200mm" version="1.1" viewBox="0,0,200,200" width="200mm" xmlns="http://www.w3.org/2000/svg" xmlns:ev="http://www.w3.org/2001/xml-events" xmlns:xlink="http://www.w3.org/1999/xlink"><defs /><rect fill="#1a1a1a" height="200" width="200" x="0" y="0" /><text alignment-baseline="middle" fill="#e1ed5e" style="dominant-baseline: central; font-size:9.0px; font-family:Arial;" text-anchor="middle" x="100.0" y="100.0">2017</text><line stroke="#e1ed5e" stroke-width="0.3" x1="100.0" x2="100.0" y1="15.0" y2="10.0" /><path d="M 100.0 14.0 a86.0,86.0 0 0,1 42.46469731375804,11.215312516191453" fill="none" id="id25" stroke="none" /><text fill="#e1ed5e" style="font-size:6.75px; font-family:Arial;" text-anchor="middle"><textPath startOffset="22.20632615414155" xlink:href="#id25">January</textPath></text><line stroke="#e1ed5e" stroke-width="0.3" x1="143.23703022742887" x2="145.7803849466894" y1="26.81831364943548" y2="22.513508569990506" /><path d="M 143.74570117128098 25.957352633546492 a86.0,86.0 0 0,1 28.547481713284135,27.462654790039103" fill="none" id="id26" stroke="none" /><text fill="#e1ed5e" style="font-size:6.75px; font-family:Arial;" text-anchor="middle"><textPath startOffset="19.985693538727396" xlink:href="#id26">February</textPath></text><path d="M 111.90073688211348 82.69761687909136 l 4.368712928171879 -6.351635665696063 a28.7090160382839,28.7090160382839 0 0,0 0.40475455533949534,0.28355643217492144 l -4.477398623095025 6.275494390757205" fill="#ff1602" stroke="none" /><path d="M 112.77801427241765 83.33499621200491 l 6.221021609950194 -8.113416254261542 a31.223924549133894,31.223924549133894 0 0,0 0.4237048569838773,0.33070836157099415 l -6.359759022093501 8.005129503467325" fill="#ff3d05" stroke="none" /><path d="M 114.16331599549186 84.49514656593476 l 8.574577794341668 -9.38675462741739 a33.71355759756328,33.71355759756328 0 0,0 0.42509925052681435,0.395083424374704 l -8.734884928663329 9.237766616968047" fill="#ff6309" stroke="none" /><path d="M 115.19652480421416 85.50635884689758 l 9.15436406676877 -8.730947994886844 a33.65036894151178,33.65036894151178 0 0,0 0.39616527762342457,0.42260149634349975 l -9.303296666362657 8.57207708166529" fill="#ff6209" stroke="none" /><path d="M 115.68641384162765 86.03803664274999 l 19.932873992606332 -17.741598500411243 a47.68489803156303,47.68489803156303 0 0,0 0.5404473198082215,0.6178247123065227 l -20.235313175992403 17.395858231901773" fill="#d9ff1c" stroke="none" /><path d="M 116.38621287248628 86.86637796730983 l 10.087976122643845 -8.085557443969943 a33.92839902813841,33.92839902813841 0 0,0 0.3613308568868034,0.4588534945232214 l -10.225661060124613 7.910711555493683" fill="#ff6609" stroke="none" /><path d="M 117.2510076193507 88.02491185347247 l 45.128141972712044 -31.326487700697907 a75.93539869311255,75.93539869311255 0 0,0 0.7361233030289597,1.0801701143503035 l -45.66068974140974 30.545039563077196" fill="#42ffd7" stroke="none" /><line stroke="#e1ed5e" stroke-width="0.3" x1="172.23445277983987" x2="176.4835382374775" y1="55.19839476539836" y2="52.563006222186495" /><path d="M 173.08426987136738 54.67131705675599 a86.0,86.0 0 0,1 12.851231095245387,41.99856678651699" fill="none" id="id27" stroke="none" /><text fill="#e1ed5e" style="font-size:6.75px; font-family:Arial;" text-anchor="middle"><textPath startOffset="22.20632615414155" xlink:href="#id27">March</textPath></text><path d="M 118.56541770881063 90.18545643968196 l 11.22847060023688 -5.935891965925248 a33.70091986635298,33.70091986635298 0 0,0 0.2667035702673666,0.515186407715122 l -11.328983603664362 5.741732835949781" fill="#ff6309" stroke="none" /><path d="M 119.196687751892 91.48605970444005 l 11.737343867403887 -5.205639962846416 a33.8399349096663,33.8399349096663 0 0,0 0.2315768107065729,0.5345112074604759 l -11.825211387953141 5.002829610799337" fill="#ff6509" stroke="none" /><path d="M 119.7369772167798 92.82701384747503 l 12.483408296712007 -4.5368302281112936 a34.28225550202685,34.28225550202685 0 0,0 0.19679144207906155,0.5563559069780953 l -12.559652819600878 4.321276694706583" fill="#ff6b09" stroke="none" /><path d="M 120.45610955862082 95.25157060432595 l 6.179830701599291 -1.434509806455178 a27.344141067571343,27.344141067571343 0 0,0 0.10248273260123623,0.4594099954068822 l -6.2036078212025645 1.327921641498332" fill="#ff0000" stroke="none" /><path d="M 120.6074358757038 95.95851677861258 l 12.438691868440962 -2.439447818036485 a33.67564440393238,33.67564440393238 0 0,0 0.10666243378078859,0.5697949862996353 l -12.47884002613161 2.224974754274287" fill="#ff6209" stroke="none" /><path d="M 120.87857604477298 97.74499172005257 l 12.627481965153274 -1.3638418791226083 a33.70091986635298,33.70091986635298 0 0,0 0.05732827260852431,0.5772878816045806 l -12.649087363444027 1.1462784668135928" fill="#ff6309" stroke="none" /><path d="M 120.98425023603335 99.18683210126433 l 15.191788423887234 -0.588702218651411 a36.20319064599268,36.20319064599268 0 0,0 0.018771019115909567,0.6229187399457707 l -15.199671137458788 0.3271133312806412" fill="#ff880c" stroke="none" /><line stroke="#e1ed5e" stroke-width="0.3" x1="184.98032266829074" x2="189.97916517819016" y1="98.17113171792111" y2="98.06355123074" /><path d="M 185.9800911702706 98.14961562048488 a86.0,86.0 0 0,1 -9.607161424134198,41.387399972396054" fill="none" id="id28" stroke="none" /><text fill="#e1ed5e" style="font-size:6.75px; font-family:Arial;" text-anchor="middle"><textPath startOffset="21.466115282336823" xlink:href="#id28">April</textPath></text><path d="M 120.99980553446 99.90962569577887 l 26.67236084257594 -0.11478658929137081 a47.67260783796102,47.67260783796102 0 0,0 -0.003531638344284564,0.8206283753683637 l -26.670384906942154 -0.34435126428067764" fill="#d9ff1c" stroke="none" /><path d="M 120.8583938346157 102.4346265915055 l 53.276932542024326 6.218572614416617 a74.6386258814316,74.6386258814316 0 0,0 -0.15993454840731247,1.2748357118121358 l -53.16199648437017 -7.134726080516148" fill="#40ffc9" stroke="none" /><path d="M 120.02730092923936 106.31721596034902 l 12.06441645988379 3.805481551505797 a33.65036894151178,33.65036894151178 0 0,0 -0.17900033175852745,0.5509063742021325 l -11.997123877109013 -4.012586825685725" fill="#ff6209" stroke="none" /><line stroke="#e1ed5e" stroke-width="0.3" x1="174.80103733775053" x2="179.2010983576182" y1="140.37084112569926" y2="142.7455964860345" /><path d="M 175.68104954172406 140.8457921977663 a86.0,86.0 0 0,1 -30.038265399797805,32.042727171017184" fill="none" id="id29" stroke="none" /><text fill="#e1ed5e" style="font-size:6.75px; font-family:Arial;" text-anchor="middle"><textPath startOffset="22.206326154141568" xlink:href="#id29">May</textPath></text><path d="M 118.30583269289576 110.29060199501025 l 5.51921146523507 3.1026181364081387 a27.33150333636104,27.33150333636104 0 0,0 -0.23407220558091005,0.4081246204352414 l -5.46498726350178 -3.1971626027016953" fill="#ff0000" stroke="none" /><path d="M 116.93607887273984 112.41649034213515 l 10.497839091745535 7.696369311656397 a34.01686314661052,34.01686314661052 0 0,0 -0.35027444751568876,0.4692498634793954 l -10.363803377534754 -7.875932054645108" fill="#ff6709" stroke="none" /><path d="M 113.20401910651253 116.32954008644616 l 8.00970452946194 9.905680243216787 a33.73883305998389,33.73883305998389 0 0,0 -0.4547392334327888,0.36127234934443025 l -7.8380078033118 -10.042086506566344" fill="#ff6309" stroke="none" /><path d="M 111.7513745106137 117.40417183066458 l 7.092992555174282 10.504955068224685 a33.67535499988767,33.67535499988767 0 0,0 -0.48320173763713364,0.32023976352047295 l -6.911116118797184 -10.625492852836476" fill="#ff6209" stroke="none" /><line stroke="#e1ed5e" stroke-width="0.3" x1="143.8653032363475" x2="146.44561519142675" y1="172.8068346515853" y2="177.08958963109032" /><path d="M 144.38136562736335 173.6633856474863 a86.0,86.0 0 0,1 -40.68145358897372,12.25698825130547" fill="none" id="id30" stroke="none" /><text fill="#e1ed5e" style="font-size:6.75px; font-family:Arial;" text-anchor="middle"><textPath startOffset="21.466115282336833" xlink:href="#id30">June</textPath></text><path d="M 109.57404056367764 118.69057910512821 l 6.130370329507581 11.967796754704699 a34.44654600776077,34.44654600776077 0 0,0 -0.5300603207730429,0.265783248707359 l -5.9234561010517774 -12.071547844321358" fill="#ff6e0a" stroke="none" /><path d="M 106.91757812671514 119.82793768551818 l 4.208768591171203 12.063644216207237 a33.77674625361479,33.77674625361479 0 0,0 -0.5506096459767367,0.18679668677118258 l -4.000489212257239 -12.134303889876541" fill="#ff6409" stroke="none" /><path d="M 106.2309692047433 120.05430185196036 l 1.8898875357410845 6.082581033967827 a27.369416529991945,27.369416529991945 0 0,0 -0.4511066664761438,0.1359147381248506 l -1.7849058948246947 -6.114211141198403" fill="#ff0100" stroke="none" /><line stroke="#e1ed5e" stroke-width="0.3" x1="102.19456741930631" x2="102.32365962044197" y1="184.97166512339345" y2="189.96999836594603" /><path d="M 102.22038585953345 185.97133177190398 a86.0,86.0 0 0,1 -42.740103519485714,-10.115201625700543" fill="none" id="id31" stroke="none" /><text fill="#e1ed5e" style="font-size:6.75px; font-family:Arial;" text-anchor="middle"><textPath startOffset="22.20632615414155" xlink:href="#id31">July</textPath></text><path d="M 99.09653310690486 120.98055641714683 l -0.33111538081793307 7.689252346631553 a28.696378307073598,28.696378307073598 0 0,0 -0.4933207124844712,-0.02549904592547386 l 0.4634241617158932 -7.682413493943878" fill="#ff1602" stroke="none" /><path d="M 97.2962882734958 120.8252237178851 l -1.6433557090665305 12.657876930401772 a33.76410852240449,33.76410852240449 0 0,0 -0.5757124717113381,-0.07978850267519831 l 1.8609967719646998 -12.62771386223397" fill="#ff6409" stroke="none" /><path d="M 94.11515582081647 120.15858648285463 l -3.5556458698491857 12.179896797149205 a33.688282135142686,33.688282135142686 0 0,0 -0.5552551197662129,-0.16729381275835875 l 3.7647759640556444 -12.11688761528512" fill="#ff6309" stroke="none" /><path d="M 93.08242187328487 119.8279376855182 l -4.171263509082591 11.956142946699176 a33.66289040559494,33.66289040559494 0 0,0 -0.5454677684613908,-0.1955853349566215 l 4.376450838173708 -11.882570070702597" fill="#ff6209" stroke="none" /><path d="M 92.7421414339146 119.70592522655815 l -3.5549428533073306 9.652080901563444 a31.285926522224756,31.285926522224756 0 0,0 -0.503747782298565,-0.19047430728103476 l 3.7205608563661783 -9.589458344175776" fill="#ff3e05" stroke="none" /><path d="M 92.40401165467489 119.57807347666478 l -4.621524553982584 11.911622711712944 a33.77674625361479,33.77674625361479 0 0,0 -0.5402331993557778,-0.21496993916624693 l 4.825878829380221 -11.83030592814063" fill="#ff6409" stroke="none" /><path d="M 91.40352486487194 119.15986991738527 l -5.199197229731301 11.587998689069405 a33.70091986635298,33.70091986635298 0 0,0 -0.5272300356273588,-0.24202545035625184 l 5.397895261126079 -11.49678616837908" fill="#ff6309" stroke="none" /><path d="M 90.10565033884886 118.52300852407294 l -6.0853837338937895 11.392321742756696 a33.91576129692811,33.91576129692811 0 0,0 -0.5125756644644491,-0.2794971211960828 l 6.280582210226879 -11.285883969800848" fill="#ff6609" stroke="none" /><line stroke="#e1ed5e" stroke-width="0.3" x1="58.666819895761336" x2="56.23545636021788" y1="174.27360380694188" y2="178.64263932499728" /><path d="M 58.180547188652646 175.14741091055294 a86.0,86.0 0 0,1 -31.652253787137756,-30.449443065178592" fill="none" id="id32" stroke="none" /><text fill="#e1ed5e" style="font-size:6.75px; font-family:Arial;" text-anchor="middle"><textPath startOffset="22.20632615414155" xlink:href="#id32">August</textPath></text><path d="M 89.7882731507175 118.34994917583269 l -4.265040996871509 7.664059828522931 a29.770882952141914,29.770882952141914 0 0,0 -0.44564351265953434,-0.2530480170693266 l 4.396333276452251 -7.589508645658971" fill="#ff2703" stroke="none" /><path d="M 87.07902340077011 116.55440617244103 l -7.822456200527449 10.022161731751721 a33.71355759756328,33.71355759756328 0 0,0 -0.4543985653253368,-0.36100170199650694 l 7.993812258570144 -9.886026115750084" fill="#ff6309" stroke="none" /><path d="M 86.51685102203217 116.09983520530335 l -8.552277092153192 10.212024805091918 a34.320168695657756,34.320168695657756 0 0,0 -0.4496506313273723,-0.38320202297931066 l 8.726793200057621 -10.063298391889655" fill="#ff6c09" stroke="none" /><path d="M 86.24171649860922 115.8653595955263 l -8.387325912389347 9.671841813078009 a33.8020217160354,33.8020217160354 0 0,0 -0.4362998320642372,-0.38498387408505774 l 8.552568097360172 -9.526034797220664" fill="#ff6409" stroke="none" /><path d="M 85.18274418774928 114.88116024355367 l -9.585749211748315 9.627090999981657 a34.58556105107409,34.58556105107409 0 0,0 -0.4182536888873557,-0.4236887786381373 l 9.750043525691202 -9.460661727362854" fill="#ff700a" stroke="none" /><path d="M 84.67929136418377 114.36230785411682 l -15.649036053494067 14.670096453308144 a42.45003634852215,42.45003634852215 0 0,0 -0.49515661353725565,-0.5373947093758069 l 15.899239075027051 -14.398550489130992" fill="#ffe015" stroke="none" /><path d="M 84.43433777217949 114.09645910891817 l -9.448203022773283 8.55641126050114 a33.746792303100136,33.746792303100136 0 0,0 -0.3862258515621757,-0.433928838582249 l 9.594087723983797 -8.392508252178025" fill="#ff6309" stroke="none" /><path d="M 83.95833913139862 113.55231037782056 l -9.76001097165056 8.245449087983033 a33.77674625361479,33.77674625361479 0 0,0 -0.37138980097812685,-0.4473629400841855 l 9.900496772522223 -8.076224890785086" fill="#ff6409" stroke="none" /><path d="M 83.72743513129214 113.27417163493432 l -9.920082324990124 8.092201596800493 a33.8020217160354,33.8020217160354 0 0,0 -0.36390626887277217,-0.4540290235655628 l 10.057906505917758 -7.9202447396566695" fill="#ff6409" stroke="none" /><path d="M 83.06392112726016 112.41649034213515 l -23.41120038227135 17.16365078531529 a50.02886859006249,50.02886859006249 0 0,0 -0.5031956195622118,-0.6988947048393063 l 23.70317579420917 -16.758122475024848" fill="#bbff1f" stroke="none" /><path d="M 82.6465618267979 111.8261652097733 l -10.902744906887795 7.430093173581035 a34.19379138355474,34.19379138355474 0 0,0 -0.32727837534894416,-0.4892367654335843 l 11.02902638764747 -7.24131949394163" fill="#ff6a09" stroke="none" /><path d="M 82.05923443525364 110.91462005526583 l -11.152984848593759 6.78513922191471 a34.054776340241425,34.054776340241425 0 0,0 -0.30036170723962324,-0.503423498106731 l 11.268127431531614 -6.592153629921867" fill="#ff6809" stroke="none" /><line stroke="#e1ed5e" stroke-width="0.3" x1="26.63291911575756" x2="22.317208475507996" y1="142.92168965132927" y2="145.44649492493687" /><path d="M 25.769776987707644 143.4266507060508 a86.0,86.0 0 0,1 -11.730757126820373,-40.83630448921669" fill="none" id="id33" stroke="none" /><text fill="#e1ed5e" style="font-size:6.75px; font-family:Arial;" text-anchor="middle"><textPath startOffset="21.46611528233685" xlink:href="#id33">September</textPath></text><path d="M 81.69416730710424 110.29060199501025 l -23.178484875957263 13.029757602799856 a47.58978646647431,47.58978646647431 0 0,0 -0.3952753061389559,-0.7175394961160991 l 23.399336591547733 -12.628847588285936" fill="#daff1c" stroke="none" /><path d="M 81.18737489456691 109.33194174019688 l -12.408228275672647 6.155061439788101 a34.85095340649042,34.85095340649042 0 0,0 -0.26195759519460377,-0.5397102353776173 l 12.512339127481969 -5.9405622484451985" fill="#ff740a" stroke="none" /><path d="M 80.73074385275274 108.34839909993369 l -11.723733156632628 5.079303663036135 a33.77674625361479,33.77674625361479 0 0,0 -0.2265438842065751,-0.5354828222827855 l 11.80942802203151 -4.876746315087191" fill="#ff6409" stroke="none" /><path d="M 80.45479744820244 107.68017299344265 l -35.35729004758817 13.893440266232032 a58.98902001816624,58.98902001816624 0 0,0 -0.36321989188199516,-0.948252522559048 l 35.59120421906368 -13.282764176839825" fill="#52ff2b" stroke="none" /><path d="M 80.0844068197444 106.66101706037122 l -7.322919769144463 2.4492413091847935 a28.721653769494203,28.721653769494203 0 0,0 -0.152782442365755,-0.4702160076385132 l 7.363994462526468 -2.322826401568477" fill="#ff1602" stroke="none" /><path d="M 79.67330655649465 105.27499134158121 l -60.98008033051604 15.824974024743632 a84.0,84.0 0 0,0 -0.3511547428197659,-1.4026886424104326 l 61.24344638763086 -14.772957542935808" fill="#4dd2ff" stroke="none" /><line stroke="#e1ed5e" stroke-width="0.3" x1="15.007084014347285" x2="10.007500721073583" y1="101.09737516637583" y2="101.16192664675087" /><path d="M 14.007167355692545 101.11028546245083 a86.0,86.0 0 0,1 10.666146001902534,-42.60595125391555" fill="none" id="id34" stroke="none" /><text fill="#e1ed5e" style="font-size:6.75px; font-family:Arial;" text-anchor="middle"><textPath startOffset="22.20632615414155" xlink:href="#id34">October</textPath></text><path d="M 79.08570108090925 98.10471618934814 l -12.596713848681077 -1.1415323036731841 a33.648331739240675,33.648331739240675 0 0,0 0.05723881551064621,-0.576387060837125 l 12.575197907488203 1.3581948952147394" fill="#ff6209" stroke="none" /><path d="M 80.52162464483688 92.15188598940014 l -7.209043827305998 -2.9046261216601743 a28.772204694335407,28.772204694335407 0 0,0 0.18904477468044595,-0.4577869167857177 l 7.157977365739352 3.0282876088992032" fill="#ff1702" stroke="none" /><path d="M 81.26839172434947 90.50648371742162 l -7.462474771766977 -3.7821165546256226 a29.36617806121958,29.36617806121958 0 0,0 0.2323991322816717,-0.44892115241007524 l 7.3962662063251905 3.9100104292960336" fill="#ff2003" stroke="none" /><path d="M 81.6062741919709 89.86733742301443 l -6.641570363367348 -3.658681888360695 a28.582638726180885,28.582638726180885 0 0,0 0.2411045734305713,-0.4288981329617248 l 6.577608148644347 3.772463531257204" fill="#ff1402" stroke="none" /><line stroke="#e1ed5e" stroke-width="0.3" x1="26.266209847984243" x2="21.928928074336255" y1="57.711370442889674" y2="55.22380399835377" /><path d="M 25.398753493254645 57.213857153982495 a86.0,86.0 0 0,1 29.58750427330803,-30.492523968695096" fill="none" id="id35" stroke="none" /><text fill="#e1ed5e" style="font-size:6.75px; font-family:Arial;" text-anchor="middle"><textPath startOffset="21.46611528233685" xlink:href="#id35">November</textPath></text><path d="M 81.96595687620814 89.24020034530311 l -11.417175137828929 -6.811923220010343 a34.294893233237154,34.294893233237154 0 0,0 0.30683183990410395,-0.504350868802203 l 11.298227499638607 7.00744186201962" fill="#ff6c09" stroke="none" /><path d="M 82.54541684631803 88.32363383020206 l -16.375908995852125 -10.954779504918875 a40.70222295686,40.70222295686 0 0,0 0.39457032318632557,-0.5789832618553087 l 16.184914206997057 11.235040790044598" fill="#ffc812" stroke="none" /><path d="M 83.39014120810768 87.1503855733568 l -10.055733163719806 -7.779253005695642 a33.71355759756328,33.71355759756328 0 0,0 0.3590428373978644,-0.45594794212428513 l 9.92033624572797 7.951193341772975" fill="#ff6309" stroke="none" /><path d="M 84.07557802195018 86.31012108654704 l -20.244527485273338 -17.403779573002936 a47.69704921012174,47.69704921012174 0 0,0 0.5405850378731888,-0.6179821478617535 l 19.941950583822305 17.749677277067633" fill="#d9ff1c" stroke="none" /><path d="M 84.5562425177563 85.77008943001954 l -18.056211788983727 -16.63703145334142 a45.55234407848071,45.55234407848071 0 0,0 0.5362870484307634,-0.5720736317328293 l 17.76715741858251 16.9453745019523" fill="#f4ff19" stroke="none" /><path d="M 85.83668400450813 84.49514656593479 l -18.029217523495856 -19.736929919636058 a47.73198621805262,47.73198621805262 0 0,0 0.6113990396607942,-0.5489200945271825 l 17.68680749623909 20.04434902293252" fill="#d8ff1c" stroke="none" /><path d="M 86.65592168130627 83.78471172551755 l -8.30345699010725 -10.090089817648478 a34.06741407145172,34.06741407145172 0 0,0 0.4560111578657616,-0.3687293095437624 l 8.128542433676989 10.231525224456375" fill="#ff6809" stroke="none" /><path d="M 87.22198572758235 83.33499621200491 l -7.7051466664648895 -10.049002579443835 a33.66300667272208,33.66300667272208 0 0,0 0.4628725072764516,-0.34862597612718 l 7.5310280054300485 10.18014514507687" fill="#ff6209" stroke="none" /><path d="M 88.70189139769569 82.29822771554957 l -6.9079513836156305 -10.823314472289445 a33.8399349096663,33.8399349096663 0 0,0 0.4937099019662719,-0.30916109531824737 l 6.720622329277116 10.940619908930623" fill="#ff6509" stroke="none" /><line stroke="#e1ed5e" stroke-width="0.3" x1="56.762969772571076" x2="54.21961505331055" y1="26.818313649435495" y2="22.513508569990535" /><path d="M 56.25429882871897 25.957352633546506 a86.0,86.0 0 0,1 42.265352541879196,-11.944610805530505" fill="none" id="id36" stroke="none" /><text fill="#e1ed5e" style="font-size:6.75px; font-family:Arial;" text-anchor="middle"><textPath startOffset="22.20632615414155" xlink:href="#id36">December</textPath></text><path d="M 92.23578459929587 80.48803036053334 l -20.09904064479517 -50.51017399750189 a75.36220297319677,75.36220297319677 0 0,0 1.209444339270417,-0.46924561379174534 l 19.226613140525078 50.848662315184185" fill="#41ffd1" stroke="none" /></svg>