<?xml version="1.0" encoding="utf-8" ?>
<svg baseProfile="full" height="200mm" version="1.1" viewBox="0,0,200,200" width="200mm" xmlns="http://www.w3.org/2000/svg" xmlns:ev="http://www.w3.org/2001/xml-events" xmlns:xlink="http://www.w3.org/1999/xlink"><defs /><rect fill="#1a1a1a" height="200" width="200" x="0" y="0" /><text alignment-baseline="middle" fill="#e1ed5e" style="dominant-baseline: central; font-size:9.0px; font-family:Arial;" text-anchor="middle" x="100.0" y="100.0">2019</text><line stroke="#e1ed5e" stroke-width="0.3" x1="100.0" x2="100.0" y1="15.0" y2="10.0" /><path d="M 100.0 14.0 a86.0,86.0 0 0,1 42.46469731375804,11.215312516191453" fill="none" id="id37" stroke="none" /><text fill="#e1ed5e" style="font-size:6.75px; font-family:Arial;" text-anchor="middle"><textPath startOffset="22.20632615414155" xlink:href="#id37">January</textPath></text><path d="M 101.80526077348638 79.07773832637324 l 2.4268214276633415 -28.12590496091013 a49.23040899653979,49.23040899653979 0 0,0 0.8436565324250027,0.08011535336913425 l -2.9106030871785884 28.079964063025816" fill="#cdff1d" stroke="none" /><path d="M 106.74666289553966 80.11325718540242 l 8.814900263118668 -25.983164889543158 a48.43769896193771,48.43769896193771 0 0,0 0.7872694446416681,0.27466285079471403 l -9.260851711823609 25.827581185576236" fill="#d7ff1c" stroke="none" /><path d="M 108.76106565485865 80.91482961587045 l 12.433383037251035 -27.084973799447084 a50.80242975778547,50.80242975778547 0 0,0 0.7916029493175758,0.3716681989413049 l -12.89776419786821 26.866940617865776" fill="#b9ff1f" stroke="none" /><line stroke="#e1ed5e" stroke-width="0.3" x1="143.23703022742887" x2="145.7803849466894" y1="26.81831364943548" y2="22.513508569990506" /><path d="M 143.74570117128098 25.957352633546492 a86.0,86.0 0 0,1 28.547481713284135,27.462654790039103" fill="none" id="id38" stroke="none" /><text fill="#e1ed5e" style="font-size:6.75px; font-family:Arial;" text-anchor="middle"><textPath startOffset="19.985693538727396" xlink:href="#id38">February</textPath></text><line stroke="#e1ed5e" stroke-width="0.3" x1="172.23445277983987" x2="176.4835382374775" y1="55.19839476539836" y2="52.563006222186495" /><path d="M 173.08426987136738 54.67131705675599 a86.0,86.0 0 0,1 12.851231095245387,41.99856678651699" fill="none" id="id39" stroke="none" /><text fill="#e1ed5e" style="font-size:6.75px; font-family:Arial;" text-anchor="middle"><textPath startOffset="22.20632615414155" xlink:href="#id39">March</textPath></text><path d="M 118.21658344932153 89.55222093294921 l 54.6497503479646 -31.34333720115238 a84.0,84.0 0 0,0 0.708569434830268,1.2604659602608244 l -55.1811774240873 30.397987730956764" fill="#4dd2ff" stroke="none" /><path d="M 120.08093135843002 93.85539295169968 l 13.907219248550009 -4.255499702259789 a35.54372802768166,35.54372802768166 0 0,0 0.17398503028148474,0.5865910295175327 l -13.978410175943196 4.015479285995727" fill="#ff710a" stroke="none" /><line stroke="#e1ed5e" stroke-width="0.3" x1="184.98032266829074" x2="189.97916517819016" y1="98.17113171792111" y2="98.06355123074" /><path d="M 185.9800911702706 98.14961562048488 a86.0,86.0 0 0,1 -9.607161424134198,41.387399972396054" fill="none" id="id40" stroke="none" /><text fill="#e1ed5e" style="font-size:6.75px; font-family:Arial;" text-anchor="middle"><textPath startOffset="21.466115282336823" xlink:href="#id40">April</textPath></text><path d="M 120.99980553446 99.90962569577887 l 7.338334812620515 -0.03158109734606787 a28.33840276816609,28.33840276816609 0 0,0 -0.0020993395236948236,0.4878125715970717 l -7.337791175807317 -0.09474095245468854" fill="#ff0000" stroke="none" /><path d="M 120.76222939487914 103.15116336523771 l 9.877763541618533 1.499186142818847 a30.990884429065744,30.990884429065744 0 0,0 -0.0845877679174339,0.5267281115671908 l -9.850494019339811 -1.6689934840792429" fill="#ff2b04" stroke="none" /><path d="M 119.67450827220406 107.3425965602758 l 9.080214458286932 3.3887683760909106 a30.691957785467128,30.691957785467128 0 0,0 -0.18898312914930981,0.4933753160059864 l -9.020537049544116 -3.5445672589300408" fill="#ff2603" stroke="none" /><path d="M 119.41010516605496 108.01547362559984 l 11.30881084329793 4.670014627735032 a33.235123183391,33.235123183391 0 0,0 -0.2229111662063509,0.5268961500178065 l -11.226748695899271 -4.863985303419002" fill="#ff4e07" stroke="none" /><line stroke="#e1ed5e" stroke-width="0.3" x1="174.80103733775053" x2="179.2010983576182" y1="140.37084112569926" y2="142.7455964860345" /><path d="M 175.68104954172406 140.8457921977663 a86.0,86.0 0 0,1 -30.038265399797805,32.042727171017184" fill="none" id="id41" stroke="none" /><text fill="#e1ed5e" style="font-size:6.75px; font-family:Arial;" text-anchor="middle"><textPath startOffset="22.206326154141568" xlink:href="#id41">May</textPath></text><line stroke="#e1ed5e" stroke-width="0.3" x1="143.8653032363475" x2="146.44561519142675" y1="172.8068346515853" y2="177.08958963109032" /><path d="M 144.38136562736335 173.6633856474863 a86.0,86.0 0 0,1 -40.68145358897372,12.25698825130547" fill="none" id="id42" stroke="none" /><text fill="#e1ed5e" style="font-size:6.75px; font-family:Arial;" text-anchor="middle"><textPath startOffset="21.466115282336833" xlink:href="#id42">June</textPath></text><line stroke="#e1ed5e" stroke-width="0.3" x1="102.19456741930631" x2="102.32365962044197" y1="184.97166512339345" y2="189.96999836594603" /><path d="M 102.22038585953345 185.97133177190398 a86.0,86.0 0 0,1 -42.740103519485714,-10.115201625700543" fill="none" id="id43" stroke="none" /><text fill="#e1ed5e" style="font-size:6.75px; font-family:Arial;" text-anchor="middle"><textPath startOffset="22.20632615414155" xlink:href="#id43">July</textPath></text><line stroke="#e1ed5e" stroke-width="0.3" x1="58.666819895761336" x2="56.23545636021788" y1="174.27360380694188" y2="178.64263932499728" /><path d="M 58.180547188652646 175.14741091055294 a86.0,86.0 0 0,1 -31.652253787137756,-30.449443065178592" fill="none" id="id44" stroke="none" /><text fill="#e1ed5e" style="font-size:6.75px; font-family:Arial;" text-anchor="middle"><textPath startOffset="22.20632615414155" xlink:href="#id44">August</textPath></text><line stroke="#e1ed5e" stroke-width="0.3" x1="26.63291911575756" x2="22.317208475507996" y1="142.92168965132927" y2="145.44649492493687" /><path d="M 25.769776987707644 143.4266507060508 a86.0,86.0 0 0,1 -11.730757126820373,-40.83630448921669" fill="none" id="id45" stroke="none" /><text fill="#e1ed5e" style="font-size:6.75px; font-family:Arial;" text-anchor="middle"><textPath startOffset="21.46611528233685" xlink:href="#id45">September</textPath></text><line stroke="#e1ed5e" stroke-width="0.3" x1="15.007084014347285" x2="10.007500721073583" y1="101.09737516637583" y2="101.16192664675087" /><path d="M 14.007167355692545 101.11028546245083 a86.0,86.0 0 0,1 10.666146001902534,-42.60595125391555" fill="none" id="id46" stroke="none" /><text fill="#e1ed5e" style="font-size:6.75px; font-family:Arial;" text-anchor="middle"><textPath startOffset="22.20632615414155" xlink:href="#id46">October</textPath></text><path d="M 80.95270993114464 91.15688171328213 l -56.00155047191791 -25.999936645713703 a82.74277577854672,82.74277577854672 0 0,0 0.6108852096787075,-1.2866800467352046 l 55.54570706839745 26.96005910808944" fill="#4bdfff" stroke="none" /><line stroke="#e1ed5e" stroke-width="0.3" x1="26.266209847984243" x2="21.928928074336255" y1="57.711370442889674" y2="55.22380399835377" /><path d="M 25.398753493254645 57.213857153982495 a86.0,86.0 0 0,1 29.58750427330803,-30.492523968695096" fill="none" id="id47" stroke="none" /><text fill="#e1ed5e" style="font-size:6.75px; font-family:Arial;" text-anchor="middle"><textPath startOffset="21.46611528233685" xlink:href="#id47">November</textPath></text><path d="M 82.15384107792192 88.93136811851018 l -53.02850888096749 -32.889600871008916 a83.39990865051902,83.39990865051902 0 0,0 0.7671695631851376,-1.213478012789792 l 52.45451172153639 33.79752653151292" fill="#4cd8ff" stroke="none" /><path d="M 84.07557802195018 86.31012108654704 l -11.020361230484301 -9.47396464598821 a35.53287197231834,35.53287197231834 0 0,0 0.40271964951707445,-0.46037817652858415 l 10.855649717389383 9.662258378719736" fill="#ff710a" stroke="none" /><path d="M 86.10567301691215 84.25364557470407 l -9.615451199368751 -10.897131090170202 a35.53287197231834,35.53287197231834 0 0,0 0.4621070327395424,-0.40073466511341244 l 9.426450367982435 11.061030748703294" fill="#ff710a" stroke="none" /><line stroke="#e1ed5e" stroke-width="0.3" x1="56.762969772571076" x2="54.21961505331055" y1="26.818313649435495" y2="22.513508569990535" /><path d="M 56.25429882871897 25.957352633546506 a86.0,86.0 0 0,1 42.265352541879196,-11.944610805530505" fill="none" id="id48" stroke="none" /><text fill="#e1ed5e" style="font-size:6.75px; font-family:Arial;" text-anchor="middle"><textPath startOffset="22.20632615414155" xlink:href="#id48">December</textPath></text><path d="M 95.33964822691252 79.52364482259891 l -2.2761932097424005 -10.00099196035498 a31.256748788927336,31.256748788927336 0 0,0 0.525645154957872,-0.1148856714244528 l 2.1037053306310076 10.038691129875302" fill="#ff2f04" stroke="none" /></svg>