<?xml version="1.0" encoding="utf-8" ?>
<svg baseProfile="full" height="200mm" version="1.1" viewBox="0,0,200,200" width="200mm" xmlns="http://www.w3.org/2000/svg" xmlns:ev="http://www.w3.org/2001/xml-events" xmlns:xlink="http://www.w3.org/1999/xlink"><defs /><rect fill="#1a1a1a" height="200" width="200" x="0" y="0" /><text alignment-baseline="middle" fill="#e1ed5e" style="dominant-baseline: central; font-size:9.0px; font-family:Arial;" text-anchor="middle" x="100.0" y="100.0">2023</text><line stroke="#e1ed5e" stroke-width="0.3" x1="100.0" x2="100.0" y1="15.0" y2="10.0" /><path d="M 100.0 14.0 a86.0,86.0 0 0,1 42.46469731375804,11.215312516191453" fill="none" id="id85" stroke="none" /><text fill="#e1ed5e" style="font-size:6.75px; font-family:Arial;" text-anchor="middle"><textPath startOffset="22.20632615414155" xlink:href="#id85">January</textPath></text><line stroke="#e1ed5e" stroke-width="0.3" x1="143.23703022742887" x2="145.7803849466894" y1="26.81831364943548" y2="22.513508569990506" /><path d="M 143.74570117128098 25.957352633546492 a86.0,86.0 0 0,1 28.547481713284135,27.462654790039103" fill="none" id="id86" stroke="none" /><text fill="#e1ed5e" style="font-size:6.75px; font-family:Arial;" text-anchor="middle"><textPath startOffset="19.985693538727396" xlink:href="#id86">February</textPath></text><line stroke="#e1ed5e" stroke-width="0.3" x1="172.23445277983987" x2="176.4835382374775" y1="55.19839476539836" y2="52.563006222186495" /><path d="M 173.08426987136738 54.67131705675599 a86.0,86.0 0 0,1 12.851231095245387,41.99856678651699" fill="none" id="id87" stroke="none" /><text fill="#e1ed5e" style="font-size:6.75px; font-family:Arial;" text-anchor="middle"><textPath startOffset="22.20632615414155" xlink:href="#id87">March</textPath></text><path d="M 118.73160827565052 90.50648371742162 l 6.164115541090165 -3.124084723312511 a27.910587946212964,27.910587946212964 0 0,0 0.21350268981630544,0.43040839455894553 l -6.216978243859879 3.017516740254616" fill="#ff3104" stroke="none" /><path d="M 119.196687751892 91.48605970444005 l 6.1122438577930875 -2.7108467851191875 a27.686420213351862,27.686420213351862 0 0,0 0.18946646646943105,0.43731472705255164 l -6.158001034105199 2.6052329134800334" fill="#ff2e04" stroke="none" /><path d="M 119.85752413597 93.16781622104841 l 5.61974500568636 -1.9335306056682782 a26.943069453741284,26.943069453741284 0 0,0 0.1471126313171968,0.4398480427892718 l -5.652194930775327 1.8365094599566925" fill="#ff2303" stroke="none" /><path d="M 120.53481517161879 95.60439243477599 l 5.809202199413833 -1.2434966140309547 a26.94080078968997,26.94080078968997 0 0,0 0.09316475818862348,0.45430444771815226 l -5.829746253517453 1.1433165101493907" fill="#ff2303" stroke="none" /><path d="M 120.87857604477298 97.74499172005257 l 7.38296364859829 -0.7974032387284412 a28.425900898992552,28.425900898992552 0 0,0 0.0483549945325778,0.4869281959589724 l -7.395595768813097 0.6701995120650338" fill="#ff3905" stroke="none" /><path d="M 120.91429891909075 98.10471618934814 l 8.87026404116887 -0.8038360692114284 a29.906611958888675,29.906611958888675 0 0,0 0.04204800739505997,0.513092193916919 l -8.882786532383424 0.6510299580867406" fill="#ff4e07" stroke="none" /><path d="M 120.96714384426684 98.82574320788733 l 8.896407639144016 -0.4982398734544083 a29.91034858203201,29.91034858203201 0 0,0 0.024364673367472514,0.5142997461907746 l -8.903665920744984 0.3450290206406339" fill="#ff4e07" stroke="none" /><line stroke="#e1ed5e" stroke-width="0.3" x1="184.98032266829074" x2="189.97916517819016" y1="98.17113171792111" y2="98.06355123074" /><path d="M 185.9800911702706 98.14961562048488 a86.0,86.0 0 0,1 -9.607161424134198,41.387399972396054" fill="none" id="id88" stroke="none" /><text fill="#e1ed5e" style="font-size:6.75px; font-family:Arial;" text-anchor="middle"><textPath startOffset="21.466115282336823" xlink:href="#id88">April</textPath></text><path d="M 120.99513854157772 99.54816195383933 l 14.842433860476232 -0.319425199433933 a35.84587065013854,35.84587065013854 0 0,0 0.007966305865880265,0.61699916848951 l -14.845733173459829 0.06388977288396029" fill="#ffa20f" stroke="none" /><path d="M 120.9764740272857 100.99374915477107 l 11.86485459440676 0.5620910935429969 a32.87816151362893,32.87816151362893 0 0,0 -0.0316470295380778,0.5650789716743253 l -11.853421213981154 -0.7662417815527456" fill="#ff790b" stroke="none" /><path d="M 120.95626037817324 101.35467743843564 l 11.850890929452218 0.766078216140677 a32.87562594792452,32.87562594792452 0 0,0 -0.04136605588610293,0.5644069670814581 l -11.835948314901776 -0.9699583197189053" fill="#ff790b" stroke="none" /><path d="M 120.8583938346157 102.4346265915055 l 11.812557517044185 1.3787814571300583 a32.89275213733149,32.89275213733149 0 0,0 -0.07048210489987751,0.5618117240136262 l -11.78707390289746 -1.5819109354310794" fill="#ff790b" stroke="none" /><path d="M 120.81339534386255 102.79330883721812 l 11.778491374589773 1.5807590977913546 a32.8840926614755,32.8840926614755 0 0,0 -0.08012122892773378,0.5603676885107047 l -11.749536094645437 -1.7832722582824687" fill="#ff790b" stroke="none" /><path d="M 120.49622156327973 104.57218783832717 l 21.718091322592443 4.844756030288854 a43.25190220384508,43.25190220384508 0 0,0 -0.1683517146937796,0.725254780727073 l -21.63147904196811 -5.217879468364493" fill="#faff18" stroke="none" /><path d="M 120.32669344350535 105.2749913415812 l 14.367941542699247 3.7286323742093734 a35.84386888774032,35.84386888774032 0 0,0 -0.16012296627200198,0.5958771247036677 l -14.30163050008547 -3.9754004320885894" fill="#ffa20f" stroke="none" /><line stroke="#e1ed5e" stroke-width="0.3" x1="174.80103733775053" x2="179.2010983576182" y1="140.37084112569926" y2="142.7455964860345" /><path d="M 175.68104954172406 140.8457921977663 a86.0,86.0 0 0,1 -30.038265399797805,32.042727171017184" fill="none" id="id89" stroke="none" /><text fill="#e1ed5e" style="font-size:6.75px; font-family:Arial;" text-anchor="middle"><textPath startOffset="22.206326154141568" xlink:href="#id89">May</textPath></text><path d="M 117.94076556474637 110.91462005526583 l 12.68814753008256 7.719085843702036 a35.85171283076741,35.85171283076741 0 0,0 -0.325286620130047,0.5244656051643068 l -12.55339627028455 -7.936347780231617" fill="#ffa20f" stroke="none" /><path d="M 117.75023020441432 111.22182372390056 l 5.023975449213767 3.1761935611550665 a26.943781191482874,26.943781191482874 0 0,0 -0.2512124437869167,0.3898872914540126 l -4.968558142049799 -3.262202452530532" fill="#ff2303" stroke="none" /><path d="M 117.35343817320211 111.8261652097733 l 15.938539153695565 10.86192807170171 a40.287781411782646,40.287781411782646 0 0,0 -0.39547079584166794,0.56970517701563 l -15.749207450691761 -11.13467451090436" fill="#ffdd14" stroke="none" /><path d="M 116.93607887273984 112.41649034213515 l 11.970971665913153 8.7763794200929 a35.84348336313029,35.84348336313029 0 0,0 -0.3690833066513731,0.49444740399147563 l -11.818127092566687 -8.981139703593689" fill="#ffa20f" stroke="none" /><path d="M 116.498646956653 112.99209946851258 l 11.674548420028957 9.193292924049116 a35.859734708229894,35.859734708229894 0 0,0 -0.3860592236188399,0.4816682407837913 l -11.514571284355263 -9.392888998411157" fill="#ffa20f" stroke="none" /><path d="M 116.0416608686014 113.55231037782055 l 23.911878301423695 20.201224742997567 a52.30283381771041,52.30283381771041 0 0,0 -0.5869311695151542,0.68273354896111 l -23.56060462233776 -20.609835391120203" fill="#8eff24" stroke="none" /><path d="M 115.32070863581623 114.36230785411682 l 8.71075035465096 8.165841489954627 a32.939771311885174,32.939771311885174 0 0,0 -0.39134557816145155,0.41032427412327876 l -8.568898225110543 -8.314572880660412" fill="#ff7a0b" stroke="none" /><path d="M 114.81725581225074 114.88116024355365 l 7.883135140790397 7.917133829511133 a32.1725031985833,32.1725031985833 0 0,0 -0.39579846350209086,0.3873721010707148 l -7.745686724912512 -8.05165603350442" fill="#ff6f0a" stroke="none" /><path d="M 114.29624159901734 115.38237550388516 l 26.26432650705443 28.25971636600807 a59.58012980740716,59.58012980740716 0 0,0 -0.7572363565914143,0.6917174578455335 l -25.773990600996154 -28.70762659044019" fill="#3fff2d" stroke="none" /><path d="M 113.75828350139079 115.86535959552629 l 5.841421343661854 6.73603288933603 a29.91607213970395,29.91607213970395 0 0,0 -0.3919497262306724,0.33402805986149503 l -5.724606140854134 -6.835585339420472" fill="#ff4e07" stroke="none" /><path d="M 113.48314897796784 116.09983520530334 l 9.533746243129562 11.383968511686641 a35.84880656832259,35.84880656832259 0 0,0 -0.47649870329724364,0.39212599294707345 l -9.336377411287627 -11.546389623490892" fill="#ffa20f" stroke="none" /><path d="M 112.04921762599082 117.19931262002967 l 27.23369467858228 38.873962037585656 a68.46429237169656,68.46429237169656 0 0,0 -0.9710294348607558,0.6678828996163412 l -26.560508359098645 -39.33698572656709" fill="#39ff88" stroke="none" /><path d="M 111.1453310114006 117.79835938074945 l 7.880574042021833 12.58475757992617 a35.84855449453911,35.84855449453911 0 0,0 -0.5258143065084842,0.3229980932332467 l -7.6627805355810406 -12.718544139987797" fill="#ffa20f" stroke="none" /><line stroke="#e1ed5e" stroke-width="0.3" x1="143.8653032363475" x2="146.44561519142675" y1="172.8068346515853" y2="177.08958963109032" /><path d="M 144.38136562736335 173.6633856474863 a86.0,86.0 0 0,1 -40.68145358897372,12.25698825130547" fill="none" id="id90" stroke="none" /><text fill="#e1ed5e" style="font-size:6.75px; font-family:Arial;" text-anchor="middle"><textPath startOffset="21.466115282336833" xlink:href="#id90">June</textPath></text><path d="M 110.8373102113329 117.98757091392108 l 7.664540519926061 12.721465330079813 a35.85196490455088,35.85196490455088 0 0,0 -0.5313468269075762,0.31392907108205725 l -7.4444258219901025 -12.85151297345562" fill="#ffa20f" stroke="none" /><path d="M 109.89434966115114 118.52300852407294 l 14.75397228353668 27.620608097661513 a52.31417713796697,52.31417713796697 0 0,0 -0.7979384221014875,0.41744366954467327 l -14.276342958908696 -27.870481186150904" fill="#8eff24" stroke="none" /><path d="M 108.92500713936063 119.00905698771935 l 3.7924846153812473 8.07747882473913 a29.923486074512162,29.923486074512162 0 0,0 -0.4681344216040569,0.2148975524149861 l -3.6528821980097708 -8.14156344748819" fill="#ff4f07" stroke="none" /><path d="M 107.59598834532513 119.57807347666477 l 22.759694322452507 58.661354848660295 a83.92184229925184,83.92184229925184 0 0,0 -1.3512606671446217,0.5109311615349862 l -21.74656343454761 -59.04443426030191" fill="#4dd3ff" stroke="none" /><path d="M 106.2309692047433 120.05430185196036 l 3.5280148776918323 11.35487481491312 a32.89033519458401,32.89033519458401 0 0,0 -0.5421032433282987,0.16333126027410272 l -3.3320366599232876 -11.41392144429295" fill="#ff790b" stroke="none" /><path d="M 105.18746579009965 120.34920634021253 l 2.935385411012619 11.514825510897074 a32.883084366341585,32.883084366341585 0 0,0 -0.5496904168721943,0.13510053056578789 l -2.7367417093972137 -11.56364729977689" fill="#ff790b" stroke="none" /><path d="M 104.83641907484287 120.43548508189849 l 2.736813423188666 11.563950314485234 a32.88339575160353,32.88339575160353 0 0,0 -0.5519397343800289,0.1256196865833967 l -2.537353539415775 -11.609346734646316" fill="#ff790b" stroke="none" /><path d="M 104.48393922423573 120.51570834832081 l 2.543248743684173 11.636319511344652 a32.91100524482931,32.91100524482931 0 0,0 -0.5544854604077682,0.1161978193895966 l -2.3425718218470264 -11.67837331146079" fill="#ff790b" stroke="none" /><path d="M 102.70371172650421 120.8252237178851 l 1.9110828844178689 14.720034026290751 a35.84357233034799,35.84357233034799 0 0,0 -0.6125369128207726,0.07416968972428158 l -1.657418548545716 -14.750749244740385" fill="#ffa20f" stroke="none" /><path d="M 102.34483914955558 120.86867818915974 l 1.6575973603872185 14.752340640370841 a35.84517374026656,35.84517374026656 0 0,0 -0.6137502879051755,0.0636177268148952 l -1.4034144758764404 -14.778687735641494" fill="#ffa20f" stroke="none" /><line stroke="#e1ed5e" stroke-width="0.3" x1="102.19456741930631" x2="102.32365962044197" y1="184.97166512339345" y2="189.96999836594603" /><path d="M 102.22038585953345 185.97133177190398 a86.0,86.0 0 0,1 -42.740103519485714,-10.115201625700543" fill="none" id="id91" stroke="none" /><text fill="#e1ed5e" style="font-size:6.75px; font-family:Arial;" text-anchor="middle"><textPath startOffset="22.20632615414155" xlink:href="#id91">July</textPath></text><path d="M 96.22490169976321 120.6578951692458 l -2.6681863978014717 14.600709839617423 a35.84250472373561,35.84250472373561 0 0,0 -0.605964283418721,-0.11613449712434458 l 2.919118295791888 -14.55261814414461" fill="#ffa20f" stroke="none" /><path d="M 94.81253420990036 120.34920634021253 l -3.6660799134507194 14.38116792228219 a35.84109607612204,35.84109607612204 0 0,0 -0.596514553272204,-0.1575449151555962 l 3.9130849095344127 -14.315931657823013" fill="#ffa20f" stroke="none" /><path d="M 94.46302465271185 120.25689768951611 l -3.914410263103363 14.320780433547073 a35.846122723922015,35.846122723922015 0 0,0 -0.5937975638071146,-0.16781312281543917 l 4.160338995015091 -14.251278517393112" fill="#ffa20f" stroke="none" /><path d="M 92.06813273071674 119.44442032107085 l -5.603505574240138 13.736603747636126 a35.8355504528855,35.8355504528855 0 0,0 -0.5691513733645693,-0.23790532022593391 l 5.83912840710217 -13.638113384390218" fill="#ffa20f" stroke="none" /><path d="M 91.7346041902142 119.30500536409082 l -4.673745719362223 10.916196666088341 a32.87464730852984,32.87464730852984 0 0,0 -0.5182912405606045,-0.22720364868622916 l 4.860957634580571 -10.834128464107659" fill="#ff790b" stroke="none" /><line stroke="#e1ed5e" stroke-width="0.3" x1="58.666819895761336" x2="56.23545636021788" y1="174.27360380694188" y2="178.64263932499728" /><path d="M 58.180547188652646 175.14741091055294 a86.0,86.0 0 0,1 -31.652253787137756,-30.449443065178592" fill="none" id="id92" stroke="none" /><text fill="#e1ed5e" style="font-size:6.75px; font-family:Arial;" text-anchor="middle"><textPath startOffset="22.20632615414155" xlink:href="#id92">August</textPath></text><path d="M 85.97065885151581 115.62618273729859 l -5.951304976223393 6.62869183232521 a29.90828750815533,29.90828750815533 0 0,0 -0.3801207338381667,-0.34723127778555335 l 6.0645252595284145 -6.525267787953081" fill="#ff4e07" stroke="none" /><path d="M 85.70375840098266 115.38237550388516 l -8.097733111402567 8.7129453281204 a32.89490217842587,32.89490217842587 0 0,0 -0.4114434301662824,-0.3890454442262769 l 8.246512375959666 -8.572265247148191" fill="#ff790b" stroke="none" /><path d="M 82.6465618267979 111.8261652097733 l -8.230915556540287 5.609272711712847 a30.960517619745637,30.960517619745637 0 0,0 -0.2963318045926304,-0.4429758410387537 l 8.326250466543648 -5.466759956468272" fill="#ff5e08" stroke="none" /><line stroke="#e1ed5e" stroke-width="0.3" x1="26.63291911575756" x2="22.317208475507996" y1="142.92168965132927" y2="145.44649492493687" /><path d="M 25.769776987707644 143.4266507060508 a86.0,86.0 0 0,1 -11.730757126820373,-40.83630448921669" fill="none" id="id93" stroke="none" /><text fill="#e1ed5e" style="font-size:6.75px; font-family:Arial;" text-anchor="middle"><textPath startOffset="21.46611528233685" xlink:href="#id93">September</textPath></text><path d="M 81.87401531095188 110.60418214915194 l -10.257136288851955 6.000696977383045 a32.88348471882123,32.88348471882123 0 0,0 -0.28162043267780024,-0.49102896223066517 l 10.358908717682132 -5.8232481692940725" fill="#ff790b" stroke="none" /><path d="M 80.32549172779594 107.34259656027581 l -13.905457428652982 5.18956623830533 a35.84228230569136,35.84228230569136 0 0,0 -0.21074534737879097,-0.5798806844613004 l 13.992727037036998 -4.949437756837913" fill="#ffa20f" stroke="none" /><path d="M 79.97269907076064 106.31721596034903 l -4.250561478616484 1.3407555470421872 a25.457005532913634,25.457005532913634 0 0,0 -0.12822236369264628,-0.41903810344388215 l 4.27301061481526 -1.2673904710462573" fill="#ff0c01" stroke="none" /><path d="M 79.67330655649465 105.27499134158121 l -14.369319378402617 3.7289899371069333 a35.84529236322349,35.84529236322349 0 0,0 -0.1498481478703222,-0.5985688628782739 l 14.431378840567998 -3.4810932348312673" fill="#ffa20f" stroke="none" /><path d="M 79.18660465613746 102.79330883721812 l -13.240122398386765 1.7769205980209826 a34.3588280899162,34.3588280899162 0 0,0 -0.07362359086158234,-0.5868524580640004 l 13.268747498495195 -1.5487503856695735" fill="#ff8e0d" stroke="none" /><path d="M 79.1416061653843 102.43462659150553 l -14.743980632738335 1.720942062832072 a35.844076477914946,35.844076477914946 0 0,0 -0.06625640731871145,-0.6134520440383713 l 14.771419341558097 -1.4668936969089186" fill="#ffa20f" stroke="none" /><path d="M 79.07016306316243 101.71520430193888 l -14.799845493187377 1.2128502832846864 a35.84945899458571,35.84945899458571 0 0,0 -0.04510790841232148,-0.615461571885999 l 14.818529960264033 -0.9579155749019267" fill="#ffa20f" stroke="none" /><line stroke="#e1ed5e" stroke-width="0.3" x1="15.007084014347285" x2="10.007500721073583" y1="101.09737516637583" y2="101.16192664675087" /><path d="M 14.007167355692545 101.11028546245083 a86.0,86.0 0 0,1 10.666146001902534,-42.60595125391555" fill="none" id="id94" stroke="none" /><text fill="#e1ed5e" style="font-size:6.75px; font-family:Arial;" text-anchor="middle"><textPath startOffset="22.20632615414155" xlink:href="#id94">October</textPath></text><path d="M 79.21141760316559 97.0276538004421 l -11.752457092221341 -1.6803633122598474 a32.87197829199888,32.87197829199888 0 0,0 0.08491005206343483,-0.5594511532851563 l 11.721791146718605 1.8824135779370956" fill="#ff790b" stroke="none" /><path d="M 79.54389044137918 95.25157060432595 l -30.516586969568053 -7.083744746609103 a52.32796705671025,52.32796705671025 0 0,0 0.21122358264007915,-0.8756581152842166 l 30.39013058666716 7.607988093552716" fill="#8eff24" stroke="none" /><path d="M 80.2630227832202 92.82701384747504 l -59.210931650339425 -21.518958457574875 a84.0,84.0 0 0,0 0.5055816459934896,-1.3547074518826343 l 58.83174541584431 22.534989046486853" fill="#4dd2ff" stroke="none" /><line stroke="#e1ed5e" stroke-width="0.3" x1="26.266209847984243" x2="21.928928074336255" y1="57.711370442889674" y2="55.22380399835377" /><path d="M 25.398753493254645 57.213857153982495 a86.0,86.0 0 0,1 29.58750427330803,-30.492523968695096" fill="none" id="id95" stroke="none" /><text fill="#e1ed5e" style="font-size:6.75px; font-family:Arial;" text-anchor="middle"><textPath startOffset="21.46611528233685" xlink:href="#id95">November</textPath></text><path d="M 81.78341655067845 89.55222093294921 l -12.878016211659029 -7.3859441632191976 a35.84572237144237,35.84572237144237 0 0,0 0.31158523002521166,-0.5326001599493664 l 12.748971307163492 7.6065237355224555" fill="#ffa20f" stroke="none" /><path d="M 82.54541684631803 88.32363383020206 l -3.031824460481441 -2.028160297581427 a24.64765592564035,24.64765592564035 0 0,0 0.23893617738453676,-0.35060935713609215 l 2.9964638174281637 2.080047677987935" fill="#ff0000" stroke="none" /><path d="M 83.6137871275137 86.86637796730984 l -11.592767876816943 -9.29165468504767 a35.856887757263536,35.856887757263536 0 0,0 0.39015966295153603,-0.47828961378074597 l 11.431109721789015 9.489828468436498" fill="#ffa20f" stroke="none" /><path d="M 84.07557802195018 86.31012108654704 l -11.26134177719084 -9.681130376050973 a35.850660052024644,35.850660052024644 0 0,0 0.406321370880316,-0.4644955666672615 l 11.09302854273268 9.873541498921178" fill="#ffa20f" stroke="none" /><path d="M 85.83668400450813 84.49514656593479 l -10.010362594487034 -10.9585357623012 a35.84240092864829,35.84240092864829 0 0,0 0.4591053346660163,-0.41218930249321356 l 9.820246272225047 11.129224073563693" fill="#ffa20f" stroke="none" /><path d="M 86.37877921826538 84.01681056812374 l -9.62929744267939 -11.29905223536262 a35.84560374848544,35.84560374848544 0 0,0 0.47306375771633336,-0.396177292502071 l 9.433376148003946 11.463130685258504" fill="#ffa20f" stroke="none" /><path d="M 86.93701828274178 83.55741782278169 l -9.233091523613124 -11.621838674566487 a35.843083010650645,35.843083010650645 0 0,0 0.4863862752739864,-0.37963220278260434 l 9.031672693179711 11.779049266572313" fill="#ffa20f" stroke="none" /><path d="M 87.80319425747018 82.90503203632743 l -5.179232219639389 -7.259180046003722 a29.91740664796943,29.91740664796943 0 0,0 0.4217910710893588,-0.29549160018969756 l 5.05351000896637 7.347256488957362" fill="#ff4f07" stroke="none" /><line stroke="#e1ed5e" stroke-width="0.3" x1="56.762969772571076" x2="54.21961505331055" y1="26.818313649435495" y2="22.513508569990535" /><path d="M 56.25429882871897 25.957352633546506 a86.0,86.0 0 0,1 42.265352541879196,-11.944610805530505" fill="none" id="id96" stroke="none" /><text fill="#e1ed5e" style="font-size:6.75px; font-family:Arial;" text-anchor="middle"><textPath startOffset="22.20632615414155" xlink:href="#id96">December</textPath></text><path d="M 89.63071344664047 81.73862282372117 l -7.331867807900408 -12.912171223902309 a35.84858415027834,35.84858415027834 0 0,0 0.5392240082831714,-0.3000775768041403 l 7.108519710545191 13.036464198266634" fill="#ffa20f" stroke="none" /><path d="M 90.26544431104013 81.39251694778311 l -5.51224236952058 -10.536583255349937 a32.891358317587546,32.891358317587546 0 0,0 0.5039261708401847,-0.2581305573030062 l 5.330055711091632 10.629906337965448" fill="#ff790b" stroke="none" /><path d="M 90.91171255644093 81.06846463323043 l -6.4239999822321385 -13.381639127836458 a35.843720609044155,35.843720609044155 0 0,0 0.5585164938746913,-0.2622309827627246 l 6.192705277057839 13.490235093239189" fill="#ffa20f" stroke="none" /><path d="M 91.56875222667455 80.76684994638697 l -5.960569725990345 -13.59710152365489 a35.846196863270094,35.846196863270094 0 0,0 0.5672511161481313,-0.242867324306903 l 5.725634852051905 13.69768837592458" fill="#ffa20f" stroke="none" /><path d="M 99.63851952072746 79.00311137660856 l -0.2555906493024223 -14.846191438561936 a35.84839138797333,35.84839138797333 0 0,0 0.6170711285749544,-0.005311326019952544 l 3.636806997153733e-15 14.84839138797333" fill="#ffa20f" stroke="none" /></svg>