<?xml version="1.0" encoding="utf-8" ?>
<svg baseProfile="full" height="200mm" version="1.1" viewBox="0,0,200,200" width="200mm" xmlns="http://www.w3.org/2000/svg" xmlns:ev="http://www.w3.org/2001/xml-events" xmlns:xlink="http://www.w3.org/1999/xlink"><defs /><rect fill="#1a1a1a" height="200" width="200" x="0" y="0" /><text alignment-baseline="middle" fill="#e1ed5e" style="dominant-baseline: central; font-size:9.0px; font-family:Arial;" text-anchor="middle" x="100.0" y="100.0">2020</text><line stroke="#e1ed5e" stroke-width="0.3" x1="100.0" x2="100.0" y1="15.0" y2="10.0" /><path d="M 100.0 14.0 a86.0,86.0 0 0,1 42.35913384403234,11.155469271406648" fill="none" id="id49" stroke="none" /><text fill="#e1ed5e" style="font-size:6.75px; font-family:Arial;" text-anchor="middle"><textPath startOffset="22.145653131862478" xlink:href="#id49">January</textPath></text><path d="M 100.36049292484886 79.00309439819443 l 0.2825871319075715 -16.45928373056419 a37.461709401223644,37.461709401223644 0 0,0 0.6428905381119971,0.016558579772030024 l -0.56509098409031 16.45200743344212" fill="#ffab0f" stroke="none" /><path d="M 102.51750503828377 79.15144685158666 l 2.5069135190520018 -20.760840175343567 a41.911649867434306,41.911649867434306 0 0,0 0.7135402070836012,0.09238206537958932 l -2.8629315480263946 20.714746513763583" fill="#ffe715" stroke="none" /><line stroke="#e1ed5e" stroke-width="0.3" x1="143.13028292997686" x2="145.6673583964461" y1="26.7553504044142" y2="22.446841604673864" /><path d="M 143.63769802327073 25.89364864446614 a86.0,86.0 0 0,1 29.32050498858742,28.57503671076993" fill="none" id="id50" stroke="none" /><text fill="#e1ed5e" style="font-size:6.75px; font-family:Arial;" text-anchor="middle"><textPath startOffset="20.669276256404974" xlink:href="#id50">February</textPath></text><path d="M 113.31354834802062 83.75963576809568 l 11.705579700266282 -14.27890393368897 a39.46368580936115,39.46368580936115 0 0,0 0.5202171952667747,0.43398368645723734 l -11.94897122969495 14.075858063319862" fill="#ffc612" stroke="none" /><path d="M 117.01052211995028 87.68569379921539 l 13.488232583821205 -9.764440207850594 a37.6516278726119,37.6516278726119 0 0,0 0.3745169799217678,0.5268050343063126 l -13.653864662272934 9.531457946834777" fill="#ffae10" stroke="none" /><line stroke="#e1ed5e" stroke-width="0.3" x1="172.87174338648825" x2="177.1583165268699" y1="56.24261187166439" y2="53.66864786411523" /><path d="M 173.72905801456457 55.72781907015455 a86.0,86.0 0 0,1 12.242430191666344,42.057860355516425" fill="none" id="id51" stroke="none" /><text fill="#e1ed5e" style="font-size:6.75px; font-family:Arial;" text-anchor="middle"><textPath startOffset="22.145653131862474" xlink:href="#id51">March</textPath></text><path d="M 118.36410011445183 89.81374322990088 l 15.680412905589682 -8.697660714222277 a38.93110846516492,38.93110846516492 0 0,0 0.3191510174717949,0.5872019254198544 l -15.82740927267682 8.427203955327819" fill="#ffbf11" stroke="none" /><path d="M 119.31412917781788 91.75594674310238 l 27.457846308720242 -11.720121844725792 a50.854557105549574,50.854557105549574 0 0,0 0.3358196551468226,0.8058449214994745 l -27.654991808403548 11.247044413785039" fill="#a7ff21" stroke="none" /><path d="M 119.94978838288452 93.4421083053983 l 22.692777280363288 -7.459566627885354 a44.88738736178641,44.88738736178641 0 0,0 0.23434483197265749,0.7340818484155871 l -22.817486828113204 7.06891574577838" fill="#f0ff19" stroke="none" /><path d="M 120.16314734710363 94.1308016681162 l 27.91840235754827 -8.126640039126666 a50.077129647258744,50.077129647258744 0 0,0 0.2331722499755054,0.827446056251442 l -28.053793099598355 7.64618605897221" fill="#b0ff20" stroke="none" /><path d="M 120.35273937422433 94.82641323984039 l 27.5098677021115 -6.9929007933759175 a49.38474031048505,49.38474031048505 0 0,0 0.20180127230444492,0.8234180558551506 l -27.625856500932233 6.519626912912671" fill="#b8ff1f" stroke="none" /><path d="M 120.43855184770803 95.1765574152323 l 27.652834848061858 -6.525993729377031 a49.4124597543059,49.4124597543059 0 0,0 0.18774179010059763,0.8272249678682673 l -27.76078749972012 6.050334427569738" fill="#b8ff1f" stroke="none" /><path d="M 120.65975698304385 96.23510406497455 l 30.26449121985757 -5.51519846350428 a51.7629134330394,51.7629134330394 0 0,0 0.1518013557574956,0.8755498803687541 l -30.3547073931073 4.994855550214933" fill="#9cff22" stroke="none" /><path d="M 120.77682067341334 96.94652285012252 l 28.08874701368479 -4.128078521885101 a49.390469194460934,49.390469194460934 0 0,0 0.11608049926940485,0.8399006672774046 l -28.155472029509408 3.6452895464076103" fill="#b8ff1f" stroke="none" /><path d="M 120.86939407059847 97.66154086499901 l 30.215760338759818 -3.3857389700029303 a51.40485818454622,51.40485818454622 0 0,0 0.09073595751049406,0.8777880798888341 l -30.26942868875198 2.8665463678311647" fill="#a0ff22" stroke="none" /><path d="M 120.93736805541906 98.37931529534042 l 30.938904375997538 -2.3948668700088374 a52.03145486940929,52.03145486940929 0 0,0 0.06128819468037236,0.8911168997428591 l -30.975456531842976 1.8634065461116442" fill="#99ff23" stroke="none" /><path d="M 120.98066250479742 99.09900007780936 l 30.615344077491898 -1.314754604405485 a51.64356168354168,51.64356168354168 0 0,0 0.030433582877686133,0.886040559532215 l -30.63340234736643 0.78900778030915" fill="#9dff22" stroke="none" /><line stroke="#e1ed5e" stroke-width="0.3" x1="184.99686870605535" x2="189.99668451229388" y1="99.2704041080226" y2="99.22748670261217" /><path d="M 185.99683186730306 99.26182062694052 a86.0,86.0 0 0,1 -10.086455211305974,41.156179273409016" fill="none" id="id52" stroke="none" /><text fill="#e1ed5e" style="font-size:6.75px; font-family:Arial;" text-anchor="middle"><textPath startOffset="21.40746469413373" xlink:href="#id52">April</textPath></text><path d="M 120.99922638620191 99.81974689727618 l 29.896511858412328 -0.25662559772389937 a50.89761324918088,50.89761324918088 0 0,0 0.0,0.8737574008954488 l -29.896511858412328 -0.2566255977238957" fill="#a6ff21" stroke="none" /><path d="M 120.99303781780057 100.54070618675476 l 29.887701219144272 0.7698011644301439 a50.89761324918088,50.89761324918088 0 0,0 -0.029993995003433405,0.8732424382056471 l -29.870082537143993 -1.2827498671999016" fill="#a6ff21" stroke="none" /><path d="M 120.9064616781168 101.97986365728391 l 29.972378358145974 2.8384153926807083 a51.1064788108019,51.1064788108019 0 0,0 -0.09020928086680259,0.8726929611236549 l -29.919236684797507 -3.352512876087294" fill="#a4ff21" stroke="none" /><path d="M 120.82617615685814 102.69636545807757 l 32.638827825176 4.225749714066687 a53.91124492399851,53.91124492399851 0 0,0 -0.12670550268259126,0.9167778991356517 l -32.561477805938196 -4.785415921402423" fill="#83ff25" stroke="none" /><path d="M 120.16314734710363 105.8691983318838 l 23.285532766676372 6.77807922138873 a45.2519771185646,45.2519771185646 0 0,0 -0.2235095997070984,0.7439907648673029 l -23.165746846965646 -7.1768075898467565" fill="#ecff1a" stroke="none" /><path d="M 119.4528033332814 107.91128576633889 l 27.666655718148963 11.251788024336575 a50.86714871512158,50.86714871512158 0 0,0 -0.33590280423364194,0.8060444490384923 l -27.469427069378835 -11.725064982816345" fill="#a6ff21" stroke="none" /><path d="M 119.16976305983485 108.57439118712176 l 27.25503298764638 12.190829585350201 a50.857212681975895,50.857212681975895 0 0,0 -0.363303427450802,0.7938835548096452 l -27.041745095340524 -12.656902122374536" fill="#a7ff21" stroke="none" /><line stroke="#e1ed5e" stroke-width="0.3" x1="174.33088141563837" x2="178.70328620479359" y1="141.23008692659167" y2="143.65538615756765" /><path d="M 175.20536237346943 141.71514677278685 a86.0,86.0 0 0,1 -30.301960400862466,31.631185727798858" fill="none" id="id53" stroke="none" /><text fill="#e1ed5e" style="font-size:6.75px; font-family:Arial;" text-anchor="middle"><textPath startOffset="22.145653131862474" xlink:href="#id53">May</textPath></text><path d="M 118.00360718960297 110.81064883170644 l 25.59776702034942 15.370723612135015 a50.858077982159756,50.858077982159756 0 0,0 -0.45586283535560457,0.7446176821312861 l -25.330136220538407 -15.807878410390858" fill="#a7ff21" stroke="none" /><path d="M 117.81537515405839 111.11811171558189 l 20.292105209633224 12.6637744484235 a44.91946314446392,44.91946314446392 0 0,0 -0.41386292476745906,0.6506612585391098 l -20.071724593239875 -13.010249381641282" fill="#f0ff19" stroke="none" /><path d="M 116.57777611688842 112.89097897827486 l 23.585670690885493 18.34036018588637 a50.8772936138289,50.8772936138289 0 0,0 -0.5420456428342486,0.6848569624869666 l -23.267358617409684 -18.74253709228802" fill="#a6ff21" stroke="none" /><path d="M 116.35404254752997 113.17365903436017 l 23.26089881219711 18.73733353047439 a50.86899866723879,50.86899866723879 0 0,0 -0.5536319736925448,0.6753409886051706 l -22.935820019265936 -19.133876800778054" fill="#a6ff21" stroke="none" /><path d="M 115.89218393027572 113.72728997021213 l 22.596462636506217 19.518286238901037 a50.85906263409311,50.85906263409311 0 0,0 -0.5763759144929275,0.6558099868256593 l -22.258075658054704 -19.903308503537993" fill="#a7ff21" stroke="none" /><path d="M 115.41159269507618 114.26474011684316 l 21.924493990231685 20.292984323668477 a50.87454852359044,50.87454852359044 0 0,0 -0.5987308513765213,0.6358314157849707 l -21.572907305118903 -20.666357199397947" fill="#a6ff21" stroke="none" /><path d="M 115.16444852881244 114.52719865689866 l 21.566551096531832 20.660268095354787 a50.86574633206499,50.86574633206499 0 0,0 -0.609452054593451,0.6253514978084715 l -21.208712240787573 -21.027442285230997" fill="#a6ff21" stroke="none" /><path d="M 114.65682725009322 115.03919595460226 l 20.857388936369333 21.401518484392092 a50.884036987675515,50.884036987675515 0 0,0 -0.6307864218161466,0.6042791231337362 l -20.486930028687876 -21.756409737831408" fill="#a6ff21" stroke="none" /><path d="M 114.13192950727249 115.5334660781643 l 8.675931914703007 9.536368973829726 a33.89240581868196,33.89240581868196 0 0,0 -0.4337178461226041,0.38783317243978954 l -8.510949041757025 -9.683897676152903" fill="#ff780b" stroke="none" /><path d="M 113.59037401385872 116.0094264158162 l 19.324016408755345 22.76364273996568 a50.859689230777974,50.859689230777974 0 0,0 -0.6704413016966291,0.5593059789465161 l -18.93040077289682 -23.092010902824065" fill="#a7ff21" stroke="none" /><path d="M 113.31354834802062 116.24036423190432 l 18.939934744620977 23.103640798125415 a50.87472755121469,50.87472755121469 0 0,0 -0.6801447889709492,0.5478764970715686 l -18.540539185294776 -23.42536558899039" fill="#a6ff21" stroke="none" /><path d="M 113.03279911837588 116.46651593811092 l 18.541242858155176 23.426254656662326 a50.87586139283491,50.87586139283491 0 0,0 -0.6894649624055819,0.5361321249581265 l -18.136367951114362 -23.741087833241245" fill="#a6ff21" stroke="none" /><path d="M 112.45986205192187 116.90419585922612 l 17.72179307607124 24.04301587659856 a50.868521260240804,50.868521260240804 0 0,0 -0.7073606753421835,0.5120745788479589 l -17.30645139035509 -24.343691226819594" fill="#a6ff21" stroke="none" /><path d="M 111.27062007382361 117.71928675628689 l 33.81186022147083 53.157860268860695 a84.0,84.0 0 0,0 -1.2233434848411404,0.7634568126338093 l -32.89435260783998 -53.73045287833605" fill="#4dd2ff" stroke="none" /><line stroke="#e1ed5e" stroke-width="0.3" x1="143.1302829299769" x2="145.66735839644613" y1="173.24464959558577" y2="177.55315839532614" /><path d="M 143.63769802327073 174.10635135553383 a86.0,86.0 0 0,1 -40.68552437913181,11.842963189579606" fill="none" id="id54" stroke="none" /><text fill="#e1ed5e" style="font-size:6.75px; font-family:Arial;" text-anchor="middle"><textPath startOffset="21.407464694133747" xlink:href="#id54">June</textPath></text><path d="M 110.02825361518725 118.45085714620011 l 14.270970818271907 26.256978932678173 a50.884603908485616,50.884603908485616 0 0,0 -0.7710500032357793,0.4105406971589086 l -13.818131999249575 -26.49809009755965" fill="#a6ff21" stroke="none" /><path d="M 109.06512990194946 118.94263497670748 l 5.59733472088794 11.696276788866497 a33.96661276893217,33.96661276893217 0 0,0 -0.5281182105053601,0.24718598876822134 l -5.395727796511073 -11.790639009205252" fill="#ff790b" stroke="none" /><path d="M 108.73861861582097 119.09545874513695 l 12.431115267972583 27.164230319635205 a50.87353403371971,50.87353403371971 0 0,0 -0.79722848570787,0.3565901613201722 l -11.962973379409087 -27.37362423186523" fill="#a6ff21" stroke="none" /><path d="M 106.38641147887787 120.00534299687104 l 7.268882547065169 22.769671049062843 a44.90176924760088,44.90176924760088 0 0,0 -0.7363021352880096,0.22810828365965455 l -6.876939778905535 -22.891095920529143" fill="#f0ff19" stroke="none" /><path d="M 105.69591212413111 120.21278271476187 l 3.264311649486518 11.58389045449012 a33.03504252616503,33.03504252616503 0 0,0 -0.5471524862625472,0.14912884320989037 l -3.064977762289276 -11.638219791844152" fill="#ff6c09" stroke="none" /><path d="M 104.9986988182912 120.39639698878246 l 7.107564167529567 29.00128726573999 a50.8595400410911,50.8595400410911 0 0,0 -0.849760822666572,0.20054124037055085 l -6.608671191123116 -29.119024649756764" fill="#a7ff21" stroke="none" /><path d="M 104.64783097203109 120.47920084513623 l 6.611068403183962 29.129587208412165 a50.87037121235802,50.87037121235802 0 0,0 -0.8532598391204034,0.1859640105794845 l -6.110046147444423 -29.238782677125368" fill="#a6ff21" stroke="none" /><line stroke="#e1ed5e" stroke-width="0.3" x1="101.45913802915013" x2="101.54496967792366" y1="184.9874750549273" y2="189.98673829345242" /><path d="M 101.47630435890484 185.9873277026323 a86.0,86.0 0 0,1 -42.54439059252881,-10.42667462771756" fill="none" id="id55" stroke="none" /><text fill="#e1ed5e" style="font-size:6.75px; font-family:Arial;" text-anchor="middle"><textPath startOffset="22.145653131862474" xlink:href="#id55">July</textPath></text><path d="M 98.55909050195518 120.95050786540614 l -0.8859070497760229 12.88089407387193 a33.911323070977346,33.911323070977346 0 0,0 -0.5804181399953864,-0.044928034856511645 l 1.1068941845466453 -12.863788272020367" fill="#ff790b" stroke="none" /><path d="M 97.48249496171623 120.84855314841334 l -3.5818650843927116 29.662981184465067 a50.87845729338649,50.87845729338649 0 0,0 -0.8661988985889407,-0.1121467893284347 l 4.090541804872446 -29.597122798936237" fill="#a6ff21" stroke="none" /><path d="M 95.70440661134978 120.55596938700252 l -2.6503943407870074 12.683096374217563 a33.957064628972354,33.957064628972354 0 0,0 -0.5695692563627154,-0.12413496845834676 l 2.867726013768859 -12.635729947625498" fill="#ff790b" stroke="none" /><path d="M 95.35216902796893 120.47920084513623 l -5.289299824731463 23.30563096908062 a44.89830804686545,44.89830804686545 0 0,0 -0.7501606021488925,-0.1770358595257179 l 5.688592580620244 -23.211398965908675" fill="#f0ff19" stroke="none" /><path d="M 90.6110303473126 118.78422872680471 l -5.572253609620138 11.148239923952474 a33.46327660336288,33.46327660336288 0 0,0 -0.5116260566480284,-0.261239910004465 l 5.762806887981749 -11.050942062275173" fill="#ff720a" stroke="none" /><line stroke="#e1ed5e" stroke-width="0.3" x1="58.13341422392154" x2="55.67067388415222" y1="173.97424548756322" y2="178.32567169271397" /><path d="M 57.64086615596768 174.84453072859336 a86.0,86.0 0 0,1 -31.369924170532247,-30.572349798747897" fill="none" id="id56" stroke="none" /><text fill="#e1ed5e" style="font-size:6.75px; font-family:Arial;" text-anchor="middle"><textPath startOffset="22.145653131862474" xlink:href="#id56">August</textPath></text><path d="M 89.65649057296885 118.27599006163327 l -12.991649007663854 22.954998960777495 a47.376408421686776,47.376408421686776 0 0,0 -0.7043462645225049,-0.40665450542477866 l 13.383787740046758 -22.728597558076544" fill="#d1ff1c" stroke="none" /><line stroke="#e1ed5e" stroke-width="0.3" x1="26.387840678322732" x2="22.057713659400548" y1="142.50000000000003" y2="145.00000000000006" /><path d="M 25.521815274538298 143.00000000000003 a86.0,86.0 0 0,1 -11.493303480769221,-40.785679425670985" fill="none" id="id57" stroke="none" /><text fill="#e1ed5e" style="font-size:6.75px; font-family:Arial;" text-anchor="middle"><textPath startOffset="21.40746469413373" xlink:href="#id57">September</textPath></text><path d="M 79.94057633289273 106.21446072829308 l -11.955616244217099 3.703880473598091 a33.516209104265116,33.516209104265116 0 0,0 -0.1655440260867728,-0.5510422225663326 l 12.0174365903075 -3.4981006474410345" fill="#ff730a" stroke="none" /><line stroke="#e1ed5e" stroke-width="0.3" x1="15.003131293944662" x2="10.003315487706104" y1="100.72959589197737" y2="100.7725132973878" /><path d="M 14.003168132696942 100.73817937305945 a86.0,86.0 0 0,1 10.791469493833604,-42.45332614584628" fill="none" id="id58" stroke="none" /><text fill="#e1ed5e" style="font-size:6.75px; font-family:Arial;" text-anchor="middle"><textPath startOffset="22.145653131862435" xlink:href="#id58">October</textPath></text><path d="M 79.34024301695615 96.23510406497455 l -12.632885919896246 -2.3021326381763783 a33.840935376711066,33.840935376711066 0 0,0 0.1090543604562801,-0.5706184958936549 l 12.591505267157807 2.5186536991033477" fill="#ff780b" stroke="none" /><path d="M 79.48165901384962 95.52812308129327 l -12.723988235870845 -2.7731340143091288 a34.02267825325873,34.02267825325873 0 0,0 0.12926858025373297,-0.5695812162517013 l 12.67450879405945 2.9911495644998385" fill="#ff7a0b" stroke="none" /><path d="M 80.05021161711548 93.44210830539832 l -24.365516079131666 -8.009429095854799 a46.64818372212639,46.64818372212639 0 0,0 0.2565973941464903,-0.7585846014251348 l 24.224433263412813 8.426515371754094" fill="#daff1c" stroke="none" /><path d="M 80.16572619554312 93.10060997987247 l -24.41558912715806 -8.493009304005675 a46.85057445133717,46.85057445133717 0 0,0 0.2707513213694217,-0.7573396333191456 l 24.266197635744696 8.91088389370574" fill="#d7ff1c" stroke="none" /><path d="M 80.83023694016515 91.42560881287825 l -12.317613644621892 -5.509511909518945 a34.493640256776764,34.493640256776764 0 0,0 0.2464086620103747,-0.5384473961759512 l 12.221220517756471 5.720148287909568" fill="#ff810b" stroke="none" /><path d="M 81.1358732173502 90.77261029715801 l -11.486687422871846 -5.618714423773804 a33.78725692737446,33.78725692737446 0 0,0 0.2593253811376819,-0.5188244774613445 l 11.38854212852242 5.815070757398919" fill="#ff770a" stroke="none" /><path d="M 81.29705330413844 90.45014215332179 l -26.604985655097245 -13.584695243520708 a50.87254938178636,50.87254938178636 0 0,0 0.4038115948865569,-0.7743619777495495 l 26.36786599123575 14.039403464374743" fill="#a6ff21" stroke="none" /><line stroke="#e1ed5e" stroke-width="0.3" x1="26.387840678322718" x2="22.05771365940052" y1="57.49999999999999" y2="54.99999999999999" /><path d="M 25.521815274538284 56.99999999999999 a86.0,86.0 0 0,1 29.574782752854787,-30.34633250058573" fill="none" id="id59" stroke="none" /><text fill="#e1ed5e" style="font-size:6.75px; font-family:Arial;" text-anchor="middle"><textPath startOffset="21.40746469413373" xlink:href="#id59">November</textPath></text><path d="M 82.18462484594161 88.88188828441811 l -25.33755294416258 -15.812506994470846 a50.866820497810465,50.866820497810465 0 0,0 0.4686585642651365,-0.7368091051432654 l 25.062376688271552 16.245129774292785" fill="#a6ff21" stroke="none" /><path d="M 82.576782715395 88.27688183743585 l -24.94783239412095 -16.786015021149183 a51.06933057877073,51.06933057877073 0 0,0 0.4956406526630966,-0.723154524635816 l 24.656002004642538 17.211804280855034" fill="#a4ff21" stroke="none" /><path d="M 83.42222388311158 87.10902102172516 l -23.59363214641916 -18.34655106186378 a50.88737883666145,50.88737883666145 0 0,0 0.5421530905914915,-0.6849927192182017 l 23.275212625186107 18.748863724996664" fill="#a6ff21" stroke="none" /><path d="M 84.10781606972428 86.27271002978789 l -22.606827074834044 -19.52723879387577 a50.872758247347974,50.872758247347974 0 0,0 0.5765311242275277,-0.6559865870121787 l 22.268284886647923 19.91243765869925" fill="#a6ff21" stroke="none" /><path d="M 85.34317274990677 84.96080404539775 l -20.84272798572689 -21.386475057473643 a50.86303107976391,50.86303107976391 0 0,0 0.6305260210643286,-0.604029665103999 l 20.47252947879726 21.74111685288321" fill="#a7ff21" stroke="none" /><line stroke="#e1ed5e" stroke-width="0.3" x1="56.869717070023135" x2="54.33264160355391" y1="26.7553504044142" y2="22.446841604673864" /><path d="M 56.362301976729285 25.89364864446614 a86.0,86.0 0 0,1 42.16139366436587,-11.88097634709845" fill="none" id="id60" stroke="none" /><text fill="#e1ed5e" style="font-size:6.75px; font-family:Arial;" text-anchor="middle"><textPath startOffset="22.145653131862474" xlink:href="#id60">December</textPath></text><path d="M 91.26138138417902 80.90454125486306 l -5.392375394803963 -11.78331340646302 a33.958556525841075,33.958556525841075 0 0,0 0.532157419572579,-0.23802724500570432 l 5.189304572375765 11.874144402378569" fill="#ff790b" stroke="none" /><path d="M 91.5904679813234 80.7573450057729 l -1.9472707147062749 -4.455736473829565 a25.86265881597381,25.86265881597381 0 0,0 0.40834050124814963,-0.17429627855571428 l 1.8704951382876942 4.488507402044682" fill="#ff0000" stroke="none" /><path d="M 92.592206182469 80.34994680014964 l -4.5729366448535815 -12.130257748030537 a33.963599137257354,33.963599137257354 0 0,0 0.5473166855675439,-0.20098226806643224 l 4.36403080763191 12.206970865105692" fill="#ff790b" stroke="none" /></svg>