<?xml version="1.0" encoding="utf-8" ?>
<svg baseProfile="full" height="200mm" version="1.1" viewBox="0,0,200,200" width="200mm" xmlns="http://www.w3.org/2000/svg" xmlns:ev="http://www.w3.org/2001/xml-events" xmlns:xlink="http://www.w3.org/1999/xlink"><defs /><rect fill="#1a1a1a" height="200" width="200" x="0" y="0" /><text alignment-baseline="middle" fill="#e1ed5e" style="dominant-baseline: central; font-size:9.0px; font-family:Arial;" text-anchor="middle" x="100.0" y="100.0">2021</text><line stroke="#e1ed5e" stroke-width="0.3" x1="100.0" x2="100.0" y1="15.0" y2="10.0" /><path d="M 100.0 14.0 a86.0,86.0 0 0,1 42.46469731375804,11.215312516191453" fill="none" id="id73" stroke="none" /><text fill="#e1ed5e" style="font-size:6.75px; font-family:Arial;" text-anchor="middle"><textPath startOffset="22.20632615414155" xlink:href="#id73">January</textPath></text><line stroke="#e1ed5e" stroke-width="0.3" x1="143.23703022742887" x2="145.7803849466894" y1="26.81831364943548" y2="22.513508569990506" /><path d="M 143.74570117128098 25.957352633546492 a86.0,86.0 0 0,1 28.547481713284135,27.462654790039103" fill="none" id="id74" stroke="none" /><text fill="#e1ed5e" style="font-size:6.75px; font-family:Arial;" text-anchor="middle"><textPath startOffset="19.985693538727396" xlink:href="#id74">February</textPath></text><line stroke="#e1ed5e" stroke-width="0.3" x1="172.23445277983987" x2="176.4835382374775" y1="55.19839476539836" y2="52.563006222186495" /><path d="M 173.08426987136738 54.67131705675599 a86.0,86.0 0 0,1 12.851231095245387,41.99856678651699" fill="none" id="id75" stroke="none" /><text fill="#e1ed5e" style="font-size:6.75px; font-family:Arial;" text-anchor="middle"><textPath startOffset="22.20632615414155" xlink:href="#id75">March</textPath></text><path d="M 120.53481517161879 95.60439243477599 l 12.64470451037457 -2.7066792830277597 a33.931150950161346,33.931150950161346 0 0,0 0.11733828916263042,0.5721831698021959 l -12.689422095452198 2.488620457062152" fill="red" stroke="none" /><line stroke="#e1ed5e" stroke-width="0.3" x1="184.98032266829074" x2="189.97916517819016" y1="98.17113171792111" y2="98.06355123074" /><path d="M 185.9800911702706 98.14961562048488 a86.0,86.0 0 0,1 -9.607161424134198,41.387399972396054" fill="none" id="id76" stroke="none" /><text fill="#e1ed5e" style="font-size:6.75px; font-family:Arial;" text-anchor="middle"><textPath startOffset="21.466115282336823" xlink:href="#id76">April</textPath></text><line stroke="#e1ed5e" stroke-width="0.3" x1="174.80103733775053" x2="179.2010983576182" y1="140.37084112569926" y2="142.7455964860345" /><path d="M 175.68104954172406 140.8457921977663 a86.0,86.0 0 0,1 -30.038265399797805,32.042727171017184" fill="none" id="id77" stroke="none" /><text fill="#e1ed5e" style="font-size:6.75px; font-family:Arial;" text-anchor="middle"><textPath startOffset="22.206326154141568" xlink:href="#id77">May</textPath></text><path d="M 117.55443506779139 111.5257021239791 l 18.82046203984743 12.356936493213466 a43.5145213338114,43.5145213338114 0 0,0 -0.41648969798262,0.6225955884197248 l -18.60496923645409 -12.679068995838998" fill="red" stroke="none" /><path d="M 117.35343817320211 111.8261652097733 l 20.458266300999824 13.942069275630901 a45.7572606669057,45.7572606669057 0 0,0 -0.4491600097438861,0.6470484939725644 l -20.2152453840938 -14.292159031790485" fill="red" stroke="none" /><path d="M 117.14729908036423 112.12312394758627 l 16.897858270098215 11.94676953478524 a41.694514162782355,41.694514162782355 0 0,0 -0.41936780658386946,0.5824652044001051 l -16.689710671138744 -12.235868344636476" fill="red" stroke="none" /><path d="M 116.27256486870786 113.27417163493432 l 20.519285045221018 16.738388429483845 a47.48045894585873,47.48045894585873 0 0,0 -0.5220679951185321,0.6288645315648751 l -20.228121050208944 -17.089114218162493" fill="red" stroke="none" /><path d="M 115.56566222782051 114.09645910891815 l 31.716541690452292 28.722898291900034 a63.78953029759771,63.78953029759771 0 0,0 -0.7440702180315372,0.8075412660204089 l -31.217425064425033 -29.264590812721778" fill="red" stroke="none" /><path d="M 114.81725581225074 114.88116024355365 l 19.41506023322164 19.498794252437943 a48.51631409107207,48.51631409107207 0 0,0 -0.5968662883799711,0.5841592868811306 l -19.076543992465876 -19.830103642241646" fill="red" stroke="none" /><path d="M 113.20401910651253 116.32954008644616 l 12.220633162709364 15.113377033345065 a40.43599856579419,40.43599856579419 0 0,0 -0.545005067549523,0.4329849871802133 l -11.95867060244249 -15.321495934530404" fill="red" stroke="none" /><path d="M 112.92097659922987 116.55440617244103 l 14.174489362582918 18.160411668041263 a44.03728935102187,44.03728935102187 0 0,0 -0.6015730090394081,0.46126053094234554 l -13.859787625050016 -18.401711540810982" fill="red" stroke="none" /><path d="M 111.1453310114006 117.79835938074945 l 15.450997936617773 24.674225806828023 a50.11272499103622,50.11272499103622 0 0,0 -0.735036268824341,0.4515193108077054 l -15.023982467861122 -24.936533584464108" fill="red" stroke="none" /><line stroke="#e1ed5e" stroke-width="0.3" x1="143.8653032363475" x2="146.44561519142675" y1="172.8068346515853" y2="177.08958963109032" /><path d="M 144.38136562736335 173.6633856474863 a86.0,86.0 0 0,1 -40.68145358897372,12.25698825130547" fill="none" id="id78" stroke="none" /><text fill="#e1ed5e" style="font-size:6.75px; font-family:Arial;" text-anchor="middle"><textPath startOffset="21.466115282336833" xlink:href="#id78">June</textPath></text><path d="M 110.8373102113329 117.98757091392108 l 10.223364347800965 16.968554705817986 a40.810326281821446,40.810326281821446 0 0,0 -0.6048326063198886,0.35734576485044023 l -9.929763870452694 -17.142019042962175" fill="red" stroke="none" /><path d="M 110.5260780823613 118.17145234162733 l 9.399227537253722 16.22613986946623 a39.7518823951237,39.7518823951237 0 0,0 -0.595050154671934,0.3378850076778011 l -9.118528615660589 -16.38552804293866" fill="red" stroke="none" /><line stroke="#e1ed5e" stroke-width="0.3" x1="102.19456741930631" x2="102.32365962044197" y1="184.97166512339345" y2="189.96999836594603" /><path d="M 102.22038585953345 185.97133177190398 a86.0,86.0 0 0,1 -42.740103519485714,-10.115201625700543" fill="none" id="id79" stroke="none" /><text fill="#e1ed5e" style="font-size:6.75px; font-family:Arial;" text-anchor="middle"><textPath startOffset="22.20632615414155" xlink:href="#id79">July</textPath></text><path d="M 93.76903079525671 120.05430185196036 l -4.1628893653520445 13.398210962996572 a35.030028684116175,35.030028684116175 0 0,0 -0.5742900550853949,-0.18386954015614052 l 4.392900765528379 -13.324568576180724" fill="red" stroke="none" /><path d="M 93.08242187328487 119.8279376855182 l -3.6083799629906412 10.342743044063816 a31.954119756185012,31.954119756185012 0 0,0 -0.5177791385869033,-0.1856571773978951 l 3.785878662207271 -10.279098325625963" fill="red" stroke="none" /><path d="M 92.40401165467489 119.57807347666478 l -3.50871397316713 9.043439359348612 a30.700250986016492,30.700250986016492 0 0,0 -0.49102701268705257,-0.19538978199080334 l 3.663862061896041 -8.981702732951744" fill="red" stroke="none" /><path d="M 91.7346041902142 119.30500536409082 l -5.49313726294491 12.830001946341987 a34.95648619576909,34.95648619576909 0 0,0 -0.5511128507633876,-0.24159167806091722 l 5.713170788366042 -12.733545714986619" fill="red" stroke="none" /><path d="M 91.40352486487194 119.15986991738527 l -5.697675733302521 12.699010253101013 a34.91863391896737,34.91863391896737 0 0,0 -0.546280418402958,-0.25077054672625865 l 5.915424147472899 -12.59905263604068" fill="red" stroke="none" /><path d="M 91.07499286063937 119.00905698771935 l -12.122338488676224 25.818939924363775 a49.523126568662605,49.523126568662605 0 0,0 -0.7685218852260849,-0.3689372079065793 l 12.564973041902551 -25.60644843995763" fill="red" stroke="none" /><path d="M 90.10565033884886 118.52300852407294 l -15.271041540224658 28.58860281961612 a53.41161706704912,53.41161706704912 0 0,0 -0.8072204208709037,-0.4401609351466899 l 15.760884772964202 -28.321501232709664" fill="red" stroke="none" /><line stroke="#e1ed5e" stroke-width="0.3" x1="58.666819895761336" x2="56.23545636021788" y1="174.27360380694188" y2="178.64263932499728" /><path d="M 58.180547188652646 175.14741091055294 a86.0,86.0 0 0,1 -31.652253787137756,-30.449443065178592" fill="none" id="id80" stroke="none" /><text fill="#e1ed5e" style="font-size:6.75px; font-family:Arial;" text-anchor="middle"><textPath startOffset="22.20632615414155" xlink:href="#id80">August</textPath></text><path d="M 88.24862548938628 117.40417183066458 l -7.241532486227765 10.724947587519758 a33.94079956973826,33.94079956973826 0 0,0 -0.4813825467733766,-0.3310993051511379 l 7.425071917624032 -10.59870749300352" fill="red" stroke="none" /><path d="M 87.07902340077011 116.55440617244103 l -11.93943110084235 15.296846209209868 a40.404729293653645,40.404729293653645 0 0,0 -0.544583613588197,-0.4326501586641018 l 12.200972207147906 -15.089062136540635" fill="red" stroke="none" /><path d="M 86.51685102203217 116.09983520530335 l -9.25903441625017 11.055943126152957 a35.42094299031911,35.42094299031911 0 0,0 -0.4640725842301284,-0.39549272412062597 l 9.447972477057355 -10.89492601180938" fill="red" stroke="none" /><path d="M 85.70375840098266 115.38237550388516 l -17.604829660150976 18.94232820834472 a46.86004302617425,46.86004302617425 0 0,0 -0.5861168619943085,-0.5542100765855753 l 17.9282823565361 -18.636483495013213" fill="red" stroke="none" /><path d="M 85.18274418774928 114.88116024355367 l -12.65496713688821 12.709545966348086 a38.93546073861599,38.93546073861599 0 0,0 -0.4708583463025591,-0.4769770188691226 l 12.871866108246303 -12.489828453498298" fill="red" stroke="none" /><path d="M 84.9287848128048 114.62390073753433 l -18.554732465280853 18.004027041848016 a46.85387952671208,46.85387952671208 0 0,0 -0.5566540944949645,-0.5836495926042274 l 18.861893111154775 -17.68197033266129" fill="red" stroke="none" /><path d="M 83.95833913139862 113.55231037782056 l -24.671849275557662 20.84326315809446 a53.29770527070635,53.29770527070635 0 0,0 -0.586031111595307,-0.7059122258435967 l 25.026976387046506 -20.4154896751371" fill="red" stroke="none" /><path d="M 83.72743513129214 113.27417163493432 l -25.02245044189273 20.411797683538587 a53.29186446755109,53.29186446755109 0 0,0 -0.573730285205396,-0.7158167458579002 l 25.370098639152985 -19.97805310410243" fill="red" stroke="none" /><path d="M 83.28015986056508 112.70617746262583 l -25.71778273158632 19.544128927528966 a53.301351738974546,53.301351738974546 0 0,0 -0.5488484182607419,-0.7352721477869083 l 26.050392416542145 -19.098543900232748" fill="red" stroke="none" /><path d="M 83.06392112726016 112.41649034213515 l -11.155040347233546 8.178188810899549 a34.8317640731445,34.8317640731445 0 0,0 -0.350341544735878,-0.4865937639007133 l 11.294161684345031 -7.984961441547698" fill="red" stroke="none" /><path d="M 82.6465618267979 111.8261652097733 l -52.06031451960629 35.47849562931989 a84.0,84.0 0 0,0 -0.8039875783570785,-1.2018523431767165 l 52.6633052033741 -34.57710637193735" fill="red" stroke="none" /><line stroke="#e1ed5e" stroke-width="0.3" x1="26.63291911575756" x2="22.317208475507996" y1="142.92168965132927" y2="145.44649492493687" /><path d="M 25.769776987707644 143.4266507060508 a86.0,86.0 0 0,1 -11.730757126820373,-40.83630448921669" fill="none" id="id81" stroke="none" /><text fill="#e1ed5e" style="font-size:6.75px; font-family:Arial;" text-anchor="middle"><textPath startOffset="21.46611528233685" xlink:href="#id81">September</textPath></text><path d="M 81.02952815118164 109.00673069616217 l -12.33598585529206 5.856833891941487 a34.655733237719616,34.655733237719616 0 0,0 -0.25121344146707725,-0.541091403923163 l 12.434973913598965 -5.643622420739497" fill="red" stroke="none" /><path d="M 80.87730276802145 108.67885076344099 l -29.412996445058972 13.3491109311401 a53.30051272857655,53.30051272857655 0 0,0 -0.371984063274609,-0.8387258617595409 l 29.63842159306486 -12.840836732887864" fill="red" stroke="none" /><path d="M 80.58989483394504 108.01547362559985 l -29.87078281327877 12.335248560867036 a53.31751882395124,53.31751882395124 0 0,0 -0.34300273368563466,-0.8513046555582845 l 30.07868816122179 -11.819244537465947" fill="red" stroke="none" /><path d="M 80.0844068197444 106.66101706037122 l -30.63758422405983 10.247119900367618 a53.305804948010035,53.305804948010035 0 0,0 -0.2835557846909086,-0.8726949704140239 l 30.809432259766986 -9.71822602997579" fill="red" stroke="none" /><path d="M 79.97269907076064 106.31721596034903 l -30.8164489446185 9.720439304429963 a53.31316242380782,53.31316242380782 0 0,0 -0.26852882178433557,-0.8775677265648597 l 30.979204538908967 -9.188544605313057" fill="red" stroke="none" /><path d="M 79.29508885075956 103.50808413554451 l -31.85286673942864 5.396909731935859 a53.30683757619219,53.30683757619219 0 0,0 -0.14549782906737904,-0.9060151204911076 l 31.94104632285731 -4.847815381751538" fill="red" stroke="none" /><path d="M 79.18660465613746 102.79330883721812 l -32.00795940041817 4.295700647461716 a53.294930082466834,53.294930082466834 0 0,0 -0.11419959135741713,-0.9102831050987975 l 32.07716050102244 -3.74409978807551" fill="red" stroke="none" /><path d="M 79.1416061653843 102.43462659150553 l -32.08155162936646 3.7446123279152417 a53.29935102187164,53.29935102187164 0 0,0 -0.09852181610269597,-0.9121896570673698 l 32.1412557469702 -3.19182634896309" fill="red" stroke="none" /><path d="M 79.0235259727143 100.99374915477108 l -32.267389148126426 1.5286501749965138 a53.30357834349229,53.30357834349229 0 0,0 -0.03553030515275295,-0.9168793006305422 l 32.28892158613038 -0.9729936273519748" fill="red" stroke="none" /><line stroke="#e1ed5e" stroke-width="0.3" x1="15.007084014347285" x2="10.007500721073583" y1="101.09737516637583" y2="101.16192664675087" /><path d="M 14.007167355692545 101.11028546245083 a86.0,86.0 0 0,1 10.666146001902534,-42.60595125391555" fill="none" id="id82" stroke="none" /><text fill="#e1ed5e" style="font-size:6.75px; font-family:Arial;" text-anchor="middle"><textPath startOffset="22.20632615414155" xlink:href="#id82">October</textPath></text><path d="M 79.08570108090925 98.10471618934814 l -32.168983453126984 -2.9151994900572826 a53.30080315525278,53.30080315525278 0 0,0 0.09066942343577926,-0.9130287203833778 l 32.11403690400898 3.4685037411450907" fill="red" stroke="none" /><path d="M 79.21141760316559 97.0276538004421 l -16.012277013518702 -2.2894312762109297 a37.175120114736465,37.175120114736465 0 0,0 0.09602529413859544,-0.632686710758924 l 15.970495825940803 2.564717099361946" fill="red" stroke="none" /><path d="M 79.3925641242962 95.95851677861259 l -31.703288744300046 -6.217576524110526 a53.307224811760484,53.307224811760484 0 0,0 0.1843432475546532,-0.8989231432483177 l 31.5915662008304 6.762375323522246" fill="red" stroke="none" /><path d="M 79.81627453868168 94.20196356495316 l -31.071068687749474 -8.925566723183517 a53.327651487988526,53.327651487988526 0 0,0 0.26103657589749174,-0.8800855656932863 l 30.912826214740274 9.459081675623342" fill="red" stroke="none" /><path d="M 80.14247586403 93.16781622104843 l -30.567415272781552 -10.517031094167324 a53.326070276084614,53.326070276084614 0 0,0 0.3061092135381709,-0.8654119677824277 l 30.38185297843357 11.041640688376361" fill="red" stroke="none" /><path d="M 80.803312248108 91.48605970444005 l -23.636793231515448 -10.48317548071717 a46.857203298673355,46.857203298673355 0 0,0 0.333350362209476,-0.7344933358636182 l 23.45284055234262 10.888490825422858" fill="red" stroke="none" /><path d="M 80.95270993114464 91.15688171328213 l -29.319255646012778 -13.612101502048095 a53.32503764790247,53.32503764790247 0 0,0 0.3936957214470189,-0.829223594294129 l 29.080601730724005 14.114767511982757" fill="red" stroke="none" /><line stroke="#e1ed5e" stroke-width="0.3" x1="26.266209847984243" x2="21.928928074336255" y1="57.711370442889674" y2="55.22380399835377" /><path d="M 25.398753493254645 57.213857153982495 a86.0,86.0 0 0,1 29.58750427330803,-30.492523968695096" fill="none" id="id83" stroke="none" /><text fill="#e1ed5e" style="font-size:6.75px; font-family:Arial;" text-anchor="middle"><textPath startOffset="21.46611528233685" xlink:href="#id83">November</textPath></text><path d="M 81.78341655067845 89.55222093294921 l -28.018305290060667 -16.06937241102895 a53.29938329150233,53.29938329150233 0 0,0 0.46329937031246465,-0.7919288045614151 l 27.73754624527788 16.549280627944256" fill="red" stroke="none" /><path d="M 82.15384107792192 88.93136811851018 l -27.457288571133724 -17.029693671602008 a53.309645034062385,53.309645034062385 0 0,0 0.49037867973830046,-0.775661306651331 l 27.16008229514946 17.499802625967554" fill="red" stroke="none" /><path d="M 84.31358615837235 86.03803664274999 l -20.442676252947997 -18.19535680044058 a48.36738974542847,48.36738974542847 0 0,0 0.5588883194538339,-0.6171384413968865 l 20.12644429287812 18.544548029107023" fill="red" stroke="none" /><path d="M 84.80347519578584 85.50635884689758 l -3.13212028726062 -2.9872505771397635 a25.328261025457152,25.328261025457152 0 0,0 0.30362040182681266,-0.31290751306932985 l 3.080235621730689 3.040722285759217" fill="red" stroke="none" /><path d="M 85.05521093208273 85.24692304244772 l -22.998884427195296 -22.70385418959606 a53.317389745428464,53.317389745428464 0 0,0 0.6503812610145325,-0.647588317189252 l 22.604667366013448 23.096378357435423" fill="red" stroke="none" /><path d="M 85.57189188830299 84.74124197986013 l -22.19701208856688 -23.474930573536167 a53.3075797776981,53.3075797776981 0 0,0 0.6721631837672006,-0.6247024243214936 l 21.789641021004822 23.853537583932304" fill="red" stroke="none" /><path d="M 87.22198572758235 83.33499621200491 l -9.111006270386913 -11.882515606215323 a35.97346360702761,35.97346360702761 0 0,0 0.4946417132934193,-0.3725538834544474 l 8.905118403335102 12.037586079175624" fill="red" stroke="none" /><line stroke="#e1ed5e" stroke-width="0.3" x1="56.762969772571076" x2="54.21961505331055" y1="26.818313649435495" y2="22.513508569990535" /><path d="M 56.25429882871897 25.957352633546506 a86.0,86.0 0 0,1 42.265352541879196,-11.944610805530505" fill="none" id="id84" stroke="none" /><text fill="#e1ed5e" style="font-size:6.75px; font-family:Arial;" text-anchor="middle"><textPath startOffset="22.20632615414155" xlink:href="#id84">December</textPath></text><path d="M 93.25333710446033 80.11325718540243 l -4.161747240919348 -12.267338433974599 a33.954062387952675,33.954062387952675 0 0,0 0.5550958510684321,-0.18300637466485653 l 3.949968567608506 12.33715853289869" fill="red" stroke="none" /><path d="M 93.94186890950719 79.89281104454417 l -8.411077182318012 -27.91671485768949 a50.15628899247042,50.15628899247042 0 0,0 0.8287963296703963,-0.24194837572256786 l 7.929290634924194 28.057361562330758" fill="red" stroke="none" /><path d="M 96.75951476605007 79.25152402106235 l -2.4301249100069824 -15.559826594129492 a36.74845105772678,36.74845105772678 0 0,0 0.625827905687749,-0.09223076520394649 l 2.1619280238905847 15.599351843494407" fill="red" stroke="none" /></svg>