<?xml version="1.0" encoding="utf-8" ?>
<svg baseProfile="full" height="200mm" version="1.1" viewBox="0,0,200,200" width="200mm" xmlns="http://www.w3.org/2000/svg" xmlns:ev="http://www.w3.org/2001/xml-events" xmlns:xlink="http://www.w3.org/1999/xlink"><defs /><rect fill="#1a1a1a" height="200" width="200" x="0" y="0" /><text alignment-baseline="middle" fill="#e1ed5e" style="dominant-baseline: central; font-size:9.0px; font-family:Arial;" text-anchor="middle" x="100.0" y="100.0">2025</text><line stroke="#e1ed5e" stroke-width="0.3" x1="100.0" x2="100.0" y1="15.0" y2="10.0" /><path d="M 100.0 14.0 a86.0,86.0 0 0,1 42.46469731375804,11.215312516191453" fill="none" id="id121" stroke="none" /><text fill="#e1ed5e" style="font-size:6.75px; font-family:Arial;" text-anchor="middle"><textPath startOffset="22.20632615414155" xlink:href="#id121">January</textPath></text><path d="M 100.0 79.0 l 0.0 -12.727471777484247 a33.72747177748425,33.72747177748425 0 0,0 0.580562983941699,0.0049970888930616145 l -0.21908250466917067 12.725586065199744" fill="#ff6809" stroke="none" /><path d="M 101.44485096284872 79.0497635885617 l 0.9934799364284702 -14.405388564894103 a35.439606022660996,35.439606022660996 0 0,0 0.608227699795261,0.047210175553716906 l -1.2412978255860725 14.386153127151921" fill="#ff820b" stroke="none" /><path d="M 102.52436894288641 79.15227682838746 l 1.7788402379376629 -14.690708722096076 a35.79801322305045,35.79801322305045 0 0,0 0.6110981185307122,0.07933807441872262 l -2.031453084976221 14.657912324513218" fill="#ff870c" stroke="none" /><path d="M 103.95276090670814 79.375362276772 l 2.775854379268016 -14.483798108729424 a35.747398929619266,35.747398929619266 0 0,0 0.6033370930874284,0.12102374497265558 l -3.0247578818225698 14.43387040767956" fill="#ff860c" stroke="none" /><path d="M 109.41281617654863 81.2277094730956 l 4.414520521684931 -8.804024238412048 a30.848798618457188,30.848798618457188 0 0,0 0.472632258379766,0.24210059987862625 l -4.565413267653453 8.72673111322092" fill="#ff3d05" stroke="none" /><line stroke="#e1ed5e" stroke-width="0.3" x1="143.23703022742887" x2="145.7803849466894" y1="26.81831364943548" y2="22.513508569990506" /><path d="M 143.74570117128098 25.957352633546492 a86.0,86.0 0 0,1 28.547481713284135,27.462654790039103" fill="none" id="id122" stroke="none" /><text fill="#e1ed5e" style="font-size:6.75px; font-family:Arial;" text-anchor="middle"><textPath startOffset="19.985693538727396" xlink:href="#id122">February</textPath></text><path d="M 111.2981086023043 82.29822771554956 l 7.920931549956043 -12.410442447813226 a35.722779573489966,35.722779573489966 0 0,0 0.5154847686384394,0.3352856326641385 l -8.133383344378762 12.27225789098956" fill="#ff860c" stroke="none" /><path d="M 111.90073688211348 82.69761687909136 l 8.368934215996896 -12.167524377124431 a35.767792975918944,35.767792975918944 0 0,0 0.504272843142296,0.3532753525755823 l -8.577138198722842 12.021664181784914" fill="#ff860c" stroke="none" /><path d="M 113.06298171725822 83.55741782278167 l 9.226678868058462 -11.613766963358914 a35.83277404983584,35.83277404983584 0 0,0 0.47964147644835,0.3878367171257051 l -9.425223743071303 11.45322414896908" fill="#ff870c" stroke="none" /><path d="M 113.34407831869373 83.78471172551755 l 9.373205022801296 -11.390012698563682 a35.75091053707904,35.75091053707904 0 0,0 0.4718140667714442,0.395130712274912 l -9.567876626531858 11.22698082889495" fill="#ff860c" stroke="none" /><path d="M 114.42810811169701 84.74124197986012 l 10.12484216544993 -10.707745977413417 a35.73662962797417,35.73662962797417 0 0,0 0.44333289690019917,0.42648589556579775 l -10.307658305962548 10.531876995085318" fill="#ff860c" stroke="none" /><path d="M 114.94478906791727 85.2469230424477 l 10.476014943907963 -10.341628374516826 a35.720603470700325,35.720603470700325 0 0,0 0.4281977340793345,0.4412954046122151 l -10.652476941690406 10.159768774354497" fill="#ff860c" stroke="none" /><path d="M 116.60985879189232 87.15038557335679 l 11.67784913483129 -9.034144154695463 a35.76441400881519,35.76441400881519 0 0,0 0.3725018013101736,0.49016870635384024 l -11.831626876365577 8.83179067246059" fill="#ff860c" stroke="none" /><path d="M 117.04232023915458 87.72973835380427 l 11.980205365196488 -8.625600994657235 a35.76232749641176,35.76232749641176 0 0,0 0.35538792547341586,0.5026710173045905 l -12.126905910473788 8.418103477020852" fill="#ff860c" stroke="none" /><path d="M 117.45458315368197 88.32363383020206 l 12.286376068236917 -8.21905768871451 a35.782014280217766,35.782014280217766 0 0,0 0.33806057270790396,0.5148894452368915 l -12.426033276302746 8.006350179499945" fill="#ff870c" stroke="none" /><line stroke="#e1ed5e" stroke-width="0.3" x1="172.23445277983987" x2="176.4835382374775" y1="55.19839476539836" y2="52.563006222186495" /><path d="M 173.08426987136738 54.67131705675599 a86.0,86.0 0 0,1 12.851231095245387,41.99856678651699" fill="none" id="id123" stroke="none" /><text fill="#e1ed5e" style="font-size:6.75px; font-family:Arial;" text-anchor="middle"><textPath startOffset="22.20632615414155" xlink:href="#id123">March</textPath></text><path d="M 117.84615892207809 88.93136811851018 l 26.419199671158076 -16.38584510204364 a52.088101115582575,52.088101115582575 0 0,0 0.4660252998517943,0.7660230598542891 l -26.697340769296094 15.92865426898227" fill="#9fff22" stroke="none" /><path d="M 118.03404312379186 89.2402003453031 l 5.092559533704512 -3.038415730523991 a26.930103941401057,26.930103941401057 0 0,0 0.2340871400005367,0.40013080272222085 l -5.1441063481753755 2.9503055154478752" fill="#ff0000" stroke="none" /><path d="M 118.3937258080291 89.86733742301442 l 12.897216858179817 -7.104767569662335 a35.72467062130231,35.72467062130231 0 0,0 0.2920779335126505,0.5411760518485949 l -13.017602890910933 6.8817105344812814" fill="#ff860c" stroke="none" /><path d="M 118.73160827565052 90.50648371742162 l 13.192158325129284 -6.686023325865091 a35.78972444602299,35.78972444602299 0 0,0 0.2737743272100107,0.5519123377194894 l -13.305292665292702 6.457951399646651" fill="#ff870c" stroke="none" /><path d="M 119.196687751892 91.48605970444005 l 41.987916650131794 -18.622098776333758 a66.93220773546538,66.93220773546538 0 0,0 0.45803714582504584,1.0572128838362413 l -42.30224450579952 17.896586747910913" fill="#36ff6e" stroke="none" /><path d="M 120.08093135843002 93.85539295169968 l 45.05861426735326 -13.787581555453825 a68.12086719111207,68.12086719111207 0 0,0 0.3334487348039637,1.1242233675134239 l -45.28926889926893 13.00992880119387" fill="#38ff7d" stroke="none" /><path d="M 120.37134235888165 94.90015583598534 l 8.583642660239205 -2.148863788925653 a29.84853303672616,29.84853303672616 0 0,0 0.12048459818312839,0.4994864439241755 l -8.619360058683153 2.0007921133420714" fill="#ff2e04" stroke="none" /><path d="M 120.67395015179393 96.31383870115 l 62.02185045538181 -11.058483896549978 a84.0,84.0 0 0,0 0.2415525539191079,1.4256568467366484 l -62.20301487082114 9.98924126149749" fill="#4dd2ff" stroke="none" /><line stroke="#e1ed5e" stroke-width="0.3" x1="184.98032266829074" x2="189.97916517819016" y1="98.17113171792111" y2="98.06355123074" /><path d="M 185.9800911702706 98.14961562048488 a86.0,86.0 0 0,1 -9.607161424134198,41.387399972396054" fill="none" id="id124" stroke="none" /><text fill="#e1ed5e" style="font-size:6.75px; font-family:Arial;" text-anchor="middle"><textPath startOffset="21.466115282336823" xlink:href="#id124">April</textPath></text><path d="M 120.9764740272857 100.99374915477107 l 14.78842404316956 0.7005936209383733 a35.805009864984726,35.805009864984726 0 0,0 -0.03446428123235015,0.6153828931981987 l -14.77417341104968 -0.9550482304719953" fill="#ff870c" stroke="none" /><path d="M 120.89721153311464 102.0752229133903 l 11.832953917792132 1.1750858273306561 a32.891157434084604,32.891157434084604 0 0,0 -0.060798049169415815,0.5629144266322091 l -11.810973567121666 -1.3785965758476566" fill="#ff5c08" stroke="none" /><path d="M 120.64145759157962 103.86396538481128 l 14.522216603080375 2.7184777051754736 a35.774467709542684,35.774467709542684 0 0,0 -0.11851581506251543,0.6043095876862535 l -14.473270855042196 -2.968051019929672" fill="#ff860c" stroke="none" /><path d="M 120.41448212921028 104.9243191809786 l 10.575107514061498 2.5508952146227406 a31.878417409253295,31.878417409253295 0 0,0 -0.13326496984341893,0.5323273099759296 l -10.529631229923018 -2.732550363996066" fill="#ff4d07" stroke="none" /><path d="M 120.23288151984713 105.62410040840565 l 11.723028077074604 3.2586306073779863 a33.167500184147116,33.167500184147116 0 0,0 -0.15763622545045408,0.5487523807229674 l -11.66519921473805 -3.4599404636055358" fill="#ff6008" stroke="none" /><path d="M 119.67450827220406 107.3425965602758 l 13.809867398447631 5.153891698577475 a35.74025227746705,35.74025227746705 0 0,0 -0.22006757467846133,0.5745269944909969 l -13.719105544175662 -5.390842259901616" fill="#ff860c" stroke="none" /><path d="M 119.41010516605496 108.01547362559984 l 10.912053257704992 4.506172137657312 a32.805866915783405,32.805866915783405 0 0,0 -0.22003210315351368,0.5200908954223764 l -10.832870173359169 -4.693337558745852" fill="#ff5b08" stroke="none" /><path d="M 118.81262510543309 109.33194174019688 l 13.235759295564675 6.565555521425214 a35.774702820532255,35.774702820532255 0 0,0 -0.27839759633010924,0.5493048691461128 l -13.120783029448296 -6.792414602274021" fill="#ff860c" stroke="none" /><line stroke="#e1ed5e" stroke-width="0.3" x1="174.80103733775053" x2="179.2010983576182" y1="140.37084112569926" y2="142.7455964860345" /><path d="M 175.68104954172406 140.8457921977663 a86.0,86.0 0 0,1 -30.038265399797805,32.042727171017184" fill="none" id="id125" stroke="none" /><text fill="#e1ed5e" style="font-size:6.75px; font-family:Arial;" text-anchor="middle"><textPath startOffset="22.206326154141568" xlink:href="#id125">May</textPath></text><path d="M 117.94076556474637 110.91462005526583 l 12.667365803421246 7.706442868697316 a35.82738743292903,35.82738743292903 0 0,0 -0.32506591306136334,0.5241097550949283 l -12.53283525069192 -7.923348955157518" fill="#ff870c" stroke="none" /><path d="M 117.75023020441432 111.22182372390056 l 7.5046803729370035 4.7445131290957265 a29.878661629553612,29.878661629553612 0 0,0 -0.27857603027949207,0.4323561853560488 l -7.421899479280461 -4.872990914373228" fill="#ff2e04" stroke="none" /><path d="M 116.498646956653 112.99209946851258 l 11.584751025718582 9.12258066007021 a35.7454377428198,35.7454377428198 0 0,0 -0.38482872378142524,0.48013300303861717 l -11.426004389882303 -9.320641496687077" fill="#ff860c" stroke="none" /><path d="M 115.32070863581623 114.36230785411682 l 10.763214738077128 10.089912108037117 a35.753071471591085,35.753071471591085 0 0,0 -0.4247693857257915,0.44536900272786745 l -10.587938800972372 -10.273688227347492" fill="#ff860c" stroke="none" /><path d="M 113.48314897796784 116.09983520530334 l 7.583380797079512 9.055093979273337 a32.811113041834226,32.811113041834226 0 0,0 -0.4361219888415617,0.35889870578277216 l -7.426388679693258 -9.184287803913287" fill="#ff5b08" stroke="none" /><path d="M 112.92097659922987 116.55440617244103 l 9.104576641305378 11.664819496482295 a35.797341981008515,35.797341981008515 0 0,0 -0.4890109052688166,0.37495270966539523 l -8.902437007543067 -11.819811547975062" fill="#ff870c" stroke="none" /><path d="M 111.45004920935366 117.60387380957326 l 8.052762791146575 12.380717095780351 a35.76919579314401,35.76919579314401 0 0,0 -0.5190249944913028,0.3312663083020298 l -7.838455994608343 -12.51749783290619" fill="#ff860c" stroke="none" /><line stroke="#e1ed5e" stroke-width="0.3" x1="143.8653032363475" x2="146.44561519142675" y1="172.8068346515853" y2="177.08958963109032" /><path d="M 144.38136562736335 173.6633856474863 a86.0,86.0 0 0,1 -40.68145358897372,12.25698825130547" fill="none" id="id126" stroke="none" /><text fill="#e1ed5e" style="font-size:6.75px; font-family:Arial;" text-anchor="middle"><textPath startOffset="21.466115282336833" xlink:href="#id126">June</textPath></text><path d="M 110.21172684928248 118.3499491758327 l 7.167981955292918 12.88049577845424 a35.74066269915238,35.74066269915238 0 0,0 -0.5401557633051455,0.2945359901137711 l -6.945203380119124 -13.00197242032778" fill="#ff860c" stroke="none" /><path d="M 108.2653958097858 119.30500536409082 l 5.798062101974927 13.542197198522109 a35.731212750551734,35.731212750551734 0 0,0 -0.567494249479868,0.23721264230773123 l -5.564096392997598 -13.639994883849813" fill="#ff860c" stroke="none" /><path d="M 107.59598834532513 119.57807347666477 l 5.396817978077436 13.909881652202955 a35.92013578580276,35.92013578580276 0 0,0 -0.5783651230244973,0.2186882007915387 l -5.156582634292665 -14.000718103101125" fill="#ff890c" stroke="none" /><path d="M 106.2309692047433 120.05430185196036 l 2.6372440082311037 8.487939140844974 a29.888203801535997,29.888203801535997 0 0,0 -0.4926216811781804,0.14842287150171576 l -2.4907473526126775 -8.532077381452414" fill="#ff2e04" stroke="none" /><line stroke="#e1ed5e" stroke-width="0.3" x1="102.19456741930631" x2="102.32365962044197" y1="184.97166512339345" y2="189.96999836594603" /><path d="M 102.22038585953345 185.97133177190398 a86.0,86.0 0 0,1 -42.740103519485714,-10.115201625700543" fill="none" id="id127" stroke="none" /><text fill="#e1ed5e" style="font-size:6.75px; font-family:Arial;" text-anchor="middle"><textPath startOffset="22.20632615414155" xlink:href="#id127">July</textPath></text><line stroke="#e1ed5e" stroke-width="0.3" x1="58.666819895761336" x2="56.23545636021788" y1="174.27360380694188" y2="178.64263932499728" /><path d="M 58.180547188652646 175.14741091055294 a86.0,86.0 0 0,1 -31.652253787137756,-30.449443065178592" fill="none" id="id128" stroke="none" /><text fill="#e1ed5e" style="font-size:6.75px; font-family:Arial;" text-anchor="middle"><textPath startOffset="22.20632615414155" xlink:href="#id128">August</textPath></text><line stroke="#e1ed5e" stroke-width="0.3" x1="26.63291911575756" x2="22.317208475507996" y1="142.92168965132927" y2="145.44649492493687" /><path d="M 25.769776987707644 143.4266507060508 a86.0,86.0 0 0,1 -11.730757126820373,-40.83630448921669" fill="none" id="id129" stroke="none" /><text fill="#e1ed5e" style="font-size:6.75px; font-family:Arial;" text-anchor="middle"><textPath startOffset="21.46611528233685" xlink:href="#id129">September</textPath></text><line stroke="#e1ed5e" stroke-width="0.3" x1="15.007084014347285" x2="10.007500721073583" y1="101.09737516637583" y2="101.16192664675087" /><path d="M 14.007167355692545 101.11028546245083 a86.0,86.0 0 0,1 10.666146001902534,-42.60595125391555" fill="none" id="id130" stroke="none" /><text fill="#e1ed5e" style="font-size:6.75px; font-family:Arial;" text-anchor="middle"><textPath startOffset="22.20632615414155" xlink:href="#id130">October</textPath></text><line stroke="#e1ed5e" stroke-width="0.3" x1="26.266209847984243" x2="21.928928074336255" y1="57.711370442889674" y2="55.22380399835377" /><path d="M 25.398753493254645 57.213857153982495 a86.0,86.0 0 0,1 29.58750427330803,-30.492523968695096" fill="none" id="id131" stroke="none" /><text fill="#e1ed5e" style="font-size:6.75px; font-family:Arial;" text-anchor="middle"><textPath startOffset="21.46611528233685" xlink:href="#id131">November</textPath></text><line stroke="#e1ed5e" stroke-width="0.3" x1="56.762969772571076" x2="54.21961505331055" y1="26.818313649435495" y2="22.513508569990535" /><path d="M 56.25429882871897 25.957352633546506 a86.0,86.0 0 0,1 42.265352541879196,-11.944610805530505" fill="none" id="id132" stroke="none" /><text fill="#e1ed5e" style="font-size:6.75px; font-family:Arial;" text-anchor="middle"><textPath startOffset="22.20632615414155" xlink:href="#id132">December</textPath></text></svg>