<?xml version="1.0" encoding="utf-8" ?>
<svg baseProfile="full" height="200mm" version="1.1" viewBox="0,0,200,200" width="200mm" xmlns="http://www.w3.org/2000/svg" xmlns:ev="http://www.w3.org/2001/xml-events" xmlns:xlink="http://www.w3.org/1999/xlink"><defs /><rect fill="#1a1a1a" height="200" width="200" x="0" y="0" /><text alignment-baseline="middle" fill="#e1ed5e" style="dominant-baseline: central; font-size:9.0px; font-family:Arial;" text-anchor="middle" x="100.0" y="100.0">2024</text><line stroke="#e1ed5e" stroke-width="0.3" x1="100.0" x2="100.0" y1="15.0" y2="10.0" /><path d="M 100.0 14.0 a86.0,86.0 0 0,1 42.35913384403234,11.155469271406648" fill="none" id="id109" stroke="none" /><text fill="#e1ed5e" style="font-size:6.75px; font-family:Arial;" text-anchor="middle"><textPath startOffset="22.145653131862478" xlink:href="#id109">January</textPath></text><path d="M 104.9986988182912 79.60360301121754 l 1.3333785286483713 -5.440639413423953 a26.601647572595283,26.601647572595283 0 0,0 0.4425940406356346,0.11250567437904593 l -1.4265778625094003 5.416948507209639" fill="#ff1c02" stroke="none" /><path d="M 107.06938296918511 80.22567764915836 l 2.409828843767525 -6.740720169600312 a28.158532214156082,28.158532214156082 0 0,0 0.45376917975081993,0.16663032816255863 l -2.5251871751724697 6.698358992429031" fill="#ff3304" stroke="none" /><path d="M 109.06512990194946 81.05736502329252 l 3.0925694259406495 -6.462280674336679 a28.16415083371143,28.16415083371143 0 0,0 0.4343176945587931,0.21244654834592622 l -3.2030473697615096 6.408240375893532" fill="#ff3404" stroke="none" /><line stroke="#e1ed5e" stroke-width="0.3" x1="143.13028292997686" x2="145.6673583964461" y1="26.7553504044142" y2="22.446841604673864" /><path d="M 143.63769802327073 25.89364864446614 a86.0,86.0 0 0,1 29.32050498858742,28.57503671076993" fill="none" id="id110" stroke="none" /><text fill="#e1ed5e" style="font-size:6.75px; font-family:Arial;" text-anchor="middle"><textPath startOffset="20.669276256404974" xlink:href="#id110">February</textPath></text><path d="M 114.39649973595853 84.71141617570332 l 3.678333443482902 -3.906262648269895 a26.365540494555354,26.365540494555354 0 0,0 0.3268416959888117,0.31310695129900573 l -3.7448476253370253 3.842543566665309" fill="#ff1902" stroke="none" /><line stroke="#e1ed5e" stroke-width="0.3" x1="172.87174338648825" x2="177.1583165268699" y1="56.24261187166439" y2="53.66864786411523" /><path d="M 173.72905801456457 55.72781907015455 a86.0,86.0 0 0,1 12.242430191666344,42.057860355516425" fill="none" id="id111" stroke="none" /><text fill="#e1ed5e" style="font-size:6.75px; font-family:Arial;" text-anchor="middle"><textPath startOffset="22.145653131862474" xlink:href="#id111">March</textPath></text><path d="M 118.36410011445183 89.81374322990088 l 4.692766017705528 -2.6029982041279514 a26.36634443058076,26.36634443058076 0 0,0 0.21614708606514876,0.39768629320620325 l -4.7367584533860185 2.522057077447145" fill="#ff1902" stroke="none" /><path d="M 118.8641267826498 90.77261029715802 l 8.034211482983759 -3.9299354357989253 a29.943877608892922,29.943877608892922 0 0,0 0.22189945014540444,0.4636845065764124 l -8.100490191089076 3.7914384271574093" fill="#ff4e07" stroke="none" /><path d="M 119.4528033332814 92.08871423366111 l 10.767262346809389 -4.378951860424771 a32.623646495009076,32.623646495009076 0 0,0 0.20652527583253605,0.520578607393418 l -10.84084629760805 4.193472235817788" fill="#ff740a" stroke="none" /><path d="M 119.94978838288452 93.4421083053983 l 10.193969049720678 -3.3509601045965574 a31.730607560117967,31.730607560117967 0 0,0 0.16565686563875454,0.5189177721871759 l -10.24999063113669 3.1754732987179946" fill="#ff6709" stroke="none" /><path d="M 120.16314734710363 94.1308016681162 l 18.104935646029304 -5.270082902399798 a39.856364139065334,39.856364139065334 0 0,0 0.18558168504487432,0.6585639303948465 l -18.19273582314876 4.958511048101938" fill="#ffd714" stroke="none" /><path d="M 120.43855184770803 95.1765574152323 l 10.441987979576576 -2.464280731120889 a31.728829968239566,31.728829968239566 0 0,0 0.1205531431880538,0.5311793924342632 l -10.482751984322297 2.2846670047476" fill="#ff6709" stroke="none" /><path d="M 120.592083275326 95.88100663000786 l 10.520558060590453 -2.1044062575307048 a31.728963957577133,31.728963957577133 0 0,0 0.10224841109785966,0.5350068929299274 l -10.55513276397047 1.923496799567463" fill="#ff6709" stroke="none" /><path d="M 120.77682067341334 96.94652285012252 l 28.288103263464333 -4.157377025393197 a49.5919668784029,49.5919668784029 0 0,0 0.11655407144102202,0.8433271996015133 l -28.355301851460567 3.671161517591598" fill="#aeff20" stroke="none" /><path d="M 120.99303781780057 99.45929381324524 l 37.98943914566981 -0.9784731945745277 a59.002038055807624,59.002038055807624 0 0,0 0.01738753087268931,1.0127365038726843 l -38.00063810814117 0.32618977473277705" fill="#46ff2d" stroke="none" /><line stroke="#e1ed5e" stroke-width="0.3" x1="184.99686870605535" x2="189.99668451229388" y1="99.2704041080226" y2="99.22748670261217" /><path d="M 185.99683186730306 99.26182062694052 a86.0,86.0 0 0,1 -10.086455211305974,41.156179273409016" fill="none" id="id112" stroke="none" /><text fill="#e1ed5e" style="font-size:6.75px; font-family:Arial;" text-anchor="middle"><textPath startOffset="21.40746469413373" xlink:href="#id112">April</textPath></text><path d="M 120.93736805541906 101.62068470465957 l 7.293464239155321 0.5645602592022634 a28.315281873865697,28.315281873865697 0 0,0 -0.041672513572072106,0.4842977755580055 l -7.282698102885507 -0.6896790821359262" fill="#ff3605" stroke="none" /><path d="M 120.7213421655516 103.40968896794604 l 7.0554424883531075 1.160970376547755 a28.150323134074412,28.150323134074412 0 0,0 -0.08255441846974053,0.4761519477504752 l -7.034473252391132 -1.2819153572188182" fill="#ff3304" stroke="none" /><path d="M 120.592083275326 104.11899336999214 l 8.770382806758175 1.7543221902475534 a29.944118789700546,29.944118789700546 0 0,0 -0.10514989842379423,0.5031803286495614 l -8.738975197510015 -1.904618970182524" fill="#ff4e07" stroke="none" /><path d="M 120.43855184770803 104.8234425847677 l 10.435337220092329 2.4627111699916875 a31.721996512023594,31.721996512023594 0 0,0 -0.12962585640657998,0.528917729070821 l -10.391523837169453 -2.641484723670608" fill="#ff6709" stroke="none" /><path d="M 119.83427380445688 106.89939002012753 l 10.15638951734785 3.5329194891305677 a31.7533142865245,31.7533142865245 0 0,0 -0.18350365820732578,0.5132923913964452 l -10.094245689096581 -3.7067468369079344" fill="#ff6809" stroke="none" /><path d="M 119.4528033332814 107.91128576633889 l 8.283571179844035 3.3688562849671584 a29.942412658802176,29.942412658802176 0 0,0 -0.19772565657140176,0.4744695962734913 l -8.224519678736147 -3.5105583906819273" fill="#ff4e07" stroke="none" /><path d="M 119.31412917781788 108.2440532568976 l 9.871377264063042 4.213503965652687 a31.733019368194192,31.733019368194192 0 0,0 -0.21815108657460175,0.49917237799296676 l -9.797592295471475 -4.382338413421499" fill="#ff6709" stroke="none" /><path d="M 119.0197475246899 108.90220220490707 l 6.484639558490502 3.0351387420198144 a28.15979171392922,28.15979171392922 0 0,0 -0.20867846105790416,0.4360577242771654 l -6.4315818394726865 -3.146008968362083" fill="#ff3304" stroke="none" /><path d="M 118.8641267826498 109.22738970284198 l 9.639176139919467 4.715004075310769 a31.730562897005445,31.730562897005445 0 0,0 -0.24353975626571064,0.4872426533465173 l -9.556816470442023 -4.8797785848210316" fill="#ff6709" stroke="none" /><line stroke="#e1ed5e" stroke-width="0.3" x1="174.33088141563837" x2="178.70328620479359" y1="141.23008692659167" y2="143.65538615756765" /><path d="M 175.20536237346943 141.71514677278685 a86.0,86.0 0 0,1 -30.301960400862466,31.631185727798858" fill="none" id="id113" stroke="none" /><text fill="#e1ed5e" style="font-size:6.75px; font-family:Arial;" text-anchor="middle"><textPath startOffset="22.145653131862474" xlink:href="#id113">May</textPath></text><path d="M 117.62189284568427 111.42229804090321 l 15.836766716696129 10.265200851375129 a39.87266617513612,39.87266617513612 0 0,0 -0.37722496781293957,0.5711666804643073 l -15.658217309962463 -10.535547410178497" fill="#ffd714" stroke="none" /><path d="M 117.21940702142032 112.02048342749411 l 5.696753009086754 3.9767760324772348 a27.94749900748639,27.94749900748639 0 0,0 -0.27799097983394366,0.39102912690062075 l -5.627646930722849 -4.073982386087359" fill="#ff3004" stroke="none" /><path d="M 116.1254893667686 113.45245675266167 l 14.480537634704682 12.08017951303827 a39.857802291288564,39.857802291288564 0 0,0 -0.44281152196267665,0.5216308594382985 l -14.271031549234891 -12.326977154926126" fill="#ffd714" stroke="none" /><path d="M 115.41159269507618 114.26474011684316 l 6.562640235683573 6.074281827618838 a29.942323332577132,29.942323332577132 0 0,0 -0.3523843112394812,0.37421992703514345 l -6.457400090707831 -6.186043214598478" fill="#ff4e07" stroke="none" /><path d="M 115.16444852881244 114.52719865689866 l 7.74440224466693 7.418962164924756 a31.724586972549908,31.724586972549908 0 0,0 -0.38011070525393875,0.39002706951599364 l -7.615904738262184 -7.550811926508486" fill="#ff6709" stroke="none" /><path d="M 114.39649973595853 115.28858382429668 l 19.600039937567246 20.81456319528826 a49.590341141107075,49.590341141107075 0 0,0 -0.6247679950629085,0.5782759289856421 l -19.23984217119037 -21.147956870406283" fill="#aeff20" stroke="none" /><path d="M 113.31354834802062 116.24036423190432 l 3.4050011513842335 4.15354775924594 a26.37084647232305,26.37084647232305 0 0,0 -0.35255213486593345,0.28399104399181246 l -3.3331982461630476 -4.211387097031157" fill="#ff1902" stroke="none" /><path d="M 112.45986205192187 116.90419585922612 l 22.558750903845606 30.60527813462275 a59.020787630444644,59.020787630444644 0 0,0 -0.8207233700369077,0.5941404275252111 l -22.03004652343473 -30.98801933352104" fill="#45ff2d" stroke="none" /><path d="M 110.96478420261333 117.91015095944535 l 4.73457043643537 7.733564991135368 a30.067755217785844,30.067755217785844 0 0,0 -0.4425218200793726,0.2657216382730472 l -4.601115859798561 -7.813700629944338" fill="#ff4f07" stroke="none" /><line stroke="#e1ed5e" stroke-width="0.3" x1="143.1302829299769" x2="145.66735839644613" y1="173.24464959558577" y2="177.55315839532614" /><path d="M 143.63769802327073 174.10635135553383 a86.0,86.0 0 0,1 -40.68552437913181,11.842963189579606" fill="none" id="id114" stroke="none" /><text fill="#e1ed5e" style="font-size:6.75px; font-family:Arial;" text-anchor="middle"><textPath startOffset="21.407464694133747" xlink:href="#id114">June</textPath></text><path d="M 110.34350942703117 118.27599006163325 l 4.402517796323527 7.778827104996066 a29.938250056715063,29.938250056715063 0 0,0 -0.44943844413407424,0.24929592878339443 l -4.268335164033358 -7.8532559492126035" fill="#ff4e07" stroke="none" /><path d="M 108.73861861582097 119.09545874513695 l 4.463486608042337 9.753523769653196 a31.72631990131579,31.72631990131579 0 0,0 -0.49717650743989594,0.22238072794799302 l -4.295396697746814 -9.82870824851104" fill="#ff6709" stroke="none" /><path d="M 108.07796709384702 119.3841803445677 l 3.4514788918994994 8.282292873786192 a29.972685316470056,29.972685316470056 0 0,0 -0.47663069274180736,0.19384155335787576 l -3.3087937379672514 -8.340321683723358" fill="#ff4e07" stroke="none" /><path d="M 107.407793817531 119.65005319985036 l 3.1567801630809105 8.373734430617157 a29.949004934210528,29.949004934210528 0 0,0 -0.4826222936619486,0.1772255912479972 l -3.012568717764835 -8.426690870873875" fill="#ff4e07" stroke="none" /><path d="M 106.72888874123015 119.89276391827305 l 1.434979793072205 4.24226277901856 a25.478388157894738,25.478388157894738 0 0,0 -0.41551279168877037,0.13658730776083305 l -1.3619442637357004 -4.266271008181413" fill="#ff0b01" stroke="none" /><path d="M 106.38641147887787 120.00534299687104 l 3.2642523939070593 10.225224131649915 a31.733617853901997,31.733617853901997 0 0,0 -0.5203699314696865,0.16121193494734556 l -3.088241829565749 -10.279752654403904" fill="#ff6709" stroke="none" /><path d="M 105.69591212413111 120.21278271476187 l 1.0143372184371382 3.599524948586424 a24.739713872504538,24.739713872504538 0 0,0 -0.40975869621004846,0.11168155476803543 l -0.9523971212923945 -3.6164069974986015" fill="#ff0000" stroke="none" /><path d="M 105.3480935250658 120.30758222061773 l 2.276937472328351 8.645902453612111 a29.940697595281307,29.940697595281307 0 0,0 -0.4981486312823982,0.1266274340769142 l -2.128183547820555 -8.683715119524296" fill="#ff4e07" stroke="none" /><path d="M 103.58742460773223 120.69131181640829 l 1.5276544736399864 8.811105045576852 a29.942555580762253,29.942555580762253 0 0,0 -0.5072019350552817,0.0834598854003715 l -1.3761750355316325 -8.836030929472894" fill="#ff4e07" stroke="none" /><path d="M 103.2317021107853 120.74984581791261 l 1.3763386184566475 8.837081249197963 a29.94361856284029,29.94361856284029 0 0,0 -0.5085779518392766,0.07474344507674995 l -1.2244355610096855 -8.859405767573596" fill="#ff4e07" stroke="none" /><path d="M 102.51750503828377 120.84855314841334 l 1.0727584844658318 8.883979153441627 a29.948513639972777,29.948513639972777 0 0,0 -0.5109274875057624,0.05725049066777701 l -0.92009509535927 -8.901085404616374" fill="#ff4e07" stroke="none" /><path d="M 100.72087961077811 120.9876233191556 l 0.30706509320247743 8.939865151184952 a29.94513710866606,29.94513710866606 0 0,0 -0.5138966058233023,0.013236153649251979 l -0.15355517330843124 -8.943819022184249" fill="#ff4e07" stroke="none" /><line stroke="#e1ed5e" stroke-width="0.3" x1="101.45913802915013" x2="101.54496967792366" y1="184.9874750549273" y2="189.98673829345242" /><path d="M 101.47630435890484 185.9873277026323 a86.0,86.0 0 0,1 -42.54439059252881,-10.42667462771756" fill="none" id="id115" stroke="none" /><text fill="#e1ed5e" style="font-size:6.75px; font-family:Arial;" text-anchor="middle"><textPath startOffset="22.145653131862474" xlink:href="#id115">July</textPath></text><path d="M 100.0 121.0 l 1.0954677285292334e-15 8.94517283915608 a29.94517283915608,29.94517283915608 0 0,0 -0.5140487115186563,-0.004412489941215519 l 0.15355578666980302 -8.943854747409299" fill="#ff4e07" stroke="none" /><path d="M 98.91894614982273 120.97215588758144 l -0.4603387502343152 8.930448774060055 a29.942305467332126,29.942305467332126 0 0,0 -0.5130908444092855,-0.03086627108269807 l 0.613573946776047 -8.921230525152666" fill="#ff4e07" stroke="none" /><path d="M 98.19965949673042 120.92268563240118 l -0.5365442525668309 6.235457517030868 a27.25849903584392,27.25849903584392 0 0,0 -0.4658612954968344,-0.04411754903771321 l 0.6435051114486806 -6.225328212487971" fill="#ff2603" stroke="none" /><path d="M 97.84075906011543 120.88869738790638 l -1.9396733105022874 18.764579749329336 a39.8645642865245,39.8645642865245 0 0,0 -0.6800972467708893,-0.07620631504778552 l 2.261506458873976 -18.72851767377458" fill="#ffd714" stroke="none" /><path d="M 96.05791012581884 120.62667999033965 l -11.826269622543512 61.88003997101897 a84.0,84.0 0 0,0 -1.4140140578761677,-0.2828424133485541 l 12.886780165950636 -61.667908161007546" fill="#4dd2ff" stroke="none" /><path d="M 94.30408787586889 120.21278271476187 l -1.943131573316528 6.895488452366485 a28.164043642241378,28.164043642241378 0 0,0 -0.46422389131472935,-0.13512880909023595 l 2.061215477012864 -6.861115948973733" fill="#ff3404" stroke="none" /><path d="M 92.93061703081489 119.77432235084164 l -3.008671576064483 8.415789871937271 a29.937428255444644,29.937428255444644 0 0,0 -0.4824357377723321,-0.17715708534126076 l 3.152696465490934 -8.36290193758729" fill="#ff4e07" stroke="none" /><path d="M 91.59046798132341 119.24265499422711 l -2.97118872729796 6.79866126618646 a28.41955237636116,28.41955237636116 0 0,0 -0.4453568468525116,-0.1992024528867277 l 3.0874589770061065 -6.746655062389877" fill="#ff3705" stroke="none" /><path d="M 90.6110303473126 118.78422872680471 l -3.998045275700965 7.998768735757076 a29.94229653470962,29.94229653470962 0 0,0 -0.4577931588892854,-0.23375244883426818 l 4.134765656303833 -7.9289583352499715" fill="#ff4e07" stroke="none" /><line stroke="#e1ed5e" stroke-width="0.3" x1="58.13341422392154" x2="55.67067388415222" y1="173.97424548756322" y2="178.32567169271397" /><path d="M 57.64086615596768 174.84453072859336 a86.0,86.0 0 0,1 -31.369924170532247,-30.572349798747897" fill="none" id="id116" stroke="none" /><text fill="#e1ed5e" style="font-size:6.75px; font-family:Arial;" text-anchor="middle"><textPath startOffset="22.145653131862474" xlink:href="#id116">August</textPath></text><path d="M 89.65649057296885 118.27599006163327 l -3.964342696782577 7.004613689234336 a29.0486412488657,29.0486412488657 0 0,0 -0.4318668855389027,-0.24933846261997267 l 4.084002050181879 -6.935528329338192" fill="#ff4106" stroke="none" /><path d="M 87.2517909369889 116.68781488649013 l -3.7979732390062098 4.9716688864379766 a27.256364139065337,27.256364139065337 0 0,0 -0.36937572282757053,-0.287228796219804 l 3.8827589064690087 -4.905739038597379" fill="#ff2603" stroke="none" /><path d="M 86.40962598614128 116.0094264158162 l -5.206191567024622 6.132880575172518 a29.04466623185118,29.04466623185118 0 0,0 -0.377332426261317,-0.3259307627685464 l 5.310703473048802 -6.042605679939249" fill="#ff4106" stroke="none" /><path d="M 85.34317274990678 115.03919595460226 l -4.993288107064848 5.123553482521649 a28.15428028584392,28.15428028584392 0 0,0 -0.34322491600484534,-0.3402913873415409 l 5.0805049431996565 -5.037082084951448" fill="#ff3304" stroke="none" /><path d="M 84.58840730492382 114.26474011684316 l -3.2875609737766123 3.042917356892123 a25.479665522912885,25.479665522912885 0 0,0 -0.29435359226850244,-0.323546161062833 l 3.339312266886995 -2.9860336202716162" fill="#ff0b01" stroke="none" /><path d="M 84.1078160697243 113.72728997021213 l -5.415271588829881 4.67758262133513 a28.155763101179673,28.155763101179673 0 0,0 -0.3128044095290985,-0.36848280788977733 l 5.494770561866091 -4.583933030995799" fill="#ff3304" stroke="none" /><path d="M 82.18462484594161 111.11811171558189 l -6.067235565702271 3.7864037238004995 a28.151797016787658,28.151797016787658 0 0,0 -0.2523366693670575,-0.41217298557417265 l 6.1313401995247325 -3.6816936221017698" fill="#ff3304" stroke="none" /><line stroke="#e1ed5e" stroke-width="0.3" x1="26.387840678322732" x2="22.057713659400548" y1="142.50000000000003" y2="145.00000000000006" /><path d="M 25.521815274538298 143.00000000000003 a86.0,86.0 0 0,1 -11.493303480769221,-40.785679425670985" fill="none" id="id117" stroke="none" /><text fill="#e1ed5e" style="font-size:6.75px; font-family:Arial;" text-anchor="middle"><textPath startOffset="21.40746469413373" xlink:href="#id117">September</textPath></text><path d="M 81.4637452351635 109.86951160357371 l -6.3149236409563665 3.362341149320657 a28.154271353221414,28.154271353221414 0 0,0 -0.22348046945103553,-0.4285532671767856 l 6.371712179382351 -3.2534416390393686" fill="#ff3304" stroke="none" /><path d="M 80.68587082218212 108.24405325689762 l -6.824554764427196 2.912996615823023 a28.420249120916516,28.420249120916516 0 0,0 -0.18767400213837082,-0.4503492848105247 l 6.873554611102053 -2.795414821571217" fill="#ff3705" stroke="none" /><path d="M 80.16572619554312 106.89939002012753 l -8.44713452542078 2.9383518760473564 a29.94360069759528,29.94360069759528 0 0,0 -0.16471059100895652,-0.4869375951639578 l 8.496330538002104 -2.792912606409237" fill="#ff4e07" stroke="none" /><path d="M 79.2786578344484 103.40968896794605 l -8.81922158009243 1.4511995548968035 a29.937821290834847,29.937821290834847 0 0,0 -0.07909074542127252,-0.507819321477125 l 8.84283381765197 -1.2995920514882284" fill="#ff4e07" stroke="none" /><path d="M 79.17382384314188 102.69636545807758 l -8.862458076750062 1.1474226306272926 a29.936427801724136,29.936427801724136 0 0,0 -0.06160904544899001,-0.5102112762172958 l 8.880849208458713 -0.9951176774865975" fill="#ff4e07" stroke="none" /><line stroke="#e1ed5e" stroke-width="0.3" x1="15.003131293944662" x2="10.003315487706104" y1="100.72959589197737" y2="100.7725132973878" /><path d="M 14.003168132696942 100.73817937305945 a86.0,86.0 0 0,1 10.791469493833604,-42.45332614584628" fill="none" id="id118" stroke="none" /><text fill="#e1ed5e" style="font-size:6.75px; font-family:Arial;" text-anchor="middle"><textPath startOffset="22.145653131862435" xlink:href="#id118">October</textPath></text><path d="M 79.00077361379809 100.18025310272382 l -9.032415515014538 0.07753242389643236 a30.032748270190563,30.032748270190563 0 0,0 0.0,-0.5155710532404965 l 9.032415515014538 0.07753242389642905" fill="#ff4f07" stroke="none" /><path d="M 79.01933749520258 99.09900007780938 l -8.931679358014408 -0.3835647422841128 a29.939911524500907,29.939911524500907 0 0,0 0.026458912843126133,-0.5132958406012369 l 8.923778855714712 0.5368323762620617" fill="#ff4e07" stroke="none" /><path d="M 79.13060592940154 97.66154086499901 l -8.885119077963573 -0.9955961252707172 a29.94072439314882,29.94072439314882 0 0,0 0.06161788781648335,-0.510284503704794 l 8.866719103887421 1.1479743058989476" fill="#ff4e07" stroke="none" /><path d="M 79.22317932658666 96.9465228501225 l -8.846572160641214 -1.3001414591707332 a29.941599790154264,29.941599790154264 0 0,0 0.07910072758813907,-0.5078834141491317 l 8.822949940914809 1.4518130552513149" fill="#ff4e07" stroke="none" /><path d="M 79.34024301695615 96.23510406497455 l -8.795866343563178 -1.6028998535213734 a29.94072439314882,29.94072439314882 0 0,0 0.09648570625916088,-0.5048539861265937 l 8.767054345021858 1.7536564046812817" fill="#ff4e07" stroke="none" /><path d="M 79.56144815229197 95.17655741523228 l -8.700923472239948 -2.0533942480623177 a29.93993832236842,29.93993832236842 0 0,0 0.12234381730437655,-0.4992045245318813 l 8.664392128419273 2.202454597202317" fill="#ff4e07" stroke="none" /><path d="M 79.83685265289637 94.1308016681162 l -8.585576091911562 -2.4991360728287875 a29.941912431941923,29.941912431941923 0 0,0 0.14788977826524222,-0.49227697330137987 l 8.54140999364269 2.646150649720891" fill="#ff4e07" stroke="none" /><path d="M 80.05021161711548 93.44210830539832 l -17.928995432643056 -5.8936169138091445 a39.87282696234119,39.87282696234119 0 0,0 0.2193282284415658,-0.6484049353152865 l 17.825181782629123 6.200523523598593" fill="#ffd714" stroke="none" /><path d="M 80.41425534168474 92.42381321644754 l -8.338073718691394 -3.2253460366142477 a29.940152705308527,29.940152705308527 0 0,0 0.18953731296952764,-0.4777578436199469 l 8.281477730755736 3.3680048974477774" fill="#ff4e07" stroke="none" /><path d="M 81.29705330413844 90.45014215332179 l -16.798825065628222 -8.577599774877308 a39.86201848911071,39.86201848911071 0 0,0 0.3164131826907863,-0.6067639984515552 l 16.649103813962494 8.86471001643335" fill="#ffd714" stroke="none" /><line stroke="#e1ed5e" stroke-width="0.3" x1="26.387840678322718" x2="22.05771365940052" y1="57.49999999999999" y2="54.99999999999999" /><path d="M 25.521815274538284 56.99999999999999 a86.0,86.0 0 0,1 29.574782752854787,-30.34633250058573" fill="none" id="id119" stroke="none" /><text fill="#e1ed5e" style="font-size:6.75px; font-family:Arial;" text-anchor="middle"><textPath startOffset="21.40746469413373" xlink:href="#id119">November</textPath></text><path d="M 81.99639281039701 89.18935116829357 l -43.6647717815669 -26.219440864035725 a71.93202699637024,71.93202699637024 0 0,0 0.6447577077322092,-1.053163260157677 l 43.208246109379296 26.965141240317948" fill="#3dffb0" stroke="none" /><path d="M 82.78059297857968 87.97951657250589 l -7.3312074629587975 -5.117752179409753 a29.94080478675136,29.94080478675136 0 0,0 0.2978181932292329,-0.41891858557105494 l 7.242274171199592 5.242847991690328" fill="#ff4e07" stroke="none" /><path d="M 83.64595745247003 86.82634096563983 l -20.87296910116504 -16.81378638794198 a47.80269112976407,47.80269112976407 0 0,0 0.5202598622219481,-0.6346324388404723 l 20.581262419704462 17.169621108480946" fill="#c3ff1e" stroke="none" /><path d="M 84.34580500576568 86.00192230759919 l -5.3324254683619525 -4.768287735176411 a28.15341382146098,28.15341382146098 0 0,0 0.3252420439160393,-0.3574979802837777 l 5.249785723604048 4.859123291017847" fill="#ff3304" stroke="none" /><path d="M 85.34317274990677 84.96080404539775 l -26.576605062984385 -27.26993806574025 a59.07841197822142,59.07841197822142 0 0,0 0.7323683871102876,-0.7015923480085059 l 26.104564190008794 27.722142544054325" fill="#45ff2d" stroke="none" /><path d="M 86.13680546590413 84.22622945171909 l -4.722754086554635 -5.373627206489117 a28.154039105036297,28.154039105036297 0 0,0 0.36576188549586225,-0.3159364052342757 l 4.629812721295924 5.453907744188104" fill="#ff3304" stroke="none" /><path d="M 86.96720088162412 83.53348406188908 l -16.915345517486305 -21.371986480602796 a48.25602172186933,48.25602172186933 0 0,0 0.6539611377861728,-0.5085241361911087 l 16.545974435064885 21.659211668414713" fill="#beff1f" stroke="none" /><path d="M 87.83215693770416 82.88440491214696 l -4.14329134311014 -5.8280581526747275 a28.15074296733212,28.15074296733212 0 0,0 0.3962618003928084,-0.27662151191649303 l 4.042634451543566 5.898324480396347" fill="#ff3304" stroke="none" /><path d="M 89.03521579738668 82.08984904055464 l -14.461374720975245 -23.621568792210507 a48.69674838362069,48.69674838362069 0 0,0 0.7166937994067555,-0.4303540342583287 l 14.053748165011054 23.86633682700476" fill="#b8ff1f" stroke="none" /><line stroke="#e1ed5e" stroke-width="0.3" x1="56.869717070023135" x2="54.33264160355391" y1="26.7553504044142" y2="22.446841604673864" /><path d="M 56.362301976729285 25.89364864446614 a86.0,86.0 0 0,1 42.16139366436587,-11.88097634709845" fill="none" id="id120" stroke="none" /><text fill="#e1ed5e" style="font-size:6.75px; font-family:Arial;" text-anchor="middle"><textPath startOffset="22.145653131862474" xlink:href="#id120">December</textPath></text><path d="M 90.61103034731259 81.2157712731953 l -3.1996527076961847 -6.401448777768906 a28.156558104582576,28.156558104582576 0 0,0 0.43420060753459716,-0.21238927521508655 l 3.0892918508995346 6.455431803081207" fill="#ff3304" stroke="none" /><path d="M 91.5904679813234 80.7573450057729 l -15.271191704372672 -34.94347517380528 a59.13470536524501,59.13470536524501 0 0,0 0.9336663875831507,-0.39852666162401085 l 14.66909024161909 35.20047648508869" fill="#44ff2d" stroke="none" /><path d="M 92.592206182469 80.34994680014964 l -2.5254676142816597 -6.699102890484321 a28.159327217558985,28.159327217558985 0 0,0 0.45378199107348416,-0.16663503265769739 l 2.4100964715540485 6.74146877215074" fill="#ff3304" stroke="none" /><path d="M 93.61358852112211 79.99465700312896 l -2.718401110621077 -8.515352761235635 a29.93873241833031,29.93873241833031 0 0,0 0.4909372832477264,-0.15209362529197054 l 2.5718231945017345 8.560762974334246" fill="#ff4e07" stroke="none" /><path d="M 96.05791012581881 79.37332000966035 l -1.678189043333879 -8.780994209913125 a29.939920457123414,29.939920457123414 0 0,0 0.5056499936374471,-0.0921462729282704 l 1.5272043161453934 8.808508656772757" fill="#ff4e07" stroke="none" /><path d="M 98.5590905019552 79.04949213459386 l -0.6134170419305203 -8.918949163134654 a29.940018715970965,29.940018715970965 0 0,0 0.513051658676252,-0.03086391376630542 l 0.4602210311217845 8.928165054725653" fill="#ff4e07" stroke="none" /></svg>