<?xml version="1.0" encoding="utf-8" ?>
<svg baseProfile="full" height="200mm" version="1.1" viewBox="0,0,200,200" width="200mm" xmlns="http://www.w3.org/2000/svg" xmlns:ev="http://www.w3.org/2001/xml-events" xmlns:xlink="http://www.w3.org/1999/xlink"><defs /><rect fill="#1a1a1a" height="200" width="200" x="0" y="0" /><text alignment-baseline="middle" fill="#e1ed5e" style="dominant-baseline: central; font-size:9.0px; font-family:Arial;" text-anchor="middle" x="100.0" y="100.0">2016</text><line stroke="#e1ed5e" stroke-width="0.3" x1="100.0" x2="100.0" y1="15.0" y2="10.0" /><path d="M 100.0 14.0 a86.0,86.0 0 0,1 42.35913384403234,11.155469271406648" fill="none" id="id1" stroke="none" /><text fill="#e1ed5e" style="font-size:6.75px; font-family:Arial;" text-anchor="middle"><textPath startOffset="22.145653131862478" xlink:href="#id1">January</textPath></text><line stroke="#e1ed5e" stroke-width="0.3" x1="143.13028292997686" x2="145.6673583964461" y1="26.7553504044142" y2="22.446841604673864" /><path d="M 143.63769802327073 25.89364864446614 a86.0,86.0 0 0,1 29.32050498858742,28.57503671076993" fill="none" id="id2" stroke="none" /><text fill="#e1ed5e" style="font-size:6.75px; font-family:Arial;" text-anchor="middle"><textPath startOffset="20.669276256404974" xlink:href="#id2">February</textPath></text><line stroke="#e1ed5e" stroke-width="0.3" x1="172.87174338648825" x2="177.1583165268699" y1="56.24261187166439" y2="53.66864786411523" /><path d="M 173.72905801456457 55.72781907015455 a86.0,86.0 0 0,1 12.242430191666344,42.057860355516425" fill="none" id="id3" stroke="none" /><text fill="#e1ed5e" style="font-size:6.75px; font-family:Arial;" text-anchor="middle"><textPath startOffset="22.145653131862474" xlink:href="#id3">March</textPath></text><line stroke="#e1ed5e" stroke-width="0.3" x1="184.99686870605535" x2="189.99668451229388" y1="99.2704041080226" y2="99.22748670261217" /><path d="M 185.99683186730306 99.26182062694052 a86.0,86.0 0 0,1 -10.086455211305974,41.156179273409016" fill="none" id="id4" stroke="none" /><text fill="#e1ed5e" style="font-size:6.75px; font-family:Arial;" text-anchor="middle"><textPath startOffset="21.40746469413373" xlink:href="#id4">April</textPath></text><path d="M 120.35273937422433 105.17358676015961 l 14.232447545544604 3.617832510524247 a35.68506980612911,35.68506980612911 0 0,0 -0.1560126088771503,0.5924052874873351 l -14.168245455862722 -3.861618302384385" fill="#ff730a" stroke="none" /><path d="M 120.26092885502905 105.52220625578681 l 14.103524258232119 3.8439782521677817 a35.617987731068894,35.617987731068894 0 0,0 -0.16584669283871598,0.5885314052000366 l -14.035459073318822 -4.085517581270826" fill="#ff720a" stroke="none" /><path d="M 120.16314734710363 105.8691983318838 l 14.129460935829492 4.112880153449859 a35.71589105334004,35.71589105334004 0 0,0 -0.17640874544770802,0.58720733976042 l -14.056775870378154 -4.354825096801003" fill="#ff740a" stroke="none" /><path d="M 119.83427380445688 106.89939002012753 l 13.839099199749912 4.813957084975511 a35.65246905734677,35.65246905734677 0 0,0 -0.20603702772919902,0.5763222363657176 l -13.754422001976769 -5.05081427772215" fill="#ff730a" stroke="none" /><path d="M 119.71291397450082 107.23885506374661 l 13.73974075047254 5.045423118813275 a35.63682924468449,35.63682924468449 0 0,0 -0.21580529552705102,0.5724491855969768 l -13.651104771131049 -5.2805405846044104" fill="#ff730a" stroke="none" /><path d="M 119.4528033332814 107.91128576633889 l 13.063305361255084 5.312732565851865 a35.102307409699264,35.102307409699264 0 0,0 -0.23179918261241483,0.5562336547403078 l -12.970180334106184 -5.536198730033451" fill="#ff6a09" stroke="none" /><path d="M 119.0197475246899 108.90220220490707 l 12.83362343359756 6.006783774559173 a35.16980387125001,35.16980387125001 0 0,0 -0.2606262369451565,0.5446085963691822 l -12.728617938692492 -6.226204872993459" fill="#ff6b09" stroke="none" /><path d="M 118.8641267826498 109.22738970284198 l 13.14099731580846 6.427920290934992 a35.62887451995877,35.62887451995877 0 0,0 -0.27346024225215493,0.5471036682583771 l -13.028717160344574 -6.652555815357115" fill="#ff720a" stroke="none" /><line stroke="#e1ed5e" stroke-width="0.3" x1="174.33088141563837" x2="178.70328620479359" y1="141.23008692659167" y2="143.65538615756765" /><path d="M 175.20536237346943 141.71514677278685 a86.0,86.0 0 0,1 -30.301960400862466,31.631185727798858" fill="none" id="id5" stroke="none" /><text fill="#e1ed5e" style="font-size:6.75px; font-family:Arial;" text-anchor="middle"><textPath startOffset="22.145653131862474" xlink:href="#id5">May</textPath></text><path d="M 117.01052211995028 112.31430620078461 l 9.444042934182319 6.836758780524563 a32.65895439418813,32.65895439418813 0 0,0 -0.332651637496224,0.45130583386042233 l -9.325289277102266 -6.9978709236538625" fill="#ff4506" stroke="none" /><path d="M 116.57777611688842 112.89097897827486 l 11.54598400243948 8.978226995556847 a35.625946347786666,35.625946347786666 0 0,0 -0.3795581018172634,0.4795592624611825 l -11.390159469980656 -9.175106201932712" fill="#ff720a" stroke="none" /><path d="M 115.16444852881244 114.52719865689866 l 10.574568611695268 10.130197523584618 a35.64385206119929,35.64385206119929 0 0,0 -0.42706969697265473,0.43821113188077454 l -10.399112113571805 -10.31023134753313" fill="#ff730a" stroke="none" /><path d="M 114.91283532996324 114.78537596483092 l 10.383726362583742 10.294977097900082 a35.622186109446965,35.622186109446965 0 0,0 -0.43426511745964547,0.4305534720920255 l -10.20546932499413 -10.471710580220769" fill="#ff720a" stroke="none" /><path d="M 113.31354834802062 116.24036423190432 l 9.282484160753823 11.323121365307362 a35.64163889898005,35.64163889898005 0 0,0 -0.4764934601983292,0.38382940233351115 l -9.086739930200242 -11.480799061434276" fill="#ff730a" stroke="none" /><path d="M 111.27062007382361 117.71928675628689 l 7.835745468491522 12.31909335919736 a35.59996466569717,35.59996466569717 0 0,0 -0.5184641051708981,0.3235599470660642 l -7.623117234530909 -12.451789103104973" fill="#ff720a" stroke="none" /><line stroke="#e1ed5e" stroke-width="0.3" x1="143.1302829299769" x2="145.66735839644613" y1="173.24464959558577" y2="177.55315839532614" /><path d="M 143.63769802327073 174.10635135553383 a86.0,86.0 0 0,1 -40.68552437913181,11.842963189579606" fill="none" id="id6" stroke="none" /><text fill="#e1ed5e" style="font-size:6.75px; font-family:Arial;" text-anchor="middle"><textPath startOffset="21.407464694133747" xlink:href="#id6">June</textPath></text><path d="M 110.02825361518725 118.45085714620011 l 14.718749897399828 27.080842003864774 a51.822290670560065,51.822290670560065 0 0,0 -0.7852586896634451,0.418106022374195 l -14.251702391949829 -27.329518493961537" fill="#acff20" stroke="none" /><path d="M 106.72888874123015 119.89276391827305 l 4.686185096543505 13.853873557408127 a35.62498353174179,35.62498353174179 0 0,0 -0.5809879443474039,0.19098227719389188 l -4.447674414548366 -13.932276756004038" fill="#ff720a" stroke="none" /><path d="M 103.94208987418118 120.62667999033965 l 2.7445260813674106 14.3605201840471 a35.6204296574256,35.6204296574256 0 0,0 -0.6015871035941275,0.1096292101956585 l -2.497604244222226 -14.405517568174123" fill="#ff720a" stroke="none" /><path d="M 101.08105385017728 120.97215588758144 l 0.75246698137992 14.597658415600323 a35.61703929585653,35.61703929585653 0 0,0 -0.6108733351445471,0.026233529437292954 l -0.5017678856345432 -14.608424513463447" fill="#ff720a" stroke="none" /><line stroke="#e1ed5e" stroke-width="0.3" x1="101.45913802915013" x2="101.54496967792366" y1="184.9874750549273" y2="189.98673829345242" /><path d="M 101.47630435890484 185.9873277026323 a86.0,86.0 0 0,1 -42.54439059252881,-10.42667462771756" fill="none" id="id7" stroke="none" /><text fill="#e1ed5e" style="font-size:6.75px; font-family:Arial;" text-anchor="middle"><textPath startOffset="22.145653131862474" xlink:href="#id7">July</textPath></text><path d="M 92.25597844496254 119.51999308798841 l -4.203712638398987 10.59610191710537 a32.399498926879176,32.399498926879176 0 0,0 -0.5152222917284,-0.20953642070075088 l 4.384989391317829 -10.522378239825327" fill="#ff4106" stroke="none" /><line stroke="#e1ed5e" stroke-width="0.3" x1="58.13341422392154" x2="55.67067388415222" y1="173.97424548756322" y2="178.32567169271397" /><path d="M 57.64086615596768 174.84453072859336 a86.0,86.0 0 0,1 -31.369924170532247,-30.572349798747897" fill="none" id="id8" stroke="none" /><text fill="#e1ed5e" style="font-size:6.75px; font-family:Arial;" text-anchor="middle"><textPath startOffset="22.145653131862474" xlink:href="#id8">August</textPath></text><path d="M 86.13680546590413 115.77377054828092 l -4.843415339262702 5.510917562590251 a28.33681705716252,28.33681705716252 0 0,0 -0.362623512941315,-0.32426018131966544 l 4.937303879027388 -5.426961851387203" fill="#ff0000" stroke="none" /><path d="M 84.1078160697243 113.72728997021213 l -11.074317521595246 9.565731714917387 a35.63365066587582,35.63365066587582 0 0,0 -0.3958821153541543,-0.46634813645577294 l 11.236894200456513 -9.37421679601206" fill="#ff730a" stroke="none" /><path d="M 82.576782715395 111.72311816256416 l -27.287506633952024 18.360252266051294 a53.889312573707244,53.889312573707244 0 0,0 -0.5098328291313154,-0.7719518840308086 l 27.598663902004066 -17.889120503681426" fill="#93ff23" stroke="none" /><line stroke="#e1ed5e" stroke-width="0.3" x1="26.387840678322732" x2="22.057713659400548" y1="142.50000000000003" y2="145.00000000000006" /><path d="M 25.521815274538298 143.00000000000003 a86.0,86.0 0 0,1 -11.493303480769221,-40.785679425670985" fill="none" id="id9" stroke="none" /><text fill="#e1ed5e" style="font-size:6.75px; font-family:Arial;" text-anchor="middle"><textPath startOffset="21.40746469413373" xlink:href="#id9">September</textPath></text><line stroke="#e1ed5e" stroke-width="0.3" x1="15.003131293944662" x2="10.003315487706104" y1="100.72959589197737" y2="100.7725132973878" /><path d="M 14.003168132696942 100.73817937305945 a86.0,86.0 0 0,1 10.791469493833604,-42.45332614584628" fill="none" id="id10" stroke="none" /><text fill="#e1ed5e" style="font-size:6.75px; font-family:Arial;" text-anchor="middle"><textPath startOffset="22.145653131862435" xlink:href="#id10">October</textPath></text><path d="M 79.64726062577567 94.8264132398404 l -27.82284449683865 -7.072458270709303 a49.7076704364215,49.7076704364215 0 0,0 0.2173184300359738,-0.8251934760166243 l 27.69733658599795 7.549032251098712" fill="#c7ff1e" stroke="none" /><path d="M 80.41425534168474 92.42381321644754 l -41.16552809179554 -15.92371060217048 a65.13802513047094,65.13802513047094 0 0,0 0.41235882718734457,-1.03941361723509 l 40.88611058964206 16.628025236619152" fill="#33ff52" stroke="none" /><path d="M 80.68587082218212 91.75594674310238 l -12.835638809024356 -5.47877095330963 a34.95602216946367,34.95602216946367 0 0,0 0.24030786765399756,-0.5498714291585496 l 12.73969705935338 5.698304452244046" fill="#ff6809" stroke="none" /><path d="M 81.46374523516351 90.13048839642627 l -55.60876429450947 -29.60853481072118 a84.0,84.0 0 0,0 0.6886186015385976,-1.2669806661015215 l 55.092300343355525 30.558770310297323" fill="#4dd2ff" stroke="none" /><line stroke="#e1ed5e" stroke-width="0.3" x1="26.387840678322718" x2="22.05771365940052" y1="57.49999999999999" y2="54.99999999999999" /><path d="M 25.521815274538284 56.99999999999999 a86.0,86.0 0 0,1 29.574782752854787,-30.34633250058573" fill="none" id="id11" stroke="none" /><text fill="#e1ed5e" style="font-size:6.75px; font-family:Arial;" text-anchor="middle"><textPath startOffset="21.40746469413373" xlink:href="#id11">November</textPath></text><path d="M 82.78059297857968 87.97951657250589 l -25.465716499014686 -17.77704788352349 a52.056821283918865,52.056821283918865 0 0,0 0.5178039992730586,-0.728356171348948 l 25.156797401211655 18.21158128158196" fill="#a9ff21" stroke="none" /><path d="M 84.10781606972428 86.27271002978789 l -33.405553574213585 -28.854921547634635 a65.1422417545802,65.1422417545802 0 0,0 0.7382444193583185,-0.8399866315708755 l 32.90529809089667 29.424120457016812" fill="#33ff52" stroke="none" /><line stroke="#e1ed5e" stroke-width="0.3" x1="56.869717070023135" x2="54.33264160355391" y1="26.7553504044142" y2="22.446841604673864" /><path d="M 56.362301976729285 25.89364864446614 a86.0,86.0 0 0,1 42.16139366436587,-11.88097634709845" fill="none" id="id12" stroke="none" /><text fill="#e1ed5e" style="font-size:6.75px; font-family:Arial;" text-anchor="middle"><textPath startOffset="22.145653131862474" xlink:href="#id12">December</textPath></text><path d="M 92.592206182469 80.34994680014964 l -22.210871799059767 -58.91697625731797 a83.96453698217464,83.96453698217464 0 0,0 1.3530719138621974,-0.4968667487690769 l 21.19621073354344 59.28957385509577" fill="#4dd2ff" stroke="none" /></svg>