<?xml version="1.0" encoding="utf-8" ?>
<svg baseProfile="full" height="200mm" version="1.1" viewBox="0,0,200,200" width="200mm" xmlns="http://www.w3.org/2000/svg" xmlns:ev="http://www.w3.org/2001/xml-events" xmlns:xlink="http://www.w3.org/1999/xlink"><defs /><rect fill="#1a1a1a" height="200" width="200" x="0" y="0" /><text alignment-baseline="middle" fill="#e1ed5e" style="dominant-baseline: central; font-size:9.0px; font-family:Arial;" text-anchor="middle" x="100.0" y="100.0">2022</text><line stroke="#e1ed5e" stroke-width="0.3" x1="100.0" x2="100.0" y1="15.0" y2="10.0" /><path d="M 100.0 14.0 a86.0,86.0 0 0,1 42.46469731375804,11.215312516191453" fill="none" id="id85" stroke="none" /><text fill="#e1ed5e" style="font-size:6.75px; font-family:Arial;" text-anchor="middle"><textPath startOffset="22.20632615414155" xlink:href="#id85">January</textPath></text><line stroke="#e1ed5e" stroke-width="0.3" x1="143.23703022742887" x2="145.7803849466894" y1="26.81831364943548" y2="22.513508569990506" /><path d="M 143.74570117128098 25.957352633546492 a86.0,86.0 0 0,1 28.547481713284135,27.462654790039103" fill="none" id="id86" stroke="none" /><text fill="#e1ed5e" style="font-size:6.75px; font-family:Arial;" text-anchor="middle"><textPath startOffset="19.985693538727396" xlink:href="#id86">February</textPath></text><line stroke="#e1ed5e" stroke-width="0.3" x1="172.23445277983987" x2="176.4835382374775" y1="55.19839476539836" y2="52.563006222186495" /><path d="M 173.08426987136738 54.67131705675599 a86.0,86.0 0 0,1 12.851231095245387,41.99856678651699" fill="none" id="id87" stroke="none" /><text fill="#e1ed5e" style="font-size:6.75px; font-family:Arial;" text-anchor="middle"><textPath startOffset="22.20632615414155" xlink:href="#id87">March</textPath></text><line stroke="#e1ed5e" stroke-width="0.3" x1="184.98032266829074" x2="189.97916517819016" y1="98.17113171792111" y2="98.06355123074" /><path d="M 185.9800911702706 98.14961562048488 a86.0,86.0 0 0,1 -9.607161424134198,41.387399972396054" fill="none" id="id88" stroke="none" /><text fill="#e1ed5e" style="font-size:6.75px; font-family:Arial;" text-anchor="middle"><textPath startOffset="21.466115282336823" xlink:href="#id88">April</textPath></text><line stroke="#e1ed5e" stroke-width="0.3" x1="174.80103733775053" x2="179.2010983576182" y1="140.37084112569926" y2="142.7455964860345" /><path d="M 175.68104954172406 140.8457921977663 a86.0,86.0 0 0,1 -30.038265399797805,32.042727171017184" fill="none" id="id89" stroke="none" /><text fill="#e1ed5e" style="font-size:6.75px; font-family:Arial;" text-anchor="middle"><textPath startOffset="22.206326154141568" xlink:href="#id89">May</textPath></text><path d="M 117.55443506779139 111.5257021239791 l 3.931045402899692 2.5810034999525455 a25.702626609292523,25.702626609292523 0 0,0 -0.24600705386931263,0.3677471668592367 l -3.8860352436196584 -2.648287581017589" fill="#ff0500" stroke="none" /><path d="M 115.32070863581623 114.36230785411682 l 3.470040015658526 3.252968524868557 a25.756362258497237,25.756362258497237 0 0,0 -0.3060020782764361,0.3208419556926562 l -3.4135313860031253 -3.3122175971437207" fill="#ff0500" stroke="none" /><path d="M 115.07121518719521 114.62390073753431 l 3.406528906794707 3.305422951881966 a25.74660511140921,25.74660511140921 0 0,0 -0.3113615114778779,0.31540756726838226 l -3.349126770261294 -3.3635710131310135" fill="#ff0500" stroke="none" /><path d="M 113.48314897796784 116.09983520530334 l 3.0446980345971135 3.6355851802145254 a25.742116165223603,25.742116165223603 0 0,0 -0.3421615988660235,0.28157570162368545 l -2.981666307186399 -3.687456000695389" fill="#ff0500" stroke="none" /><path d="M 112.92097659922987 116.55440617244103 l 2.888395730574 3.700624000318713 a25.694406020801033,25.694406020801033 0 0,0 -0.3509993774186487,0.26913135522334025 l -2.8242676246618577 -3.7497946973694245" fill="#ff0500" stroke="none" /><path d="M 112.63410532772338 116.77436683061366 l 2.6856228399545126 3.5657153013611325 a25.46395515757565,25.46395515757565 0 0,0 -0.35239086101805717,0.2606903345054958 l -2.623847008517891 -3.611415584606397" fill="#ff0100" stroke="none" /><path d="M 111.7513745106137 117.40417183066458 l 2.6531459490513147 3.9293963397571305 a25.741238131739866,25.741238131739866 0 0,0 -0.3693564921358494,0.24478934259371737 l -2.5851147581755014 -3.9744837034421665" fill="#ff0500" stroke="none" /><line stroke="#e1ed5e" stroke-width="0.3" x1="143.8653032363475" x2="146.44561519142675" y1="172.8068346515853" y2="177.08958963109032" /><path d="M 144.38136562736335 173.6633856474863 a86.0,86.0 0 0,1 -40.68145358897372,12.25698825130547" fill="none" id="id90" stroke="none" /><text fill="#e1ed5e" style="font-size:6.75px; font-family:Arial;" text-anchor="middle"><textPath startOffset="21.466115282336833" xlink:href="#id90">June</textPath></text><path d="M 108.92500713936063 119.00905698771935 l 1.9915744272125617 4.241783921405376 a25.686053727286982,25.686053727286982 0 0,0 -0.4018424148500637,0.18446614353183421 l -1.9182640165950786 -4.275437135271285" fill="#ff0400" stroke="none" /><path d="M 108.59647513512805 119.15986991738527 l 1.9100915170197401 4.257222224356982 a25.666089440950504,25.666089440950504 0 0,0 -0.40464340839445917,0.17738377886651593 l -1.836527433967527 -4.289470556517953" fill="#ff0400" stroke="none" /><path d="M 106.91757812671514 119.82793768551818 l 1.5463120851303909 4.432212994880665 a25.69420846326719,25.69420846326719 0 0,0 -0.41885263072365814,0.14209755356861045 l -1.4697897214695057 -4.458173535347398" fill="#ff0500" stroke="none" /><path d="M 106.57524785965236 119.94407469862006 l 1.4748069834728286 4.473391919553239 a25.710232574345394,25.710232574345394 0 0,0 -0.42149925181403436,0.13495074992318937 l -1.397586386567854 -4.498115516136135" fill="#ff0500" stroke="none" /><path d="M 105.88484417918355 120.15858648285463 l 1.4231673577651913 4.875072540164618 a26.07855664535461,26.07855664535461 0 0,0 -0.4319960494160657,0.12208639865688546 l -1.33904014024452 -4.898847732160023" fill="#ff0a01" stroke="none" /><path d="M 103.41894727170886 120.7198165907248 l 0.7684438538968608 4.656993643851818 a25.71996777059633,25.71996777059633 0 0,0 -0.4374404798477053,0.06831920653436904 l -0.6881675104406383 -4.669531157733293" fill="#ff0500" stroke="none" /><path d="M 103.06178313531738 120.77559828337769 l 0.7000282462809402 4.750011672607457 a25.801317572864583,25.801317572864583 0 0,0 -0.4399387682167433,0.060971504543654936 l -0.6181608868773665 -4.761357742643714" fill="#ff0601" stroke="none" /><path d="M 101.98527174616119 120.90594882070398 l 0.44694190645419996 4.706531808668938 a25.727705440671766,25.727705440671766 0 0,0 -0.44123710980618047,0.03807179446300831 l -0.36586047890647777 -4.71352785541061" fill="#ff0500" stroke="none" /><path d="M 100.90346689309514 120.98055641714683 l 0.2369779132968093 5.5031662117782245 a26.508266232295604,26.508266232295604 0 0,0 -0.4560427191484974,0.01570703333824884 l -0.1422148424736596 -5.506430043542568" fill="#ff1101" stroke="none" /><line stroke="#e1ed5e" stroke-width="0.3" x1="102.19456741930631" x2="102.32365962044197" y1="184.97166512339345" y2="189.96999836594603" /><path d="M 102.22038585953345 185.97133177190398 a86.0,86.0 0 0,1 -42.740103519485714,-10.115201625700543" fill="none" id="id91" stroke="none" /><text fill="#e1ed5e" style="font-size:6.75px; font-family:Arial;" text-anchor="middle"><textPath startOffset="22.20632615414155" xlink:href="#id91">July</textPath></text><path d="M 100.54218724476979 120.99299961872073 l 0.14308676638726217 5.540190148676697 a26.542037595163848,26.542037595163848 0 0,0 -0.4568267761560232,0.007864687237776453 l -0.047700300338571026 -5.541832313193633" fill="#ff1202" stroke="none" /><path d="M 99.09653310690486 120.98055641714683 l -0.23667665798185106 5.4961703780850115 a26.5012639152628,26.5012639152628 0 0,0 -0.45558440359680613,-0.02354850979546142 l 0.3312491299921461 -5.4912820615273485" fill="#ff1101" stroke="none" /><path d="M 96.93821686468263 120.77559828337769 l -0.8021534704212591 5.442978005482407 a26.50176878451595,26.50176878451595 0 0,0 -0.45073720765563796,-0.07039588195694929 l 0.8957265416854141 -5.428363816178352" fill="#ff1101" stroke="none" /><path d="M 96.58105272829116 120.7198165907248 l -0.8954370679177008 5.426609520806652 a26.49999076671138,26.49999076671138 0 0,0 -0.4494285222640685,-0.0781389094026181 l 0.9887145616538193 -5.410392032883028" fill="#ff1101" stroke="none" /><path d="M 96.22490169976321 120.6578951692458 l -1.0299643552966395 5.636116992885514 a26.729453842267556,26.729453842267556 0 0,0 -0.45189627422933437,-0.08660699647824703 l 1.126828244097669 -5.6175527980587985" fill="#ff1402" stroke="none" /><path d="M 95.86986931433489 120.58985236759428 l -1.2276031162380296 6.119943617539386 a27.241852232539504,27.241852232539504 0 0,0 -0.45897142506435235,-0.09618192461781552 l 1.3327660027317687 -6.09790571219503" fill="#ff1c02" stroke="none" /><path d="M 94.46302465271185 120.25689768951611 l -1.7404850809653432 6.367524867617821 a27.60111060782913,27.60111060782913 0 0,0 -0.4572174336267081,-0.12921421376441047 l 1.849833682696665 -6.336621860514889" fill="#ff2203" stroke="none" /><path d="M 93.76903079525671 120.05430185196036 l -1.9575659912445809 6.30040335517405 a27.59751067054581,27.59751067054581 0 0,0 -0.45243970726161575,-0.14485690669012558 l 2.065727043597137 -6.265773601824218" fill="#ff2203" stroke="none" /><path d="M 93.42475214034765 119.94407469862007 l -2.0683868797550637 6.273841430163481 a27.606005644500968,27.606005644500968 0 0,0 -0.4500176802294509,-0.15267043043932849 l 2.1760742929217405 -6.23730801282603" fill="#ff2203" stroke="none" /><path d="M 92.06813273071674 119.44442032107085 l -2.4922432435087924 6.109560778557111 a27.598333826936813,27.598333826936813 0 0,0 -0.4383253334095263,-0.18322002491441974 l 2.5970400364157813 -6.065755710622718" fill="#ff2203" stroke="none" /><path d="M 91.7346041902142 119.30500536409082 l -2.595981681000337 6.0632837712936825 a27.59564484939287,27.59564484939287 0 0,0 -0.435064165672453,-0.19071934487353728 l 2.6999665213305337 -6.017699873125693" fill="#ff2203" stroke="none" /><path d="M 91.40352486487194 119.15986991738527 l -2.7015120627565454 6.021144584150717 a27.599420393372938,27.599420393372938 0 0,0 -0.43177585226154136,-0.1982071165050508 l 2.8047559107855062 -5.9737503973115915" fill="#ff2203" stroke="none" /><line stroke="#e1ed5e" stroke-width="0.3" x1="58.666819895761336" x2="56.23545636021788" y1="174.27360380694188" y2="178.64263932499728" /><path d="M 58.180547188652646 175.14741091055294 a86.0,86.0 0 0,1 -31.652253787137756,-30.449443065178592" fill="none" id="id92" stroke="none" /><text fill="#e1ed5e" style="font-size:6.75px; font-family:Arial;" text-anchor="middle"><textPath startOffset="22.20632615414155" xlink:href="#id92">August</textPath></text><path d="M 87.65650970185807 116.9893568818739 l -3.2334327745770324 4.450438411986772 a26.501044406891864,26.501044406891864 0 0,0 -0.36674294305942,-0.27130766168987624 l 3.3095606880550164 -4.394120801557129" fill="#ff1101" stroke="none" /><path d="M 87.36589467227662 116.77436683061367 l -3.969789041311095 5.270709392692859 a27.598454556540826,27.598454556540826 0 0,0 -0.3770097023928377,-0.2890749632763918 l 4.059927472197419 -5.201595087589101" fill="#ff2203" stroke="none" /><path d="M 87.07902340077011 116.55440617244103 l -4.057084456667232 5.197952604880473 a27.59383390533266,27.59383390533266 0 0,0 -0.3719156159098157,-0.2954722584706988 l 4.145957565294406 -5.127346432404643" fill="#ff2203" stroke="none" /><path d="M 85.70375840098266 115.38237550388516 l -4.491731119491958 4.83298314902995 a27.59798261354332,27.59798261354332 0 0,0 -0.3451905274134808,-0.32639918937581774 l 4.574257481296256 -4.754949322908201" fill="#ff2203" stroke="none" /><path d="M 85.44109423537348 115.13401014063109 l -4.573800938198115 4.754474745492247 a27.597324088430515,27.597324088430515 0 0,0 -0.3395128567879364,-0.3322847883510545 l 4.654963747361846 -4.675039854218622" fill="#ff2203" stroke="none" /><path d="M 83.95833913139862 113.55231037782056 l -3.83804302838805 3.242454181658571 a26.024349053152385,26.024349053152385 0 0,0 -0.28614887126379734,-0.3446847490512612 l 3.8932878995453835 -3.1759081754935483" fill="#ff0a01" stroke="none" /><path d="M 83.50135304334701 112.99209946851258 l -5.177573247752826 4.077155345953335 a27.590179090956603,27.590179090956603 0 0,0 -0.29060759650724716,-0.3756494927838527 l 5.246987661478141 -3.9874278590562295" fill="#ff2203" stroke="none" /><line stroke="#e1ed5e" stroke-width="0.3" x1="26.63291911575756" x2="22.317208475507996" y1="142.92168965132927" y2="145.44649492493687" /><path d="M 25.769776987707644 143.4266507060508 a86.0,86.0 0 0,1 -11.730757126820373,-40.83630448921669" fill="none" id="id93" stroke="none" /><text fill="#e1ed5e" style="font-size:6.75px; font-family:Arial;" text-anchor="middle"><textPath startOffset="21.46611528233685" xlink:href="#id93">September</textPath></text><path d="M 81.87401531095188 110.60418214915194 l -5.696957736537069 3.332871486466641 a27.60025452518249,27.60025452518249 0 0,0 -0.23637384200192327,-0.4121377175407946 l 5.753483574691369 -3.23431392306754" fill="#ff2203" stroke="none" /><path d="M 81.51974371655577 109.97397251340807 l -6.559272399586958 3.540102562324615 a28.453615268026688,28.453615268026688 0 0,0 -0.22891271102224736,-0.43301658124654663 l 6.619237618834092 -3.426670965991942" fill="#ff2f04" stroke="none" /><path d="M 80.87730276802145 108.67885076344099 l -6.81949810210561 3.095034429074628 a28.488978066584206,28.488978066584206 0 0,0 -0.19882446297871145,-0.44829667589170724 l 6.871763649815601 -2.977189416690225" fill="#ff2f04" stroke="none" /><path d="M 80.73074385275274 108.34839909993369 l -6.0469296471529335 2.619830347258402 a27.59005836135259,27.59005836135259 0 0,0 -0.18504917376397664,-0.4374015841357939 l 6.091129802109217 -2.515354237456449" fill="#ff2203" stroke="none" /><path d="M 80.20201598880116 107.00284435728193 l -6.228392447362079 2.203075973810012 a27.606543440009755,27.606543440009755 0 0,0 -0.15460869688139117,-0.4493652438641161 l 6.265391975186699 -2.095538026856599" fill="#ff2203" stroke="none" /><path d="M 79.76711848015287 105.62410040840567 l -7.196238251043635 2.000326372048307 a28.469079632759012,28.469079632759012 0 0,0 -0.12717805357753903,-0.47327684875922715 l 7.229604380962948 -1.876158590113541" fill="#ff2f04" stroke="none" /><path d="M 79.50377843672027 104.57218783832718 l -6.445206675596997 1.4377623449614119 a27.60362397867633,27.60362397867633 0 0,0 -0.09945974966836295,-0.4646428385949854 l 6.469000463989801 -1.3266056869502627" fill="#ff2203" stroke="none" /><path d="M 79.4281124754447 104.21870165774334 l -6.045653446718654 1.239789406167535 a27.171466873399417,27.171466873399417 0 0,0 -0.09001527483485029,-0.4589859470841066 l 6.066098654529171 -1.1355397320154734" fill="#ff1b02" stroke="none" /><path d="M 79.07016306316243 101.71520430193888 l -7.662002698416471 0.6279026458472227 a28.687688019372484,28.687688019372484 0 0,0 -0.03609654483027327,-0.492508675370658 l 7.671675801911079 -0.495920833979804" fill="#ff3204" stroke="none" /><path d="M 79.0235259727143 100.99374915477108 l -6.150015974203519 0.29135369310607634 a27.156913468406472,27.156913468406472 0 0,0 -0.018101850804866086,-0.4671283355076407 l 6.154119957859586 -0.18544811058443883" fill="#ff1b02" stroke="none" /><line stroke="#e1ed5e" stroke-width="0.3" x1="15.007084014347285" x2="10.007500721073583" y1="101.09737516637583" y2="101.16192664675087" /><path d="M 14.007167355692545 101.11028546245083 a86.0,86.0 0 0,1 10.666146001902534,-42.60595125391555" fill="none" id="id94" stroke="none" /><text fill="#e1ed5e" style="font-size:6.75px; font-family:Arial;" text-anchor="middle"><textPath startOffset="22.20632615414155" xlink:href="#id94">October</textPath></text><path d="M 79.00175016825051 100.2711162175752 l -10.994729851146882 0.1419570485344482 a31.995646243096807,31.995646243096807 0 0,0 -0.00237027207545183,-0.5507677550298894 l 10.995544420511836 0.047320184699116606" fill="#ff6309" stroke="none" /><path d="M 79.12142395522702 97.74499172005258 l -10.922880524412715 -1.179734957528084 a31.986404940680476,31.986404940680476 0 0,0 0.06383518760705612,-0.5469009039251382 l 10.90095498380207 1.367579599778084" fill="#ff6309" stroke="none" /><path d="M 79.21141760316559 97.0276538004421 l -5.43926317537898 -0.7777044590685921 a26.494579885367852,26.494579885367852 0 0,0 0.06843689593251494,-0.4509136365632902 l 5.425070386007163 0.8712172080239743" fill="#ff1101" stroke="none" /><path d="M 79.32604984820605 96.31383870115002 l -8.770828177749566 -1.5638369615048113 a29.90915332485497,29.90915332485497 0 0,0 0.09473265151769923,-0.5060656124216264 l 8.742609802322004 1.7145806513890105" fill="#ff4406" stroke="none" /><path d="M 79.46518482838121 95.60439243477599 l -10.748747431199922 -2.3008376325960334 a31.99224386334733,31.99224386334733 0 0,0 0.11990329354500252,-0.5375029542890614 l 10.70754975065288 2.485518756435054" fill="#ff6309" stroke="none" /><path d="M 79.54389044137918 95.25157060432595 l -11.408066640572663 -2.648128121755911 a32.71138621278375,32.71138621278375 0 0,0 0.13204060042117477,-0.5473935337174002 l 11.360793239890674 2.8441068871327078" fill="#ff6d0a" stroke="none" /><path d="M 79.81627453868168 94.20196356495316 l -22.282613494220982 -6.400969194471061 a44.18377171129423,44.18377171129423 0 0,0 0.21627767501350623,-0.7291808027540073 l 22.169129922095767 6.783579383971608" fill="#f5ff19" stroke="none" /><path d="M 80.38941819471856 92.48833698450439 l -25.789491750919908 -9.878440797796321 a48.616688385219774,48.616688385219774 0 0,0 0.306068561329425,-0.778911104089513 l 25.615629639708793 10.320900906781597" fill="#beff1f" stroke="none" /><path d="M 80.803312248108 91.48605970444005 l -15.058435556949208 -6.67858033288928 a37.473005696764865,37.473005696764865 0 0,0 0.2665895346436093,-0.587394701805271 l 14.941243705342247 6.936797043536622" fill="#ffb010" stroke="none" /><path d="M 81.26839172434947 90.50648371742162 l -29.372542800352395 -14.886533458974535 a53.929548265709656,53.929548265709656 0 0,0 0.426789628366537,-0.8244217175938389 l 29.111943738825747 15.38992789882871" fill="#80ff25" stroke="none" /><line stroke="#e1ed5e" stroke-width="0.3" x1="26.266209847984243" x2="21.928928074336255" y1="57.711370442889674" y2="55.22380399835377" /><path d="M 25.398753493254645 57.213857153982495 a86.0,86.0 0 0,1 29.58750427330803,-30.492523968695096" fill="none" id="id95" stroke="none" /><text fill="#e1ed5e" style="font-size:6.75px; font-family:Arial;" text-anchor="middle"><textPath startOffset="21.46611528233685" xlink:href="#id95">November</textPath></text><path d="M 82.15384107792192 88.93136811851018 l -9.68059529201138 -6.00414611058951 a32.39138690963572,32.39138690963572 0 0,0 0.297958193821971,-0.471298307811341 l 9.575809501943446 6.169892066115067" fill="#ff6909" stroke="none" /><path d="M 82.54541684631803 88.32363383020206 l -52.36374946104589 -35.02909850939381 a84.0,84.0 0 0,0 0.8143021373250385,-1.194887906918337 l 51.75302285805211 35.92526443958256" fill="#4dd2ff" stroke="none" /><path d="M 84.07557802195018 86.31012108654704 l -3.3374454683119903 -2.8691292157681696 a25.401186738906986,25.401186738906986 0 0,0 0.2878899580304022,-0.32910798884003256 l 3.287563646703745 2.9261527608111453" fill="#ff0000" stroke="none" /><path d="M 84.31358615837235 86.03803664274999 l -3.2868585902114993 -2.925525213112295 a25.40024285291197,25.40024285291197 0 0,0 0.29350145038837816,-0.3240916321482925 l 3.236013499207076 2.9816696325301435" fill="#ff0000" stroke="none" /><path d="M 85.31137513191541 84.99185889309783 l -5.3824530111899165 -5.499535526210403 a28.695173254821345,28.695173254821345 0 0,0 0.35597968858692747,-0.3424521783782829 l 5.286990078990561 5.591370791350999" fill="#ff3204" stroke="none" /><path d="M 85.83668400450813 84.49514656593479 l -3.1205658268696657 -3.416143210556561 a25.626874270483093,25.626874270483093 0 0,0 0.32825464766759327,-0.2947102637365111 l 3.061300191606101 3.469352483062351" fill="#ff0400" stroke="none" /><path d="M 86.10567301691215 84.25364557470407 l -7.269624869865906 -8.238620688802506 a31.987370777512588,31.987370777512588 0 0,0 0.4159975868725555,-0.36074900802758625 l 7.126733484346577 8.362534690249772" fill="#ff6309" stroke="none" /><path d="M 86.37877921826538 84.01681056812374 l -7.125103237717242 -8.360621752994378 a31.98485740666539,31.98485740666539 0 0,0 0.42211248389023276,-0.35350706595290404 l 6.980133216867898 8.482029976341094" fill="#ff6309" stroke="none" /><line stroke="#e1ed5e" stroke-width="0.3" x1="56.762969772571076" x2="54.21961505331055" y1="26.818313649435495" y2="22.513508569990535" /><path d="M 56.25429882871897 25.957352633546506 a86.0,86.0 0 0,1 42.265352541879196,-11.944610805530505" fill="none" id="id96" stroke="none" /><text fill="#e1ed5e" style="font-size:6.75px; font-family:Arial;" text-anchor="middle"><textPath startOffset="22.20632615414155" xlink:href="#id96">December</textPath></text></svg>