<?xml version="1.0" encoding="utf-8" ?>
<svg baseProfile="full" height="200mm" version="1.1" viewBox="0,0,200,200" width="200mm" xmlns="http://www.w3.org/2000/svg" xmlns:ev="http://www.w3.org/2001/xml-events" xmlns:xlink="http://www.w3.org/1999/xlink"><defs /><rect fill="#1a1a1a" height="200" width="200" x="0" y="0" /><text alignment-baseline="middle" fill="#e1ed5e" style="dominant-baseline: central; font-size:9.0px; font-family:Arial;" text-anchor="middle" x="100.0" y="100.0">2022</text><line stroke="#e1ed5e" stroke-width="0.3" x1="100.0" x2="100.0" y1="15.0" y2="10.0" /><path d="M 100.0 14.0 a86.0,86.0 0 0,1 42.46469731375804,11.215312516191453" fill="none" id="id85" stroke="none" /><text fill="#e1ed5e" style="font-size:6.75px; font-family:Arial;" text-anchor="middle"><textPath startOffset="22.20632615414155" xlink:href="#id85">January</textPath></text><line stroke="#e1ed5e" stroke-width="0.3" x1="143.23703022742887" x2="145.7803849466894" y1="26.81831364943548" y2="22.513508569990506" /><path d="M 143.74570117128098 25.957352633546492 a86.0,86.0 0 0,1 28.547481713284135,27.462654790039103" fill="none" id="id86" stroke="none" /><text fill="#e1ed5e" style="font-size:6.75px; font-family:Arial;" text-anchor="middle"><textPath startOffset="19.985693538727396" xlink:href="#id86">February</textPath></text><line stroke="#e1ed5e" stroke-width="0.3" x1="172.23445277983987" x2="176.4835382374775" y1="55.19839476539836" y2="52.563006222186495" /><path d="M 173.08426987136738 54.67131705675599 a86.0,86.0 0 0,1 12.851231095245387,41.99856678651699" fill="none" id="id87" stroke="none" /><text fill="#e1ed5e" style="font-size:6.75px; font-family:Arial;" text-anchor="middle"><textPath startOffset="22.20632615414155" xlink:href="#id87">March</textPath></text><line stroke="#e1ed5e" stroke-width="0.3" x1="184.98032266829074" x2="189.97916517819016" y1="98.17113171792111" y2="98.06355123074" /><path d="M 185.9800911702706 98.14961562048488 a86.0,86.0 0 0,1 -9.607161424134198,41.387399972396054" fill="none" id="id88" stroke="none" /><text fill="#e1ed5e" style="font-size:6.75px; font-family:Arial;" text-anchor="middle"><textPath startOffset="21.466115282336823" xlink:href="#id88">April</textPath></text><line stroke="#e1ed5e" stroke-width="0.3" x1="174.80103733775053" x2="179.2010983576182" y1="140.37084112569926" y2="142.7455964860345" /><path d="M 175.68104954172406 140.8457921977663 a86.0,86.0 0 0,1 -30.038265399797805,32.042727171017184" fill="none" id="id89" stroke="none" /><text fill="#e1ed5e" style="font-size:6.75px; font-family:Arial;" text-anchor="middle"><textPath startOffset="22.206326154141568" xlink:href="#id89">May</textPath></text><path d="M 117.55443506779139 111.5257021239791 l 1.965522701449846 1.2905017499762728 a23.35131330464626,23.35131330464626 0 0,0 -0.2235019742292958,0.3341051263267149 l -1.9430176218098292 -1.3241437905087945" fill="#ff0200" stroke="none" /><path d="M 115.32070863581623 114.36230785411682 l 1.7350200078292641 1.6264842624342797 a23.37818112924862,23.37818112924862 0 0,0 -0.2777477634487358,0.2912174195550746 l -1.706765693001564 -1.6561087985718614" fill="#ff0300" stroke="none" /><path d="M 115.07121518719521 114.62390073753431 l 1.7032644533973536 1.652711475940983 a23.373302555704605,23.373302555704605 0 0,0 -0.2826604432111711,0.2863335366438588 l -1.674563385130647 -1.6817855065655067" fill="#ff0300" stroke="none" /><path d="M 113.48314897796784 116.09983520530334 l 1.5223490172985579 1.817792590107264 a23.371058082611803,23.371058082611803 0 0,0 -0.3106457351606662,0.25564029138325356 l -1.4908331535932007 -1.843728000347696" fill="#ff0300" stroke="none" /><path d="M 112.92097659922987 116.55440617244103 l 1.444197865287 1.8503120001593565 a23.347203010400516,23.347203010400516 0 0,0 -0.3189353244625775,0.2445460066979844 l -1.4121338123309288 -1.8748973486847123" fill="#ff0200" stroke="none" /><path d="M 112.63410532772338 116.77436683061366 l 1.3428114199772574 1.7828576506805676 a23.231977578787827,23.231977578787827 0 0,0 -0.32150294529974643,0.2378401928828634 l -1.3119235042589465 -1.8057077923032" fill="#ff0000" stroke="none" /><path d="M 111.7513745106137 117.40417183066458 l 1.3265729745256565 1.964698169878564 a23.37061906586993,23.37061906586993 0 0,0 -0.33534089669794265,0.22224566075119945 l -1.2925573790877496 -1.9872418517210817" fill="#ff0300" stroke="none" /><line stroke="#e1ed5e" stroke-width="0.3" x1="143.8653032363475" x2="146.44561519142675" y1="172.8068346515853" y2="177.08958963109032" /><path d="M 144.38136562736335 173.6633856474863 a86.0,86.0 0 0,1 -40.68145358897372,12.25698825130547" fill="none" id="id90" stroke="none" /><text fill="#e1ed5e" style="font-size:6.75px; font-family:Arial;" text-anchor="middle"><textPath startOffset="21.466115282336833" xlink:href="#id90">June</textPath></text><path d="M 108.92500713936063 119.00905698771935 l 0.9957872136062809 2.120891960702688 a23.34302686364349,23.34302686364349 0 0,0 -0.36518720954132217,0.16763953659887992 l -0.9591320082975393 -2.1377185676356425" fill="#ff0200" stroke="none" /><path d="M 108.59647513512805 119.15986991738527 l 0.9550457585098707 2.128611112178493 a23.333044720475254,23.333044720475254 0 0,0 -0.3678613668683527,0.1612596127860307 l -0.9182637169837642 -2.144735278258978" fill="#ff0200" stroke="none" /><path d="M 106.91757812671514 119.82793768551818 l 0.7731560425651948 2.2161064974403306 a23.347104231633594,23.347104231633594 0 0,0 -0.38059144889321556,0.1291172833352437 l -0.7348948607347523 -2.229086767673697" fill="#ff0200" stroke="none" /><path d="M 106.57524785965236 119.94407469862006 l 0.7374034917364148 2.236695959776621 a23.3551162871727,23.3551162871727 0 0,0 -0.382888953361547,0.12258895163174141 l -0.6987931932839275 -2.249057758068069" fill="#ff0200" stroke="none" /><path d="M 105.88484417918355 120.15858648285463 l 0.7115836788825957 2.437536270082309 a23.539278322677305,23.539278322677305 0 0,0 -0.38993244065572996,0.11019880265918322 l -0.66952007012226 -2.4494238660800116" fill="#ff0500" stroke="none" /><path d="M 103.41894727170886 120.7198165907248 l 0.38422192694843066 2.328496821925911 a23.359983885298167,23.359983885298167 0 0,0 -0.3973023081195941,0.06205044959363164 l -0.3440837552203194 -2.3347655788666484" fill="#ff0200" stroke="none" /><path d="M 103.06178313531738 120.77559828337769 l 0.3500141231404701 2.3750058363037283 a23.40065878643229,23.40065878643229 0 0,0 -0.3990050885149564,0.05529846952552618 l -0.30908044343868324 -2.380678871321857" fill="#ff0300" stroke="none" /><path d="M 101.98527174616119 120.90594882070398 l 0.22347095322710014 2.353265904334471 a23.363852720335885,23.363852720335885 0 0,0 -0.40069639603231944,0.03457377109217245 l -0.18293023945323902 -2.3567639277053067" fill="#ff0200" stroke="none" /><path d="M 100.90346689309514 120.98055641714683 l 0.11848895664840466 2.7515831058891123 a23.754133116147802,23.754133116147802 0 0,0 -0.40866118373692256,0.014075117456077528 l -0.0711074212368298 -2.753215021771284" fill="#ff0801" stroke="none" /><line stroke="#e1ed5e" stroke-width="0.3" x1="102.19456741930631" x2="102.32365962044197" y1="184.97166512339345" y2="189.96999836594603" /><path d="M 102.22038585953345 185.97133177190398 a86.0,86.0 0 0,1 -42.740103519485714,-10.115201625700543" fill="none" id="id91" stroke="none" /><text fill="#e1ed5e" style="font-size:6.75px; font-family:Arial;" text-anchor="middle"><textPath startOffset="22.20632615414155" xlink:href="#id91">July</textPath></text><path d="M 100.54218724476979 120.99299961872073 l 0.07154338319363109 2.7700950743383483 a23.771018797581924,23.771018797581924 0 0,0 -0.4091335431316776,0.007043604979308397 l -0.023850150169285513 -2.7709161565968166" fill="#ff0801" stroke="none" /><path d="M 99.09653310690486 120.98055641714683 l -0.11833832899092561 2.7480851890425075 a23.750631957631402,23.750631957631402 0 0,0 -0.40829816759165866,-0.021104351516629767 l 0.16562456499607317 -2.745641030763676" fill="#ff0801" stroke="none" /><path d="M 96.93821686468263 120.77559828337769 l -0.40107673521062925 2.7214890027412015 a23.750884392257973,23.750884392257973 0 0,0 -0.4039506720235604,-0.06308878730492176 l 0.4478632708427068 -2.714181908089174" fill="#ff0801" stroke="none" /><path d="M 96.58105272829116 120.7198165907248 l -0.44771853395885014 2.7133047604033242 a23.74999538335569,23.74999538335569 0 0,0 -0.40278977539600924,-0.07003016544080595 l 0.49435728082690933 -2.705196016441512" fill="#ff0801" stroke="none" /><path d="M 96.22490169976321 120.6578951692458 l -0.5149821776483201 2.818058496442758 a23.86472692113378,23.86472692113378 0 0,0 -0.4034643298288197,-0.07732489906488946 l 0.5634141220488348 -2.808776399029401" fill="#ff0a01" stroke="none" /><path d="M 95.86986931433489 120.58985236759428 l -0.6138015581190144 3.059971808769691 a24.12092611626975,24.12092611626975 0 0,0 -0.40638998181748276,-0.08516297194563717 l 0.6663830013658839 -3.048952856097513" fill="#ff0e01" stroke="none" /><path d="M 94.46302465271185 120.25689768951611 l -0.870242540482671 3.1837624338089086 a24.300555303914564,24.300555303914564 0 0,0 -0.4025431327610471,-0.11376271021294454 l 0.9249168413483321 -3.168310930257443" fill="#ff1001" stroke="none" /><path d="M 93.76903079525671 120.05430185196036 l -0.9787829956222904 3.150201677587025 a24.298755335272904,24.298755335272904 0 0,0 -0.3983591810853377,-0.1275420300152095 l 1.0328635217985684 -3.132886800912109" fill="#ff1001" stroke="none" /><path d="M 93.42475214034765 119.94407469862007 l -1.0341934398775319 3.1369207150817404 a24.303002822250484,24.303002822250484 0 0,0 -0.3961739736461125,-0.13440372177060272 l 1.0880371464608702 -3.118654006413015" fill="#ff1001" stroke="none" /><path d="M 92.06813273071674 119.44442032107085 l -1.246121621754397 3.0547803892785574 a24.299166913468408,24.299166913468408 0 0,0 -0.38592693695603203,-0.16131749094722328 l 1.2985200182078913 -3.032877855311361" fill="#ff1001" stroke="none" /><path d="M 91.7346041902142 119.30500536409082 l -1.2979908405001686 3.0316418856468412 a24.297822424696434,24.297822424696434 0 0,0 -0.38307174550735484,-0.16792739578954255 l 1.3499832606652669 -3.0088499365628465" fill="#ff1001" stroke="none" /><path d="M 91.40352486487194 119.15986991738527 l -1.3507560313782727 3.0105722920753584 a24.29971019668647,24.29971019668647 0 0,0 -0.38015392824706096,-0.17451002308548821 l 1.4023779553927531 -2.9868751986557958" fill="#ff1001" stroke="none" /><line stroke="#e1ed5e" stroke-width="0.3" x1="58.666819895761336" x2="56.23545636021788" y1="174.27360380694188" y2="178.64263932499728" /><path d="M 58.180547188652646 175.14741091055294 a86.0,86.0 0 0,1 -31.652253787137756,-30.449443065178592" fill="none" id="id92" stroke="none" /><text fill="#e1ed5e" style="font-size:6.75px; font-family:Arial;" text-anchor="middle"><textPath startOffset="22.20632615414155" xlink:href="#id92">August</textPath></text><path d="M 87.65650970185807 116.9893568818739 l -1.6167163872885162 2.225219205993386 a23.750522203445932,23.750522203445932 0 0,0 -0.32867898632042786,-0.24314885647505477 l 1.6547803440275082 -2.1970604007785646" fill="#ff0801" stroke="none" /><path d="M 87.36589467227662 116.77436683061367 l -1.9848945206555486 2.6353546963464307 a24.299227278270415,24.299227278270415 0 0,0 -0.3319404869496755,-0.2545178107245125 l 2.029963736098711 -2.6007975437945516" fill="#ff1001" stroke="none" /><path d="M 87.07902340077011 116.55440617244103 l -2.028542228333616 2.5989763024402364 a24.29691695266633,24.29691695266633 0 0,0 -0.3274790615962288,-0.2601691722327841 l 2.072978782647203 -2.5636732162023215" fill="#ff1001" stroke="none" /><path d="M 85.70375840098266 115.38237550388516 l -2.2458655597459805 2.416491574514976 a24.29899130677166,24.29899130677166 0 0,0 -0.30392734651133196,-0.2873822763149435 l 2.2871287406481295 -2.3774746614541016" fill="#ff1001" stroke="none" /><path d="M 85.44109423537348 115.13401014063109 l -2.2869004690990566 2.377237372746122 a24.298662044215256,24.298662044215256 0 0,0 -0.2989314522060711,-0.2925673427142424 l 2.327481873680922 -2.33751992710931" fill="#ff1001" stroke="none" /><path d="M 83.95833913139862 113.55231037782056 l -1.919021514194025 1.6212270908292854 a23.512174526576192,23.512174526576192 0 0,0 -0.2585264356851305,-0.31141174596875004 l 1.9466439497726917 -1.5879540877467742" fill="#ff0500" stroke="none" /><path d="M 83.50135304334701 112.99209946851258 l -2.588786623876413 2.0385776729766674 a24.2950895454783,24.2950895454783 0 0,0 -0.2559003896445894,-0.33078574933530003 l 2.6234938307390707 -1.9937139295281148" fill="#ff1001" stroke="none" /><line stroke="#e1ed5e" stroke-width="0.3" x1="26.63291911575756" x2="22.317208475507996" y1="142.92168965132927" y2="145.44649492493687" /><path d="M 25.769776987707644 143.4266507060508 a86.0,86.0 0 0,1 -11.730757126820373,-40.83630448921669" fill="none" id="id93" stroke="none" /><text fill="#e1ed5e" style="font-size:6.75px; font-family:Arial;" text-anchor="middle"><textPath startOffset="21.46611528233685" xlink:href="#id93">September</textPath></text><path d="M 81.87401531095188 110.60418214915194 l -2.848478868268533 1.6664357432333197 a24.300127262591243,24.300127262591243 0 0,0 -0.208110922924773,-0.3628589358412438 l 2.8767417873456833 -1.617156961533769" fill="#ff1001" stroke="none" /><path d="M 81.51974371655577 109.97397251340807 l -3.279636199793479 1.7700512811623075 a24.726807634013344,24.726807634013344 0 0,0 -0.19893010139868064,-0.3763007830802102 l 3.309618809417046 -1.713335482995971" fill="#ff1702" stroke="none" /><path d="M 80.87730276802145 108.67885076344099 l -3.4097490510528066 1.5475172145373148 a24.744489033292105,24.744489033292105 0 0,0 -0.1726916891237158,-0.3893741696995057 l 3.4358818249078023 -1.4885947083451132" fill="#ff1702" stroke="none" /><path d="M 80.73074385275274 108.34839909993369 l -3.0234648235764667 1.309915173629201 a24.295029180676295,24.295029180676295 0 0,0 -0.16294909628583504,-0.38516352923481756 l 3.0455649010546084 -1.2576771187282245" fill="#ff1001" stroke="none" /><path d="M 80.20201598880116 107.00284435728193 l -3.1141962236810414 1.1015379869050066 a24.30327172000488,24.30327172000488 0 0,0 -0.1361089329690814,-0.39559627038740963 l 3.132695987593351 -1.0477690134283" fill="#ff1001" stroke="none" /><path d="M 79.76711848015287 105.62410040840567 l -3.5981191255218175 1.0001631860241535 a24.734539816379506,24.734539816379506 0 0,0 -0.11049498861788207,-0.4111929577918441 l 3.614802190481474 -0.9380792950567705" fill="#ff1702" stroke="none" /><path d="M 79.50377843672027 104.57218783832718 l -3.2226033377984984 0.7188811724807059 a24.301811989338166,24.301811989338166 0 0,0 -0.0875628554719611,-0.4090645095894108 l 3.2345002319949003 -0.6633028434751314" fill="#ff1001" stroke="none" /><path d="M 79.4281124754447 104.21870165774334 l -3.022826723359327 0.6198947030837675 a24.08573343669971,24.08573343669971 0 0,0 -0.07979267092959193,-0.4068611100080759 l 3.0330493272645853 -0.5677698660077367" fill="#ff0d01" stroke="none" /><path d="M 79.07016306316243 101.71520430193888 l -3.831001349208237 0.3139513229236115 a24.843844009686244,24.843844009686244 0 0,0 -0.031259993082968965,-0.42651776943694875 l 3.8358379009555414 -0.24796041698990212" fill="#ff1802" stroke="none" /><path d="M 79.0235259727143 100.99374915477108 l -3.0750079871017597 0.14567684655303817 a24.078456734203236,24.078456734203236 0 0,0 -0.01604985897683261,-0.41417554424682196 l 3.077059978929793 -0.09272405529221942" fill="#ff0d01" stroke="none" /><line stroke="#e1ed5e" stroke-width="0.3" x1="15.007084014347285" x2="10.007500721073583" y1="101.09737516637583" y2="101.16192664675087" /><path d="M 14.007167355692545 101.11028546245083 a86.0,86.0 0 0,1 10.666146001902534,-42.60595125391555" fill="none" id="id94" stroke="none" /><text fill="#e1ed5e" style="font-size:6.75px; font-family:Arial;" text-anchor="middle"><textPath startOffset="22.20632615414155" xlink:href="#id94">October</textPath></text><path d="M 79.00175016825051 100.2711162175752 l -5.497364925573441 0.0709785242672241 a26.497823121548404,26.497823121548404 0 0,0 -0.0019629873929744085,-0.45612913841310704 l 5.497772210255918 0.023660092349558303" fill="#ff3004" stroke="none" /><path d="M 79.12142395522702 97.74499172005258 l -5.461440262206356 -0.5898674787640418 a26.493202470340236,26.493202470340236 0 0,0 0.052872417301733594,-0.4529785828001382 l 5.450477491901033 0.6837897998890418" fill="#ff3004" stroke="none" /><path d="M 79.21141760316559 97.0276538004421 l -2.7196315876894883 -0.38885222953429577 a23.747289942683924,23.747289942683924 0 0,0 0.06134050124660635,-0.40415726208559904 l 2.7125351930035797 0.43560860401198687" fill="#ff0801" stroke="none" /><path d="M 79.32604984820605 96.31383870115002 l -4.385414088874783 -0.7819184807524057 a25.454576662427485,25.454576662427485 0 0,0 0.0806234638039188,-0.43069376747952687 l 4.371304901161002 0.8572903256945053" fill="#ff2103" stroke="none" /><path d="M 79.46518482838121 95.60439243477599 l -5.374373715599959 -1.1504188162980162 a26.496121931673663,26.496121931673663 0 0,0 0.09930445327148246,-0.4451623923695511 l 5.3537748753264385 1.2427593782175266" fill="#ff3004" stroke="none" /><path d="M 79.54389044137918 95.25157060432595 l -5.704033320286332 -1.3240640608779555 a26.855693106391875,26.855693106391875 0 0,0 0.10840390008018,-0.44940415102900166 l 5.680396619945337 1.4220534435663539" fill="#ff3605" stroke="none" /><path d="M 79.81627453868168 94.20196356495316 l -11.141306747110491 -3.2004845972355307 a32.591885855647114,32.591885855647114 0 0,0 0.15953588895089962,-0.5378757080037341 l 11.084564961047883 3.391789691985804" fill="#ff860c" stroke="none" /><path d="M 80.38941819471856 92.48833698450439 l -12.894745875459954 -4.9392203988981604 a34.80834419260989,34.80834419260989 0 0,0 0.21913750572386695,-0.5576810495968748 l 12.807814819854396 5.160450453390799" fill="#ffa40f" stroke="none" /><path d="M 80.803312248108 91.48605970444005 l -7.529217778474604 -3.33929016644464 a29.236502848382433,29.236502848382433 0 0,0 0.20799360884012882,-0.4582863464816 l 7.470621852671123 3.468398521768311" fill="#ff5808" stroke="none" /><path d="M 81.26839172434947 90.50648371742162 l -14.686271400176198 -7.443266729487267 a37.46477413285483,37.46477413285483 0 0,0 0.2964900976032115,-0.5727244976667517 l 14.555971869412874 7.694963949414355" fill="#ffc712" stroke="none" /><line stroke="#e1ed5e" stroke-width="0.3" x1="26.266209847984243" x2="21.928928074336255" y1="57.711370442889674" y2="55.22380399835377" /><path d="M 25.398753493254645 57.213857153982495 a86.0,86.0 0 0,1 29.58750427330803,-30.492523968695096" fill="none" id="id95" stroke="none" /><text fill="#e1ed5e" style="font-size:6.75px; font-family:Arial;" text-anchor="middle"><textPath startOffset="21.46611528233685" xlink:href="#id95">November</textPath></text><path d="M 82.15384107792192 88.93136811851018 l -4.84029764600569 -3.002073055294755 a26.69569345481786,26.69569345481786 0 0,0 0.24556529878800415,-0.3884253300485627 l 4.787904750971723 3.0849460330575336" fill="#ff3304" stroke="none" /><path d="M 82.54541684631803 88.32363383020206 l -52.36374946104589 -35.02909850939381 a84.0,84.0 0 0,0 0.8143021373250385,-1.194887906918337 l 51.75302285805211 35.92526443958256" fill="#4dd2ff" stroke="none" /><path d="M 84.07557802195018 86.31012108654704 l -1.6687227341559951 -1.4345646078840848 a23.200593369453493,23.200593369453493 0 0,0 0.2629490472262793,-0.3005962163185447 l 1.6437818233518724 1.4630763804055726" fill="#ff0000" stroke="none" /><path d="M 84.31358615837235 86.03803664274999 l -1.643429295105751 -1.4627626065561488 a23.200121426455986,23.200121426455986 0 0,0 0.26807890488616665,-0.29601942243936824 l 1.6180067496035393 1.490834816265073" fill="#ff0000" stroke="none" /><path d="M 85.31137513191541 84.99185889309783 l -2.691226505594957 -2.7497677631052 a24.84758662741067,24.84758662741067 0 0,0 0.3082482224872499,-0.29653454580798466 l 2.643495039495279 2.795685395675499" fill="#ff1802" stroke="none" /><path d="M 85.83668400450813 84.49514656593479 l -1.5602829134348328 -1.7080716052782805 a23.313437135241546,23.313437135241546 0 0,0 0.29862183003581094,-0.26810562748361616 l 1.5306500958030504 1.7346762415311754" fill="#ff0200" stroke="none" /><path d="M 86.10567301691215 84.25364557470407 l -3.634812434932953 -4.119310344401253 a26.493685388756294,26.493685388756294 0 0,0 0.344551894112891,-0.29879200730395283 l 3.5633667421732884 4.181267345124886" fill="#ff3004" stroke="none" /><path d="M 86.37877921826538 84.01681056812374 l -3.562551618858621 -4.180310876497189 a26.492428703332696,26.492428703332696 0 0,0 0.3496274734655612,-0.29280295427954584 l 3.490066608433949 4.241014988170547" fill="#ff3004" stroke="none" /><line stroke="#e1ed5e" stroke-width="0.3" x1="56.762969772571076" x2="54.21961505331055" y1="26.818313649435495" y2="22.513508569990535" /><path d="M 56.25429882871897 25.957352633546506 a86.0,86.0 0 0,1 42.265352541879196,-11.944610805530505" fill="none" id="id96" stroke="none" /><text fill="#e1ed5e" style="font-size:6.75px; font-family:Arial;" text-anchor="middle"><textPath startOffset="22.20632615414155" xlink:href="#id96">December</textPath></text></svg>