<?xml version="1.0" encoding="utf-8" ?>
<svg baseProfile="full" height="200mm" version="1.1" viewBox="0,0,200,200" width="200mm" xmlns="http://www.w3.org/2000/svg" xmlns:ev="http://www.w3.org/2001/xml-events" xmlns:xlink="http://www.w3.org/1999/xlink"><defs /><rect fill="#1a1a1a" height="200" width="200" x="0" y="0" /><text alignment-baseline="middle" fill="#e1ed5e" style="dominant-baseline: central; font-size:9.0px; font-family:Arial;" text-anchor="middle" x="100.0" y="100.0">2023</text><line stroke="#e1ed5e" stroke-width="0.3" x1="100.0" x2="100.0" y1="15.0" y2="10.0" /><path d="M 100.0 14.0 a86.0,86.0 0 0,1 42.46469731375804,11.215312516191453" fill="none" id="id85" stroke="none" /><text fill="#e1ed5e" style="font-size:6.75px; font-family:Arial;" text-anchor="middle"><textPath startOffset="22.20632615414155" xlink:href="#id85">January</textPath></text><line stroke="#e1ed5e" stroke-width="0.3" x1="143.23703022742887" x2="145.7803849466894" y1="26.81831364943548" y2="22.513508569990506" /><path d="M 143.74570117128098 25.957352633546492 a86.0,86.0 0 0,1 28.547481713284135,27.462654790039103" fill="none" id="id86" stroke="none" /><text fill="#e1ed5e" style="font-size:6.75px; font-family:Arial;" text-anchor="middle"><textPath startOffset="19.985693538727396" xlink:href="#id86">February</textPath></text><line stroke="#e1ed5e" stroke-width="0.3" x1="172.23445277983987" x2="176.4835382374775" y1="55.19839476539836" y2="52.563006222186495" /><path d="M 173.08426987136738 54.67131705675599 a86.0,86.0 0 0,1 12.851231095245387,41.99856678651699" fill="none" id="id87" stroke="none" /><text fill="#e1ed5e" style="font-size:6.75px; font-family:Arial;" text-anchor="middle"><textPath startOffset="22.20632615414155" xlink:href="#id87">March</textPath></text><path d="M 118.73160827565052 90.50648371742162 l 6.0450163588906 -3.063723113737154 a27.77706589143873,27.77706589143873 0 0,0 0.21248130976157367,0.42834935469406205 l -6.096857681605582 2.959214170544142" fill="#ff2303" stroke="none" /><path d="M 119.196687751892 91.48605970444005 l 6.137492339943728 -2.7220447622057753 a27.71404050556145,27.71404050556145 0 0,0 0.1896554804021633,0.4377509972693463 l -6.183438530188573 2.6159946203498263" fill="#ff2203" stroke="none" /><path d="M 119.85752413597 93.16781622104841 l 5.613537363978684 -1.9313948032041683 a26.936504663741857,26.936504663741857 0 0,0 0.1470767867178085,0.4397408719994875 l -5.645951444468262 1.8344808282823668" fill="#ff1602" stroke="none" /><path d="M 120.53481517161879 95.60439243477599 l 5.792832751959988 -1.2399926298720856 a26.92406051744219,26.92406051744219 0 0,0 0.09310686817161355,0.4540221554359908 l -5.813318916046598 1.140094818272683" fill="#ff1602" stroke="none" /><path d="M 120.87857604477298 97.74499172005257 l 7.207646159210997 -0.7784679248765697 a28.24956381215109,28.24956381215109 0 0,0 0.048055029409206404,0.4839075881027262 l -7.219978314302431 0.6542848060694085" fill="#ff2a04" stroke="none" /><path d="M 120.91429891909075 98.10471618934814 l 8.668460649070411 -0.7855483559364828 a29.703981631644034,29.703981631644034 0 0,0 0.04176311382335889,0.5096157707332104 l -8.680698246713265 0.6362186679955035" fill="#ff4006" stroke="none" /><path d="M 120.96714384426684 98.82574320788733 l 8.678916716490841 -0.4860593783404696 a29.69251684445057,29.69251684445057 0 0,0 0.024187229794032213,0.510554192806695 l -8.68599755451837 0.3365940789107748" fill="#ff3f05" stroke="none" /><line stroke="#e1ed5e" stroke-width="0.3" x1="184.98032266829074" x2="189.97916517819016" y1="98.17113171792111" y2="98.06355123074" /><path d="M 185.9800911702706 98.14961562048488 a86.0,86.0 0 0,1 -9.607161424134198,41.387399972396054" fill="none" id="id88" stroke="none" /><text fill="#e1ed5e" style="font-size:6.75px; font-family:Arial;" text-anchor="middle"><textPath startOffset="21.466115282336823" xlink:href="#id88">April</textPath></text><path d="M 120.99513854157772 99.54816195383933 l 14.832385439133276 -0.31920894655912535 a35.8358199020673,35.8358199020673 0 0,0 0.007964072210179784,0.6168261693939328 l -14.835682518461171 0.06384651910472981" fill="#ff980e" stroke="none" /><path d="M 120.95626037817324 101.35467743843564 l 11.555263013034583 0.7469679139533735 a32.57938100093787,32.57938100093787 0 0,0 -0.0409933029824035,0.5593210498640402 l -11.540693151387842 -0.945762100314184" fill="#ff6a09" stroke="none" /><path d="M 120.8583938346157 102.4346265915055 l 11.525969740075206 1.3453304527937993 a32.60421873614694,32.60421873614694 0 0,0 -0.06986383977677377,0.5568835426660085 l -11.501104391051584 -1.5435317497472028" fill="#ff6a09" stroke="none" /><path d="M 120.49622156327973 104.57218783832717 l 21.686568262937705 4.8377240341945855 a43.21960433612806,43.21960433612806 0 0,0 -0.16822599995907297,0.7247132049402171 l -21.60008169704808 -5.2103058964833675" fill="#fffb17" stroke="none" /><path d="M 120.32669344350535 105.2749913415812 l 14.000289137463636 3.6332226972877684 a35.46403827085193,35.46403827085193 0 0,0 -0.15842617385130725,0.5895627288839886 l -13.935674887270551 -3.873676359347305" fill="#ff930d" stroke="none" /><line stroke="#e1ed5e" stroke-width="0.3" x1="174.80103733775053" x2="179.2010983576182" y1="140.37084112569926" y2="142.7455964860345" /><path d="M 175.68104954172406 140.8457921977663 a86.0,86.0 0 0,1 -30.038265399797805,32.042727171017184" fill="none" id="id89" stroke="none" /><text fill="#e1ed5e" style="font-size:6.75px; font-family:Arial;" text-anchor="middle"><textPath startOffset="22.206326154141568" xlink:href="#id89">May</textPath></text><path d="M 117.94076556474637 110.91462005526583 l 12.3612154733622 7.520190251977616 a35.46903277364552,35.46903277364552 0 0,0 -0.32181452095978014,0.518867475761393 l -12.229936312734457 -7.731854059104282" fill="#ff930d" stroke="none" /><path d="M 117.75023020441432 111.22182372390056 l 4.983818752101156 3.150806207236709 a26.89627247584069,26.89627247584069 0 0,0 -0.25076949257406234,0.3891998213350062 l -4.928844396150043 -3.236127628493168" fill="#ff1502" stroke="none" /><path d="M 117.35343817320211 111.8261652097733 l 15.422762517076995 10.510432324570068 a39.66362213793246,39.66362213793246 0 0,0 -0.389343956484629,0.5608790079605434 l -15.23955765343023 -10.774352594717632" fill="#ffcd13" stroke="none" /><path d="M 116.93607887273984 112.41649034213515 l 11.700069609654545 8.577770710811693 a35.50757661492852,35.50757661492852 0 0,0 -0.3656244471399578,0.48981369643719175 l -11.550683895819494 -8.777897286758199" fill="#ff930d" stroke="none" /><path d="M 116.498646956653 112.99209946851258 l 11.409503100339718 8.984579132784086 a35.52237663710458,35.52237663710458 0 0,0 -0.3824272894709752,0.4771368444989255 l -11.253157898813889 -9.179643810861261" fill="#ff940d" stroke="none" /><path d="M 116.0416608686014 113.55231037782055 l 24.077434318843373 20.34108972028174 a52.51956177339349,52.51956177339349 0 0,0 -0.589363244093351,0.6855626011470453 l -23.723728565179243 -20.752529420590314" fill="#91ff24" stroke="none" /><path d="M 115.32070863581623 114.36230785411682 l 8.511605807928262 7.979154610418681 a32.66680512079137,32.66680512079137 0 0,0 -0.38810256500083534,0.4069239877897684 l -8.372996691548462 -8.124485714790957" fill="#ff6b09" stroke="none" /><path d="M 114.81725581225074 114.88116024355365 l 7.718969666811771 7.752260336356276 a31.93983697501032,31.93983697501032 0 0,0 -0.39293611445729926,0.3845706900857709 l -7.584383599978676 -7.883981129364619" fill="#ff6008" stroke="none" /><path d="M 114.29624159901734 115.38237550388516 l 26.223070558297938 28.215326063064044 a59.51952822076736,59.51952822076736 0 0,0 -0.7564661379829769,0.6910138814084329 l -25.733504870848098 -28.662532711059058" fill="#44ff2d" stroke="none" /><path d="M 113.75828350139079 115.86535959552629 l 5.71266855078833 6.587561653250492 a29.719549902749705,29.719549902749705 0 0,0 -0.3893749618494144,0.3318337897974666 l -5.598428112361868 -6.684919833270905" fill="#ff4006" stroke="none" /><path d="M 113.48314897796784 116.09983520530334 l 9.33159077793792 11.142580562865843 a35.533949499253524,35.533949499253524 0 0,0 -0.47231365504886064,0.3886819831552884 l -9.138406994344368 -11.30155766487831" fill="#ff940d" stroke="none" /><path d="M 112.04921762599082 117.19931262002967 l 26.33444137803331 37.59034851836653 a66.89702718505126,66.89702718505126 0 0,0 -0.9488009041077778,0.6525939134738781 l -25.68348358930265 -38.038083221205504" fill="#36ff73" stroke="none" /><path d="M 111.1453310114006 117.79835938074945 l 7.696110042106091 12.29018072438437 a35.50098796697092,35.50098796697092 0 0,0 -0.5207163198466601,0.31986649344466034 l -7.483414522327123 -12.420835684657408" fill="#ff930d" stroke="none" /><line stroke="#e1ed5e" stroke-width="0.3" x1="143.8653032363475" x2="146.44561519142675" y1="172.8068346515853" y2="177.08958963109032" /><path d="M 144.38136562736335 173.6633856474863 a86.0,86.0 0 0,1 -40.68145358897372,12.25698825130547" fill="none" id="id90" stroke="none" /><text fill="#e1ed5e" style="font-size:6.75px; font-family:Arial;" text-anchor="middle"><textPath startOffset="21.466115282336833" xlink:href="#id90">June</textPath></text><path d="M 110.8373102113329 117.98757091392108 l 7.49201001403917 12.435102325889916 a35.51764388273166,35.51764388273166 0 0,0 -0.5263919962703969,0.3110016698056606 l -7.276850146740392 -12.562222567989327" fill="#ff940d" stroke="none" /><path d="M 109.89434966115114 118.52300852407294 l 14.375474849212779 26.91203083463545 a51.51084529777434,51.51084529777434 0 0,0 -0.7856853508298764,0.41103344177127854 l -13.910098595856407 -27.155493695351446" fill="#9dff22" stroke="none" /><path d="M 108.92500713936063 119.00905698771935 l 3.702789418226851 7.886440197250167 a29.7124387206187,29.7124387206187 0 0,0 -0.4648327163582187,0.21338190147503777 l -3.5664887061012127 -7.949009169059279" fill="#ff4006" stroke="none" /><path d="M 107.59598834532513 119.57807347666477 l 22.711412517143874 58.53691222329738 a83.78836159004231,83.78836159004231 0 0,0 -1.3491114384428227,0.5101185071421555 l -21.700430857940777 -58.919178980546164" fill="#4dd4ff" stroke="none" /><path d="M 106.2309692047433 120.05430185196036 l 3.454297101299405 11.117615009728453 a32.64188695910525,32.64188695910525 0 0,0 -0.5380082837161386,0.1620974825344248 l -3.2624138431430203 -11.175427861368604" fill="#ff6b09" stroke="none" /><path d="M 105.18746579009965 120.34920634021253 l 2.8637731302006197 11.233907402190157 a32.59318213702527,32.59318213702527 0 0,0 -0.5448442632842366,0.1339094639201989 l -2.669975582173172 -11.281538124424387" fill="#ff6a09" stroke="none" /><path d="M 104.83641907484287 120.43548508189849 l 2.670521566651337 11.283845091104864 a32.59555283192661,32.59555283192661 0 0,0 -0.5471083615549792,0.12452008185801484 l -2.4758930557034953 -11.328141906540562" fill="#ff6a09" stroke="none" /><path d="M 104.48393922423573 120.51570834832081 l 2.4782995632102316 11.33915258346486 a32.60682342573134,32.60682342573134 0 0,0 -0.5493605973184917,0.11512385450112825 l -2.282747504462362 -11.380132418692531" fill="#ff6a09" stroke="none" /><path d="M 102.70371172650421 120.8252237178851 l 1.8671060240465456 14.381304143712946 a35.501999647600535,35.501999647600535 0 0,0 -0.6066997190649235,0.0734628868513933 l -1.6192788819302417 -14.41131255928969" fill="#ff930d" stroke="none" /><path d="M 102.34483914955558 120.86867818915974 l 1.6178726312295413 14.398797162089947 a35.489405493873484,35.489405493873484 0 0,0 -0.6076587324496642,0.06298631218506391 l -1.3697813021742744 -14.424512842730769" fill="#ff930d" stroke="none" /><line stroke="#e1ed5e" stroke-width="0.3" x1="102.19456741930631" x2="102.32365962044197" y1="184.97166512339345" y2="189.96999836594603" /><path d="M 102.22038585953345 185.97133177190398 a86.0,86.0 0 0,1 -42.740103519485714,-10.115201625700543" fill="none" id="id91" stroke="none" /><text fill="#e1ed5e" style="font-size:6.75px; font-family:Arial;" text-anchor="middle"><textPath startOffset="22.20632615414155" xlink:href="#id91">July</textPath></text><path d="M 96.22490169976321 120.6578951692458 l -2.6128896659248086 14.298117960026275 a35.53490177487012,35.53490177487012 0 0,0 -0.6007638544329832,-0.11513782253210264 l 2.858621134929487 -14.251022939145704" fill="#ff940d" stroke="none" /><path d="M 94.46302465271185 120.25689768951611 l -3.827540193804772 14.002968271547006 a35.51665196762474,35.51665196762474 0 0,0 -0.588339820610123,-0.16627071007204608 l 4.068011182519509 -13.935008768136438" fill="#ff940d" stroke="none" /><path d="M 92.06813273071674 119.44442032107085 l -5.472214257706738 13.414752226863907 a35.4879503792082,35.4879503792082 0 0,0 -0.5636306807335139,-0.2355976702584113 l 5.702316397937714 -13.318569513585523" fill="#ff930d" stroke="none" /><path d="M 91.7346041902142 119.30500536409082 l -4.563384795445539 10.658433060179087 a32.59425185553695,32.59425185553695 0 0,0 -0.5138706149698463,-0.2252657763374517 l 4.746176085073128 -10.578302730547184" fill="#ff6a09" stroke="none" /><line stroke="#e1ed5e" stroke-width="0.3" x1="58.666819895761336" x2="56.23545636021788" y1="174.27360380694188" y2="178.64263932499728" /><path d="M 58.180547188652646 175.14741091055294 a86.0,86.0 0 0,1 -31.652253787137756,-30.449443065178592" fill="none" id="id92" stroke="none" /><text fill="#e1ed5e" style="font-size:6.75px; font-family:Arial;" text-anchor="middle"><textPath startOffset="22.20632615414155" xlink:href="#id92">August</textPath></text><path d="M 85.97065885151581 115.62618273729859 l -5.796711284033699 6.456502043893781 a29.6768819487906,29.6768819487906 0 0,0 -0.3771796744071991,-0.3445446897272105 l 5.906990507907753 -6.355764587579994" fill="#ff3f05" stroke="none" /><path d="M 82.6465618267979 111.8261652097733 l -8.453355673006405 5.760863050201033 a31.22970015286475,31.22970015286475 0 0,0 -0.2989082261752311,-0.446827241731271 l 8.551267004592367 -5.614498894263941" fill="#ff5608" stroke="none" /><line stroke="#e1ed5e" stroke-width="0.3" x1="26.63291911575756" x2="22.317208475507996" y1="142.92168965132927" y2="145.44649492493687" /><path d="M 25.769776987707644 143.4266507060508 a86.0,86.0 0 0,1 -11.730757126820373,-40.83630448921669" fill="none" id="id93" stroke="none" /><text fill="#e1ed5e" style="font-size:6.75px; font-family:Arial;" text-anchor="middle"><textPath startOffset="21.46611528233685" xlink:href="#id93">September</textPath></text><path d="M 81.87401531095188 110.60418214915194 l -10.389563740107302 6.078170551301935 a33.036909568509124,33.036909568509124 0 0,0 -0.2829343923424188,-0.49331996165991737 l 10.492650128602099 -5.8984307437837105" fill="#ff700a" stroke="none" /><path d="M 80.32549172779594 107.34259656027581 l -13.834483428658514 5.163078488725095 a35.76652671478851,35.76652671478851 0 0,0 -0.2102999198754712,-0.5786550592756649 l 13.921307609539209 -4.924175632443313" fill="#ff970d" stroke="none" /><path d="M 79.97269907076064 106.31721596034903 l -4.3129731586489255 1.3604420770746748 a25.52244846430574,25.52244846430574 0 0,0 -0.12855198798169404,-0.42011533469242396 l 4.33575191913675 -1.285999769830203" fill="#ff0000" stroke="none" /><path d="M 79.67330655649465 105.27499134158121 l -14.330837734811022 3.7190035447150933 a35.80553604389544,35.80553604389544 0 0,0 -0.14968195001211856,-0.597904985049875 l 14.392730999118198 -3.4717707202678265" fill="#ff980e" stroke="none" /><path d="M 79.18660465613746 102.79330883721812 l -13.226612311065528 1.7751074461693732 a34.3451968765049,34.3451968765049 0 0,0 -0.0735943820982184,-0.5866196354812313 l 13.255208202410595 -1.5471700564007334" fill="#ff830c" stroke="none" /><path d="M 79.1416061653843 102.43462659150553 l -14.68419259112071 1.7139635026835556 a35.783882539497384,35.783882539497384 0 0,0 -0.06614514112095159,-0.6124218572351564 l 14.711520033742714 -1.4609453235636172" fill="#ff970e" stroke="none" /><path d="M 79.07016306316243 101.71520430193888 l -14.764321505776284 1.209939085447197 a35.81381592016118,35.81381592016118 0 0,0 -0.04506306018917485,-0.6148496535132424 l 14.782961124629795 -0.9556162954371938" fill="#ff980e" stroke="none" /><line stroke="#e1ed5e" stroke-width="0.3" x1="15.007084014347285" x2="10.007500721073583" y1="101.09737516637583" y2="101.16192664675087" /><path d="M 14.007167355692545 101.11028546245083 a86.0,86.0 0 0,1 10.666146001902534,-42.60595125391555" fill="none" id="id94" stroke="none" /><text fill="#e1ed5e" style="font-size:6.75px; font-family:Arial;" text-anchor="middle"><textPath startOffset="22.20632615414155" xlink:href="#id94">October</textPath></text><path d="M 79.21141760316559 97.0276538004421 l -11.761621456364221 -1.6816736307034752 a32.88123585672007,32.88123585672007 0 0,0 0.08493396484092192,-0.5596087086112724 l 11.730931598083997 1.8838814517068398" fill="#ff6e0a" stroke="none" /><path d="M 79.54389044137918 95.25157060432595 l -30.259995608803155 -7.024182787545457 a52.06455340219196,52.06455340219196 0 0,0 0.21016030464643246,-0.8712501415518216 l 30.13460250389591 7.544018160756675" fill="#96ff23" stroke="none" /><path d="M 80.2630227832202 92.82701384747504 l -59.210931650339425 -21.518958457574875 a84.0,84.0 0 0,0 0.5055816459934896,-1.3547074518826343 l 58.83174541584431 22.534989046486853" fill="#4dd2ff" stroke="none" /><line stroke="#e1ed5e" stroke-width="0.3" x1="26.266209847984243" x2="21.928928074336255" y1="57.711370442889674" y2="55.22380399835377" /><path d="M 25.398753493254645 57.213857153982495 a86.0,86.0 0 0,1 29.58750427330803,-30.492523968695096" fill="none" id="id95" stroke="none" /><text fill="#e1ed5e" style="font-size:6.75px; font-family:Arial;" text-anchor="middle"><textPath startOffset="21.46611528233685" xlink:href="#id95">November</textPath></text><path d="M 81.78341655067845 89.55222093294921 l -12.896512213387771 -7.396552197388903 a35.86704448364767,35.86704448364767 0 0,0 0.3117705702777324,-0.5329169665198499 l 12.767281968639715 7.617448576262644" fill="#ff990e" stroke="none" /><path d="M 83.6137871275137 86.86637796730984 l -11.5207796260477 -9.233955783919315 a35.76463012104715,35.76463012104715 0 0,0 0.389155805380445,-0.47705900309604365 l 11.360125328590861 9.430898956623441" fill="#ff970d" stroke="none" /><path d="M 84.07557802195018 86.31012108654704 l -11.247923882965704 -9.669595304481732 a35.832965483322795,35.832965483322795 0 0,0 0.4061208255792912,-0.4642663087204295 l 11.07981119380857 9.861777169405103" fill="#ff980e" stroke="none" /><path d="M 85.83668400450813 84.49514656593479 l -9.973508194401548 -10.918190544281087 a35.787756775962464,35.787756775962464 0 0,0 0.45840539768198696,-0.4115608921580426 l 9.78409180912359 11.088250445208407" fill="#ff970e" stroke="none" /><path d="M 86.37877921826538 84.01681056812374 l -9.62093851543442 -11.28924384008407 a35.832716689758676,35.832716689758676 0 0,0 0.4728936838498149,-0.39603486052992437 l 9.425187294625493 11.453179858007807" fill="#ff980e" stroke="none" /><path d="M 86.93701828274178 83.55741782278169 l -9.197578992006555 -11.577138488047002 a35.785993199160465,35.785993199160465 0 0,0 0.48561157347842515,-0.3790275357430525 l 8.996934863368704 11.733744413013277" fill="#ff970e" stroke="none" /><path d="M 87.80319425747018 82.90503203632743 l -5.153050731286956 -7.222484232847869 a29.872328349027278,29.872328349027278 0 0,0 0.4211555339180583,-0.2950463657866966 l 5.027964057785237 7.310115441398508" fill="#ff4206" stroke="none" /><line stroke="#e1ed5e" stroke-width="0.3" x1="56.762969772571076" x2="54.21961505331055" y1="26.818313649435495" y2="22.513508569990535" /><path d="M 56.25429882871897 25.957352633546506 a86.0,86.0 0 0,1 42.265352541879196,-11.944610805530505" fill="none" id="id96" stroke="none" /><text fill="#e1ed5e" style="font-size:6.75px; font-family:Arial;" text-anchor="middle"><textPath startOffset="22.20632615414155" xlink:href="#id96">December</textPath></text><path d="M 89.63071344664047 81.73862282372117 l -7.366861078304558 -12.973797962269824 a35.91945292940848,35.91945292940848 0 0,0 0.5402899959100326,-0.3006707977643682 l 7.14244699332248 13.098684157594377" fill="#ff990e" stroke="none" /><path d="M 90.26544431104013 81.39251694778311 l -5.506271315424118 -10.52516965914135 a32.87847718155707,32.87847718155707 0 0,0 0.50372881986753,-0.2580294664696592 l 5.324282007967825 10.618391650923515" fill="#ff6e0a" stroke="none" /><path d="M 90.91171255644093 81.06846463323043 l -6.403693770117765 -13.339339874517743 a35.79679972795956,35.79679972795956 0 0,0 0.5577853731777436,-0.26188771179224946 l 6.173130185640413 13.44759256895" fill="#ff980e" stroke="none" /><path d="M 91.56875222667455 80.76684994638697 l -5.942801957945054 -13.556570138725839 a35.80194206979438,35.80194206979438 0 0,0 0.5665508024972924,-0.24256748654949184 l 5.708567397657453 13.656857153238118" fill="#ff980e" stroke="none" /><path d="M 99.63851952072746 79.00311137660856 l -0.25500106175145193 -14.811944764533019 a35.81413963917822,35.81413963917822 0 0,0 0.616481541023984,-0.00530625125376191 l 3.628417738248307e-15 14.814139639178222" fill="#ff980e" stroke="none" /></svg>