<?xml version="1.0" encoding="utf-8" ?>
<svg baseProfile="full" height="200mm" version="1.1" viewBox="0,0,200,200" width="200mm" xmlns="http://www.w3.org/2000/svg" xmlns:ev="http://www.w3.org/2001/xml-events" xmlns:xlink="http://www.w3.org/1999/xlink"><defs /><rect fill="#1a1a1a" height="200" width="200" x="0" y="0" /><text alignment-baseline="middle" fill="#e1ed5e" style="dominant-baseline: central; font-size:9.0px; font-family:Arial;" text-anchor="middle" x="100.0" y="100.0">2025</text><line stroke="#e1ed5e" stroke-width="0.3" x1="100.0" x2="100.0" y1="15.0" y2="10.0" /><path d="M 100.0 14.0 a86.0,86.0 0 0,1 42.46469731375804,11.215312516191453" fill="none" id="id121" stroke="none" /><text fill="#e1ed5e" style="font-size:6.75px; font-family:Arial;" text-anchor="middle"><textPath startOffset="22.20632615414155" xlink:href="#id121">January</textPath></text><path d="M 100.0 79.0 l 0.0 -25.792206445815978 a46.79220644581598,46.79220644581598 0 0,0 0.8054509148691739,0.006932770314208065 l -0.4439704355966455 25.78838505211033" fill="#ffe315" stroke="none" /><path d="M 101.44485096284872 79.0497635885617 l 2.013285911619139 -29.192502823320858 a50.26184446085927,50.26184446085927 0 0,0 0.8626124687827501,0.0669553295579388 l -2.5154885697642304 29.153522231574456" fill="#e8ff1a" stroke="none" /><path d="M 102.52436894288641 79.15227682838746 l 3.6048176301736357 -29.770703783131626 a50.988156226913624,50.988156226913624 0 0,0 0.8704049060899756,0.11300353759854881 l -4.116737264771458 29.70424192236894" fill="#deff1b" stroke="none" /><path d="M 103.95276090670814 79.375362276772 l 5.625265603830298 -29.351399670807915 a50.8855864213694,50.8855864213694 0 0,0 0.8588362429379452,0.17227447082146147 l -6.129668256235369 29.250221243909248" fill="#dfff1b" stroke="none" /><path d="M 109.41281617654863 81.2277094730956 l 8.946020595859057 -17.841344666173416 a40.95857870688013,40.95857870688013 0 0,0 0.6275234829623425,0.3214419011176239 l -9.251804566410156 17.68471023974329" fill="#ff870c" stroke="none" /><line stroke="#e1ed5e" stroke-width="0.3" x1="143.23703022742887" x2="145.7803849466894" y1="26.81831364943548" y2="22.513508569990506" /><path d="M 143.74570117128098 25.957352633546492 a86.0,86.0 0 0,1 28.547481713284135,27.462654790039103" fill="none" id="id122" stroke="none" /><text fill="#e1ed5e" style="font-size:6.75px; font-family:Arial;" text-anchor="middle"><textPath startOffset="19.985693538727396" xlink:href="#id122">February</textPath></text><path d="M 111.2981086023043 82.29822771554956 l 16.051758381508318 -25.14974688564479 a50.835695325403805,50.835695325403805 0 0,0 0.7335662833705372,0.477131916177883 l -16.482291690663136 24.86971604530738" fill="#e0ff1b" stroke="none" /><path d="M 111.90073688211348 82.69761687909136 l 16.959635252329054 -24.657473703809213 a50.92691493198197,50.92691493198197 0 0,0 0.7179939842110596,0.5030006699126055 l -17.381560376123765 24.36188819113267" fill="#deff1b" stroke="none" /><path d="M 113.06298171725822 83.55741782278167 l 18.69785377133641 -23.535284962286465 a51.0585990011229,51.0585990011229 0 0,0 0.683447554917815,0.5526337254852874 l -19.100204724818713 23.209945139537048" fill="#ddff1b" stroke="none" /><path d="M 113.34407831869373 83.78471172551755 l 18.994788849953075 -23.08184721034111 a50.892702689717325,50.892702689717325 0 0,0 0.6716442368683625,0.5624827329230403 l -19.389290623780557 22.75146332002425" fill="#dfff1b" stroke="none" /><path d="M 114.42810811169701 84.74124197986012 l 20.517980627115968 -21.699234509981547 a50.86376244437194,50.86376244437194 0 0,0 0.6309934480798226,0.6070151971173356 l -20.888457318808207 21.34283622610191" fill="#dfff1b" stroke="none" /><path d="M 114.94478906791727 85.2469230424477 l 21.229631845715694 -20.95729762240098 a50.83128545568427,50.83128545568427 0 0,0 0.6093357652906725,0.6279740682579629 l -21.587231874709477 20.588759358592903" fill="#e0ff1b" stroke="none" /><path d="M 116.60985879189232 87.15038557335679 l 23.665147406690828 -18.307682403301673 a50.920067459158034,50.920067459158034 0 0,0 0.5303544704156693,0.6978843156147838 l -23.97677781733061 17.897613311805856" fill="#dfff1b" stroke="none" /><path d="M 117.04232023915458 87.72973835380427 l 24.27787194854005 -17.479770174545205 a50.91583914424979,50.91583914424979 0 0,0 0.5059758610238284,0.7156669727976994 l -24.57516042936776 17.059276701415712" fill="#dfff1b" stroke="none" /><path d="M 117.45458315368197 88.32363383020206 l 24.898326514736716 -16.65591064773886 a50.955734388258655,50.955734388258655 0 0,0 0.4814185309732575,0.7332334508992102 l -25.1813416810679 16.224859132861976" fill="#deff1b" stroke="none" /><line stroke="#e1ed5e" stroke-width="0.3" x1="172.23445277983987" x2="176.4835382374775" y1="55.19839476539836" y2="52.563006222186495" /><path d="M 173.08426987136738 54.67131705675599 a86.0,86.0 0 0,1 12.851231095245387,41.99856678651699" fill="none" id="id123" stroke="none" /><text fill="#e1ed5e" style="font-size:6.75px; font-family:Arial;" text-anchor="middle"><textPath startOffset="22.20632615414155" xlink:href="#id123">March</textPath></text><path d="M 117.84615892207809 88.93136811851018 l 53.538476766234254 -33.20589564446945 a84.0,84.0 0 0,0 0.7515368068551043,1.2353289071716742 l -54.10212937137558 32.279398964090696" fill="#4dd2ff" stroke="none" /><path d="M 118.03404312379186 89.2402003453031 l 10.320065848684814 -6.157345870412909 a33.017348596470086,33.017348596470086 0 0,0 0.28699988385363484,0.4905758338850898 l -10.424525407008778 5.978790624173924" fill="#ff0000" stroke="none" /><line stroke="#e1ed5e" stroke-width="0.3" x1="184.98032266829074" x2="189.97916517819016" y1="98.17113171792111" y2="98.06355123074" /><path d="M 185.9800911702706 98.14961562048488 a86.0,86.0 0 0,1 -9.607161424134198,41.387399972396054" fill="none" id="id124" stroke="none" /><text fill="#e1ed5e" style="font-size:6.75px; font-family:Arial;" text-anchor="middle"><textPath startOffset="21.466115282336823" xlink:href="#id124">April</textPath></text><line stroke="#e1ed5e" stroke-width="0.3" x1="174.80103733775053" x2="179.2010983576182" y1="140.37084112569926" y2="142.7455964860345" /><path d="M 175.68104954172406 140.8457921977663 a86.0,86.0 0 0,1 -30.038265399797805,32.042727171017184" fill="none" id="id125" stroke="none" /><text fill="#e1ed5e" style="font-size:6.75px; font-family:Arial;" text-anchor="middle"><textPath startOffset="22.206326154141568" xlink:href="#id125">May</textPath></text><line stroke="#e1ed5e" stroke-width="0.3" x1="143.8653032363475" x2="146.44561519142675" y1="172.8068346515853" y2="177.08958963109032" /><path d="M 144.38136562736335 173.6633856474863 a86.0,86.0 0 0,1 -40.68145358897372,12.25698825130547" fill="none" id="id126" stroke="none" /><text fill="#e1ed5e" style="font-size:6.75px; font-family:Arial;" text-anchor="middle"><textPath startOffset="21.466115282336833" xlink:href="#id126">June</textPath></text><line stroke="#e1ed5e" stroke-width="0.3" x1="102.19456741930631" x2="102.32365962044197" y1="184.97166512339345" y2="189.96999836594603" /><path d="M 102.22038585953345 185.97133177190398 a86.0,86.0 0 0,1 -42.740103519485714,-10.115201625700543" fill="none" id="id127" stroke="none" /><text fill="#e1ed5e" style="font-size:6.75px; font-family:Arial;" text-anchor="middle"><textPath startOffset="22.20632615414155" xlink:href="#id127">July</textPath></text><line stroke="#e1ed5e" stroke-width="0.3" x1="58.666819895761336" x2="56.23545636021788" y1="174.27360380694188" y2="178.64263932499728" /><path d="M 58.180547188652646 175.14741091055294 a86.0,86.0 0 0,1 -31.652253787137756,-30.449443065178592" fill="none" id="id128" stroke="none" /><text fill="#e1ed5e" style="font-size:6.75px; font-family:Arial;" text-anchor="middle"><textPath startOffset="22.20632615414155" xlink:href="#id128">August</textPath></text><line stroke="#e1ed5e" stroke-width="0.3" x1="26.63291911575756" x2="22.317208475507996" y1="142.92168965132927" y2="145.44649492493687" /><path d="M 25.769776987707644 143.4266507060508 a86.0,86.0 0 0,1 -11.730757126820373,-40.83630448921669" fill="none" id="id129" stroke="none" /><text fill="#e1ed5e" style="font-size:6.75px; font-family:Arial;" text-anchor="middle"><textPath startOffset="21.46611528233685" xlink:href="#id129">September</textPath></text><line stroke="#e1ed5e" stroke-width="0.3" x1="15.007084014347285" x2="10.007500721073583" y1="101.09737516637583" y2="101.16192664675087" /><path d="M 14.007167355692545 101.11028546245083 a86.0,86.0 0 0,1 10.666146001902534,-42.60595125391555" fill="none" id="id130" stroke="none" /><text fill="#e1ed5e" style="font-size:6.75px; font-family:Arial;" text-anchor="middle"><textPath startOffset="22.20632615414155" xlink:href="#id130">October</textPath></text><line stroke="#e1ed5e" stroke-width="0.3" x1="26.266209847984243" x2="21.928928074336255" y1="57.711370442889674" y2="55.22380399835377" /><path d="M 25.398753493254645 57.213857153982495 a86.0,86.0 0 0,1 29.58750427330803,-30.492523968695096" fill="none" id="id131" stroke="none" /><text fill="#e1ed5e" style="font-size:6.75px; font-family:Arial;" text-anchor="middle"><textPath startOffset="21.46611528233685" xlink:href="#id131">November</textPath></text><line stroke="#e1ed5e" stroke-width="0.3" x1="56.762969772571076" x2="54.21961505331055" y1="26.818313649435495" y2="22.513508569990535" /><path d="M 56.25429882871897 25.957352633546506 a86.0,86.0 0 0,1 42.265352541879196,-11.944610805530505" fill="none" id="id132" stroke="none" /><text fill="#e1ed5e" style="font-size:6.75px; font-family:Arial;" text-anchor="middle"><textPath startOffset="22.20632615414155" xlink:href="#id132">December</textPath></text></svg>