<?xml version="1.0" encoding="utf-8" ?>
<svg baseProfile="full" height="200mm" version="1.1" viewBox="0,0,200,200" width="200mm" xmlns="http://www.w3.org/2000/svg" xmlns:ev="http://www.w3.org/2001/xml-events" xmlns:xlink="http://www.w3.org/1999/xlink"><defs /><rect fill="#1a1a1a" height="200" width="200" x="0" y="0" /><text alignment-baseline="middle" fill="#e1ed5e" style="dominant-baseline: central; font-size:9.0px; font-family:Arial;" text-anchor="middle" x="100.0" y="100.0">2025</text><line stroke="#e1ed5e" stroke-width="0.3" x1="100.0" x2="100.0" y1="15.0" y2="10.0" /><path d="M 100.0 14.0 a86.0,86.0 0 0,1 42.46469731375804,11.215312516191453" fill="none" id="id121" stroke="none" /><text fill="#e1ed5e" style="font-size:6.75px; font-family:Arial;" text-anchor="middle"><textPath startOffset="22.20632615414155" xlink:href="#id121">January</textPath></text><path d="M 100.0 79.0 l 0.0 -4.681389275227939 a25.68138927522794,25.68138927522794 0 0,0 0.4420629001711317,0.003804974946011372 l -0.08058242089860332 4.680695676890487" fill="#ff2503" stroke="none" /><path d="M 101.44485096284872 79.0497635885617 l 0.3653386003487898 -5.297383774753054 a26.3099667748416,26.3099667748416 0 0,0 0.4515414353906551,0.0350483058264954 l -0.45647022510178603 5.290310206738093" fill="#ff2e04" stroke="none" /><path d="M 102.52436894288641 79.15227682838746 l 0.6509232193735305 -5.375706717401503 a26.41497218358832,26.41497218358832 0 0,0 0.450922784509112,0.05854271899985171 l -0.7433607323904885 5.363705675237514" fill="#ff3004" stroke="none" /><path d="M 103.95276090670814 79.375362276772 l 1.0188086999344494 -5.3159198953220415 a26.412668057487252,26.412668057487252 0 0,0 0.4457874654841988,0.08942077182539192 l -1.1101625748857735 5.297595167419441" fill="#ff3004" stroke="none" /><path d="M 109.41281617654863 81.2277094730956 l 1.619016019289468 -3.2288571785280684 a24.612025961984237,24.612025961984237 0 0,0 0.37707910630769986,0.19315456408275222 l -1.6743556131859236 3.2005100891328158" fill="#ff1502" stroke="none" /><line stroke="#e1ed5e" stroke-width="0.3" x1="143.23703022742887" x2="145.7803849466894" y1="26.81831364943548" y2="22.513508569990506" /><path d="M 143.74570117128098 25.957352633546492 a86.0,86.0 0 0,1 28.547481713284135,27.462654790039103" fill="none" id="id122" stroke="none" /><text fill="#e1ed5e" style="font-size:6.75px; font-family:Arial;" text-anchor="middle"><textPath startOffset="19.985693538727396" xlink:href="#id122">February</textPath></text><path d="M 111.2981086023043 82.29822771554956 l 2.9130036848708913 -4.564067288469205 a26.41445294390357,26.41445294390357 0 0,0 0.3811642970415369,0.24791986157051982 l -2.9911350076967085 4.513248502739157" fill="#ff3004" stroke="none" /><path d="M 111.90073688211348 82.69761687909136 l 3.07000758533161 -4.463458687616136 a26.41732498840983,26.41732498840983 0 0,0 0.3724451097412781,0.26092160077272564 l -3.1463838346565387 4.4099522440794745" fill="#ff3004" stroke="none" /><path d="M 113.06298171725822 83.55741782278167 l 3.3847711090681836 -4.260465054345133 a26.441345232576108,26.441345232576108 0 0,0 0.353932013440959,0.2861884072142249 l -3.4576065210736338 4.201570549866778" fill="#ff3004" stroke="none" /><path d="M 113.34407831869373 83.78471172551755 l 3.4411197483711224 -4.181536361989405 a26.41539947457889,26.41539947457889 0 0,0 0.3486108986949348,0.29195160214427013 l -3.5125881840251747 4.1216836024513155" fill="#ff3004" stroke="none" /><path d="M 114.42810811169701 84.74124197986012 l 3.7225306740190756 -3.9368428859606337 a26.41811466543038,26.41811466543038 0 0,0 0.32773150202443463,0.31527744528617735 l -3.7897454196559286 3.8721823539121543" fill="#ff3004" stroke="none" /><path d="M 114.94478906791727 85.2469230424477 l 3.853011890848156 -3.803585362477705 a26.414144645340752,26.414144645340752 0 0,0 0.3166373405213064,0.3263226126152199 l -3.9179134950725714 3.7366985543123707" fill="#ff3004" stroke="none" /><path d="M 116.60985879189232 87.15038557335679 l 4.281472811538296 -3.3122060515816942 a26.413106165971257,26.413106165971257 0 0,0 0.27510389580536826,0.36200447956367005 l -4.337852647567778 3.2380167961369906" fill="#ff3004" stroke="none" /><path d="M 117.04232023915458 87.72973835380427 l 4.39309193474353 -3.1629723370207836 a26.413284654612887,26.413284654612887 0 0,0 0.2624818655688317,0.3712619842492681 l -4.446886420116244 3.086883852439722" fill="#ff3004" stroke="none" /><path d="M 117.45458315368197 88.32363383020206 l 4.506610090401185 -3.014728517817986 a26.42200355431927,26.42200355431927 0 0,0 0.24962925741722908,0.38020248512537985 l -4.557835983176339 2.9367079687149324" fill="#ff3004" stroke="none" /><line stroke="#e1ed5e" stroke-width="0.3" x1="172.23445277983987" x2="176.4835382374775" y1="55.19839476539836" y2="52.563006222186495" /><path d="M 173.08426987136738 54.67131705675599 a86.0,86.0 0 0,1 12.851231095245387,41.99856678651699" fill="none" id="id123" stroke="none" /><text fill="#e1ed5e" style="font-size:6.75px; font-family:Arial;" text-anchor="middle"><textPath startOffset="22.20632615414155" xlink:href="#id123">March</textPath></text><path d="M 117.84615892207809 88.93136811851018 l 9.701625383416209 -6.017189496631878 a32.41613351877608,32.41613351877608 0 0,0 0.290022827086782,0.47672127136286585 l -9.803764008789216 5.8493004520619305" fill="#ff840c" stroke="none" /><path d="M 118.03404312379186 89.2402003453031 l 1.862375159620638 -1.111164227669255 a23.168669448307835,23.168669448307835 0 0,0 0.20139126015159498,0.34424294553520773 l -1.8812260942425603 1.0789418697801518" fill="#ff0000" stroke="none" /><path d="M 118.3937258080291 89.86733742301442 l 4.742768144994763 -2.612677268089445 a26.41478828619997,26.41478828619997 0 0,0 0.21596215283807155,0.40014507024224866 l -4.787038397051299 2.5306512145147377" fill="#ff3004" stroke="none" /><path d="M 118.73160827565052 90.50648371742162 l 4.8296151497508655 -2.4477359011584827 a26.41447998763715,26.41447998763715 0 0,0 0.2020581772884044,0.40733695565631756 l -4.871033339992678 2.3642393570032154" fill="#ff3004" stroke="none" /><path d="M 119.196687751892 91.48605970444005 l 15.45845592135043 -6.855993725425422 a37.9106034615979,37.9106034615979 0 0,0 0.2594336149000878,0.5988085522595296 l -15.574180246093198 6.58888602857929" fill="#ffcd13" stroke="none" /><path d="M 120.08093135843002 93.85539295169968 l 16.553745194183737 -5.065315825266649 a38.31138077576881,38.31138077576881 0 0,0 0.18753257225033954,0.6322666061926382 l -16.638483663545777 4.77961983232748" fill="#ffd213" stroke="none" /><path d="M 120.37134235888165 94.90015583598534 l 3.15488742913032 -0.78980726749009 a24.252246947921495,24.252246947921495 0 0,0 0.09789500291230446,0.4058379877591765 l -3.168015232303444 0.7353840480715073" fill="#ff1001" stroke="none" /><path d="M 120.67395015179393 96.31383870115 l 22.646393876830953 -4.037847632134493 a44.00355122855818,44.00355122855818 0 0,0 0.12653774024724437,0.7468329058300098 l -22.71254347859842 3.6474289379886455" fill="#e5ff1a" stroke="none" /><path d="M 120.94382443527127 98.46500227214037 l 62.831473305813795 -4.6049931835789 a84.0,84.0 0 0,0 0.09327763598233796,1.442963742987859 l -62.90143153280055 3.5227703763380056" fill="#4dd2ff" stroke="none" /><line stroke="#e1ed5e" stroke-width="0.3" x1="184.98032266829074" x2="189.97916517819016" y1="98.17113171792111" y2="98.06355123074" /><path d="M 185.9800911702706 98.14961562048488 a86.0,86.0 0 0,1 -9.607161424134198,41.387399972396054" fill="none" id="id124" stroke="none" /><text fill="#e1ed5e" style="font-size:6.75px; font-family:Arial;" text-anchor="middle"><textPath startOffset="21.466115282336823" xlink:href="#id124">April</textPath></text><path d="M 120.9764740272857 100.99374915477107 l 5.407247249617456 0.25616542498781514 a26.41331169834647,26.41331169834647 0 0,0 -0.02542425783660443,0.45396720272293695 l -5.402036640893322 -0.3492043440461754" fill="#ff3004" stroke="none" /><path d="M 120.89721153311464 102.0752229133903 l 4.308939784984526 0.4279044866846973 a25.3301344459898,25.3301344459898 0 0,0 -0.046821786755345346,0.4335115946210226 l -4.3009356967281285 -0.5020124031905113" fill="#ff2003" stroke="none" /><path d="M 120.64145759157962 103.86396538481128 l 5.321020712467602 0.9960653095169945 a26.413446917014372,26.413446917014372 0 0,0 -0.0875040605885918,0.4461813197443028 l -5.303086718903346 -1.087510356329242" fill="#ff3004" stroke="none" /><path d="M 120.41448212921028 104.9243191809786 l 3.8804446615853436 0.9360290384456558 a24.99174161644259,24.99174161644259 0 0,0 -0.10447581666594886,0.41732895380285423 l -3.863757530624334 -1.002685831645906" fill="#ff1b02" stroke="none" /><path d="M 120.23288151984713 105.62410040840565 l 4.254559236627596 1.1826327513869672 a25.415868490186988,25.415868490186988 0 0,0 -0.12079480072643986,0.420502548117815 l -4.233571799015057 -1.2556927750093643" fill="#ff2103" stroke="none" /><path d="M 119.67450827220406 107.3425965602758 l 5.0690261319563925 1.891778606382497 a26.410531602534384,26.410531602534384 0 0,0 -0.162620610246865,0.4245510979249567 l -5.035711242116021 -1.9787532711405975" fill="#ff3004" stroke="none" /><path d="M 119.41010516605496 108.01547362559984 l 4.00312797125449 1.6531062762919027 a25.33102688919796,25.33102688919796 0 0,0 -0.16989763251117962,0.4015878163071142 l -3.9740793575510014 -1.7217686182651804" fill="#ff2003" stroke="none" /><path d="M 118.81262510543309 109.33194174019688 l 4.849282879132097 2.4054710629791787 a26.41311698346469,26.41311698346469 0 0,0 -0.20554603392993753,0.4055618251010583 l -4.807158175415891 -2.488587099782931" fill="#ff3004" stroke="none" /><line stroke="#e1ed5e" stroke-width="0.3" x1="174.80103733775053" x2="179.2010983576182" y1="140.37084112569926" y2="142.7455964860345" /><path d="M 175.68104954172406 140.8457921977663 a86.0,86.0 0 0,1 -30.038265399797805,32.042727171017184" fill="none" id="id125" stroke="none" /><text fill="#e1ed5e" style="font-size:6.75px; font-family:Arial;" text-anchor="middle"><textPath startOffset="22.206326154141568" xlink:href="#id125">May</textPath></text><path d="M 117.94076556474637 110.91462005526583 l 4.624000590580033 2.8131023394385095 a26.412478751352186,26.412478751352186 0 0,0 -0.23964338838815058,0.38638144619772147 l -4.57489256252392 -2.8922801170015044" fill="#ff3004" stroke="none" /><path d="M 117.75023020441432 111.22182372390056 l 2.746800806644162 1.7365473068153752 a24.249694019471487,24.249694019471487 0 0,0 -0.22609391207653073,0.3509027724300622 l -2.716502031190581 -1.7835716791668903" fill="#ff1001" stroke="none" /><path d="M 116.498646956653 112.99209946851258 l 4.252164418278888 3.348428705935314 a26.412289445217123,26.412289445217123 0 0,0 -0.284349787866011,0.35477008114146225 l -4.193896718358023 -3.4211266206550266" fill="#ff3004" stroke="none" /><path d="M 115.32070863581623 114.36230785411682 l 3.9484227559717437 3.701425600307771 a26.41207850409519,26.41207850409519 0 0,0 -0.31379240720172524,0.3290100844254973 l -3.8841237973910543 -3.7688428013157758" fill="#ff3004" stroke="none" /><path d="M 113.48314897796784 116.09983520530334 l 2.7813083884640064 3.32107928070578 a25.331886879925822,25.331886879925822 0 0,0 -0.33670887278638667,0.27708847927984587 l -2.7237293871329284 -3.3684628788428044" fill="#ff2003" stroke="none" /><path d="M 112.92097659922987 116.55440617244103 l 3.3295558954609534 4.265840143274576 a26.411407819502394,26.411407819502394 0 0,0 -0.36079400683131113,0.2766414593925455 l -3.2556331601361483 -4.322520944494493" fill="#ff3004" stroke="none" /><path d="M 111.45004920935366 117.60387380957326 l 2.9513765512503465 4.537592758143038 a26.412981764796786,26.412981764796786 0 0,0 -0.3832626764731506,0.24461637357108687 l -2.872832072730265 -4.587723560537934" fill="#ff3004" stroke="none" /><line stroke="#e1ed5e" stroke-width="0.3" x1="143.8653032363475" x2="146.44561519142675" y1="172.8068346515853" y2="177.08958963109032" /><path d="M 144.38136562736335 173.6633856474863 a86.0,86.0 0 0,1 -40.68145358897372,12.25698825130547" fill="none" id="id126" stroke="none" /><text fill="#e1ed5e" style="font-size:6.75px; font-family:Arial;" text-anchor="middle"><textPath startOffset="21.466115282336833" xlink:href="#id126">June</textPath></text><path d="M 110.21172684928248 118.3499491758327 l 2.6318197087965367 4.729244975815676 a26.412229949003247,26.412229949003247 0 0,0 -0.3991732987377769,0.21766110954978915 l -2.550023598190111 -4.773846737125235" fill="#ff3004" stroke="none" /><path d="M 108.2653958097858 119.30500536409082 l 2.1307056156941795 4.9765654648474165 a26.413511821974964,26.413511821974964 0 0,0 -0.41950762131094604,0.17535421973105092 l -2.0447265348857724 -5.012504727598441" fill="#ff3004" stroke="none" /><path d="M 107.59598834532513 119.57807347666477 l 1.9580848213556246 5.04681244404958 a26.4133549683202,26.4133549683202 0 0,0 -0.42529247068660037,0.16080922158354535 l -1.8709221299087493 -5.079769915739757" fill="#ff3004" stroke="none" /><path d="M 106.2309692047433 120.05430185196036 l 0.9644008023426567 3.103912755936843 a24.250283572863545,24.250283572863545 0 0,0 -0.39969666768993717,0.12042532721321719 l -0.9108291602124737 -3.120053452255786" fill="#ff1001" stroke="none" /><path d="M 105.88484417918355 120.15858648285463 l 3.200254231360837 10.962499554059427 a32.42007108638541,32.42007108638541 0 0,0 -0.5370443932755494,0.15177410993112095 l -3.0110786699806815 -11.015962457329067" fill="#ff840c" stroke="none" /><path d="M 103.7750983002368 120.6578951692458 l 3.030112899309225 16.581225082531713 a37.85581826611034,37.85581826611034 0 0,0 -0.642018505297255,0.1116231465851434 l -2.7442454225399198 -16.630926807637863" fill="#ffcc13" stroke="none" /><path d="M 102.70371172650421 120.8252237178851 l 0.6968001181965228 5.367073052145812 a26.412116365322206,26.412116365322206 0 0,0 -0.45136115536619004,0.05465355009045631 l -0.6043115397789525 -5.378272130961618" fill="#ff3004" stroke="none" /><path d="M 101.62511606390274 120.93702456842531 l 1.2558883212945535 16.180114898991174 a37.228782259310776,37.228782259310776 0 0,0 -0.6393373930266749,0.04409244983008631 l -0.9771881674889481 -16.199335693337545" fill="#ffc412" stroke="none" /><line stroke="#e1ed5e" stroke-width="0.3" x1="102.19456741930631" x2="102.32365962044197" y1="184.97166512339345" y2="189.96999836594603" /><path d="M 102.22038585953345 185.97133177190398 a86.0,86.0 0 0,1 -42.740103519485714,-10.115201625700543" fill="none" id="id127" stroke="none" /><text fill="#e1ed5e" style="font-size:6.75px; font-family:Arial;" text-anchor="middle"><textPath startOffset="22.20632615414155" xlink:href="#id127">July</textPath></text><path d="M 99.81925306533755 120.99922214144158 l -0.04658309288500117 5.4120348837693335 a26.412235357749964,26.412235357749964 0 0,0 -0.45459269230157084,-0.007826225458180083 l 0.13973547507923992 -5.410431181031994" fill="#ff3004" stroke="none" /><path d="M 99.09653310690486 120.98055641714683 l -0.8408566792889892 19.526604830111545 a40.54470097357441,40.54470097357441 0 0,0 -0.6970057530508378,-0.036027235949316165 l 1.1768505007533159 -19.509237787400025" fill="#ffee16" stroke="none" /><path d="M 96.93821686468263 120.77559828337769 l -8.276813798318251 56.16196541051029 a77.76858290836037,77.76858290836037 0 0,0 -1.3226737501359032,-0.2065744376116801 l 9.242323412062671 -56.011172665551506" fill="#45fff0" stroke="none" /><path d="M 94.81253420990036 120.34920634021253 l -0.8029228651994899 3.149677264455798 a24.250407974038016,24.250407974038016 0 0,0 -0.4036071120307979,-0.10659630661529113 l 0.857020420041777 -3.1353896085369253" fill="#ff1001" stroke="none" /><path d="M 92.40401165467489 119.57807347666478 l -1.5666486301033773 4.037915883738412 a25.331183742852726,25.331183742852726 0 0,0 -0.40515289229215956,-0.16121869724581012 l 1.6359225984373948 -4.010350342086536" fill="#ff2003" stroke="none" /><path d="M 91.40352486487194 119.15986991738527 l -1.7734165533747237 3.952600331867453 a25.33221140472879,25.33221140472879 0 0,0 -0.39630677068757064,-0.18192500080303436 l 1.8411913198297138 -3.921488260730344" fill="#ff2003" stroke="none" /><path d="M 90.42595943632237 118.69057910512821 l -1.9745762050402749 3.854795946804784 a25.33109720290527,25.33109720290527 0 0,0 -0.38637051824172375,-0.20213079414565216 l 2.040637625808494 -3.8202357337144153" fill="#ff2003" stroke="none" /><line stroke="#e1ed5e" stroke-width="0.3" x1="58.666819895761336" x2="56.23545636021788" y1="174.27360380694188" y2="178.64263932499728" /><path d="M 58.180547188652646 175.14741091055294 a86.0,86.0 0 0,1 -31.652253787137756,-30.449443065178592" fill="none" id="id128" stroke="none" /><text fill="#e1ed5e" style="font-size:6.75px; font-family:Arial;" text-anchor="middle"><textPath startOffset="22.20632615414155" xlink:href="#id128">August</textPath></text><path d="M 89.1626897886671 117.98757091392108 l -1.6919696835866318 2.80830059066621 a24.278614588162572,24.278614588162572 0 0,0 -0.35611039476099793,-0.21875208997662596 l 1.7400592782799384 -2.778760033861206" fill="#ff1001" stroke="none" /><path d="M 87.07902340077011 116.55440617244103 l -3.3299918527922525 4.266398693526621 a26.412116365322206,26.412116365322206 0 0,0 -0.35598817327055693,-0.28281853475766855 l 3.4029375187801674 -4.208446244763822" fill="#ff3004" stroke="none" /><path d="M 85.97065885151581 115.62618273729859 l -2.8934025596103066 3.222734171941008 a25.33102688919796,25.33102688919796 0 0,0 -0.3219458328187693,-0.29408988501792416 l 2.9484479418959304 -3.172451520336508" fill="#ff2003" stroke="none" /><path d="M 84.9287848128048 114.62390073753433 l -2.3353668142667927 2.266053005903977 a24.254064286818114,24.254064286818114 0 0,0 -0.2881538162854627,-0.3021281243515313 l 2.374027181931213 -2.2255177649699456" fill="#ff1001" stroke="none" /><path d="M 84.43433777217949 114.09645910891817 l -3.2116917203306854 2.908548338224587 a25.332968629269047,25.332968629269047 0 0,0 -0.2899311820086229,-0.32574075652604845 l 3.2612817519876467 -2.8528334119576746" fill="#ff2003" stroke="none" /><path d="M 83.28015986056508 112.70617746262583 l -3.449279852594624 2.62126680397845 a25.332270900942667,25.332270900942667 0 0,0 -0.26084848435032376,-0.34944917203734427 l 3.493889603640033 -2.561504752431798" fill="#ff2003" stroke="none" /><path d="M 82.05923443525364 110.91462005526583 l -3.7013260460898914 2.2517750063639292 a25.332471024571163,25.332471024571163 0 0,0 -0.22343133807480883,-0.3744837743599349 l 3.739538259862932 -2.187729138117883" fill="#ff2003" stroke="none" /><line stroke="#e1ed5e" stroke-width="0.3" x1="26.63291911575756" x2="22.317208475507996" y1="142.92168965132927" y2="145.44649492493687" /><path d="M 25.769776987707644 143.4266507060508 a86.0,86.0 0 0,1 -11.730757126820373,-40.83630448921669" fill="none" id="id129" stroke="none" /><text fill="#e1ed5e" style="font-size:6.75px; font-family:Arial;" text-anchor="middle"><textPath startOffset="21.46611528233685" xlink:href="#id129">September</textPath></text><path d="M 81.69416730710424 110.29060199501025 l -3.776307614196833 2.122846817206384 a25.33208700355432,25.33208700355432 0 0,0 -0.21040540815459607,-0.38194693218269815 l 3.8122894318029457 -2.057529366625863" fill="#ff2003" stroke="none" /><path d="M 80.87730276802145 108.67885076344099 l -3.9433015126283095 1.7896704072750356 a25.330421109565755,25.330421109565755 0 0,0 -0.17678090671989746,-0.39859427585697793 l 3.973523504079487 -1.7215277949253616" fill="#ff2003" stroke="none" /><path d="M 80.20201598880116 107.00284435728193 l -4.083786752425918 1.4444967224638556 a25.331730026271057,25.331730026271057 0 0,0 -0.1418687485314385,-0.41233699052152045 l 4.108046331900585 -1.3739870288530383" fill="#ff2003" stroke="none" /><path d="M 79.67330655649465 105.27499134158121 l -5.240063043934032 1.3598516287420799 a26.413636223149435,26.413636223149435 0 0,0 -0.1104199242247011,-0.4410727087496727 l 5.262694282453792 -1.2694510805950154" fill="#ff3004" stroke="none" /><path d="M 79.29508885075956 103.50808413554451 l -5.339377751689615 0.9046639345307599 a26.41547519703292,26.41547519703292 0 0,0 -0.07209946171460782,-0.4489634169211808 l 5.354158967765514 -0.8126212879163655" fill="#ff3004" stroke="none" /><path d="M 79.1416061653843 102.43462659150553 l -3.3107717427648016 0.3864388115044338 a24.33324833874208,24.33324833874208 0 0,0 -0.04497908083396763,-0.4164504263540438 l 3.3169331250998213 -0.32939206326560794" fill="#ff1101" stroke="none" /><line stroke="#e1ed5e" stroke-width="0.3" x1="15.007084014347285" x2="10.007500721073583" y1="101.09737516637583" y2="101.16192664675087" /><path d="M 14.007167355692545 101.11028546245083 a86.0,86.0 0 0,1 10.666146001902534,-42.60595125391555" fill="none" id="id130" stroke="none" /><text fill="#e1ed5e" style="font-size:6.75px; font-family:Arial;" text-anchor="middle"><textPath startOffset="22.20632615414155" xlink:href="#id130">October</textPath></text><path d="M 79.16333360222342 97.38593545837743 l -3.222792476311335 -0.40431551652774916 a24.248055169216503,24.248055169216503 0 0,0 0.05552111940963347,-0.41369682893973786 l 3.2153553578438676 0.4597306875321464" fill="#ff1001" stroke="none" /><path d="M 79.26566170972629 96.67025291283419 l -4.2736896499461094 -0.6863158816133542 a25.32844691701437,25.32844691701437 0 0,0 0.07283513142392115,-0.4298770686243845 l 4.261242657001965 0.7597787385535667" fill="#ff2003" stroke="none" /><path d="M 80.14247586403 93.16781622104843 l -5.119252946721421 -1.7613312064208968 a26.41378225931077,26.41378225931077 0 0,0 0.15162381312002007,-0.4286609375725611 l 5.088176052791591 1.849189770420069" fill="#ff3004" stroke="none" /><path d="M 80.38941819471856 92.48833698450439 l -5.072279559889456 -1.9428926256545203 a26.431652758460825,26.431652758460825 0 0,0 0.1664016658074244,-0.4234740891825612 l 5.03808434420034 2.029915719732845" fill="#ff3004" stroke="none" /><path d="M 80.803312248108 91.48605970444005 l -10.436954240900905 -4.628902986962609 a32.417388348014214,32.417388348014214 0 0,0 0.2306229861567888,-0.5081471797612274 l 10.355728937780764 4.807872175565907" fill="#ff840c" stroke="none" /><line stroke="#e1ed5e" stroke-width="0.3" x1="26.266209847984243" x2="21.928928074336255" y1="57.711370442889674" y2="55.22380399835377" /><path d="M 25.398753493254645 57.213857153982495 a86.0,86.0 0 0,1 29.58750427330803,-30.492523968695096" fill="none" id="id131" stroke="none" /><text fill="#e1ed5e" style="font-size:6.75px; font-family:Arial;" text-anchor="middle"><textPath startOffset="21.46611528233685" xlink:href="#id131">November</textPath></text><line stroke="#e1ed5e" stroke-width="0.3" x1="56.762969772571076" x2="54.21961505331055" y1="26.818313649435495" y2="22.513508569990535" /><path d="M 56.25429882871897 25.957352633546506 a86.0,86.0 0 0,1 42.265352541879196,-11.944610805530505" fill="none" id="id132" stroke="none" /><text fill="#e1ed5e" style="font-size:6.75px; font-family:Arial;" text-anchor="middle"><textPath startOffset="22.20632615414155" xlink:href="#id132">December</textPath></text></svg>