<?xml version="1.0" encoding="utf-8" ?>
<svg baseProfile="full" height="200mm" version="1.1" viewBox="0,0,200,200" width="200mm" xmlns="http://www.w3.org/2000/svg" xmlns:ev="http://www.w3.org/2001/xml-events" xmlns:xlink="http://www.w3.org/1999/xlink"><defs /><rect fill="#1a1a1a" height="200" width="200" x="0" y="0" /><text alignment-baseline="middle" fill="#e1ed5e" style="dominant-baseline: central; font-size:9.0px; font-family:Arial;" text-anchor="middle" x="100.0" y="100.0">2024</text><line stroke="#e1ed5e" stroke-width="0.3" x1="100.0" x2="100.0" y1="15.0" y2="10.0" /><path d="M 100.0 14.0 a86.0,86.0 0 0,1 42.35913384403234,11.155469271406648" fill="none" id="id97" stroke="none" /><text fill="#e1ed5e" style="font-size:6.75px; font-family:Arial;" text-anchor="middle"><textPath startOffset="22.145653131862478" xlink:href="#id97">January</textPath></text><path d="M 104.9986988182912 79.60360301121754 l 2.212029009134615 -9.0258332140195 a30.292940199127003,30.292940199127003 0 0,0 0.5040091884864115,0.12811716480064594 l -2.366643490846421 8.986530817383585" fill="#ff0701" stroke="none" /><path d="M 107.06938296918511 80.22567764915836 l 4.0105948666347855 -11.218347634745365 a32.913697781892665,32.913697781892665 0 0,0 0.5303977327890501,0.1947693942542531 l -4.20258175107796 11.14784739148239" fill="#ff3204" stroke="none" /><path d="M 109.06512990194946 81.05736502329252 l 5.105046231121234 -10.667583183176427 a32.8261924553879,32.8261924553879 0 0,0 0.506210761068011,0.24761304978308996 l -5.287417241451312 10.578376383296115" fill="#ff3104" stroke="none" /><line stroke="#e1ed5e" stroke-width="0.3" x1="143.13028292997686" x2="145.6673583964461" y1="26.7553504044142" y2="22.446841604673864" /><path d="M 143.63769802327073 25.89364864446614 a86.0,86.0 0 0,1 29.32050498858742,28.57503671076993" fill="none" id="id98" stroke="none" /><text fill="#e1ed5e" style="font-size:6.75px; font-family:Arial;" text-anchor="middle"><textPath startOffset="20.669276256404974" xlink:href="#id98">February</textPath></text><path d="M 114.39649973595853 84.71141617570332 l 6.06881020660223 -6.4448661312886735 a29.852500029595664,29.852500029595664 0 0,0 0.37006795825763505,0.35451673273492706 l -6.178550650725176 6.339737268248166" fill="#ff0000" stroke="none" /><line stroke="#e1ed5e" stroke-width="0.3" x1="172.87174338648825" x2="177.1583165268699" y1="56.24261187166439" y2="53.66864786411523" /><path d="M 173.72905801456457 55.72781907015455 a86.0,86.0 0 0,1 12.242430191666344,42.057860355516425" fill="none" id="id99" stroke="none" /><text fill="#e1ed5e" style="font-size:6.75px; font-family:Arial;" text-anchor="middle"><textPath startOffset="22.145653131862474" xlink:href="#id99">March</textPath></text><path d="M 118.36410011445183 89.81374322990088 l 7.870820968698793 -4.36581171301458 a30.00056301765639,30.00056301765639 0 0,0 0.24593983036416942,0.45250158708967764 l -7.944606148678304 4.230055292450299" fill="#ff0200" stroke="none" /><path d="M 118.8641267826498 90.77261029715802 l 13.314534924182949 -6.512806231271409 a35.82206076270689,35.82206076270689 0 0,0 0.26545979415702703,0.5547088719188802 l -13.424373976299888 6.283284857287425" fill="#ff6108" stroke="none" /><path d="M 119.4528033332814 92.08871423366111 l 17.793812006992383 -7.236588436535781 a40.209059267439144,40.209059267439144 0 0,0 0.2545450293989997,0.6416197552056344 l -17.915415711357507 6.9300676641165815" fill="#ffa40f" stroke="none" /><path d="M 119.94978838288452 93.4421083053983 l 16.711282797901394 -5.493330583923316 a38.591010592223014,38.591010592223014 0 0,0 0.20147316260577378,0.6311118123101461 l -16.803120676284426 5.205649737921783" fill="#ff8c0c" stroke="none" /><path d="M 120.16314734710363 94.1308016681162 l 29.9416286911951 -8.715571738034729 a52.184328105672364,52.184328105672364 0 0,0 0.24298391867844824,0.8622642071006473 l -30.086831101948132 8.200299607031068" fill="#b3ff20" stroke="none" /><path d="M 120.43855184770803 95.1765574152323 l 17.225623494079116 -4.065200241661622 a38.69881232638439,38.69881232638439 0 0,0 0.14703547115541762,0.6478654157759023 l -17.2928698267922 3.7689004919466935" fill="#ff8d0d" stroke="none" /><path d="M 120.592083275326 95.88100663000786 l 17.337641160253987 -3.4680138010105432 a38.68108935347969,38.68108935347969 0 0,0 0.12465203500548366,0.6522321200849679 l -17.39461948754163 3.1698791158922606" fill="#ff8d0d" stroke="none" /><path d="M 120.77682067341334 96.94652285012252 l 46.62290526652333 -6.851961526260002 a68.12371666420802,68.12371666420802 0 0,0 0.16010852238179574,1.1584655099834926 l -46.733658305460345 6.0506077080764245" fill="#36ff72" stroke="none" /><path d="M 120.99303781780057 99.45929381324524 l 62.8260864079977 -1.6181771263989781 a83.84692220433388,83.84692220433388 0 0,0 0.024709162538230876,1.439184842621615 l -62.844607002134595 0.5394453678082967" fill="#4dd4ff" stroke="none" /><line stroke="#e1ed5e" stroke-width="0.3" x1="184.99686870605535" x2="189.99668451229388" y1="99.2704041080226" y2="99.22748670261217" /><path d="M 185.99683186730306 99.26182062694052 a86.0,86.0 0 0,1 -10.086455211305974,41.156179273409016" fill="none" id="id100" stroke="none" /><text fill="#e1ed5e" style="font-size:6.75px; font-family:Arial;" text-anchor="middle"><textPath startOffset="21.40746469413373" xlink:href="#id100">April</textPath></text><path d="M 120.93736805541906 101.62068470465957 l 12.040850635089358 0.9320379908175239 a33.0768695791939,33.0768695791939 0 0,0 -0.04868029577105648,0.5657388272165165 l -12.023076716620562 -1.1385978654096978" fill="#ff3505" stroke="none" /><path d="M 120.7213421655516 103.40968896794604 l 11.618542033236007 1.91182667019521 a32.77478663054841,32.77478663054841 0 0,0 -0.09611624839501917,0.5543729788434267 l -11.584010967348755 -2.1109926819592246" fill="#ff3004" stroke="none" /><path d="M 120.592083275326 104.11899336999214 l 14.439980946875693 2.8884006046276096 a35.72602824250131,35.72602824250131 0 0,0 -0.12545329075025968,0.6003394108424552 l -14.388269945301069 -3.1358564667554742" fill="#ff5f08" stroke="none" /><path d="M 120.43855184770803 104.8234425847677 l 17.203378816780706 4.059950558388316 a38.67595658656744,38.67595658656744 0 0,0 -0.15804188090674812,0.6448648060236474 l -17.13114940935766 -4.354671189020063" fill="#ff8d0d" stroke="none" /><path d="M 119.83427380445688 106.89939002012753 l 16.770393725897293 5.833613483749798 a38.756045505669405,38.756045505669405 0 0,0 -0.22397271868272559,0.6264915560992884 l -16.66778083717062 -6.120639996230008" fill="#ff8e0d" stroke="none" /><path d="M 119.4528033332814 107.91128576633889 l 13.660910733766926 5.555773468308934 a35.74744387706269,35.74744387706269 0 0,0 -0.2360593614110024,0.5664565329932815 l -13.563525527819438 -5.789462510743494" fill="#ff6008" stroke="none" /><path d="M 119.31412917781788 108.2440532568976 l 16.31839323428061 6.965351720072019 a38.742775496886765,38.742775496886765 0 0,0 -0.26634019516065555,0.6094384889895569 l -16.196419157102987 -7.24445227883742" fill="#ff8e0d" stroke="none" /><path d="M 119.0197475246899 108.90220220490707 l 10.71135575375305 5.013455340814738 a32.826575012986744,32.826575012986744 0 0,0 -0.24326171248360043,0.5083234187735881 l -10.62371478330954 -5.196591261653429" fill="#ff3104" stroke="none" /><path d="M 118.8641267826498 109.22738970284198 l 15.896894935810705 7.775967916668947 a38.69680608588083,38.69680608588083 0 0,0 -0.2970073601595732,0.5942136776621646 l -15.761067662439398 -8.047713450494857" fill="#ff8d0d" stroke="none" /><line stroke="#e1ed5e" stroke-width="0.3" x1="174.33088141563837" x2="178.70328620479359" y1="141.23008692659167" y2="143.65538615756765" /><path d="M 175.20536237346943 141.71514677278685 a86.0,86.0 0 0,1 -30.301960400862466,31.631185727798858" fill="none" id="id101" stroke="none" /><text fill="#e1ed5e" style="font-size:6.75px; font-family:Arial;" text-anchor="middle"><textPath startOffset="22.145653131862474" xlink:href="#id101">May</textPath></text><path d="M 117.62189284568427 111.42229804090321 l 26.03501548198591 16.875582489289904 a52.025913612657305,52.025913612657305 0 0,0 -0.49220369417411874,0.7452591267848129 l -25.741487348891063 -17.32002149441378" fill="#b5ff20" stroke="none" /><path d="M 117.21940702142032 112.02048342749411 l 9.407389445724217 6.56708844779857 a32.47282122517094,32.47282122517094 0 0,0 -0.3230039077178112,0.45434544709267655 l -9.293270439476444 -6.72761112160075" fill="#ff2b04" stroke="none" /><path d="M 116.1254893667686 113.45245675266167 l 23.856650614041616 19.902066433414912 a52.068183513693114,52.068183513693114 0 0,0 -0.5784662039073255,0.6814317336702489 l -23.511489846627175 -20.308664949534716" fill="#b4ff20" stroke="none" /><path d="M 115.41159269507618 114.26474011684316 l 10.839810959545643 10.03316719517434 a35.770441618482785,35.770441618482785 0 0,0 -0.42097409384217693,0.44705989925369477 l -10.665981031967206 -10.217768554372531" fill="#ff6008" stroke="none" /><path d="M 115.16444852881244 114.52719865689866 l 12.782610652069282 12.245451850331252 a38.701588236685886,38.701588236685886 0 0,0 -0.46370621032270615,0.4758034220785946 l -12.570517640595769 -12.463077964477584" fill="#ff8d0d" stroke="none" /><path d="M 114.39649973595853 115.28858382429668 l 32.35869990159485 34.36381793937879 a68.20124407992067,68.20124407992067 0 0,0 -0.8592389877569785,0.7952987793746037 l -31.764031142523905 -34.91423446488577" fill="#37ff73" stroke="none" /><path d="M 113.31354834802062 116.24036423190432 l 5.636705132454986 6.875863746160761 a29.891003711955825,29.891003711955825 0 0,0 -0.3996131554971374,0.32190007093745315 l -5.517841206602595 -6.971612110891617" fill="#ff0100" stroke="none" /><path d="M 112.45986205192187 116.90419585922612 l 37.379586155765615 50.71258757767834 a84.0,84.0 0 0,0 -1.1680759585041285,0.8455969145076918 l -36.50352918688752 -51.346785263559106" fill="#4dd2ff" stroke="none" /><line stroke="#e1ed5e" stroke-width="0.3" x1="143.1302829299769" x2="145.66735839644613" y1="173.24464959558577" y2="177.55315839532614" /><path d="M 143.63769802327073 174.10635135553383 a86.0,86.0 0 0,1 -40.68552437913181,11.842963189579606" fill="none" id="id102" stroke="none" /><text fill="#e1ed5e" style="font-size:6.75px; font-family:Arial;" text-anchor="middle"><textPath startOffset="21.407464694133747" xlink:href="#id102">June</textPath></text><line stroke="#e1ed5e" stroke-width="0.3" x1="101.45913802915013" x2="101.54496967792366" y1="184.9874750549273" y2="189.98673829345242" /><path d="M 101.47630435890484 185.9873277026323 a86.0,86.0 0 0,1 -42.54439059252881,-10.42667462771756" fill="none" id="id103" stroke="none" /><text fill="#e1ed5e" style="font-size:6.75px; font-family:Arial;" text-anchor="middle"><textPath startOffset="22.145653131862474" xlink:href="#id103">July</textPath></text><line stroke="#e1ed5e" stroke-width="0.3" x1="58.13341422392154" x2="55.67067388415222" y1="173.97424548756322" y2="178.32567169271397" /><path d="M 57.64086615596768 174.84453072859336 a86.0,86.0 0 0,1 -31.369924170532247,-30.572349798747897" fill="none" id="id104" stroke="none" /><text fill="#e1ed5e" style="font-size:6.75px; font-family:Arial;" text-anchor="middle"><textPath startOffset="22.145653131862474" xlink:href="#id104">August</textPath></text><line stroke="#e1ed5e" stroke-width="0.3" x1="26.387840678322732" x2="22.057713659400548" y1="142.50000000000003" y2="145.00000000000006" /><path d="M 25.521815274538298 143.00000000000003 a86.0,86.0 0 0,1 -11.493303480769221,-40.785679425670985" fill="none" id="id105" stroke="none" /><text fill="#e1ed5e" style="font-size:6.75px; font-family:Arial;" text-anchor="middle"><textPath startOffset="21.40746469413373" xlink:href="#id105">September</textPath></text><line stroke="#e1ed5e" stroke-width="0.3" x1="15.003131293944662" x2="10.003315487706104" y1="100.72959589197737" y2="100.7725132973878" /><path d="M 14.003168132696942 100.73817937305945 a86.0,86.0 0 0,1 10.791469493833604,-42.45332614584628" fill="none" id="id106" stroke="none" /><text fill="#e1ed5e" style="font-size:6.75px; font-family:Arial;" text-anchor="middle"><textPath startOffset="22.145653131862435" xlink:href="#id106">October</textPath></text><line stroke="#e1ed5e" stroke-width="0.3" x1="26.387840678322718" x2="22.05771365940052" y1="57.49999999999999" y2="54.99999999999999" /><path d="M 25.521815274538284 56.99999999999999 a86.0,86.0 0 0,1 29.574782752854787,-30.34633250058573" fill="none" id="id107" stroke="none" /><text fill="#e1ed5e" style="font-size:6.75px; font-family:Arial;" text-anchor="middle"><textPath startOffset="21.40746469413373" xlink:href="#id107">November</textPath></text><line stroke="#e1ed5e" stroke-width="0.3" x1="56.869717070023135" x2="54.33264160355391" y1="26.7553504044142" y2="22.446841604673864" /><path d="M 56.362301976729285 25.89364864446614 a86.0,86.0 0 0,1 42.16139366436587,-11.88097634709845" fill="none" id="id108" stroke="none" /><text fill="#e1ed5e" style="font-size:6.75px; font-family:Arial;" text-anchor="middle"><textPath startOffset="22.145653131862474" xlink:href="#id108">December</textPath></text></svg>