<?xml version="1.0" encoding="utf-8" ?>
<svg baseProfile="full" height="200mm" version="1.1" viewBox="0,0,200,200" width="200mm" xmlns="http://www.w3.org/2000/svg" xmlns:ev="http://www.w3.org/2001/xml-events" xmlns:xlink="http://www.w3.org/1999/xlink"><defs /><rect fill="#1a1a1a" height="200" width="200" x="0" y="0" /><text alignment-baseline="middle" fill="#e1ed5e" style="dominant-baseline: central; font-size:9.0px; font-family:Arial;" text-anchor="middle" x="100.0" y="100.0">2022</text><line stroke="#e1ed5e" stroke-width="0.3" x1="100.0" x2="100.0" y1="15.0" y2="10.0" /><path d="M 100.0 14.0 a86.0,86.0 0 0,1 42.46469731375804,11.215312516191453" fill="none" id="id73" stroke="none" /><text fill="#e1ed5e" style="font-size:6.75px; font-family:Arial;" text-anchor="middle"><textPath startOffset="22.20632615414155" xlink:href="#id73">January</textPath></text><line stroke="#e1ed5e" stroke-width="0.3" x1="143.23703022742887" x2="145.7803849466894" y1="26.81831364943548" y2="22.513508569990506" /><path d="M 143.74570117128098 25.957352633546492 a86.0,86.0 0 0,1 28.547481713284135,27.462654790039103" fill="none" id="id74" stroke="none" /><text fill="#e1ed5e" style="font-size:6.75px; font-family:Arial;" text-anchor="middle"><textPath startOffset="19.985693538727396" xlink:href="#id74">February</textPath></text><line stroke="#e1ed5e" stroke-width="0.3" x1="172.23445277983987" x2="176.4835382374775" y1="55.19839476539836" y2="52.563006222186495" /><path d="M 173.08426987136738 54.67131705675599 a86.0,86.0 0 0,1 12.851231095245387,41.99856678651699" fill="none" id="id75" stroke="none" /><text fill="#e1ed5e" style="font-size:6.75px; font-family:Arial;" text-anchor="middle"><textPath startOffset="22.20632615414155" xlink:href="#id75">March</textPath></text><line stroke="#e1ed5e" stroke-width="0.3" x1="184.98032266829074" x2="189.97916517819016" y1="98.17113171792111" y2="98.06355123074" /><path d="M 185.9800911702706 98.14961562048488 a86.0,86.0 0 0,1 -9.607161424134198,41.387399972396054" fill="none" id="id76" stroke="none" /><text fill="#e1ed5e" style="font-size:6.75px; font-family:Arial;" text-anchor="middle"><textPath startOffset="21.466115282336823" xlink:href="#id76">April</textPath></text><line stroke="#e1ed5e" stroke-width="0.3" x1="174.80103733775053" x2="179.2010983576182" y1="140.37084112569926" y2="142.7455964860345" /><path d="M 175.68104954172406 140.8457921977663 a86.0,86.0 0 0,1 -30.038265399797805,32.042727171017184" fill="none" id="id77" stroke="none" /><text fill="#e1ed5e" style="font-size:6.75px; font-family:Arial;" text-anchor="middle"><textPath startOffset="22.206326154141568" xlink:href="#id77">May</textPath></text><path d="M 115.32070863581623 114.36230785411682 l 6.789059635182179 6.364363871035112 a30.305721799677713,30.305721799677713 0 0,0 -0.3600513830833946,0.37751243569647924 l -6.67850170071982 -6.4802834233140985" fill="#ff0b01" stroke="none" /><path d="M 115.07121518719521 114.62390073753431 l 6.659125104490625 6.461481925467543 a30.278722747792447,30.278722747792447 0 0,0 -0.36616978586410026,0.3709280598568332 l -6.546914693570988 -6.575150479305041" fill="#ff0b01" stroke="none" /><path d="M 113.48314897796784 116.09983520530334 l 5.970580751388698 7.1292964525118006 a30.299177512912127,30.299177512912127 0 0,0 -0.4027335963990832,0.33142233187279685 l -5.8469770264449235 -7.2310139032417755" fill="#ff0b01" stroke="none" /><path d="M 112.92097659922987 116.55440617244103 l 5.662327705647605 7.25459658570572 a30.20277820375334,30.20277820375334 0 0,0 -0.4125861612542721,0.3163534748733097 l -5.536612815899839 -7.350989402406401" fill="#ff0901" stroke="none" /><path d="M 112.63410532772338 116.77436683061366 l 5.260494715640432 6.984385976031605 a29.743823655327677,29.743823655327677 0 0,0 -0.41161915197419335,0.30450600820638896 l -5.139490593247674 -7.073901932977763" fill="#ff0200" stroke="none" /><path d="M 111.7513745106137 117.40417183066458 l 5.196514520519976 7.696208775746865 a30.286301345630456,30.286301345630456 0 0,0 -0.4345728036678251,0.28801115774033653 l -5.063267018112187 -7.78451795457852" fill="#ff0b01" stroke="none" /><line stroke="#e1ed5e" stroke-width="0.3" x1="143.8653032363475" x2="146.44561519142675" y1="172.8068346515853" y2="177.08958963109032" /><path d="M 144.38136562736335 173.6633856474863 a86.0,86.0 0 0,1 -40.68145358897372,12.25698825130547" fill="none" id="id78" stroke="none" /><text fill="#e1ed5e" style="font-size:6.75px; font-family:Arial;" text-anchor="middle"><textPath startOffset="21.466115282336833" xlink:href="#id78">June</textPath></text><path d="M 108.92500713936063 119.00905698771935 l 3.880273031544075 8.264456266845732 a30.130046888484962,30.130046888484962 0 0,0 -0.4713659377093139,0.21638098296305353 l -3.7374390980673415 -8.33002432014286" fill="#ff0801" stroke="none" /><path d="M 108.59647513512805 119.15986991738527 l 3.7999472748166285 8.469342879955272 a30.282745720401664,30.282745720401664 0 0,0 -0.4774281439343513,0.20929046798099715 l -3.6535984562245236 -8.533497901230724" fill="#ff0b01" stroke="none" /><path d="M 106.91757812671514 119.82793768551818 l 3.0253040264608093 8.671465448977408 a30.184050167836027,30.184050167836027 0 0,0 -0.49204352166625936,0.16692787760998495 l -2.875590771857323 -8.722256313485516" fill="#ff0901" stroke="none" /><path d="M 106.57524785965236 119.94407469862006 l 2.889885002540255 8.765613645495625 a30.229703023933446,30.229703023933446 0 0,0 -0.495592452160959,0.1586730528881259 l -2.7385712052883555 -8.814059545043458" fill="#ff0a01" stroke="none" /><path d="M 105.88484417918355 120.15858648285463 l 2.788261024932145 9.551213132658615 a30.949877981594852,30.949877981594852 0 0,0 -0.5126903762267802,0.14489142144743766 l -2.6234394806007595 -9.597793347444572" fill="#ff1602" stroke="none" /><path d="M 103.41894727170886 120.7198165907248 l 1.5024457277406968 9.105258853771579 a30.228384580141423,30.228384580141423 0 0,0 -0.5141188034798013,0.0802947837163303 l -1.3454910606523784 -9.129771944835015" fill="#ff0a01" stroke="none" /><path d="M 101.98527174616119 120.90594882070398 l 0.8725129129232316 9.188016873885136 a30.229351703018786,30.229351703018786 0 0,0 -0.5184415612776961,0.0447333193953604 l -0.7142270339039938 -9.20167444555916" fill="#ff0a01" stroke="none" /><path d="M 100.90346689309514 120.98055641714683 l 0.46346954870208895 10.762817197275824 a31.772791562290173,31.772791562290173 0 0,0 -0.5466125219970842,0.018826440475013487 l -0.27813667503035244 -10.769200436176932" fill="#ff2303" stroke="none" /><line stroke="#e1ed5e" stroke-width="0.3" x1="102.19456741930631" x2="102.32365962044197" y1="184.97166512339345" y2="189.96999836594603" /><path d="M 102.22038585953345 185.97133177190398 a86.0,86.0 0 0,1 -42.740103519485714,-10.115201625700543" fill="none" id="id79" stroke="none" /><text fill="#e1ed5e" style="font-size:6.75px; font-family:Arial;" text-anchor="middle"><textPath startOffset="22.20632615414155" xlink:href="#id79">July</textPath></text><path d="M 100.54218724476979 120.99299961872073 l 0.2797182563380723 10.830437833607842 a31.834049380105895,31.834049380105895 0 0,0 -0.5479099371389332,0.009432766455431537 l -0.09324862930647115 -10.833648077342433" fill="#ff2403" stroke="none" /><path d="M 99.09653310690486 120.98055641714683 l -0.46326964922215025 10.758175076630776 a31.76814513959252,31.76814513959252 0 0,0 -0.5461275923697585,-0.02822855843386729 l 0.6483853100053977 -10.748606711434705" fill="#ff2303" stroke="none" /><path d="M 96.93821686468263 120.77559828337769 l -1.5707590364445363 10.658318143023724 a31.77344093539668,31.77344093539668 0 0,0 -0.5403968377084164,-0.08439887222777075 l 1.7539917377614698 -10.629700963448848" fill="#ff2303" stroke="none" /><path d="M 96.58105272829116 120.7198165907248 l -1.7539258426013657 10.629301619579795 a31.773036191406142,31.773036191406142 0 0,0 -0.5388571199535752,-0.09368721741311353 l 1.9366319340269909 -10.597535823645675" fill="#ff2303" stroke="none" /><path d="M 96.22490169976321 120.6578951692458 l -2.0249716432295015 11.080943752883611 a32.26444959198868,32.26444959198868 0 0,0 -0.5454725953892877,-0.10454112114207305 l 2.215411853190484 -11.04444543339307" fill="#ff2b04" stroke="none" /><path d="M 95.86986931433489 120.58985236759428 l -2.4018611811954114 11.97394728934715 a33.212467024389355,33.212467024389355 0 0,0 -0.5595644962011372,-0.11726218072263998 l 2.607617138825935 -11.930829127897969" fill="#ff3a05" stroke="none" /><path d="M 94.46302465271185 120.25689768951611 l -3.4095197038945577 12.473649868426447 a33.93123217838657,33.93123217838657 0 0,0 -0.5620770525079273,-0.15884858947466554 l 3.623727924507099 -12.41311248561326" fill="#ff4606" stroke="none" /><path d="M 93.76903079525671 120.05430185196036 l -3.8289081127476625 12.323296189300455 a33.90442429188889,33.90442429188889 0 0,0 -0.5558366471751215,-0.177961341682686 l 4.040466105013724 -12.255562000958063" fill="#ff4606" stroke="none" /><path d="M 93.42475214034765 119.94407469862007 l -4.050985440250199 12.287469301217184 a33.93802090218878,33.93802090218878 0 0,0 -0.5532386551918237,-0.18768858943663203 l 4.2618938283792485 -12.215917724882429" fill="#ff4606" stroke="none" /><path d="M 92.06813273071674 119.44442032107085 l -4.878619408867244 11.959595786468679 a33.91637947384233,33.91637947384233 0 0,0 -0.5386705021448029,-0.2251643135839997 l 5.083761370509508 -11.873846429864706" fill="#ff4606" stroke="none" /><path d="M 91.7346041902142 119.30500536409082 l -5.079168136428488 11.863118279560322 a33.90470938351378,33.90470938351378 0 0,0 -0.5345308718390012,-0.23432262579990717 l 5.282619682925233 -11.773931100465962" fill="#ff4606" stroke="none" /><path d="M 91.40352486487194 119.15986991738527 l -5.275278527730031 11.757569094367831 a33.88677595653634,33.88677595653634 0 0,0 -0.530137639141967,-0.24336018852086166 l 5.4768841626394185 -11.665021835512896" fill="#ff4506" stroke="none" /><line stroke="#e1ed5e" stroke-width="0.3" x1="58.666819895761336" x2="56.23545636021788" y1="174.27360380694188" y2="178.64263932499728" /><path d="M 58.180547188652646 175.14741091055294 a86.0,86.0 0 0,1 -31.652253787137756,-30.449443065178592" fill="none" id="id80" stroke="none" /><text fill="#e1ed5e" style="font-size:6.75px; font-family:Arial;" text-anchor="middle"><textPath startOffset="22.20632615414155" xlink:href="#id80">August</textPath></text><path d="M 87.65650970185807 116.9893568818739 l -6.328199305515989 8.710019113250446 a31.76617570929999,31.76617570929999 0 0,0 -0.4396060996879667,-0.3252100830516182 l 6.47719037562252 -8.599799081459063" fill="#ff2303" stroke="none" /><path d="M 87.36589467227662 116.77436683061367 l -7.77447214583185 10.322206781227736 a33.922475381316815,33.922475381316815 0 0,0 -0.46339922120413085,-0.3553147624628283 l 7.9510000955294675 -10.18685267693754" fill="#ff4606" stroke="none" /><path d="M 87.07902340077011 116.55440617244103 l -7.939805985502033 10.172510739026734 a33.90428199564114,33.90428199564114 0 0,0 -0.45696918969828587,-0.3630439614679115 l 8.113732667917677 -10.034332863553692" fill="#ff4606" stroke="none" /><path d="M 85.70375840098266 115.38237550388516 l -8.753341090246913 9.4183620660846 a33.85793623603984,33.85793623603984 0 0,0 -0.4234888843184918,-0.40043517296653086 l 8.914165808956222 -9.266292256372138" fill="#ff4506" stroke="none" /><path d="M 85.44109423537348 115.13401014063109 l -8.933396758667758 9.286282865052051 a33.885675267425256,33.885675267425256 0 0,0 -0.4168745628151279,-0.4079995001794144 l 9.09192127385868 -9.131133261950067" fill="#ff4506" stroke="none" /><path d="M 83.95833913139862 113.55231037782056 l -7.500702485616378 6.3367408754867895 a30.819104984712038,30.819104984712038 0 0,0 -0.33886926765100295,-0.40818986272984875 l 7.608667753160917 -6.206689755643179" fill="#ff1302" stroke="none" /><path d="M 83.50135304334701 112.99209946851258 l -10.131426173487977 7.9781388710041545 a33.89559987568879,33.89559987568879 0 0,0 -0.3570226485145927,-0.4614999003424534 l 10.267255639220638 -7.802560976548449" fill="#ff4506" stroke="none" /><line stroke="#e1ed5e" stroke-width="0.3" x1="26.63291911575756" x2="22.317208475507996" y1="142.92168965132927" y2="145.44649492493687" /><path d="M 25.769776987707644 143.4266507060508 a86.0,86.0 0 0,1 -11.730757126820373,-40.83630448921669" fill="none" id="id81" stroke="none" /><text fill="#e1ed5e" style="font-size:6.75px; font-family:Arial;" text-anchor="middle"><textPath startOffset="21.46611528233685" xlink:href="#id81">September</textPath></text><path d="M 81.87401531095188 110.60418214915194 l -11.177988938670666 6.539420219111637 a33.95034569095242,33.95034569095242 0 0,0 -0.2907572334502159,-0.5069597445206011 l 11.288898168273258 -6.346040628732729" fill="#ff4606" stroke="none" /><path d="M 81.51974371655577 109.97397251340807 l -12.871006147071627 6.946606127199928 a35.625940514182574,35.625940514182574 0 0,0 -0.28661491866669325,-0.542167412465124 l 12.988673573963206 -6.7240236996486775" fill="#ff6108" stroke="none" /><path d="M 80.87730276802145 108.67885076344099 l -13.361493644742609 6.064124109305278 a35.673210747193494,35.673210747193494 0 0,0 -0.24896319386957746,-0.5613462778122252 l 13.463897923343467 -5.8332294950003565" fill="#ff6109" stroke="none" /><path d="M 80.73074385275274 108.34839909993369 l -11.857403333879702 5.137216224833539 a33.922422542348414,33.922422542348414 0 0,0 -0.22752094907951212,-0.5377923150221111 l 11.944075264151522 -4.932349384145269" fill="#ff4606" stroke="none" /><path d="M 80.20201598880116 107.00284435728193 l -12.20901216281731 4.31851101021242 a33.95027085960548,33.95027085960548 0 0,0 -0.19013634024050122,-0.5526252055869122 l 12.281539334001039 -4.107713101536212" fill="#ff4606" stroke="none" /><path d="M 79.76711848015287 105.62410040840567 l -14.084082326912878 3.9149289283936035 a35.61807249625041,35.61807249625041 0 0,0 -0.15911428085101767,-0.5921234310119993 l 14.149384684105671 -3.671914564206065" fill="#ff6108" stroke="none" /><path d="M 79.50377843672027 104.57218783832718 l -12.602042557755166 2.8111964706645036 a33.91178927275956,33.91178927275956 0 0,0 -0.12218895875702622,-0.5708261365138898 l 12.648565555236633 -2.5938565147344503" fill="#ff4606" stroke="none" /><path d="M 79.4281124754447 104.21870165774334 l -11.858005107827108 2.431735335233933 a33.104776820655516,33.104776820655516 0 0,0 -0.10967150201136228,-0.5592126259812618 l 11.898106542814137 -2.227258982184716" fill="#ff3905" stroke="none" /><path d="M 79.07016306316243 101.71520430193888 l -14.916146461781349 1.2223811708044523 a35.96614983875444,35.96614983875444 0 0,0 -0.04525473573019299,-0.6174649139835083 l 14.934977756175877 -0.9654431203241832" fill="#ff6609" stroke="none" /><path d="M 79.0235259727143 100.99374915477108 l -12.012336187103351 0.5690779545328879 a33.02580851295779,33.02580851295779 0 0,0 -0.02201385143076489,-0.5680796890780568 l 12.020352171385316 -0.36222101844083426" fill="#ff3705" stroke="none" /><line stroke="#e1ed5e" stroke-width="0.3" x1="15.007084014347285" x2="10.007500721073583" y1="101.09737516637583" y2="101.16192664675087" /><path d="M 14.007167355692545 101.11028546245083 a86.0,86.0 0 0,1 10.666146001902534,-42.60595125391555" fill="none" id="id82" stroke="none" /><text fill="#e1ed5e" style="font-size:6.75px; font-family:Arial;" text-anchor="middle"><textPath startOffset="22.20632615414155" xlink:href="#id82">October</textPath></text><path d="M 79.00175016825051 100.2711162175752 l -21.539035958941753 0.2780985085040333 a42.54083120079209,42.54083120079209 0 0,0 -0.0031514707812317637,-0.7322908223058905 l 21.54063172701249 0.09270179200553254" fill="#ffc912" stroke="none" /><path d="M 79.12142395522702 97.74499172005258 l -21.397836384421822 -2.311091432497934 a42.52228021246475,42.52228021246475 0 0,0 0.08486160729461305,-0.7270424271900141 l 21.35488442412362 2.6790775980128103" fill="#ffc912" stroke="none" /><path d="M 79.21141760316559 97.0276538004421 l -10.669450865157144 -1.5255153586253563 a31.777958010374896,31.777958010374896 0 0,0 0.08208414002838836,-0.5408319237749912 l 10.641610831689453 1.7089463947924395" fill="#ff2303" stroke="none" /><path d="M 79.32604984820605 96.31383870115002 l -17.181334051460794 -3.063428526145138 a38.45230168552807,38.45230168552807 0 0,0 0.12179176241011941,-0.6506164648043329 l 17.12605656514081 3.3587230684120435" fill="#ff8c0c" stroke="none" /><path d="M 79.46518482838121 95.60439243477599 l -21.035849101503327 -4.50285705903383 a42.51238408720217,42.51238408720217 0 0,0 0.1593315833137176,-0.714252246211517 l 20.955223131187573 4.864287474795306" fill="#ffc912" stroke="none" /><path d="M 79.54389044137918 95.25157060432595 l -22.331388382166267 -5.183733531354897 a43.925139048634875,43.925139048634875 0 0,0 0.177305287395577,-0.7350448839573718 l 22.238850294509874 5.567363646971666" fill="#ffdd14" stroke="none" /><path d="M 79.81627453868168 94.20196356495316 l -43.66759428099249 -12.544081773073257 a66.43360846134628,66.43360846134628 0 0,0 0.3251896754007717,-1.096377925004242 l 43.44519870848001 13.293889084824038" fill="#34ff5d" stroke="none" /><path d="M 80.38941819471856 92.48833698450439 l -50.43592488449738 -19.31904292126416 a75.009331956138,75.009331956138 0 0,0 0.4722246430317539,-1.201760208511745 l 50.09590669158394 20.18435213467167" fill="#40ffc9" stroke="none" /><path d="M 80.803312248108 91.48605970444005 l -28.984447146671673 -12.854918290904314 a52.70720896994925,52.70720896994925 0 0,0 0.37496832854470796,-0.826193008012813 l 28.758876501163613 13.351933307759198" fill="#aaff21" stroke="none" /><path d="M 81.26839172434947 90.50648371742162 l -56.19482482695157 -28.480548847735136 a84.0,84.0 0 0,0 0.6647622673595439,-1.284109110958658 l 55.69625312643191 29.44363068095413" fill="#4dd2ff" stroke="none" /><line stroke="#e1ed5e" stroke-width="0.3" x1="26.266209847984243" x2="21.928928074336255" y1="57.711370442889674" y2="55.22380399835377" /><path d="M 25.398753493254645 57.213857153982495 a86.0,86.0 0 0,1 29.58750427330803,-30.492523968695096" fill="none" id="id83" stroke="none" /><text fill="#e1ed5e" style="font-size:6.75px; font-family:Arial;" text-anchor="middle"><textPath startOffset="21.46611528233685" xlink:href="#id83">November</textPath></text><path d="M 82.15384107792192 88.93136811851018 l -19.186737202216875 -11.900091892350755 a43.57749037234487,43.57749037234487 0 0,0 0.40085564594258466,-0.6340573661895762 l 18.979053960028327 12.228596906254548" fill="#ffd814" stroke="none" /><path d="M 84.07557802195018 86.31012108654704 l -6.5551630827297505 -5.635331001916671 a29.644484862751867,29.644484862751867 0 0,0 0.3359823141608761,-0.38408586550152923 l 6.45718890499103 5.747332423621144" fill="#ff0000" stroke="none" /><path d="M 84.31358615837235 86.03803664274999 l -6.458586795747981 -5.748576640414289 a29.646356272380118,29.646356272380118 0 0,0 0.34256556581216374,-0.37826945384752225 l 6.358677589319772 5.858898881531367" fill="#ff0000" stroke="none" /><path d="M 85.31137513191541 84.99185889309783 l -10.59658249480203 -10.827086045234179 a36.149698109205,36.149698109205 0 0,0 0.44845724265714504,-0.43141551212396123 l 10.408642008532457 11.007884644120454" fill="#ff6909" stroke="none" /><path d="M 85.83668400450813 84.49514656593479 l -6.120319438902687 -6.700030974388414 a30.07461983181523,30.07461983181523 0 0,0 0.3852258231898377,-0.34585954763192783 l 6.004082628116878 6.804389530789622" fill="#ff0701" stroke="none" /><path d="M 86.10567301691215 84.25364557470407 l -14.22239734538546 -16.118154528133697 a42.49584824199371,42.49584824199371 0 0,0 0.5526609374597187,-0.4792621189537541 l 13.942842609278967 16.36058164050713" fill="#ffc812" stroke="none" /><path d="M 86.37877921826538 84.01681056812374 l -13.970505788690406 -16.393041714674194 a42.53849689859718,42.53849689859718 0 0,0 0.5613916097397366,-0.4701493283986337 l 13.68625664199156 16.63109220046664" fill="#ffc912" stroke="none" /><line stroke="#e1ed5e" stroke-width="0.3" x1="56.762969772571076" x2="54.21961505331055" y1="26.818313649435495" y2="22.513508569990535" /><path d="M 56.25429882871897 25.957352633546506 a86.0,86.0 0 0,1 42.265352541879196,-11.944610805530505" fill="none" id="id84" stroke="none" /><text fill="#e1ed5e" style="font-size:6.75px; font-family:Arial;" text-anchor="middle"><textPath startOffset="22.20632615414155" xlink:href="#id84">December</textPath></text></svg>